<?xml version="1.0" encoding="UTF-8"?><svg id="Capa_2" xmlns="http://www.w3.org/2000/svg" viewBox="0 0 1664 1207.3"><defs><style>.cls-1{fill:#1b2f52;}</style></defs><g id="Texto"><path class="cls-1" d="M804.34,192.17h-11.55v-3.1h26.51v3.1h-11.5v33.28h-3.47v-33.28ZM848.34,222.35h-18.12v-13.65h16.65v-3.1h-16.65v-13.43h17.77v-3.1h-21.24v36.38h21.58v-3.1ZM874.04,189.07h-3.47v36.38h3.47v-36.38ZM887.01,196.27c-.03-.93-.07-1.93-.1-2.95.68,1.14,1.28,2.16,1.81,3.06.72,1.21,1.38,2.3,1.99,3.26.61.96,1.22,1.9,1.82,2.81l15.48,23h4.03v-36.38h-3.47v24.07c0,.78,0,1.67.02,2.67s.05,2.07.1,3.2c.03.75.08,1.53.13,2.32-.41-.75-.81-1.48-1.22-2.18-.63-1.07-1.23-2.07-1.79-2.98-.57-.91-1.08-1.71-1.54-2.39l-16.58-24.71h-4v36.38h3.49v-23.02c0-.72-.02-1.59-.05-2.64-.03-1.04-.07-2.21-.12-3.52ZM935.76,225.45l13.35-36.38h-3.69l-8.5,23.78c-.44,1.25-.96,2.78-1.55,4.57-.49,1.48-1.04,3.23-1.64,5.2-.6-1.94-1.15-3.67-1.64-5.17-.6-1.81-1.13-3.35-1.59-4.6l-8.64-23.78h-3.64l13.45,36.38h4.08ZM958.79,189.07h-3.47v36.38h3.47v-36.38ZM977.8,225.45h3.47v-33.28h11.5v-3.1h-26.51v3.1h11.55v33.28ZM1026.64,197.37c1.34,2.8,2.01,6.1,2.01,9.91s-.67,7.09-2.01,9.89c-1.34,2.8-3.2,4.96-5.58,6.48-2.38,1.52-5.09,2.28-8.15,2.28s-5.8-.76-8.18-2.29c-2.38-1.53-4.24-3.69-5.59-6.48-1.35-2.79-2.03-6.08-2.03-9.88s.68-7.11,2.03-9.91c1.35-2.8,3.21-4.96,5.59-6.49,2.38-1.53,5.1-2.29,8.18-2.29s5.78.77,8.15,2.29c2.38,1.53,4.24,3.69,5.58,6.49ZM1025.29,207.28c0-3.24-.54-6.01-1.62-8.33-1.08-2.31-2.56-4.08-4.42-5.3-1.86-1.22-3.98-1.83-6.34-1.83s-4.5.61-6.37,1.83-3.35,2.99-4.43,5.3c-1.08,2.31-1.62,5.09-1.62,8.33s.54,5.96,1.62,8.26c1.08,2.3,2.56,4.07,4.43,5.3,1.87,1.23,4,1.84,6.37,1.84s4.47-.61,6.34-1.83c1.86-1.22,3.34-2.98,4.42-5.29,1.08-2.3,1.62-5.07,1.62-8.29ZM1064.74,189.07l13.45,36.38h-3.66l-3.93-10.82h-15.74l-3.86,10.82h-3.69l13.33-36.38h4.1ZM1065.89,201.67c-.49-1.32-1.02-2.86-1.6-4.63-.48-1.47-1.02-3.2-1.62-5.17-.6,1.99-1.15,3.74-1.64,5.23-.59,1.79-1.1,3.31-1.54,4.57l-3.53,9.89h13.52l-3.59-9.89ZM785.32,255.66c-.46.78-1.05,1.44-1.76,1.99-.71.55-1.51.96-2.39,1.25-.89.29-1.85.43-2.89.43-1.87,0-3.52-.46-4.93-1.37-1.42-.91-2.52-2.26-3.32-4.05-.8-1.79-1.2-4-1.2-6.62s.39-4.76,1.18-6.56c.79-1.8,1.9-3.17,3.32-4.11,1.42-.94,3.08-1.42,4.97-1.42,1.04,0,2.01.14,2.91.43.9.29,1.69.7,2.38,1.25.69.55,1.27,1.2,1.73,1.98.46.77.78,1.66.94,2.67h7.54c-.28-2.05-.85-3.88-1.73-5.48-.88-1.6-2.01-2.96-3.39-4.06-1.38-1.11-2.97-1.95-4.75-2.53-1.78-.58-3.71-.87-5.77-.87-3.19,0-6.06.73-8.62,2.2-2.56,1.46-4.57,3.59-6.05,6.38-1.48,2.79-2.22,6.16-2.22,10.12s.74,7.3,2.21,10.08c1.47,2.78,3.48,4.91,6.03,6.37,2.55,1.46,5.43,2.2,8.65,2.2,2.29,0,4.36-.35,6.2-1.05,1.84-.7,3.43-1.66,4.76-2.88,1.33-1.22,2.4-2.6,3.21-4.15.81-1.55,1.31-3.17,1.5-4.86h-7.54c-.18.99-.5,1.88-.96,2.66ZM806.7,250.12h15.62v-6.08h-15.62v-8.79h16.89v-6.18h-24.34v36.38h24.39v-6.18h-16.94v-9.16ZM837.07,229.07h-7.45v36.38h23.14v-6.18h-15.7v-30.2ZM865.34,250.12h15.62v-6.08h-15.62v-8.79h16.89v-6.18h-24.34v36.38h24.39v-6.18h-16.94v-9.16ZM914.99,250.79c.76,1.29,1.14,2.84,1.14,4.63,0,1.92-.47,3.64-1.42,5.15-.94,1.51-2.34,2.71-4.19,3.58-1.85.87-4.15,1.31-6.9,1.31h-15.36v-36.38h14.43c2.67,0,4.89.4,6.68,1.21s3.12,1.91,4,3.31c.89,1.4,1.33,3.01,1.33,4.83,0,1.43-.29,2.68-.85,3.75-.57,1.07-1.35,1.94-2.33,2.61-.98.68-2.1,1.16-3.36,1.45v.37c1.37.05,2.66.44,3.87,1.16,1.21.72,2.2,1.73,2.95,3.03ZM895.71,244.35h5.88c1.06,0,2.01-.19,2.86-.57.85-.38,1.51-.93,1.99-1.64s.72-1.55.72-2.53c0-1.32-.47-2.39-1.4-3.22s-2.27-1.25-4.02-1.25h-6.03v9.2ZM908.46,254.71c0-1.03-.25-1.93-.75-2.72-.5-.79-1.2-1.41-2.11-1.86-.91-.45-1.99-.67-3.25-.67h-6.64v9.86h6.45c2.18,0,3.78-.42,4.79-1.27,1.01-.85,1.51-1.96,1.51-3.34ZM942.09,251.24l7.75,14.21h-8.25l-6.95-12.99h-5.84v12.99h-7.45v-36.38h14.18c2.77,0,5.12.49,7.06,1.46,1.94.98,3.41,2.35,4.43,4.13,1.02,1.77,1.53,3.86,1.53,6.25s-.52,4.46-1.55,6.19-2.53,3.06-4.49,3.98c-.13.06-.28.1-.42.16ZM928.79,246.43h5.37c1.53,0,2.78-.21,3.76-.62s1.71-1.03,2.2-1.86c.49-.82.73-1.83.73-3.04s-.24-2.27-.73-3.11c-.49-.84-1.23-1.48-2.21-1.92s-2.24-.66-3.77-.66h-5.35v11.21ZM974.28,229.07l12.74,36.38h-8.28l-2.81-8.45h-12.92l-2.7,8.45h-8.23l12.43-36.38h9.77ZM974,251.17l-1.09-3.27c-.7-2.26-1.41-4.74-2.14-7.43-.47-1.74-.95-3.59-1.45-5.54-.48,1.96-.94,3.83-1.38,5.59-.68,2.71-1.35,5.17-2.01,7.39l-1.05,3.27h9.12ZM1012.25,251.24l7.75,14.21h-8.25l-6.95-12.99h-5.84v12.99h-7.45v-36.38h14.18c2.77,0,5.12.49,7.06,1.46,1.94.98,3.41,2.35,4.43,4.13,1.02,1.77,1.53,3.86,1.53,6.25s-.52,4.46-1.55,6.19-2.53,3.06-4.49,3.98c-.13.06-.28.1-.42.16ZM998.96,246.43h5.37c1.53,0,2.78-.21,3.76-.62s1.71-1.03,2.2-1.86c.49-.82.73-1.83.73-3.04s-.24-2.27-.73-3.11c-.49-.84-1.23-1.48-2.21-1.92s-2.24-.66-3.77-.66h-5.35v11.21ZM1060.31,254.02c-.23.55-.47,1.2-.73,1.94-.26.74-.53,1.53-.82,2.36s-.56,1.64-.82,2.44c-.1.3-.19.59-.29.87-.1-.31-.2-.62-.3-.95-.26-.81-.53-1.63-.82-2.45-.29-.82-.55-1.59-.81-2.32-.25-.72-.49-1.35-.72-1.89l-10.16-24.95h-4.93v36.38h3.32v-23.1c0-.75,0-1.57-.01-2.45,0-.89-.02-1.81-.04-2.76-.02-.95-.03-1.89-.05-2.82,0-.48-.02-.95-.03-1.41.22.61.44,1.22.65,1.82.35,1.01.69,1.98,1.03,2.92.33.94.65,1.8.95,2.6.3.8.57,1.5.82,2.1l9.52,23.1h3.05l9.45-23.1c.24-.6.52-1.31.83-2.14.31-.82.63-1.7.96-2.65.33-.94.68-1.92,1.03-2.92.21-.6.41-1.2.61-1.79,0,.54,0,1.06-.01,1.61-.02.94-.04,1.88-.06,2.82-.02.94-.04,1.84-.04,2.7v25.46h3.42v-36.38h-4.93l-10.08,24.95ZM1084.95,265.45h3.47v-36.38h-3.47v36.38ZM1120.79,251.89c-.59-1.08-1.36-2-2.32-2.76-.96-.76-2.03-1.39-3.2-1.89-1.17-.5-2.34-.92-3.52-1.25l-3.81-1.1c-1.16-.34-2.29-.78-3.39-1.32-1.11-.54-2.01-1.22-2.72-2.06-.71-.84-1.06-1.88-1.06-3.14s.36-2.45,1.07-3.45c.72-1,1.71-1.79,2.98-2.37,1.27-.58,2.73-.87,4.39-.87,2.38,0,4.35.59,5.91,1.76s2.45,2.77,2.66,4.79h3.39c-.08-1.86-.63-3.51-1.65-4.96-1.02-1.45-2.4-2.6-4.15-3.44-1.75-.85-3.77-1.27-6.07-1.27s-4.27.42-6.08,1.26c-1.81.84-3.24,2.01-4.29,3.5-1.05,1.5-1.57,3.23-1.57,5.2,0,2.29.78,4.21,2.34,5.74,1.56,1.53,3.79,2.72,6.69,3.56l4.3,1.25c1.53.44,2.86.94,3.99,1.51,1.13.57,2.01,1.27,2.64,2.09.63.82.94,1.84.94,3.04,0,1.43-.4,2.69-1.2,3.77-.8,1.08-1.89,1.92-3.28,2.53-1.39.6-2.99.9-4.8.9-1.6,0-3.06-.26-4.38-.77s-2.4-1.26-3.22-2.25c-.82-.98-1.3-2.2-1.43-3.65h-3.54c.13,1.95.72,3.67,1.77,5.14,1.05,1.47,2.49,2.62,4.33,3.44,1.84.82,4,1.23,6.47,1.23,2.64,0,4.9-.45,6.8-1.34s3.35-2.12,4.36-3.69c1.01-1.56,1.51-3.32,1.51-5.27,0-1.5-.29-2.79-.88-3.87ZM523.28,969.42h7.79v-21.19h21.6v-6.67h-21.6v-16.37h23.89v-6.7h-31.68v50.93ZM591.11,948.84l11.22,20.58h-8.85l-10.33-19.25c-.15,0-.29,0-.44,0h-10.39v19.24h-7.79v-50.93h18.25c3.92,0,7.19.68,9.81,2.03,2.62,1.36,4.58,3.24,5.88,5.66,1.3,2.42,1.95,5.18,1.95,8.31s-.66,5.9-1.97,8.25c-1.31,2.36-3.28,4.19-5.9,5.49-.46.23-.95.43-1.45.62ZM572.32,943.51h9.64c2.51,0,4.53-.36,6.07-1.08s2.67-1.75,3.4-3.09c.73-1.34,1.09-2.96,1.09-4.85s-.36-3.57-1.09-4.96c-.73-1.39-1.87-2.47-3.42-3.23-1.55-.76-3.59-1.15-6.12-1.15h-9.57v18.35ZM633.68,918.49l18.46,50.93h-8.44l-4.7-13.43h-20.01l-4.55,13.43h-8.44l18.12-50.93h9.57ZM633.78,941.08c-.77-2.3-1.62-5.01-2.55-8.13-.71-2.41-1.51-5.2-2.39-8.35-.86,3.2-1.64,6.03-2.36,8.47-.92,3.16-1.74,5.83-2.44,8.01l-2.85,8.41h15.53l-2.94-8.41ZM693.29,947.47c0,1.14.02,2.54.07,4.2.05,1.66.12,3.45.22,5.35.05,1,.12,2,.21,3.01-.47-1.02-.94-2-1.42-2.94-.89-1.74-1.73-3.31-2.53-4.7-.8-1.39-1.52-2.59-2.15-3.59l-19.17-30.32h-8.99v50.93h7.9v-27.17c0-1-.03-2.34-.09-4.02-.06-1.67-.14-3.6-.26-5.78-.08-1.44-.15-2.95-.23-4.53.95,1.77,1.8,3.34,2.53,4.7,1.06,1.97,2.03,3.71,2.91,5.21.88,1.5,1.77,3,2.68,4.48l17.19,27.1h9.02v-50.93h-7.9v28.98ZM745.09,957.22c-.81,1.25-1.8,2.31-2.97,3.16-1.17.85-2.47,1.5-3.9,1.95-1.42.44-2.93.67-4.53.67-2.89,0-5.49-.72-7.79-2.17-2.3-1.45-4.12-3.59-5.47-6.43-1.34-2.84-2.02-6.31-2.02-10.41s.66-7.57,1.98-10.41c1.32-2.84,3.14-4.99,5.45-6.46,2.31-1.47,4.93-2.21,7.84-2.21,1.59,0,3.11.22,4.55.65,1.44.43,2.73,1.08,3.9,1.95,1.16.87,2.15,1.92,2.96,3.16.81,1.24,1.37,2.67,1.69,4.29h7.83c-.43-2.69-1.26-5.09-2.48-7.21-1.22-2.12-2.76-3.92-4.61-5.4-1.86-1.48-3.96-2.61-6.32-3.38-2.36-.77-4.88-1.16-7.57-1.16-4.4,0-8.33,1.05-11.79,3.14-3.46,2.1-6.19,5.1-8.17,9.01s-2.97,8.58-2.97,14.03.99,10.09,2.97,14,4.71,6.9,8.17,8.99c3.46,2.08,7.39,3.13,11.79,3.13,2.8,0,5.39-.42,7.78-1.25,2.38-.83,4.49-2.02,6.34-3.57,1.85-1.55,3.36-3.37,4.55-5.45,1.18-2.08,1.97-4.38,2.36-6.89h-7.86c-.32,1.6-.88,3.02-1.69,4.27ZM796.82,940.02h-25.22v-21.53h-7.79v50.93h7.79v-22.7h25.22v22.7h7.83v-50.93h-7.83v21.53ZM848.63,918.49v32.78c0,2.3-.5,4.34-1.5,6.12-1,1.78-2.43,3.18-4.29,4.2-1.86,1.03-4.06,1.54-6.61,1.54s-4.8-.51-6.67-1.54c-1.87-1.03-3.31-2.43-4.32-4.2-1.01-1.78-1.52-3.82-1.52-6.12v-32.78h-7.79v33.43c0,3.55.84,6.71,2.51,9.45s4.04,4.9,7.09,6.48c3.05,1.57,6.62,2.36,10.7,2.36s7.6-.79,10.65-2.36,5.4-3.73,7.08-6.48,2.51-5.9,2.51-9.45v-33.43h-7.83ZM1657.12,311c-29.83,2.48-51.4,3.73-64.65,3.73h-29.83c-15.75,0-46-1.24-90.75-3.73-5.81,0-8.7,2.08-8.7,6.21,0,3.32,2.89,4.97,8.7,4.97,22.38.83,41.02,7.89,55.94,21.14,14.92,13.26,22.38,32.75,22.38,58.42,0,21.56-5.4,46-16.16,73.35l-225.01,580.54c-.83,4.97-2.69,7.26-5.58,6.84-2.91-.41-5.19-2.68-6.84-6.84l-223.76-580.54c-9.95-27.35-14.92-50.14-14.92-68.38,0-28.16,8.7-49.1,26.11-62.78,17.41-13.67,38.94-20.92,64.65-21.75,6.62,0,9.94-1.65,9.94-4.97,0-4.14-3.32-6.21-9.94-6.21-49.73,2.48-83.72,3.73-101.95,3.73h-257.32c-9.14,0-28.6-1.24-58.43-3.73-3.32,0-5.18,1.86-5.59,5.59-.42,3.73,1.43,5.59,5.59,5.59,18.22.83,35,12.44,50.34,34.81,15.33,22.38,33.76,61.34,55.33,116.86l279.71,716.05c4.13,11.59,11.18,17.4,21.12,17.4,2.49,0,6.22-.83,11.2-2.48l165.33-64.65c7.46-1.65,11.18-6.21,11.18-13.67,0-4.98-.83-9.11-2.48-12.44l-6.21-14.92c-2.49-4.97-3.73-10.35-3.73-16.16,0-5.79.82-10.35,2.49-13.67l229.98-595.46c21.55-54.7,40.81-93.43,57.81-116.23,16.97-22.79,35-34.6,54.08-35.43,4.97,0,7.24-1.86,6.84-5.59-.43-3.73-2.7-5.59-6.84-5.59ZM912.47,866.46c-23.21-.81-45.81-12-67.75-33.56-21.97-21.55-48.7-58.01-80.18-109.4l-195.17-315.76,166.58-254.84c33.98-52.21,61.11-88.67,81.43-109.4,20.29-20.71,41.22-31.49,62.78-32.32,4.96,0,7.24-1.86,6.83-5.59-.42-3.73-3.1-5.59-8.07-5.59-34.81,2.48-59.27,3.73-73.35,3.73h-36.05c-16.59,0-47.24-1.24-91.99-3.73-5.81,0-8.71,2.08-8.71,6.21,0,3.32,2.9,4.97,8.71,4.97,20.7.83,38.1,6.43,52.2,16.78,14.08,10.37,21.14,25.49,21.14,45.37,0,22.38-9.95,48.91-29.83,79.56l-157.88,243.66-149.17-242.41c-18.24-29.83-27.35-55.94-27.35-78.32,0-20.71,7.03-36.46,21.13-47.24,14.08-10.76,31.49-16.57,52.22-17.41,5.78,0,8.7-1.65,8.7-4.97,0-4.14-2.91-6.21-8.7-6.21-44.76,2.48-75.43,3.73-92,3.73H88.27c-15.75,0-42.27-1.24-79.55-3.73C2.9,0,0,2.08,0,6.21c0,3.32,2.49,4.97,7.47,4.97,23.19.83,45.78,12.03,67.75,33.57,21.95,21.56,49.1,58.02,81.42,109.4l185.23,302.08-175.28,268.51c-33.99,52.22-61.75,88.69-83.29,109.4-21.56,20.73-44.34,31.51-68.38,32.32-5.8,0-8.5,1.87-8.07,5.59.41,3.73,3.51,5.6,9.32,5.6,37.3-2.49,63.81-3.73,79.56-3.73h36.06c16.57,0,47.24,1.24,91.99,3.73,6.62,0,9.94-2.08,9.94-6.21,0-3.31-3.32-4.98-9.94-4.98-19.89-.81-36.89-6.41-50.97-16.78-14.1-10.35-21.13-25.48-21.13-45.37,0-22.38,9.95-48.89,29.83-79.56l166.58-259.81,157.88,258.57c19.89,31.5,29.83,58.42,29.83,80.8,0,19.89-6.65,35.02-19.89,45.37-13.26,10.37-29.42,15.97-48.48,16.78-5.8,0-8.7,1.67-8.7,4.98,0,4.14,2.89,6.21,8.7,6.21,42.27-2.49,70.87-3.73,85.78-3.73h278.46c14.08,0,41.02,1.24,80.8,3.73,4.97,0,7.66-1.87,8.08-5.6.41-3.73-2.29-5.59-8.08-5.59Z"/></g></svg>