<?xml version="1.0" encoding="UTF-8"?><svg id="Capa_2" xmlns="http://www.w3.org/2000/svg" viewBox="0 0 440.59 138.05"><defs><style>.cls-1{fill:#1b2f52;}</style></defs><g id="Texto"><path class="cls-1" d="M16.51,62.39c-3.28-.17-6.67-.26-10.17-.26-1.84,0-3.5.06-5,.17-.35,0-.53-.1-.56-.3-.03-.2.16-.3.56-.3,2.01-.11,3.55-.83,4.61-2.15,1.06-1.32,1.59-3.56,1.59-6.72V11.03c0-3.16-.53-5.4-1.59-6.72-1.06-1.32-2.6-2.04-4.61-2.15-.4,0-.59-.1-.56-.3.03-.2.22-.3.56-.3,1.49.12,3.16.17,5,.17,1.61,0,3.1-.03,4.48-.09,1.38-.06,2.56-.12,3.53-.17l8.7-.17c12.35,0,21.44,2.77,27.28,8.32,5.83,5.54,8.75,12.88,8.75,22.02,0,5.86-1.29,11.13-3.88,15.81-2.59,4.68-6.39,8.37-11.42,11.07-5.03,2.7-11.02,4.05-17.97,4.05-1.95,0-5.06-.06-9.31-.17ZM41.85,53.99c3.96-5.26,5.97-12.17,6.03-20.73,0-5.69-.96-10.9-2.89-15.64-1.93-4.74-4.91-8.53-8.96-11.38S26.91,1.98,20.82,1.98c-.98,0-1.65.29-2.03.86-.37.58-.56,1.44-.56,2.59v52.66c0,1.49.35,2.5,1.03,3.02.69.52,2.13.78,4.31.78,8.22,0,14.31-2.63,18.27-7.89Z"/><path class="cls-1" d="M97.74,23.01c1.81,1.09,2.71,2.44,2.71,4.05,0,.23-.06.57-.17,1.04l-4.22,15.42c-.06.35-.19.48-.39.39-.2-.09-.27-.27-.22-.56.29-1.72.43-3.16.43-4.31,0-3.45-.83-6.02-2.5-7.71-1.67-1.7-3.71-2.54-6.12-2.54-2.82,0-4.71,1.45-5.69,4.35-.98,2.9-1.47,6.68-1.47,11.33v10c0,2.59.39,4.4,1.16,5.43.78,1.03,2.11,1.61,4.01,1.72.29,0,.43.1.43.3s-.14.3-.43.3c-1.32-.06-4.68-.09-10.08-.09s-8.79.03-10.17.09c-.29,0-.43-.12-.43-.35s.17-.35.52-.35c1.32,0,2.33-.14,3.02-.43.69-.29,1.21-.95,1.55-1.98.34-1.03.52-2.61.52-4.74v-20.6c0-2.18-.27-3.78-.82-4.78-.55-1.01-1.57-1.51-3.06-1.51-.29,0-.78.06-1.46.17-.23.06-.36-.01-.39-.22-.03-.2.04-.33.22-.39,2.7-.63,5.47-1.46,8.32-2.5,2.84-1.03,5.16-2.15,6.94-3.36.17-.12.37-.17.6-.17.29,0,.43.17.43.52-.35,3.22-.57,5.72-.69,7.5-.12,1.78-.17,3.85-.17,6.2v.69c.69-4.02,1.92-7.45,3.71-10.3,1.78-2.84,4.4-4.26,7.84-4.26,2.24,0,4.27.54,6.08,1.64Z"/><path class="cls-1" d="M113.2,60.84c-3.1-1.66-5.56-4.04-7.37-7.11-1.81-3.07-2.72-6.62-2.72-10.64s.99-7.61,2.97-10.95c1.98-3.33,4.67-5.96,8.06-7.89,3.39-1.93,7.09-2.89,11.12-2.89,4.48,0,8.22,1.22,11.2,3.66,2.99,2.44,4.48,5.76,4.48,9.95,0,1.9-.35,3.94-1.03,6.12-8.33.12-17.38.4-27.15.86l-.43-.69,10.51-.34c3.91-.23,6.58-.35,8.01-.35.52-.86.78-1.93.78-3.19,0-1.9-.53-3.98-1.59-6.25-1.06-2.27-2.41-4.19-4.05-5.78-1.64-1.58-3.29-2.37-4.96-2.37-3.22,0-5.67.99-7.37,2.97-1.69,1.98-2.54,4.95-2.54,8.92,0,4.2,1.02,8.09,3.06,11.68,2.04,3.59,4.64,6.45,7.8,8.58,3.16,2.13,6.32,3.19,9.48,3.19,4.19,0,7.35-1.32,9.48-3.96.06-.06.16-.03.3.09.14.12.16.26.04.43-2.24,2.76-4.94,4.86-8.1,6.29-3.16,1.43-6.46,2.15-9.91,2.15-3.62,0-6.98-.83-10.08-2.5Z"/><path class="cls-1" d="M148.11,45.93c.06-.23.17-.33.35-.3s.29.16.35.39c.06,5,1.28,8.94,3.66,11.81,2.38,2.87,5.62,4.31,9.7,4.31,5.17,0,7.76-1.78,7.76-5.34-.06-2.3-1.06-4.35-3.02-6.16-1.95-1.81-4.91-3.84-8.88-6.08-3.74-2.24-6.54-4.25-8.4-6.03-1.87-1.78-2.8-3.85-2.8-6.2,0-1.95.73-3.78,2.2-5.47,1.47-1.7,3.49-3.03,6.08-4.01,2.58-.98,5.46-1.46,8.62-1.46,3.73,0,7.24.53,10.51,1.59,3.27,1.06,4.68,2.51,4.22,4.35l-2.67,10.34c-.06.17-.16.26-.3.26s-.22-.11-.22-.35c-.4-9.88-4.83-14.82-13.27-14.82-2.53,0-4.27.39-5.21,1.16s-1.42,1.82-1.42,3.15c0,1.61.86,3.12,2.58,4.52,1.72,1.41,4.74,3.35,9.05,5.82,3.79,2.13,6.81,4.28,9.05,6.46,2.24,2.18,3.36,4.74,3.36,7.67,0,2.24-.78,4.26-2.33,6.07-1.55,1.81-3.73,3.23-6.55,4.27-2.82,1.03-6,1.55-9.57,1.55-2.7,0-5.29-.3-7.76-.9-2.47-.6-4.4-1.43-5.77-2.5-1.38-1.06-1.95-2.23-1.72-3.49l2.41-10.6Z"/><path class="cls-1" d="M187.06,45.93c.06-.23.17-.33.35-.3s.29.16.35.39c.06,5,1.28,8.94,3.66,11.81,2.38,2.87,5.62,4.31,9.7,4.31,5.17,0,7.76-1.78,7.76-5.34-.06-2.3-1.06-4.35-3.02-6.16-1.95-1.81-4.91-3.84-8.88-6.08-3.74-2.24-6.54-4.25-8.4-6.03-1.87-1.78-2.8-3.85-2.8-6.2,0-1.95.73-3.78,2.2-5.47,1.47-1.7,3.49-3.03,6.08-4.01,2.58-.98,5.46-1.46,8.62-1.46,3.73,0,7.24.53,10.51,1.59,3.27,1.06,4.68,2.51,4.22,4.35l-2.67,10.34c-.06.17-.16.26-.3.26s-.22-.11-.22-.35c-.4-9.88-4.83-14.82-13.27-14.82-2.53,0-4.27.39-5.21,1.16s-1.42,1.82-1.42,3.15c0,1.61.86,3.12,2.58,4.52,1.72,1.41,4.74,3.35,9.05,5.82,3.79,2.13,6.81,4.28,9.05,6.46,2.24,2.18,3.36,4.74,3.36,7.67,0,2.24-.78,4.26-2.33,6.07-1.55,1.81-3.73,3.23-6.55,4.27-2.82,1.03-6,1.55-9.57,1.55-2.7,0-5.29-.3-7.76-.9-2.47-.6-4.4-1.43-5.77-2.5-1.38-1.06-1.95-2.23-1.72-3.49l2.41-10.6Z"/><path class="cls-1" d="M289.44,34.04c-.06.23-.2.32-.43.26-.23-.06-.32-.2-.26-.43.92-2.76,1.38-5.57,1.38-8.45,0-4.48-1.01-8.56-3.02-12.24-1.61-3.22-3.79-5.73-6.55-7.54-2.76-1.81-5.75-2.71-8.96-2.71-5.8,0-10.33,1.45-13.57,4.35-3.25,2.9-4.87,7.54-4.87,13.92,0,6.72,1.35,12.83,4.05,18.31,2.7,5.49,6.19,9.78,10.47,12.88,4.28,3.1,8.66,4.65,13.14,4.65,2.81,0,5.85-.5,9.09-1.51,3.25-1,6.1-2.8,8.57-5.39.23-.23.4-.35.52-.35.29,0,.26.23-.09.69-3.62,4.37-7.56,7.61-11.81,9.74-4.25,2.13-8.99,3.19-14.22,3.19s-10.18-1.26-14.69-3.79c-4.51-2.53-8.1-6.12-10.77-10.77-2.67-4.65-4.01-9.97-4.01-15.94s1.49-11.6,4.48-16.55c2.99-4.94,6.99-8.83,12.02-11.68,5.03-2.84,10.5-4.27,16.42-4.27,3.73,0,7.25.55,10.56,1.64,3.3,1.09,5.93,2.46,7.88,4.09,1.95,1.64,2.93,3.29,2.93,4.95,0,.23-.06.58-.17,1.04l-8.1,21.89Z"/><path class="cls-1" d="M312.24,60.89c-3.19-1.69-5.69-4.09-7.5-7.2-1.81-3.1-2.72-6.64-2.72-10.6s1.03-7.68,3.1-10.99c2.07-3.3,4.9-5.9,8.49-7.8s7.54-2.84,11.85-2.84c4.02,0,7.66.85,10.9,2.54,3.25,1.7,5.79,4.06,7.63,7.11,1.84,3.05,2.76,6.52,2.76,10.43s-1.05,7.71-3.15,11.08c-2.1,3.36-4.97,6-8.62,7.93-3.65,1.93-7.66,2.89-12.02,2.89-3.97,0-7.54-.85-10.73-2.54ZM335.42,58.56c1.87-1.87,2.8-4.61,2.8-8.23s-.91-7.38-2.72-11.63-4.08-7.86-6.81-10.82c-2.73-2.96-5.39-4.44-7.97-4.44-3.22,0-5.75.92-7.58,2.76-1.84,1.84-2.76,4.6-2.76,8.28,0,3.45.89,7.31,2.67,11.59,1.78,4.28,4.04,7.9,6.77,10.86,2.73,2.96,5.36,4.44,7.88,4.44,3.27,0,5.85-.93,7.71-2.8Z"/><path class="cls-1" d="M401.09,46.88c.2,0,.3.14.3.43,0,4.37-.93,8.1-2.8,11.2-1.87,3.1-4.3,4.65-7.28,4.65-2.24,0-4.12-.79-5.64-2.37-1.52-1.58-2.31-3.95-2.37-7.11l-.09-.26c-.12-.17-.25-.24-.39-.22-.14.03-.27.16-.39.39-3.33,6.55-8.02,9.82-14.05,9.82-2.99,0-5.76-.82-8.32-2.46s-4.61-3.96-6.16-6.98-2.33-6.51-2.33-10.47.95-7.73,2.84-11.12c1.9-3.39,4.38-6.08,7.45-8.06,3.07-1.98,6.28-2.97,9.61-2.97,4.65,0,8.56,1.55,11.72,4.65l-.09-11.37c0-2.18-.16-3.81-.47-4.87s-.73-1.71-1.25-1.94c-.52-.23-1.21-.29-2.07-.17h-.17c-.4,0-.58-.17-.52-.52,6.49-1.66,11.49-4.05,15-7.15h.17c.35,0,.49.23.43.69-.4,2.41-.68,4.91-.82,7.5-.14,2.59-.21,5.89-.21,9.91v33.35c0,3.79.98,5.69,2.93,5.69s3.13-.86,3.71-2.59.89-4.14.95-7.24c0-.29.1-.43.3-.43ZM380.96,55.03c1.38-1.93,2.15-4.84,2.33-8.75l-.09-5.17c-.23-5.11-1.38-9.42-3.45-12.93-2.07-3.5-5.06-5.26-8.96-5.26-7.12,0-10.69,4.02-10.69,12.06,0,3.74.7,7.38,2.11,10.95,1.41,3.56,3.26,6.45,5.56,8.66,2.3,2.21,4.65,3.32,7.07,3.32,2.7,0,4.74-.96,6.12-2.89Z"/><path class="cls-1" d="M440.47,54.46c.14.12.16.26.04.43-2.24,2.76-4.94,4.86-8.1,6.29-3.16,1.43-6.46,2.15-9.91,2.15-3.62,0-6.98-.83-10.08-2.5-3.1-1.66-5.56-4.04-7.37-7.11-1.81-3.07-2.72-6.62-2.72-10.64s.99-7.61,2.97-10.95c1.98-3.33,4.67-5.96,8.06-7.89,3.39-1.93,7.09-2.89,11.12-2.89,4.48,0,8.22,1.22,11.2,3.66,2.99,2.44,4.48,5.76,4.48,9.95,0,1.9-.35,3.94-1.03,6.12-6.03.12-15.28.37-27.75.78.98,3.16,2.48,5.99,4.52,8.49,2.04,2.5,4.38,4.45,7.02,5.86,2.64,1.41,5.23,2.11,7.76,2.11,4.19,0,7.35-1.32,9.48-3.96.06-.06.16-.03.3.09ZM412.89,25.98c-1.69,1.98-2.54,4.95-2.54,8.92,0,1.95.29,4.08.86,6.38,3.27-.05,7.12-.2,11.55-.43,1.15-.06,2.34-.12,3.58-.17,1.24-.06,2.48-.09,3.75-.09.52-.86.78-1.93.78-3.19,0-1.9-.53-3.98-1.59-6.25-1.06-2.27-2.41-4.19-4.05-5.78-1.64-1.58-3.29-2.37-4.95-2.37-3.22,0-5.67.99-7.37,2.97Z"/><path class="cls-1" d="M.3,126.79c-.18.04-.28,0-.3-.11-.02-.11.08-.16.3-.16,1.36-.07,2.35-.38,2.96-.92s.92-1.53.92-2.96v-29.62c0-1.44-.31-2.42-.92-2.96s-1.6-.84-2.96-.92c-.21,0-.31-.05-.3-.16.02-.11.12-.14.3-.11l2.69.11h14.6c2.44,0,4.58-.13,6.41-.38l1.24-.11c.25,0,.44.07.57.22.12.14.21.43.24.86.07,2.98.5,7.08,1.29,12.28.04.15,0,.23-.08.24-.09.02-.15-.04-.19-.19-.54-2.8-.98-4.88-1.32-6.25-.34-1.36-.65-2.35-.92-2.96-.27-.61-.62-1.15-1.05-1.62-.72-.75-2.15-1.24-4.31-1.45s-5.89-.32-11.2-.32c-.72,0-1.08.5-1.08,1.51v14.44c.07.83.43,1.24,1.08,1.24,3.34,0,5.47-.05,6.41-.16.57-.07,1.02-.22,1.35-.46.32-.23.65-.71.97-1.43.32-.72.68-1.83,1.08-3.34.04-.22.1-.32.19-.32s.12.11.08.32c-.25,1.4-.38,2.98-.38,4.74,0,2.26.21,4.63.65,7.11.04.18,0,.28-.08.3-.09.02-.15-.08-.19-.3-.61-2.26-1.18-3.8-1.7-4.61-.52-.81-1.18-1.27-1.97-1.37-.93-.07-3.07-.11-6.41-.11-.65,0-1.01.43-1.08,1.29v16.05c0,1.44.52,2.15,1.56,2.15,5.46-.04,9.43-.19,11.93-.46,2.5-.27,4.12-.73,4.87-1.37.79-.72,1.41-1.82,1.86-3.31.45-1.49.96-3.96,1.53-7.41.04-.25.11-.38.22-.38.14,0,.18.15.11.43-.75,4.56-1.18,8.64-1.29,12.23,0,.47-.08.76-.24.89-.16.12-.39.19-.67.19s-1.05-.08-2.29-.24c-1.24-.16-3.35-.24-6.33-.24H2.99l-2.69.11Z"/><path class="cls-1" d="M35.5,91.51c-.31-.4-.73-.59-1.26-.59-.15,0-.4.04-.76.11-.21.04-.32-.05-.32-.27,2.69-.57,4.67-1.46,5.92-2.64.25-.07.34,0,.27.22-.22.79-.35,1.82-.4,3.1-.05,1.28-.08,3.38-.08,6.33v25.32c0,1.01.3,1.8.89,2.4s1.37.92,2.34,1c.11,0,.17.05.19.16.02.11-.05.16-.19.16-.65-.04-2.19-.05-4.63-.05s-3.95.02-4.63.05c-.18,0-.27-.06-.27-.19s.09-.19.27-.19c2.12.07,3.18-1.04,3.18-3.34l-.05-29.52c0-.97-.15-1.65-.46-2.05Z"/><path class="cls-1" d="M67.68,122.19c.07.05.09.13.05.24-1.4,1.69-2.95,2.93-4.63,3.72s-3.61,1.18-5.76,1.18-4.01-.51-5.79-1.54c-1.78-1.02-3.19-2.46-4.23-4.31-1.04-1.85-1.56-3.98-1.56-6.38,0-2.55.57-4.82,1.72-6.81,1.15-1.99,2.69-3.53,4.63-4.63,1.94-1.1,4.04-1.64,6.3-1.64,2.51,0,4.6.74,6.25,2.23,1.65,1.49,2.48,3.44,2.48,5.84,0,1.04-.2,2.21-.59,3.5l-5.44.11c-5.64.07-9.93.16-12.87.27.14,2.51.83,4.64,2.05,6.38s2.69,3.04,4.42,3.91c1.72.86,3.41,1.29,5.06,1.29,1.33,0,2.71-.23,4.15-.7,1.44-.46,2.64-1.35,3.61-2.64.04-.07.09-.08.16-.03ZM48.24,113.06v.59c1.94-.04,4.56-.13,7.86-.27,3.73-.14,6.36-.23,7.86-.27.25-.72.38-1.51.38-2.37,0-1.33-.32-2.6-.94-3.82-.63-1.22-1.5-2.2-2.61-2.94-1.11-.73-2.32-1.1-3.61-1.1-5.96,0-8.94,3.39-8.94,10.18Z"/><path class="cls-1" d="M92.35,128.38c1,1.02,1.51,2.22,1.51,3.58,0,1.26-.38,2.34-1.13,3.26-.76.92-1.7,1.62-2.83,2.1-1.13.48-2.2.73-3.21.73-3.23,0-5.94-1.51-8.13-4.52-1.26.5-2.46.75-3.61.75-1.51,0-2.74-.44-3.69-1.32s-1.43-1.98-1.43-3.31c0-2.66,1.81-4.83,5.44-6.52-1.65-.9-2.95-2.15-3.91-3.77s-1.43-3.48-1.43-5.6.52-4.01,1.56-5.79,2.47-3.2,4.28-4.28c1.81-1.08,3.82-1.62,6.01-1.62,1.69,0,3.29.36,4.79,1.08.04-1.9.67-3.33,1.91-4.28,1.24-.95,2.68-1.43,4.34-1.43.36,0,.63.08.81.24.18.16.21.4.11.73l-.7,2.05c-.14.32-.36.4-.65.21-.68-.47-1.47-.7-2.37-.7-1.04,0-1.81.27-2.29.81-.49.54-.66,1.44-.51,2.69,1.58.93,2.85,2.21,3.8,3.83s1.43,3.45,1.43,5.49-.53,3.97-1.59,5.76c-1.06,1.8-2.5,3.22-4.34,4.28-1.83,1.06-3.84,1.59-6.03,1.59-1.76,0-3.39-.38-4.9-1.13-1.37.65-2.41,1.32-3.12,2.02-.72.7-1.08,1.62-1.08,2.77,0,.97.32,1.78.97,2.42.65.65,1.45.97,2.42.97s1.88-.17,2.72-.51c.84-.34,1.84-.85,2.99-1.54,1.47-.86,2.77-1.51,3.91-1.94s2.45-.65,3.96-.65c1.65,0,2.98.51,3.99,1.53ZM73.42,117.53c.77,1.76,1.87,3.18,3.29,4.25,1.42,1.08,3.04,1.62,4.87,1.62,2.73,0,4.84-.73,6.33-2.18,1.49-1.45,2.24-3.67,2.24-6.65,0-1.94-.4-3.79-1.21-5.55s-1.94-3.18-3.39-4.25-3.12-1.62-4.98-1.62c-2.66,0-4.7.73-6.14,2.18-1.44,1.46-2.15,3.64-2.15,6.55,0,2.01.39,3.9,1.16,5.66ZM91.06,136.25c.86-.59,1.29-1.61,1.29-3.04,0-1.04-.34-1.89-1.02-2.56s-1.62-1-2.8-1c-1.4,0-2.62.21-3.66.62s-2.23,1.01-3.55,1.81c-.93.61-1.74,1.06-2.42,1.35.79,1,1.9,1.87,3.34,2.61,1.43.74,3.07,1.1,4.9,1.1s3.07-.3,3.93-.89Z"/><path class="cls-1" d="M122.38,119.28c.13-.02.19.08.19.3,0,2.55-.42,4.48-1.27,5.79s-1.82,1.97-2.94,1.97c-.93,0-1.66-.4-2.18-1.18s-.96-2.01-1.32-3.66l-.54-2.69c-.75,2.23-2.02,4.04-3.8,5.44-1.78,1.4-3.71,2.1-5.79,2.1-2.73,0-4.81-.76-6.25-2.29-1.44-1.53-2.15-3.35-2.15-5.47,0-1.22.47-2.3,1.4-3.23.93-.93,2.15-1.66,3.66-2.18,1.51-.52,3.12-.78,4.85-.78,2.26,0,4.54.18,6.84.54l-1.08-5.12c-.43-1.87-1.15-3.25-2.15-4.15-1.01-.9-2.55-1.35-4.63-1.35-1.47,0-2.87.32-4.2.94-1.33.63-2.43,1.58-3.31,2.86-.88,1.28-1.34,2.85-1.37,4.71,0,.22-.06.32-.19.32s-.19-.11-.19-.32c.07-1.94.64-3.65,1.7-5.14,1.06-1.49,2.4-2.64,4.01-3.45s3.23-1.21,4.85-1.21c2.58,0,4.52.55,5.79,1.64,1.27,1.1,2.16,2.81,2.67,5.14l2.75,13.14c.25,1.11.54,1.97.86,2.56.32.59.74.89,1.24.89.29,0,.61-.16.97-.48.36-.32.68-.92.97-1.78.29-.86.43-2.05.43-3.55,0-.18.06-.28.19-.3ZM113.68,116.88l-.38-1.94c-2.37-.43-4.58-.65-6.63-.65-2.73,0-4.68.35-5.84,1.05s-1.75,2-1.75,3.91.57,3.34,1.72,4.52c1.15,1.19,2.87,1.78,5.17,1.78,4.88,0,7.45-2.57,7.7-7.7.04-.29.04-.61,0-.97Z"/><path class="cls-1" d="M153.83,119.28c.13-.02.19.08.19.3,0,2.55-.42,4.48-1.27,5.79s-1.82,1.97-2.94,1.97c-.93,0-1.68-.39-2.23-1.16-.56-.77-1.03-1.98-1.43-3.64l-3.34-13.84c-.29-1.22-.62-2.19-1-2.91-.38-.72-.94-1.27-1.7-1.64s-1.8-.57-3.12-.57c-1.44,0-2.76.39-3.99,1.16-1.22.77-2.2,1.92-2.94,3.45-.74,1.53-1.11,3.39-1.11,5.58v9.64c0,1.04.29,1.8.86,2.26.57.47,1.37.74,2.37.81.14,0,.21.05.21.16s-.07.16-.21.16c-.68-.04-2.21-.05-4.58-.05s-3.93.02-4.69.05c-.14,0-.21-.06-.21-.19s.07-.19.21-.19c1.11,0,1.92-.21,2.42-.62.5-.41.75-1.23.75-2.45v-16.16c0-.86-.15-1.49-.46-1.89s-.82-.59-1.54-.59c-.32,0-.74.05-1.24.16-.11.04-.18,0-.22-.08-.04-.09-.02-.15.05-.19,2.98-.72,5.04-1.47,6.19-2.26.14-.11.27-.13.38-.08.11.05.16.12.16.19-.14.97-.26,1.88-.35,2.72-.09.84-.13,1.82-.13,2.94v1.45c.4-1.36,1.08-2.62,2.05-3.77.97-1.15,2.1-2.06,3.39-2.75,1.29-.68,2.59-1.02,3.88-1.02,2.3,0,3.98.51,5.03,1.54,1.06,1.02,1.84,2.61,2.34,4.77l3.34,13.68c.25,1.11.56,1.96.92,2.53s.81.86,1.35.86c.25,0,.57-.16.94-.48s.71-.92,1-1.78c.29-.86.43-2.05.43-3.55,0-.18.06-.28.19-.3Z"/><path class="cls-1" d="M159.06,125.98c-.74-.9-1.1-2.12-1.1-3.66v-17.83c0-.5-.06-.86-.19-1.08-.13-.22-.44-.32-.94-.32h-1.83c-.14,0-.22-.04-.22-.13s.05-.15.16-.19c1.72-.32,3.07-1,4.04-2.02.97-1.02,1.56-2.45,1.78-4.28,0-.18.05-.27.16-.27s.16.09.16.27c0,1.54-.07,3.31-.22,5.28v.21c0,.32.09.54.27.65.18.11.52.16,1.02.16h5.44c.07,0,.09.05.05.16s-.11.16-.22.16h-5.01c-.65,0-1.08.1-1.29.3s-.32.58-.32,1.16v17.24c0,1.15.27,2.07.81,2.78.54.7,1.22,1.05,2.05,1.05.68,0,1.38-.23,2.1-.7s1.4-1.17,2.05-2.1c.11-.18.2-.25.27-.22.07.04.05.15-.05.32-.93,1.47-1.93,2.58-2.99,3.31-1.06.74-2.09,1.1-3.1,1.1-1.18,0-2.15-.45-2.88-1.35Z"/><path class="cls-1" d="M192.05,122.19c.07.05.09.13.05.24-1.4,1.69-2.94,2.93-4.63,3.72-1.69.79-3.61,1.18-5.76,1.18s-4.01-.51-5.79-1.54c-1.78-1.02-3.19-2.46-4.23-4.31-1.04-1.85-1.56-3.98-1.56-6.38,0-2.55.57-4.82,1.72-6.81,1.15-1.99,2.69-3.53,4.63-4.63s4.04-1.64,6.3-1.64c2.51,0,4.6.74,6.25,2.23,1.65,1.49,2.48,3.44,2.48,5.84,0,1.04-.2,2.21-.59,3.5l-5.44.11c-5.64.07-9.93.16-12.87.27.14,2.51.83,4.64,2.05,6.38,1.22,1.74,2.69,3.04,4.42,3.91,1.72.86,3.41,1.29,5.06,1.29,1.33,0,2.71-.23,4.15-.7,1.43-.46,2.64-1.35,3.61-2.64.04-.07.09-.08.16-.03ZM172.6,113.06v.59c1.94-.04,4.56-.13,7.86-.27,3.73-.14,6.36-.23,7.86-.27.25-.72.38-1.51.38-2.37,0-1.33-.31-2.6-.94-3.82s-1.5-2.2-2.61-2.94c-1.11-.73-2.32-1.1-3.61-1.1-5.96,0-8.94,3.39-8.94,10.18Z"/><path class="cls-1" d="M209.23,111.98c.07-.32.16-.48.27-.48.04,0,.07.05.11.16.03.11.03.25,0,.43-.14,1.15-.22,2.34-.22,3.56,0,3.88.9,6.64,2.69,8.29,1.79,1.65,4.61,2.48,8.46,2.48,2.69,0,5.05-.55,7.08-1.64,2.03-1.09,3.04-3.26,3.04-6.49,0-2.51-.93-4.57-2.8-6.17-1.87-1.6-4.52-3.17-7.97-4.71-3.55-1.62-6.23-3.18-8.03-4.69s-2.69-3.34-2.69-5.49c.04-1.4.55-2.78,1.53-4.15.99-1.36,2.45-2.5,4.39-3.39,1.94-.9,4.26-1.35,6.95-1.35,1.72,0,3.38.26,4.98.78,1.6.52,2.91,1.26,3.93,2.21,1.02.95,1.53,2.04,1.53,3.26,0,.22-.04.5-.11.86l-1.51,7.7c-.04.25-.11.38-.22.38-.14,0-.2-.16-.16-.49.29-1.83.43-3.37.43-4.63,0-3.09-.78-5.38-2.34-6.87s-4.03-2.24-7.41-2.24-5.79.55-7.14,1.64c-1.35,1.1-2.02,2.76-2.02,4.98,0,1.37.4,2.55,1.21,3.56s1.86,1.89,3.15,2.64c1.29.76,3.07,1.65,5.33,2.69,2.48,1.11,4.52,2.15,6.14,3.1,1.62.95,2.97,2.17,4.07,3.64,1.1,1.47,1.64,3.21,1.64,5.22,0,1.87-.58,3.61-1.72,5.23s-2.77,2.92-4.87,3.91c-2.1.99-4.52,1.48-7.25,1.48-2.41,0-4.52-.35-6.36-1.05-1.83-.7-3.23-1.61-4.2-2.72-.97-1.11-1.45-2.28-1.45-3.5,0-.36.02-.63.05-.81l1.45-7.33Z"/><path class="cls-1" d="M257.73,103.55c1.53,1.02,2.74,2.46,3.64,4.31.9,1.85,1.35,3.96,1.35,6.33s-.51,4.46-1.53,6.49c-1.02,2.03-2.43,3.65-4.23,4.88-1.8,1.22-3.81,1.83-6.03,1.83-1.72,0-3.1-.26-4.12-.78-1.02-.52-1.98-1.19-2.88-2.02-.47-.46-.79-.7-.97-.7-.29,0-.43.36-.43,1.08v8.94c0,2.12.97,3.23,2.91,3.34.11,0,.17.05.19.16.02.11-.05.16-.19.16-1.44-.07-2.73-.11-3.88-.11-1.4,0-2.96.04-4.69.11-.18,0-.27-.06-.27-.19s.09-.19.27-.19c.97.04,1.68-.21,2.13-.73s.67-1.39.67-2.61v-26.66c0-.86-.15-1.49-.46-1.89s-.82-.59-1.53-.59c-.32,0-.74.05-1.24.16-.11.04-.18,0-.21-.08-.04-.09-.02-.15.05-.19,2.98-.72,5.03-1.47,6.14-2.26.18-.11.32-.13.43-.08.11.05.16.12.16.19-.25,1.44-.4,2.8-.43,4.09,0,.5.04,1.06.11,1.67.07.61.16.97.27,1.08,2.3-4.85,5.53-7.27,9.7-7.27,1.87,0,3.56.51,5.09,1.54ZM258,123.86c1.42-1.67,2.13-4.17,2.13-7.51,0-2.26-.38-4.34-1.13-6.22s-1.84-3.39-3.26-4.5c-1.42-1.11-3.1-1.67-5.04-1.67-1.58,0-2.99.42-4.23,1.26-1.24.84-2.21,2.03-2.91,3.56-.7,1.53-1.05,3.24-1.05,5.14v2.48c0,2.84.74,5.21,2.21,7.11,1.47,1.9,3.63,2.86,6.46,2.86,3.12,0,5.39-.84,6.81-2.5Z"/><path class="cls-1" d="M272.03,125.85c-1.8-1.02-3.22-2.46-4.28-4.31-1.06-1.85-1.59-3.98-1.59-6.38s.58-4.5,1.75-6.49c1.17-1.99,2.77-3.59,4.82-4.8,2.05-1.2,4.31-1.8,6.79-1.8,2.15,0,4.15.51,5.98,1.53,1.83,1.02,3.28,2.46,4.34,4.31,1.06,1.85,1.59,3.94,1.59,6.28s-.59,4.52-1.78,6.54c-1.18,2.03-2.81,3.64-4.87,4.85-2.07,1.2-4.34,1.81-6.81,1.81-2.15,0-4.13-.51-5.92-1.54ZM286.36,123.78c1.69-1.65,2.53-4.11,2.53-7.38,0-2.15-.48-4.25-1.43-6.27-.95-2.03-2.27-3.69-3.96-4.98-1.69-1.29-3.54-1.94-5.55-1.94-2.91,0-5.18.81-6.81,2.42s-2.45,4.06-2.45,7.33c0,2.15.47,4.25,1.4,6.3.93,2.05,2.22,3.73,3.85,5.04,1.63,1.31,3.42,1.97,5.36,1.97,3.02,0,5.37-.82,7.06-2.48Z"/><path class="cls-1" d="M311.35,102.61c.93.4,1.65.92,2.15,1.56.5.65.68,1.31.54,1.99l-1.62,6.52c-.04.25-.11.35-.22.3-.11-.05-.13-.17-.05-.35.22-1.08.32-2.03.32-2.86,0-1.9-.48-3.28-1.43-4.12-.95-.84-2.29-1.27-4.01-1.27-2.23,0-3.75.95-4.58,2.86-.83,1.9-1.24,4.2-1.24,6.89v9.26c0,1.04.29,1.8.86,2.26.57.47,1.36.74,2.37.81.14,0,.22.05.22.16s-.07.16-.22.16c-.68-.04-2.21-.05-4.58-.05s-3.93.02-4.69.05c-.14,0-.22-.06-.22-.19s.07-.19.22-.19c1.11,0,1.92-.21,2.42-.62.5-.41.75-1.23.75-2.45v-16.16c0-.86-.15-1.49-.46-1.89s-.82-.59-1.53-.59c-.32,0-.74.05-1.24.16-.11.04-.18,0-.22-.08-.04-.09-.02-.15.05-.19,2.98-.72,5.04-1.47,6.19-2.26.14-.11.27-.13.38-.08.11.05.16.12.16.19-.14.97-.26,1.88-.35,2.72s-.13,1.82-.13,2.94v1.67c1.29-5.17,3.68-7.76,7.16-7.76,1.04,0,2.03.2,2.96.59Z"/><path class="cls-1" d="M319.62,125.98c-.74-.9-1.1-2.12-1.1-3.66v-17.83c0-.5-.06-.86-.19-1.08-.13-.22-.44-.32-.94-.32h-1.83c-.14,0-.22-.04-.22-.13s.05-.15.16-.19c1.72-.32,3.07-1,4.04-2.02.97-1.02,1.56-2.45,1.78-4.28,0-.18.05-.27.16-.27s.16.09.16.27c0,1.54-.07,3.31-.22,5.28v.21c0,.32.09.54.27.65.18.11.52.16,1.02.16h5.44c.07,0,.09.05.05.16s-.11.16-.22.16h-5.01c-.65,0-1.08.1-1.29.3s-.32.58-.32,1.16v17.24c0,1.15.27,2.07.81,2.78.54.7,1.22,1.05,2.05,1.05.68,0,1.38-.23,2.1-.7s1.4-1.17,2.05-2.1c.11-.18.2-.25.27-.22.07.04.05.15-.05.32-.93,1.47-1.93,2.58-2.99,3.31-1.06.74-2.09,1.1-3.1,1.1-1.18,0-2.15-.45-2.88-1.35Z"/></g></svg>