<?xml version="1.0" encoding="UTF-8"?><svg id="Capa_2" xmlns="http://www.w3.org/2000/svg" viewBox="0 0 582.55 309.87"><defs><style>.cls-1{fill:#1b2f52;}.cls-2{fill:#0d2f59;}</style></defs><g id="Texto"><path class="cls-1" d="M313.56,258.98c-10.98-1.24-19.52-10.13-20.31-21.15l-1.47-28.33-1.47,28.33c-.79,11.02-9.33,19.92-20.31,21.15l-6.24.7,6.24.7c10.98,1.24,19.52,10.13,20.31,21.15l1.47,28.33,1.47-28.33c.79-11.02,9.33-19.92,20.31-21.15l6.24-.7-6.24-.7Z"/><path class="cls-2" d="M57.4.28c.03.19-.12.31-.44.36-1.87.11-3.29.77-4.28,2-.99,1.23-1.48,3.31-1.48,6.24v47.6c0,.37-.16.56-.48.56-.27,0-.53-.19-.8-.56L9.6,6c-.21-.21-.4-.32-.56-.32-.21,0-.32.16-.32.48v41.52c0,2.93.51,5.01,1.52,6.24,1.01,1.23,2.45,1.89,4.32,2,.32,0,.47.09.44.28-.03.19-.17.28-.44.28l-4.64-.24h-3.12l-4.56.24c-.32,0-.49-.09-.52-.28-.03-.19.12-.28.44-.28,1.87-.11,3.31-.77,4.32-2,1.01-1.23,1.52-3.31,1.52-6.24V4c-1.12-1.17-2.12-2.03-3-2.56-.88-.53-1.91-.83-3.08-.88-.32,0-.47-.09-.44-.28.03-.19.17-.28.44-.28l4.64.24h9.12c1.23,0,2.08.35,2.56,1.04l31.2,40.16c.21.32.43.48.64.48.27,0,.4-.19.4-.56l-.08-32.48c0-2.93-.51-5.01-1.52-6.24-1.01-1.23-2.45-1.89-4.32-2-.32-.05-.47-.17-.44-.36.03-.19.2-.28.52-.28,2.08.16,3.6.24,4.56.24h3.12c.85,0,2.4-.08,4.64-.24.27,0,.41.09.44.28Z"/><path class="cls-2" d="M68.52,55.16c-2.96-1.57-5.28-3.8-6.96-6.68-1.68-2.88-2.52-6.16-2.52-9.84s.96-7.13,2.88-10.2c1.92-3.07,4.55-5.48,7.88-7.24,3.33-1.76,7-2.64,11-2.64,3.73,0,7.11.79,10.12,2.36,3.01,1.57,5.37,3.77,7.08,6.6,1.71,2.83,2.56,6.05,2.56,9.68s-.97,7.16-2.92,10.28c-1.95,3.12-4.61,5.57-8,7.36-3.39,1.79-7.11,2.68-11.16,2.68-3.68,0-7-.79-9.96-2.36ZM90.04,53c1.73-1.73,2.6-4.28,2.6-7.64s-.84-6.85-2.52-10.8c-1.68-3.95-3.79-7.29-6.32-10.04-2.53-2.75-5-4.12-7.4-4.12-2.99,0-5.33.85-7.04,2.56-1.71,1.71-2.56,4.27-2.56,7.68,0,3.2.83,6.79,2.48,10.76,1.65,3.97,3.75,7.33,6.28,10.08,2.53,2.75,4.97,4.12,7.32,4.12,3.04,0,5.43-.87,7.16-2.6Z"/><path class="cls-2" d="M107.12,41.28c.05-.21.16-.31.32-.28.16.03.27.15.32.36.05,4.64,1.19,8.29,3.4,10.96,2.21,2.67,5.21,4,9,4,4.8,0,7.2-1.65,7.2-4.96-.05-2.13-.99-4.04-2.8-5.72-1.81-1.68-4.56-3.56-8.24-5.64-3.47-2.08-6.07-3.95-7.8-5.6-1.73-1.65-2.6-3.57-2.6-5.76,0-1.81.68-3.51,2.04-5.08,1.36-1.57,3.24-2.81,5.64-3.72,2.4-.91,5.07-1.36,8-1.36,3.47,0,6.72.49,9.76,1.48,3.04.99,4.35,2.33,3.92,4.04l-2.48,9.6c-.05.16-.15.24-.28.24s-.2-.11-.2-.32c-.37-9.17-4.48-13.76-12.32-13.76-2.35,0-3.96.36-4.84,1.08-.88.72-1.32,1.69-1.32,2.92,0,1.49.8,2.89,2.4,4.2,1.6,1.31,4.4,3.11,8.4,5.4,3.52,1.97,6.32,3.97,8.4,6,2.08,2.03,3.12,4.4,3.12,7.12,0,2.08-.72,3.96-2.16,5.64s-3.47,3-6.08,3.96c-2.61.96-5.57,1.44-8.88,1.44-2.51,0-4.91-.28-7.2-.84-2.29-.56-4.08-1.33-5.36-2.32-1.28-.99-1.81-2.07-1.6-3.24l2.24-9.84Z"/><path class="cls-2" d="M199.36,20c0,.21-.11.32-.32.32-1.17,0-2.15.51-2.92,1.52-.77,1.01-1.75,2.93-2.92,5.76l-10,23.68c-.05.11-.08.27-.08.48s.05.43.16.64l.56,1.28c.05.11.08.24.08.4,0,.27-.13.45-.4.56l-7.12,2.56c-.11.05-.27.08-.48.08-.37,0-.61-.19-.72-.56l-12.32-29.12c-1.17-2.83-2.15-4.75-2.92-5.76-.77-1.01-1.75-1.52-2.92-1.52-.21,0-.32-.11-.32-.32s.11-.32.32-.32l3.52.08h10.16l6.16-.08c.37,0,.56.11.56.32s-.19.32-.56.32c-3.36,0-5.04,1.2-5.04,3.6,0,1.12.29,2.35.88,3.68l9.44,22.32c.11.27.25.41.44.44.19.03.33-.12.44-.44l9.44-22.32c.64-1.55.96-2.8.96-3.76,0-2.35-1.63-3.52-4.88-3.52-.32,0-.48-.11-.48-.32s.16-.32.48-.32l6,.08h.96l3.52-.08c.21,0,.32.11.32.32Z"/><path class="cls-2" d="M234.12,49.2c.13.11.15.24.04.4-2.08,2.56-4.59,4.51-7.52,5.84-2.93,1.33-6,2-9.2,2-3.36,0-6.48-.77-9.36-2.32-2.88-1.55-5.16-3.75-6.84-6.6-1.68-2.85-2.52-6.15-2.52-9.88s.92-7.07,2.76-10.16c1.84-3.09,4.33-5.53,7.48-7.32,3.15-1.79,6.59-2.68,10.32-2.68,4.16,0,7.63,1.13,10.4,3.4,2.77,2.27,4.16,5.35,4.16,9.24,0,1.76-.32,3.65-.96,5.68-5.6.11-14.19.35-25.76.72.91,2.93,2.31,5.56,4.2,7.88,1.89,2.32,4.07,4.13,6.52,5.44,2.45,1.31,4.85,1.96,7.2,1.96,3.89,0,6.83-1.23,8.8-3.68.05-.05.15-.03.28.08ZM208.52,22.76c-1.57,1.84-2.36,4.6-2.36,8.28,0,1.81.27,3.79.8,5.92,3.04-.05,6.61-.19,10.72-.4,1.07-.05,2.17-.11,3.32-.16,1.15-.05,2.31-.08,3.48-.08.48-.8.72-1.79.72-2.96,0-1.76-.49-3.69-1.48-5.8-.99-2.11-2.24-3.89-3.76-5.36-1.52-1.47-3.05-2.2-4.6-2.2-2.99,0-5.27.92-6.84,2.76Z"/><path class="cls-2" d="M310.96,42.12c.21-.03.32.15.32.52,0,3.09-.47,5.76-1.4,8-.93,2.24-2.13,3.93-3.6,5.08-1.47,1.15-3.03,1.72-4.68,1.72s-3.16-.72-4.36-2.16c-1.2-1.44-2.12-3.55-2.76-6.32l-5.2-21.04c-.59-2.24-1.36-3.8-2.32-4.68s-2.27-1.32-3.92-1.32c-2.35,0-4.11.93-5.28,2.8-1.17,1.87-1.84,4.21-2,7.04l2.64,16.96c.21,1.49.61,2.61,1.2,3.36.59.75,1.23,1.12,1.92,1.12.37,0,.67-.08.88-.24.16-.11.27-.11.32,0,.05.11,0,.24-.16.4-.69,1.28-1.6,2.28-2.72,3-1.12.72-2.32,1.05-3.6,1-1.76-.11-3.29-.76-4.6-1.96-1.31-1.2-2.09-2.81-2.36-4.84l-3.36-21.76c-.75-4.59-2.77-6.88-6.08-6.88-1.92,0-3.52,1.04-4.8,3.12-1.28,2.08-2.11,4.53-2.48,7.36v16.8c0,2.4.36,4.08,1.08,5.04s1.96,1.49,3.72,1.6c.27,0,.4.09.4.28s-.13.28-.4.28c-1.23-.05-4.35-.08-9.36-.08s-8.16.03-9.44.08c-.27,0-.4-.11-.4-.32s.16-.32.48-.32c1.23,0,2.16-.13,2.8-.4.64-.27,1.12-.88,1.44-1.84.32-.96.48-2.43.48-4.4v-19.12c0-2.03-.25-3.51-.76-4.44-.51-.93-1.45-1.4-2.84-1.4-.27,0-.72.05-1.36.16-.21.05-.33-.01-.36-.2-.03-.19.04-.31.2-.36,2.51-.59,5.08-1.36,7.72-2.32,2.64-.96,4.79-2,6.44-3.12.16-.11.35-.16.56-.16.27,0,.4.16.4.48-.43,3.57-.67,6.64-.72,9.2.85-2.56,2.33-4.76,4.44-6.6,2.11-1.84,4.57-2.76,7.4-2.76,2.61,0,4.91.83,6.88,2.48,1.97,1.65,3.28,4.27,3.92,7.84.53-2.88,1.89-5.32,4.08-7.32,2.19-2,4.91-3,8.16-3,3.04,0,5.48.69,7.32,2.08,1.84,1.39,3.16,3.68,3.96,6.88l4.88,20.16c.69,2.83,1.76,4.24,3.2,4.24.96,0,1.83-.84,2.6-2.52.77-1.68,1.16-3.91,1.16-6.68,0-.32.11-.49.32-.52Z"/><path class="cls-2" d="M321.64,55.16c-2.96-1.57-5.28-3.8-6.96-6.68-1.68-2.88-2.52-6.16-2.52-9.84s.96-7.13,2.88-10.2c1.92-3.07,4.55-5.48,7.88-7.24s7-2.64,11-2.64c3.73,0,7.11.79,10.12,2.36,3.01,1.57,5.37,3.77,7.08,6.6,1.71,2.83,2.56,6.05,2.56,9.68s-.97,7.16-2.92,10.28c-1.95,3.12-4.61,5.57-8,7.36-3.39,1.79-7.11,2.68-11.16,2.68-3.68,0-7-.79-9.96-2.36ZM343.16,53c1.73-1.73,2.6-4.28,2.6-7.64s-.84-6.85-2.52-10.8c-1.68-3.95-3.79-7.29-6.32-10.04-2.53-2.75-5-4.12-7.4-4.12-2.99,0-5.33.85-7.04,2.56s-2.56,4.27-2.56,7.68c0,3.2.83,6.79,2.48,10.76,1.65,3.97,3.75,7.33,6.28,10.08,2.53,2.75,4.97,4.12,7.32,4.12,3.04,0,5.43-.87,7.16-2.6Z"/><path class="cls-2" d="M360.24,41.28c.05-.21.16-.31.32-.28.16.03.27.15.32.36.05,4.64,1.19,8.29,3.4,10.96,2.21,2.67,5.21,4,9,4,4.8,0,7.2-1.65,7.2-4.96-.05-2.13-.99-4.04-2.8-5.72-1.81-1.68-4.56-3.56-8.24-5.64-3.47-2.08-6.07-3.95-7.8-5.6-1.73-1.65-2.6-3.57-2.6-5.76,0-1.81.68-3.51,2.04-5.08,1.36-1.57,3.24-2.81,5.64-3.72,2.4-.91,5.07-1.36,8-1.36,3.47,0,6.72.49,9.76,1.48,3.04.99,4.35,2.33,3.92,4.04l-2.48,9.6c-.05.16-.15.24-.28.24s-.2-.11-.2-.32c-.37-9.17-4.48-13.76-12.32-13.76-2.35,0-3.96.36-4.84,1.08s-1.32,1.69-1.32,2.92c0,1.49.8,2.89,2.4,4.2,1.6,1.31,4.4,3.11,8.4,5.4,3.52,1.97,6.32,3.97,8.4,6,2.08,2.03,3.12,4.4,3.12,7.12,0,2.08-.72,3.96-2.16,5.64-1.44,1.68-3.47,3-6.08,3.96s-5.57,1.44-8.88,1.44c-2.51,0-4.91-.28-7.2-.84-2.29-.56-4.08-1.33-5.36-2.32-1.28-.99-1.81-2.07-1.6-3.24l2.24-9.84Z"/><path class="cls-2" d="M447.15,20.76c2.32,1.52,4.19,3.71,5.6,6.56,1.41,2.85,2.12,6.15,2.12,9.88,0,3.52-.81,6.84-2.44,9.96-1.63,3.12-3.84,5.61-6.64,7.48s-5.85,2.8-9.16,2.8c-2.03,0-3.71-.27-5.04-.8-1.33-.53-2.59-1.2-3.76-2-.8-.53-1.33-.8-1.6-.8-.48,0-.72.45-.72,1.36v8.8c0,2.83.39,4.81,1.16,5.96.77,1.15,1.96,1.77,3.56,1.88.27,0,.4.09.4.28s-.13.28-.4.28c-2.24-.11-5.01-.16-8.32-.16-4.21,0-7.65.05-10.32.16-.27,0-.4-.11-.4-.32s.13-.32.4-.32c1.6.05,2.79-.51,3.56-1.68.77-1.17,1.16-3.23,1.16-6.16V30c0-2.03-.25-3.51-.76-4.44-.51-.93-1.45-1.4-2.84-1.4-.27,0-.72.05-1.36.16-.21.05-.33-.01-.36-.2-.03-.19.04-.31.2-.36,2.51-.59,5.08-1.36,7.72-2.32,2.64-.96,4.79-2,6.44-3.12.27-.16.49-.21.68-.16.19.05.25.21.2.48-.32,2.77-.51,5.12-.56,7.04,0,.64.04,1.24.12,1.8.08.56.2.81.36.76,1.44-2.88,3.23-5.23,5.36-7.04,2.13-1.81,4.8-2.72,8-2.72,2.77,0,5.32.76,7.64,2.28ZM444.68,53.36c1.52-1.92,2.28-4.72,2.28-8.4s-.61-7.01-1.84-10.32c-1.23-3.31-2.87-5.97-4.92-8-2.05-2.03-4.28-3.04-6.68-3.04s-4.33,1.01-5.8,3.04c-1.47,2.03-2.2,4.75-2.2,8.16v5.36c0,4.64,1.05,8.48,3.16,11.52,2.11,3.04,4.97,4.56,8.6,4.56,3.41,0,5.88-.96,7.4-2.88Z"/><path class="cls-2" d="M502.47,42.12c.21-.03.32.15.32.52,0,3.09-.45,5.76-1.36,8-.91,2.24-2.09,3.93-3.56,5.08-1.47,1.15-3.03,1.72-4.68,1.72-3.47,0-5.81-2.83-7.04-8.48l-.56-2.4c-1.01,3.41-2.73,6.08-5.16,8-2.43,1.92-5.11,2.88-8.04,2.88s-5.4-.59-7.4-1.76c-2-1.17-3.49-2.72-4.48-4.64-.99-1.92-1.48-3.97-1.48-6.16,0-2.77,1.36-5,4.08-6.68,2.72-1.68,6.19-2.52,10.4-2.52,3.89,0,7.17.27,9.84.8l-1.76-7.76c-.59-2.67-1.59-4.63-3-5.88-1.41-1.25-3.45-1.88-6.12-1.88-3.31,0-6.12.93-8.44,2.8-2.32,1.87-3.61,4.77-3.88,8.72-.05.37-.2.56-.44.56s-.33-.19-.28-.56c.27-3.09,1.28-5.69,3.04-7.8,1.76-2.11,3.91-3.67,6.44-4.68,2.53-1.01,5.11-1.52,7.72-1.52,4.53,0,7.91.87,10.12,2.6,2.21,1.73,3.77,4.57,4.68,8.52l3.92,17.92c.37,1.44.79,2.52,1.24,3.24.45.72,1.05,1.08,1.8,1.08.96,0,1.84-.84,2.64-2.52.8-1.68,1.17-3.91,1.12-6.68,0-.32.11-.49.32-.52ZM484.87,43.12l-1.2-5.28c-2.56-.64-5.07-.96-7.52-.96-3.09,0-5.29.48-6.6,1.44-1.31.96-1.96,2.69-1.96,5.2s.76,4.83,2.28,6.64c1.52,1.81,3.69,2.72,6.52,2.72,5.01,0,7.79-2.61,8.32-7.84.11-.37.16-1.01.16-1.92Z"/><path class="cls-2" d="M533.31,20c1.68,1.01,2.52,2.27,2.52,3.76,0,.21-.05.53-.16.96l-3.92,14.32c-.05.32-.17.44-.36.36-.19-.08-.25-.25-.2-.52.27-1.6.4-2.93.4-4,0-3.2-.77-5.59-2.32-7.16-1.55-1.57-3.44-2.36-5.68-2.36-2.61,0-4.37,1.35-5.28,4.04-.91,2.69-1.36,6.2-1.36,10.52v9.28c0,2.4.36,4.08,1.08,5.04.72.96,1.96,1.49,3.72,1.6.27,0,.4.09.4.28s-.13.28-.4.28c-1.23-.05-4.35-.08-9.36-.08s-8.16.03-9.44.08c-.27,0-.4-.11-.4-.32s.16-.32.48-.32c1.23,0,2.16-.13,2.8-.4.64-.27,1.12-.88,1.44-1.84.32-.96.48-2.43.48-4.4v-19.12c0-2.03-.25-3.51-.76-4.44-.51-.93-1.45-1.4-2.84-1.4-.27,0-.72.05-1.36.16-.21.05-.33-.01-.36-.2-.03-.19.04-.31.2-.36,2.51-.59,5.08-1.36,7.72-2.32,2.64-.96,4.79-2,6.44-3.12.16-.11.35-.16.56-.16.27,0,.4.16.4.48-.32,2.99-.53,5.31-.64,6.96-.11,1.65-.16,3.57-.16,5.76v.64c.64-3.73,1.79-6.92,3.44-9.56,1.65-2.64,4.08-3.96,7.28-3.96,2.08,0,3.96.51,5.64,1.52Z"/><path class="cls-2" d="M582.23,42.12c.21-.03.32.15.32.52,0,3.09-.45,5.76-1.36,8-.91,2.24-2.09,3.93-3.56,5.08-1.47,1.15-3.03,1.72-4.68,1.72-3.47,0-5.81-2.83-7.04-8.48l-.56-2.4c-1.01,3.41-2.73,6.08-5.16,8-2.43,1.92-5.11,2.88-8.04,2.88s-5.4-.59-7.4-1.76c-2-1.17-3.49-2.72-4.48-4.64-.99-1.92-1.48-3.97-1.48-6.16,0-2.77,1.36-5,4.08-6.68,2.72-1.68,6.19-2.52,10.4-2.52,3.89,0,7.17.27,9.84.8l-1.76-7.76c-.59-2.67-1.59-4.63-3-5.88-1.41-1.25-3.45-1.88-6.12-1.88-3.31,0-6.12.93-8.44,2.8-2.32,1.87-3.61,4.77-3.88,8.72-.05.37-.2.56-.44.56s-.33-.19-.28-.56c.27-3.09,1.28-5.69,3.04-7.8,1.76-2.11,3.91-3.67,6.44-4.68,2.53-1.01,5.11-1.52,7.72-1.52,4.53,0,7.91.87,10.12,2.6,2.21,1.73,3.77,4.57,4.68,8.52l3.92,17.92c.37,1.44.79,2.52,1.24,3.24.45.72,1.05,1.08,1.8,1.08.96,0,1.84-.84,2.64-2.52.8-1.68,1.17-3.91,1.12-6.68,0-.32.11-.49.32-.52ZM564.63,43.12l-1.2-5.28c-2.56-.64-5.07-.96-7.52-.96-3.09,0-5.29.48-6.6,1.44-1.31.96-1.96,2.69-1.96,5.2s.76,4.83,2.28,6.64c1.52,1.81,3.69,2.72,6.52,2.72,5.01,0,7.79-2.61,8.32-7.84.11-.37.16-1.01.16-1.92Z"/><path class="cls-2" d="M29.84,112.6c-.11.27-.25.39-.44.36-.19-.03-.23-.2-.12-.52.27-1.07.4-2.11.4-3.12,0-2.45-.59-4.95-1.76-7.48-1.17-2.53-2.72-4.63-4.64-6.28-1.92-1.65-3.95-2.48-6.08-2.48-6.29,0-9.44,3.6-9.44,10.8,0,3.95.91,7.61,2.72,11,1.81,3.39,4.17,6.07,7.08,8.04,2.91,1.97,5.85,2.96,8.84,2.96,3.84,0,6.77-1.23,8.8-3.68.21-.21.37-.25.48-.12.11.13.11.28,0,.44-4.21,5.28-9.79,7.92-16.72,7.92-3.41,0-6.56-.77-9.44-2.32-2.88-1.55-5.19-3.75-6.92-6.6-1.73-2.85-2.6-6.15-2.6-9.88s.92-6.99,2.76-10.08c1.84-3.09,4.33-5.55,7.48-7.36,3.15-1.81,6.56-2.72,10.24-2.72,2.56,0,4.96.35,7.2,1.04,2.24.69,3.96,1.59,5.16,2.68,1.2,1.09,1.67,2.17,1.4,3.24l-4.4,14.16Z"/><path class="cls-2" d="M73.72,122.2c.13.11.15.24.04.4-2.08,2.56-4.59,4.51-7.52,5.84-2.93,1.33-6,2-9.2,2-3.36,0-6.48-.77-9.36-2.32-2.88-1.55-5.16-3.75-6.84-6.6-1.68-2.85-2.52-6.15-2.52-9.88s.92-7.07,2.76-10.16c1.84-3.09,4.33-5.53,7.48-7.32,3.15-1.79,6.59-2.68,10.32-2.68,4.16,0,7.63,1.13,10.4,3.4,2.77,2.27,4.16,5.35,4.16,9.24,0,1.76-.32,3.65-.96,5.68-5.6.11-14.19.35-25.76.72.91,2.93,2.31,5.56,4.2,7.88,1.89,2.32,4.07,4.13,6.52,5.44,2.45,1.31,4.85,1.96,7.2,1.96,3.89,0,6.83-1.23,8.8-3.68.05-.05.15-.03.28.08ZM48.12,95.76c-1.57,1.84-2.36,4.6-2.36,8.28,0,1.81.27,3.79.8,5.92,3.04-.05,6.61-.19,10.72-.4,1.07-.05,2.17-.11,3.32-.16,1.15-.05,2.31-.08,3.48-.08.48-.8.72-1.79.72-2.96,0-1.76-.49-3.69-1.48-5.8-.99-2.11-2.24-3.89-3.76-5.36-1.52-1.47-3.05-2.2-4.6-2.2-2.99,0-5.27.92-6.84,2.76Z"/><path class="cls-2" d="M82,80.12c-.43-.91-1.09-1.36-2-1.36-.43,0-.75.03-.96.08h-.08c-.27,0-.43-.08-.48-.24-.05-.16-.05-.27,0-.32,5.97-1.55,10.59-3.73,13.84-6.56h.16c.37,0,.53.19.48.56-.37,2.13-.63,4.37-.76,6.72-.13,2.35-.2,5.49-.2,9.44v32.48c0,2.24.39,4.11,1.16,5.6.77,1.49,1.99,2.27,3.64,2.32.27,0,.4.09.4.28s-.13.28-.4.28c-1.01-.05-4.13-.08-9.36-.08s-8.43.03-9.44.08c-.32,0-.45-.11-.4-.32.05-.21.27-.32.64-.32,3.04,0,4.56-2.61,4.56-7.84l-.16-35.6c0-2.56-.21-4.29-.64-5.2Z"/><path class="cls-2" d="M136.28,122.2c.13.11.15.24.04.4-2.08,2.56-4.59,4.51-7.52,5.84-2.93,1.33-6,2-9.2,2-3.36,0-6.48-.77-9.36-2.32-2.88-1.55-5.16-3.75-6.84-6.6-1.68-2.85-2.52-6.15-2.52-9.88s.92-7.07,2.76-10.16c1.84-3.09,4.33-5.53,7.48-7.32,3.15-1.79,6.59-2.68,10.32-2.68,4.16,0,7.63,1.13,10.4,3.4,2.77,2.27,4.16,5.35,4.16,9.24,0,1.76-.32,3.65-.96,5.68-5.6.11-14.19.35-25.76.72.91,2.93,2.31,5.56,4.2,7.88,1.89,2.32,4.07,4.13,6.52,5.44,2.45,1.31,4.85,1.96,7.2,1.96,3.89,0,6.83-1.23,8.8-3.68.05-.05.15-.03.28.08ZM110.68,95.76c-1.57,1.84-2.36,4.6-2.36,8.28,0,1.81.27,3.79.8,5.92,3.04-.05,6.61-.19,10.72-.4,1.07-.05,2.17-.11,3.32-.16,1.15-.05,2.31-.08,3.48-.08.48-.8.72-1.79.72-2.96,0-1.76-.49-3.69-1.48-5.8-.99-2.11-2.24-3.89-3.76-5.36-1.52-1.47-3.05-2.2-4.6-2.2-2.99,0-5.27.92-6.84,2.76Z"/><path class="cls-2" d="M174.2,93.76c2.37,1.52,4.25,3.69,5.64,6.52,1.39,2.83,2.08,6.13,2.08,9.92,0,3.57-.81,6.91-2.44,10-1.63,3.09-3.88,5.57-6.76,7.44s-6.13,2.8-9.76,2.8c-2.24,0-4.15-.32-5.72-.96-1.57-.64-3.27-1.52-5.08-2.64-1.12-.69-1.99-1.19-2.6-1.48-.61-.29-1.24-.44-1.88-.44-.48,0-.95.24-1.4.72-.45.48-1,1.17-1.64,2.08l-1.44,1.84c-.21.27-.4.4-.56.4-.32,0-.43-.21-.32-.64.64-4.69.96-9.73.96-15.12l-.16-28.96c0-2.03-.15-3.53-.44-4.52-.29-.99-.68-1.59-1.16-1.8-.48-.21-1.15-.27-2-.16h-.08c-.21,0-.36-.08-.44-.24-.08-.16-.09-.24-.04-.24,6.08-1.6,10.69-3.81,13.84-6.64h.16c.37,0,.53.21.48.64-.37,2.13-.63,4.37-.76,6.72-.13,2.35-.2,5.49-.2,9.44v10.16c.11,1.92.29,2.88.56,2.88,1.49-2.88,3.32-5.27,5.48-7.16,2.16-1.89,4.76-2.84,7.8-2.84,2.88,0,5.51.76,7.88,2.28ZM171.72,126.4c1.47-1.84,2.2-4.65,2.2-8.44s-.6-7.16-1.8-10.44c-1.2-3.28-2.83-5.93-4.88-7.96-2.05-2.03-4.31-3.04-6.76-3.04s-4.27,1.11-5.76,3.32c-1.49,2.21-2.24,5.27-2.24,9.16v3.84c0,4.96.91,8.92,2.72,11.88,1.81,2.96,4.83,4.44,9.04,4.44,3.52,0,6.01-.92,7.48-2.76Z"/><path class="cls-2" d="M216.52,93c1.68,1.01,2.52,2.27,2.52,3.76,0,.21-.05.53-.16.96l-3.92,14.32c-.05.32-.17.44-.36.36-.19-.08-.25-.25-.2-.52.27-1.6.4-2.93.4-4,0-3.2-.77-5.59-2.32-7.16-1.55-1.57-3.44-2.36-5.68-2.36-2.61,0-4.37,1.35-5.28,4.04-.91,2.69-1.36,6.2-1.36,10.52v9.28c0,2.4.36,4.08,1.08,5.04s1.96,1.49,3.72,1.6c.27,0,.4.09.4.28s-.13.28-.4.28c-1.23-.05-4.35-.08-9.36-.08s-8.16.03-9.44.08c-.27,0-.4-.11-.4-.32s.16-.32.48-.32c1.23,0,2.16-.13,2.8-.4.64-.27,1.12-.88,1.44-1.84.32-.96.48-2.43.48-4.4v-19.12c0-2.03-.25-3.51-.76-4.44-.51-.93-1.45-1.4-2.84-1.4-.27,0-.72.05-1.36.16-.21.05-.33-.01-.36-.2-.03-.19.04-.31.2-.36,2.51-.59,5.08-1.36,7.72-2.32,2.64-.96,4.79-2,6.44-3.12.16-.11.35-.16.56-.16.27,0,.4.16.4.48-.32,2.99-.53,5.31-.64,6.96-.11,1.65-.16,3.57-.16,5.76v.64c.64-3.73,1.79-6.92,3.44-9.56,1.65-2.64,4.08-3.96,7.28-3.96,2.08,0,3.96.51,5.64,1.52Z"/><path class="cls-2" d="M265.44,115.12c.21-.03.32.15.32.52,0,3.09-.45,5.76-1.36,8-.91,2.24-2.09,3.93-3.56,5.08-1.47,1.15-3.03,1.72-4.68,1.72-3.47,0-5.81-2.83-7.04-8.48l-.56-2.4c-1.01,3.41-2.73,6.08-5.16,8-2.43,1.92-5.11,2.88-8.04,2.88s-5.4-.59-7.4-1.76c-2-1.17-3.49-2.72-4.48-4.64-.99-1.92-1.48-3.97-1.48-6.16,0-2.77,1.36-5,4.08-6.68,2.72-1.68,6.19-2.52,10.4-2.52,3.89,0,7.17.27,9.84.8l-1.76-7.76c-.59-2.67-1.59-4.63-3-5.88-1.41-1.25-3.45-1.88-6.12-1.88-3.31,0-6.12.93-8.44,2.8-2.32,1.87-3.61,4.77-3.88,8.72-.05.37-.2.56-.44.56s-.33-.19-.28-.56c.27-3.09,1.28-5.69,3.04-7.8,1.76-2.11,3.91-3.67,6.44-4.68,2.53-1.01,5.11-1.52,7.72-1.52,4.53,0,7.91.87,10.12,2.6,2.21,1.73,3.77,4.57,4.68,8.52l3.92,17.92c.37,1.44.79,2.52,1.24,3.24.45.72,1.05,1.08,1.8,1.08.96,0,1.84-.84,2.64-2.52.8-1.68,1.17-3.91,1.12-6.68,0-.32.11-.49.32-.52ZM247.84,116.12l-1.2-5.28c-2.56-.64-5.07-.96-7.52-.96-3.09,0-5.29.48-6.6,1.44-1.31.96-1.96,2.69-1.96,5.2s.76,4.83,2.28,6.64c1.52,1.81,3.69,2.72,6.52,2.72,5.01,0,7.79-2.61,8.32-7.84.11-.37.16-1.01.16-1.92Z"/><path class="cls-2" d="M296.28,93c1.68,1.01,2.52,2.27,2.52,3.76,0,.21-.05.53-.16.96l-3.92,14.32c-.05.32-.17.44-.36.36-.19-.08-.25-.25-.2-.52.27-1.6.4-2.93.4-4,0-3.2-.77-5.59-2.32-7.16-1.55-1.57-3.44-2.36-5.68-2.36-2.61,0-4.37,1.35-5.28,4.04-.91,2.69-1.36,6.2-1.36,10.52v9.28c0,2.4.36,4.08,1.08,5.04s1.96,1.49,3.72,1.6c.27,0,.4.09.4.28s-.13.28-.4.28c-1.23-.05-4.35-.08-9.36-.08s-8.16.03-9.44.08c-.27,0-.4-.11-.4-.32s.16-.32.48-.32c1.23,0,2.16-.13,2.8-.4.64-.27,1.12-.88,1.44-1.84.32-.96.48-2.43.48-4.4v-19.12c0-2.03-.25-3.51-.76-4.44-.51-.93-1.45-1.4-2.84-1.4-.27,0-.72.05-1.36.16-.21.05-.33-.01-.36-.2-.03-.19.04-.31.2-.36,2.51-.59,5.08-1.36,7.72-2.32,2.64-.96,4.79-2,6.44-3.12.16-.11.35-.16.56-.16.27,0,.4.16.4.48-.32,2.99-.53,5.31-.64,6.96-.11,1.65-.16,3.57-.16,5.76v.64c.64-3.73,1.79-6.92,3.44-9.56,1.65-2.64,4.08-3.96,7.28-3.96,2.08,0,3.96.51,5.64,1.52Z"/><path class="cls-2" d="M324.56,103c0-2.03-.25-3.51-.76-4.44-.51-.93-1.45-1.4-2.84-1.4-.27,0-.72.05-1.36.16-.21.05-.33-.01-.36-.2-.03-.19.04-.31.2-.36,2.51-.59,5.08-1.36,7.72-2.32s4.79-2,6.44-3.12c.16-.11.35-.16.56-.16.27,0,.4.16.4.48-.32,2.99-.53,5.31-.64,6.96-.11,1.65-.16,3.57-.16,5.76v13.6c0,4.91-1.19,9-3.56,12.28-2.37,3.28-5.13,5.72-8.28,7.32-3.15,1.6-5.92,2.43-8.32,2.48h-.08c-.37,0-.56-.11-.56-.32,0-.27.21-.4.64-.4,2.03-.11,3.81-.55,5.36-1.32,1.55-.77,2.87-2.43,3.96-4.96,1.09-2.53,1.64-6.25,1.64-11.16v-18.88ZM322.6,82.44c-.99-.75-1.48-1.68-1.48-2.8,0-1.39.67-2.57,2-3.56,1.33-.99,3.01-1.48,5.04-1.48,1.65,0,2.96.37,3.92,1.12.96.75,1.44,1.71,1.44,2.88,0,1.39-.67,2.56-2,3.52-1.33.96-3.01,1.44-5.04,1.44-1.6,0-2.89-.37-3.88-1.12Z"/><path class="cls-2" d="M387.12,115.16c.16,0,.24.13.24.4,0,4.05-.87,7.52-2.6,10.4-1.73,2.88-3.99,4.32-6.76,4.32-2.13,0-3.91-.75-5.32-2.24s-2.12-3.76-2.12-6.8v-1.12c-.69,3.04-2.16,5.53-4.4,7.48s-5.12,2.92-8.64,2.92c-3.95,0-7.11-1.33-9.48-4-2.37-2.67-3.56-6.56-3.56-11.68v-11.84c0-2.03-.25-3.51-.76-4.44-.51-.93-1.45-1.4-2.84-1.4-.27,0-.72.05-1.36.16-.21.05-.33-.01-.36-.2-.03-.19.04-.31.2-.36,2.56-.59,5.16-1.36,7.8-2.32,2.64-.96,4.76-2,6.36-3.12.16-.11.35-.16.56-.16.27,0,.4.16.4.48-.32,2.99-.53,5.31-.64,6.96-.11,1.65-.16,3.57-.16,5.76v10.88c0,8.05,2.64,12.08,7.92,12.08,2.72,0,4.89-1.15,6.52-3.44,1.63-2.29,2.44-5.33,2.44-9.12v-11.76c0-2.03-.24-3.51-.72-4.44-.48-.93-1.41-1.4-2.8-1.4-.27,0-.72.05-1.36.16-.21.05-.33-.01-.36-.2-.03-.19.01-.31.12-.36,2.56-.59,5.16-1.36,7.8-2.32,2.64-.96,4.79-2,6.44-3.12.27-.16.49-.21.68-.16.19.05.25.21.2.48-.27,2.56-.47,4.81-.6,6.76-.13,1.95-.2,3.93-.2,5.96v15.04c0,3.52.91,5.28,2.72,5.28s2.91-.79,3.44-2.36c.53-1.57.85-3.83.96-6.76,0-.27.08-.4.24-.4Z"/><path class="cls-2" d="M439.75,115.12c.21-.03.32.15.32.52,0,3.09-.45,5.76-1.36,8-.91,2.24-2.11,3.93-3.6,5.08-1.49,1.15-3.07,1.72-4.72,1.72-3.36,0-5.73-2.83-7.12-8.48l-5.12-20.88c-.48-2.13-1.15-3.67-2-4.6-.85-.93-2.29-1.4-4.32-1.4-2.35,0-4.35,1.04-6,3.12-1.65,2.08-2.67,4.88-3.04,8.4v15.6c0,2.4.36,4.08,1.08,5.04.72.96,1.96,1.49,3.72,1.6.27,0,.4.09.4.28s-.13.28-.4.28c-1.23-.05-4.35-.08-9.36-.08s-8.16.03-9.44.08c-.27,0-.4-.11-.4-.32s.16-.32.48-.32c1.23,0,2.16-.13,2.8-.4.64-.27,1.12-.88,1.44-1.84.32-.96.48-2.43.48-4.4v-19.12c0-2.03-.25-3.51-.76-4.44-.51-.93-1.45-1.4-2.84-1.4-.27,0-.72.05-1.36.16-.21.05-.33-.01-.36-.2-.03-.19.04-.31.2-.36,2.51-.59,5.08-1.36,7.72-2.32,2.64-.96,4.79-2,6.44-3.12.16-.11.35-.16.56-.16.27,0,.4.16.4.48-.48,4.69-.75,8.08-.8,10.16.91-2.88,2.6-5.32,5.08-7.32,2.48-2,5.27-3,8.36-3,3.41,0,5.97.75,7.68,2.24,1.71,1.49,2.93,3.79,3.68,6.88l4.88,20c.69,2.83,1.76,4.24,3.2,4.24.96,0,1.84-.84,2.64-2.52.8-1.68,1.17-3.91,1.12-6.68,0-.32.11-.49.32-.52Z"/><path class="cls-2" d="M447.35,127.88c-1.44-1.71-2.16-3.84-2.16-6.4v-25.84c0-.8-.09-1.39-.28-1.76-.19-.37-.65-.56-1.4-.56h-2.8c-.21,0-.32-.07-.32-.2s.11-.23.32-.28c3.04-.53,5.83-1.87,8.36-4,2.53-2.13,4.25-4.83,5.16-8.08,0-.32.11-.48.32-.48.16,0,.24.16.24.48-.05,4.11-.19,7.6-.4,10.48,0,.64.13,1.05.4,1.24.27.19.8.28,1.6.28h7.44c.11,0,.15.09.12.28-.03.19-.17.28-.44.28h-6.8c-.91,0-1.52.15-1.84.44-.32.29-.48.84-.48,1.64v23.76c0,1.97.4,3.49,1.2,4.56.8,1.07,1.81,1.6,3.04,1.6.96,0,2-.35,3.12-1.04,1.12-.69,2.19-1.68,3.2-2.96.27-.27.45-.35.56-.24.11.11.05.29-.16.56-2.13,2.99-4.28,5.2-6.44,6.64-2.16,1.44-4.17,2.16-6.04,2.16-2.24,0-4.08-.85-5.52-2.56Z"/><path class="cls-2" d="M476.51,128.16c-2.96-1.57-5.28-3.8-6.96-6.68-1.68-2.88-2.52-6.16-2.52-9.84s.96-7.13,2.88-10.2c1.92-3.07,4.55-5.48,7.88-7.24s7-2.64,11-2.64c3.73,0,7.11.79,10.12,2.36,3.01,1.57,5.37,3.77,7.08,6.6,1.71,2.83,2.56,6.05,2.56,9.68s-.97,7.16-2.92,10.28c-1.95,3.12-4.61,5.57-8,7.36-3.39,1.79-7.11,2.68-11.16,2.68-3.68,0-7-.79-9.96-2.36ZM498.03,126c1.73-1.73,2.6-4.28,2.6-7.64s-.84-6.85-2.52-10.8c-1.68-3.95-3.79-7.29-6.32-10.04-2.53-2.75-5-4.12-7.4-4.12-2.99,0-5.33.85-7.04,2.56s-2.56,4.27-2.56,7.68c0,3.2.83,6.79,2.48,10.76,1.65,3.97,3.75,7.33,6.28,10.08,2.53,2.75,4.97,4.12,7.32,4.12,3.04,0,5.43-.87,7.16-2.6Z"/><path class="cls-2" d="M515.11,114.28c.05-.21.16-.31.32-.28.16.03.27.15.32.36.05,4.64,1.19,8.29,3.4,10.96,2.21,2.67,5.21,4,9,4,4.8,0,7.2-1.65,7.2-4.96-.05-2.13-.99-4.04-2.8-5.72-1.81-1.68-4.56-3.56-8.24-5.64-3.47-2.08-6.07-3.95-7.8-5.6-1.73-1.65-2.6-3.57-2.6-5.76,0-1.81.68-3.51,2.04-5.08,1.36-1.57,3.24-2.81,5.64-3.72,2.4-.91,5.07-1.36,8-1.36,3.47,0,6.72.49,9.76,1.48,3.04.99,4.35,2.33,3.92,4.04l-2.48,9.6c-.05.16-.15.24-.28.24s-.2-.11-.2-.32c-.37-9.17-4.48-13.76-12.32-13.76-2.35,0-3.96.36-4.84,1.08s-1.32,1.69-1.32,2.92c0,1.49.8,2.89,2.4,4.2,1.6,1.31,4.4,3.11,8.4,5.4,3.52,1.97,6.32,3.97,8.4,6,2.08,2.03,3.12,4.4,3.12,7.12,0,2.08-.72,3.96-2.16,5.64-1.44,1.68-3.47,3-6.08,3.96s-5.57,1.44-8.88,1.44c-2.51,0-4.91-.28-7.2-.84-2.29-.56-4.08-1.33-5.36-2.32-1.28-.99-1.81-2.07-1.6-3.24l2.24-9.84Z"/></g></svg>