<?xml version="1.0" encoding="UTF-8"?><svg id="Capa_2" xmlns="http://www.w3.org/2000/svg" viewBox="0 0 599.92 188.05"><defs><style>.cls-1{fill:#1b2f52;}</style></defs><g id="Texto"><path class="cls-1" d="M15.33,57.92c-3.04-.16-6.19-.24-9.44-.24-1.71,0-3.25.05-4.64.16-.32,0-.49-.09-.52-.28-.03-.19.15-.28.52-.28,1.87-.11,3.29-.77,4.28-2,.99-1.23,1.48-3.31,1.48-6.24V10.24c0-2.93-.49-5.01-1.48-6.24-.99-1.23-2.41-1.89-4.28-2-.38,0-.55-.09-.52-.28.03-.19.2-.28.52-.28,1.39.11,2.93.16,4.64.16,1.49,0,2.88-.03,4.16-.08,1.28-.05,2.37-.11,3.28-.16l8.08-.16c11.47,0,19.91,2.57,25.32,7.72,5.41,5.15,8.12,11.96,8.12,20.44,0,5.44-1.2,10.33-3.6,14.68-2.4,4.35-5.93,7.77-10.6,10.28-4.67,2.51-10.23,3.76-16.68,3.76-1.81,0-4.69-.05-8.64-.16ZM38.85,50.12c3.68-4.88,5.55-11.29,5.6-19.24,0-5.28-.89-10.12-2.68-14.52-1.79-4.4-4.56-7.92-8.32-10.56s-8.47-3.96-14.12-3.96c-.91,0-1.54.27-1.88.8-.35.54-.52,1.33-.52,2.4v48.88c0,1.39.32,2.32.96,2.8.64.48,1.97.72,4,.72,7.63,0,13.28-2.44,16.96-7.32Z"/><path class="cls-1" d="M90.73,21.36c1.68,1.01,2.52,2.27,2.52,3.76,0,.21-.05.53-.16.96l-3.92,14.32c-.05.32-.17.44-.36.36-.19-.08-.25-.25-.2-.52.27-1.6.4-2.93.4-4,0-3.2-.77-5.59-2.32-7.16-1.55-1.57-3.44-2.36-5.68-2.36-2.61,0-4.37,1.35-5.28,4.04-.91,2.69-1.36,6.2-1.36,10.52v9.28c0,2.4.36,4.08,1.08,5.04.72.96,1.96,1.49,3.72,1.6.27,0,.4.09.4.28s-.13.28-.4.28c-1.23-.05-4.35-.08-9.36-.08s-8.16.03-9.44.08c-.27,0-.4-.11-.4-.32s.16-.32.48-.32c1.23,0,2.16-.13,2.8-.4.64-.27,1.12-.88,1.44-1.84.32-.96.48-2.43.48-4.4v-19.12c0-2.03-.25-3.51-.76-4.44-.51-.93-1.45-1.4-2.84-1.4-.27,0-.72.05-1.36.16-.21.05-.33-.01-.36-.2-.03-.19.04-.3.2-.36,2.51-.59,5.08-1.36,7.72-2.32,2.64-.96,4.79-2,6.44-3.12.16-.11.35-.16.56-.16.27,0,.4.16.4.48-.32,2.99-.53,5.31-.64,6.96-.11,1.65-.16,3.57-.16,5.76v.64c.64-3.73,1.79-6.92,3.44-9.56,1.65-2.64,4.08-3.96,7.28-3.96,2.08,0,3.96.51,5.64,1.52Z"/><path class="cls-1" d="M105.09,56.48c-2.88-1.54-5.16-3.75-6.84-6.6-1.68-2.85-2.52-6.15-2.52-9.88s.92-7.07,2.76-10.16c1.84-3.09,4.33-5.53,7.48-7.32,3.15-1.79,6.59-2.68,10.32-2.68,4.16,0,7.63,1.13,10.4,3.4,2.77,2.27,4.16,5.35,4.16,9.24,0,1.76-.32,3.65-.96,5.68-7.73.11-16.13.38-25.2.8l-.4-.64,9.76-.32c3.63-.21,6.11-.32,7.44-.32.48-.8.72-1.79.72-2.96,0-1.76-.49-3.69-1.48-5.8-.99-2.11-2.24-3.89-3.76-5.36-1.52-1.46-3.05-2.2-4.6-2.2-2.99,0-5.27.92-6.84,2.76-1.57,1.84-2.36,4.6-2.36,8.28,0,3.89.95,7.51,2.84,10.84,1.89,3.33,4.31,5.99,7.24,7.96,2.93,1.97,5.87,2.96,8.8,2.96,3.89,0,6.83-1.22,8.8-3.68.05-.05.15-.03.28.08.13.11.15.24.04.4-2.08,2.56-4.59,4.51-7.52,5.84-2.93,1.33-6,2-9.2,2-3.36,0-6.48-.77-9.36-2.32Z"/><path class="cls-1" d="M137.48,42.64c.05-.21.16-.31.32-.28s.27.15.32.36c.05,4.64,1.19,8.29,3.4,10.96,2.21,2.67,5.21,4,9,4,4.8,0,7.2-1.65,7.2-4.96-.05-2.13-.99-4.04-2.8-5.72-1.81-1.68-4.56-3.56-8.24-5.64-3.47-2.08-6.07-3.95-7.8-5.6-1.73-1.65-2.6-3.57-2.6-5.76,0-1.81.68-3.51,2.04-5.08,1.36-1.57,3.24-2.81,5.64-3.72,2.4-.91,5.07-1.36,8-1.36,3.47,0,6.72.49,9.76,1.48,3.04.99,4.35,2.33,3.92,4.04l-2.48,9.6c-.05.16-.15.24-.28.24s-.2-.11-.2-.32c-.37-9.17-4.48-13.76-12.32-13.76-2.35,0-3.96.36-4.84,1.08s-1.32,1.69-1.32,2.92c0,1.49.8,2.89,2.4,4.2,1.6,1.31,4.4,3.11,8.4,5.4,3.52,1.97,6.32,3.97,8.4,6,2.08,2.03,3.12,4.4,3.12,7.12,0,2.08-.72,3.96-2.16,5.64-1.44,1.68-3.47,3-6.08,3.96-2.61.96-5.57,1.44-8.88,1.44-2.51,0-4.91-.28-7.2-.84-2.29-.56-4.08-1.33-5.36-2.32-1.28-.99-1.81-2.07-1.6-3.24l2.24-9.84Z"/><path class="cls-1" d="M173.64,42.64c.05-.21.16-.31.32-.28s.27.15.32.36c.05,4.64,1.19,8.29,3.4,10.96,2.21,2.67,5.21,4,9,4,4.8,0,7.2-1.65,7.2-4.96-.05-2.13-.99-4.04-2.8-5.72-1.81-1.68-4.56-3.56-8.24-5.64-3.47-2.08-6.07-3.95-7.8-5.6-1.73-1.65-2.6-3.57-2.6-5.76,0-1.81.68-3.51,2.04-5.08,1.36-1.57,3.24-2.81,5.64-3.72,2.4-.91,5.07-1.36,8-1.36,3.47,0,6.72.49,9.76,1.48,3.04.99,4.35,2.33,3.92,4.04l-2.48,9.6c-.05.16-.15.24-.28.24s-.2-.11-.2-.32c-.37-9.17-4.48-13.76-12.32-13.76-2.35,0-3.96.36-4.84,1.08s-1.32,1.69-1.32,2.92c0,1.49.8,2.89,2.4,4.2,1.6,1.31,4.4,3.11,8.4,5.4,3.52,1.97,6.32,3.97,8.4,6,2.08,2.03,3.12,4.4,3.12,7.12,0,2.08-.72,3.96-2.16,5.64-1.44,1.68-3.47,3-6.08,3.96-2.61.96-5.57,1.44-8.88,1.44-2.51,0-4.91-.28-7.2-.84-2.29-.56-4.08-1.33-5.36-2.32-1.28-.99-1.81-2.07-1.6-3.24l2.24-9.84Z"/><path class="cls-1" d="M268.68,31.6c-.05.21-.19.29-.4.24-.21-.05-.29-.19-.24-.4.85-2.56,1.28-5.17,1.28-7.84,0-4.16-.93-7.95-2.8-11.36-1.49-2.99-3.52-5.32-6.08-7-2.56-1.68-5.33-2.52-8.32-2.52-5.39,0-9.59,1.35-12.6,4.04-3.01,2.69-4.52,7-4.52,12.92,0,6.24,1.25,11.91,3.76,17,2.51,5.09,5.75,9.08,9.72,11.96,3.97,2.88,8.04,4.32,12.2,4.32,2.61,0,5.43-.47,8.44-1.4,3.01-.93,5.67-2.6,7.96-5,.21-.21.37-.32.48-.32.27,0,.24.21-.08.64-3.36,4.05-7.01,7.07-10.96,9.04-3.95,1.97-8.35,2.96-13.2,2.96s-9.45-1.17-13.64-3.52c-4.19-2.35-7.52-5.68-10-10-2.48-4.32-3.72-9.25-3.72-14.8s1.39-10.77,4.16-15.36c2.77-4.59,6.49-8.2,11.16-10.84,4.67-2.64,9.75-3.96,15.24-3.96,3.47,0,6.73.51,9.8,1.52,3.07,1.01,5.51,2.28,7.32,3.8,1.81,1.52,2.72,3.05,2.72,4.6,0,.21-.05.54-.16.96l-7.52,20.32Z"/><path class="cls-1" d="M289.84,56.52c-2.96-1.57-5.28-3.8-6.96-6.68-1.68-2.88-2.52-6.16-2.52-9.84s.96-7.13,2.88-10.2c1.92-3.07,4.55-5.48,7.88-7.24s7-2.64,11-2.64c3.73,0,7.11.79,10.12,2.36,3.01,1.57,5.37,3.77,7.08,6.6,1.71,2.83,2.56,6.05,2.56,9.68s-.97,7.16-2.92,10.28c-1.95,3.12-4.61,5.57-8,7.36-3.39,1.79-7.11,2.68-11.16,2.68-3.68,0-7-.79-9.96-2.36ZM311.36,54.36c1.73-1.73,2.6-4.28,2.6-7.64s-.84-6.85-2.52-10.8-3.79-7.29-6.32-10.04c-2.53-2.75-5-4.12-7.4-4.12-2.99,0-5.33.85-7.04,2.56-1.71,1.71-2.56,4.27-2.56,7.68,0,3.2.83,6.79,2.48,10.76,1.65,3.97,3.75,7.33,6.28,10.08,2.53,2.75,4.97,4.12,7.32,4.12,3.04,0,5.43-.87,7.16-2.6Z"/><path class="cls-1" d="M372.32,43.52c.19,0,.28.13.28.4,0,4.05-.87,7.52-2.6,10.4-1.73,2.88-3.99,4.32-6.76,4.32-2.08,0-3.83-.73-5.24-2.2-1.41-1.47-2.15-3.67-2.2-6.6l-.08-.24c-.11-.16-.23-.23-.36-.2-.13.03-.25.15-.36.36-3.09,6.08-7.44,9.12-13.04,9.12-2.77,0-5.35-.76-7.72-2.28s-4.28-3.68-5.72-6.48-2.16-6.04-2.16-9.72.88-7.17,2.64-10.32c1.76-3.15,4.07-5.64,6.92-7.48,2.85-1.84,5.83-2.76,8.92-2.76,4.32,0,7.95,1.44,10.88,4.32l-.08-10.56c0-2.03-.15-3.53-.44-4.52s-.68-1.59-1.16-1.8c-.48-.21-1.12-.27-1.92-.16h-.16c-.37,0-.53-.16-.48-.48,6.03-1.54,10.67-3.76,13.92-6.64h.16c.32,0,.45.21.4.64-.37,2.24-.63,4.56-.76,6.96-.13,2.4-.2,5.47-.2,9.2v30.96c0,3.52.91,5.28,2.72,5.28s2.91-.8,3.44-2.4.83-3.84.88-6.72c0-.27.09-.4.28-.4ZM353.64,51.08c1.28-1.79,2-4.49,2.16-8.12l-.08-4.8c-.21-4.75-1.28-8.75-3.2-12-1.92-3.25-4.69-4.88-8.32-4.88-6.61,0-9.92,3.73-9.92,11.2,0,3.47.65,6.85,1.96,10.16,1.31,3.31,3.03,5.99,5.16,8.04,2.13,2.05,4.32,3.08,6.56,3.08,2.51,0,4.4-.89,5.68-2.68Z"/><path class="cls-1" d="M408.88,50.56c.13.11.15.24.04.4-2.08,2.56-4.59,4.51-7.52,5.84-2.93,1.33-6,2-9.2,2-3.36,0-6.48-.77-9.36-2.32-2.88-1.54-5.16-3.75-6.84-6.6-1.68-2.85-2.52-6.15-2.52-9.88s.92-7.07,2.76-10.16c1.84-3.09,4.33-5.53,7.48-7.32,3.15-1.79,6.59-2.68,10.32-2.68,4.16,0,7.63,1.13,10.4,3.4,2.77,2.27,4.16,5.35,4.16,9.24,0,1.76-.32,3.65-.96,5.68-5.6.11-14.19.35-25.76.72.91,2.93,2.31,5.56,4.2,7.88,1.89,2.32,4.07,4.13,6.52,5.44,2.45,1.31,4.85,1.96,7.2,1.96,3.89,0,6.83-1.22,8.8-3.68.05-.05.15-.03.28.08ZM383.28,24.12c-1.57,1.84-2.36,4.6-2.36,8.28,0,1.81.27,3.79.8,5.92,3.04-.05,6.61-.19,10.72-.4,1.07-.05,2.17-.11,3.32-.16,1.15-.05,2.31-.08,3.48-.08.48-.8.72-1.79.72-2.96,0-1.76-.49-3.69-1.48-5.8-.99-2.11-2.24-3.89-3.76-5.36-1.52-1.46-3.05-2.2-4.6-2.2-2.99,0-5.27.92-6.84,2.76Z"/><path class="cls-1" d="M.28,117.7c-.17.03-.26,0-.28-.1-.02-.1.08-.15.28-.15,1.27-.07,2.18-.35,2.75-.85s.85-1.42.85-2.75v-27.5c0-1.33-.28-2.25-.85-2.75s-1.48-.78-2.75-.85c-.2,0-.29-.05-.28-.15.02-.1.11-.13.28-.1l2.5.1h13.55c2.27,0,4.25-.12,5.95-.35l1.15-.1c.23,0,.41.07.53.2.12.13.19.4.22.8.07,2.77.47,6.57,1.2,11.4.03.13,0,.21-.07.22-.08.02-.14-.04-.18-.17-.5-2.6-.91-4.53-1.22-5.8-.32-1.27-.6-2.18-.85-2.75-.25-.57-.58-1.07-.97-1.5-.67-.7-2-1.15-4-1.35s-5.47-.3-10.4-.3c-.67,0-1,.47-1,1.4v13.4c.07.77.4,1.15,1,1.15,3.1,0,5.08-.05,5.95-.15.53-.07.95-.21,1.25-.43.3-.21.6-.66.9-1.32.3-.67.63-1.7,1-3.1.03-.2.09-.3.18-.3s.11.1.07.3c-.23,1.3-.35,2.77-.35,4.4,0,2.1.2,4.3.6,6.6.03.17,0,.26-.07.28-.08.02-.14-.08-.18-.28-.57-2.1-1.09-3.53-1.57-4.28-.48-.75-1.09-1.18-1.83-1.28-.87-.07-2.85-.1-5.95-.1-.6,0-.93.4-1,1.2v14.9c0,1.33.48,2,1.45,2,5.07-.03,8.76-.17,11.08-.42,2.32-.25,3.82-.68,4.52-1.28.73-.67,1.31-1.69,1.73-3.08.42-1.38.89-3.67,1.42-6.88.03-.23.1-.35.2-.35.13,0,.17.13.1.4-.7,4.23-1.1,8.02-1.2,11.35,0,.43-.08.71-.23.83-.15.12-.36.17-.62.17s-.97-.07-2.12-.22c-1.15-.15-3.11-.22-5.88-.22H2.78l-2.5.1Z"/><path class="cls-1" d="M32.95,84.95c-.28-.37-.67-.55-1.17-.55-.13,0-.37.04-.7.1-.2.03-.3-.05-.3-.25,2.5-.53,4.33-1.35,5.5-2.45.23-.07.32,0,.25.2-.2.73-.33,1.69-.38,2.88-.05,1.18-.08,3.14-.08,5.88v23.5c0,.93.28,1.67.83,2.22s1.27.86,2.17.92c.1,0,.16.05.18.15.02.1-.04.15-.18.15-.6-.03-2.03-.05-4.3-.05s-3.67.02-4.3.05c-.17,0-.25-.06-.25-.18s.08-.17.25-.17c1.97.07,2.95-.97,2.95-3.1l-.05-27.4c0-.9-.14-1.53-.43-1.9Z"/><path class="cls-1" d="M62.83,113.42c.07.05.08.12.05.22-1.3,1.57-2.73,2.72-4.3,3.45s-3.35,1.1-5.35,1.1-3.72-.47-5.38-1.43c-1.65-.95-2.96-2.28-3.93-4-.97-1.71-1.45-3.69-1.45-5.92,0-2.37.53-4.47,1.6-6.33,1.07-1.85,2.5-3.28,4.3-4.3,1.8-1.02,3.75-1.53,5.85-1.53,2.33,0,4.27.69,5.8,2.07,1.53,1.38,2.3,3.19,2.3,5.43,0,.97-.18,2.05-.55,3.25l-5.05.1c-5.23.07-9.22.15-11.95.25.13,2.33.77,4.31,1.9,5.93s2.5,2.82,4.1,3.62c1.6.8,3.17,1.2,4.7,1.2,1.23,0,2.52-.22,3.85-.65,1.33-.43,2.45-1.25,3.35-2.45.03-.07.08-.07.15-.03ZM44.78,104.95v.55c1.8-.03,4.23-.12,7.3-.25,3.47-.13,5.9-.22,7.3-.25.23-.67.35-1.4.35-2.2,0-1.23-.29-2.42-.88-3.55-.58-1.13-1.39-2.04-2.43-2.73-1.03-.68-2.15-1.02-3.35-1.02-5.53,0-8.3,3.15-8.3,9.45Z"/><path class="cls-1" d="M85.73,119.17c.93.95,1.4,2.06,1.4,3.33,0,1.17-.35,2.17-1.05,3.02-.7.85-1.58,1.5-2.62,1.95-1.05.45-2.04.67-2.98.67-3,0-5.52-1.4-7.55-4.2-1.17.47-2.28.7-3.35.7-1.4,0-2.54-.41-3.43-1.22s-1.32-1.84-1.32-3.07c0-2.47,1.68-4.48,5.05-6.05-1.53-.83-2.74-2-3.62-3.5s-1.32-3.23-1.32-5.2.48-3.72,1.45-5.38,2.29-2.97,3.98-3.97c1.68-1,3.54-1.5,5.58-1.5,1.57,0,3.05.33,4.45,1,.03-1.77.62-3.09,1.78-3.98,1.15-.88,2.49-1.32,4.03-1.32.33,0,.58.07.75.22.17.15.2.38.1.68l-.65,1.9c-.13.3-.33.37-.6.2-.63-.43-1.37-.65-2.2-.65-.97,0-1.68.25-2.12.75-.45.5-.61,1.33-.48,2.5,1.47.87,2.64,2.05,3.52,3.55s1.33,3.2,1.33,5.1-.49,3.68-1.48,5.35c-.98,1.67-2.33,2.99-4.02,3.97-1.7.98-3.57,1.48-5.6,1.48-1.63,0-3.15-.35-4.55-1.05-1.27.6-2.23,1.22-2.9,1.88-.67.65-1,1.51-1,2.57,0,.9.3,1.65.9,2.25.6.6,1.35.9,2.25.9s1.74-.16,2.53-.47c.78-.32,1.71-.79,2.77-1.43,1.37-.8,2.58-1.4,3.62-1.8s2.27-.6,3.67-.6c1.53,0,2.77.47,3.7,1.42ZM68.15,109.1c.72,1.63,1.73,2.95,3.05,3.95,1.32,1,2.82,1.5,4.52,1.5,2.53,0,4.49-.67,5.88-2.03,1.38-1.35,2.08-3.41,2.08-6.17,0-1.8-.38-3.52-1.12-5.15s-1.8-2.95-3.15-3.95-2.89-1.5-4.62-1.5c-2.47,0-4.37.67-5.7,2.02-1.33,1.35-2,3.38-2,6.08,0,1.87.36,3.62,1.07,5.25ZM84.53,126.47c.8-.55,1.2-1.49,1.2-2.83,0-.97-.32-1.76-.95-2.38s-1.5-.92-2.6-.92c-1.3,0-2.43.19-3.4.57s-2.07.94-3.3,1.68c-.87.57-1.62.98-2.25,1.25.73.93,1.77,1.74,3.1,2.42,1.33.68,2.85,1.03,4.55,1.03s2.85-.28,3.65-.82Z"/><path class="cls-1" d="M113.6,110.72c.12-.02.17.07.17.28,0,2.37-.39,4.16-1.17,5.38s-1.69,1.82-2.72,1.82c-.87,0-1.54-.37-2.03-1.1s-.89-1.87-1.22-3.4l-.5-2.5c-.7,2.07-1.88,3.75-3.53,5.05-1.65,1.3-3.44,1.95-5.38,1.95-2.53,0-4.47-.71-5.8-2.12-1.33-1.42-2-3.11-2-5.07,0-1.13.43-2.13,1.3-3,.87-.87,2-1.54,3.4-2.03,1.4-.48,2.9-.72,4.5-.72,2.1,0,4.22.17,6.35.5l-1-4.75c-.4-1.73-1.07-3.02-2-3.85-.93-.83-2.37-1.25-4.3-1.25-1.37,0-2.67.29-3.9.88-1.23.58-2.26,1.47-3.07,2.65-.82,1.18-1.24,2.64-1.28,4.38,0,.2-.06.3-.17.3s-.17-.1-.17-.3c.07-1.8.59-3.39,1.57-4.78.98-1.38,2.23-2.45,3.73-3.2s3-1.12,4.5-1.12c2.4,0,4.19.51,5.38,1.53,1.18,1.02,2.01,2.61,2.47,4.78l2.55,12.2c.23,1.03.5,1.82.8,2.38.3.55.68.82,1.15.82.27,0,.57-.15.9-.45.33-.3.63-.85.9-1.65.27-.8.4-1.9.4-3.3,0-.17.06-.26.17-.28ZM105.53,108.5l-.35-1.8c-2.2-.4-4.25-.6-6.15-.6-2.53,0-4.34.32-5.42.97s-1.62,1.86-1.62,3.62.53,3.1,1.6,4.2c1.07,1.1,2.67,1.65,4.8,1.65,4.53,0,6.92-2.38,7.15-7.15.03-.27.03-.57,0-.9Z"/><path class="cls-1" d="M142.8,110.72c.12-.02.18.07.18.28,0,2.37-.39,4.16-1.18,5.38s-1.69,1.82-2.72,1.82c-.87,0-1.56-.36-2.07-1.07-.52-.72-.96-1.84-1.33-3.38l-3.1-12.85c-.27-1.13-.57-2.03-.93-2.7-.35-.67-.88-1.18-1.57-1.53s-1.67-.53-2.9-.53c-1.33,0-2.57.36-3.7,1.08-1.13.72-2.04,1.78-2.72,3.2-.68,1.42-1.03,3.14-1.03,5.18v8.95c0,.97.27,1.67.8,2.1.53.43,1.27.68,2.2.75.13,0,.2.05.2.15s-.07.15-.2.15c-.63-.03-2.05-.05-4.25-.05s-3.65.02-4.35.05c-.13,0-.2-.06-.2-.18s.07-.17.2-.17c1.03,0,1.78-.19,2.25-.58.47-.38.7-1.14.7-2.27v-15c0-.8-.14-1.38-.42-1.75s-.76-.55-1.43-.55c-.3,0-.68.05-1.15.15-.1.03-.17,0-.2-.08-.03-.08-.02-.14.05-.17,2.77-.67,4.68-1.37,5.75-2.1.13-.1.25-.12.35-.08.1.05.15.11.15.18-.13.9-.24,1.74-.33,2.53-.08.78-.12,1.69-.12,2.72v1.35c.37-1.27,1-2.43,1.9-3.5.9-1.07,1.95-1.92,3.15-2.55,1.2-.63,2.4-.95,3.6-.95,2.13,0,3.69.47,4.67,1.43.98.95,1.71,2.42,2.18,4.42l3.1,12.7c.23,1.03.52,1.82.85,2.35s.75.8,1.25.8c.23,0,.53-.15.88-.45s.66-.85.93-1.65c.27-.8.4-1.9.4-3.3,0-.17.06-.26.17-.28Z"/><path class="cls-1" d="M147.65,116.95c-.68-.83-1.03-1.97-1.03-3.4v-16.55c0-.47-.06-.8-.17-1-.12-.2-.41-.3-.88-.3h-1.7c-.13,0-.2-.04-.2-.12s.05-.14.15-.18c1.6-.3,2.85-.92,3.75-1.88.9-.95,1.45-2.27,1.65-3.97,0-.17.05-.25.15-.25s.15.08.15.25c0,1.43-.07,3.07-.2,4.9v.2c0,.3.08.5.25.6.17.1.48.15.95.15h5.05c.07,0,.08.05.05.15s-.1.15-.2.15h-4.65c-.6,0-1,.09-1.2.28s-.3.54-.3,1.07v16c0,1.07.25,1.93.75,2.58.5.65,1.13.97,1.9.97.63,0,1.28-.22,1.95-.65s1.3-1.08,1.9-1.95c.1-.17.18-.23.25-.2.07.03.05.13-.05.3-.87,1.37-1.79,2.39-2.78,3.07-.98.68-1.94,1.03-2.88,1.03-1.1,0-1.99-.42-2.67-1.25Z"/><path class="cls-1" d="M178.27,113.42c.07.05.08.12.05.22-1.3,1.57-2.73,2.72-4.3,3.45-1.57.73-3.35,1.1-5.35,1.1s-3.72-.47-5.38-1.43c-1.65-.95-2.96-2.28-3.92-4-.97-1.71-1.45-3.69-1.45-5.92,0-2.37.53-4.47,1.6-6.33,1.07-1.85,2.5-3.28,4.3-4.3s3.75-1.53,5.85-1.53c2.33,0,4.27.69,5.8,2.07,1.53,1.38,2.3,3.19,2.3,5.43,0,.97-.18,2.05-.55,3.25l-5.05.1c-5.23.07-9.22.15-11.95.25.13,2.33.77,4.31,1.9,5.93,1.13,1.62,2.5,2.82,4.1,3.62,1.6.8,3.17,1.2,4.7,1.2,1.23,0,2.52-.22,3.85-.65,1.33-.43,2.45-1.25,3.35-2.45.03-.07.08-.07.15-.03ZM160.22,104.95v.55c1.8-.03,4.23-.12,7.3-.25,3.47-.13,5.9-.22,7.3-.25.23-.67.35-1.4.35-2.2,0-1.23-.29-2.42-.88-3.55s-1.39-2.04-2.42-2.73c-1.03-.68-2.15-1.02-3.35-1.02-5.53,0-8.3,3.15-8.3,9.45Z"/><path class="cls-1" d="M194.22,103.95c.07-.3.15-.45.25-.45.03,0,.07.05.1.15.03.1.03.23,0,.4-.13,1.07-.2,2.17-.2,3.3,0,3.6.83,6.17,2.5,7.7,1.67,1.53,4.28,2.3,7.85,2.3,2.5,0,4.69-.51,6.58-1.53,1.88-1.02,2.83-3.03,2.83-6.03,0-2.33-.87-4.24-2.6-5.72-1.73-1.48-4.2-2.94-7.4-4.38-3.3-1.5-5.78-2.95-7.45-4.35s-2.5-3.1-2.5-5.1c.03-1.3.51-2.58,1.42-3.85.92-1.27,2.28-2.32,4.08-3.15,1.8-.83,3.95-1.25,6.45-1.25,1.6,0,3.14.24,4.62.72,1.48.48,2.7,1.17,3.65,2.05.95.88,1.42,1.89,1.42,3.03,0,.2-.03.47-.1.8l-1.4,7.15c-.03.23-.1.35-.2.35-.13,0-.18-.15-.15-.45.27-1.7.4-3.13.4-4.3,0-2.87-.72-4.99-2.17-6.38s-3.74-2.08-6.88-2.08-5.38.51-6.62,1.53c-1.25,1.02-1.88,2.56-1.88,4.62,0,1.27.38,2.37,1.12,3.3s1.72,1.75,2.92,2.45c1.2.7,2.85,1.53,4.95,2.5,2.3,1.03,4.2,1.99,5.7,2.88,1.5.88,2.76,2.01,3.77,3.38,1.02,1.37,1.53,2.98,1.53,4.85,0,1.73-.53,3.35-1.6,4.85s-2.57,2.71-4.52,3.62c-1.95.92-4.19,1.38-6.73,1.38-2.23,0-4.2-.33-5.9-.98-1.7-.65-3-1.49-3.9-2.52-.9-1.03-1.35-2.12-1.35-3.25,0-.33.02-.58.05-.75l1.35-6.8Z"/><path class="cls-1" d="M239.25,96.12c1.42.95,2.54,2.28,3.38,4,.83,1.72,1.25,3.67,1.25,5.88s-.47,4.14-1.42,6.02c-.95,1.88-2.26,3.39-3.92,4.53-1.67,1.13-3.53,1.7-5.6,1.7-1.6,0-2.88-.24-3.83-.73-.95-.48-1.84-1.11-2.67-1.88-.43-.43-.73-.65-.9-.65-.27,0-.4.33-.4,1v8.3c0,1.97.9,3,2.7,3.1.1,0,.16.05.17.15.02.1-.04.15-.17.15-1.33-.07-2.53-.1-3.6-.1-1.3,0-2.75.03-4.35.1-.17,0-.25-.06-.25-.18s.08-.17.25-.17c.9.03,1.56-.19,1.97-.68s.62-1.29.62-2.42v-24.75c0-.8-.14-1.38-.42-1.75s-.76-.55-1.42-.55c-.3,0-.68.05-1.15.15-.1.03-.17,0-.2-.08-.03-.08-.02-.14.05-.17,2.77-.67,4.67-1.37,5.7-2.1.17-.1.3-.12.4-.08.1.05.15.11.15.18-.23,1.33-.37,2.6-.4,3.8,0,.47.03.98.1,1.55.07.57.15.9.25,1,2.13-4.5,5.13-6.75,9-6.75,1.73,0,3.31.47,4.72,1.43ZM239.5,114.97c1.32-1.55,1.97-3.88,1.97-6.97,0-2.1-.35-4.03-1.05-5.78s-1.71-3.14-3.02-4.18c-1.32-1.03-2.88-1.55-4.68-1.55-1.47,0-2.77.39-3.92,1.17-1.15.78-2.05,1.88-2.7,3.3-.65,1.42-.97,3.01-.97,4.78v2.3c0,2.63.68,4.83,2.05,6.6,1.37,1.77,3.37,2.65,6,2.65,2.9,0,5.01-.78,6.33-2.32Z"/><path class="cls-1" d="M252.52,116.82c-1.67-.95-2.99-2.28-3.97-4-.98-1.72-1.48-3.69-1.48-5.93s.54-4.17,1.62-6.02c1.08-1.85,2.58-3.33,4.48-4.45,1.9-1.12,4-1.67,6.3-1.67,2,0,3.85.47,5.55,1.42,1.7.95,3.04,2.28,4.03,4,.98,1.72,1.47,3.66,1.47,5.83s-.55,4.19-1.65,6.07c-1.1,1.88-2.61,3.38-4.52,4.5-1.92,1.12-4.03,1.68-6.33,1.68-2,0-3.83-.48-5.5-1.43ZM265.82,114.9c1.57-1.53,2.35-3.82,2.35-6.85,0-2-.44-3.94-1.33-5.82-.88-1.88-2.11-3.43-3.67-4.62-1.57-1.2-3.28-1.8-5.15-1.8-2.7,0-4.81.75-6.33,2.25s-2.27,3.77-2.27,6.8c0,2,.43,3.95,1.3,5.85.87,1.9,2.06,3.46,3.58,4.68,1.52,1.22,3.17,1.82,4.97,1.82,2.8,0,4.98-.77,6.55-2.3Z"/><path class="cls-1" d="M289.02,95.25c.87.37,1.53.85,2,1.45.47.6.63,1.22.5,1.85l-1.5,6.05c-.03.23-.1.32-.2.28-.1-.05-.12-.16-.05-.33.2-1,.3-1.88.3-2.65,0-1.77-.44-3.04-1.33-3.82-.88-.78-2.12-1.18-3.72-1.18-2.07,0-3.48.88-4.25,2.65-.77,1.77-1.15,3.9-1.15,6.4v8.6c0,.97.27,1.67.8,2.1.53.43,1.27.68,2.2.75.13,0,.2.05.2.15s-.07.15-.2.15c-.63-.03-2.05-.05-4.25-.05s-3.65.02-4.35.05c-.13,0-.2-.06-.2-.18s.07-.17.2-.17c1.03,0,1.78-.19,2.25-.58.47-.38.7-1.14.7-2.27v-15c0-.8-.14-1.38-.43-1.75s-.76-.55-1.42-.55c-.3,0-.68.05-1.15.15-.1.03-.17,0-.2-.08-.03-.08-.02-.14.05-.17,2.77-.67,4.68-1.37,5.75-2.1.13-.1.25-.12.35-.08.1.05.15.11.15.18-.13.9-.24,1.74-.33,2.53s-.12,1.69-.12,2.72v1.55c1.2-4.8,3.42-7.2,6.65-7.2.97,0,1.88.18,2.75.55Z"/><path class="cls-1" d="M296.7,116.95c-.68-.83-1.03-1.97-1.03-3.4v-16.55c0-.47-.06-.8-.17-1-.12-.2-.41-.3-.88-.3h-1.7c-.13,0-.2-.04-.2-.12s.05-.14.15-.18c1.6-.3,2.85-.92,3.75-1.88.9-.95,1.45-2.27,1.65-3.97,0-.17.05-.25.15-.25s.15.08.15.25c0,1.43-.07,3.07-.2,4.9v.2c0,.3.08.5.25.6.17.1.48.15.95.15h5.05c.07,0,.08.05.05.15s-.1.15-.2.15h-4.65c-.6,0-1,.09-1.2.28s-.3.54-.3,1.07v16c0,1.07.25,1.93.75,2.58.5.65,1.13.97,1.9.97.63,0,1.28-.22,1.95-.65s1.3-1.08,1.9-1.95c.1-.17.18-.23.25-.2.07.03.05.13-.05.3-.87,1.37-1.79,2.39-2.78,3.07-.98.68-1.94,1.03-2.88,1.03-1.1,0-1.99-.42-2.67-1.25Z"/><path class="cls-1" d="M166.48,152.75c.33.23.5.53.5.9,0,.47-.26.88-.77,1.25-.52.37-1.21.55-2.08.55-.53,0-.97-.12-1.3-.35-.33-.23-.5-.53-.5-.9,0-.5.27-.93.8-1.28s1.18-.53,1.95-.53c.6,0,1.07.12,1.4.35ZM165.83,177.2c.37,4.6.55,7.5.55,8.7,0,.77-.13,1.32-.4,1.65s-.7.5-1.3.5c-.57,0-.98-.17-1.25-.5s-.4-.88-.4-1.65c0-1.17.18-4.07.55-8.7.57-7.03.88-12.57.95-16.6,0-.1.06-.15.17-.15s.17.05.17.15c.07,3.93.38,9.47.95,16.6Z"/><path class="cls-1" d="M183.13,162.65c-.1,0-.15-.05-.15-.15s.05-.15.15-.15l3.85.1c3.47.1,6.08-.68,7.85-2.32,1.77-1.65,2.65-3.88,2.65-6.68,0-1.97-.43-3.72-1.28-5.28-.85-1.55-2.05-2.78-3.6-3.7-1.55-.92-3.36-1.41-5.43-1.47l-4.95-.2c-.63-.03-1.06.12-1.28.45-.22.33-.33.9-.33,1.7v28.9c0,1.33.37,2.25,1.1,2.75.73.5,1.93.78,3.6.85.23,0,.35.05.35.15s-.12.15-.35.15c-1.4-.1-2.47-.15-3.2-.15h-5.4l-2.5.1c-.17.03-.26,0-.28-.1-.02-.1.08-.15.28-.15,1.27-.07,2.18-.35,2.75-.85.57-.5.85-1.42.85-2.75v-27.5c0-1.33-.28-2.24-.85-2.72-.57-.48-1.48-.76-2.75-.83-.2-.03-.29-.09-.28-.17.02-.08.11-.12.28-.12l2.45.1,7.15-.05c1-.03,2.38-.05,4.15-.05,3.87,0,6.92.94,9.15,2.82s3.35,4.44,3.35,7.68c0,2.07-.53,3.87-1.6,5.4-1.07,1.54-2.63,2.68-4.7,3.45s-4.53,1.08-7.4.95l-3.65-.15Z"/><path class="cls-1" d="M216.68,155.25c.87.37,1.53.85,2,1.45.47.6.63,1.22.5,1.85l-1.5,6.05c-.03.23-.1.32-.2.28-.1-.05-.12-.16-.05-.33.2-1,.3-1.88.3-2.65,0-1.77-.44-3.04-1.33-3.82-.88-.78-2.12-1.18-3.72-1.18-2.07,0-3.48.88-4.25,2.65-.77,1.77-1.15,3.9-1.15,6.4v8.6c0,.97.27,1.67.8,2.1.53.43,1.27.68,2.2.75.13,0,.2.05.2.15s-.07.15-.2.15c-.63-.03-2.05-.05-4.25-.05s-3.65.02-4.35.05c-.13,0-.2-.06-.2-.18s.07-.17.2-.17c1.03,0,1.78-.19,2.25-.58.47-.38.7-1.14.7-2.27v-15c0-.8-.14-1.38-.43-1.75s-.76-.55-1.42-.55c-.3,0-.68.05-1.15.15-.1.03-.17,0-.2-.08-.03-.08-.02-.14.05-.17,2.77-.67,4.68-1.37,5.75-2.1.13-.1.25-.12.35-.08.1.05.15.11.15.18-.13.9-.24,1.74-.33,2.53s-.12,1.69-.12,2.72v1.55c1.2-4.8,3.42-7.2,6.65-7.2.97,0,1.88.18,2.75.55Z"/><path class="cls-1" d="M241.18,173.42c.07.05.08.12.05.22-1.3,1.57-2.73,2.72-4.3,3.45-1.57.73-3.35,1.1-5.35,1.1s-3.72-.47-5.38-1.43c-1.65-.95-2.96-2.28-3.92-4-.97-1.71-1.45-3.69-1.45-5.92,0-2.37.53-4.47,1.6-6.33,1.07-1.85,2.5-3.28,4.3-4.3s3.75-1.53,5.85-1.53c2.33,0,4.27.69,5.8,2.07,1.53,1.38,2.3,3.19,2.3,5.43,0,.97-.18,2.05-.55,3.25l-5.05.1c-5.23.07-9.22.15-11.95.25.13,2.33.77,4.31,1.9,5.93,1.13,1.62,2.5,2.82,4.1,3.62,1.6.8,3.17,1.2,4.7,1.2,1.23,0,2.52-.22,3.85-.65,1.33-.43,2.45-1.25,3.35-2.45.03-.07.08-.07.15-.03ZM223.13,164.95v.55c1.8-.03,4.23-.12,7.3-.25,3.47-.13,5.9-.22,7.3-.25.23-.67.35-1.4.35-2.2,0-1.23-.29-2.42-.88-3.55s-1.39-2.04-2.42-2.73c-1.03-.68-2.15-1.02-3.35-1.02-5.53,0-8.3,3.15-8.3,9.45Z"/><path class="cls-1" d="M263.95,156.12c1.42.95,2.54,2.28,3.38,4,.83,1.72,1.25,3.67,1.25,5.88s-.47,4.14-1.42,6.02c-.95,1.88-2.26,3.39-3.92,4.53-1.67,1.13-3.53,1.7-5.6,1.7-1.6,0-2.88-.24-3.83-.73-.95-.48-1.84-1.11-2.67-1.88-.43-.43-.73-.65-.9-.65-.27,0-.4.33-.4,1v8.3c0,1.97.9,3,2.7,3.1.1,0,.16.05.17.15.02.1-.04.15-.17.15-1.33-.07-2.53-.1-3.6-.1-1.3,0-2.75.03-4.35.1-.17,0-.25-.06-.25-.18s.08-.17.25-.17c.9.03,1.56-.19,1.97-.68s.62-1.29.62-2.42v-24.75c0-.8-.14-1.38-.42-1.75s-.76-.55-1.42-.55c-.3,0-.68.05-1.15.15-.1.03-.17,0-.2-.08-.03-.08-.02-.14.05-.17,2.77-.67,4.67-1.37,5.7-2.1.17-.1.3-.12.4-.08.1.05.15.11.15.18-.23,1.33-.37,2.6-.4,3.8,0,.47.03.98.1,1.55.07.57.15.9.25,1,2.13-4.5,5.13-6.75,9-6.75,1.73,0,3.31.47,4.72,1.43ZM264.2,174.97c1.32-1.55,1.97-3.88,1.97-6.97,0-2.1-.35-4.03-1.05-5.78s-1.71-3.14-3.02-4.18c-1.32-1.03-2.88-1.55-4.68-1.55-1.47,0-2.77.39-3.92,1.17-1.15.78-2.05,1.88-2.7,3.3-.65,1.42-.97,3.01-.97,4.78v2.3c0,2.63.68,4.83,2.05,6.6,1.37,1.77,3.37,2.65,6,2.65,2.9,0,5.01-.78,6.33-2.32Z"/><path class="cls-1" d="M296.25,170.72c.12-.02.17.07.17.28,0,2.37-.39,4.16-1.17,5.38s-1.69,1.82-2.72,1.82c-.87,0-1.54-.37-2.03-1.1s-.89-1.87-1.22-3.4l-.5-2.5c-.7,2.07-1.88,3.75-3.53,5.05-1.65,1.3-3.44,1.95-5.38,1.95-2.53,0-4.47-.71-5.8-2.12-1.33-1.42-2-3.11-2-5.07,0-1.13.43-2.13,1.3-3,.87-.87,2-1.54,3.4-2.03,1.4-.48,2.9-.72,4.5-.72,2.1,0,4.22.17,6.35.5l-1-4.75c-.4-1.73-1.07-3.02-2-3.85-.93-.83-2.37-1.25-4.3-1.25-1.37,0-2.67.29-3.9.88-1.23.58-2.26,1.47-3.07,2.65-.82,1.18-1.24,2.64-1.28,4.38,0,.2-.06.3-.17.3s-.17-.1-.17-.3c.07-1.8.59-3.39,1.57-4.78.98-1.38,2.23-2.45,3.73-3.2s3-1.12,4.5-1.12c2.4,0,4.19.51,5.38,1.53,1.18,1.02,2.01,2.61,2.47,4.78l2.55,12.2c.23,1.03.5,1.82.8,2.38.3.55.68.82,1.15.82.27,0,.57-.15.9-.45.33-.3.63-.85.9-1.65.27-.8.4-1.9.4-3.3,0-.17.06-.26.17-.28ZM288.18,168.5l-.35-1.8c-2.2-.4-4.25-.6-6.15-.6-2.53,0-4.34.32-5.42.97s-1.62,1.86-1.62,3.62.53,3.1,1.6,4.2c1.07,1.1,2.67,1.65,4.8,1.65,4.53,0,6.92-2.38,7.15-7.15.03-.27.03-.57,0-.9Z"/><path class="cls-1" d="M311.78,155.25c.87.37,1.53.85,2,1.45.47.6.63,1.22.5,1.85l-1.5,6.05c-.03.23-.1.32-.2.28-.1-.05-.12-.16-.05-.33.2-1,.3-1.88.3-2.65,0-1.77-.44-3.04-1.33-3.82-.88-.78-2.12-1.18-3.72-1.18-2.07,0-3.48.88-4.25,2.65-.77,1.77-1.15,3.9-1.15,6.4v8.6c0,.97.27,1.67.8,2.1.53.43,1.27.68,2.2.75.13,0,.2.05.2.15s-.07.15-.2.15c-.63-.03-2.05-.05-4.25-.05s-3.65.02-4.35.05c-.13,0-.2-.06-.2-.18s.07-.17.2-.17c1.03,0,1.78-.19,2.25-.58.47-.38.7-1.14.7-2.27v-15c0-.8-.14-1.38-.43-1.75s-.76-.55-1.42-.55c-.3,0-.68.05-1.15.15-.1.03-.17,0-.2-.08-.03-.08-.02-.14.05-.17,2.77-.67,4.68-1.37,5.75-2.1.13-.1.25-.12.35-.08.1.05.15.11.15.18-.13.9-.24,1.74-.33,2.53s-.12,1.69-.12,2.72v1.55c1.2-4.8,3.42-7.2,6.65-7.2.97,0,1.88.18,2.75.55Z"/><path class="cls-1" d="M336.28,173.42c.07.05.08.12.05.22-1.3,1.57-2.73,2.72-4.3,3.45-1.57.73-3.35,1.1-5.35,1.1s-3.72-.47-5.38-1.43c-1.65-.95-2.96-2.28-3.92-4-.97-1.71-1.45-3.69-1.45-5.92,0-2.37.53-4.47,1.6-6.33,1.07-1.85,2.5-3.28,4.3-4.3s3.75-1.53,5.85-1.53c2.33,0,4.27.69,5.8,2.07,1.53,1.38,2.3,3.19,2.3,5.43,0,.97-.18,2.05-.55,3.25l-5.05.1c-5.23.07-9.22.15-11.95.25.13,2.33.77,4.31,1.9,5.93,1.13,1.62,2.5,2.82,4.1,3.62,1.6.8,3.17,1.2,4.7,1.2,1.23,0,2.52-.22,3.85-.65,1.33-.43,2.45-1.25,3.35-2.45.03-.07.08-.07.15-.03ZM318.23,164.95v.55c1.8-.03,4.23-.12,7.3-.25,3.47-.13,5.9-.22,7.3-.25.23-.67.35-1.4.35-2.2,0-1.23-.29-2.42-.88-3.55s-1.39-2.04-2.42-2.73c-1.03-.68-2.15-1.02-3.35-1.02-5.53,0-8.3,3.15-8.3,9.45Z"/><path class="cls-1" d="M380.65,170.72c.12-.02.18.07.18.28,0,2.37-.39,4.16-1.18,5.38s-1.69,1.82-2.72,1.82c-.87,0-1.56-.37-2.08-1.1s-.96-1.85-1.33-3.35l-3.2-12.9c-.47-1.8-1.1-3.04-1.9-3.72s-1.88-1.03-3.25-1.03c-1.87,0-3.28.62-4.25,1.85-.97,1.23-1.55,2.88-1.75,4.95l1.85,11.55c.17.97.44,1.67.83,2.1.38.43.79.62,1.23.55.13,0,.21.03.22.1.02.07-.04.12-.17.15-.3.3-.63.52-1,.65-.37.13-.73.17-1.1.1-.67-.13-1.23-.45-1.7-.95-.47-.5-.77-1.17-.9-2l-2.1-13.2c-.37-2.13-1-3.64-1.9-4.53-.9-.88-2.05-1.32-3.45-1.32-1.67,0-3.04.75-4.12,2.25s-1.71,3.45-1.88,5.85v10.35c0,.97.27,1.67.8,2.1.53.43,1.27.68,2.2.75.13,0,.2.05.2.15s-.07.15-.2.15c-.63-.03-2.05-.05-4.25-.05s-3.65.02-4.35.05c-.13,0-.2-.06-.2-.18s.07-.17.2-.17c1.03,0,1.78-.19,2.25-.58.47-.38.7-1.14.7-2.27v-15c0-.8-.14-1.38-.43-1.75s-.76-.55-1.42-.55c-.3,0-.68.05-1.15.15-.1.03-.17,0-.2-.08-.03-.08-.02-.14.05-.17,2.77-.67,4.68-1.37,5.75-2.1.13-.1.25-.12.35-.08.1.05.15.11.15.18-.13.9-.24,1.74-.33,2.53s-.12,1.69-.12,2.72v1.15c.47-1.9,1.41-3.51,2.83-4.83,1.42-1.32,2.96-1.97,4.62-1.97,1.53,0,2.89.53,4.08,1.6,1.18,1.07,1.99,2.78,2.42,5.15.37-1.9,1.22-3.5,2.58-4.8,1.35-1.3,2.97-1.95,4.88-1.95,1.77,0,3.18.43,4.25,1.28,1.07.85,1.87,2.36,2.4,4.53l3.15,12.75c.5,2.1,1.2,3.15,2.1,3.15.27,0,.57-.15.9-.45.33-.3.63-.85.9-1.65.27-.8.4-1.9.4-3.3,0-.17.06-.26.17-.28Z"/><path class="cls-1" d="M387.42,176.82c-1.67-.95-2.99-2.28-3.97-4-.98-1.72-1.48-3.69-1.48-5.93s.54-4.17,1.62-6.02c1.08-1.85,2.58-3.33,4.48-4.45,1.9-1.12,4-1.67,6.3-1.67,2,0,3.85.47,5.55,1.42,1.7.95,3.04,2.28,4.03,4,.98,1.72,1.47,3.66,1.47,5.83s-.55,4.19-1.65,6.07c-1.1,1.88-2.61,3.38-4.52,4.5-1.92,1.12-4.03,1.68-6.33,1.68-2,0-3.83-.48-5.5-1.43ZM400.72,174.9c1.57-1.53,2.35-3.82,2.35-6.85,0-2-.44-3.94-1.33-5.82-.88-1.88-2.11-3.43-3.67-4.62-1.57-1.2-3.28-1.8-5.15-1.8-2.7,0-4.81.75-6.33,2.25s-2.27,3.77-2.27,6.8c0,2,.43,3.95,1.3,5.85.87,1.9,2.06,3.46,3.58,4.68,1.52,1.22,3.17,1.82,4.97,1.82,2.8,0,4.98-.77,6.55-2.3Z"/><path class="cls-1" d="M409.47,169.2c.03-.13.09-.19.17-.18.08.02.12.09.12.23-.07.8-.1,1.33-.1,1.6,0,2.33.6,4.01,1.8,5.03,1.2,1.02,3,1.52,5.4,1.52,2,0,3.56-.31,4.67-.92,1.12-.62,1.67-1.71,1.67-3.28-.03-1.4-.58-2.55-1.65-3.45-1.07-.9-2.9-1.97-5.5-3.2-2.3-1.13-3.99-2.12-5.07-2.95-1.08-.83-1.62-1.85-1.62-3.05,0-.93.36-1.86,1.07-2.78.72-.92,1.72-1.66,3-2.22,1.28-.57,2.71-.85,4.28-.85,1.97,0,3.7.27,5.2.8s2.25,1.33,2.25,2.4c0,.2-.02.35-.05.45l-1.1,4.85c-.03.13-.09.19-.17.18-.08-.02-.11-.09-.08-.23.07-.8.1-1.37.1-1.7,0-2.03-.5-3.51-1.5-4.43-1-.92-2.73-1.38-5.2-1.38-2.1,0-3.54.3-4.33.9s-1.17,1.42-1.17,2.45.5,1.97,1.5,2.7c1,.73,2.67,1.68,5,2.85,2.33,1.07,4.18,2.16,5.55,3.28,1.37,1.12,2.05,2.43,2.05,3.93,0,1.1-.39,2.15-1.17,3.15s-1.89,1.81-3.33,2.43c-1.43.62-3.07.93-4.9.93-2.47,0-4.44-.38-5.93-1.12s-2.12-1.71-1.92-2.88l.95-5.05Z"/><path class="cls-1" d="M458.62,173.42c.07.05.08.12.05.22-1.3,1.57-2.73,2.72-4.3,3.45-1.57.73-3.35,1.1-5.35,1.1s-3.72-.47-5.38-1.43c-1.65-.95-2.96-2.28-3.92-4-.97-1.71-1.45-3.69-1.45-5.92,0-2.37.53-4.47,1.6-6.33,1.07-1.85,2.5-3.28,4.3-4.3s3.75-1.53,5.85-1.53c2.33,0,4.27.69,5.8,2.07,1.53,1.38,2.3,3.19,2.3,5.43,0,.97-.18,2.05-.55,3.25l-5.05.1c-5.23.07-9.22.15-11.95.25.13,2.33.77,4.31,1.9,5.93,1.13,1.62,2.5,2.82,4.1,3.62,1.6.8,3.17,1.2,4.7,1.2,1.23,0,2.52-.22,3.85-.65,1.33-.43,2.45-1.25,3.35-2.45.03-.07.08-.07.15-.03ZM440.57,164.95v.55c1.8-.03,4.23-.12,7.3-.25,3.47-.13,5.9-.22,7.3-.25.23-.67.35-1.4.35-2.2,0-1.23-.29-2.42-.88-3.55s-1.39-2.04-2.42-2.73c-1.03-.68-2.15-1.02-3.35-1.02-5.53,0-8.3,3.15-8.3,9.45Z"/><path class="cls-1" d="M464.2,144.95c-.28-.37-.67-.55-1.17-.55-.13,0-.37.04-.7.1-.2.03-.3-.05-.3-.25,2.5-.53,4.33-1.35,5.5-2.45.23-.07.32,0,.25.2-.2.73-.33,1.69-.38,2.88s-.08,3.14-.08,5.88v23.5c0,.93.28,1.67.83,2.22.55.55,1.28.86,2.17.92.1,0,.16.05.17.15s-.04.15-.17.15c-.6-.03-2.03-.05-4.3-.05s-3.67.02-4.3.05c-.17,0-.25-.06-.25-.18s.08-.17.25-.17c1.97.07,2.95-.97,2.95-3.1l-.05-27.4c0-.9-.14-1.53-.42-1.9Z"/><path class="cls-1" d="M501.57,156.12c1.43.95,2.55,2.27,3.35,3.97.8,1.7,1.2,3.67,1.2,5.9s-.46,4.18-1.38,6.05c-.92,1.87-2.22,3.37-3.92,4.5s-3.67,1.7-5.9,1.7c-1.5,0-2.74-.25-3.72-.75-.98-.5-1.96-1.17-2.92-2-.07-.07-.23-.2-.5-.4-.27-.2-.49-.35-.68-.45-.18-.1-.36-.15-.52-.15-.23,0-.45.2-.65.6s-.4.87-.6,1.4-.35.93-.45,1.2c-.03.2-.13.3-.3.3-.07,0-.12-.04-.17-.12-.05-.08-.06-.18-.03-.28.23-2.03.35-3.93.35-5.7l-.05-25.05c0-.9-.14-1.53-.42-1.9s-.67-.55-1.17-.55c-.13,0-.37.04-.7.1-.2.03-.3-.05-.3-.25,1.23-.3,2.29-.63,3.17-1,.88-.37,1.66-.87,2.33-1.5.23-.03.32.05.25.25-.2.73-.33,1.69-.38,2.88s-.08,3.14-.08,5.88v7.95c0,.53.03,1.12.1,1.75s.15,1.02.25,1.15c.93-2,2.15-3.65,3.65-4.95,1.5-1.3,3.25-1.95,5.25-1.95,1.87,0,3.52.47,4.95,1.43ZM501.8,175.02c1.28-1.52,1.92-3.86,1.92-7.02,0-3.37-.77-6.13-2.32-8.3-1.55-2.17-3.74-3.25-6.58-3.25-1.33,0-2.58.41-3.73,1.22-1.15.82-2.06,1.95-2.72,3.4-.67,1.45-1,3.09-1,4.93v2.3c0,2.63.53,4.79,1.6,6.47,1.07,1.68,3.13,2.53,6.2,2.53s5.34-.76,6.62-2.28Z"/><path class="cls-1" d="M524.62,155.25c.87.37,1.53.85,2,1.45.47.6.63,1.22.5,1.85l-1.5,6.05c-.03.23-.1.32-.2.28-.1-.05-.12-.16-.05-.33.2-1,.3-1.88.3-2.65,0-1.77-.44-3.04-1.33-3.82-.88-.78-2.12-1.18-3.72-1.18-2.07,0-3.48.88-4.25,2.65-.77,1.77-1.15,3.9-1.15,6.4v8.6c0,.97.27,1.67.8,2.1.53.43,1.27.68,2.2.75.13,0,.2.05.2.15s-.07.15-.2.15c-.63-.03-2.05-.05-4.25-.05s-3.65.02-4.35.05c-.13,0-.2-.06-.2-.18s.07-.17.2-.17c1.03,0,1.78-.19,2.25-.58.47-.38.7-1.14.7-2.27v-15c0-.8-.14-1.38-.43-1.75s-.76-.55-1.42-.55c-.3,0-.68.05-1.15.15-.1.03-.17,0-.2-.08-.03-.08-.02-.14.05-.17,2.77-.67,4.68-1.37,5.75-2.1.13-.1.25-.12.35-.08.1.05.15.11.15.18-.13.9-.24,1.74-.33,2.53s-.12,1.69-.12,2.72v1.55c1.2-4.8,3.42-7.2,6.65-7.2.97,0,1.88.18,2.75.55Z"/><path class="cls-1" d="M535.6,176.47c.55.55,1.28.86,2.17.92.13,0,.2.05.2.15s-.07.15-.2.15c-.6-.03-2.03-.05-4.3-.05s-3.67.02-4.3.05c-.13,0-.2-.06-.2-.18s.07-.17.2-.17c1.97.07,2.95-.97,2.95-3.1v-14.75c0-.8-.14-1.38-.43-1.75s-.76-.55-1.42-.55c-.3,0-.68.05-1.15.15-.1.03-.17,0-.2-.08-.03-.08-.02-.14.05-.17,2.77-.67,4.68-1.37,5.75-2.1.13-.1.25-.12.35-.08.1.05.15.11.15.18-.13.9-.24,1.74-.33,2.53s-.12,1.69-.12,2.72v13.9c0,.93.28,1.67.83,2.22ZM531.5,147.12c-.38-.28-.58-.62-.58-1.03,0-.5.24-.93.72-1.28s1.11-.53,1.88-.53c.6,0,1.09.14,1.48.43.38.28.57.64.57,1.07,0,.47-.24.88-.72,1.22-.48.35-1.11.53-1.88.53-.6,0-1.09-.14-1.47-.42Z"/><path class="cls-1" d="M544.1,144.95c-.28-.37-.67-.55-1.17-.55-.13,0-.37.04-.7.1-.2.03-.3-.05-.3-.25,2.5-.53,4.33-1.35,5.5-2.45.23-.07.32,0,.25.2-.2.73-.33,1.69-.38,2.88s-.08,3.14-.08,5.88v23.5c0,.93.28,1.67.83,2.22.55.55,1.28.86,2.17.92.1,0,.16.05.17.15s-.04.15-.17.15c-.6-.03-2.03-.05-4.3-.05s-3.67.02-4.3.05c-.17,0-.25-.06-.25-.18s.08-.17.25-.17c1.97.07,2.95-.97,2.95-3.1l-.05-27.4c0-.9-.14-1.53-.42-1.9Z"/><path class="cls-1" d="M556.5,144.95c-.28-.37-.67-.55-1.17-.55-.13,0-.37.04-.7.1-.2.03-.3-.05-.3-.25,2.5-.53,4.33-1.35,5.5-2.45.23-.07.32,0,.25.2-.2.73-.33,1.69-.38,2.88s-.08,3.14-.08,5.88v23.5c0,.93.28,1.67.83,2.22.55.55,1.28.86,2.17.92.1,0,.16.05.17.15s-.04.15-.17.15c-.6-.03-2.03-.05-4.3-.05s-3.67.02-4.3.05c-.17,0-.25-.06-.25-.18s.08-.17.25-.17c1.97.07,2.95-.97,2.95-3.1l-.05-27.4c0-.9-.14-1.53-.42-1.9Z"/><path class="cls-1" d="M571.47,176.82c-1.67-.95-2.99-2.28-3.97-4-.98-1.72-1.48-3.69-1.48-5.93s.54-4.17,1.62-6.02c1.08-1.85,2.58-3.33,4.48-4.45,1.9-1.12,4-1.67,6.3-1.67,2,0,3.85.47,5.55,1.42,1.7.95,3.04,2.28,4.03,4,.98,1.72,1.47,3.66,1.47,5.83s-.55,4.19-1.65,6.07c-1.1,1.88-2.61,3.38-4.52,4.5-1.92,1.12-4.03,1.68-6.33,1.68-2,0-3.83-.48-5.5-1.43ZM584.77,174.9c1.57-1.53,2.35-3.82,2.35-6.85,0-2-.44-3.94-1.33-5.82-.88-1.88-2.11-3.43-3.67-4.62-1.57-1.2-3.28-1.8-5.15-1.8-2.7,0-4.81.75-6.33,2.25s-2.27,3.77-2.27,6.8c0,2,.43,3.95,1.3,5.85.87,1.9,2.06,3.46,3.58,4.68,1.52,1.22,3.17,1.82,4.97,1.82,2.8,0,4.98-.77,6.55-2.3Z"/><path class="cls-1" d="M595.77,177.57c-.33-.25-.5-.56-.5-.93,0-.46.27-.88.8-1.22s1.22-.53,2.05-.53c.53,0,.97.12,1.3.35.33.23.5.53.5.9,0,.5-.28.93-.83,1.28s-1.23.53-2.03.53c-.53,0-.97-.12-1.3-.38ZM596.42,153.2c-.07-.8-.17-2.22-.3-4.28-.13-2.05-.2-3.54-.2-4.47,0-.77.13-1.32.4-1.65.27-.33.7-.5,1.3-.5.53,0,.93.17,1.2.5.27.33.4.88.4,1.65,0,1.23-.18,4.23-.55,9-.57,7-.88,12.43-.95,16.3,0,.13-.05.2-.15.2s-.17-.07-.2-.2c-.07-4-.38-9.52-.95-16.55Z"/></g></svg>