<?xml version="1.0" encoding="UTF-8"?><svg id="Capa_2" xmlns="http://www.w3.org/2000/svg" viewBox="0 0 563.52 162.32"><defs><style>.cls-1{fill:#1b2f52;}</style></defs><g id="Texto"><path class="cls-1" d="M56.36.28c.03.19-.12.28-.44.28-1.92.11-3.36.68-4.32,1.72-.96,1.04-1.44,2.87-1.44,5.48v48.56c0,.37-.13.56-.4.56-.32,0-.59-.19-.8-.56L9.12,5.28c-.21-.21-.37-.32-.48-.32-.21,0-.32.16-.32.48v43.28c0,2.61.48,4.44,1.44,5.48.96,1.04,2.4,1.61,4.32,1.72.32,0,.46.09.44.28-.03.19-.17.28-.44.28l-4.32-.24h-3.52l-4.4.24c-.27,0-.41-.09-.44-.28-.03-.19.12-.28.44-.28,1.92-.11,3.36-.68,4.32-1.72.96-1.04,1.44-2.87,1.44-5.48l.08-45.2c-.96-1.01-1.87-1.75-2.72-2.2-.85-.45-1.87-.71-3.04-.76-.32-.05-.47-.16-.44-.32s.17-.24.44-.24l4.4.24h7.12c1.01,0,1.71.32,2.08.96l32.96,43.12c.21.37.45.56.72.56.21,0,.32-.21.32-.64l-.08-36.48c0-2.61-.48-4.44-1.44-5.48-.96-1.04-2.4-1.61-4.32-1.72-.32,0-.47-.09-.44-.28.03-.19.17-.28.44-.28,1.92.16,3.39.24,4.4.24h3.52c.96,0,2.4-.08,4.32-.24.27,0,.41.09.44.28Z"/><path class="cls-1" d="M67.72,55.12c-2.85-1.55-5.09-3.73-6.72-6.56-1.63-2.83-2.44-6.05-2.44-9.68s.91-6.96,2.72-10c1.81-3.04,4.32-5.45,7.52-7.24s6.75-2.68,10.64-2.68c3.57,0,6.8.77,9.68,2.32,2.88,1.55,5.16,3.72,6.84,6.52,1.68,2.8,2.52,6.01,2.52,9.64s-.93,6.97-2.8,10.04c-1.87,3.07-4.41,5.49-7.64,7.28-3.23,1.79-6.81,2.68-10.76,2.68-3.52,0-6.71-.77-9.56-2.32ZM89.2,52.56c2.03-2.03,3.04-5.01,3.04-8.96,0-3.25-.79-6.67-2.36-10.24-1.57-3.57-3.63-6.56-6.16-8.96-2.53-2.4-5.13-3.6-7.8-3.6-3.52,0-6.27,1-8.24,3-1.97,2-2.96,4.97-2.96,8.92,0,3.2.79,6.6,2.36,10.2,1.57,3.6,3.6,6.61,6.08,9.04,2.48,2.43,5.03,3.64,7.64,3.64,3.57,0,6.37-1.01,8.4-3.04Z"/><path class="cls-1" d="M105.04,41.92c.05-.21.14-.31.28-.28.13.03.2.15.2.36-.11,4.64.88,8.16,2.96,10.56,2.08,2.4,5.09,3.6,9.04,3.6,2.67,0,4.73-.43,6.2-1.28,1.46-.85,2.2-2.32,2.2-4.4-.05-2.19-.97-4.07-2.76-5.64-1.79-1.57-4.6-3.37-8.44-5.4-3.47-1.92-6.08-3.65-7.84-5.2-1.76-1.55-2.64-3.36-2.64-5.44,0-1.71.64-3.32,1.92-4.84,1.28-1.52,3.04-2.73,5.28-3.64,2.24-.91,4.75-1.36,7.52-1.36,3.46,0,6.6.48,9.4,1.44,2.8.96,3.99,2.35,3.56,4.16l-2.24,8.88c-.05.16-.15.24-.28.24s-.17-.11-.12-.32c0-4.48-.92-7.77-2.76-9.88-1.84-2.11-4.79-3.16-8.84-3.16-2.77,0-4.68.4-5.72,1.2-1.04.8-1.56,1.89-1.56,3.28,0,1.12.43,2.17,1.28,3.16.85.99,1.95,1.89,3.28,2.72,1.33.83,3.36,1.99,6.08,3.48,3.62,1.97,6.49,3.91,8.6,5.8,2.11,1.89,3.16,4.15,3.16,6.76,0,1.92-.68,3.69-2.04,5.32-1.36,1.63-3.28,2.93-5.76,3.92s-5.29,1.48-8.44,1.48c-2.56,0-4.92-.28-7.08-.84-2.16-.56-3.83-1.35-5-2.36-1.17-1.01-1.65-2.11-1.44-3.28l2-9.04Z"/><path class="cls-1" d="M193.36,20.36c0,.19-.11.28-.32.28-1.07,0-1.96.45-2.68,1.36-.72.91-1.59,2.56-2.6,4.96l-10.88,25.36c-.11.37-.08.69.08.96l.48,1.04c.16.37.05.64-.32.8l-5.52,2c-.11.05-.24.08-.4.08-.27,0-.46-.16-.56-.48l-12.72-29.76c-1.07-2.45-1.95-4.12-2.64-5-.7-.88-1.6-1.32-2.72-1.32-.16,0-.24-.09-.24-.28s.08-.28.24-.28l3.44.08h8.08l6-.08c.32,0,.48.09.48.28s-.16.28-.48.28c-3.41,0-5.12,1.12-5.12,3.36,0,.75.24,1.73.72,2.96l10.32,24.08c.11.27.23.41.36.44.13.03.28-.12.44-.44l10.32-24.08c.48-1.23.72-2.21.72-2.96,0-2.24-1.65-3.36-4.96-3.36-.32,0-.48-.09-.48-.28s.16-.28.48-.28l5.84.08h.96l3.36-.08c.21,0,.32.09.32.28Z"/><path class="cls-1" d="M227.4,49.36c.13.11.15.24.04.4-2.03,2.56-4.43,4.47-7.2,5.72-2.77,1.25-5.76,1.88-8.96,1.88s-6.27-.77-9.04-2.32c-2.77-1.55-4.99-3.73-6.64-6.56-1.65-2.83-2.48-6.05-2.48-9.68s.89-7.11,2.68-10.12c1.79-3.01,4.2-5.39,7.24-7.12,3.04-1.73,6.35-2.6,9.92-2.6,4,0,7.32,1.12,9.96,3.36,2.64,2.24,3.96,5.25,3.96,9.04,0,1.87-.29,3.68-.88,5.44-4.37.05-13.23.27-26.56.64.64,3.15,1.91,5.95,3.8,8.4,1.89,2.45,4.09,4.35,6.6,5.68,2.51,1.33,4.96,2,7.36,2,4.43,0,7.73-1.39,9.92-4.16.05-.11.15-.11.28,0ZM201.84,23.48c-1.87,2.11-2.8,5.29-2.8,9.56,0,1.49.11,2.8.32,3.92l9.44-.32c2.29-.16,5.84-.29,10.64-.4.43-.85.64-1.92.64-3.2,0-1.87-.48-3.8-1.44-5.8-.96-2-2.23-3.65-3.8-4.96-1.57-1.31-3.21-1.96-4.92-1.96-3.52,0-6.21,1.05-8.08,3.16Z"/><path class="cls-1" d="M301.88,43.4c.19-.03.28.12.28.44,0,2.88-.4,5.35-1.2,7.4-.8,2.05-1.83,3.59-3.08,4.6-1.25,1.01-2.57,1.52-3.96,1.52-3.09,0-5.25-2.64-6.48-7.92l-5.2-20.96c-.59-2.45-1.44-4.16-2.56-5.12-1.12-.96-2.59-1.44-4.4-1.44-2.61,0-4.59.96-5.92,2.88-1.33,1.92-2.11,4.35-2.32,7.28l2.72,17.6c.32,1.76.84,2.99,1.56,3.68.72.69,1.45.91,2.2.64.21-.05.33-.04.36.04.03.08-.04.17-.2.28-.64,1.01-1.43,1.77-2.36,2.28-.93.51-1.88.71-2.84.6-1.49-.16-2.77-.76-3.84-1.8s-1.73-2.41-2-4.12l-3.36-21.52c-.8-5.23-3.15-7.84-7.04-7.84-2.29,0-4.17,1.16-5.64,3.48-1.47,2.32-2.33,5.13-2.6,8.44v16.24c0,2.08.39,3.55,1.16,4.4.77.85,1.99,1.31,3.64,1.36.27,0,.4.09.4.28s-.13.28-.4.28c-1.12-.05-3.89-.08-8.32-.08s-7.17.03-8.4.08c-.27,0-.4-.09-.4-.28s.13-.28.4-.28c1.17,0,2.08-.13,2.72-.4.64-.27,1.13-.81,1.48-1.64.35-.83.52-2.09.52-3.8v-21.12c0-1.71-.25-2.96-.76-3.76-.51-.8-1.4-1.2-2.68-1.2-.21,0-.69.05-1.44.16-.21.05-.33.01-.36-.12-.03-.13.04-.23.2-.28,5.6-1.39,9.65-2.93,12.16-4.64.21-.16.41-.21.6-.16.19.05.28.19.28.4-.27,1.92-.47,3.65-.6,5.2-.13,1.55-.2,3.12-.2,4.72.75-2.77,2.21-5.17,4.4-7.2,2.19-2.03,4.69-3.04,7.52-3.04,2.56,0,4.81.84,6.76,2.52,1.95,1.68,3.27,4.36,3.96,8.04.48-2.99,1.81-5.49,4-7.52,2.19-2.03,4.88-3.04,8.08-3.04,2.93,0,5.29.68,7.08,2.04,1.79,1.36,3.08,3.69,3.88,7l4.96,20.24c.8,3.09,1.89,4.64,3.28,4.64.53,0,1.08-.32,1.64-.96.56-.64,1.04-1.64,1.44-3,.4-1.36.6-3.05.6-5.08,0-.27.09-.41.28-.44Z"/><path class="cls-1" d="M312.6,55.12c-2.85-1.55-5.09-3.73-6.72-6.56-1.63-2.83-2.44-6.05-2.44-9.68s.91-6.96,2.72-10,4.32-5.45,7.52-7.24c3.2-1.79,6.75-2.68,10.64-2.68,3.57,0,6.8.77,9.68,2.32,2.88,1.55,5.16,3.72,6.84,6.52,1.68,2.8,2.52,6.01,2.52,9.64s-.93,6.97-2.8,10.04c-1.87,3.07-4.41,5.49-7.64,7.28-3.23,1.79-6.81,2.68-10.76,2.68-3.52,0-6.71-.77-9.56-2.32ZM334.08,52.56c2.03-2.03,3.04-5.01,3.04-8.96,0-3.25-.79-6.67-2.36-10.24-1.57-3.57-3.63-6.56-6.16-8.96-2.54-2.4-5.13-3.6-7.8-3.6-3.52,0-6.27,1-8.24,3s-2.96,4.97-2.96,8.92c0,3.2.79,6.6,2.36,10.2,1.57,3.6,3.6,6.61,6.08,9.04,2.48,2.43,5.03,3.64,7.64,3.64,3.57,0,6.37-1.01,8.4-3.04Z"/><path class="cls-1" d="M349.92,41.92c.05-.21.14-.31.28-.28.13.03.2.15.2.36-.11,4.64.88,8.16,2.96,10.56,2.08,2.4,5.09,3.6,9.04,3.6,2.67,0,4.73-.43,6.2-1.28,1.46-.85,2.2-2.32,2.2-4.4-.05-2.19-.97-4.07-2.76-5.64-1.79-1.57-4.6-3.37-8.44-5.4-3.47-1.92-6.08-3.65-7.84-5.2-1.76-1.55-2.64-3.36-2.64-5.44,0-1.71.64-3.32,1.92-4.84,1.28-1.52,3.04-2.73,5.28-3.64,2.24-.91,4.75-1.36,7.52-1.36,3.46,0,6.6.48,9.4,1.44,2.8.96,3.99,2.35,3.56,4.16l-2.24,8.88c-.05.16-.15.24-.28.24s-.17-.11-.12-.32c0-4.48-.92-7.77-2.76-9.88-1.84-2.11-4.79-3.16-8.84-3.16-2.77,0-4.68.4-5.72,1.2-1.04.8-1.56,1.89-1.56,3.28,0,1.12.43,2.17,1.28,3.16.85.99,1.95,1.89,3.28,2.72,1.33.83,3.36,1.99,6.08,3.48,3.62,1.97,6.49,3.91,8.6,5.8,2.11,1.89,3.16,4.15,3.16,6.76,0,1.92-.68,3.69-2.04,5.32-1.36,1.63-3.28,2.93-5.76,3.92s-5.29,1.48-8.44,1.48c-2.56,0-4.92-.28-7.08-.84-2.16-.56-3.83-1.35-5-2.36-1.17-1.01-1.65-2.11-1.44-3.28l2-9.04Z"/><path class="cls-1" d="M433.24,21.24c2.32,1.52,4.16,3.67,5.52,6.44,1.36,2.77,2.04,6,2.04,9.68,0,3.47-.79,6.73-2.36,9.8-1.57,3.07-3.73,5.53-6.48,7.4-2.75,1.87-5.77,2.8-9.08,2.8-2.29,0-4.15-.32-5.56-.96-1.41-.64-2.73-1.44-3.96-2.4-.8-.59-1.31-.88-1.52-.88-.43,0-.64.51-.64,1.52v10.56c0,2.35.38,4.03,1.16,5.04.77,1.01,1.91,1.55,3.4,1.6.21,0,.32.09.32.28s-.11.28-.32.28c-2.24-.11-4.67-.16-7.28-.16-3.36,0-6.37.05-9.04.16-.27,0-.39-.09-.36-.28.03-.19.17-.28.44-.28,1.55,0,2.68-.51,3.4-1.52.72-1.01,1.08-2.75,1.08-5.2V28.88c0-1.71-.25-2.96-.76-3.76-.51-.8-1.4-1.2-2.68-1.2-.21,0-.69.05-1.44.16-.21.05-.33.01-.36-.12-.03-.13.01-.23.12-.28,2.29-.59,4.56-1.28,6.8-2.08,2.24-.8,4.03-1.65,5.36-2.56.27-.16.48-.21.64-.16.16.05.24.19.24.4-.37,3.47-.59,5.73-.64,6.8.11,1.97.29,2.99.56,3.04,3.31-6.77,7.89-10.16,13.76-10.16,2.77,0,5.32.76,7.64,2.28ZM431.92,52.8c1.76-2.13,2.64-5.31,2.64-9.52,0-3.52-.59-6.83-1.76-9.92-1.17-3.09-2.81-5.57-4.92-7.44-2.11-1.87-4.47-2.8-7.08-2.8-2.83,0-5.13,1.17-6.92,3.52-1.79,2.35-2.68,5.41-2.68,9.2v4.64c0,4.48,1.06,8.19,3.2,11.12,2.13,2.93,5.12,4.4,8.96,4.4s6.8-1.07,8.56-3.2Z"/><path class="cls-1" d="M487.08,43.4c.19-.03.28.12.28.44,0,2.88-.4,5.35-1.2,7.4-.8,2.05-1.83,3.59-3.08,4.6-1.25,1.01-2.57,1.52-3.96,1.52-3.09,0-5.17-2.67-6.24-8l-.72-3.12c-1.01,3.41-2.79,6.12-5.32,8.12-2.54,2-5.29,3-8.28,3s-5.31-.59-7.28-1.76c-1.97-1.17-3.43-2.69-4.36-4.56-.93-1.87-1.38-3.87-1.32-6,.05-2.72,1.47-4.91,4.24-6.56,2.77-1.65,6.21-2.48,10.32-2.48,3.41,0,6.72.27,9.92.8l-1.68-7.68c-.59-2.72-1.6-4.72-3.04-6s-3.6-1.92-6.48-1.92c-3.36,0-6.27,1-8.72,3-2.46,2-3.76,4.97-3.92,8.92-.05.37-.19.56-.4.56s-.29-.19-.24-.56c.16-2.99,1.09-5.55,2.8-7.68,1.71-2.13,3.8-3.75,6.28-4.84,2.48-1.09,4.97-1.64,7.48-1.64,4.27,0,7.44.84,9.52,2.52,2.08,1.68,3.55,4.39,4.4,8.12l4,18.64c.37,1.49.79,2.64,1.24,3.44.45.8,1.05,1.2,1.8,1.2.53,0,1.08-.32,1.64-.96.56-.64,1.04-1.64,1.44-3,.4-1.36.6-3.05.6-5.08,0-.27.09-.41.28-.44ZM471.36,42.4l-.96-4.16c-3.2-.64-6-.96-8.4-.96-3.47,0-5.95.49-7.44,1.48-1.49.99-2.24,2.79-2.24,5.4s.79,4.89,2.36,6.68c1.57,1.79,3.91,2.68,7,2.68,5.87,0,9.07-3.09,9.6-9.28.11-.75.13-1.36.08-1.84Z"/><path class="cls-1" d="M516.04,20.48c1.68,1.01,2.52,2.27,2.52,3.76,0,.37-.03.67-.08.88l-3.36,12.48c-.05.32-.16.45-.32.4-.16-.05-.21-.24-.16-.56.27-1.71.4-3.07.4-4.08,0-3.04-.73-5.29-2.2-6.76-1.47-1.47-3.4-2.2-5.8-2.2-2.88,0-4.84,1.39-5.88,4.16-1.04,2.77-1.56,6.24-1.56,10.4v11.12c0,2.08.39,3.55,1.16,4.4.77.85,1.99,1.31,3.64,1.36.27,0,.4.09.4.28s-.13.28-.4.28c-1.12-.05-3.89-.08-8.32-.08s-7.17.03-8.4.08c-.27,0-.4-.09-.4-.28s.13-.28.4-.28c1.17,0,2.08-.13,2.72-.4.64-.27,1.13-.81,1.48-1.64.35-.83.52-2.09.52-3.8v-21.12c0-1.71-.25-2.96-.76-3.76-.51-.8-1.4-1.2-2.68-1.2-.21,0-.69.05-1.44.16-.21.05-.33.01-.36-.12-.03-.13.04-.23.2-.28,5.6-1.39,9.65-2.93,12.16-4.64.21-.16.41-.21.6-.16.19.05.28.19.28.4-.32,2.4-.54,4.32-.64,5.76-.11,1.44-.16,3.17-.16,5.2v1.44c.69-3.47,1.87-6.45,3.52-8.96,1.65-2.51,4.05-3.76,7.2-3.76,2.13,0,4.04.51,5.72,1.52Z"/><path class="cls-1" d="M563.23,43.4c.19-.03.28.12.28.44,0,2.88-.4,5.35-1.2,7.4-.8,2.05-1.83,3.59-3.08,4.6-1.25,1.01-2.57,1.52-3.96,1.52-3.09,0-5.17-2.67-6.24-8l-.72-3.12c-1.01,3.41-2.79,6.12-5.32,8.12s-5.29,3-8.28,3-5.31-.59-7.28-1.76c-1.97-1.17-3.43-2.69-4.36-4.56-.93-1.87-1.37-3.87-1.32-6,.05-2.72,1.47-4.91,4.24-6.56,2.77-1.65,6.21-2.48,10.32-2.48,3.41,0,6.72.27,9.92.8l-1.68-7.68c-.59-2.72-1.6-4.72-3.04-6-1.44-1.28-3.6-1.92-6.48-1.92-3.36,0-6.27,1-8.72,3s-3.76,4.97-3.92,8.92c-.05.37-.19.56-.4.56s-.29-.19-.24-.56c.16-2.99,1.09-5.55,2.8-7.68,1.71-2.13,3.8-3.75,6.28-4.84,2.48-1.09,4.97-1.64,7.48-1.64,4.27,0,7.44.84,9.52,2.52,2.08,1.68,3.55,4.39,4.4,8.12l4,18.64c.37,1.49.79,2.64,1.24,3.44.45.8,1.05,1.2,1.8,1.2.53,0,1.08-.32,1.64-.96.56-.64,1.04-1.64,1.44-3,.4-1.36.6-3.05.6-5.08,0-.27.09-.41.28-.44ZM547.52,42.4l-.96-4.16c-3.2-.64-6-.96-8.4-.96-3.47,0-5.95.49-7.44,1.48-1.49.99-2.24,2.79-2.24,5.4s.79,4.89,2.36,6.68c1.57,1.79,3.91,2.68,7,2.68,5.87,0,9.07-3.09,9.6-9.28.11-.75.13-1.36.08-1.84Z"/><path class="cls-1" d="M29.44,134.48c-.05.27-.17.37-.36.32-.19-.05-.23-.21-.12-.48.27-1.23.4-2.35.4-3.36,0-2.4-.53-4.72-1.6-6.96-1.07-2.24-2.52-4.04-4.36-5.4-1.84-1.36-3.88-2.04-6.12-2.04-7.41,0-11.12,4.13-11.12,12.4,0,3.95.89,7.49,2.68,10.64,1.79,3.15,4.08,5.59,6.88,7.32,2.8,1.73,5.61,2.6,8.44,2.6,1.71,0,3.46-.29,5.28-.88,1.81-.59,3.36-1.68,4.64-3.28.21-.16.36-.19.44-.08.08.11.07.24-.04.4-2.13,2.67-4.53,4.61-7.2,5.84-2.67,1.23-5.65,1.84-8.96,1.84s-6.36-.77-9.16-2.32c-2.8-1.55-5.03-3.73-6.68-6.56-1.65-2.83-2.48-6.05-2.48-9.68s.91-7.03,2.72-10.04c1.81-3.01,4.25-5.4,7.32-7.16,3.07-1.76,6.41-2.64,10.04-2.64,2.35,0,4.52.32,6.52.96,2,.64,3.6,1.47,4.8,2.48,1.2,1.01,1.8,2.05,1.8,3.12,0,.27-.03.48-.08.64l-3.68,12.32Z"/><path class="cls-1" d="M71.96,145.36c.13.11.15.24.04.4-2.03,2.56-4.43,4.47-7.2,5.72-2.77,1.25-5.76,1.88-8.96,1.88s-6.27-.77-9.04-2.32c-2.77-1.55-4.99-3.73-6.64-6.56-1.65-2.83-2.48-6.05-2.48-9.68s.89-7.11,2.68-10.12c1.79-3.01,4.2-5.39,7.24-7.12,3.04-1.73,6.35-2.6,9.92-2.6,4,0,7.32,1.12,9.96,3.36,2.64,2.24,3.96,5.25,3.96,9.04,0,1.87-.29,3.68-.88,5.44-4.37.05-13.23.27-26.56.64.64,3.15,1.91,5.95,3.8,8.4,1.89,2.45,4.09,4.35,6.6,5.68,2.51,1.33,4.96,2,7.36,2,4.43,0,7.73-1.39,9.92-4.16.05-.11.15-.11.28,0ZM46.4,119.48c-1.87,2.11-2.8,5.29-2.8,9.56,0,1.49.11,2.8.32,3.92l9.44-.32c2.29-.16,5.84-.29,10.64-.4.43-.85.64-1.92.64-3.2,0-1.87-.48-3.8-1.44-5.8-.96-2-2.23-3.65-3.8-4.96-1.57-1.31-3.21-1.96-4.92-1.96-3.52,0-6.21,1.05-8.08,3.16Z"/><path class="cls-1" d="M80.48,101.88c-.43-.77-1.09-1.16-2-1.16-.43,0-.75.03-.96.08h-.08c-.32,0-.48-.16-.48-.48,5.12-1.23,9.07-3.07,11.84-5.52.48-.11.67.05.56.48-.37,1.76-.61,3.75-.72,5.96-.11,2.21-.16,5.32-.16,9.32v34.56c0,1.92.41,3.51,1.24,4.76.83,1.25,2.01,1.91,3.56,1.96.21,0,.32.09.32.28s-.11.28-.32.28c-.96-.05-3.76-.08-8.4-.08s-7.39.03-8.4.08c-.27,0-.39-.09-.36-.28s.17-.28.44-.28c3.15,0,4.72-2.24,4.72-6.72l-.16-38.96c0-2.08-.21-3.51-.64-4.28Z"/><path class="cls-1" d="M132.2,145.36c.13.11.15.24.04.4-2.03,2.56-4.43,4.47-7.2,5.72-2.77,1.25-5.76,1.88-8.96,1.88s-6.27-.77-9.04-2.32c-2.77-1.55-4.99-3.73-6.64-6.56-1.65-2.83-2.48-6.05-2.48-9.68s.89-7.11,2.68-10.12c1.79-3.01,4.2-5.39,7.24-7.12,3.04-1.73,6.35-2.6,9.92-2.6,4,0,7.32,1.12,9.96,3.36,2.64,2.24,3.96,5.25,3.96,9.04,0,1.87-.29,3.68-.88,5.44-4.37.05-13.23.27-26.56.64.64,3.15,1.91,5.95,3.8,8.4,1.89,2.45,4.09,4.35,6.6,5.68,2.51,1.33,4.96,2,7.36,2,4.43,0,7.73-1.39,9.92-4.16.05-.11.15-.11.28,0ZM106.64,119.48c-1.87,2.11-2.8,5.29-2.8,9.56,0,1.49.11,2.8.32,3.92l9.44-.32c2.29-.16,5.84-.29,10.64-.4.43-.85.64-1.92.64-3.2,0-1.87-.48-3.8-1.44-5.8-.96-2-2.23-3.65-3.8-4.96-1.57-1.31-3.21-1.96-4.92-1.96-3.52,0-6.21,1.05-8.08,3.16Z"/><path class="cls-1" d="M168.48,117.24c2.35,1.52,4.19,3.67,5.52,6.44,1.33,2.77,2,6,2,9.68s-.79,6.81-2.36,9.88c-1.57,3.07-3.78,5.52-6.6,7.36-2.83,1.84-6.03,2.76-9.6,2.76-2.24,0-4.13-.33-5.68-1s-3.23-1.61-5.04-2.84c-.85-.64-1.57-1.11-2.16-1.4-.59-.29-1.15-.44-1.68-.44-.37,0-.73.23-1.08.68-.35.45-.81,1.16-1.4,2.12l-1.2,2c-.16.32-.35.48-.56.48-.32,0-.43-.21-.32-.64.53-3.89.8-8.13.8-12.72l-.16-33.44c0-2.08-.21-3.52-.64-4.32-.43-.8-1.07-1.2-1.92-1.2-.16,0-.51.05-1.04.16h-.08c-.32,0-.48-.16-.48-.48,2.51-.64,4.73-1.39,6.68-2.24,1.95-.85,3.67-1.97,5.16-3.36h.08c.11,0,.23.04.36.12.13.08.17.23.12.44-.37,1.76-.61,3.73-.72,5.92-.11,2.19-.16,5.31-.16,9.36v11.76c.11,1.87.29,2.88.56,3.04,1.49-3.04,3.37-5.53,5.64-7.48,2.27-1.95,4.95-2.92,8.04-2.92,2.93,0,5.57.76,7.92,2.28ZM167.12,148.88c1.71-2.08,2.56-5.28,2.56-9.6,0-3.57-.59-6.91-1.76-10-1.17-3.09-2.8-5.57-4.88-7.44-2.08-1.87-4.45-2.8-7.12-2.8s-5.07,1.24-6.88,3.72c-1.81,2.48-2.72,5.77-2.72,9.88v3.84c0,4.64.88,8.39,2.64,11.24,1.76,2.85,4.91,4.28,9.44,4.28,4.11,0,7.01-1.04,8.72-3.12Z"/><path class="cls-1" d="M209.16,116.48c1.68,1.01,2.52,2.27,2.52,3.76,0,.37-.03.67-.08.88l-3.36,12.48c-.05.32-.16.45-.32.4-.16-.05-.21-.24-.16-.56.27-1.71.4-3.07.4-4.08,0-3.04-.73-5.29-2.2-6.76s-3.4-2.2-5.8-2.2c-2.88,0-4.84,1.39-5.88,4.16-1.04,2.77-1.56,6.24-1.56,10.4v11.12c0,2.08.39,3.55,1.16,4.4.77.85,1.99,1.31,3.64,1.36.27,0,.4.09.4.28s-.13.28-.4.28c-1.12-.05-3.89-.08-8.32-.08s-7.17.03-8.4.08c-.27,0-.4-.09-.4-.28s.13-.28.4-.28c1.17,0,2.08-.13,2.72-.4.64-.27,1.13-.81,1.48-1.64.35-.83.52-2.09.52-3.8v-21.12c0-1.71-.25-2.96-.76-3.76-.51-.8-1.4-1.2-2.68-1.2-.21,0-.69.05-1.44.16-.21.05-.33.01-.36-.12-.03-.13.04-.23.2-.28,5.6-1.39,9.65-2.93,12.16-4.64.21-.16.41-.21.6-.16.19.05.28.19.28.4-.32,2.4-.53,4.32-.64,5.76-.11,1.44-.16,3.17-.16,5.2v1.44c.69-3.47,1.87-6.45,3.52-8.96,1.65-2.51,4.05-3.76,7.2-3.76,2.13,0,4.04.51,5.72,1.52Z"/><path class="cls-1" d="M256.36,139.4c.19-.03.28.12.28.44,0,2.88-.4,5.35-1.2,7.4-.8,2.05-1.83,3.59-3.08,4.6-1.25,1.01-2.57,1.52-3.96,1.52-3.09,0-5.17-2.67-6.24-8l-.72-3.12c-1.01,3.41-2.79,6.12-5.32,8.12s-5.29,3-8.28,3-5.31-.59-7.28-1.76c-1.97-1.17-3.43-2.69-4.36-4.56-.93-1.87-1.37-3.87-1.32-6,.05-2.72,1.47-4.91,4.24-6.56,2.77-1.65,6.21-2.48,10.32-2.48,3.41,0,6.72.27,9.92.8l-1.68-7.68c-.59-2.72-1.6-4.72-3.04-6-1.44-1.28-3.6-1.92-6.48-1.92-3.36,0-6.27,1-8.72,3s-3.76,4.97-3.92,8.92c-.05.37-.19.56-.4.56s-.29-.19-.24-.56c.16-2.99,1.09-5.55,2.8-7.68,1.71-2.13,3.8-3.75,6.28-4.84,2.48-1.09,4.97-1.64,7.48-1.64,4.27,0,7.44.84,9.52,2.52,2.08,1.68,3.55,4.39,4.4,8.12l4,18.64c.37,1.49.79,2.64,1.24,3.44.45.8,1.05,1.2,1.8,1.2.53,0,1.08-.32,1.64-.96.56-.64,1.04-1.64,1.44-3,.4-1.36.6-3.05.6-5.08,0-.27.09-.41.28-.44ZM240.64,138.4l-.96-4.16c-3.2-.64-6-.96-8.4-.96-3.47,0-5.95.49-7.44,1.48-1.49.99-2.24,2.79-2.24,5.4s.79,4.89,2.36,6.68c1.57,1.79,3.91,2.68,7,2.68,5.87,0,9.07-3.09,9.6-9.28.11-.75.13-1.36.08-1.84Z"/><path class="cls-1" d="M285.32,116.48c1.68,1.01,2.52,2.27,2.52,3.76,0,.37-.03.67-.08.88l-3.36,12.48c-.05.32-.16.45-.32.4-.16-.05-.21-.24-.16-.56.27-1.71.4-3.07.4-4.08,0-3.04-.73-5.29-2.2-6.76s-3.4-2.2-5.8-2.2c-2.88,0-4.84,1.39-5.88,4.16-1.04,2.77-1.56,6.24-1.56,10.4v11.12c0,2.08.39,3.55,1.16,4.4.77.85,1.99,1.31,3.64,1.36.27,0,.4.09.4.28s-.13.28-.4.28c-1.12-.05-3.89-.08-8.32-.08s-7.17.03-8.4.08c-.27,0-.4-.09-.4-.28s.13-.28.4-.28c1.17,0,2.08-.13,2.72-.4.64-.27,1.13-.81,1.48-1.64.35-.83.52-2.09.52-3.8v-21.12c0-1.71-.25-2.96-.76-3.76-.51-.8-1.4-1.2-2.68-1.2-.21,0-.69.05-1.44.16-.21.05-.33.01-.36-.12-.03-.13.04-.23.2-.28,5.6-1.39,9.65-2.93,12.16-4.64.21-.16.41-.21.6-.16.19.05.28.19.28.4-.32,2.4-.53,4.32-.64,5.76-.11,1.44-.16,3.17-.16,5.2v1.44c.69-3.47,1.87-6.45,3.52-8.96,1.65-2.51,4.05-3.76,7.2-3.76,2.13,0,4.04.51,5.72,1.52Z"/><path class="cls-1" d="M312.39,124.88c0-1.71-.25-2.96-.76-3.76-.51-.8-1.4-1.2-2.68-1.2-.21,0-.69.05-1.44.16-.16.05-.25.01-.28-.12-.03-.13.01-.23.12-.28,5.6-1.39,9.65-2.93,12.16-4.64.21-.16.41-.21.6-.16.19.05.28.19.28.4-.27,2.13-.47,4.03-.6,5.68-.13,1.65-.2,3.41-.2,5.28v15.76c0,4.59-1.07,8.39-3.2,11.4s-4.61,5.23-7.44,6.64c-2.83,1.41-5.31,2.17-7.44,2.28h-.08c-.32,0-.48-.11-.48-.32s.19-.32.56-.32c2.99-.21,5.54-1.44,7.68-3.68,2.13-2.24,3.2-6.64,3.2-13.2v-19.92ZM310.47,104.68c-.8-.61-1.2-1.37-1.2-2.28,0-1.17.53-2.17,1.6-3,1.07-.83,2.45-1.24,4.16-1.24,1.39,0,2.49.31,3.32.92.83.61,1.24,1.4,1.24,2.36,0,1.12-.55,2.09-1.64,2.92-1.09.83-2.49,1.24-4.2,1.24-1.39,0-2.48-.31-3.28-.92Z"/><path class="cls-1" d="M370.71,139.44c.16,0,.24.13.24.4,0,3.68-.71,6.81-2.12,9.4-1.41,2.59-3.37,3.88-5.88,3.88-1.87,0-3.4-.68-4.6-2.04-1.2-1.36-1.8-3.4-1.8-6.12v-2.64c-.64,3.31-2.11,5.99-4.4,8.04s-5.17,3.08-8.64,3.08c-3.89,0-7.01-1.32-9.36-3.96-2.35-2.64-3.52-6.52-3.52-11.64v-12.96c0-1.71-.25-2.96-.76-3.76-.51-.8-1.4-1.2-2.68-1.2-.21,0-.69.05-1.44.16-.21.05-.33.01-.36-.12-.03-.13.01-.23.12-.28,2.29-.59,4.56-1.28,6.8-2.08,2.24-.8,4.03-1.65,5.36-2.56.27-.16.48-.21.64-.16.16.05.24.19.24.4-.27,2.45-.45,4.4-.56,5.84-.11,1.44-.16,3.15-.16,5.12v11.68c0,8.53,2.96,12.8,8.88,12.8,2.99,0,5.37-1.2,7.16-3.6,1.79-2.4,2.68-5.73,2.68-10v-12.24c0-1.71-.25-2.96-.76-3.76-.51-.8-1.4-1.2-2.68-1.2-.21,0-.69.05-1.44.16-.21.05-.33.01-.36-.12-.03-.13.01-.23.12-.28,2.29-.59,4.56-1.28,6.8-2.08,2.24-.8,4.03-1.65,5.36-2.56.27-.16.48-.21.64-.16.16.05.24.19.24.4-.27,2.45-.45,4.4-.56,5.84-.11,1.44-.16,3.15-.16,5.12v17.28c0,1.76.2,3.05.6,3.88.4.83,1.08,1.24,2.04,1.24,1.65,0,2.73-.77,3.24-2.32.51-1.55.79-3.71.84-6.48,0-.27.08-.4.24-.4Z"/><path class="cls-1" d="M421.75,139.4c.21-.03.32.12.32.44,0,2.88-.4,5.33-1.2,7.36-.8,2.03-1.84,3.55-3.12,4.56-1.28,1.01-2.61,1.52-4,1.52-3.04,0-5.17-2.61-6.4-7.84l-5.04-20.8c-.59-2.35-1.38-4.04-2.36-5.08s-2.65-1.56-5-1.56c-2.67,0-4.95,1.13-6.84,3.4-1.89,2.27-3,5.35-3.32,9.24v15.44c0,2.08.39,3.55,1.16,4.4.77.85,1.99,1.31,3.64,1.36.27,0,.4.09.4.28s-.13.28-.4.28c-1.12-.05-3.89-.08-8.32-.08s-7.17.03-8.4.08c-.27,0-.4-.09-.4-.28s.13-.28.4-.28c1.17,0,2.08-.13,2.72-.4.64-.27,1.13-.81,1.48-1.64.35-.83.52-2.09.52-3.8v-21.12c0-1.71-.25-2.96-.76-3.76-.51-.8-1.4-1.2-2.68-1.2-.21,0-.69.05-1.44.16-.21.05-.33.01-.36-.12-.03-.13.04-.23.2-.28,5.6-1.39,9.65-2.93,12.16-4.64.21-.16.41-.21.6-.16.19.05.28.19.28.4-.32,2.35-.53,4.21-.64,5.6-.11,1.39-.16,3.04-.16,4.96.85-2.99,2.57-5.55,5.16-7.68,2.59-2.13,5.4-3.2,8.44-3.2,3.46,0,6.01.75,7.64,2.24,1.63,1.49,2.81,3.81,3.56,6.96l4.96,20.08c.37,1.55.81,2.71,1.32,3.48.51.77,1.13,1.16,1.88,1.16.53,0,1.09-.32,1.68-.96.59-.64,1.07-1.64,1.44-3,.37-1.36.56-3.05.56-5.08,0-.27.11-.41.32-.44Z"/><path class="cls-1" d="M429.47,151.04c-1.31-1.55-1.96-3.55-1.96-6v-26.16c0-.75-.09-1.31-.28-1.68-.19-.37-.65-.56-1.4-.56h-2.72c-.27,0-.4-.07-.4-.2s.11-.23.32-.28c2.88-.48,5.36-1.67,7.44-3.56,2.08-1.89,3.44-4.36,4.08-7.4.11-.32.21-.48.32-.48.16,0,.24.16.24.48-.05,3.2-.16,6.35-.32,9.44v.24c0,.53.13.88.4,1.04.27.16.77.24,1.52.24h7.68c.11,0,.13.08.08.24s-.19.24-.4.24h-7.04c-.91,0-1.52.15-1.84.44-.32.29-.48.87-.48,1.72v24.48c0,1.87.4,3.32,1.2,4.36.8,1.04,1.84,1.56,3.12,1.56.96,0,1.99-.33,3.08-1,1.09-.67,2.12-1.67,3.08-3,.21-.27.37-.36.48-.28.11.08.08.25-.08.52-1.81,2.67-3.68,4.65-5.6,5.96-1.92,1.31-3.76,1.96-5.52,1.96-2.03,0-3.69-.77-5-2.32Z"/><path class="cls-1" d="M456.99,151.12c-2.85-1.55-5.09-3.73-6.72-6.56-1.63-2.83-2.44-6.05-2.44-9.68s.91-6.96,2.72-10c1.81-3.04,4.32-5.45,7.52-7.24s6.75-2.68,10.64-2.68c3.57,0,6.8.77,9.68,2.32,2.88,1.55,5.16,3.72,6.84,6.52,1.68,2.8,2.52,6.01,2.52,9.64s-.93,6.97-2.8,10.04c-1.87,3.07-4.41,5.49-7.64,7.28-3.23,1.79-6.81,2.68-10.76,2.68-3.52,0-6.71-.77-9.56-2.32ZM478.47,148.56c2.03-2.03,3.04-5.01,3.04-8.96,0-3.25-.79-6.67-2.36-10.24-1.57-3.57-3.63-6.56-6.16-8.96-2.53-2.4-5.13-3.6-7.8-3.6-3.52,0-6.27,1-8.24,3-1.97,2-2.96,4.97-2.96,8.92,0,3.2.79,6.6,2.36,10.2,1.57,3.6,3.6,6.61,6.08,9.04,2.48,2.43,5.03,3.64,7.64,3.64,3.57,0,6.37-1.01,8.4-3.04Z"/><path class="cls-1" d="M494.31,137.92c.05-.21.15-.31.28-.28.13.03.2.15.2.36-.11,4.64.88,8.16,2.96,10.56,2.08,2.4,5.09,3.6,9.04,3.6,2.67,0,4.73-.43,6.2-1.28,1.47-.85,2.2-2.32,2.2-4.4-.05-2.19-.97-4.07-2.76-5.64-1.79-1.57-4.6-3.37-8.44-5.4-3.47-1.92-6.08-3.65-7.84-5.2-1.76-1.55-2.64-3.36-2.64-5.44,0-1.71.64-3.32,1.92-4.84,1.28-1.52,3.04-2.73,5.28-3.64,2.24-.91,4.75-1.36,7.52-1.36,3.47,0,6.6.48,9.4,1.44,2.8.96,3.99,2.35,3.56,4.16l-2.24,8.88c-.05.16-.15.24-.28.24s-.17-.11-.12-.32c0-4.48-.92-7.77-2.76-9.88-1.84-2.11-4.79-3.16-8.84-3.16-2.77,0-4.68.4-5.72,1.2-1.04.8-1.56,1.89-1.56,3.28,0,1.12.43,2.17,1.28,3.16.85.99,1.95,1.89,3.28,2.72,1.33.83,3.36,1.99,6.08,3.48,3.63,1.97,6.49,3.91,8.6,5.8,2.11,1.89,3.16,4.15,3.16,6.76,0,1.92-.68,3.69-2.04,5.32-1.36,1.63-3.28,2.93-5.76,3.92-2.48.99-5.29,1.48-8.44,1.48-2.56,0-4.92-.28-7.08-.84-2.16-.56-3.83-1.35-5-2.36-1.17-1.01-1.65-2.11-1.44-3.28l2-9.04Z"/><path class="cls-1" d="M529.43,152.16c-.75-.53-1.12-1.2-1.12-2,0-1.07.59-1.99,1.76-2.76,1.17-.77,2.69-1.16,4.56-1.16,1.28,0,2.29.27,3.04.8.75.53,1.12,1.2,1.12,2,0,1.07-.62,1.99-1.84,2.76-1.23.77-2.72,1.16-4.48,1.16-1.28,0-2.29-.27-3.04-.8Z"/></g></svg>