<?xml version="1.0" encoding="UTF-8"?><svg id="Capa_2" xmlns="http://www.w3.org/2000/svg" viewBox="0 0 690.22 230.49"><defs><style>.cls-1{fill:#1b2f52;}</style></defs><g id="Texto"><path class="cls-1" d="M19.14,32.02c-.98.38-2.14.57-3.48.57s-2.53-.2-3.59-.61c-1.06-.41-1.9-1.02-2.54-1.84-.63-.82-1-1.84-1.1-3.06H1.19c.06,2.57.7,4.74,1.9,6.49,1.2,1.76,2.88,3.08,5.04,3.98s4.69,1.34,7.61,1.34,5.47-.45,7.57-1.34,3.7-2.16,4.81-3.8c1.11-1.64,1.66-3.55,1.66-5.75,0-1.53-.27-2.88-.82-4.05s-1.31-2.19-2.31-3.04c-.99-.85-2.15-1.57-3.47-2.16s-2.74-1.05-4.27-1.39l-3.3-.81c-1.01-.24-1.96-.55-2.86-.92-.9-.37-1.61-.85-2.15-1.44-.54-.59-.81-1.34-.81-2.23,0-.81.23-1.54.7-2.17s1.14-1.13,2.04-1.49c.89-.36,1.97-.54,3.22-.54,1.86,0,3.34.4,4.46,1.2,1.12.8,1.74,1.93,1.87,3.39h7.2c-.03-2.13-.61-4.02-1.73-5.65s-2.69-2.91-4.69-3.83c-2-.92-4.35-1.38-7.03-1.38s-4.99.46-7.04,1.37c-2.06.91-3.68,2.19-4.86,3.83-1.18,1.64-1.77,3.56-1.77,5.76,0,2.64.87,4.76,2.61,6.36,1.74,1.6,4.15,2.78,7.23,3.53l4,1c1.33.31,2.47.67,3.39,1.07.93.41,1.64.89,2.14,1.45s.75,1.26.75,2.09c0,.93-.28,1.74-.83,2.44-.55.7-1.32,1.24-2.31,1.62Z"/><polygon class="cls-1" points="53.77 0 46.99 0 43.59 7.59 48.72 7.59 53.77 0"/><path class="cls-1" d="M57.75,38.35v-18.38c0-1.64-.32-3.06-.96-4.24-.64-1.18-1.51-2.14-2.61-2.87s-2.34-1.27-3.72-1.62c-1.38-.35-2.81-.52-4.27-.52-2.04,0-3.86.29-5.48.88s-2.97,1.43-4.06,2.54c-1.09,1.11-1.87,2.46-2.34,4.05l6.71,1.1c.21-.59.54-1.11.98-1.59.44-.47,1.01-.85,1.71-1.14.7-.28,1.52-.43,2.47-.43s1.69.14,2.33.43c.64.29,1.13.7,1.45,1.23.33.54.49,1.2.49,1.98v.12c0,.59-.22,1.03-.67,1.33-.45.3-1.16.52-2.12.66-.97.14-2.24.29-3.82.45-1.35.13-2.64.36-3.87.68-1.23.33-2.33.8-3.3,1.42-.97.62-1.73,1.44-2.29,2.47s-.84,2.29-.84,3.81c0,1.81.39,3.32,1.18,4.53.79,1.21,1.87,2.12,3.25,2.73s2.93.92,4.65.92c1.35,0,2.54-.19,3.58-.56s1.92-.88,2.65-1.53c.73-.64,1.32-1.39,1.76-2.23h.24v3.78h6.93ZM50.48,28.59c0,.96-.24,1.83-.73,2.61s-1.17,1.4-2.04,1.86c-.87.46-1.88.68-3.04.68-.8,0-1.51-.12-2.12-.37-.62-.24-1.11-.61-1.46-1.09-.36-.48-.54-1.07-.54-1.77,0-.75.19-1.36.56-1.84.37-.48.9-.87,1.59-1.16s1.47-.5,2.37-.63c.41-.05.87-.11,1.39-.2.52-.08,1.05-.17,1.59-.27s1.03-.21,1.46-.34c.44-.13.76-.28.98-.44v2.95Z"/><path class="cls-1" d="M71.21,33.98h.34c.34.73.83,1.47,1.48,2.21.64.74,1.48,1.36,2.5,1.87s2.28.76,3.76.76c2.1,0,3.99-.54,5.66-1.62,1.68-1.08,3-2.67,3.98-4.76.98-2.09,1.46-4.65,1.46-7.68s-.5-5.7-1.5-7.79c-1-2.08-2.34-3.65-4.02-4.69-1.68-1.04-3.52-1.56-5.54-1.56-1.55,0-2.83.26-3.86.78-1.03.52-1.85,1.16-2.48,1.93-.63.77-1.11,1.51-1.45,2.22h-.22V1.98h-7.32v36.38h7.2v-4.37ZM71.84,20.42c.46-1.21,1.12-2.16,2-2.83.88-.68,1.94-1.01,3.2-1.01s2.36.35,3.22,1.05c.86.7,1.52,1.66,1.96,2.88s.67,2.63.67,4.22-.22,3.01-.67,4.25c-.45,1.24-1.11,2.21-1.98,2.91-.87.7-1.94,1.05-3.21,1.05s-2.29-.34-3.17-1.03-1.55-1.64-2.01-2.87c-.46-1.23-.7-2.67-.7-4.31s.23-3.1.68-4.31Z"/><path class="cls-1" d="M110.79,21.23c-.45.3-1.16.52-2.12.66-.97.14-2.24.29-3.82.45-1.35.13-2.64.36-3.87.68-1.23.33-2.33.8-3.3,1.42-.97.62-1.73,1.44-2.29,2.47s-.84,2.29-.84,3.81c0,1.81.39,3.32,1.18,4.53.79,1.21,1.87,2.12,3.25,2.73s2.93.92,4.65.92c1.35,0,2.54-.19,3.58-.56s1.92-.88,2.65-1.53c.73-.64,1.32-1.39,1.76-2.23h.24v3.78h6.93v-18.38c0-1.64-.32-3.06-.96-4.24-.64-1.18-1.51-2.14-2.61-2.87s-2.34-1.27-3.72-1.62c-1.38-.35-2.81-.52-4.27-.52-2.04,0-3.86.29-5.48.88s-2.97,1.43-4.06,2.54c-1.09,1.11-1.87,2.46-2.34,4.05l6.71,1.1c.21-.59.54-1.11.98-1.59.44-.47,1.01-.85,1.71-1.14.7-.28,1.52-.43,2.47-.43s1.69.14,2.33.43c.64.29,1.13.7,1.45,1.23.33.54.49,1.2.49,1.98v.12c0,.59-.22,1.03-.67,1.33ZM111.51,25.63v2.95c0,.96-.24,1.83-.73,2.61s-1.17,1.4-2.04,1.86c-.87.46-1.88.68-3.04.68-.8,0-1.51-.12-2.12-.37-.62-.24-1.11-.61-1.46-1.09-.36-.48-.54-1.07-.54-1.77,0-.75.19-1.36.56-1.84.37-.48.9-.87,1.59-1.16s1.47-.5,2.37-.63c.41-.05.87-.11,1.39-.2.52-.08,1.05-.17,1.59-.27s1.03-.21,1.46-.34c.44-.13.76-.28.98-.44Z"/><path class="cls-1" d="M129.35,37.19c1.68,1.08,3.57,1.62,5.65,1.62,1.5,0,2.76-.25,3.78-.76s1.86-1.13,2.5-1.87c.64-.74,1.13-1.48,1.45-2.21h.37v4.37h7.2V1.98h-7.32v13.67h-.24c-.31-.72-.78-1.46-1.42-2.22-.63-.76-1.46-1.41-2.49-1.93-1.03-.52-2.31-.78-3.86-.78-2.02,0-3.87.52-5.54,1.56-1.68,1.04-3.02,2.6-4.03,4.69-1.01,2.08-1.51,4.68-1.51,7.79s.49,5.59,1.46,7.68c.98,2.09,2.31,3.68,3.99,4.76ZM132.07,20.51c.44-1.22,1.09-2.18,1.96-2.88.87-.7,1.95-1.05,3.24-1.05s2.32.34,3.2,1.01c.88.68,1.54,1.62,1.99,2.83.45,1.21.67,2.65.67,4.31s-.23,3.08-.68,4.31c-.46,1.23-1.12,2.19-2,2.87s-1.94,1.03-3.17,1.03-2.34-.35-3.21-1.05c-.87-.7-1.53-1.67-1.98-2.91-.45-1.24-.67-2.65-.67-4.25s.22-3,.66-4.22Z"/><path class="cls-1" d="M161.66,37.12c2,1.18,4.37,1.77,7.1,1.77s5.12-.59,7.12-1.77c1.99-1.18,3.53-2.82,4.61-4.93,1.08-2.11,1.62-4.56,1.62-7.36s-.54-5.3-1.62-7.41c-1.08-2.11-2.62-3.75-4.61-4.93-1.99-1.18-4.37-1.77-7.12-1.77s-5.1.59-7.1,1.77c-2,1.18-3.54,2.82-4.63,4.93-1.08,2.11-1.62,4.58-1.62,7.41s.54,5.25,1.62,7.36c1.08,2.11,2.62,3.75,4.63,4.93ZM163.54,20.51c.44-1.25,1.09-2.24,1.96-2.95.87-.72,1.96-1.07,3.26-1.07s2.39.36,3.27,1.07c.88.72,1.54,1.7,1.98,2.95.44,1.25.66,2.69.66,4.3s-.22,3-.66,4.26c-.44,1.26-1.1,2.25-1.98,2.98-.88.72-1.97,1.09-3.27,1.09s-2.39-.36-3.26-1.09c-.87-.72-1.53-1.72-1.96-2.98-.44-1.26-.66-2.68-.66-4.26s.22-3.04.66-4.3Z"/><polygon class="cls-1" points="206.78 8.54 206.78 38.35 214.22 38.35 214.22 1.98 206.24 1.98 198.21 7.62 198.21 14.45 206.53 8.54 206.78 8.54"/><path class="cls-1" d="M236.06,32.12c-.94.55-2.01.82-3.23.82-1.03,0-1.97-.2-2.83-.6-.86-.4-1.56-.96-2.09-1.68-.53-.72-.82-1.56-.87-2.5h-7.28c.06,2.07.66,3.91,1.79,5.52s2.67,2.88,4.61,3.8,4.16,1.38,6.65,1.38c2.67,0,5.02-.54,7.04-1.62,2.03-1.08,3.61-2.57,4.74-4.46,1.13-1.89,1.7-4.05,1.7-6.49,0-1.74-.29-3.34-.85-4.81-.57-1.46-1.37-2.73-2.39-3.8-1.03-1.07-2.23-1.89-3.63-2.48s-2.91-.88-4.55-.88-2.98.29-4.26.85c-1.28.57-2.24,1.29-2.89,2.17h-.2l.93-9.2h15.84V1.98h-22.02l-1.73,19.09,6.69,1.17c.55-.73,1.33-1.31,2.33-1.75,1-.43,2.05-.65,3.14-.65,1.25,0,2.36.28,3.31.83.95.55,1.7,1.33,2.25,2.33s.82,2.14.82,3.43-.27,2.42-.81,3.39-1.27,1.74-2.21,2.28Z"/><path class="cls-1" d="M267.87,37.19c1.68,1.08,3.57,1.62,5.65,1.62,1.5,0,2.76-.25,3.78-.76s1.86-1.13,2.5-1.87c.64-.74,1.13-1.48,1.45-2.21h.37v4.37h7.2V1.98h-7.32v13.67h-.24c-.31-.72-.78-1.46-1.42-2.22-.63-.76-1.46-1.41-2.49-1.93-1.03-.52-2.31-.78-3.86-.78-2.02,0-3.87.52-5.54,1.56-1.68,1.04-3.02,2.6-4.03,4.69-1.01,2.08-1.51,4.68-1.51,7.79s.49,5.59,1.46,7.68c.98,2.09,2.31,3.68,3.99,4.76ZM270.6,20.51c.44-1.22,1.09-2.18,1.96-2.88.87-.7,1.95-1.05,3.24-1.05s2.32.34,3.2,1.01c.88.68,1.54,1.62,1.99,2.83.45,1.21.67,2.65.67,4.31s-.23,3.08-.68,4.31c-.46,1.23-1.12,2.19-2,2.87s-1.94,1.03-3.17,1.03-2.34-.35-3.21-1.05c-.87-.7-1.53-1.67-1.98-2.91-.45-1.24-.67-2.65-.67-4.25s.22-3,.66-4.22Z"/><path class="cls-1" d="M300.21,37.18c2.02,1.14,4.42,1.71,7.2,1.71,2.13,0,4.02-.31,5.65-.93s3-1.49,4.09-2.62c1.09-1.13,1.86-2.45,2.29-3.94l-6.64-1.25c-.26.7-.64,1.29-1.14,1.77-.5.48-1.09.84-1.79,1.09-.7.24-1.48.37-2.34.37-1.27,0-2.38-.27-3.33-.81s-1.69-1.34-2.22-2.42c-.48-.97-.73-2.16-.77-3.54h18.66v-2.05c0-2.34-.33-4.38-.99-6.1-.66-1.73-1.57-3.16-2.75-4.31s-2.53-2.01-4.08-2.58c-1.55-.57-3.21-.85-5-.85-2.65,0-4.96.59-6.93,1.78-1.97,1.19-3.49,2.84-4.57,4.96-1.07,2.12-1.61,4.58-1.61,7.4s.54,5.37,1.62,7.47,2.63,3.72,4.65,4.86ZM303.88,17.11c.89-.59,1.97-.88,3.24-.88s2.31.29,3.16.87c.85.58,1.5,1.39,1.93,2.44.3.73.49,1.56.58,2.48h-11.56c.08-.92.3-1.77.64-2.53.46-1,1.13-1.79,2.01-2.38Z"/><path class="cls-1" d="M345.71,29.91h12.92l2.81,8.45h8.28l-12.74-36.38h-9.77l-12.43,36.38h8.23l2.7-8.45ZM350.64,13.42c.44-1.75.9-3.63,1.38-5.59.5,1.95.98,3.8,1.45,5.54.72,2.69,1.44,5.17,2.14,7.43l1.09,3.27h-9.12l1.05-3.27c.67-2.21,1.34-4.68,2.01-7.39Z"/><path class="cls-1" d="M377.26,36.52c1.68.96,3.54,1.44,5.59,1.44,1.48,0,2.72-.22,3.72-.65,1-.43,1.81-.99,2.43-1.67.62-.68,1.09-1.39,1.42-2.12h.56v5.03c0,1.81-.53,3.14-1.6,3.99s-2.54,1.28-4.41,1.28c-1.17,0-2.16-.15-2.95-.46-.8-.31-1.44-.7-1.92-1.18-.48-.48-.83-.97-1.06-1.48l-6.3,1.76c.41,1.29,1.14,2.43,2.2,3.44,1.06,1.01,2.43,1.8,4.13,2.38,1.69.58,3.68.87,5.96.87,2.57,0,4.85-.41,6.84-1.22,1.99-.81,3.54-2.03,4.67-3.66,1.13-1.63,1.7-3.67,1.7-6.13V11.06h-7.2v4.59h-.32c-.33-.72-.81-1.46-1.45-2.23-.64-.77-1.49-1.42-2.53-1.93-1.04-.51-2.33-.77-3.86-.77-2.02,0-3.87.52-5.55,1.56-1.68,1.04-3.04,2.6-4.05,4.66-1.02,2.07-1.53,4.64-1.53,7.71s.5,5.5,1.5,7.47c1,1.97,2.34,3.43,4.02,4.39ZM379.93,20.46c.45-1.2,1.11-2.15,1.98-2.84.87-.69,1.95-1.04,3.24-1.04s2.31.33,3.19,1c.87.67,1.53,1.6,1.99,2.81.46,1.2.68,2.61.68,4.22s-.23,3.02-.68,4.19c-.46,1.16-1.12,2.06-1.99,2.67-.87.62-1.93.93-3.19.93s-2.34-.32-3.22-.95-1.54-1.53-1.99-2.7c-.45-1.16-.67-2.54-.67-4.14s.22-2.95.67-4.15Z"/><path class="cls-1" d="M409.58,37.12c2,1.18,4.37,1.77,7.1,1.77s5.12-.59,7.12-1.77c1.99-1.18,3.53-2.82,4.61-4.93,1.08-2.11,1.62-4.56,1.62-7.36s-.54-5.3-1.62-7.41c-1.08-2.11-2.62-3.75-4.61-4.93-1.99-1.18-4.37-1.77-7.12-1.77s-5.1.59-7.1,1.77c-2,1.18-3.54,2.82-4.63,4.93-1.08,2.11-1.62,4.58-1.62,7.41s.54,5.25,1.62,7.36c1.08,2.11,2.62,3.75,4.63,4.93ZM411.46,20.51c.44-1.25,1.09-2.24,1.96-2.95.87-.72,1.96-1.07,3.26-1.07s2.39.36,3.27,1.07c.88.72,1.54,1.7,1.98,2.95.44,1.25.66,2.69.66,4.3s-.22,3-.66,4.26c-.44,1.26-1.1,2.25-1.98,2.98-.88.72-1.97,1.09-3.27,1.09s-2.39-.36-3.26-1.09c-.87-.72-1.53-1.72-1.96-2.98-.44-1.26-.66-2.68-.66-4.26s.22-3.04.66-4.3Z"/><path class="cls-1" d="M452.32,37.77c1.83-.75,3.27-1.79,4.31-3.14,1.04-1.34,1.56-2.91,1.56-4.7,0-1.95-.64-3.54-1.93-4.75-1.29-1.21-3.25-2.09-5.88-2.62l-4.91-.98c-1.29-.26-2.19-.63-2.72-1.1-.53-.47-.79-1.05-.79-1.73,0-.85.41-1.52,1.22-2.03.81-.5,1.82-.76,3.03-.76,1.33,0,2.4.3,3.19.89.79.59,1.32,1.35,1.6,2.28l6.49-1.15c-.33-1.48-.98-2.77-1.95-3.86-.98-1.09-2.25-1.93-3.83-2.53-1.58-.59-3.44-.89-5.59-.89-2.31,0-4.32.34-6.03,1.03s-3.04,1.66-4,2.92c-.96,1.26-1.44,2.77-1.44,4.53,0,2.03.65,3.7,1.95,4.99,1.3,1.29,3.27,2.21,5.91,2.75l4.71.98c1.19.24,2.07.59,2.65,1.05.58.46.87,1.04.87,1.76,0,.81-.4,1.49-1.21,2.01-.81.53-1.91.79-3.31.79-1.5,0-2.69-.32-3.59-.95-.9-.63-1.52-1.59-1.88-2.86l-6.81,1.17c.31,1.69,1,3.14,2.08,4.33s2.46,2.11,4.15,2.73c1.69.63,3.64.94,5.83.94,2.39,0,4.5-.37,6.33-1.12Z"/><path class="cls-1" d="M464.27,31.01c0,2.49.72,4.4,2.17,5.74,1.45,1.33,3.54,2,6.27,2,.73,0,1.5-.05,2.31-.15s1.62-.27,2.43-.51l-1.05-5.49c-.26.07-.64.13-1.15.21-.5.07-.9.11-1.17.11-.9,0-1.53-.21-1.92-.62s-.57-1.05-.57-1.92v-13.72h5.1v-5.59h-5.1v-6.49h-7.32v6.49h-3.76v5.59h3.76v14.36Z"/><path class="cls-1" d="M486.07,37.12c2,1.18,4.37,1.77,7.1,1.77s5.12-.59,7.12-1.77c1.99-1.18,3.53-2.82,4.61-4.93,1.08-2.11,1.62-4.56,1.62-7.36s-.54-5.3-1.62-7.41c-1.08-2.11-2.62-3.75-4.61-4.93-1.99-1.18-4.37-1.77-7.12-1.77s-5.1.59-7.1,1.77c-2,1.18-3.54,2.82-4.63,4.93-1.08,2.11-1.62,4.58-1.62,7.41s.54,5.25,1.62,7.36c1.08,2.11,2.62,3.75,4.63,4.93ZM487.95,20.51c.44-1.25,1.09-2.24,1.96-2.95.87-.72,1.96-1.07,3.26-1.07s2.39.36,3.27,1.07c.88.72,1.54,1.7,1.98,2.95.44,1.25.66,2.69.66,4.3s-.22,3-.66,4.26c-.44,1.26-1.1,2.25-1.98,2.98-.88.72-1.97,1.09-3.27,1.09s-2.39-.36-3.26-1.09c-.87-.72-1.53-1.72-1.96-2.98-.44-1.26-.66-2.68-.66-4.26s.22-3.04.66-4.3Z"/><path class="cls-1" d="M18.33,91.04c-.9,1.11-2.02,2.39-3.37,3.86l-12.08,13.11v3.34h23.17v-4.08H9.27v-.29l7.96-8.47c2.15-2.28,3.82-4.21,5-5.79,1.19-1.58,2.02-2.99,2.49-4.24.47-1.25.71-2.53.71-3.85,0-1.9-.48-3.62-1.43-5.15-.95-1.53-2.26-2.75-3.93-3.65s-3.58-1.35-5.75-1.35-4.1.45-5.81,1.35-3.06,2.17-4.05,3.8c-.99,1.63-1.49,3.52-1.49,5.66h4.44c0-1.37.28-2.56.83-3.58.55-1.02,1.34-1.81,2.36-2.37s2.22-.84,3.6-.84c1.3,0,2.47.25,3.49.74,1.03.5,1.84,1.21,2.44,2.14.6.93.9,2.03.9,3.3,0,1.12-.23,2.19-.68,3.19-.46,1-1.13,2.06-2.03,3.16Z"/><polygon class="cls-1" points="40.98 79.27 40.98 111.35 45.55 111.35 45.55 74.98 39.86 74.98 31.95 80.81 31.95 85.79 40.74 79.27 40.98 79.27"/><path class="cls-1" d="M54.81,80.97c-.64.64-.96,1.42-.96,2.33s.32,1.69.96,2.33c.64.64,1.42.96,2.33.96s1.69-.32,2.33-.96c.64-.64.96-1.42.96-2.33s-.32-1.69-.96-2.33c-.64-.64-1.42-.96-2.33-.96s-1.69.32-2.33.96Z"/><path class="cls-1" d="M57.14,99.76c-.91,0-1.69.32-2.33.96-.64.64-.96,1.42-.96,2.33s.32,1.69.96,2.33c.64.64,1.42.96,2.33.96s1.69-.32,2.33-.96c.64-.64.96-1.42.96-2.33s-.32-1.69-.96-2.33c-.64-.64-1.42-.96-2.33-.96Z"/><path class="cls-1" d="M87.01,76.71c-1.91-1.48-4.21-2.22-6.9-2.22s-4.98.74-6.88,2.22c-1.9,1.48-3.37,3.61-4.38,6.4s-1.53,6.14-1.53,10.08.5,7.32,1.51,10.1c1.01,2.78,2.47,4.9,4.37,6.36s4.21,2.2,6.91,2.2,5.03-.73,6.93-2.2,3.36-3.59,4.36-6.37,1.5-6.14,1.5-10.08-.5-7.3-1.51-10.08c-1.01-2.78-2.47-4.92-4.38-6.4ZM87.47,101.06c-.65,2.17-1.6,3.84-2.83,4.99-1.24,1.16-2.74,1.73-4.52,1.73s-3.28-.58-4.52-1.73c-1.24-1.16-2.18-2.82-2.83-4.99-.65-2.17-.98-4.8-.98-7.87s.33-5.73.98-7.91c.65-2.18,1.59-3.85,2.83-5.02,1.24-1.16,2.74-1.75,4.52-1.75s3.28.58,4.52,1.73c1.24,1.16,2.18,2.83,2.83,5.02.65,2.19.98,4.83.98,7.92s-.33,5.7-.98,7.87Z"/><path class="cls-1" d="M111.66,74.49c-2.69,0-4.98.74-6.88,2.22-1.9,1.48-3.37,3.61-4.38,6.4s-1.53,6.14-1.53,10.08.5,7.32,1.51,10.1c1.01,2.78,2.47,4.9,4.37,6.36s4.21,2.2,6.91,2.2,5.03-.73,6.93-2.2,3.36-3.59,4.36-6.37,1.5-6.14,1.5-10.08-.5-7.3-1.51-10.08c-1.01-2.78-2.47-4.92-4.38-6.4-1.91-1.48-4.21-2.22-6.9-2.22ZM119.99,93.19c0,3.08-.33,5.7-.98,7.87-.65,2.17-1.6,3.84-2.83,4.99-1.24,1.16-2.74,1.73-4.52,1.73s-3.28-.58-4.52-1.73c-1.24-1.16-2.18-2.82-2.83-4.99-.65-2.17-.98-4.8-.98-7.87s.33-5.73.98-7.91c.65-2.18,1.59-3.85,2.83-5.02,1.24-1.16,2.74-1.75,4.52-1.75s3.28.58,4.52,1.73c1.24,1.16,2.18,2.83,2.83,5.02.65,2.19.98,4.83.98,7.92Z"/><path class="cls-1" d="M149.75,74.98h-4.39v36.38h4.39v-16.36c0-1.56.3-2.89.9-3.98.6-1.09,1.42-1.92,2.47-2.49,1.04-.57,2.21-.85,3.52-.85,1.9,0,3.41.59,4.5,1.78,1.1,1.19,1.65,2.83,1.65,4.93v16.97h4.42v-17.33c0-2.31-.39-4.23-1.16-5.75-.77-1.52-1.86-2.66-3.25-3.42s-3.01-1.14-4.85-1.14c-2.07,0-3.87.53-5.41,1.59-1.12.77-2.05,1.94-2.79,3.48v-13.81Z"/><path class="cls-1" d="M175.84,87.54c-.88,1.2-1.32,2.58-1.32,4.14,0,1.92.6,3.5,1.81,4.72,1.2,1.23,3.04,2.14,5.52,2.72l4.54,1.07c1.35.31,2.36.78,3.01,1.4.66.63.99,1.41.99,2.36,0,1.12-.57,2.09-1.7,2.91-1.13.81-2.65,1.22-4.55,1.22-1.63,0-2.98-.35-4.07-1.05-1.08-.7-1.82-1.8-2.21-3.3l-4.17,1c.33,1.56.96,2.88,1.9,3.96.94,1.07,2.14,1.88,3.6,2.43s3.12.82,4.99.82c2.13,0,4.01-.36,5.63-1.07s2.88-1.7,3.78-2.94,1.36-2.67,1.36-4.26c0-1.87-.59-3.42-1.78-4.65-1.19-1.23-3.02-2.14-5.49-2.72l-4.13-.98c-1.6-.37-2.76-.87-3.49-1.48s-1.1-1.42-1.1-2.43c0-1.14.54-2.08,1.62-2.83,1.08-.75,2.44-1.12,4.07-1.12,1.76,0,3.07.4,3.94,1.2.87.8,1.49,1.68,1.87,2.66l3.98-1.03c-.41-1.29-1.02-2.42-1.84-3.41-.82-.98-1.89-1.76-3.2-2.32s-2.9-.84-4.77-.84-3.67.34-5.19,1.01c-1.52.68-2.72,1.61-3.6,2.81Z"/><path class="cls-1" d="M4.92,183.71c1.67.72,3.67,1.07,6.01,1.07s4.4-.36,6.12-1.07c1.72-.72,3.11-1.73,4.15-3.04,1.04-1.31,1.71-2.84,1.99-4.6.2-1.24.15-2.32-.14-3.25-.29-.93-.77-1.74-1.46-2.42s-1.51-1.26-2.49-1.72c-.98-.46-2.05-.84-3.22-1.12l-2.5-.64c-.79-.2-1.52-.44-2.19-.74-.66-.3-1.17-.69-1.52-1.16-.35-.48-.47-1.06-.35-1.77.12-.65.4-1.23.85-1.74s1.05-.9,1.82-1.19c.76-.29,1.65-.43,2.67-.43,1.5,0,2.64.32,3.42.97s1.13,1.55,1.05,2.71h5.74c.26-1.72.01-3.23-.74-4.53-.76-1.3-1.9-2.32-3.45-3.06-1.54-.74-3.39-1.1-5.54-1.1s-4.02.37-5.72,1.1c-1.71.74-3.11,1.76-4.21,3.08-1.1,1.32-1.79,2.85-2.06,4.61-.35,2.16.08,3.87,1.3,5.14,1.22,1.26,2.97,2.18,5.26,2.75l3.09.8c1.03.26,1.89.55,2.58.87.69.32,1.19.7,1.51,1.15.32.45.42,1.01.3,1.67-.12.74-.44,1.39-.98,1.95-.53.56-1.22.99-2.07,1.3-.85.31-1.8.46-2.85.46s-2.02-.16-2.8-.49c-.79-.33-1.38-.82-1.79-1.47-.4-.66-.56-1.47-.47-2.45H.44c-.29,2.06-.03,3.79.77,5.2s2.04,2.47,3.71,3.18Z"/><path class="cls-1" d="M43.37,166.19h-.2c-.17-.59-.46-1.18-.86-1.8-.4-.61-.98-1.12-1.73-1.53-.75-.41-1.74-.62-2.98-.62-1.62,0-3.16.42-4.65,1.25-1.48.83-2.77,2.08-3.85,3.74-1.08,1.66-1.83,3.73-2.25,6.22-.4,2.42-.35,4.47.16,6.14.51,1.67,1.36,2.95,2.57,3.82,1.2.87,2.64,1.31,4.31,1.31,1.18,0,2.22-.2,3.11-.6.88-.4,1.63-.89,2.25-1.48.61-.59,1.11-1.19,1.48-1.79h.27l-.57,3.5h5.76l3.61-21.84h-5.84l-.61,3.67ZM42.28,173.46c-.21,1.3-.58,2.44-1.11,3.43-.53.98-1.2,1.75-1.98,2.3-.79.55-1.68.83-2.69.83s-1.83-.28-2.43-.84c-.61-.56-1.01-1.33-1.2-2.32-.2-.99-.19-2.12.02-3.4.21-1.28.57-2.4,1.08-3.38.51-.98,1.17-1.74,1.96-2.3.79-.56,1.71-.84,2.73-.84s1.81.27,2.42.8c.61.53,1.02,1.29,1.22,2.27.2.98.19,2.13-.03,3.46Z"/><polygon class="cls-1" points="56.03 155.25 51.2 184.35 57.06 184.35 61.88 155.25 56.03 155.25"/><path class="cls-1" d="M80.18,163.37c-1.39-.75-3.06-1.12-5.01-1.12s-3.7.36-5.22,1.09c-1.53.73-2.83,1.73-3.89,2.99-1.06,1.26-1.87,2.7-2.43,4.3-.56,1.6-.84,3.28-.84,5.04s.36,3.44,1.09,4.8c.73,1.37,1.78,2.43,3.16,3.18,1.38.75,3.06,1.13,5.04,1.13s3.67-.36,5.21-1.09c1.53-.73,2.83-1.72,3.9-2.98,1.07-1.26,1.88-2.69,2.43-4.3.55-1.61.83-3.29.83-5.05s-.37-3.44-1.09-4.81c-.73-1.37-1.79-2.43-3.17-3.18ZM78.19,174.11c-.25,1.04-.63,2.01-1.14,2.93-.51.92-1.17,1.67-1.95,2.26-.79.59-1.73.88-2.82.88-1.21,0-2.12-.4-2.71-1.21-.6-.81-.9-1.86-.9-3.16,0-.92.12-1.9.37-2.93.25-1.03.62-2,1.13-2.91.51-.91,1.16-1.66,1.95-2.24.79-.58,1.74-.87,2.83-.87.81,0,1.48.18,2.01.55.53.36.93.87,1.2,1.52.27.65.4,1.41.4,2.29s-.12,1.87-.37,2.9Z"/><path class="cls-1" d="M108.54,166.21c-.44-1.26-1.2-2.24-2.27-2.93-1.07-.69-2.38-1.04-3.95-1.04-1.77,0-3.29.47-4.57,1.42-1,.74-1.87,1.75-2.61,3.02l.58-4.16h-5.51l-3.63,21.84h5.86l2.07-12.46c.16-.96.47-1.8.96-2.51.48-.71,1.08-1.26,1.81-1.65s1.52-.59,2.39-.59c1.16,0,2.03.35,2.62,1.04.59.7.76,1.73.53,3.1l-2.17,13.07h5.86l2.27-13.69c.29-1.71.21-3.19-.23-4.45Z"/><path class="cls-1" d="M138.31,166.37h-.21c-.17-.59-.46-1.2-.88-1.84-.42-.64-1.02-1.18-1.82-1.62-.79-.44-1.84-.66-3.12-.66-1.69,0-3.2.4-4.51,1.19-1.32.79-2.43,1.86-3.33,3.18-.91,1.33-1.59,2.81-2.06,4.44-.47,1.63-.7,3.29-.7,4.97,0,2.8.7,4.95,2.11,6.45,1.41,1.5,3.22,2.25,5.43,2.25,1.15,0,2.14-.19,2.98-.56s1.55-.85,2.13-1.44c.58-.59,1.05-1.21,1.42-1.88h.31l-.62,3.5h5.76l4.82-29.1h-5.86l-1.84,11.11ZM137.09,174.24c-.27,1.03-.67,1.98-1.2,2.86-.53.88-1.2,1.59-1.98,2.12-.79.53-1.7.8-2.74.8-1.19,0-2.06-.39-2.64-1.18-.57-.79-.86-1.83-.86-3.13,0-.99.13-2,.4-3.02.27-1.02.66-1.97,1.19-2.84.53-.87,1.18-1.58,1.96-2.11.78-.53,1.69-.8,2.73-.8,1.18,0,2.07.38,2.66,1.14s.88,1.8.88,3.12c0,1-.13,2.02-.4,3.05Z"/><path class="cls-1" d="M159.65,179.72c-.85.46-1.83.69-2.94.69s-1.89-.19-2.5-.58c-.61-.38-1.04-.91-1.3-1.57s-.38-1.41-.38-2.25c0-.26.03-.55.04-.83,1.62-.05,3.13-.12,4.51-.24,2.27-.2,4.17-.54,5.72-1.03,1.55-.49,2.72-1.17,3.52-2.05.79-.88,1.19-2,1.19-3.35s-.35-2.46-1.05-3.41c-.7-.94-1.66-1.67-2.88-2.19-1.22-.51-2.59-.77-4.13-.77-1.85,0-3.54.37-5.08,1.1-1.54.74-2.87,1.74-3.98,3.02-1.12,1.28-1.98,2.74-2.59,4.4s-.91,3.41-.91,5.24.38,3.46,1.13,4.79c.75,1.33,1.84,2.35,3.24,3.06s3.08,1.06,5.02,1.06c2.56,0,4.77-.58,6.62-1.74,1.85-1.16,3.13-2.69,3.85-4.59l-5.25-.7c-.38.82-.99,1.46-1.85,1.92ZM155.69,167.56c.82-.66,1.87-1,3.14-1,.99,0,1.77.2,2.35.61.58.4.87.95.87,1.64,0,.57-.17,1.04-.52,1.42-.35.37-.96.67-1.84.89-.88.22-2.12.37-3.71.46-.82.04-1.76.08-2.82.1.17-.55.36-1.08.6-1.61.46-1,1.09-1.84,1.91-2.5Z"/><polygon class="cls-1" points="169.78 184.35 175.63 184.35 180.46 155.25 174.6 155.25 169.78 184.35"/><path class="cls-1" d="M211.12,174.39c-.27.79-.66,1.5-1.15,2.13-.5.62-1.08,1.16-1.75,1.59-.67.44-1.4.77-2.19,1-.79.23-1.62.34-2.49.34-1.21,0-2.26-.25-3.15-.74-.89-.49-1.58-1.23-2.06-2.22-.48-.98-.72-2.2-.72-3.66s.21-3.01.63-4.5c.42-1.49,1.05-2.85,1.88-4.09.83-1.24,1.85-2.23,3.07-2.97,1.22-.74,2.62-1.11,4.21-1.11.81,0,1.53.11,2.17.34.64.23,1.18.56,1.64,1,.46.44.8.97,1.04,1.59.24.62.36,1.33.36,2.13h6.04c.05-1.67-.18-3.14-.69-4.41-.51-1.28-1.27-2.36-2.28-3.24-1-.89-2.19-1.56-3.57-2.01-1.38-.46-2.91-.68-4.59-.68-2.42,0-4.61.49-6.57,1.46-1.96.98-3.63,2.31-5.02,3.99-1.39,1.69-2.45,3.61-3.19,5.76-.74,2.16-1.11,4.42-1.11,6.79,0,2.51.48,4.66,1.46,6.43.97,1.77,2.33,3.12,4.07,4.05,1.74.93,3.77,1.4,6.07,1.4,1.8,0,3.46-.28,4.98-.84s2.89-1.33,4.09-2.3c1.2-.98,2.22-2.08,3.05-3.32.83-1.24,1.44-2.53,1.83-3.89h-6.04Z"/><path class="cls-1" d="M238.82,180.71c1.07-1.26,1.88-2.69,2.43-4.3.55-1.61.83-3.29.83-5.05s-.37-3.44-1.09-4.81c-.73-1.37-1.79-2.43-3.17-3.18-1.39-.75-3.06-1.12-5.01-1.12s-3.7.36-5.22,1.09c-1.53.73-2.83,1.73-3.89,2.99-1.06,1.26-1.87,2.7-2.43,4.3-.56,1.6-.84,3.28-.84,5.04s.36,3.44,1.09,4.8c.73,1.37,1.78,2.43,3.16,3.18,1.38.75,3.06,1.13,5.04,1.13s3.67-.36,5.21-1.09c1.53-.73,2.83-1.72,3.9-2.98ZM235.83,174.11c-.25,1.04-.63,2.01-1.14,2.93-.51.92-1.17,1.67-1.95,2.26-.79.59-1.73.88-2.82.88-1.21,0-2.12-.4-2.71-1.21-.6-.81-.9-1.86-.9-3.16,0-.92.12-1.9.37-2.93.25-1.03.62-2,1.13-2.91.51-.91,1.16-1.66,1.95-2.24.79-.58,1.74-.87,2.83-.87.81,0,1.48.18,2.01.55.53.36.93.87,1.2,1.52.27.65.4,1.41.4,2.29s-.12,1.87-.37,2.9Z"/><polygon class="cls-1" points="244.23 184.35 250.09 184.35 254.91 155.25 249.05 155.25 244.23 184.35"/><path class="cls-1" d="M271.79,183.08c1.85-1.16,3.13-2.69,3.85-4.59l-5.25-.7c-.38.82-.99,1.46-1.85,1.92-.85.46-1.83.69-2.94.69s-1.89-.19-2.5-.58c-.61-.38-1.04-.91-1.3-1.57s-.38-1.41-.38-2.25c0-.26.03-.55.04-.83,1.62-.05,3.13-.12,4.51-.24,2.27-.2,4.17-.54,5.72-1.03,1.55-.49,2.72-1.17,3.52-2.05.79-.88,1.19-2,1.19-3.35s-.35-2.46-1.05-3.41c-.7-.94-1.66-1.67-2.88-2.19-1.22-.51-2.59-.77-4.13-.77-1.85,0-3.54.37-5.08,1.1-1.54.74-2.87,1.74-3.98,3.02-1.12,1.28-1.98,2.74-2.59,4.4s-.91,3.41-.91,5.24.38,3.46,1.13,4.79c.75,1.33,1.84,2.35,3.24,3.06s3.08,1.06,5.02,1.06c2.56,0,4.77-.58,6.62-1.74ZM264.58,167.56c.82-.66,1.87-1,3.14-1,.99,0,1.77.2,2.35.61.58.4.87.95.87,1.64,0,.57-.17,1.04-.52,1.42-.35.37-.96.67-1.84.89-.88.22-2.12.37-3.71.46-.82.04-1.76.08-2.82.1.17-.55.36-1.08.6-1.61.46-1,1.09-1.84,1.91-2.5Z"/><path class="cls-1" d="M296.16,166.33l-.27.04c-.13-.43-.33-.88-.6-1.36-.27-.48-.63-.92-1.08-1.35-.46-.42-1.03-.76-1.72-1.03-.69-.26-1.52-.39-2.48-.39-1.68,0-3.18.39-4.49,1.17-1.32.78-2.43,1.83-3.34,3.13-.91,1.31-1.6,2.77-2.07,4.38-.47,1.61-.7,3.25-.7,4.9,0,1.82.33,3.34.99,4.56.66,1.22,1.56,2.13,2.71,2.73s2.46.91,3.92.91c1.13,0,2.1-.17,2.89-.51.79-.34,1.46-.78,2.01-1.32.55-.54,1.01-1.1,1.39-1.69l.53-.04-.66,3.83c-.26,1.43-.91,2.53-1.94,3.28-1.04.75-2.34,1.13-3.92,1.13-.91,0-1.65-.11-2.21-.34-.56-.23-.99-.51-1.29-.86-.3-.35-.5-.71-.61-1.1l-5.12,1.02c.14,1.03.58,1.96,1.31,2.8.73.84,1.75,1.51,3.07,2,1.31.49,2.91.74,4.79.74,2.02,0,3.85-.31,5.49-.93,1.64-.62,3-1.57,4.08-2.84,1.08-1.28,1.79-2.9,2.13-4.86l3.63-21.84h-5.78l-.64,3.81ZM294.82,174.1c-.25.99-.64,1.9-1.15,2.72-.51.83-1.17,1.49-1.95,2-.79.51-1.71.76-2.76.76-1.2,0-2.09-.36-2.69-1.07-.59-.72-.89-1.72-.89-3.01,0-.98.13-1.97.4-2.97.27-1,.67-1.93,1.2-2.77.53-.85,1.19-1.53,1.98-2.05.79-.52,1.69-.78,2.71-.78,1.18,0,2.07.38,2.66,1.13.59.76.88,1.79.88,3.11,0,.96-.13,1.94-.38,2.93Z"/><polygon class="cls-1" points="303.96 184.35 309.81 184.35 313.43 162.52 307.57 162.52 303.96 184.35"/><path class="cls-1" d="M311.96,153.65c-.87,0-1.67.29-2.4.88-.73.59-1.17,1.3-1.31,2.13-.13.83.07,1.54.6,2.13s1.23.88,2.12.88,1.69-.3,2.42-.89c.73-.59,1.16-1.3,1.29-2.12.14-.83-.05-1.54-.59-2.13-.53-.59-1.24-.88-2.13-.88Z"/><path class="cls-1" d="M319.79,183.65c1.38.75,3.06,1.13,5.04,1.13s3.67-.36,5.21-1.09c1.53-.73,2.83-1.72,3.9-2.98,1.07-1.26,1.88-2.69,2.43-4.3.55-1.61.83-3.29.83-5.05s-.37-3.44-1.09-4.81c-.73-1.37-1.79-2.43-3.17-3.18-1.39-.75-3.06-1.12-5.01-1.12s-3.7.36-5.22,1.09c-1.53.73-2.83,1.73-3.89,2.99-1.06,1.26-1.87,2.7-2.43,4.3-.56,1.6-.84,3.28-.84,5.04s.36,3.44,1.09,4.8c.73,1.37,1.78,2.43,3.16,3.18ZM321.79,172.87c.25-1.03.62-2,1.13-2.91.51-.91,1.16-1.66,1.95-2.24.79-.58,1.74-.87,2.83-.87.81,0,1.48.18,2.01.55.53.36.93.87,1.2,1.52.27.65.4,1.41.4,2.29s-.12,1.87-.37,2.9c-.25,1.04-.63,2.01-1.14,2.93-.51.92-1.17,1.67-1.95,2.26-.79.59-1.73.88-2.82.88-1.21,0-2.12-.4-2.71-1.21-.6-.81-.9-1.86-.9-3.16,0-.92.12-1.9.37-2.93Z"/><path class="cls-1" d="M372.98,177.62c1.37-2.17,2.3-4.78,2.81-7.81.51-3.02.34-5.62-.5-7.79-.84-2.17-2.25-3.84-4.22-5.01-1.97-1.17-4.42-1.75-7.35-1.75h-9.94l-4.82,29.1h11.04c2.94,0,5.5-.58,7.68-1.74,2.17-1.16,3.95-2.83,5.31-5ZM364.63,178.22c-1.37.66-3,1-4.87,1h-3.99l3.12-18.83h4.11c1.85,0,3.34.33,4.48.99,1.14.66,1.91,1.68,2.31,3.07.4,1.39.42,3.17.06,5.34-.35,2.16-.97,3.94-1.85,5.34-.88,1.4-2.01,2.43-3.38,3.1Z"/><path class="cls-1" d="M382.76,183.76c1.41.71,3.08,1.06,5.02,1.06,2.56,0,4.77-.58,6.62-1.74,1.85-1.16,3.13-2.69,3.85-4.59l-5.25-.7c-.38.82-.99,1.46-1.85,1.92-.85.46-1.83.69-2.94.69s-1.89-.19-2.5-.58c-.61-.38-1.04-.91-1.3-1.57s-.38-1.41-.38-2.25c0-.26.03-.55.04-.83,1.62-.05,3.13-.12,4.51-.24,2.27-.2,4.17-.54,5.72-1.03,1.55-.49,2.72-1.17,3.52-2.05.79-.88,1.19-2,1.19-3.35s-.35-2.46-1.05-3.41c-.7-.94-1.66-1.67-2.88-2.19-1.22-.51-2.59-.77-4.13-.77-1.85,0-3.54.37-5.08,1.1-1.54.74-2.87,1.74-3.98,3.02-1.12,1.28-1.98,2.74-2.59,4.4s-.91,3.41-.91,5.24.38,3.46,1.13,4.79c.75,1.33,1.84,2.35,3.24,3.06ZM387.2,167.56c.82-.66,1.87-1,3.14-1,.99,0,1.77.2,2.35.61.58.4.87.95.87,1.64,0,.57-.17,1.04-.52,1.42-.35.37-.96.67-1.84.89-.88.22-2.12.37-3.71.46-.82.04-1.76.08-2.82.1.17-.55.36-1.08.6-1.61.46-1,1.09-1.84,1.91-2.5Z"/><path class="cls-1" d="M429.65,177.6l1.12,6.76h6.39l-5.37-29.1h-7.81l-14.77,29.1h6.82l3.29-6.76h10.34ZM425.48,164.32c.58-1.4,1.18-2.88,1.81-4.41.14,1.58.29,3.08.44,4.5.23,2.19.47,4.15.72,5.9l.43,2.62h-7.29l1.27-2.62c.85-1.81,1.72-3.81,2.62-6Z"/><path class="cls-1" d="M446.98,180.74h.31c.2.6.51,1.2.95,1.82.44.61,1.05,1.13,1.84,1.54.79.42,1.8.62,3.04.62,1.8,0,3.36-.42,4.69-1.27,1.33-.85,2.43-1.95,3.31-3.32s1.54-2.86,1.97-4.48c.44-1.62.65-3.21.65-4.78,0-1.9-.33-3.49-.99-4.78-.66-1.28-1.55-2.25-2.68-2.89-1.13-.64-2.41-.97-3.86-.97-1.19,0-2.2.2-3.04.6-.84.4-1.54.9-2.11,1.51-.57.61-1.03,1.22-1.4,1.84h-.23l1.86-10.94h-5.86l-4.82,29.1h5.76l.61-3.61ZM448.33,172.65c.27-1.02.67-1.97,1.2-2.83.53-.87,1.18-1.56,1.97-2.09.79-.53,1.7-.79,2.74-.79,1.2,0,2.08.39,2.66,1.16.57.77.86,1.81.86,3.12,0,.9-.12,1.86-.37,2.87-.25,1.02-.63,1.97-1.15,2.87-.52.9-1.18,1.63-1.97,2.21-.79.57-1.73.86-2.81.86-1.16,0-2.04-.39-2.64-1.16-.6-.77-.9-1.83-.9-3.17,0-1,.14-2.01.41-3.04Z"/><path class="cls-1" d="M481.07,183.69c1.53-.73,2.83-1.72,3.9-2.98,1.07-1.26,1.88-2.69,2.43-4.3.55-1.61.83-3.29.83-5.05s-.37-3.44-1.09-4.81c-.73-1.37-1.79-2.43-3.17-3.18-1.39-.75-3.06-1.12-5.01-1.12s-3.7.36-5.22,1.09c-1.53.73-2.83,1.73-3.89,2.99-1.06,1.26-1.87,2.7-2.43,4.3-.56,1.6-.84,3.28-.84,5.04s.36,3.44,1.09,4.8c.73,1.37,1.78,2.43,3.16,3.18,1.38.75,3.06,1.13,5.04,1.13s3.67-.36,5.21-1.09ZM473.35,178.96c-.6-.81-.9-1.86-.9-3.16,0-.92.12-1.9.37-2.93.25-1.03.62-2,1.13-2.91.51-.91,1.16-1.66,1.95-2.24.79-.58,1.74-.87,2.83-.87.81,0,1.48.18,2.01.55.53.36.93.87,1.2,1.52.27.65.4,1.41.4,2.29s-.12,1.87-.37,2.9c-.25,1.04-.63,2.01-1.14,2.93-.51.92-1.17,1.67-1.95,2.26-.79.59-1.73.88-2.82.88-1.21,0-2.12-.4-2.71-1.21Z"/><path class="cls-1" d="M508.53,162.52l-.64,3.81-.27.04c-.13-.43-.33-.88-.6-1.36-.27-.48-.63-.92-1.08-1.35-.46-.42-1.03-.76-1.72-1.03-.69-.26-1.52-.39-2.48-.39-1.68,0-3.18.39-4.49,1.17-1.32.78-2.43,1.83-3.34,3.13-.91,1.31-1.6,2.77-2.07,4.38-.47,1.61-.7,3.25-.7,4.9,0,1.82.33,3.34.99,4.56.66,1.22,1.56,2.13,2.71,2.73s2.46.91,3.92.91c1.13,0,2.1-.17,2.89-.51.79-.34,1.46-.78,2.01-1.32.55-.54,1.01-1.1,1.39-1.69l.53-.04-.66,3.83c-.26,1.43-.91,2.53-1.94,3.28-1.04.75-2.34,1.13-3.92,1.13-.91,0-1.65-.11-2.21-.34-.56-.23-.99-.51-1.29-.86-.3-.35-.5-.71-.61-1.1l-5.12,1.02c.14,1.03.58,1.96,1.31,2.8.73.84,1.75,1.51,3.07,2,1.31.49,2.91.74,4.79.74,2.02,0,3.85-.31,5.49-.93,1.64-.62,3-1.57,4.08-2.84,1.08-1.28,1.79-2.9,2.13-4.86l3.63-21.84h-5.78ZM506.54,174.1c-.25.99-.64,1.9-1.15,2.72-.51.83-1.17,1.49-1.95,2-.79.51-1.71.76-2.76.76-1.2,0-2.09-.36-2.69-1.07-.59-.72-.89-1.72-.89-3.01,0-.98.13-1.97.4-2.97.27-1,.67-1.93,1.2-2.77.53-.85,1.19-1.53,1.98-2.05.79-.52,1.69-.78,2.71-.78,1.18,0,2.07.38,2.66,1.13.59.76.88,1.79.88,3.11,0,.96-.13,1.94-.38,2.93Z"/><path class="cls-1" d="M533.66,162.52l-.61,3.67h-.2c-.17-.59-.46-1.18-.86-1.8-.4-.61-.98-1.12-1.73-1.53-.75-.41-1.74-.62-2.98-.62-1.62,0-3.16.42-4.65,1.25-1.48.83-2.77,2.08-3.85,3.74-1.08,1.66-1.83,3.73-2.25,6.22-.4,2.42-.35,4.47.16,6.14.51,1.67,1.36,2.95,2.57,3.82,1.2.87,2.64,1.31,4.31,1.31,1.18,0,2.22-.2,3.11-.6.88-.4,1.63-.89,2.25-1.48.61-.59,1.11-1.19,1.48-1.79h.27l-.57,3.5h5.76l3.61-21.84h-5.84ZM531.96,173.46c-.21,1.3-.58,2.44-1.11,3.43-.53.98-1.2,1.75-1.98,2.3-.79.55-1.68.83-2.69.83s-1.83-.28-2.43-.84c-.61-.56-1.01-1.33-1.2-2.32-.2-.99-.19-2.12.02-3.4.21-1.28.57-2.4,1.08-3.38.51-.98,1.17-1.74,1.96-2.3.79-.56,1.71-.84,2.73-.84s1.81.27,2.42.8c.61.53,1.02,1.29,1.22,2.27.2.98.19,2.13-.03,3.46Z"/><path class="cls-1" d="M561.1,184.35l4.82-29.1h-5.86l-1.84,11.11h-.21c-.17-.59-.46-1.2-.88-1.84-.42-.64-1.02-1.18-1.82-1.62-.79-.44-1.84-.66-3.12-.66-1.69,0-3.2.4-4.51,1.19-1.32.79-2.43,1.86-3.33,3.18-.91,1.33-1.59,2.81-2.06,4.44-.47,1.63-.7,3.29-.7,4.97,0,2.8.7,4.95,2.11,6.45,1.41,1.5,3.22,2.25,5.43,2.25,1.15,0,2.14-.19,2.98-.56s1.55-.85,2.13-1.44c.58-.59,1.05-1.21,1.42-1.88h.31l-.62,3.5h5.76ZM555.81,177.1c-.53.88-1.2,1.59-1.98,2.12-.79.53-1.7.8-2.74.8-1.19,0-2.06-.39-2.64-1.18-.57-.79-.86-1.83-.86-3.13,0-.99.13-2,.4-3.02.27-1.02.66-1.97,1.19-2.84.53-.87,1.18-1.58,1.96-2.11.78-.53,1.69-.8,2.73-.8,1.18,0,2.07.38,2.66,1.14s.88,1.8.88,3.12c0,1-.13,2.02-.4,3.05-.27,1.03-.67,1.98-1.2,2.86Z"/><path class="cls-1" d="M571.1,183.65c1.38.75,3.06,1.13,5.04,1.13s3.67-.36,5.21-1.09c1.53-.73,2.83-1.72,3.9-2.98,1.07-1.26,1.88-2.69,2.43-4.3.55-1.61.83-3.29.83-5.05s-.37-3.44-1.09-4.81c-.73-1.37-1.79-2.43-3.17-3.18-1.39-.75-3.06-1.12-5.01-1.12s-3.7.36-5.22,1.09c-1.53.73-2.83,1.73-3.89,2.99-1.06,1.26-1.87,2.7-2.43,4.3-.56,1.6-.84,3.28-.84,5.04s.36,3.44,1.09,4.8c.73,1.37,1.78,2.43,3.16,3.18ZM573.1,172.87c.25-1.03.62-2,1.13-2.91.51-.91,1.16-1.66,1.95-2.24.79-.58,1.74-.87,2.83-.87.81,0,1.48.18,2.01.55.53.36.93.87,1.2,1.52.27.65.4,1.41.4,2.29s-.12,1.87-.37,2.9c-.25,1.04-.63,2.01-1.14,2.93-.51.92-1.17,1.67-1.95,2.26-.79.59-1.73.88-2.82.88-1.21,0-2.12-.4-2.71-1.21-.6-.81-.9-1.86-.9-3.16,0-.92.12-1.9.37-2.93Z"/><path class="cls-1" d="M599.35,167.58c.42-.36.93-.64,1.54-.84.61-.2,1.24-.29,1.88-.29,1.04,0,1.8.21,2.29.62.48.41.77.99.88,1.73l5.21-.53c0-.08,0-.15-.02-.21-.01-.06-.03-.14-.06-.21-.18-1.67-.97-3.01-2.37-4.04-1.4-1.03-3.38-1.54-5.95-1.54-1.75,0-3.36.27-4.83.81-1.48.54-2.68,1.33-3.6,2.37-.92,1.04-1.43,2.32-1.52,3.83-.12,1.5.28,2.76,1.19,3.78.91,1.02,2.32,1.74,4.22,2.14l3.63.78c.87.18,1.49.44,1.85.78.36.34.52.76.48,1.25-.05.53-.29.99-.71,1.36-.42.37-.95.65-1.59.85-.64.2-1.32.29-2.03.29-1.19,0-2.06-.22-2.63-.66-.57-.44-.9-1.17-1.01-2.19l-5.49.57s0,.08,0,.13c0,.05,0,.1,0,.17.08,1.29.48,2.4,1.2,3.34s1.73,1.66,3.04,2.18c1.3.51,2.83.77,4.59.77,1.37,0,2.67-.17,3.92-.5,1.24-.33,2.36-.82,3.35-1.46.99-.64,1.78-1.41,2.37-2.32.59-.91.93-1.95,1.01-3.11.12-1.47-.28-2.68-1.2-3.63-.92-.95-2.33-1.62-4.25-2.01l-3.79-.78c-.91-.21-1.54-.48-1.88-.8-.34-.33-.48-.74-.43-1.23.05-.55.29-1,.7-1.37Z"/><path class="cls-1" d="M9.25,198.89L0,224.35h3.45l2.47-7.11h10.49l2.54,7.11h3.42l-9.37-25.46h-3.76ZM15.4,214.41H6.91l1.79-5.16c.3-.87.67-2.01,1.12-3.43.37-1.18.81-2.63,1.29-4.34.49,1.68.92,3.12,1.29,4.27.44,1.4.82,2.56,1.15,3.5l1.84,5.16Z"/><path class="cls-1" d="M32.2,216.58c-.42,1.17-.78,2.34-1.08,3.51-.12.47-.26.91-.39,1.38-.13-.46-.26-.9-.38-1.38-.3-1.17-.67-2.34-1.1-3.51l-4.07-11.33h-3.37l7.3,19.11h3.23l7.3-19.11h-3.37l-4.07,11.33Z"/><path class="cls-1" d="M44.06,219.96c-.64,0-1.18.23-1.63.68s-.67.99-.67,1.63.22,1.18.67,1.63c.45.45.99.68,1.63.68s1.18-.22,1.63-.68c.45-.45.67-.99.67-1.63s-.22-1.18-.67-1.63-.99-.68-1.63-.68Z"/><path class="cls-1" d="M68.19,202.72c1.23-.77,2.61-1.16,4.14-1.16.83,0,1.63.11,2.39.34.76.23,1.46.57,2.09,1.03.63.46,1.17,1.01,1.61,1.67.44.66.75,1.43.93,2.31h3.25c-.23-1.31-.65-2.48-1.26-3.51-.61-1.03-1.37-1.91-2.28-2.63-.91-.72-1.94-1.27-3.08-1.65-1.15-.38-2.36-.56-3.65-.56-2.18,0-4.12.53-5.82,1.59s-3.04,2.57-4.02,4.52c-.97,1.95-1.46,4.28-1.46,6.98s.49,5.01,1.46,6.96c.97,1.95,2.31,3.46,4.02,4.51,1.7,1.05,3.64,1.58,5.82,1.58,1.3,0,2.52-.19,3.67-.57,1.15-.38,2.17-.94,3.08-1.67.91-.73,1.67-1.61,2.28-2.63s1.02-2.19,1.24-3.49h-3.25c-.18.87-.49,1.63-.93,2.3-.44.67-.97,1.23-1.61,1.67-.63.45-1.33.79-2.09,1.03-.76.23-1.56.35-2.39.35-1.52,0-2.89-.38-4.12-1.15-1.23-.77-2.21-1.9-2.93-3.4-.72-1.5-1.08-3.33-1.08-5.49s.36-4.01,1.08-5.51c.72-1.5,1.69-2.63,2.92-3.41Z"/><path class="cls-1" d="M88.76,198.05c-.58,0-1.08.2-1.5.59-.42.39-.63.88-.63,1.44s.21,1.04.63,1.44c.42.4.92.6,1.5.6s1.1-.2,1.52-.6c.42-.4.63-.88.63-1.44s-.21-1.05-.63-1.44c-.42-.39-.93-.59-1.52-.59Z"/><rect class="cls-1" x="87.21" y="205.25" width="3.08" height="19.11"/><path class="cls-1" d="M103.82,204.97c-1.14,0-2.16.29-3.07.88-.91.59-1.54,1.36-1.89,2.33h-.21v-2.94h-2.97v19.11h3.08v-11.96c0-.87.21-1.63.62-2.3.41-.67.98-1.19,1.7-1.57.72-.38,1.54-.57,2.45-.57.41,0,.8.02,1.16.07.36.05.59.08.68.1v-3.09c-.18-.01-.43-.02-.74-.03-.31-.01-.58-.02-.81-.02Z"/><path class="cls-1" d="M120.29,219.91c-.29.43-.63.81-1.05,1.12-.42.31-.89.56-1.43.73-.54.17-1.12.26-1.76.26-1.28,0-2.32-.33-3.14-.99-.82-.66-1.43-1.53-1.83-2.61-.4-1.08-.6-2.24-.6-3.5s.2-2.46.6-3.54c.4-1.08,1.01-1.96,1.83-2.62.82-.67,1.87-1,3.14-1,.63,0,1.2.08,1.73.25.52.17.99.4,1.39.7s.75.66,1.03,1.07c.28.41.5.86.63,1.35l2.96-.84c-.26-.83-.64-1.57-1.13-2.23-.49-.66-1.07-1.21-1.75-1.66-.68-.45-1.43-.79-2.25-1.03s-1.69-.36-2.62-.36c-1.73,0-3.25.41-4.55,1.23-1.31.82-2.32,1.97-3.05,3.46-.73,1.49-1.09,3.23-1.09,5.22s.36,3.68,1.09,5.16c.73,1.48,1.75,2.63,3.05,3.45,1.3.82,2.82,1.23,4.55,1.23.93,0,1.82-.12,2.65-.37.83-.25,1.59-.6,2.27-1.08.68-.47,1.27-1.04,1.77-1.71.5-.67.87-1.43,1.12-2.28l-2.94-.84c-.14.51-.35.99-.63,1.42Z"/><path class="cls-1" d="M140.48,216.7c0,1.08-.21,2.01-.63,2.78-.42.77-.99,1.35-1.72,1.75-.72.4-1.54.6-2.45.6-1.33,0-2.39-.42-3.16-1.25-.78-.83-1.16-1.98-1.16-3.45v-11.88h-3.08v12.13c0,1.61.27,2.95.81,4.02.54,1.07,1.3,1.87,2.27,2.4.97.53,2.1.79,3.39.79,1.4,0,2.65-.36,3.73-1.09.86-.58,1.56-1.5,2.11-2.74v3.59h2.97v-19.11h-3.09v11.45Z"/><path class="cls-1" d="M161.17,205.8c-.97-.53-2.1-.79-3.38-.79-1.45,0-2.71.37-3.79,1.11-.84.58-1.53,1.48-2.06,2.68v-3.55h-2.97v19.11h3.08v-11.45c0-1.09.21-2.02.63-2.79.42-.76,1-1.34,1.73-1.74.73-.4,1.55-.6,2.46-.6,1.33,0,2.38.42,3.15,1.25.77.83,1.15,1.98,1.15,3.45v11.88h3.08v-12.13c0-1.62-.27-2.96-.81-4.02s-1.3-1.86-2.26-2.39Z"/><path class="cls-1" d="M177.75,216.58c-.42,1.17-.78,2.34-1.08,3.51-.12.47-.26.91-.38,1.38-.13-.46-.26-.9-.39-1.38-.3-1.17-.67-2.34-1.1-3.51l-4.07-11.33h-3.37l7.3,19.11h3.23l7.3-19.11h-3.37l-4.07,11.33Z"/><path class="cls-1" d="M200.27,206.15c-.76-.46-1.54-.76-2.36-.91-.82-.15-1.54-.23-2.18-.23-.98,0-1.97.14-2.97.41s-1.92.74-2.75,1.39c-.83.66-1.49,1.56-1.98,2.73l2.96.97c.21-.44.51-.88.92-1.31.4-.43.93-.78,1.58-1.07.65-.28,1.43-.43,2.34-.43s1.63.15,2.22.44c.59.3,1.04.72,1.33,1.27.3.55.44,1.23.44,2.02v.1c0,.47-.17.8-.52.99-.35.19-.88.33-1.6.41-.72.08-1.65.19-2.79.34-.89.11-1.77.27-2.65.46-.88.19-1.68.49-2.4.88-.72.39-1.3.93-1.73,1.62-.43.68-.65,1.57-.65,2.67,0,1.25.29,2.32.87,3.2.58.88,1.36,1.54,2.35,2,.98.46,2.08.68,3.29.68,1.08,0,2-.16,2.77-.48s1.38-.71,1.86-1.19.83-.93,1.04-1.38h.21v2.6h3.03v-12.6c0-1.49-.25-2.69-.74-3.58-.5-.89-1.12-1.57-1.88-2.02ZM199.81,217.45c0,.77-.21,1.52-.62,2.23s-1.01,1.29-1.79,1.73-1.75.67-2.89.67c-.76,0-1.44-.11-2.03-.34-.59-.23-1.06-.56-1.4-1.01s-.51-1-.51-1.66c0-.73.19-1.31.58-1.73.39-.43.9-.75,1.55-.97.64-.22,1.34-.38,2.08-.47.3-.03.7-.08,1.21-.15s1.03-.14,1.57-.23c.54-.09,1.02-.2,1.44-.32.42-.12.69-.25.82-.4v2.65Z"/><rect class="cls-1" x="208.29" y="198.89" width="3.08" height="25.46"/><path class="cls-1" d="M228.4,206.15c-.76-.46-1.54-.76-2.36-.91-.82-.15-1.54-.23-2.18-.23-.98,0-1.97.14-2.97.41s-1.92.74-2.75,1.39c-.83.66-1.49,1.56-1.98,2.73l2.96.97c.21-.44.51-.88.92-1.31.4-.43.93-.78,1.58-1.07.65-.28,1.43-.43,2.34-.43s1.63.15,2.22.44c.59.3,1.04.72,1.33,1.27.3.55.44,1.23.44,2.02v.1c0,.47-.17.8-.52.99-.35.19-.88.33-1.6.41-.72.08-1.65.19-2.79.34-.89.11-1.77.27-2.65.46-.88.19-1.68.49-2.4.88-.72.39-1.3.93-1.73,1.62-.43.68-.65,1.57-.65,2.67,0,1.25.29,2.32.87,3.2.58.88,1.36,1.54,2.35,2,.98.46,2.08.68,3.29.68,1.08,0,2-.16,2.77-.48s1.38-.71,1.86-1.19.83-.93,1.04-1.38h.21v2.6h3.03v-12.6c0-1.49-.25-2.69-.74-3.58-.5-.89-1.12-1.57-1.88-2.02ZM227.94,217.45c0,.77-.21,1.52-.62,2.23s-1.01,1.29-1.79,1.73-1.75.67-2.89.67c-.76,0-1.44-.11-2.03-.34-.59-.23-1.06-.56-1.4-1.01s-.51-1-.51-1.66c0-.73.19-1.31.58-1.73.39-.43.9-.75,1.55-.97.64-.22,1.34-.38,2.08-.47.3-.03.7-.08,1.21-.15s1.03-.14,1.57-.23c.54-.09,1.02-.2,1.44-.32.42-.12.69-.25.82-.4v2.65Z"/><path class="cls-1" d="M248.43,219.91c-.29.43-.63.81-1.05,1.12-.42.31-.89.56-1.43.73-.54.17-1.12.26-1.76.26-1.28,0-2.32-.33-3.14-.99-.82-.66-1.43-1.53-1.83-2.61-.4-1.08-.6-2.24-.6-3.5s.2-2.46.6-3.54c.4-1.08,1.01-1.96,1.83-2.62.82-.67,1.87-1,3.14-1,.63,0,1.2.08,1.73.25.52.17.99.4,1.39.7s.75.66,1.03,1.07c.28.41.5.86.63,1.35l2.96-.84c-.26-.83-.64-1.57-1.13-2.23-.49-.66-1.07-1.21-1.75-1.66-.68-.45-1.43-.79-2.25-1.03s-1.69-.36-2.62-.36c-1.73,0-3.25.41-4.55,1.23-1.31.82-2.32,1.97-3.05,3.46-.73,1.49-1.09,3.23-1.09,5.22s.36,3.68,1.09,5.16c.73,1.48,1.75,2.63,3.05,3.45,1.3.82,2.82,1.23,4.55,1.23.93,0,1.82-.12,2.65-.37.83-.25,1.59-.6,2.27-1.08.68-.47,1.27-1.04,1.77-1.71.5-.67.87-1.43,1.12-2.28l-2.94-.84c-.14.51-.35.99-.63,1.42Z"/><path class="cls-1" d="M257.97,198.05c-.58,0-1.08.2-1.5.59-.42.39-.63.88-.63,1.44s.21,1.04.63,1.44c.42.4.92.6,1.5.6s1.1-.2,1.52-.6c.42-.4.63-.88.63-1.44s-.21-1.05-.63-1.44c-.42-.39-.93-.59-1.52-.59Z"/><rect class="cls-1" x="256.42" y="205.25" width="3.08" height="19.11"/><path class="cls-1" d="M277.25,206.24c-1.31-.82-2.84-1.23-4.58-1.23s-3.25.41-4.55,1.23c-1.31.82-2.32,1.97-3.05,3.46-.73,1.49-1.09,3.23-1.09,5.22s.36,3.68,1.09,5.16c.73,1.48,1.75,2.63,3.05,3.45,1.3.82,2.82,1.23,4.55,1.23s3.27-.41,4.58-1.23,2.33-1.97,3.06-3.45c.73-1.48,1.09-3.2,1.09-5.16s-.37-3.73-1.09-5.22c-.73-1.49-1.75-2.64-3.06-3.46ZM277.69,218.42c-.4,1.08-1.01,1.95-1.85,2.61-.83.66-1.89.99-3.18.99s-2.32-.33-3.14-.99c-.82-.66-1.43-1.53-1.83-2.61-.4-1.08-.6-2.24-.6-3.5s.2-2.46.6-3.54c.4-1.08,1.01-1.96,1.83-2.62.82-.67,1.87-1,3.14-1s2.35.33,3.18,1c.83.67,1.45,1.54,1.85,2.63.4,1.09.6,2.26.6,3.53s-.2,2.42-.6,3.5Z"/><path class="cls-1" d="M298.08,205.8c-.97-.53-2.1-.79-3.38-.79-1.45,0-2.71.37-3.79,1.11-.84.58-1.53,1.48-2.06,2.68v-3.55h-2.97v19.11h3.08v-11.45c0-1.09.21-2.02.63-2.79.42-.76,1-1.34,1.73-1.74.73-.4,1.55-.6,2.46-.6,1.33,0,2.38.42,3.15,1.25.77.83,1.15,1.98,1.15,3.45v11.88h3.08v-12.13c0-1.62-.27-2.96-.81-4.02-.54-1.07-1.3-1.86-2.26-2.39Z"/><path class="cls-1" d="M332.91,200.14c-1.7-1.06-3.63-1.59-5.81-1.59s-4.12.53-5.82,1.59-3.04,2.57-4.02,4.52c-.98,1.95-1.47,4.28-1.47,6.98s.49,5.01,1.47,6.96c.98,1.95,2.32,3.46,4.02,4.51,1.7,1.05,3.64,1.58,5.82,1.58s4.11-.53,5.81-1.58c1.7-1.05,3.03-2.56,4.01-4.51.97-1.95,1.46-4.27,1.46-6.96s-.49-5.03-1.46-6.98c-.97-1.95-2.31-3.46-4.01-4.52ZM334.13,217.13c-.72,1.5-1.7,2.63-2.92,3.4-1.23.77-2.6,1.15-4.11,1.15s-2.91-.39-4.14-1.16c-1.23-.77-2.21-1.91-2.93-3.4-.72-1.49-1.09-3.32-1.09-5.49s.36-4.01,1.09-5.51c.72-1.5,1.7-2.63,2.93-3.41,1.23-.77,2.61-1.16,4.14-1.16s2.88.38,4.11,1.15c1.22.77,2.2,1.9,2.92,3.4s1.08,3.34,1.08,5.53-.36,4-1.08,5.49Z"/><path class="cls-1" d="M356.52,207.14c-.8-.75-1.7-1.29-2.68-1.62-.99-.34-1.99-.5-3-.5-1.73,0-3.24.42-4.54,1.26-1.29.84-2.29,2.01-3,3.5-.71,1.49-1.06,3.22-1.06,5.18s.36,3.67,1.08,5.14,1.75,2.61,3.09,3.44c1.34.82,2.93,1.23,4.78,1.23,1.31,0,2.49-.21,3.53-.62,1.04-.41,1.92-.98,2.62-1.71.71-.73,1.21-1.57,1.5-2.53l-2.97-.82c-.24.65-.58,1.19-1.03,1.63-.44.44-.97.77-1.59.98-.62.22-1.3.32-2.05.32-1.16,0-2.18-.25-3.07-.76-.88-.51-1.57-1.25-2.06-2.24-.44-.89-.67-1.96-.72-3.19h13.79v-1.28c0-1.77-.24-3.26-.72-4.48-.48-1.22-1.12-2.2-1.92-2.95ZM346,210.79c.43-.91,1.06-1.64,1.88-2.21.82-.56,1.81-.85,2.96-.85s2.11.28,2.89.83c.77.55,1.36,1.32,1.75,2.29.29.72.47,1.51.55,2.38h-10.65c.06-.86.26-1.68.62-2.45Z"/><path class="cls-1" d="M372.51,213.81l-2.89-.68c-1.12-.26-1.93-.61-2.44-1.03-.51-.43-.77-.99-.77-1.7,0-.8.38-1.46,1.14-1.98.76-.52,1.71-.79,2.84-.79,1.23,0,2.15.28,2.76.84.61.56,1.04,1.18,1.31,1.86l2.79-.72c-.29-.9-.72-1.69-1.29-2.38-.58-.69-1.32-1.23-2.24-1.62-.92-.39-2.03-.59-3.34-.59s-2.57.24-3.63.71c-1.07.47-1.91,1.13-2.52,1.97-.62.84-.92,1.8-.92,2.9,0,1.34.42,2.45,1.26,3.31.84.86,2.13,1.5,3.86,1.91l3.18.75c.95.22,1.65.54,2.11.98.46.44.69.99.69,1.65,0,.79-.4,1.46-1.19,2.03-.79.57-1.85.85-3.19.85-1.14,0-2.09-.24-2.85-.73-.76-.49-1.27-1.26-1.55-2.31l-2.92.7c.23,1.09.67,2.02,1.33,2.77.66.75,1.5,1.32,2.52,1.7,1.02.38,2.18.57,3.5.57,1.49,0,2.8-.25,3.94-.75,1.13-.5,2.02-1.19,2.65-2.06.63-.87.95-1.87.95-2.98,0-1.31-.42-2.4-1.25-3.26-.83-.86-2.11-1.5-3.85-1.91Z"/><path class="cls-1" d="M388.63,221.79c-.3.05-.55.07-.74.07-.81,0-1.39-.2-1.73-.59-.35-.39-.52-1.02-.52-1.87v-11.52h3.93v-2.63h-3.93v-4.55h-3.08v4.55h-2.87v2.63h2.87v11.76c0,1.56.46,2.78,1.38,3.65.92.87,2.21,1.31,3.86,1.31.4,0,.8-.03,1.2-.09.4-.06.77-.14,1.09-.26l-.63-2.6c-.25.05-.53.09-.83.14Z"/><path class="cls-1" d="M406.51,207.14c-.8-.75-1.7-1.29-2.68-1.62-.99-.34-1.99-.5-3-.5-1.73,0-3.25.42-4.54,1.26-1.29.84-2.29,2.01-3,3.5-.71,1.49-1.06,3.22-1.06,5.18s.36,3.67,1.08,5.14,1.75,2.61,3.09,3.44,2.93,1.23,4.78,1.23c1.31,0,2.49-.21,3.53-.62,1.04-.41,1.92-.98,2.62-1.71.71-.73,1.21-1.57,1.5-2.53l-2.97-.82c-.24.65-.58,1.19-1.03,1.63-.44.44-.97.77-1.59.98-.62.22-1.3.32-2.05.32-1.16,0-2.19-.25-3.07-.76-.88-.51-1.57-1.25-2.06-2.24-.44-.89-.67-1.96-.72-3.19h13.79v-1.28c0-1.77-.24-3.26-.72-4.48-.48-1.22-1.12-2.2-1.92-2.95ZM395.99,210.79c.43-.91,1.06-1.64,1.88-2.21.82-.56,1.81-.85,2.96-.85s2.11.28,2.89.83,1.36,1.32,1.75,2.29c.29.72.47,1.51.55,2.38h-10.65c.06-.86.26-1.68.62-2.45Z"/><polygon class="cls-1" points="438.83 205.25 435.02 205.25 426.85 213.67 426.48 213.67 426.48 198.89 423.4 198.89 423.4 224.35 426.48 224.35 426.48 217.31 428.49 215.42 435.48 224.35 439.43 224.35 430.84 213.45 438.83 205.25"/><path class="cls-1" d="M464.88,205.62c-.91-.48-1.92-.72-3.03-.72-1.01,0-1.95.19-2.81.56s-1.59.91-2.2,1.61c-.44.51-.78,1.09-1.02,1.74-.3-1.05-.78-1.93-1.48-2.62-.86-.85-1.99-1.28-3.38-1.28-.82,0-1.61.17-2.37.51s-1.42.85-1.98,1.53c-.42.5-.75,1.1-1,1.8v-3.5h-3v19.11h3.08v-12.03c0-1.01.2-1.86.6-2.55.4-.68.92-1.2,1.58-1.55s1.35-.52,2.09-.52c1.08,0,1.98.32,2.68.97.71.65,1.06,1.5,1.06,2.56v13.11h3.08v-12.48c0-.81.17-1.53.5-2.15.34-.63.81-1.12,1.44-1.48.62-.36,1.36-.54,2.21-.54,1.03,0,1.93.3,2.7.89.77.59,1.16,1.58,1.16,2.96v12.8h3.08v-12.89c0-1.48-.27-2.71-.81-3.67-.54-.97-1.27-1.69-2.18-2.17Z"/><path class="cls-1" d="M487.74,212.43c-.77-.56-1.7-.92-2.78-1.09v-.21c1.3-.39,2.33-1.08,3.08-2.08.76-1,1.14-2.22,1.14-3.66,0-1.21-.31-2.33-.92-3.37-.62-1.04-1.5-1.87-2.64-2.51-1.15-.64-2.51-.96-4.09-.96-1.49,0-2.86.29-4.09.85-1.24.57-2.23,1.36-2.98,2.38-.75,1.01-1.15,2.19-1.2,3.52h3.13c.03-.83.29-1.54.78-2.12s1.11-1.03,1.86-1.34,1.57-.47,2.44-.47c.92,0,1.73.17,2.41.52.68.35,1.21.83,1.58,1.46.37.63.56,1.36.56,2.2s-.21,1.64-.63,2.29-1.01,1.15-1.77,1.51c-.76.36-1.63.54-2.62.54h-2.07v2.82h2.07c1.26,0,2.33.2,3.21.6.88.4,1.55.95,2.01,1.65.46.7.69,1.51.69,2.44s-.24,1.65-.72,2.32c-.48.67-1.13,1.19-1.96,1.56s-1.77.56-2.85.56c-.97,0-1.85-.16-2.64-.47-.79-.31-1.43-.76-1.91-1.35s-.76-1.28-.83-2.09h-3.28c.06,1.34.46,2.52,1.22,3.54.76,1.01,1.78,1.81,3.07,2.38s2.76.85,4.43.85,3.15-.32,4.46-.95c1.31-.63,2.34-1.5,3.09-2.59s1.13-2.34,1.13-3.73c0-1.07-.2-2.03-.61-2.89s-.99-1.56-1.76-2.12Z"/><polygon class="cls-1" points="493.59 230.49 495.95 230.49 498.61 220.8 495.09 220.8 493.59 230.49"/><path class="cls-1" d="M528.47,198.89h-3.95l-11.14,17.64v2.65h11.98v5.18h3.11v-5.18h3.45v-2.85h-3.45v-17.43ZM516.85,216.12l8.32-13.16h.21v13.36h-8.53v-.21Z"/><path class="cls-1" d="M551.08,198.89h-3.95l-11.14,17.64v2.65h11.98v5.18h3.11v-5.18h3.45v-2.85h-3.45v-17.43ZM539.46,216.12l8.32-13.16h.21v13.36h-8.53v-.21Z"/><path class="cls-1" d="M572.42,200.1c-1.34-1.04-2.95-1.56-4.83-1.56s-3.49.52-4.82,1.56c-1.33,1.04-2.36,2.53-3.07,4.48-.71,1.95-1.07,4.3-1.07,7.06s.35,5.12,1.06,7.07c.71,1.94,1.73,3.43,3.06,4.45s2.95,1.54,4.84,1.54,3.52-.51,4.85-1.54,2.35-2.51,3.05-4.46c.7-1.95,1.05-4.3,1.05-7.06s-.35-5.11-1.06-7.06c-.71-1.95-1.73-3.44-3.07-4.48ZM572.73,217.15c-.46,1.52-1.12,2.69-1.98,3.49-.87.81-1.92,1.21-3.16,1.21s-2.3-.4-3.16-1.21c-.87-.81-1.53-1.97-1.98-3.49-.46-1.52-.68-3.36-.68-5.51s.23-4.01.68-5.54c.46-1.53,1.12-2.7,1.98-3.51s1.92-1.22,3.16-1.22,2.29.4,3.16,1.21c.87.81,1.53,1.98,1.98,3.51.46,1.53.68,3.38.68,5.55s-.23,3.99-.68,5.51Z"/><path class="cls-1" d="M594.5,200.1c-1.34-1.04-2.95-1.56-4.83-1.56s-3.49.52-4.82,1.56c-1.33,1.04-2.36,2.53-3.07,4.48-.71,1.95-1.07,4.3-1.07,7.06s.35,5.12,1.06,7.07c.71,1.94,1.73,3.43,3.06,4.45s2.95,1.54,4.84,1.54,3.52-.51,4.85-1.54,2.35-2.51,3.05-4.46c.7-1.95,1.05-4.3,1.05-7.06s-.35-5.11-1.06-7.06c-.71-1.95-1.73-3.44-3.07-4.48ZM594.81,217.15c-.46,1.52-1.12,2.69-1.98,3.49-.87.81-1.92,1.21-3.16,1.21s-2.3-.4-3.16-1.21c-.87-.81-1.53-1.97-1.98-3.49-.46-1.52-.68-3.36-.68-5.51s.23-4.01.68-5.54c.46-1.53,1.12-2.7,1.98-3.51s1.92-1.22,3.16-1.22,2.29.4,3.16,1.21c.87.81,1.53,1.98,1.98,3.51.46,1.53.68,3.38.68,5.55s-.23,3.99-.68,5.51Z"/><path class="cls-1" d="M628.44,212.4c-.75-.53-1.54-.95-2.37-1.27-.83-.32-1.58-.57-2.26-.75l-2.55-.7c-.62-.17-1.3-.41-2.06-.71-.76-.3-1.41-.72-1.97-1.26-.55-.54-.83-1.26-.83-2.14,0-.8.23-1.51.68-2.13.46-.62,1.1-1.11,1.92-1.47.83-.36,1.79-.54,2.88-.54,1.51,0,2.79.34,3.83,1.02,1.04.68,1.63,1.64,1.78,2.88h3.18c-.05-1.29-.44-2.44-1.19-3.46-.75-1.02-1.76-1.83-3.05-2.42-1.29-.59-2.77-.89-4.44-.89s-3.12.3-4.44.89c-1.32.59-2.37,1.43-3.14,2.5-.78,1.08-1.16,2.33-1.16,3.77,0,1.69.57,3.07,1.71,4.15,1.14,1.08,2.73,1.91,4.79,2.5l3.08.87c.91.25,1.75.54,2.51.87.76.33,1.38.75,1.84,1.26.46.51.69,1.18.69,2,0,.9-.27,1.69-.8,2.38-.54.68-1.26,1.21-2.18,1.59-.92.38-1.95.56-3.1.56-.99,0-1.92-.15-2.79-.45-.87-.3-1.59-.76-2.14-1.38-.56-.62-.88-1.41-.97-2.37h-3.33c.1,1.42.54,2.67,1.3,3.73.76,1.07,1.82,1.89,3.17,2.49,1.35.59,2.94.89,4.78.89,1.96,0,3.63-.32,5.01-.97,1.38-.65,2.43-1.53,3.15-2.65.72-1.12,1.08-2.37,1.08-3.76,0-1.18-.24-2.18-.73-3s-1.1-1.49-1.85-2.02Z"/><path class="cls-1" d="M647.34,206.15c-.76-.46-1.54-.76-2.36-.91-.82-.15-1.54-.23-2.18-.23-.98,0-1.97.14-2.97.41s-1.92.74-2.75,1.39c-.83.66-1.49,1.56-1.98,2.73l2.96.97c.21-.44.51-.88.92-1.31.4-.43.93-.78,1.58-1.07.65-.28,1.43-.43,2.34-.43s1.63.15,2.22.44c.59.3,1.04.72,1.33,1.27.3.55.44,1.23.44,2.02v.1c0,.47-.17.8-.52.99-.35.19-.88.33-1.6.41-.72.08-1.65.19-2.79.34-.89.11-1.77.27-2.65.46-.88.19-1.68.49-2.4.88-.72.39-1.3.93-1.73,1.62-.43.68-.65,1.57-.65,2.67,0,1.25.29,2.32.87,3.2.58.88,1.36,1.54,2.35,2,.98.46,2.08.68,3.29.68,1.08,0,2-.16,2.77-.48s1.38-.71,1.86-1.19.83-.93,1.04-1.38h.21v2.6h3.03v-12.6c0-1.49-.25-2.69-.74-3.58-.5-.89-1.12-1.57-1.88-2.02ZM646.88,217.45c0,.77-.21,1.52-.62,2.23s-1.01,1.29-1.79,1.73-1.75.67-2.89.67c-.76,0-1.44-.11-2.03-.34-.59-.23-1.06-.56-1.4-1.01s-.51-1-.51-1.66c0-.73.19-1.31.58-1.73.39-.43.9-.75,1.55-.97.64-.22,1.34-.38,2.08-.47.3-.03.7-.08,1.21-.15s1.03-.14,1.57-.23c.54-.09,1.02-.2,1.44-.32.42-.12.69-.25.82-.4v2.65Z"/><rect class="cls-1" x="655.36" y="198.89" width="3.08" height="25.46"/><path class="cls-1" d="M670.94,221.79c-.3.05-.55.07-.74.07-.81,0-1.39-.2-1.73-.59-.35-.39-.52-1.02-.52-1.87v-11.52h3.93v-2.63h-3.93v-4.55h-3.08v4.55h-2.87v2.63h2.87v11.76c0,1.56.46,2.78,1.38,3.65.92.87,2.21,1.31,3.86,1.31.4,0,.8-.03,1.21-.09.4-.06.77-.14,1.08-.26l-.63-2.6c-.25.05-.53.09-.83.14Z"/><path class="cls-1" d="M689.48,208.18c-.5-.89-1.12-1.57-1.88-2.02-.76-.46-1.54-.76-2.36-.91-.82-.15-1.54-.23-2.18-.23-.98,0-1.97.14-2.97.41s-1.92.74-2.75,1.39c-.83.66-1.49,1.56-1.98,2.73l2.96.97c.21-.44.51-.88.92-1.31.4-.43.93-.78,1.58-1.07.65-.28,1.43-.43,2.34-.43s1.63.15,2.22.44c.59.3,1.04.72,1.33,1.27.3.55.44,1.23.44,2.02v.1c0,.47-.17.8-.52.99-.35.19-.88.33-1.6.41-.72.08-1.65.19-2.79.34-.89.11-1.77.27-2.65.46-.88.19-1.68.49-2.4.88-.72.39-1.3.93-1.73,1.62-.43.68-.65,1.57-.65,2.67,0,1.25.29,2.32.87,3.2.58.88,1.36,1.54,2.35,2,.98.46,2.08.68,3.29.68,1.08,0,2-.16,2.77-.48s1.38-.71,1.86-1.19.83-.93,1.04-1.38h.21v2.6h3.03v-12.6c0-1.49-.25-2.69-.74-3.58ZM687.15,217.45c0,.77-.21,1.52-.62,2.23s-1.01,1.29-1.79,1.73-1.75.67-2.89.67c-.76,0-1.44-.11-2.03-.34-.59-.23-1.06-.56-1.4-1.01s-.51-1-.51-1.66c0-.73.19-1.31.58-1.73.39-.43.9-.75,1.55-.97.64-.22,1.34-.38,2.08-.47.3-.03.7-.08,1.21-.15s1.03-.14,1.57-.23c.54-.09,1.02-.2,1.44-.32.42-.12.69-.25.82-.4v2.65Z"/></g></svg>