<?xml version="1.0" encoding="UTF-8"?><svg id="Capa_2" xmlns="http://www.w3.org/2000/svg" viewBox="0 0 722.72 109.3"><defs><style>.cls-1{fill:#1b2f52;}</style></defs><g id="Texto"><path class="cls-1" d="M1.71,9.27c-.43,0-.8-.15-1.11-.46s-.46-.68-.46-1.11.15-.81.46-1.11.68-.46,1.11-.46.81.15,1.12.46.46.67.46,1.1-.15.81-.46,1.12-.68.46-1.12.46ZM.62,28.12l.13-15.03h1.98l.12,15.03H.62Z"/><path class="cls-1" d="M8.83,22.82V1h2.09v19.96h10.37v1.86h-12.47Z"/><path class="cls-1" d="M31.77,23.17c-1.43,0-2.68-.36-3.76-1.08s-1.93-1.71-2.55-2.99-.92-2.74-.92-4.39.31-3.16.92-4.43,1.46-2.27,2.55-2.99,2.34-1.08,3.76-1.08,2.67.36,3.76,1.08,1.94,1.71,2.56,2.99.92,2.75.92,4.43-.31,3.11-.92,4.39c-.61,1.27-1.46,2.27-2.55,2.99-1.09.72-2.35,1.08-3.77,1.08ZM31.77,21.37c1.12,0,2.08-.3,2.86-.91s1.37-1.41,1.78-2.42.61-2.12.61-3.33-.21-2.34-.62-3.35-1.01-1.82-1.79-2.43-1.73-.92-2.84-.92-2.06.3-2.83.92c-.78.61-1.37,1.42-1.78,2.43s-.62,2.13-.62,3.35.2,2.32.61,3.33,1,1.81,1.77,2.42c.78.61,1.73.91,2.85.91Z"/><path class="cls-1" d="M51.61,22.82V6.45h1.93v3.73s-.21,0-.21,0c.22-.92.59-1.67,1.08-2.26s1.08-1.03,1.75-1.32c.67-.29,1.35-.44,2.06-.44,1.2,0,2.19.37,2.97,1.11.78.74,1.27,1.74,1.49,2.99h-.32c.2-.85.55-1.58,1.05-2.19s1.13-1.08,1.86-1.41,1.53-.5,2.4-.5c.98,0,1.85.21,2.62.64.77.42,1.37,1.05,1.82,1.89.44.83.67,1.87.67,3.1v11.03h-1.98v-10.97c0-1.32-.35-2.29-1.05-2.91s-1.57-.94-2.59-.94c-.78,0-1.47.17-2.07.5s-1.06.8-1.4,1.41c-.34.61-.5,1.31-.5,2.12v10.8h-1.98v-11.15c0-1.13-.33-2.03-.99-2.69-.66-.66-1.51-.99-2.56-.99-.73,0-1.41.17-2.02.51s-1.11.83-1.48,1.46-.56,1.41-.56,2.31v10.53h-1.99Z"/><path class="cls-1" d="M82.09,23.19c-1,0-1.9-.19-2.72-.57s-1.46-.94-1.95-1.69c-.48-.74-.73-1.64-.73-2.7,0-.81.15-1.49.45-2.04s.74-1.01,1.3-1.36,1.23-.64,2-.84,1.61-.37,2.54-.48c.91-.12,1.68-.22,2.31-.3s1.12-.22,1.46-.4c.34-.19.5-.48.5-.89v-.38c0-.73-.15-1.36-.45-1.89-.3-.53-.73-.93-1.3-1.22-.57-.28-1.27-.42-2.09-.42-.77,0-1.45.12-2.04.36s-1.07.55-1.46.94c-.39.39-.68.81-.87,1.27l-1.9-.64c.36-.89.87-1.6,1.52-2.14s1.39-.93,2.21-1.18,1.65-.37,2.49-.37c.64,0,1.31.09,1.99.26s1.32.46,1.9.86,1.06.96,1.42,1.67.54,1.6.54,2.69v11.12h-1.95v-2.59h-.15c-.23.5-.58.97-1.04,1.43s-1.02.82-1.69,1.11c-.67.28-1.45.42-2.34.42ZM82.38,21.42c1,0,1.86-.22,2.59-.66s1.3-1.03,1.7-1.77.6-1.56.6-2.45v-2.33c-.15.14-.39.26-.72.37s-.71.2-1.13.28c-.43.08-.85.15-1.28.21s-.81.11-1.13.15c-.91.11-1.69.28-2.34.53-.65.24-1.14.58-1.48,1-.34.42-.5.95-.5,1.6s.16,1.21.48,1.67.76.81,1.32,1.05,1.19.37,1.89.37ZM82.41,4.22l2.11-4.22h2.26l-2.71,4.22h-1.66Z"/><path class="cls-1" d="M99.48,23.17c-1.07,0-2.03-.16-2.86-.49s-1.51-.81-2.05-1.44-.9-1.4-1.1-2.32l1.9-.46c.23.99.7,1.72,1.4,2.21.7.48,1.59.72,2.67.72,1.24,0,2.23-.28,2.98-.83.75-.56,1.12-1.25,1.12-2.08,0-.66-.22-1.22-.67-1.66s-1.11-.77-2-.98l-2.67-.64c-1.41-.34-2.46-.88-3.16-1.6s-1.05-1.64-1.05-2.75c0-.92.25-1.72.74-2.42.49-.69,1.17-1.24,2.04-1.63.87-.39,1.85-.59,2.95-.59,1.04,0,1.92.16,2.67.48s1.35.76,1.84,1.34c.48.58.85,1.26,1.09,2.05l-1.82.47c-.25-.75-.68-1.37-1.27-1.87-.59-.49-1.42-.74-2.5-.74s-1.98.26-2.68.78-1.05,1.19-1.05,2.01c0,.69.24,1.26.71,1.7s1.21.78,2.22,1.03l2.5.6c1.39.34,2.42.87,3.11,1.6.69.72,1.03,1.63,1.03,2.71,0,.94-.26,1.77-.78,2.49s-1.24,1.29-2.16,1.7c-.92.41-1.99.62-3.19.62Z"/><path class="cls-1" d="M119.19,3.41c-.39,0-.73-.14-1.02-.41-.29-.27-.43-.6-.43-.98s.14-.72.43-.99c.29-.27.63-.4,1.02-.4s.74.13,1.03.4.42.6.42.99-.14.71-.42.98-.62.41-1.03.41ZM118.18,22.82V6.45h1.99v16.38h-1.99Z"/><path class="cls-1" d="M125.19,22.82V6.45h1.93v3.73s-.21,0-.21,0c.22-.92.59-1.67,1.08-2.26s1.08-1.03,1.75-1.32c.67-.29,1.35-.44,2.06-.44,1.2,0,2.19.37,2.97,1.11.78.74,1.27,1.74,1.49,2.99h-.32c.2-.85.55-1.58,1.05-2.19s1.13-1.08,1.86-1.41,1.53-.5,2.4-.5c.98,0,1.85.21,2.62.64.77.42,1.37,1.05,1.82,1.89.44.83.67,1.87.67,3.1v11.03h-1.98v-10.97c0-1.32-.35-2.29-1.05-2.91s-1.57-.94-2.59-.94c-.78,0-1.47.17-2.07.5s-1.06.8-1.4,1.41c-.34.61-.5,1.31-.5,2.12v10.8h-1.98v-11.15c0-1.13-.33-2.03-.99-2.69-.66-.66-1.51-.99-2.56-.99-.73,0-1.41.17-2.02.51s-1.11.83-1.48,1.46-.56,1.41-.56,2.31v10.53h-1.99Z"/><path class="cls-1" d="M151.36,28.95V6.45h1.93v3.15h.22c.21-.5.52-1.01.93-1.52s.94-.95,1.6-1.31c.66-.36,1.49-.54,2.5-.54,1.34,0,2.51.35,3.52,1.05s1.79,1.69,2.36,2.96.85,2.75.85,4.44-.28,3.19-.84,4.46c-.56,1.27-1.35,2.27-2.35,2.97s-2.18,1.06-3.53,1.06c-.98,0-1.8-.18-2.47-.54-.67-.36-1.21-.8-1.61-1.33-.41-.53-.72-1.04-.95-1.55h-.16v9.19h-1.99ZM158.28,21.37c1.07,0,1.98-.3,2.72-.89.74-.6,1.3-1.4,1.68-2.42s.58-2.15.58-3.4-.19-2.38-.57-3.38-.94-1.79-1.68-2.38-1.65-.88-2.72-.88-1.95.28-2.69.85-1.3,1.35-1.68,2.34c-.39,1-.58,2.14-.58,3.44s.2,2.45.59,3.46.95,1.8,1.69,2.38c.74.58,1.63.86,2.67.86Z"/><path class="cls-1" d="M175.81,23.17c-1.43,0-2.68-.36-3.76-1.08s-1.93-1.71-2.55-2.99-.92-2.74-.92-4.39.31-3.16.92-4.43,1.46-2.27,2.55-2.99,2.34-1.08,3.76-1.08,2.67.36,3.76,1.08,1.94,1.71,2.56,2.99.92,2.75.92,4.43-.31,3.11-.92,4.39c-.61,1.27-1.46,2.27-2.55,2.99-1.09.72-2.35,1.08-3.77,1.08ZM175.81,21.37c1.12,0,2.08-.3,2.86-.91s1.37-1.41,1.78-2.42.61-2.12.61-3.33-.21-2.34-.62-3.35-1.01-1.82-1.79-2.43-1.73-.92-2.84-.92-2.06.3-2.83.92c-.78.61-1.37,1.42-1.78,2.43s-.62,2.13-.62,3.35.2,2.32.61,3.33,1,1.81,1.77,2.42c.78.61,1.73.91,2.85.91Z"/><path class="cls-1" d="M187.21,22.82V6.45h1.93v2.55h.15c.33-.84.9-1.51,1.71-2.01.81-.5,1.72-.75,2.75-.75.17,0,.34,0,.53,0s.35.01.48.02v1.99c-.07-.02-.21-.04-.44-.07s-.47-.04-.73-.04c-.84,0-1.59.18-2.26.54s-1.18.86-1.56,1.48-.56,1.34-.56,2.15v10.5h-1.99Z"/><path class="cls-1" d="M203.99,6.45v1.73h-7.79v-1.73h7.79ZM198.63,2.55h1.99v16.41c0,.81.18,1.41.54,1.79s.91.53,1.66.45c.14,0,.3-.02.5-.05s.39-.07.56-.11l.41,1.71c-.21.07-.45.12-.71.16s-.52.06-.78.07c-1.31.09-2.33-.22-3.07-.93-.74-.71-1.11-1.7-1.11-2.97V2.55Z"/><path class="cls-1" d="M211.9,23.19c-1,0-1.9-.19-2.72-.57s-1.46-.94-1.95-1.69c-.48-.74-.73-1.64-.73-2.7,0-.81.15-1.49.45-2.04s.74-1.01,1.3-1.36,1.23-.64,2-.84,1.61-.37,2.54-.48c.91-.12,1.68-.22,2.31-.3s1.12-.22,1.46-.4c.34-.19.5-.48.5-.89v-.38c0-.73-.15-1.36-.45-1.89-.3-.53-.73-.93-1.3-1.22-.57-.28-1.27-.42-2.09-.42-.77,0-1.45.12-2.04.36s-1.07.55-1.46.94c-.39.39-.68.81-.87,1.27l-1.9-.64c.36-.89.87-1.6,1.52-2.14s1.39-.93,2.21-1.18,1.65-.37,2.49-.37c.64,0,1.31.09,1.99.26s1.32.46,1.9.86,1.06.96,1.42,1.67.54,1.6.54,2.69v11.12h-1.95v-2.59h-.15c-.23.5-.58.97-1.04,1.43s-1.02.82-1.69,1.11c-.67.28-1.45.42-2.34.42ZM212.2,21.42c1,0,1.86-.22,2.59-.66s1.3-1.03,1.7-1.77.6-1.56.6-2.45v-2.33c-.15.14-.39.26-.72.37s-.71.2-1.13.28c-.43.08-.85.15-1.28.21s-.81.11-1.13.15c-.91.11-1.69.28-2.34.53-.65.24-1.14.58-1.48,1-.34.42-.5.95-.5,1.6s.16,1.21.48,1.67.76.81,1.32,1.05,1.19.37,1.89.37Z"/><path class="cls-1" d="M226.07,12.61v10.21h-1.99V6.45h1.92v3.82s-.29,0-.29,0c.45-1.43,1.15-2.46,2.12-3.09.96-.63,2.06-.95,3.3-.95,1.11,0,2.09.23,2.92.7.84.46,1.49,1.14,1.96,2.03s.71,1.98.71,3.28v10.59h-1.98v-10.45c0-1.34-.38-2.39-1.13-3.17s-1.76-1.17-3.02-1.17c-.86,0-1.63.18-2.31.55s-1.22.89-1.62,1.58c-.39.69-.59,1.5-.59,2.44Z"/><path class="cls-1" d="M247.27,6.45v1.73h-7.79v-1.73h7.79ZM241.9,2.55h1.99v16.41c0,.81.18,1.41.54,1.79s.91.53,1.66.45c.14,0,.3-.02.5-.05s.39-.07.56-.11l.41,1.71c-.21.07-.45.12-.71.16s-.52.06-.78.07c-1.31.09-2.33-.22-3.07-.93-.74-.71-1.11-1.7-1.11-2.97V2.55Z"/><path class="cls-1" d="M257.07,23.17c-1.53,0-2.86-.36-3.98-1.08-1.12-.72-1.98-1.71-2.59-2.98s-.92-2.73-.92-4.38.3-3.12.9-4.39c.6-1.28,1.44-2.29,2.52-3.02,1.08-.73,2.33-1.1,3.76-1.1.9,0,1.76.16,2.59.49s1.58.83,2.24,1.49,1.19,1.52,1.57,2.54.57,2.23.57,3.62v.87h-12.85v-1.71h11.78l-.91.64c0-1.17-.2-2.22-.6-3.15s-.97-1.66-1.71-2.2-1.64-.81-2.68-.81-1.94.27-2.72.82c-.78.55-1.38,1.27-1.82,2.17s-.65,1.88-.65,2.96v1.03c0,1.28.22,2.4.67,3.36s1.09,1.71,1.91,2.24,1.8.8,2.92.8c.76,0,1.43-.12,2.01-.37.58-.24,1.07-.57,1.46-.97.39-.41.69-.85.89-1.33l1.89.6c-.25.68-.66,1.32-1.22,1.9-.56.59-1.27,1.06-2.12,1.41s-1.83.54-2.93.54Z"/><path class="cls-1" d="M282.89,23.17c-1.53,0-2.86-.36-3.98-1.08-1.12-.72-1.98-1.71-2.59-2.98s-.92-2.73-.92-4.38.3-3.12.9-4.39c.6-1.28,1.44-2.29,2.52-3.02,1.08-.73,2.33-1.1,3.76-1.1.9,0,1.76.16,2.59.49s1.58.83,2.24,1.49,1.19,1.52,1.57,2.54.57,2.23.57,3.62v.87h-12.85v-1.71h11.78l-.91.64c0-1.17-.2-2.22-.6-3.15s-.97-1.66-1.71-2.2-1.64-.81-2.68-.81-1.94.27-2.72.82c-.78.55-1.38,1.27-1.82,2.17s-.65,1.88-.65,2.96v1.03c0,1.28.22,2.4.67,3.36s1.09,1.71,1.91,2.24,1.8.8,2.92.8c.76,0,1.43-.12,2.01-.37.58-.24,1.07-.57,1.46-.97.39-.41.69-.85.89-1.33l1.89.6c-.25.68-.66,1.32-1.22,1.9-.56.59-1.27,1.06-2.12,1.41s-1.83.54-2.93.54Z"/><path class="cls-1" d="M298.86,23.17c-1.07,0-2.03-.16-2.86-.49s-1.51-.81-2.05-1.44-.9-1.4-1.1-2.32l1.9-.46c.23.99.7,1.72,1.4,2.21.7.48,1.59.72,2.67.72,1.24,0,2.23-.28,2.98-.83.75-.56,1.12-1.25,1.12-2.08,0-.66-.22-1.22-.67-1.66s-1.11-.77-2-.98l-2.67-.64c-1.41-.34-2.46-.88-3.16-1.6s-1.05-1.64-1.05-2.75c0-.92.25-1.72.74-2.42.49-.69,1.17-1.24,2.04-1.63.87-.39,1.85-.59,2.95-.59,1.04,0,1.92.16,2.67.48s1.35.76,1.84,1.34c.48.58.85,1.26,1.09,2.05l-1.82.47c-.25-.75-.68-1.37-1.27-1.87-.59-.49-1.42-.74-2.5-.74s-1.98.26-2.68.78-1.05,1.19-1.05,2.01c0,.69.24,1.26.71,1.7s1.21.78,2.22,1.03l2.5.6c1.39.34,2.42.87,3.11,1.6.69.72,1.03,1.63,1.03,2.71,0,.94-.26,1.77-.78,2.49s-1.24,1.29-2.16,1.7c-.92.41-1.99.62-3.19.62Z"/><path class="cls-1" d="M330.6,28.95h-1.98v-9.19h-.16c-.21.51-.53,1.03-.94,1.55s-.95.97-1.61,1.33-1.49.54-2.49.54c-1.33,0-2.5-.35-3.51-1.06-1.01-.71-1.8-1.7-2.36-2.97-.56-1.27-.84-2.76-.84-4.46s.28-3.17.85-4.44,1.35-2.26,2.37-2.96c1.01-.7,2.18-1.05,3.51-1.05,1,0,1.83.18,2.49.54s1.2.79,1.6,1.31.72,1.03.93,1.52h.22v-3.15h1.92v22.5ZM323.69,21.37c1.05,0,1.95-.29,2.69-.86.74-.58,1.3-1.37,1.68-2.38s.58-2.17.58-3.46-.19-2.45-.58-3.44-.95-1.78-1.68-2.34c-.74-.57-1.63-.85-2.69-.85s-1.97.29-2.71.88-1.3,1.38-1.68,2.38-.57,2.13-.57,3.38.19,2.38.58,3.4.95,1.82,1.69,2.42,1.64.89,2.7.89Z"/><path class="cls-1" d="M341.24,23.04c-1.1,0-2.08-.23-2.92-.7-.85-.46-1.5-1.14-1.98-2.04s-.71-1.99-.71-3.27V6.45h1.99v10.44c0,1.34.38,2.4,1.13,3.17s1.76,1.16,3.02,1.16c.86,0,1.63-.18,2.31-.55s1.22-.89,1.62-1.58c.39-.69.59-1.5.59-2.44V6.45h1.99v16.38h-1.93v-3.82h.29c-.45,1.45-1.16,2.48-2.12,3.11s-2.06.94-3.28.94Z"/><path class="cls-1" d="M359.93,23.17c-1.53,0-2.86-.36-3.98-1.08-1.12-.72-1.98-1.71-2.59-2.98s-.92-2.73-.92-4.38.3-3.12.9-4.39c.6-1.28,1.44-2.29,2.52-3.02,1.08-.73,2.33-1.1,3.76-1.1.9,0,1.76.16,2.59.49s1.58.83,2.24,1.49,1.19,1.52,1.57,2.54.57,2.23.57,3.62v.87h-12.85v-1.71h11.78l-.91.64c0-1.17-.2-2.22-.6-3.15s-.97-1.66-1.71-2.2-1.64-.81-2.68-.81-1.94.27-2.72.82c-.78.55-1.38,1.27-1.82,2.17s-.65,1.88-.65,2.96v1.03c0,1.28.22,2.4.67,3.36s1.09,1.71,1.91,2.24,1.8.8,2.92.8c.76,0,1.43-.12,2.01-.37.58-.24,1.07-.57,1.46-.97.39-.41.69-.85.89-1.33l1.89.6c-.25.68-.66,1.32-1.22,1.9-.56.59-1.27,1.06-2.12,1.41s-1.83.54-2.93.54Z"/><path class="cls-1" d="M383.88,22.82l-6.25-16.38h2.17l3.78,10.3c.34.92.64,1.84.91,2.75s.54,1.81.83,2.68h-.7c.28-.87.56-1.76.82-2.68s.57-1.84.91-2.75l3.78-10.3h2.15l-6.25,16.38h-2.14Z"/><path class="cls-1" d="M401.85,23.17c-1.53,0-2.86-.36-3.98-1.08-1.12-.72-1.98-1.71-2.59-2.98s-.92-2.73-.92-4.38.3-3.12.9-4.39c.6-1.28,1.44-2.29,2.52-3.02,1.08-.73,2.33-1.1,3.76-1.1.9,0,1.76.16,2.59.49s1.58.83,2.24,1.49,1.19,1.52,1.57,2.54.57,2.23.57,3.62v.87h-12.85v-1.71h11.78l-.91.64c0-1.17-.2-2.22-.6-3.15s-.97-1.66-1.71-2.2-1.64-.81-2.68-.81-1.94.27-2.72.82c-.78.55-1.38,1.27-1.82,2.17s-.65,1.88-.65,2.96v1.03c0,1.28.22,2.4.67,3.36s1.09,1.71,1.91,2.24,1.8.8,2.92.8c.76,0,1.43-.12,2.01-.37.58-.24,1.07-.57,1.46-.97.39-.41.69-.85.89-1.33l1.89.6c-.25.68-.66,1.32-1.22,1.9-.56.59-1.27,1.06-2.12,1.41s-1.83.54-2.93.54Z"/><path class="cls-1" d="M414.59,12.61v10.21h-1.99V6.45h1.92v3.82s-.29,0-.29,0c.45-1.43,1.15-2.46,2.12-3.09.96-.63,2.06-.95,3.3-.95,1.11,0,2.09.23,2.92.7.84.46,1.49,1.14,1.96,2.03s.71,1.98.71,3.28v10.59h-1.98v-10.45c0-1.34-.38-2.39-1.13-3.17s-1.76-1.17-3.02-1.17c-.86,0-1.63.18-2.31.55s-1.22.89-1.62,1.58c-.39.69-.59,1.5-.59,2.44Z"/><path class="cls-1" d="M436.52,29.3c-1.11,0-2.09-.14-2.94-.43-.85-.29-1.56-.68-2.13-1.18s-1.03-1.07-1.35-1.71l1.64-1c.23.42.55.83.94,1.22.4.4.91.72,1.53.97s1.39.37,2.3.37c1.45,0,2.61-.36,3.49-1.08s1.32-1.83,1.32-3.33v-3.68h-.19c-.21.51-.53,1.01-.95,1.5s-.95.9-1.62,1.22-1.48.48-2.46.48c-1.3,0-2.45-.32-3.46-.97-1.01-.64-1.8-1.57-2.38-2.77s-.86-2.64-.86-4.31.28-3.13.85-4.39,1.36-2.23,2.37-2.94,2.19-1.05,3.53-1.05c1,0,1.83.18,2.49.53s1.2.79,1.6,1.31.72,1.03.93,1.53h.21v-3.15h1.93v16.77c0,1.39-.29,2.53-.88,3.43s-1.39,1.57-2.42,2-2.19.65-3.5.65ZM436.41,20.86c1.04,0,1.94-.25,2.67-.75s1.3-1.23,1.69-2.17.59-2.07.59-3.38-.19-2.4-.58-3.38-.94-1.75-1.68-2.31-1.63-.84-2.7-.84-1.98.29-2.72.87-1.31,1.37-1.69,2.35-.58,2.09-.58,3.31.2,2.33.59,3.28.96,1.69,1.7,2.22,1.65.8,2.71.8Z"/><path class="cls-1" d="M452.64,23.19c-1,0-1.9-.19-2.72-.57s-1.46-.94-1.95-1.69c-.48-.74-.73-1.64-.73-2.7,0-.81.15-1.49.45-2.04s.74-1.01,1.3-1.36,1.23-.64,2-.84,1.61-.37,2.54-.48c.91-.12,1.68-.22,2.31-.3s1.12-.22,1.46-.4c.34-.19.5-.48.5-.89v-.38c0-.73-.15-1.36-.45-1.89-.3-.53-.73-.93-1.3-1.22-.57-.28-1.27-.42-2.09-.42-.77,0-1.45.12-2.04.36s-1.07.55-1.46.94c-.39.39-.68.81-.87,1.27l-1.9-.64c.36-.89.87-1.6,1.52-2.14s1.39-.93,2.21-1.18,1.65-.37,2.49-.37c.64,0,1.31.09,1.99.26s1.32.46,1.9.86,1.06.96,1.42,1.67.54,1.6.54,2.69v11.12h-1.95v-2.59h-.15c-.23.5-.58.97-1.04,1.43s-1.02.82-1.69,1.11c-.67.28-1.45.42-2.34.42ZM452.93,21.42c1,0,1.86-.22,2.59-.66s1.3-1.03,1.7-1.77.6-1.56.6-2.45v-2.33c-.15.14-.39.26-.72.37s-.71.2-1.13.28c-.43.08-.85.15-1.28.21s-.81.11-1.13.15c-.91.11-1.69.28-2.34.53-.65.24-1.14.58-1.48,1-.34.42-.5.95-.5,1.6s.16,1.21.48,1.67.76.81,1.32,1.05,1.19.37,1.89.37Z"/><path class="cls-1" d="M470.02,23.17c-1.07,0-2.03-.16-2.86-.49s-1.51-.81-2.05-1.44-.9-1.4-1.1-2.32l1.9-.46c.23.99.7,1.72,1.4,2.21.7.48,1.59.72,2.67.72,1.24,0,2.23-.28,2.98-.83.75-.56,1.12-1.25,1.12-2.08,0-.66-.22-1.22-.67-1.66s-1.11-.77-2-.98l-2.67-.64c-1.41-.34-2.46-.88-3.16-1.6s-1.05-1.64-1.05-2.75c0-.92.25-1.72.74-2.42.49-.69,1.17-1.24,2.04-1.63.87-.39,1.85-.59,2.95-.59,1.04,0,1.92.16,2.67.48s1.35.76,1.84,1.34c.48.58.85,1.26,1.09,2.05l-1.82.47c-.25-.75-.68-1.37-1.27-1.87-.59-.49-1.42-.74-2.5-.74s-1.98.26-2.68.78-1.05,1.19-1.05,2.01c0,.69.24,1.26.71,1.7s1.21.78,2.22,1.03l2.5.6c1.39.34,2.42.87,3.11,1.6.69.72,1.03,1.63,1.03,2.71,0,.94-.26,1.77-.78,2.49s-1.24,1.29-2.16,1.7c-.92.41-1.99.62-3.19.62Z"/><path class="cls-1" d="M493.04,23.19c-1,0-1.9-.19-2.72-.57s-1.46-.94-1.95-1.69c-.48-.74-.73-1.64-.73-2.7,0-.81.15-1.49.45-2.04s.74-1.01,1.3-1.36,1.23-.64,2-.84,1.61-.37,2.54-.48c.91-.12,1.68-.22,2.31-.3s1.12-.22,1.46-.4c.34-.19.5-.48.5-.89v-.38c0-.73-.15-1.36-.45-1.89-.3-.53-.73-.93-1.3-1.22-.57-.28-1.27-.42-2.09-.42-.77,0-1.45.12-2.04.36s-1.07.55-1.46.94c-.39.39-.68.81-.87,1.27l-1.9-.64c.36-.89.87-1.6,1.52-2.14s1.39-.93,2.21-1.18,1.65-.37,2.49-.37c.64,0,1.31.09,1.99.26s1.32.46,1.9.86,1.06.96,1.42,1.67.54,1.6.54,2.69v11.12h-1.95v-2.59h-.15c-.23.5-.58.97-1.04,1.43s-1.02.82-1.69,1.11c-.67.28-1.45.42-2.34.42ZM493.33,21.42c1,0,1.86-.22,2.59-.66s1.3-1.03,1.7-1.77.6-1.56.6-2.45v-2.33c-.15.14-.39.26-.72.37s-.71.2-1.13.28c-.43.08-.85.15-1.28.21s-.81.11-1.13.15c-.91.11-1.69.28-2.34.53-.65.24-1.14.58-1.48,1-.34.42-.5.95-.5,1.6s.16,1.21.48,1.67.76.81,1.32,1.05,1.19.37,1.89.37Z"/><path class="cls-1" d="M520.83,23.17c-.98,0-1.8-.18-2.47-.54-.67-.36-1.21-.8-1.61-1.33-.41-.53-.72-1.04-.95-1.55h-.22v3.06h-1.93V1h1.99v8.6h.16c.21-.5.52-1.01.93-1.52s.94-.95,1.6-1.31c.66-.36,1.49-.54,2.5-.54,1.34,0,2.51.35,3.52,1.05s1.79,1.69,2.36,2.96.85,2.75.85,4.44-.28,3.19-.84,4.46c-.56,1.27-1.35,2.27-2.35,2.97s-2.18,1.06-3.53,1.06ZM520.56,21.37c1.07,0,1.98-.3,2.72-.89.74-.6,1.3-1.4,1.68-2.42s.58-2.15.58-3.4-.19-2.38-.57-3.38-.94-1.79-1.68-2.38-1.65-.88-2.72-.88-1.95.28-2.69.85-1.3,1.35-1.68,2.34c-.39,1-.58,2.14-.58,3.44s.2,2.45.59,3.46.95,1.8,1.69,2.38c.74.58,1.63.86,2.67.86Z"/><path class="cls-1" d="M536.31,23.19c-1,0-1.9-.19-2.72-.57s-1.46-.94-1.95-1.69c-.48-.74-.73-1.64-.73-2.7,0-.81.15-1.49.45-2.04s.74-1.01,1.3-1.36,1.23-.64,2-.84,1.61-.37,2.54-.48c.91-.12,1.68-.22,2.31-.3s1.12-.22,1.46-.4c.34-.19.5-.48.5-.89v-.38c0-.73-.15-1.36-.45-1.89-.3-.53-.73-.93-1.3-1.22-.57-.28-1.27-.42-2.09-.42-.77,0-1.45.12-2.04.36s-1.07.55-1.46.94c-.39.39-.68.81-.87,1.27l-1.9-.64c.36-.89.87-1.6,1.52-2.14s1.39-.93,2.21-1.18,1.65-.37,2.49-.37c.64,0,1.31.09,1.99.26s1.32.46,1.9.86,1.06.96,1.42,1.67.54,1.6.54,2.69v11.12h-1.95v-2.59h-.15c-.23.5-.58.97-1.04,1.43s-1.02.82-1.69,1.11c-.67.28-1.45.42-2.34.42ZM536.6,21.42c1,0,1.86-.22,2.59-.66s1.3-1.03,1.7-1.77.6-1.56.6-2.45v-2.33c-.15.14-.39.26-.72.37s-.71.2-1.13.28c-.43.08-.85.15-1.28.21s-.81.11-1.13.15c-.91.11-1.69.28-2.34.53-.65.24-1.14.58-1.48,1-.34.42-.5.95-.5,1.6s.16,1.21.48,1.67.76.81,1.32,1.05,1.19.37,1.89.37Z"/><path class="cls-1" d="M549.49,3.41c-.39,0-.73-.14-1.02-.41-.29-.27-.43-.6-.43-.98s.14-.72.43-.99c.29-.27.63-.4,1.02-.4s.74.13,1.03.4.42.6.42.99-.14.71-.42.98-.62.41-1.03.41ZM548.48,22.82V6.45h1.99v16.38h-1.99Z"/><path class="cls-1" d="M557.48,1v21.83h-1.99V1h1.99Z"/><path class="cls-1" d="M566.79,23.19c-1,0-1.9-.19-2.72-.57s-1.46-.94-1.95-1.69c-.48-.74-.73-1.64-.73-2.7,0-.81.15-1.49.45-2.04s.74-1.01,1.3-1.36,1.23-.64,2-.84,1.61-.37,2.54-.48c.91-.12,1.68-.22,2.31-.3s1.12-.22,1.46-.4c.34-.19.5-.48.5-.89v-.38c0-.73-.15-1.36-.45-1.89-.3-.53-.73-.93-1.3-1.22-.57-.28-1.27-.42-2.09-.42-.77,0-1.45.12-2.04.36s-1.07.55-1.46.94c-.39.39-.68.81-.87,1.27l-1.9-.64c.36-.89.87-1.6,1.52-2.14s1.39-.93,2.21-1.18,1.65-.37,2.49-.37c.64,0,1.31.09,1.99.26s1.32.46,1.9.86,1.06.96,1.42,1.67.54,1.6.54,2.69v11.12h-1.95v-2.59h-.15c-.23.5-.58.97-1.04,1.43s-1.02.82-1.69,1.11c-.67.28-1.45.42-2.34.42ZM567.08,21.42c1,0,1.86-.22,2.59-.66s1.3-1.03,1.7-1.77.6-1.56.6-2.45v-2.33c-.15.14-.39.26-.72.37s-.71.2-1.13.28c-.43.08-.85.15-1.28.21s-.81.11-1.13.15c-.91.11-1.69.28-2.34.53-.65.24-1.14.58-1.48,1-.34.42-.5.95-.5,1.6s.16,1.21.48,1.67.76.81,1.32,1.05,1.19.37,1.89.37Z"/><path class="cls-1" d="M578.96,22.82V6.45h1.93v2.55h.15c.33-.84.9-1.51,1.71-2.01.81-.5,1.72-.75,2.75-.75.17,0,.34,0,.53,0s.35.01.48.02v1.99c-.07-.02-.21-.04-.44-.07s-.47-.04-.73-.04c-.84,0-1.59.18-2.26.54s-1.18.86-1.56,1.48-.56,1.34-.56,2.15v10.5h-1.99Z"/><path class="cls-1" d="M604.57,23.13c-1.43,0-2.68-.36-3.76-1.07s-1.93-1.71-2.55-2.97-.92-2.73-.92-4.38.31-3.16.92-4.43,1.46-2.27,2.55-2.98,2.34-1.07,3.76-1.07c.83,0,1.59.12,2.29.37s1.31.57,1.85.97.98.85,1.34,1.35c.36.49.62.99.78,1.49l-1.89.59c-.09-.3-.25-.62-.48-.97s-.54-.66-.9-.97c-.37-.3-.8-.55-1.3-.74s-1.06-.29-1.68-.29c-1.11,0-2.06.3-2.83.91-.78.61-1.37,1.41-1.78,2.42s-.62,2.12-.62,3.36.21,2.32.62,3.32,1,1.81,1.78,2.41c.78.6,1.72.9,2.83.9.63,0,1.21-.1,1.71-.29s.95-.45,1.33-.75c.38-.31.68-.64.92-1s.4-.69.48-1l1.88.59c-.16.51-.42,1.01-.78,1.51s-.82.95-1.36,1.37-1.17.75-1.88,1-1.47.37-2.3.37Z"/><path class="cls-1" d="M621.34,23.17c-1.43,0-2.68-.36-3.76-1.08s-1.93-1.71-2.55-2.99-.92-2.74-.92-4.39.31-3.16.92-4.43,1.46-2.27,2.55-2.99,2.34-1.08,3.76-1.08,2.67.36,3.76,1.08,1.94,1.71,2.56,2.99.92,2.75.92,4.43-.31,3.11-.92,4.39c-.61,1.27-1.46,2.27-2.55,2.99-1.09.72-2.35,1.08-3.77,1.08ZM621.34,21.37c1.12,0,2.08-.3,2.86-.91s1.37-1.41,1.78-2.42.61-2.12.61-3.33-.21-2.34-.62-3.35-1.01-1.82-1.79-2.43-1.73-.92-2.84-.92-2.06.3-2.83.92c-.78.61-1.37,1.42-1.78,2.43s-.62,2.13-.62,3.35.2,2.32.61,3.33,1,1.81,1.77,2.42c.78.61,1.73.91,2.85.91Z"/><path class="cls-1" d="M634.73,12.61v10.21h-1.99V6.45h1.92v3.82s-.29,0-.29,0c.45-1.43,1.15-2.46,2.12-3.09.96-.63,2.06-.95,3.3-.95,1.11,0,2.09.23,2.92.7.84.46,1.49,1.14,1.96,2.03s.71,1.98.71,3.28v10.59h-1.98v-10.45c0-1.34-.38-2.39-1.13-3.17s-1.76-1.17-3.02-1.17c-.86,0-1.63.18-2.31.55s-1.22.89-1.62,1.58c-.39.69-.59,1.5-.59,2.44Z"/><path class="cls-1" d="M650.39,22.82V6.45h1.93v3.73s-.21,0-.21,0c.22-.92.59-1.67,1.08-2.26s1.08-1.03,1.75-1.32c.67-.29,1.35-.44,2.06-.44,1.2,0,2.19.37,2.97,1.11.78.74,1.27,1.74,1.49,2.99h-.32c.2-.85.55-1.58,1.05-2.19s1.13-1.08,1.86-1.41,1.53-.5,2.4-.5c.98,0,1.85.21,2.62.64.77.42,1.37,1.05,1.82,1.89.44.83.67,1.87.67,3.1v11.03h-1.98v-10.97c0-1.32-.35-2.29-1.05-2.91s-1.57-.94-2.59-.94c-.78,0-1.47.17-2.07.5s-1.06.8-1.4,1.41c-.34.61-.5,1.31-.5,2.12v10.8h-1.98v-11.15c0-1.13-.33-2.03-.99-2.69-.66-.66-1.51-.99-2.56-.99-.73,0-1.41.17-2.02.51s-1.11.83-1.48,1.46-.56,1.41-.56,2.31v10.53h-1.99Z"/><path class="cls-1" d="M677.58,3.41c-.39,0-.73-.14-1.02-.41-.29-.27-.43-.6-.43-.98s.14-.72.43-.99c.29-.27.63-.4,1.02-.4s.74.13,1.03.4.42.6.42.99-.14.71-.42.98-.62.41-1.03.41ZM676.57,22.82V6.45h1.99v16.38h-1.99Z"/><path class="cls-1" d="M689.84,29.3c-1.11,0-2.09-.14-2.94-.43-.85-.29-1.56-.68-2.13-1.18s-1.03-1.07-1.35-1.71l1.64-1c.23.42.55.83.94,1.22.4.4.91.72,1.53.97s1.39.37,2.3.37c1.45,0,2.61-.36,3.49-1.08s1.32-1.83,1.32-3.33v-3.68h-.19c-.21.51-.53,1.01-.95,1.5s-.95.9-1.62,1.22-1.48.48-2.46.48c-1.3,0-2.45-.32-3.46-.97-1.01-.64-1.8-1.57-2.38-2.77s-.86-2.64-.86-4.31.28-3.13.85-4.39,1.36-2.23,2.37-2.94,2.19-1.05,3.53-1.05c1,0,1.83.18,2.49.53s1.2.79,1.6,1.31.72,1.03.93,1.53h.21v-3.15h1.93v16.77c0,1.39-.29,2.53-.88,3.43s-1.39,1.57-2.42,2-2.19.65-3.5.65ZM689.72,20.86c1.04,0,1.94-.25,2.67-.75s1.3-1.23,1.69-2.17.59-2.07.59-3.38-.19-2.4-.58-3.38-.94-1.75-1.68-2.31-1.63-.84-2.7-.84-1.98.29-2.72.87-1.31,1.37-1.69,2.35-.58,2.09-.58,3.31.2,2.33.59,3.28.96,1.69,1.7,2.22,1.65.8,2.71.8Z"/><path class="cls-1" d="M708.03,23.17c-1.43,0-2.68-.36-3.76-1.08s-1.93-1.71-2.55-2.99-.92-2.74-.92-4.39.31-3.16.92-4.43,1.46-2.27,2.55-2.99,2.34-1.08,3.76-1.08,2.67.36,3.76,1.08,1.94,1.71,2.56,2.99.92,2.75.92,4.43-.31,3.11-.92,4.39c-.61,1.27-1.46,2.27-2.55,2.99-1.09.72-2.35,1.08-3.77,1.08ZM708.03,21.37c1.12,0,2.08-.3,2.86-.91s1.37-1.41,1.78-2.42.61-2.12.61-3.33-.21-2.34-.62-3.35-1.01-1.82-1.79-2.43-1.73-.92-2.84-.92-2.06.3-2.83.92c-.78.61-1.37,1.42-1.78,2.43s-.62,2.13-.62,3.35.2,2.32.61,3.33,1,1.81,1.77,2.42c.78.61,1.73.91,2.85.91Z"/><path class="cls-1" d="M721.16,23c-.44,0-.81-.15-1.12-.46-.31-.31-.46-.68-.46-1.11s.15-.81.46-1.12c.31-.31.68-.46,1.12-.46s.81.15,1.11.46.45.68.45,1.12-.15.8-.45,1.11-.67.46-1.11.46ZM720.16,16.03l-.12-15.03h2.21l-.13,15.03h-1.96Z"/><path class="cls-1" d="M.38,62.82v-21.83h7.12c1.54,0,2.84.3,3.88.89s1.83,1.4,2.37,2.42.8,2.16.8,3.44-.27,2.43-.8,3.46-1.32,1.84-2.36,2.43c-1.04.6-2.33.89-3.87.89H1.96v-1.86h5.46c1.13,0,2.07-.21,2.82-.64s1.31-1.01,1.68-1.75.56-1.59.56-2.54-.19-1.78-.56-2.52-.93-1.32-1.68-1.74-1.69-.63-2.83-.63H2.46v19.97H.38Z"/><path class="cls-1" d="M25.31,63.17c-1.53,0-2.86-.36-3.98-1.08-1.12-.72-1.98-1.71-2.59-2.98s-.92-2.73-.92-4.38.3-3.12.9-4.39c.6-1.28,1.44-2.29,2.52-3.02,1.08-.73,2.33-1.1,3.76-1.1.9,0,1.76.16,2.59.49s1.58.83,2.24,1.49,1.19,1.52,1.57,2.54.57,2.23.57,3.62v.87h-12.85v-1.71h11.78l-.91.64c0-1.17-.2-2.22-.6-3.15s-.97-1.66-1.71-2.2-1.64-.81-2.68-.81-1.94.27-2.72.82c-.78.55-1.38,1.27-1.82,2.17s-.65,1.88-.65,2.96v1.03c0,1.28.22,2.4.67,3.36s1.09,1.71,1.91,2.24,1.8.8,2.92.8c.76,0,1.43-.12,2.01-.37.58-.24,1.07-.57,1.46-.97.39-.41.69-.85.89-1.33l1.89.6c-.25.68-.66,1.32-1.22,1.9-.56.59-1.27,1.06-2.12,1.41s-1.83.54-2.93.54Z"/><path class="cls-1" d="M36.06,62.82v-16.38h1.93v2.55h.15c.33-.84.9-1.51,1.71-2.01.81-.5,1.72-.75,2.75-.75.17,0,.34,0,.53,0s.35.01.48.02v1.99c-.07-.02-.21-.04-.44-.07s-.47-.04-.73-.04c-.84,0-1.59.18-2.26.54s-1.18.86-1.56,1.48-.56,1.34-.56,2.15v10.5h-1.99Z"/><path class="cls-1" d="M52.73,63.17c-1.43,0-2.68-.36-3.76-1.08s-1.93-1.71-2.55-2.99-.92-2.74-.92-4.39.31-3.16.92-4.43,1.46-2.27,2.55-2.99,2.34-1.08,3.76-1.08,2.67.36,3.76,1.08,1.94,1.71,2.56,2.99.92,2.75.92,4.43-.31,3.11-.92,4.39c-.61,1.27-1.46,2.27-2.55,2.99-1.09.72-2.35,1.08-3.77,1.08ZM52.73,61.37c1.12,0,2.08-.3,2.86-.91s1.37-1.41,1.78-2.42.61-2.12.61-3.33-.21-2.34-.62-3.35-1.01-1.82-1.79-2.43-1.73-.92-2.84-.92-2.06.3-2.83.92c-.78.61-1.37,1.42-1.78,2.43s-.62,2.13-.62,3.35.2,2.32.61,3.33,1,1.81,1.77,2.42c.78.61,1.73.91,2.85.91Z"/><path class="cls-1" d="M77.78,63.17c-1.07,0-2.03-.16-2.86-.49s-1.51-.81-2.05-1.44-.9-1.4-1.1-2.32l1.9-.46c.23.99.7,1.72,1.4,2.21.7.48,1.59.72,2.67.72,1.24,0,2.23-.28,2.98-.83.75-.56,1.12-1.25,1.12-2.08,0-.66-.22-1.22-.67-1.66s-1.11-.77-2-.98l-2.67-.64c-1.41-.34-2.46-.88-3.16-1.6s-1.05-1.64-1.05-2.75c0-.92.25-1.72.74-2.42.49-.69,1.17-1.24,2.04-1.63.87-.39,1.85-.59,2.95-.59,1.04,0,1.92.16,2.67.48s1.35.76,1.84,1.34c.48.58.85,1.26,1.09,2.05l-1.82.47c-.25-.75-.68-1.37-1.27-1.87-.59-.49-1.42-.74-2.5-.74s-1.98.26-2.68.78-1.05,1.19-1.05,2.01c0,.69.24,1.26.71,1.7s1.21.78,2.22,1.03l2.5.6c1.39.34,2.42.87,3.11,1.6.69.72,1.03,1.63,1.03,2.71,0,.94-.26,1.77-.78,2.49s-1.24,1.29-2.16,1.7c-.92.41-1.99.62-3.19.62Z"/><path class="cls-1" d="M89.06,43.41c-.39,0-.73-.14-1.02-.41-.29-.27-.43-.6-.43-.98s.14-.72.43-.99c.29-.27.63-.4,1.02-.4s.74.13,1.03.4.42.6.42.99-.14.71-.42.98-.62.41-1.03.41ZM88.05,62.82v-16.38h1.99v16.38h-1.99Z"/><path class="cls-1" d="M116.53,68.95h-1.98v-9.19h-.16c-.21.51-.53,1.03-.94,1.55s-.95.97-1.61,1.33-1.49.54-2.49.54c-1.33,0-2.5-.35-3.51-1.06-1.01-.71-1.8-1.7-2.36-2.97-.56-1.27-.84-2.76-.84-4.46s.28-3.17.85-4.44,1.35-2.26,2.37-2.96c1.01-.7,2.18-1.05,3.51-1.05,1,0,1.83.18,2.49.54s1.2.79,1.6,1.31.72,1.03.93,1.52h.22v-3.15h1.92v22.5ZM109.61,61.37c1.05,0,1.95-.29,2.69-.86.74-.58,1.3-1.37,1.68-2.38s.58-2.17.58-3.46-.19-2.45-.58-3.44-.95-1.78-1.68-2.34c-.74-.57-1.63-.85-2.69-.85s-1.97.29-2.71.88-1.3,1.38-1.68,2.38-.57,2.13-.57,3.38.19,2.38.58,3.4.95,1.82,1.69,2.42,1.64.89,2.7.89Z"/><path class="cls-1" d="M127.16,63.04c-1.1,0-2.08-.23-2.92-.7-.85-.46-1.5-1.14-1.98-2.04s-.71-1.99-.71-3.27v-10.59h1.99v10.44c0,1.34.38,2.4,1.13,3.17s1.76,1.16,3.02,1.16c.86,0,1.63-.18,2.31-.55s1.22-.89,1.62-1.58c.39-.69.59-1.5.59-2.44v-10.21h1.99v16.38h-1.93v-3.82h.29c-.45,1.45-1.16,2.48-2.12,3.11s-2.06.94-3.28.94Z"/><path class="cls-1" d="M145.85,63.17c-1.53,0-2.86-.36-3.98-1.08-1.12-.72-1.98-1.71-2.59-2.98s-.92-2.73-.92-4.38.3-3.12.9-4.39c.6-1.28,1.44-2.29,2.52-3.02,1.08-.73,2.33-1.1,3.76-1.1.9,0,1.76.16,2.59.49s1.58.83,2.24,1.49,1.19,1.52,1.57,2.54.57,2.23.57,3.62v.87h-12.85v-1.71h11.78l-.91.64c0-1.17-.2-2.22-.6-3.15s-.97-1.66-1.71-2.2-1.64-.81-2.68-.81-1.94.27-2.72.82c-.78.55-1.38,1.27-1.82,2.17s-.65,1.88-.65,2.96v1.03c0,1.28.22,2.4.67,3.36s1.09,1.71,1.91,2.24,1.8.8,2.92.8c.76,0,1.43-.12,2.01-.37.58-.24,1.07-.57,1.46-.97.39-.41.69-.85.89-1.33l1.89.6c-.25.68-.66,1.32-1.22,1.9-.56.59-1.27,1.06-2.12,1.41s-1.83.54-2.93.54Z"/><path class="cls-1" d="M156.61,62.82v-16.38h1.93v2.55h.15c.33-.84.9-1.51,1.71-2.01.81-.5,1.72-.75,2.75-.75.17,0,.34,0,.53,0s.35.01.48.02v1.99c-.07-.02-.21-.04-.44-.07s-.47-.04-.73-.04c-.84,0-1.59.18-2.26.54s-1.18.86-1.56,1.48-.56,1.34-.56,2.15v10.5h-1.99Z"/><path class="cls-1" d="M173.53,63.17c-1.53,0-2.86-.36-3.98-1.08-1.12-.72-1.98-1.71-2.59-2.98s-.92-2.73-.92-4.38.3-3.12.9-4.39c.6-1.28,1.44-2.29,2.52-3.02,1.08-.73,2.33-1.1,3.76-1.1.9,0,1.76.16,2.59.49s1.58.83,2.24,1.49,1.19,1.52,1.57,2.54.57,2.23.57,3.62v.87h-12.85v-1.71h11.78l-.91.64c0-1.17-.2-2.22-.6-3.15s-.97-1.66-1.71-2.2-1.64-.81-2.68-.81-1.94.27-2.72.82c-.78.55-1.38,1.27-1.82,2.17s-.65,1.88-.65,2.96v1.03c0,1.28.22,2.4.67,3.36s1.09,1.71,1.91,2.24,1.8.8,2.92.8c.76,0,1.43-.12,2.01-.37.58-.24,1.07-.57,1.46-.97.39-.41.69-.85.89-1.33l1.89.6c-.25.68-.66,1.32-1.22,1.9-.56.59-1.27,1.06-2.12,1.41s-1.83.54-2.93.54ZM172.27,44.22l2.11-4.22h2.26l-2.71,4.22h-1.66Z"/><path class="cls-1" d="M189.49,63.17c-1.07,0-2.03-.16-2.86-.49s-1.51-.81-2.05-1.44-.9-1.4-1.1-2.32l1.9-.46c.23.99.7,1.72,1.4,2.21.7.48,1.59.72,2.67.72,1.24,0,2.23-.28,2.98-.83.75-.56,1.12-1.25,1.12-2.08,0-.66-.22-1.22-.67-1.66s-1.11-.77-2-.98l-2.67-.64c-1.41-.34-2.46-.88-3.16-1.6s-1.05-1.64-1.05-2.75c0-.92.25-1.72.74-2.42.49-.69,1.17-1.24,2.04-1.63.87-.39,1.85-.59,2.95-.59,1.04,0,1.92.16,2.67.48s1.35.76,1.84,1.34c.48.58.85,1.26,1.09,2.05l-1.82.47c-.25-.75-.68-1.37-1.27-1.87-.59-.49-1.42-.74-2.5-.74s-1.98.26-2.68.78-1.05,1.19-1.05,2.01c0,.69.24,1.26.71,1.7s1.21.78,2.22,1.03l2.5.6c1.39.34,2.42.87,3.11,1.6.69.72,1.03,1.63,1.03,2.71,0,.94-.26,1.77-.78,2.49s-1.24,1.29-2.16,1.7c-.92.41-1.99.62-3.19.62Z"/><path class="cls-1" d="M213.74,46.45v1.73h-7.79v-1.73h7.79ZM208.37,42.55h1.99v16.41c0,.81.18,1.41.54,1.79s.91.53,1.66.45c.14,0,.3-.02.5-.05s.39-.07.56-.11l.41,1.71c-.21.07-.45.12-.71.16s-.52.06-.78.07c-1.31.09-2.33-.22-3.07-.93-.74-.71-1.11-1.7-1.11-2.97v-16.54Z"/><path class="cls-1" d="M223.54,63.17c-1.53,0-2.86-.36-3.98-1.08-1.12-.72-1.98-1.71-2.59-2.98s-.92-2.73-.92-4.38.3-3.12.9-4.39c.6-1.28,1.44-2.29,2.52-3.02,1.08-.73,2.33-1.1,3.76-1.1.9,0,1.76.16,2.59.49s1.58.83,2.24,1.49,1.19,1.52,1.57,2.54.57,2.23.57,3.62v.87h-12.85v-1.71h11.78l-.91.64c0-1.17-.2-2.22-.6-3.15s-.97-1.66-1.71-2.2-1.64-.81-2.68-.81-1.94.27-2.72.82c-.78.55-1.38,1.27-1.82,2.17s-.65,1.88-.65,2.96v1.03c0,1.28.22,2.4.67,3.36s1.09,1.71,1.91,2.24,1.8.8,2.92.8c.76,0,1.43-.12,2.01-.37.58-.24,1.07-.57,1.46-.97.39-.41.69-.85.89-1.33l1.89.6c-.25.68-.66,1.32-1.22,1.9-.56.59-1.27,1.06-2.12,1.41s-1.83.54-2.93.54Z"/><path class="cls-1" d="M236.28,52.61v10.21h-1.99v-16.38h1.92v3.82s-.29,0-.29,0c.45-1.43,1.15-2.46,2.12-3.09.96-.63,2.06-.95,3.3-.95,1.11,0,2.09.23,2.92.7.84.46,1.49,1.14,1.96,2.03s.71,1.98.71,3.28v10.59h-1.98v-10.45c0-1.34-.38-2.39-1.13-3.17s-1.76-1.17-3.02-1.17c-.86,0-1.63.18-2.31.55s-1.22.89-1.62,1.58c-.39.69-.59,1.5-.59,2.44Z"/><path class="cls-1" d="M258.57,63.17c-1.53,0-2.86-.36-3.98-1.08-1.12-.72-1.98-1.71-2.59-2.98s-.92-2.73-.92-4.38.3-3.12.9-4.39c.6-1.28,1.44-2.29,2.52-3.02,1.08-.73,2.33-1.1,3.76-1.1.9,0,1.76.16,2.59.49s1.58.83,2.24,1.49,1.19,1.52,1.57,2.54.57,2.23.57,3.62v.87h-12.85v-1.71h11.78l-.91.64c0-1.17-.2-2.22-.6-3.15s-.97-1.66-1.71-2.2-1.64-.81-2.68-.81-1.94.27-2.72.82c-.78.55-1.38,1.27-1.82,2.17s-.65,1.88-.65,2.96v1.03c0,1.28.22,2.4.67,3.36s1.09,1.71,1.91,2.24,1.8.8,2.92.8c.76,0,1.43-.12,2.01-.37.58-.24,1.07-.57,1.46-.97.39-.41.69-.85.89-1.33l1.89.6c-.25.68-.66,1.32-1.22,1.9-.56.59-1.27,1.06-2.12,1.41s-1.83.54-2.93.54Z"/><path class="cls-1" d="M269.33,62.82v-16.38h1.93v2.55h.15c.33-.84.9-1.51,1.71-2.01.81-.5,1.72-.75,2.75-.75.17,0,.34,0,.53,0s.35.01.48.02v1.99c-.07-.02-.21-.04-.44-.07s-.47-.04-.73-.04c-.84,0-1.59.18-2.26.54s-1.18.86-1.56,1.48-.56,1.34-.56,2.15v10.5h-1.99Z"/><path class="cls-1" d="M294.16,63.04c-1.1,0-2.08-.23-2.92-.7-.85-.46-1.5-1.14-1.98-2.04s-.71-1.99-.71-3.27v-10.59h1.99v10.44c0,1.34.38,2.4,1.13,3.17s1.76,1.16,3.02,1.16c.86,0,1.63-.18,2.31-.55s1.22-.89,1.62-1.58c.39-.69.59-1.5.59-2.44v-10.21h1.99v16.38h-1.93v-3.82h.29c-.45,1.45-1.16,2.48-2.12,3.11s-2.06.94-3.28.94Z"/><path class="cls-1" d="M308.2,52.61v10.21h-1.99v-16.38h1.92v3.82s-.29,0-.29,0c.45-1.43,1.15-2.46,2.12-3.09.96-.63,2.06-.95,3.3-.95,1.11,0,2.09.23,2.92.7.84.46,1.49,1.14,1.96,2.03s.71,1.98.71,3.28v10.59h-1.98v-10.45c0-1.34-.38-2.39-1.13-3.17s-1.76-1.17-3.02-1.17c-.86,0-1.63.18-2.31.55s-1.22.89-1.62,1.58c-.39.69-.59,1.5-.59,2.44Z"/><path class="cls-1" d="M338.16,63.17c-1.33,0-2.5-.35-3.51-1.06-1.01-.71-1.8-1.7-2.36-2.97-.56-1.27-.84-2.76-.84-4.46s.28-3.17.85-4.44,1.35-2.26,2.37-2.96c1.01-.7,2.18-1.05,3.51-1.05,1,0,1.83.18,2.49.54s1.2.79,1.6,1.31.72,1.03.93,1.52h.16v-8.6h1.98v21.83h-1.92v-3.06h-.22c-.21.51-.53,1.03-.94,1.55s-.95.97-1.61,1.33-1.49.54-2.49.54ZM338.42,61.37c1.05,0,1.95-.29,2.69-.86.74-.58,1.3-1.37,1.68-2.38s.58-2.17.58-3.46-.19-2.45-.58-3.44-.95-1.78-1.68-2.34c-.74-.57-1.63-.85-2.69-.85s-1.97.29-2.71.88-1.3,1.38-1.68,2.38-.57,2.13-.57,3.38.19,2.38.58,3.4.95,1.82,1.69,2.42,1.64.89,2.7.89Z"/><path class="cls-1" d="M357,63.17c-1.53,0-2.86-.36-3.98-1.08-1.12-.72-1.98-1.71-2.59-2.98s-.92-2.73-.92-4.38.3-3.12.9-4.39c.6-1.28,1.44-2.29,2.52-3.02,1.08-.73,2.33-1.1,3.76-1.1.9,0,1.76.16,2.59.49s1.58.83,2.24,1.49,1.19,1.52,1.57,2.54.57,2.23.57,3.62v.87h-12.85v-1.71h11.78l-.91.64c0-1.17-.2-2.22-.6-3.15s-.97-1.66-1.71-2.2-1.64-.81-2.68-.81-1.94.27-2.72.82c-.78.55-1.38,1.27-1.82,2.17s-.65,1.88-.65,2.96v1.03c0,1.28.22,2.4.67,3.36s1.09,1.71,1.91,2.24,1.8.8,2.92.8c.76,0,1.43-.12,2.01-.37.58-.24,1.07-.57,1.46-.97.39-.41.69-.85.89-1.33l1.89.6c-.25.68-.66,1.32-1.22,1.9-.56.59-1.27,1.06-2.12,1.41s-1.83.54-2.93.54Z"/><path class="cls-1" d="M373.29,46.45v1.73h-7.79v-1.73h7.79ZM367.92,42.55h1.99v16.41c0,.81.18,1.41.54,1.79s.91.53,1.66.45c.14,0,.3-.02.5-.05s.39-.07.56-.11l.41,1.71c-.21.07-.45.12-.71.16s-.52.06-.78.07c-1.31.09-2.33-.22-3.07-.93-.74-.71-1.11-1.7-1.11-2.97v-16.54Z"/><path class="cls-1" d="M381.2,63.19c-1,0-1.9-.19-2.72-.57s-1.46-.94-1.95-1.69c-.48-.74-.73-1.64-.73-2.7,0-.81.15-1.49.45-2.04s.74-1.01,1.3-1.36,1.23-.64,2-.84,1.61-.37,2.54-.48c.91-.12,1.68-.22,2.31-.3s1.12-.22,1.46-.4c.34-.19.5-.48.5-.89v-.38c0-.73-.15-1.36-.45-1.89-.3-.53-.73-.93-1.3-1.22-.57-.28-1.27-.42-2.09-.42-.77,0-1.45.12-2.04.36s-1.07.55-1.46.94c-.39.39-.68.81-.87,1.27l-1.9-.64c.36-.89.87-1.6,1.52-2.14s1.39-.93,2.21-1.18,1.65-.37,2.49-.37c.64,0,1.31.09,1.99.26s1.32.46,1.9.86,1.06.96,1.42,1.67.54,1.6.54,2.69v11.12h-1.95v-2.59h-.15c-.23.5-.58.97-1.04,1.43s-1.02.82-1.69,1.11c-.67.28-1.45.42-2.34.42ZM381.49,61.42c1,0,1.86-.22,2.59-.66s1.3-1.03,1.7-1.77.6-1.56.6-2.45v-2.33c-.15.14-.39.26-.72.37s-.71.2-1.13.28c-.43.08-.85.15-1.28.21s-.81.11-1.13.15c-.91.11-1.69.28-2.34.53-.65.24-1.14.58-1.48,1-.34.42-.5.95-.5,1.6s.16,1.21.48,1.67.76.81,1.32,1.05,1.19.37,1.89.37Z"/><path class="cls-1" d="M395.36,41v21.83h-1.99v-21.83h1.99Z"/><path class="cls-1" d="M402.36,41v21.83h-1.99v-21.83h1.99Z"/><path class="cls-1" d="M414.01,63.17c-1.53,0-2.86-.36-3.98-1.08-1.12-.72-1.98-1.71-2.59-2.98s-.92-2.73-.92-4.38.3-3.12.9-4.39c.6-1.28,1.44-2.29,2.52-3.02,1.08-.73,2.33-1.1,3.76-1.1.9,0,1.76.16,2.59.49s1.58.83,2.24,1.49,1.19,1.52,1.57,2.54.57,2.23.57,3.62v.87h-12.85v-1.71h11.78l-.91.64c0-1.17-.2-2.22-.6-3.15s-.97-1.66-1.71-2.2-1.64-.81-2.68-.81-1.94.27-2.72.82c-.78.55-1.38,1.27-1.82,2.17s-.65,1.88-.65,2.96v1.03c0,1.28.22,2.4.67,3.36s1.09,1.71,1.91,2.24,1.8.8,2.92.8c.76,0,1.43-.12,2.01-.37.58-.24,1.07-.57,1.46-.97.39-.41.69-.85.89-1.33l1.89.6c-.25.68-.66,1.32-1.22,1.9-.56.59-1.27,1.06-2.12,1.41s-1.83.54-2.93.54Z"/><path class="cls-1" d="M439.83,63.17c-1.53,0-2.86-.36-3.98-1.08-1.12-.72-1.98-1.71-2.59-2.98s-.92-2.73-.92-4.38.3-3.12.9-4.39c.6-1.28,1.44-2.29,2.52-3.02,1.08-.73,2.33-1.1,3.76-1.1.9,0,1.76.16,2.59.49s1.58.83,2.24,1.49,1.19,1.52,1.57,2.54.57,2.23.57,3.62v.87h-12.85v-1.71h11.78l-.91.64c0-1.17-.2-2.22-.6-3.15s-.97-1.66-1.71-2.2-1.64-.81-2.68-.81-1.94.27-2.72.82c-.78.55-1.38,1.27-1.82,2.17s-.65,1.88-.65,2.96v1.03c0,1.28.22,2.4.67,3.36s1.09,1.71,1.91,2.24,1.8.8,2.92.8c.76,0,1.43-.12,2.01-.37.58-.24,1.07-.57,1.46-.97.39-.41.69-.85.89-1.33l1.89.6c-.25.68-.66,1.32-1.22,1.9-.56.59-1.27,1.06-2.12,1.41s-1.83.54-2.93.54Z"/><path class="cls-1" d="M455.8,63.17c-1.07,0-2.03-.16-2.86-.49s-1.51-.81-2.05-1.44-.9-1.4-1.1-2.32l1.9-.46c.23.99.7,1.72,1.4,2.21.7.48,1.59.72,2.67.72,1.24,0,2.23-.28,2.98-.83.75-.56,1.12-1.25,1.12-2.08,0-.66-.22-1.22-.67-1.66s-1.11-.77-2-.98l-2.67-.64c-1.41-.34-2.46-.88-3.16-1.6s-1.05-1.64-1.05-2.75c0-.92.25-1.72.74-2.42.49-.69,1.17-1.24,2.04-1.63.87-.39,1.85-.59,2.95-.59,1.04,0,1.92.16,2.67.48s1.35.76,1.84,1.34c.48.58.85,1.26,1.09,2.05l-1.82.47c-.25-.75-.68-1.37-1.27-1.87-.59-.49-1.42-.74-2.5-.74s-1.98.26-2.68.78-1.05,1.19-1.05,2.01c0,.69.24,1.26.71,1.7s1.21.78,2.22,1.03l2.5.6c1.39.34,2.42.87,3.11,1.6.69.72,1.03,1.63,1.03,2.71,0,.94-.26,1.77-.78,2.49s-1.24,1.29-2.16,1.7c-.92.41-1.99.62-3.19.62Z"/><path class="cls-1" d="M466.07,68.95v-22.5h1.93v3.15h.22c.21-.5.52-1.01.93-1.52s.94-.95,1.6-1.31c.66-.36,1.49-.54,2.5-.54,1.34,0,2.51.35,3.52,1.05s1.79,1.69,2.36,2.96.85,2.75.85,4.44-.28,3.19-.84,4.46c-.56,1.27-1.35,2.27-2.35,2.97s-2.18,1.06-3.53,1.06c-.98,0-1.8-.18-2.47-.54-.67-.36-1.21-.8-1.61-1.33-.41-.53-.72-1.04-.95-1.55h-.16v9.19h-1.99ZM472.98,61.37c1.07,0,1.98-.3,2.72-.89.74-.6,1.3-1.4,1.68-2.42s.58-2.15.58-3.4-.19-2.38-.57-3.38-.94-1.79-1.68-2.38-1.65-.88-2.72-.88-1.95.28-2.69.85-1.3,1.35-1.68,2.34c-.39,1-.58,2.14-.58,3.44s.2,2.45.59,3.46.95,1.8,1.69,2.38c.74.58,1.63.86,2.67.86Z"/><path class="cls-1" d="M490.77,63.17c-1.53,0-2.86-.36-3.98-1.08-1.12-.72-1.98-1.71-2.59-2.98s-.92-2.73-.92-4.38.3-3.12.9-4.39c.6-1.28,1.44-2.29,2.52-3.02,1.08-.73,2.33-1.1,3.76-1.1.9,0,1.76.16,2.59.49s1.58.83,2.24,1.49,1.19,1.52,1.57,2.54.57,2.23.57,3.62v.87h-12.85v-1.71h11.78l-.91.64c0-1.17-.2-2.22-.6-3.15s-.97-1.66-1.71-2.2-1.64-.81-2.68-.81-1.94.27-2.72.82c-.78.55-1.38,1.27-1.82,2.17s-.65,1.88-.65,2.96v1.03c0,1.28.22,2.4.67,3.36s1.09,1.71,1.91,2.24,1.8.8,2.92.8c.76,0,1.43-.12,2.01-.37.58-.24,1.07-.57,1.46-.97.39-.41.69-.85.89-1.33l1.89.6c-.25.68-.66,1.32-1.22,1.9-.56.59-1.27,1.06-2.12,1.41s-1.83.54-2.93.54Z"/><path class="cls-1" d="M507.91,63.13c-1.43,0-2.68-.36-3.76-1.07s-1.93-1.71-2.55-2.97-.92-2.73-.92-4.38.31-3.16.92-4.43,1.46-2.27,2.55-2.98,2.34-1.07,3.76-1.07c.83,0,1.59.12,2.29.37s1.31.57,1.85.97.98.85,1.34,1.35c.36.49.62.99.78,1.49l-1.89.59c-.09-.3-.25-.62-.48-.97s-.54-.66-.9-.97c-.37-.3-.8-.55-1.3-.74s-1.06-.29-1.68-.29c-1.11,0-2.06.3-2.83.91-.78.61-1.37,1.41-1.78,2.42s-.62,2.12-.62,3.36.21,2.32.62,3.32,1,1.81,1.78,2.41c.78.6,1.72.9,2.83.9.63,0,1.21-.1,1.71-.29s.95-.45,1.33-.75c.38-.31.68-.64.92-1s.4-.69.48-1l1.88.59c-.16.51-.42,1.01-.78,1.51s-.82.95-1.36,1.37-1.17.75-1.88,1-1.47.37-2.3.37Z"/><path class="cls-1" d="M519.3,43.41c-.39,0-.73-.14-1.02-.41-.29-.27-.43-.6-.43-.98s.14-.72.43-.99c.29-.27.63-.4,1.02-.4s.74.13,1.03.4.42.6.42.99-.14.71-.42.98-.62.41-1.03.41ZM518.29,62.82v-16.38h1.99v16.38h-1.99Z"/><path class="cls-1" d="M529.6,63.19c-1,0-1.9-.19-2.72-.57s-1.46-.94-1.95-1.69c-.48-.74-.73-1.64-.73-2.7,0-.81.15-1.49.45-2.04s.74-1.01,1.3-1.36,1.23-.64,2-.84,1.61-.37,2.54-.48c.91-.12,1.68-.22,2.31-.3s1.12-.22,1.46-.4c.34-.19.5-.48.5-.89v-.38c0-.73-.15-1.36-.45-1.89-.3-.53-.73-.93-1.3-1.22-.57-.28-1.27-.42-2.09-.42-.77,0-1.45.12-2.04.36s-1.07.55-1.46.94c-.39.39-.68.81-.87,1.27l-1.9-.64c.36-.89.87-1.6,1.52-2.14s1.39-.93,2.21-1.18,1.65-.37,2.49-.37c.64,0,1.31.09,1.99.26s1.32.46,1.9.86,1.06.96,1.42,1.67.54,1.6.54,2.69v11.12h-1.95v-2.59h-.15c-.23.5-.58.97-1.04,1.43s-1.02.82-1.69,1.11c-.67.28-1.45.42-2.34.42ZM529.89,61.42c1,0,1.86-.22,2.59-.66s1.3-1.03,1.7-1.77.6-1.56.6-2.45v-2.33c-.15.14-.39.26-.72.37s-.71.2-1.13.28c-.43.08-.85.15-1.28.21s-.81.11-1.13.15c-.91.11-1.69.28-2.34.53-.65.24-1.14.58-1.48,1-.34.42-.5.95-.5,1.6s.16,1.21.48,1.67.76.81,1.32,1.05,1.19.37,1.89.37Z"/><path class="cls-1" d="M543.76,41v21.83h-1.99v-21.83h1.99Z"/><path class="cls-1" d="M548.35,67.79l1.35-7.73h2.26l-2.07,7.73h-1.54Z"/><path class="cls-1" d="M571.22,46.45v1.73h-7.79v-1.73h7.79ZM565.85,42.55h1.99v16.41c0,.81.18,1.41.54,1.79s.91.53,1.66.45c.14,0,.3-.02.5-.05s.39-.07.56-.11l.41,1.71c-.21.07-.45.12-.71.16s-.52.06-.78.07c-1.31.09-2.33-.22-3.07-.93-.74-.71-1.11-1.7-1.11-2.97v-16.54Z"/><path class="cls-1" d="M581.02,63.17c-1.53,0-2.86-.36-3.98-1.08-1.12-.72-1.98-1.71-2.59-2.98s-.92-2.73-.92-4.38.3-3.12.9-4.39c.6-1.28,1.44-2.29,2.52-3.02,1.08-.73,2.33-1.1,3.76-1.1.9,0,1.76.16,2.59.49s1.58.83,2.24,1.49,1.19,1.52,1.57,2.54.57,2.23.57,3.62v.87h-12.85v-1.71h11.78l-.91.64c0-1.17-.2-2.22-.6-3.15s-.97-1.66-1.71-2.2-1.64-.81-2.68-.81-1.94.27-2.72.82c-.78.55-1.38,1.27-1.82,2.17s-.65,1.88-.65,2.96v1.03c0,1.28.22,2.4.67,3.36s1.09,1.71,1.91,2.24,1.8.8,2.92.8c.76,0,1.43-.12,2.01-.37.58-.24,1.07-.57,1.46-.97.39-.41.69-.85.89-1.33l1.89.6c-.25.68-.66,1.32-1.22,1.9-.56.59-1.27,1.06-2.12,1.41s-1.83.54-2.93.54Z"/><path class="cls-1" d="M606.06,63.17c-1.33,0-2.5-.35-3.51-1.06-1.01-.71-1.8-1.7-2.36-2.97-.56-1.27-.84-2.76-.84-4.46s.28-3.17.85-4.44,1.35-2.26,2.37-2.96c1.01-.7,2.18-1.05,3.51-1.05,1,0,1.83.18,2.49.54s1.2.79,1.6,1.31.72,1.03.93,1.52h.16v-8.6h1.98v21.83h-1.92v-3.06h-.22c-.21.51-.53,1.03-.94,1.55s-.95.97-1.61,1.33-1.49.54-2.49.54ZM606.33,61.37c1.05,0,1.95-.29,2.69-.86.74-.58,1.3-1.37,1.68-2.38s.58-2.17.58-3.46-.19-2.45-.58-3.44-.95-1.78-1.68-2.34c-.74-.57-1.63-.85-2.69-.85s-1.97.29-2.71.88-1.3,1.38-1.68,2.38-.57,2.13-.57,3.38.19,2.38.58,3.4.95,1.82,1.69,2.42,1.64.89,2.7.89Z"/><path class="cls-1" d="M624.9,63.17c-1.53,0-2.86-.36-3.98-1.08-1.12-.72-1.98-1.71-2.59-2.98s-.92-2.73-.92-4.38.3-3.12.9-4.39c.6-1.28,1.44-2.29,2.52-3.02,1.08-.73,2.33-1.1,3.76-1.1.9,0,1.76.16,2.59.49s1.58.83,2.24,1.49,1.19,1.52,1.57,2.54.57,2.23.57,3.62v.87h-12.85v-1.71h11.78l-.91.64c0-1.17-.2-2.22-.6-3.15s-.97-1.66-1.71-2.2-1.64-.81-2.68-.81-1.94.27-2.72.82c-.78.55-1.38,1.27-1.82,2.17s-.65,1.88-.65,2.96v1.03c0,1.28.22,2.4.67,3.36s1.09,1.71,1.91,2.24,1.8.8,2.92.8c.76,0,1.43-.12,2.01-.37.58-.24,1.07-.57,1.46-.97.39-.41.69-.85.89-1.33l1.89.6c-.25.68-.66,1.32-1.22,1.9-.56.59-1.27,1.06-2.12,1.41s-1.83.54-2.93.54Z"/><path class="cls-1" d="M635.68,46.45h1.99v17.94c0,.95-.18,1.76-.53,2.45-.36.68-.87,1.21-1.53,1.57s-1.46.54-2.39.54h-.44v-1.85h.41c.77,0,1.38-.24,1.82-.71s.67-1.14.67-2v-17.94ZM636.68,43.41c-.39,0-.73-.14-1.02-.41s-.43-.6-.43-.98.14-.72.43-.99.63-.4,1.02-.4.74.13,1.03.4.42.6.42.99-.14.71-.42.98-.62.41-1.03.41Z"/><path class="cls-1" d="M649.07,63.17c-1.43,0-2.68-.36-3.76-1.08s-1.93-1.71-2.55-2.99-.92-2.74-.92-4.39.31-3.16.92-4.43,1.46-2.27,2.55-2.99,2.34-1.08,3.76-1.08,2.67.36,3.76,1.08,1.94,1.71,2.56,2.99.92,2.75.92,4.43-.31,3.11-.92,4.39c-.61,1.27-1.46,2.27-2.55,2.99-1.09.72-2.35,1.08-3.77,1.08ZM649.07,61.37c1.12,0,2.08-.3,2.86-.91s1.37-1.41,1.78-2.42.61-2.12.61-3.33-.21-2.34-.62-3.35-1.01-1.82-1.79-2.43-1.73-.92-2.84-.92-2.06.3-2.83.92c-.78.61-1.37,1.42-1.78,2.43s-.62,2.13-.62,3.35.2,2.32.61,3.33,1,1.81,1.77,2.42c.78.61,1.73.91,2.85.91Z"/><path class="cls-1" d="M674.52,63.04c-1.1,0-2.08-.23-2.92-.7-.85-.46-1.5-1.14-1.98-2.04s-.71-1.99-.71-3.27v-10.59h1.99v10.44c0,1.34.38,2.4,1.13,3.17s1.76,1.16,3.02,1.16c.86,0,1.63-.18,2.31-.55s1.22-.89,1.62-1.58c.39-.69.59-1.5.59-2.44v-10.21h1.99v16.38h-1.93v-3.82h.29c-.45,1.45-1.16,2.48-2.12,3.11s-2.06.94-3.28.94Z"/><path class="cls-1" d="M688.56,52.61v10.21h-1.99v-16.38h1.92v3.82s-.29,0-.29,0c.45-1.43,1.15-2.46,2.12-3.09.96-.63,2.06-.95,3.3-.95,1.11,0,2.09.23,2.92.7.84.46,1.49,1.14,1.96,2.03s.71,1.98.71,3.28v10.59h-1.98v-10.45c0-1.34-.38-2.39-1.13-3.17s-1.76-1.17-3.02-1.17c-.86,0-1.63.18-2.31.55s-1.22.89-1.62,1.58c-.39.69-.59,1.5-.59,2.44Z"/><path class="cls-1" d="M1.99,81v21.83H0v-21.83h1.99Z"/><path class="cls-1" d="M8.01,83.41c-.39,0-.73-.14-1.02-.41s-.43-.6-.43-.98.14-.72.43-.99.63-.4,1.02-.4.74.13,1.03.4.42.6.42.99-.14.71-.42.98-.62.41-1.03.41ZM7,102.82v-16.38h1.99v16.38h-1.99Z"/><path class="cls-1" d="M16,92.61v10.21h-1.99v-16.38h1.92v3.82s-.29,0-.29,0c.45-1.43,1.15-2.46,2.12-3.09.96-.63,2.06-.95,3.3-.95,1.11,0,2.09.23,2.92.7.84.46,1.49,1.14,1.96,2.03s.71,1.98.71,3.28v10.59h-1.98v-10.45c0-1.34-.38-2.39-1.13-3.17s-1.76-1.17-3.02-1.17c-.86,0-1.63.18-2.31.55s-1.22.89-1.62,1.58c-.39.69-.59,1.5-.59,2.44Z"/><path class="cls-1" d="M31.66,102.82v-21.83h1.99v21.83h-1.99ZM33.47,96.7v-2.58h.41l7.57-7.68h2.5l-7.53,7.63-.23.03-2.72,2.59ZM41.84,102.82l-6.58-8.35,1.42-1.38,7.71,9.73h-2.55Z"/><path class="cls-1" d="M61.8,103.17c-1.33,0-2.5-.35-3.51-1.06-1.01-.71-1.8-1.7-2.36-2.97-.56-1.27-.84-2.76-.84-4.46s.28-3.17.85-4.44,1.35-2.26,2.37-2.96c1.01-.7,2.18-1.05,3.51-1.05,1,0,1.83.18,2.49.54s1.2.79,1.6,1.31.72,1.03.93,1.52h.16v-8.6h1.98v21.83h-1.92v-3.06h-.22c-.21.51-.53,1.03-.94,1.55s-.95.97-1.61,1.33-1.49.54-2.49.54ZM62.07,101.37c1.05,0,1.95-.29,2.69-.86.74-.58,1.3-1.37,1.68-2.38s.58-2.17.58-3.46-.19-2.45-.58-3.44-.95-1.78-1.68-2.34c-.74-.57-1.63-.85-2.69-.85s-1.97.29-2.71.88-1.3,1.38-1.68,2.38-.57,2.13-.57,3.38.19,2.38.58,3.4.95,1.82,1.69,2.42,1.64.89,2.7.89Z"/><path class="cls-1" d="M80.64,103.17c-1.53,0-2.86-.36-3.98-1.08-1.12-.72-1.98-1.71-2.59-2.98s-.92-2.73-.92-4.38.3-3.12.9-4.39c.6-1.28,1.44-2.29,2.52-3.02,1.08-.73,2.33-1.1,3.76-1.1.9,0,1.76.16,2.59.49s1.58.83,2.24,1.49,1.19,1.52,1.57,2.54.57,2.23.57,3.62v.87h-12.85v-1.71h11.78l-.91.64c0-1.17-.2-2.22-.6-3.15s-.97-1.66-1.71-2.2-1.64-.81-2.68-.81-1.94.27-2.72.82c-.78.55-1.38,1.27-1.82,2.17s-.65,1.88-.65,2.96v1.03c0,1.28.22,2.4.67,3.36s1.09,1.71,1.91,2.24,1.8.8,2.92.8c.76,0,1.43-.12,2.01-.37.58-.24,1.07-.57,1.46-.97.39-.41.69-.85.89-1.33l1.89.6c-.25.68-.66,1.32-1.22,1.9-.56.59-1.27,1.06-2.12,1.41s-1.83.54-2.93.54Z"/><path class="cls-1" d="M99.83,108.95v-22.5h1.93v3.15h.22c.21-.5.52-1.01.93-1.52s.94-.95,1.6-1.31c.66-.36,1.49-.54,2.5-.54,1.34,0,2.51.35,3.52,1.05s1.79,1.69,2.36,2.96.85,2.75.85,4.44-.28,3.19-.84,4.46c-.56,1.27-1.35,2.27-2.35,2.97s-2.18,1.06-3.53,1.06c-.98,0-1.8-.18-2.47-.54-.67-.36-1.21-.8-1.61-1.33-.41-.53-.72-1.04-.95-1.55h-.16v9.19h-1.99ZM106.74,101.37c1.07,0,1.98-.3,2.72-.89.74-.6,1.3-1.4,1.68-2.42s.58-2.15.58-3.4-.19-2.38-.57-3.38-.94-1.79-1.68-2.38-1.65-.88-2.72-.88-1.95.28-2.69.85-1.3,1.35-1.68,2.34c-.39,1-.58,2.14-.58,3.44s.2,2.45.59,3.46.95,1.8,1.69,2.38c.74.58,1.63.86,2.67.86Z"/><path class="cls-1" d="M122.49,103.19c-1,0-1.9-.19-2.72-.57s-1.46-.94-1.95-1.69c-.48-.74-.73-1.64-.73-2.7,0-.81.15-1.49.45-2.04s.74-1.01,1.3-1.36,1.23-.64,2-.84,1.61-.37,2.54-.48c.91-.12,1.68-.22,2.31-.3s1.12-.22,1.46-.4c.34-.19.5-.48.5-.89v-.38c0-.73-.15-1.36-.45-1.89-.3-.53-.73-.93-1.3-1.22-.57-.28-1.27-.42-2.09-.42-.77,0-1.45.12-2.04.36s-1.07.55-1.46.94c-.39.39-.68.81-.87,1.27l-1.9-.64c.36-.89.87-1.6,1.52-2.14s1.39-.93,2.21-1.18,1.65-.37,2.49-.37c.64,0,1.31.09,1.99.26s1.32.46,1.9.86,1.06.96,1.42,1.67.54,1.6.54,2.69v11.12h-1.95v-2.59h-.15c-.23.5-.58.97-1.04,1.43s-1.02.82-1.69,1.11c-.67.28-1.45.42-2.34.42ZM122.78,101.42c1,0,1.86-.22,2.59-.66s1.3-1.03,1.7-1.77.6-1.56.6-2.45v-2.33c-.15.14-.39.26-.72.37s-.71.2-1.13.28c-.43.08-.85.15-1.28.21s-.81.11-1.13.15c-.91.11-1.69.28-2.34.53-.65.24-1.14.58-1.48,1-.34.42-.5.95-.5,1.6s.16,1.21.48,1.67.76.81,1.32,1.05,1.19.37,1.89.37Z"/><path class="cls-1" d="M140.93,109.3c-1.11,0-2.09-.14-2.94-.43-.85-.29-1.56-.68-2.13-1.18s-1.03-1.07-1.35-1.71l1.64-1c.23.42.55.83.94,1.22.4.4.91.72,1.53.97s1.39.37,2.3.37c1.45,0,2.61-.36,3.49-1.08s1.32-1.83,1.32-3.33v-3.68h-.19c-.21.51-.53,1.01-.95,1.5s-.95.9-1.62,1.22-1.48.48-2.46.48c-1.3,0-2.45-.32-3.46-.97-1.01-.64-1.8-1.57-2.38-2.77s-.86-2.64-.86-4.31.28-3.13.85-4.39,1.36-2.23,2.37-2.94,2.19-1.05,3.53-1.05c1,0,1.83.18,2.49.53s1.2.79,1.6,1.31.72,1.03.93,1.53h.21v-3.15h1.93v16.77c0,1.39-.29,2.53-.88,3.43s-1.39,1.57-2.42,2-2.19.65-3.5.65ZM140.82,100.86c1.04,0,1.94-.25,2.67-.75s1.3-1.23,1.69-2.17.59-2.07.59-3.38-.19-2.4-.58-3.38-.94-1.75-1.68-2.31-1.63-.84-2.7-.84-1.98.29-2.72.87-1.31,1.37-1.69,2.35-.58,2.09-.58,3.31.2,2.33.59,3.28.96,1.69,1.7,2.22,1.65.8,2.71.8Z"/><path class="cls-1" d="M159.13,103.17c-1.43,0-2.68-.36-3.76-1.08s-1.93-1.71-2.55-2.99-.92-2.74-.92-4.39.31-3.16.92-4.43,1.46-2.27,2.55-2.99,2.34-1.08,3.76-1.08,2.67.36,3.76,1.08,1.94,1.71,2.56,2.99.92,2.75.92,4.43-.31,3.11-.92,4.39c-.61,1.27-1.46,2.27-2.55,2.99-1.09.72-2.35,1.08-3.77,1.08ZM159.13,101.37c1.12,0,2.08-.3,2.86-.91s1.37-1.41,1.78-2.42.61-2.12.61-3.33-.21-2.34-.62-3.35-1.01-1.82-1.79-2.43-1.73-.92-2.84-.92-2.06.3-2.83.92c-.78.61-1.37,1.42-1.78,2.43s-.62,2.13-.62,3.35.2,2.32.61,3.33,1,1.81,1.77,2.42c.78.61,1.73.91,2.85.91Z"/><path class="cls-1" d="M185.35,103.13c-1.43,0-2.68-.36-3.76-1.07s-1.93-1.71-2.55-2.97-.92-2.73-.92-4.38.31-3.16.92-4.43,1.46-2.27,2.55-2.98,2.34-1.07,3.76-1.07c.83,0,1.59.12,2.29.37s1.31.57,1.85.97.98.85,1.34,1.35c.36.49.62.99.78,1.49l-1.89.59c-.09-.3-.25-.62-.48-.97s-.54-.66-.9-.97c-.37-.3-.8-.55-1.3-.74s-1.06-.29-1.68-.29c-1.11,0-2.06.3-2.83.91-.78.61-1.37,1.41-1.78,2.42s-.62,2.12-.62,3.36.21,2.32.62,3.32,1,1.81,1.78,2.41c.78.6,1.72.9,2.83.9.63,0,1.21-.1,1.71-.29s.95-.45,1.33-.75c.38-.31.68-.64.92-1s.4-.69.48-1l1.88.59c-.16.51-.42,1.01-.78,1.51s-.82.95-1.36,1.37-1.17.75-1.88,1-1.47.37-2.3.37Z"/><path class="cls-1" d="M202.12,103.17c-1.43,0-2.68-.36-3.76-1.08s-1.93-1.71-2.55-2.99-.92-2.74-.92-4.39.31-3.16.92-4.43,1.46-2.27,2.55-2.99,2.34-1.08,3.76-1.08,2.67.36,3.76,1.08,1.94,1.71,2.56,2.99.92,2.75.92,4.43-.31,3.11-.92,4.39c-.61,1.27-1.46,2.27-2.55,2.99-1.09.72-2.35,1.08-3.77,1.08ZM202.12,101.37c1.12,0,2.08-.3,2.86-.91s1.37-1.41,1.78-2.42.61-2.12.61-3.33-.21-2.34-.62-3.35-1.01-1.82-1.79-2.43-1.73-.92-2.84-.92-2.06.3-2.83.92c-.78.61-1.37,1.42-1.78,2.43s-.62,2.13-.62,3.35.2,2.32.61,3.33,1,1.81,1.77,2.42c.78.61,1.73.91,2.85.91Z"/><path class="cls-1" d="M213.52,102.82v-16.38h1.93v3.73s-.21,0-.21,0c.22-.92.59-1.67,1.08-2.26s1.08-1.03,1.75-1.32c.67-.29,1.35-.44,2.06-.44,1.2,0,2.19.37,2.97,1.11.78.74,1.27,1.74,1.49,2.99h-.32c.2-.85.55-1.58,1.05-2.19s1.13-1.08,1.86-1.41,1.53-.5,2.4-.5c.98,0,1.85.21,2.62.64.77.42,1.37,1.05,1.82,1.89.44.83.67,1.87.67,3.1v11.03h-1.98v-10.97c0-1.32-.35-2.29-1.05-2.91s-1.57-.94-2.59-.94c-.78,0-1.47.17-2.07.5s-1.06.8-1.4,1.41c-.34.61-.5,1.31-.5,2.12v10.8h-1.98v-11.15c0-1.13-.33-2.03-.99-2.69-.66-.66-1.51-.99-2.56-.99-.73,0-1.41.17-2.02.51s-1.11.83-1.48,1.46-.56,1.41-.56,2.31v10.53h-1.99Z"/><path class="cls-1" d="M246.08,103.17c-1.43,0-2.68-.36-3.76-1.08s-1.93-1.71-2.55-2.99-.92-2.74-.92-4.39.31-3.16.92-4.43,1.46-2.27,2.55-2.99,2.34-1.08,3.76-1.08,2.67.36,3.76,1.08,1.94,1.71,2.56,2.99.92,2.75.92,4.43-.31,3.11-.92,4.39c-.61,1.27-1.46,2.27-2.55,2.99-1.09.72-2.35,1.08-3.77,1.08ZM246.08,101.37c1.12,0,2.08-.3,2.86-.91s1.37-1.41,1.78-2.42.61-2.12.61-3.33-.21-2.34-.62-3.35-1.01-1.82-1.79-2.43-1.73-.92-2.84-.92-2.06.3-2.83.92c-.78.61-1.37,1.42-1.78,2.43s-.62,2.13-.62,3.35.2,2.32.61,3.33,1,1.81,1.77,2.42c.78.61,1.73.91,2.85.91Z"/><path class="cls-1" d="M270.22,103.19c-1,0-1.9-.19-2.72-.57s-1.46-.94-1.95-1.69c-.48-.74-.73-1.64-.73-2.7,0-.81.15-1.49.45-2.04s.74-1.01,1.3-1.36,1.23-.64,2-.84,1.61-.37,2.54-.48c.91-.12,1.68-.22,2.31-.3s1.12-.22,1.46-.4c.34-.19.5-.48.5-.89v-.38c0-.73-.15-1.36-.45-1.89-.3-.53-.73-.93-1.3-1.22-.57-.28-1.27-.42-2.09-.42-.77,0-1.45.12-2.04.36s-1.07.55-1.46.94c-.39.39-.68.81-.87,1.27l-1.9-.64c.36-.89.87-1.6,1.52-2.14s1.39-.93,2.21-1.18,1.65-.37,2.49-.37c.64,0,1.31.09,1.99.26s1.32.46,1.9.86,1.06.96,1.42,1.67.54,1.6.54,2.69v11.12h-1.95v-2.59h-.15c-.23.5-.58.97-1.04,1.43s-1.02.82-1.69,1.11c-.67.28-1.45.42-2.34.42ZM270.51,101.42c1,0,1.86-.22,2.59-.66s1.3-1.03,1.7-1.77.6-1.56.6-2.45v-2.33c-.15.14-.39.26-.72.37s-.71.2-1.13.28c-.43.08-.85.15-1.28.21s-.81.11-1.13.15c-.91.11-1.69.28-2.34.53-.65.24-1.14.58-1.48,1-.34.42-.5.95-.5,1.6s.16,1.21.48,1.67.76.81,1.32,1.05,1.19.37,1.89.37Z"/><path class="cls-1" d="M284.38,81v21.83h-1.99v-21.83h1.99Z"/><path class="cls-1" d="M295.47,86.45v1.73h-7.79v-1.73h7.79ZM290.11,82.55h1.99v16.41c0,.81.18,1.41.54,1.79s.91.53,1.66.45c.14,0,.3-.02.5-.05s.39-.07.56-.11l.41,1.71c-.21.07-.45.12-.71.16s-.52.06-.78.07c-1.31.09-2.33-.22-3.07-.93-.74-.71-1.11-1.7-1.11-2.97v-16.54Z"/><path class="cls-1" d="M305.27,103.17c-1.53,0-2.86-.36-3.98-1.08-1.12-.72-1.98-1.71-2.59-2.98s-.92-2.73-.92-4.38.3-3.12.9-4.39c.6-1.28,1.44-2.29,2.52-3.02,1.08-.73,2.33-1.1,3.76-1.1.9,0,1.76.16,2.59.49s1.58.83,2.24,1.49,1.19,1.52,1.57,2.54.57,2.23.57,3.62v.87h-12.85v-1.71h11.78l-.91.64c0-1.17-.2-2.22-.6-3.15s-.97-1.66-1.71-2.2-1.64-.81-2.68-.81-1.94.27-2.72.82c-.78.55-1.38,1.27-1.82,2.17s-.65,1.88-.65,2.96v1.03c0,1.28.22,2.4.67,3.36s1.09,1.71,1.91,2.24,1.8.8,2.92.8c.76,0,1.43-.12,2.01-.37.58-.24,1.07-.57,1.46-.97.39-.41.69-.85.89-1.33l1.89.6c-.25.68-.66,1.32-1.22,1.9-.56.59-1.27,1.06-2.12,1.41s-1.83.54-2.93.54Z"/><path class="cls-1" d="M316.03,102.82v-16.38h1.93v2.55h.15c.33-.84.9-1.51,1.71-2.01.81-.5,1.72-.75,2.75-.75.17,0,.34,0,.53,0s.35.01.48.02v1.99c-.07-.02-.21-.04-.44-.07s-.47-.04-.73-.04c-.84,0-1.59.18-2.26.54s-1.18.86-1.56,1.48-.56,1.34-.56,2.15v10.5h-1.99Z"/><path class="cls-1" d="M329.11,92.61v10.21h-1.99v-16.38h1.92v3.82s-.29,0-.29,0c.45-1.43,1.15-2.46,2.12-3.09.96-.63,2.06-.95,3.3-.95,1.11,0,2.09.23,2.92.7.84.46,1.49,1.14,1.96,2.03s.71,1.98.71,3.28v10.59h-1.98v-10.45c0-1.34-.38-2.39-1.13-3.17s-1.76-1.17-3.02-1.17c-.86,0-1.63.18-2.31.55s-1.22.89-1.62,1.58c-.39.69-.59,1.5-.59,2.44Z"/><path class="cls-1" d="M349.07,103.19c-1,0-1.9-.19-2.72-.57s-1.46-.94-1.95-1.69c-.48-.74-.73-1.64-.73-2.7,0-.81.15-1.49.45-2.04s.74-1.01,1.3-1.36,1.23-.64,2-.84,1.61-.37,2.54-.48c.91-.12,1.68-.22,2.31-.3s1.12-.22,1.46-.4c.34-.19.5-.48.5-.89v-.38c0-.73-.15-1.36-.45-1.89-.3-.53-.73-.93-1.3-1.22-.57-.28-1.27-.42-2.09-.42-.77,0-1.45.12-2.04.36s-1.07.55-1.46.94c-.39.39-.68.81-.87,1.27l-1.9-.64c.36-.89.87-1.6,1.52-2.14s1.39-.93,2.21-1.18,1.65-.37,2.49-.37c.64,0,1.31.09,1.99.26s1.32.46,1.9.86,1.06.96,1.42,1.67.54,1.6.54,2.69v11.12h-1.95v-2.59h-.15c-.23.5-.58.97-1.04,1.43s-1.02.82-1.69,1.11c-.67.28-1.45.42-2.34.42ZM349.37,101.42c1,0,1.86-.22,2.59-.66s1.3-1.03,1.7-1.77.6-1.56.6-2.45v-2.33c-.15.14-.39.26-.72.37s-.71.2-1.13.28c-.43.08-.85.15-1.28.21s-.81.11-1.13.15c-.91.11-1.69.28-2.34.53-.65.24-1.14.58-1.48,1-.34.42-.5.95-.5,1.6s.16,1.21.48,1.67.76.81,1.32,1.05,1.19.37,1.89.37Z"/><path class="cls-1" d="M366.78,86.45v1.73h-7.79v-1.73h7.79ZM361.42,82.55h1.99v16.41c0,.81.18,1.41.54,1.79s.91.53,1.66.45c.14,0,.3-.02.5-.05s.39-.07.56-.11l.41,1.71c-.21.07-.45.12-.71.16s-.52.06-.78.07c-1.31.09-2.33-.22-3.07-.93-.74-.71-1.11-1.7-1.11-2.97v-16.54Z"/><path class="cls-1" d="M371.21,83.41c-.39,0-.73-.14-1.02-.41-.29-.27-.43-.6-.43-.98s.14-.72.43-.99c.29-.27.63-.4,1.02-.4s.74.13,1.03.4.42.6.42.99-.14.71-.42.98-.62.41-1.03.41ZM370.2,102.82v-16.38h1.99v16.38h-1.99Z"/><path class="cls-1" d="M381.96,102.82l-6.25-16.38h2.17l3.78,10.3c.34.92.64,1.84.91,2.75s.54,1.81.83,2.68h-.7c.28-.87.56-1.76.82-2.68s.57-1.84.91-2.75l3.78-10.3h2.15l-6.25,16.38h-2.14Z"/><path class="cls-1" d="M397.92,103.19c-1,0-1.9-.19-2.72-.57s-1.46-.94-1.95-1.69c-.48-.74-.73-1.64-.73-2.7,0-.81.15-1.49.45-2.04s.74-1.01,1.3-1.36,1.23-.64,2-.84,1.61-.37,2.54-.48c.91-.12,1.68-.22,2.31-.3s1.12-.22,1.46-.4c.34-.19.5-.48.5-.89v-.38c0-.73-.15-1.36-.45-1.89-.3-.53-.73-.93-1.3-1.22-.57-.28-1.27-.42-2.09-.42-.77,0-1.45.12-2.04.36s-1.07.55-1.46.94c-.39.39-.68.81-.87,1.27l-1.9-.64c.36-.89.87-1.6,1.52-2.14s1.39-.93,2.21-1.18,1.65-.37,2.49-.37c.64,0,1.31.09,1.99.26s1.32.46,1.9.86,1.06.96,1.42,1.67.54,1.6.54,2.69v11.12h-1.95v-2.59h-.15c-.23.5-.58.97-1.04,1.43s-1.02.82-1.69,1.11c-.67.28-1.45.42-2.34.42ZM398.22,101.42c1,0,1.86-.22,2.59-.66s1.3-1.03,1.7-1.77.6-1.56.6-2.45v-2.33c-.15.14-.39.26-.72.37s-.71.2-1.13.28c-.43.08-.85.15-1.28.21s-.81.11-1.13.15c-.91.11-1.69.28-2.34.53-.65.24-1.14.58-1.48,1-.34.42-.5.95-.5,1.6s.16,1.21.48,1.67.76.81,1.32,1.05,1.19.37,1.89.37Z"/><path class="cls-1" d="M411.83,103c-.44,0-.81-.15-1.12-.46-.31-.31-.46-.68-.46-1.12s.15-.81.46-1.12c.31-.31.68-.46,1.12-.46s.81.15,1.12.46c.31.31.46.68.46,1.12s-.15.81-.46,1.12c-.31.31-.68.46-1.12.46Z"/></g></svg>