<?xml version="1.0" encoding="UTF-8"?><svg id="Capa_2" xmlns="http://www.w3.org/2000/svg" viewBox="0 0 604.63 265.06"><defs><style>.cls-1{fill:#1b2f52;}</style></defs><g id="Texto"><path class="cls-1" d="M86.91,100.46c-.87.89-1.5,1.97-1.88,3.24l5.37.88c.17-.47.43-.89.78-1.27s.81-.68,1.37-.91c.56-.23,1.22-.34,1.97-.34s1.35.11,1.87.34c.51.23.9.56,1.16.99.26.43.39.96.39,1.58v.1c0,.47-.18.82-.54,1.06-.36.24-.92.42-1.7.53-.77.11-1.79.23-3.06.36-1.08.1-2.11.29-3.1.55-.98.26-1.86.64-2.64,1.13-.77.5-1.39,1.15-1.84,1.97s-.67,1.84-.67,3.05c0,1.45.32,2.65.95,3.62.63.97,1.5,1.7,2.6,2.19,1.1.49,2.34.73,3.72.73,1.08,0,2.03-.15,2.86-.45.83-.3,1.53-.71,2.12-1.22s1.05-1.11,1.41-1.79h.2v3.03h5.55v-14.71c0-1.32-.26-2.44-.77-3.39-.51-.94-1.21-1.71-2.09-2.29s-1.87-1.02-2.98-1.3c-1.11-.28-2.25-.42-3.42-.42-1.63,0-3.09.23-4.38.7-1.3.47-2.38,1.15-3.25,2.03ZM97.99,109.66v2.36c0,.77-.2,1.46-.59,2.09s-.93,1.12-1.63,1.48c-.7.36-1.51.55-2.43.55-.64,0-1.2-.1-1.7-.29-.5-.2-.89-.49-1.17-.87-.29-.38-.43-.86-.43-1.42,0-.6.15-1.09.45-1.47.3-.38.72-.69,1.27-.93s1.18-.4,1.89-.51c.33-.04.7-.09,1.11-.16.42-.07.84-.14,1.27-.21s.82-.17,1.17-.27.61-.22.78-.35Z"/><path class="cls-1" d="M530.73,199.45c-1.09-.72-2.34-1.08-3.76-1.08s-2.68.36-3.76,1.08c-1.08.72-1.93,1.71-2.55,2.99-.62,1.27-.92,2.75-.92,4.43s.31,3.11.92,4.39c.62,1.27,1.46,2.27,2.55,2.99,1.08.72,2.34,1.08,3.76,1.08s2.68-.36,3.77-1.08c1.09-.72,1.94-1.71,2.55-2.99.61-1.28.92-2.74.92-4.39s-.31-3.16-.92-4.43c-.62-1.28-1.47-2.27-2.56-2.99ZM531.61,210.19c-.41,1.01-1,1.81-1.78,2.42s-1.73.91-2.86.91-2.07-.3-2.85-.91c-.78-.61-1.37-1.41-1.77-2.42s-.61-2.11-.61-3.33.21-2.34.62-3.35c.41-1.01,1-1.82,1.78-2.43.78-.61,1.72-.92,2.83-.92s2.06.31,2.84.92,1.38,1.42,1.79,2.43c.41,1.01.62,2.13.62,3.35s-.2,2.32-.61,3.33Z"/><path class="cls-1" d="M128.71,119.84v-13.89c0-1.71-.31-3.17-.93-4.4-.62-1.23-1.49-2.17-2.62-2.83-1.13-.66-2.44-.99-3.96-.99-1.85,0-3.36.5-4.52,1.49-.96.82-1.71,1.95-2.27,3.34l-.08-4.56h-5.53v21.84h5.86v-12.64c0-.98.18-1.8.54-2.48.36-.68.86-1.19,1.5-1.55s1.38-.54,2.2-.54c1.24,0,2.2.38,2.9,1.15.7.77,1.04,1.83,1.04,3.18v12.87h5.86Z"/><path class="cls-1" d="M213.32,116.34h.18c.27.59.67,1.17,1.18,1.77s1.18,1.09,2,1.49,1.82.61,3.01.61c1.68,0,3.19-.43,4.53-1.3s2.4-2.14,3.18-3.81,1.17-3.72,1.17-6.14-.4-4.56-1.2-6.23-1.87-2.92-3.21-3.75-2.82-1.25-4.43-1.25c-1.24,0-2.27.21-3.09.62s-1.48.93-1.98,1.54-.89,1.2-1.16,1.78h-.27v-3.67h-5.76v30h5.86v-11.66ZM213.73,105.49c.36-.97.9-1.73,1.6-2.27s1.56-.81,2.56-.81,1.89.28,2.58.84,1.21,1.33,1.57,2.3.54,2.1.54,3.38-.18,2.41-.54,3.4-.89,1.76-1.58,2.32-1.55.84-2.57.84-1.84-.27-2.54-.82-1.24-1.31-1.61-2.29-.56-2.13-.56-3.45.18-2.48.55-3.45Z"/><path class="cls-1" d="M90.65,154.62v16.38h1.99v-10.5c0-.81.19-1.53.56-2.15s.9-1.12,1.56-1.48,1.42-.54,2.26-.54c.26,0,.51.01.73.04s.37.05.44.07v-1.99c-.14,0-.3-.02-.48-.02-.19,0-.36,0-.53,0-1.03,0-1.94.25-2.75.75-.8.5-1.37,1.17-1.71,2.01h-.15v-2.55h-1.93Z"/><path class="cls-1" d="M174.12,55.72c1.28.99,3.07,1.76,5.36,2.32,2.29.56,4.69.84,7.2.84,3.31,0,6.27-.48,8.88-1.44,2.61-.96,4.64-2.28,6.08-3.96s2.16-3.56,2.16-5.64c0-2.72-1.04-5.09-3.12-7.12-2.08-2.03-4.88-4.03-8.4-6-4-2.29-6.8-4.09-8.4-5.4-1.6-1.31-2.4-2.71-2.4-4.2,0-1.23.44-2.2,1.32-2.92.88-.72,2.49-1.08,4.84-1.08,7.84,0,11.95,4.59,12.32,13.76,0,.21.07.32.2.32s.23-.08.28-.24l2.48-9.6c.43-1.71-.88-3.05-3.92-4.04-3.04-.99-6.29-1.48-9.76-1.48-2.93,0-5.6.45-8,1.36-2.4.91-4.28,2.15-5.64,3.72s-2.04,3.27-2.04,5.08c0,2.19.87,4.11,2.6,5.76,1.73,1.65,4.33,3.52,7.8,5.6,3.68,2.08,6.43,3.96,8.24,5.64,1.81,1.68,2.75,3.59,2.8,5.72,0,3.31-2.4,4.96-7.2,4.96-3.79,0-6.79-1.33-9-4-2.21-2.67-3.35-6.32-3.4-10.96-.05-.21-.16-.33-.32-.36-.16-.03-.27.07-.32.28l-2.24,9.84c-.21,1.17.32,2.25,1.6,3.24Z"/><rect class="cls-1" x="203.58" y="149.17" width="1.99" height="21.83"/><path class="cls-1" d="M545.57,206.21l-2.5-.6c-1.01-.24-1.75-.59-2.22-1.03s-.71-1.01-.71-1.7c0-.82.35-1.49,1.05-2.01s1.6-.78,2.68-.78,1.91.25,2.5.74c.59.49,1.01,1.12,1.27,1.87l1.82-.47c-.24-.79-.61-1.47-1.09-2.05-.48-.58-1.1-1.02-1.84-1.34-.74-.32-1.63-.48-2.67-.48-1.1,0-2.09.2-2.95.59-.86.39-1.54.93-2.04,1.63-.49.69-.74,1.5-.74,2.42,0,1.1.35,2.02,1.05,2.75s1.75,1.26,3.16,1.6l2.67.64c.89.21,1.55.54,2,.98s.67.99.67,1.66c0,.83-.37,1.52-1.12,2.08-.75.56-1.74.83-2.98.83-1.08,0-1.98-.24-2.67-.73-.7-.48-1.17-1.22-1.4-2.2l-1.9.45c.2.92.56,1.69,1.1,2.32.54.63,1.22,1.11,2.05,1.44.83.33,1.78.49,2.86.49,1.2,0,2.26-.21,3.19-.62.92-.41,1.64-.98,2.16-1.7s.78-1.55.78-2.49c0-1.08-.34-1.99-1.03-2.71-.69-.72-1.73-1.25-3.11-1.6Z"/><path class="cls-1" d="M379.18,236.74c-.39,0-.73.13-1.02.4-.29.27-.43.6-.43.99s.14.71.43.98c.29.27.63.41,1.02.41s.74-.14,1.03-.41.42-.6.42-.98-.14-.72-.42-.99-.62-.4-1.03-.4Z"/><path class="cls-1" d="M105.8,56.48c2.88,1.55,6,2.32,9.36,2.32s6.27-.67,9.2-2c2.93-1.33,5.44-3.28,7.52-5.84.11-.16.09-.29-.04-.4-.13-.11-.23-.13-.28-.08-1.97,2.45-4.91,3.68-8.8,3.68-2.35,0-4.75-.65-7.2-1.96-2.45-1.31-4.63-3.12-6.52-5.44-1.89-2.32-3.29-4.95-4.2-7.88,11.57-.37,20.16-.61,25.76-.72.64-2.03.96-3.92.96-5.68,0-3.89-1.39-6.97-4.16-9.24-2.77-2.27-6.24-3.4-10.4-3.4-3.73,0-7.17.89-10.32,2.68-3.15,1.79-5.64,4.23-7.48,7.32-1.84,3.09-2.76,6.48-2.76,10.16s.84,7.03,2.52,9.88c1.68,2.85,3.96,5.05,6.84,6.6ZM106.24,24.12c1.57-1.84,3.85-2.76,6.84-2.76,1.55,0,3.08.73,4.6,2.2,1.52,1.47,2.77,3.25,3.76,5.36.99,2.11,1.48,4.04,1.48,5.8,0,1.17-.24,2.16-.72,2.96-1.17,0-2.33.03-3.48.08-1.15.05-2.25.11-3.32.16-4.11.21-7.68.35-10.72.4-.53-2.13-.8-4.11-.8-5.92,0-3.68.79-6.44,2.36-8.28Z"/><path class="cls-1" d="M137.96,55.72c1.28.99,3.07,1.76,5.36,2.32,2.29.56,4.69.84,7.2.84,3.31,0,6.27-.48,8.88-1.44,2.61-.96,4.64-2.28,6.08-3.96s2.16-3.56,2.16-5.64c0-2.72-1.04-5.09-3.12-7.12-2.08-2.03-4.88-4.03-8.4-6-4-2.29-6.8-4.09-8.4-5.4-1.6-1.31-2.4-2.71-2.4-4.2,0-1.23.44-2.2,1.32-2.92.88-.72,2.49-1.08,4.84-1.08,7.84,0,11.95,4.59,12.32,13.76,0,.21.07.32.2.32s.23-.08.28-.24l2.48-9.6c.43-1.71-.88-3.05-3.92-4.04-3.04-.99-6.29-1.48-9.76-1.48-2.93,0-5.6.45-8,1.36-2.4.91-4.28,2.15-5.64,3.72s-2.04,3.27-2.04,5.08c0,2.19.87,4.11,2.6,5.76,1.73,1.65,4.33,3.52,7.8,5.6,3.68,2.08,6.43,3.96,8.24,5.64,1.81,1.68,2.75,3.59,2.8,5.72,0,3.31-2.4,4.96-7.2,4.96-3.79,0-6.79-1.33-9-4-2.21-2.67-3.35-6.32-3.4-10.96-.05-.21-.16-.33-.32-.36-.16-.03-.27.07-.32.28l-2.24,9.84c-.21,1.17.32,2.25,1.6,3.24Z"/><path class="cls-1" d="M164.8,154.99c-.86.39-1.54.93-2.04,1.63-.49.69-.74,1.5-.74,2.42,0,1.1.35,2.02,1.05,2.75s1.75,1.26,3.16,1.6l2.67.64c.89.21,1.55.54,2,.98s.67.99.67,1.66c0,.83-.37,1.52-1.12,2.08-.75.56-1.74.83-2.98.83-1.08,0-1.98-.24-2.67-.73-.7-.48-1.17-1.22-1.4-2.2l-1.9.45c.2.92.56,1.69,1.1,2.32.54.63,1.22,1.11,2.05,1.44.83.33,1.78.49,2.86.49,1.2,0,2.26-.21,3.19-.62.92-.41,1.64-.98,2.16-1.7s.78-1.55.78-2.49c0-1.08-.34-1.99-1.03-2.71-.69-.72-1.73-1.25-3.11-1.6l-2.5-.6c-1.01-.24-1.75-.59-2.22-1.03s-.71-1.01-.71-1.7c0-.82.35-1.49,1.05-2.01s1.6-.78,2.68-.78,1.91.25,2.5.74c.59.49,1.01,1.12,1.27,1.87l1.82-.47c-.24-.79-.61-1.47-1.09-2.05-.48-.58-1.1-1.02-1.84-1.34-.74-.32-1.63-.48-2.67-.48-1.1,0-2.09.2-2.95.59Z"/><path class="cls-1" d="M545.84,243.39c-1.01-.7-2.18-1.05-3.52-1.05-1.01,0-1.84.18-2.5.53-.66.36-1.19.79-1.6,1.31s-.71,1.03-.93,1.52h-.22v-3.15h-1.93v22.5h1.99v-9.18h.16c.22.51.54,1.03.95,1.55.4.53.94.97,1.61,1.33.67.36,1.49.54,2.47.54,1.35,0,2.52-.35,3.53-1.06,1.01-.71,1.79-1.7,2.35-2.97.56-1.28.84-2.76.84-4.46s-.28-3.17-.85-4.44-1.35-2.26-2.36-2.96ZM546.47,254.18c-.39,1.02-.95,1.82-1.68,2.42-.74.6-1.64.89-2.72.89s-1.94-.29-2.67-.86c-.74-.58-1.3-1.37-1.69-2.38-.39-1.01-.59-2.17-.59-3.46s.19-2.45.58-3.44c.38-1,.95-1.78,1.68-2.34s1.63-.85,2.69-.85,1.98.29,2.72.88,1.3,1.38,1.68,2.38.57,2.13.57,3.38-.19,2.38-.58,3.4Z"/><polygon class="cls-1" points="20.96 95.68 20.96 90.73 1.48 90.73 1.48 119.84 21 119.84 21 114.89 7.44 114.89 7.44 107.57 19.94 107.57 19.94 102.71 7.44 102.71 7.44 95.68 20.96 95.68"/><path class="cls-1" d="M243.46,156.32c.26,0,.51.01.73.04s.37.05.44.07v-1.99c-.14,0-.3-.02-.48-.02-.19,0-.36,0-.53,0-1.03,0-1.94.25-2.75.75-.8.5-1.37,1.17-1.71,2.01h-.15v-2.55h-1.93v16.38h1.99v-10.5c0-.81.19-1.53.56-2.15s.9-1.12,1.56-1.48,1.42-.54,2.26-.54Z"/><rect class="cls-1" x="18.91" y="193.14" width="1.99" height="21.83"/><path class="cls-1" d="M23.05,159.38c.53-1.03.8-2.18.8-3.46s-.27-2.43-.8-3.44-1.32-1.82-2.37-2.42-2.34-.89-3.88-.89h-7.12v21.83h2.08v-8.29h5.05c1.54,0,2.83-.3,3.88-.89,1.04-.6,1.83-1.41,2.36-2.43ZM21.23,158.46c-.37.74-.93,1.33-1.68,1.75-.75.43-1.69.64-2.82.64h-4.97v-9.81h4.95c1.13,0,2.08.21,2.83.63s1.31,1,1.68,1.74.56,1.58.56,2.52-.19,1.79-.56,2.53Z"/><path class="cls-1" d="M503.91,156.38c-.66-.67-1.41-1.17-2.24-1.49s-1.69-.49-2.59-.49c-1.43,0-2.68.37-3.76,1.1-1.08.73-1.92,1.74-2.52,3.02-.6,1.28-.9,2.74-.9,4.39s.3,3.11.92,4.38,1.47,2.26,2.59,2.98c1.12.72,2.44,1.08,3.98,1.08,1.1,0,2.08-.18,2.93-.54.85-.36,1.55-.83,2.12-1.41.56-.59.97-1.22,1.22-1.9l-1.89-.6c-.2.48-.49.92-.89,1.33-.4.41-.88.73-1.46.97-.58.24-1.25.37-2.01.37-1.12,0-2.1-.27-2.92-.8-.83-.53-1.46-1.28-1.91-2.24-.42-.9-.63-1.94-.66-3.11h12.15v-.86c0-1.39-.19-2.59-.57-3.62s-.9-1.87-1.57-2.54ZM496.35,157.01c.78-.55,1.68-.82,2.72-.82s1.94.27,2.68.81,1.31,1.27,1.71,2.2c.32.75.51,1.59.57,2.5h-10.13c.05-.9.25-1.75.63-2.52.43-.9,1.04-1.62,1.82-2.17Z"/><path class="cls-1" d="M11.19,255.41c-.23.36-.54.69-.92,1-.38.31-.82.56-1.33.75s-1.08.29-1.71.29c-1.11,0-2.06-.3-2.84-.9-.78-.6-1.37-1.4-1.78-2.41-.41-1.01-.62-2.11-.62-3.33s.21-2.35.62-3.35c.41-1.01,1-1.81,1.78-2.42.78-.61,1.72-.91,2.84-.91.62,0,1.19.1,1.68.29.5.19.93.44,1.3.74.37.3.67.62.9.97s.4.66.48.97l1.89-.59c-.17-.5-.43-.99-.78-1.49-.36-.49-.8-.94-1.34-1.35s-1.15-.73-1.85-.97-1.46-.37-2.29-.37c-1.43,0-2.68.36-3.77,1.07-1.08.71-1.93,1.71-2.55,2.98-.62,1.28-.92,2.75-.92,4.43s.31,3.11.92,4.38,1.46,2.26,2.55,2.97c1.08.71,2.34,1.07,3.77,1.07.83,0,1.6-.12,2.3-.37.7-.25,1.33-.58,1.88-1,.55-.41,1-.87,1.36-1.37s.62-1,.78-1.51l-1.88-.59c-.09.31-.25.65-.48,1Z"/><path class="cls-1" d="M6.25,55.28c-.99,1.23-2.41,1.89-4.28,2-.37,0-.55.09-.52.28.03.19.2.28.52.28,1.39-.11,2.93-.16,4.64-.16,3.25,0,6.4.08,9.44.24,3.95.11,6.83.16,8.64.16,6.45,0,12.01-1.25,16.68-3.76,4.67-2.51,8.2-5.93,10.6-10.28s3.6-9.24,3.6-14.68c0-8.48-2.71-15.29-8.12-20.44-5.41-5.15-13.85-7.72-25.32-7.72l-8.08.16c-.91.05-2,.11-3.28.16-1.28.05-2.67.08-4.16.08-1.71,0-3.25-.05-4.64-.16-.32,0-.49.09-.52.28-.03.19.15.28.52.28,1.87.11,3.29.77,4.28,2,.99,1.23,1.48,3.31,1.48,6.24v38.8c0,2.93-.49,5.01-1.48,6.24ZM17.65,5.04c0-1.07.17-1.87.52-2.4.35-.53.97-.8,1.88-.8,5.65,0,10.36,1.32,14.12,3.96,3.76,2.64,6.53,6.16,8.32,10.56,1.79,4.4,2.68,9.24,2.68,14.52-.05,7.95-1.92,14.36-5.6,19.24-3.68,4.88-9.33,7.32-16.96,7.32-2.03,0-3.36-.24-4-.72-.64-.48-.96-1.41-.96-2.8V5.04Z"/><polygon class="cls-1" points="1.6 161.27 1.46 176.3 3.69 176.3 3.57 161.27 1.6 161.27"/><path class="cls-1" d="M2.56,157.45c.44,0,.81-.15,1.12-.46s.46-.68.46-1.12-.15-.8-.46-1.1c-.31-.3-.68-.45-1.12-.45s-.8.15-1.11.45-.46.67-.46,1.11.15.8.46,1.11c.31.31.68.46,1.11.46Z"/><path class="cls-1" d="M63.81,118.37c1.34.77,2.83,1.15,4.47,1.15,1.18,0,2.18-.17,2.98-.52s1.45-.79,1.94-1.34c.49-.55.87-1.11,1.13-1.7h.45v4.02c0,1.45-.43,2.51-1.28,3.19-.85.68-2.03,1.03-3.53,1.03-.94,0-1.73-.12-2.36-.37-.64-.25-1.15-.56-1.53-.95-.38-.38-.67-.78-.85-1.18l-5.04,1.41c.33,1.03.91,1.95,1.76,2.75.85.81,1.95,1.44,3.3,1.9,1.35.46,2.94.69,4.77.69,2.06,0,3.88-.33,5.47-.98,1.59-.65,2.83-1.63,3.74-2.93.9-1.3,1.36-2.94,1.36-4.9v-21.66h-5.76v3.67h-.25c-.26-.57-.65-1.17-1.16-1.79-.51-.62-1.19-1.13-2.02-1.54-.83-.41-1.86-.62-3.09-.62-1.61,0-3.1.42-4.44,1.25s-2.43,2.08-3.24,3.73c-.81,1.65-1.22,3.71-1.22,6.17s.4,4.4,1.2,5.98,1.87,2.75,3.21,3.52ZM65.95,105.52c.36-.96.89-1.72,1.58-2.28.7-.55,1.56-.83,2.59-.83s1.85.27,2.55.8c.7.53,1.23,1.28,1.59,2.25.36.96.55,2.09.55,3.38s-.18,2.42-.55,3.35c-.36.93-.9,1.64-1.59,2.14-.7.5-1.55.74-2.55.74s-1.88-.25-2.58-.76-1.23-1.23-1.59-2.16c-.36-.93-.54-2.03-.54-3.31s.18-2.36.54-3.32Z"/><path class="cls-1" d="M85.64,171v-11.12c0-1.08-.18-1.98-.54-2.69-.36-.71-.83-1.26-1.42-1.67-.59-.4-1.22-.69-1.9-.86s-1.35-.26-1.99-.26c-.84,0-1.67.12-2.49.37-.82.25-1.56.64-2.21,1.18s-1.16,1.25-1.52,2.14l1.9.64c.2-.46.49-.88.87-1.27.38-.39.87-.7,1.46-.94s1.26-.36,2.04-.36c.82,0,1.52.14,2.09.42.57.28,1.01.69,1.3,1.22.3.53.45,1.16.45,1.89v.38c0,.41-.17.71-.5.89-.34.19-.82.32-1.46.4-.63.08-1.41.18-2.31.3-.93.12-1.78.28-2.54.48s-1.43.49-2,.84-1,.81-1.3,1.36c-.3.55-.45,1.23-.45,2.04,0,1.05.24,1.95.73,2.7.48.74,1.13,1.3,1.95,1.68s1.72.57,2.72.57c.89,0,1.67-.14,2.34-.42.67-.28,1.23-.65,1.69-1.11.46-.46.81-.93,1.04-1.43h.15v2.59h1.95ZM83.66,164.71c0,.89-.2,1.7-.6,2.45s-.97,1.33-1.7,1.77-1.6.66-2.59.66c-.7,0-1.33-.12-1.89-.37s-1-.6-1.32-1.05-.48-1.02-.48-1.67.17-1.18.5-1.6c.34-.42.83-.75,1.48-1,.65-.24,1.43-.42,2.34-.53.32-.04.7-.09,1.13-.15s.86-.13,1.28-.21c.42-.08.8-.17,1.13-.28s.57-.23.72-.37v2.33Z"/><path class="cls-1" d="M511.62,175.01c.36-.68.53-1.5.53-2.45v-17.94h-1.99v17.94c0,.86-.22,1.53-.67,2s-1.05.71-1.82.71h-.41v1.85h.44c.93,0,1.72-.18,2.39-.54s1.17-.88,1.53-1.57Z"/><path class="cls-1" d="M56.31,108.8c0-1.88-.26-3.5-.79-4.88s-1.26-2.53-2.2-3.45-2.02-1.6-3.26-2.06c-1.24-.46-2.57-.68-4-.68-2.12,0-3.97.48-5.55,1.43-1.58.95-2.79,2.27-3.65,3.96s-1.29,3.67-1.29,5.92.43,4.3,1.3,5.98c.87,1.68,2.11,2.98,3.72,3.89,1.61.91,3.54,1.37,5.76,1.37,1.71,0,3.21-.25,4.52-.74s2.4-1.19,3.27-2.1c.87-.91,1.48-1.96,1.84-3.15l-5.31-1c-.21.56-.51,1.03-.91,1.42-.4.38-.88.67-1.44.87-.56.2-1.19.29-1.88.29-1.02,0-1.9-.21-2.67-.64s-1.35-1.07-1.78-1.93c-.38-.78-.58-1.73-.62-2.83h14.93v-1.64ZM43.52,102.84c.71-.47,1.57-.7,2.59-.7s1.85.23,2.53.69,1.2,1.11,1.54,1.95c.24.59.39,1.25.47,1.98h-9.25c.07-.74.24-1.41.51-2.02.36-.8.9-1.44,1.61-1.9Z"/><path class="cls-1" d="M60.93,25.68c.64-.11,1.09-.16,1.36-.16,1.39,0,2.33.47,2.84,1.4.51.93.76,2.41.76,4.44v19.12c0,1.97-.16,3.44-.48,4.4-.32.96-.8,1.57-1.44,1.84-.64.27-1.57.4-2.8.4-.32,0-.48.11-.48.32s.13.32.4.32c1.28-.05,4.43-.08,9.44-.08s8.13.03,9.36.08c.27,0,.4-.09.4-.28s-.13-.28-.4-.28c-1.76-.11-3-.64-3.72-1.6s-1.08-2.64-1.08-5.04v-9.28c0-4.32.45-7.83,1.36-10.52.91-2.69,2.67-4.04,5.28-4.04,2.24,0,4.13.79,5.68,2.36,1.55,1.57,2.32,3.96,2.32,7.16,0,1.07-.13,2.4-.4,4-.05.27.01.44.2.52.19.08.31-.04.36-.36l3.92-14.32c.11-.43.16-.75.16-.96,0-1.49-.84-2.75-2.52-3.76-1.68-1.01-3.56-1.52-5.64-1.52-3.2,0-5.63,1.32-7.28,3.96-1.65,2.64-2.8,5.83-3.44,9.56v-.64c0-2.19.05-4.11.16-5.76.11-1.65.32-3.97.64-6.96,0-.32-.13-.48-.4-.48-.21,0-.4.05-.56.16-1.65,1.12-3.8,2.16-6.44,3.12-2.64.96-5.21,1.73-7.72,2.32-.16.05-.23.17-.2.36.03.19.15.25.36.2Z"/><rect class="cls-1" x="25.64" y="90.73" width="5.86" height="29.1"/><path class="cls-1" d="M30.13,160.49c0-.81.19-1.53.56-2.15s.9-1.12,1.56-1.48,1.42-.54,2.26-.54c.26,0,.51.01.73.04s.37.05.44.07v-1.99c-.14,0-.3-.02-.48-.02-.19,0-.36,0-.53,0-1.03,0-1.94.25-2.75.75-.8.5-1.37,1.17-1.71,2.01h-.15v-2.55h-1.93v16.38h1.99v-10.5Z"/><path class="cls-1" d="M55.03,214.97v-10.59c0-1.3-.24-2.39-.71-3.28s-1.13-1.56-1.96-2.03c-.83-.46-1.81-.7-2.92-.7-1.24,0-2.34.32-3.3.95-.77.51-1.37,1.29-1.81,2.3v-3.04h-1.93v16.38h1.99v-10.21c0-.94.2-1.75.59-2.44.4-.69.94-1.22,1.62-1.58.68-.37,1.46-.55,2.31-.55,1.26,0,2.27.39,3.02,1.17.75.78,1.13,1.83,1.13,3.17v10.44h1.98Z"/><path class="cls-1" d="M519.74,243.46c-.59-.4-1.22-.69-1.9-.86s-1.35-.26-1.99-.26c-.84,0-1.67.12-2.49.37-.82.25-1.56.64-2.21,1.18s-1.16,1.25-1.52,2.14l1.9.64c.2-.46.49-.88.87-1.27.38-.39.87-.7,1.46-.94s1.26-.36,2.04-.36c.82,0,1.52.14,2.09.42.57.28,1.01.69,1.3,1.22.3.53.45,1.16.45,1.89v.38c0,.41-.17.71-.5.89-.34.19-.82.32-1.46.4-.63.08-1.41.18-2.31.3-.93.12-1.78.28-2.54.48s-1.43.49-2,.84-1,.81-1.3,1.36c-.3.55-.45,1.23-.45,2.04,0,1.05.24,1.95.73,2.7.48.74,1.13,1.3,1.95,1.68s1.72.57,2.72.57c.89,0,1.67-.14,2.34-.42.67-.28,1.23-.65,1.69-1.11.46-.46.81-.93,1.04-1.43h.15v2.59h1.95v-11.12c0-1.08-.18-1.98-.54-2.69-.36-.71-.83-1.26-1.42-1.67ZM519.73,252.65c0,.89-.2,1.7-.6,2.45s-.97,1.33-1.7,1.77-1.6.66-2.59.66c-.7,0-1.33-.12-1.89-.37s-1-.6-1.32-1.05-.48-1.02-.48-1.67.17-1.18.5-1.6c.34-.42.83-.75,1.48-1,.65-.24,1.43-.42,2.34-.53.32-.04.7-.09,1.13-.15s.86-.13,1.28-.21c.42-.08.8-.17,1.13-.28s.57-.23.72-.37v2.33Z"/><rect class="cls-1" x="399.8" y="154.62" width="1.99" height="16.38"/><path class="cls-1" d="M383.96,56.48c2.88,1.55,6,2.32,9.36,2.32s6.27-.67,9.2-2c2.93-1.33,5.44-3.28,7.52-5.84.11-.16.09-.29-.04-.4-.13-.11-.23-.13-.28-.08-1.97,2.45-4.91,3.68-8.8,3.68-2.35,0-4.75-.65-7.2-1.96-2.45-1.31-4.63-3.12-6.52-5.44-1.89-2.32-3.29-4.95-4.2-7.88,11.57-.37,20.16-.61,25.76-.72.64-2.03.96-3.92.96-5.68,0-3.89-1.39-6.97-4.16-9.24-2.77-2.27-6.24-3.4-10.4-3.4-3.73,0-7.17.89-10.32,2.68-3.15,1.79-5.64,4.23-7.48,7.32-1.84,3.09-2.76,6.48-2.76,10.16s.84,7.03,2.52,9.88c1.68,2.85,3.96,5.05,6.84,6.6ZM384.4,24.12c1.57-1.84,3.85-2.76,6.84-2.76,1.55,0,3.08.73,4.6,2.2,1.52,1.47,2.77,3.25,3.76,5.36.99,2.11,1.48,4.04,1.48,5.8,0,1.17-.24,2.16-.72,2.96-1.17,0-2.33.03-3.48.08-1.15.05-2.25.11-3.32.16-4.11.21-7.68.35-10.72.4-.53-2.13-.8-4.11-.8-5.92,0-3.68.79-6.44,2.36-8.28Z"/><path class="cls-1" d="M402.26,150.2c0-.39-.14-.72-.42-.99s-.62-.4-1.03-.4-.73.13-1.02.4c-.29.27-.43.6-.43.99s.14.71.43.98c.29.27.63.41,1.02.41s.74-.14,1.03-.41.42-.6.42-.98Z"/><path class="cls-1" d="M408.75,157.64v-3.02h-1.95v16.38h1.99v-10.53c0-.91.19-1.68.56-2.31s.86-1.12,1.48-1.46,1.29-.51,2.02-.51c1.04,0,1.9.33,2.56.99.66.66.99,1.56.99,2.69v11.15h1.98v-10.8c0-.81.17-1.52.5-2.12.34-.61.8-1.07,1.4-1.41s1.28-.5,2.07-.5c1.03,0,1.89.31,2.59.94s1.05,1.6,1.05,2.92v10.97h1.98v-11.03c0-1.23-.22-2.26-.67-3.1-.45-.83-1.05-1.46-1.82-1.89-.77-.43-1.64-.64-2.62-.64-.87,0-1.67.17-2.4.5s-1.35.8-1.86,1.41c-.38.46-.67.98-.88,1.58-.26-.96-.7-1.76-1.34-2.38-.78-.74-1.76-1.11-2.97-1.11-.7,0-1.39.15-2.06.44-.67.29-1.25.73-1.75,1.32-.36.43-.65.94-.87,1.54Z"/><path class="cls-1" d="M346.29,154.62v22.5h1.99v-9.18h.16c.22.51.54,1.03.95,1.55.4.53.94.97,1.61,1.33.67.36,1.49.54,2.47.54,1.35,0,2.52-.35,3.53-1.06,1.01-.71,1.79-1.7,2.35-2.97.56-1.28.84-2.76.84-4.46s-.28-3.17-.85-4.44-1.35-2.26-2.36-2.96-2.18-1.05-3.52-1.05c-1.01,0-1.84.18-2.5.53-.66.36-1.19.79-1.6,1.31s-.71,1.03-.93,1.52h-.22v-3.15h-1.93ZM348.83,159.39c.38-1,.95-1.78,1.68-2.34s1.63-.85,2.69-.85,1.98.29,2.72.88,1.3,1.38,1.68,2.38.57,2.13.57,3.38-.19,2.38-.58,3.4-.95,1.82-1.68,2.42c-.74.6-1.64.89-2.72.89s-1.94-.29-2.67-.86c-.74-.58-1.3-1.37-1.69-2.38-.39-1.01-.59-2.17-.59-3.46s.19-2.45.58-3.44Z"/><rect class="cls-1" x="570.25" y="149.17" width="1.99" height="21.83"/><path class="cls-1" d="M580.57,257.26c-.2.04-.37.05-.5.05-.74.08-1.29-.07-1.66-.45s-.54-.98-.54-1.79v-10.78h3.37v-1.73h-3.37v-3.9h-1.99v3.9h-2.43v1.73h2.43v10.91c0,1.27.37,2.26,1.11,2.97.74.71,1.76,1.02,3.07.93.26,0,.52-.03.78-.07s.5-.09.71-.16l-.41-1.71c-.18.04-.36.08-.56.11Z"/><path class="cls-1" d="M335.36,56.6c2.37,1.52,4.95,2.28,7.72,2.28,5.6,0,9.95-3.04,13.04-9.12.11-.21.23-.33.36-.36.13-.03.25.04.36.2l.08.24c.05,2.93.79,5.13,2.2,6.6,1.41,1.47,3.16,2.2,5.24,2.2,2.77,0,5.03-1.44,6.76-4.32,1.73-2.88,2.6-6.35,2.6-10.4,0-.27-.09-.4-.28-.4s-.28.13-.28.4c-.05,2.88-.35,5.12-.88,6.72-.53,1.6-1.68,2.4-3.44,2.4s-2.72-1.76-2.72-5.28v-30.96c0-3.73.07-6.8.2-9.2.13-2.4.39-4.72.76-6.96.05-.43-.08-.64-.4-.64h-.16c-3.25,2.88-7.89,5.09-13.92,6.64-.05.32.11.48.48.48h.16c.8-.11,1.44-.05,1.92.16.48.21.87.81,1.16,1.8.29.99.44,2.49.44,4.52l.08,10.56c-2.93-2.88-6.56-4.32-10.88-4.32-3.09,0-6.07.92-8.92,2.76-2.85,1.84-5.16,4.33-6.92,7.48-1.76,3.15-2.64,6.59-2.64,10.32s.72,6.92,2.16,9.72c1.44,2.8,3.35,4.96,5.72,6.48ZM345.32,21.28c3.63,0,6.4,1.63,8.32,4.88,1.92,3.25,2.99,7.25,3.2,12l.08,4.8c-.16,3.63-.88,6.33-2.16,8.12-1.28,1.79-3.17,2.68-5.68,2.68-2.24,0-4.43-1.03-6.56-3.08-2.13-2.05-3.85-4.73-5.16-8.04-1.31-3.31-1.96-6.69-1.96-10.16,0-7.47,3.31-11.2,9.92-11.2Z"/><path class="cls-1" d="M424.72,199.12c-.8.5-1.37,1.17-1.71,2.01h-.15v-2.55h-1.93v16.38h1.99v-10.5c0-.81.19-1.53.56-2.15s.9-1.12,1.56-1.48,1.42-.54,2.26-.54c.26,0,.51.01.73.04s.37.05.44.07v-1.99c-.14,0-.3-.02-.48-.02-.19,0-.36,0-.53,0-1.03,0-1.94.25-2.75.75Z"/><path class="cls-1" d="M511.16,151.59c.4,0,.74-.14,1.03-.41s.42-.6.42-.98-.14-.72-.42-.99-.62-.4-1.03-.4-.73.13-1.02.4-.43.6-.43.99.14.71.43.98.63.41,1.02.41Z"/><rect class="cls-1" x="513.59" y="193.14" width="1.99" height="21.83"/><path class="cls-1" d="M518.75,170.79c.82.38,1.72.57,2.72.57.89,0,1.67-.14,2.34-.42.67-.28,1.23-.65,1.69-1.11.46-.46.81-.93,1.04-1.43h.15v2.59h1.95v-11.12c0-1.08-.18-1.98-.54-2.69-.36-.71-.83-1.26-1.42-1.67-.59-.4-1.22-.69-1.9-.86s-1.35-.26-1.99-.26c-.84,0-1.67.12-2.49.37-.82.25-1.56.64-2.21,1.18s-1.16,1.25-1.52,2.14l1.9.64c.2-.46.49-.88.87-1.27.38-.39.87-.7,1.46-.94s1.26-.36,2.04-.36c.82,0,1.52.14,2.09.42.57.28,1.01.69,1.3,1.22.3.53.45,1.16.45,1.89v.38c0,.41-.17.71-.5.89-.34.19-.82.32-1.46.4-.63.08-1.41.18-2.31.3-.93.12-1.78.28-2.54.48s-1.43.49-2,.84-1,.81-1.3,1.36c-.3.55-.45,1.23-.45,2.04,0,1.05.24,1.95.73,2.7.48.74,1.13,1.3,1.95,1.68ZM518.58,164.9c.34-.42.83-.75,1.48-1,.65-.24,1.43-.42,2.34-.53.32-.04.7-.09,1.13-.15s.86-.13,1.28-.21c.42-.08.8-.17,1.13-.28s.57-.23.72-.37v2.33c0,.89-.2,1.7-.6,2.45s-.97,1.33-1.7,1.77-1.6.66-2.59.66c-.7,0-1.33-.12-1.89-.37s-1-.6-1.32-1.05-.48-1.02-.48-1.67.17-1.18.5-1.6Z"/><path class="cls-1" d="M535.63,160.49c0-.81.19-1.53.56-2.15s.9-1.12,1.56-1.48,1.42-.54,2.26-.54c.26,0,.51.01.73.04s.37.05.44.07v-1.99c-.14,0-.3-.02-.48-.02-.19,0-.36,0-.53,0-1.03,0-1.94.25-2.75.75-.8.5-1.37,1.17-1.71,2.01h-.15v-2.55h-1.93v16.38h1.99v-10.5Z"/><path class="cls-1" d="M477.03,170.29c1.01.71,2.18,1.06,3.51,1.06,1,0,1.83-.18,2.49-.54.66-.36,1.2-.8,1.61-1.33s.72-1.04.94-1.55h.22v3.06h1.92v-21.83h-1.98v8.6h-.16c-.21-.5-.53-1.01-.93-1.52s-.94-.95-1.6-1.31c-.66-.36-1.49-.53-2.49-.53-1.33,0-2.5.35-3.51,1.05-1.01.7-1.8,1.69-2.37,2.96s-.85,2.75-.85,4.44.28,3.19.84,4.46c.56,1.27,1.35,2.27,2.36,2.97ZM476.41,159.46c.38-1,.94-1.79,1.68-2.38s1.65-.88,2.71-.88,1.95.28,2.69.85c.74.57,1.3,1.35,1.68,2.34s.58,2.14.58,3.44-.19,2.45-.58,3.46c-.39,1.01-.95,1.8-1.68,2.38-.74.58-1.63.86-2.69.86s-1.95-.3-2.7-.89-1.31-1.4-1.69-2.42-.58-2.15-.58-3.4.19-2.38.57-3.38Z"/><path class="cls-1" d="M594.35,243.46c-.59-.4-1.22-.69-1.9-.86s-1.35-.26-1.99-.26c-.84,0-1.67.12-2.49.37-.82.25-1.56.64-2.21,1.18s-1.16,1.25-1.52,2.14l1.9.64c.2-.46.49-.88.87-1.27.38-.39.87-.7,1.46-.94s1.26-.36,2.04-.36c.82,0,1.52.14,2.09.42.57.28,1.01.69,1.3,1.22.3.53.45,1.16.45,1.89v.38c0,.41-.17.71-.5.89-.34.19-.82.32-1.46.4-.63.08-1.41.18-2.31.3-.93.12-1.78.28-2.54.48s-1.43.49-2,.84-1,.81-1.3,1.36c-.3.55-.45,1.23-.45,2.04,0,1.05.24,1.95.73,2.7.48.74,1.13,1.3,1.95,1.68s1.72.57,2.72.57c.89,0,1.67-.14,2.34-.42.67-.28,1.23-.65,1.69-1.11.46-.46.81-.93,1.04-1.43h.15v2.59h1.95v-11.12c0-1.08-.18-1.98-.54-2.69-.36-.71-.83-1.26-1.42-1.67ZM594.33,252.65c0,.89-.2,1.7-.6,2.45s-.97,1.33-1.7,1.77-1.6.66-2.59.66c-.7,0-1.33-.12-1.89-.37s-1-.6-1.32-1.05-.48-1.02-.48-1.67.17-1.18.5-1.6c.34-.42.83-.75,1.48-1,.65-.24,1.43-.42,2.34-.53.32-.04.7-.09,1.13-.15s.86-.13,1.28-.21c.42-.08.8-.17,1.13-.28s.57-.23.72-.37v2.33Z"/><path class="cls-1" d="M435.6,170.27c1.08.72,2.34,1.08,3.76,1.08s2.68-.36,3.77-1.08c1.09-.72,1.94-1.71,2.55-2.99.61-1.28.92-2.74.92-4.39s-.31-3.16-.92-4.43c-.62-1.28-1.47-2.27-2.56-2.99-1.09-.72-2.34-1.08-3.76-1.08s-2.68.36-3.76,1.08c-1.08.72-1.93,1.71-2.55,2.99-.62,1.27-.92,2.75-.92,4.43s.31,3.11.92,4.39c.62,1.27,1.46,2.27,2.55,2.99ZM434.75,159.55c.41-1.01,1-1.82,1.78-2.43.78-.61,1.72-.92,2.83-.92s2.06.31,2.84.92,1.38,1.42,1.79,2.43c.41,1.01.62,2.13.62,3.35s-.2,2.32-.61,3.33-1,1.81-1.78,2.42-1.73.91-2.86.91-2.07-.3-2.85-.91c-.78-.61-1.37-1.41-1.77-2.42s-.61-2.11-.61-3.33.21-2.34.62-3.35Z"/><path class="cls-1" d="M604.17,256.41c-.31-.31-.68-.46-1.12-.46s-.81.15-1.12.46-.46.68-.46,1.12.15.81.46,1.12.68.46,1.12.46.81-.15,1.12-.46.46-.68.46-1.12-.15-.81-.46-1.12Z"/><path class="cls-1" d="M554.22,236.74c-.39,0-.73.13-1.02.4-.29.27-.43.6-.43.99s.14.71.43.98c.29.27.63.41,1.02.41s.74-.14,1.03-.41.42-.6.42-.98-.14-.72-.42-.99-.62-.4-1.03-.4Z"/><rect class="cls-1" x="248.06" y="154.62" width="1.99" height="16.38"/><path class="cls-1" d="M279.21,155.48c-1.09-.72-2.34-1.08-3.76-1.08s-2.68.36-3.76,1.08c-1.08.72-1.93,1.71-2.55,2.99-.62,1.27-.92,2.75-.92,4.43s.31,3.11.92,4.39c.62,1.27,1.46,2.27,2.55,2.99,1.08.72,2.34,1.08,3.76,1.08s2.68-.36,3.77-1.08c1.09-.72,1.94-1.71,2.55-2.99.61-1.28.92-2.74.92-4.39s-.31-3.16-.92-4.43c-.62-1.28-1.47-2.27-2.56-2.99ZM280.09,166.22c-.41,1.01-1,1.81-1.78,2.42s-1.73.91-2.86.91-2.07-.3-2.85-.91c-.78-.61-1.37-1.41-1.77-2.42s-.61-2.11-.61-3.33.21-2.34.62-3.35c.41-1.01,1-1.82,1.78-2.43.78-.61,1.72-.92,2.83-.92s2.06.31,2.84.92,1.38,1.42,1.79,2.43c.41,1.01.62,2.13.62,3.35s-.2,2.32-.61,3.33Z"/><path class="cls-1" d="M250.52,150.2c0-.39-.14-.72-.42-.99s-.62-.4-1.03-.4-.73.13-1.02.4c-.29.27-.43.6-.43.99s.14.71.43.98c.29.27.63.41,1.02.41s.74-.14,1.03-.41.42-.6.42-.98Z"/><path class="cls-1" d="M240.8,55.36c4.19,2.35,8.73,3.52,13.64,3.52s9.25-.99,13.2-2.96c3.95-1.97,7.6-4.99,10.96-9.04.32-.43.35-.64.08-.64-.11,0-.27.11-.48.32-2.29,2.4-4.95,4.07-7.96,5-3.01.93-5.83,1.4-8.44,1.4-4.16,0-8.23-1.44-12.2-4.32-3.97-2.88-7.21-6.87-9.72-11.96-2.51-5.09-3.76-10.76-3.76-17,0-5.92,1.51-10.23,4.52-12.92,3.01-2.69,7.21-4.04,12.6-4.04,2.99,0,5.76.84,8.32,2.52,2.56,1.68,4.59,4.01,6.08,7,1.87,3.41,2.8,7.2,2.8,11.36,0,2.67-.43,5.28-1.28,7.84-.05.21.03.35.24.4.21.05.35-.03.4-.24l7.52-20.32c.11-.43.16-.75.16-.96,0-1.55-.91-3.08-2.72-4.6-1.81-1.52-4.25-2.79-7.32-3.8-3.07-1.01-6.33-1.52-9.8-1.52-5.49,0-10.57,1.32-15.24,3.96-4.67,2.64-8.39,6.25-11.16,10.84-2.77,4.59-4.16,9.71-4.16,15.36s1.24,10.48,3.72,14.8c2.48,4.32,5.81,7.65,10,10Z"/><rect class="cls-1" x="255.06" y="149.17" width="1.99" height="21.83"/><path class="cls-1" d="M236.3,214.2c.74.71,1.76,1.02,3.07.93.26,0,.52-.03.78-.07s.5-.09.71-.16l-.41-1.71c-.18.04-.36.08-.56.11-.2.04-.37.05-.5.05-.74.08-1.29-.07-1.66-.45s-.54-.98-.54-1.79v-10.78h3.37v-1.73h-3.37v-3.9h-1.99v3.9h-2.43v1.73h2.43v10.91c0,1.27.37,2.26,1.11,2.97Z"/><path class="cls-1" d="M253.12,109.02c0-2.27-.43-4.24-1.3-5.93s-2.1-3-3.69-3.95-3.49-1.42-5.69-1.42-4.08.47-5.68,1.42-2.83,2.26-3.7,3.95-1.3,3.66-1.3,5.93.43,4.2,1.3,5.89,2.1,3,3.7,3.95,3.5,1.42,5.68,1.42,4.1-.47,5.69-1.42,2.83-2.26,3.69-3.95,1.3-3.65,1.3-5.89ZM246.64,112.4c-.35,1.01-.88,1.8-1.58,2.38s-1.58.87-2.62.87-1.91-.29-2.61-.87-1.22-1.37-1.57-2.38-.53-2.15-.53-3.41.18-2.43.53-3.44.88-1.79,1.57-2.36,1.57-.86,2.61-.86,1.91.29,2.62.86,1.23,1.36,1.58,2.36.53,2.15.53,3.44-.18,2.4-.53,3.41Z"/><path class="cls-1" d="M555.52,170.27c1.12.72,2.44,1.08,3.98,1.08,1.1,0,2.08-.18,2.93-.54.85-.36,1.55-.83,2.12-1.41.56-.59.97-1.22,1.22-1.9l-1.89-.6c-.2.48-.49.92-.89,1.33-.4.41-.88.73-1.46.97-.58.24-1.25.37-2.01.37-1.12,0-2.1-.27-2.92-.8-.83-.53-1.46-1.28-1.91-2.24-.42-.9-.63-1.94-.66-3.11h12.15v-.86c0-1.39-.19-2.59-.57-3.62s-.9-1.87-1.57-2.54-1.41-1.17-2.24-1.49-1.69-.49-2.59-.49c-1.43,0-2.68.37-3.76,1.1-1.08.73-1.92,1.74-2.52,3.02-.6,1.28-.9,2.74-.9,4.39s.3,3.11.92,4.38,1.47,2.26,2.59,2.98ZM556.47,157.01c.78-.55,1.68-.82,2.72-.82s1.94.27,2.68.81,1.31,1.27,1.71,2.2c.32.75.51,1.59.57,2.5h-10.13c.05-.9.25-1.75.63-2.52.43-.9,1.04-1.62,1.82-2.17Z"/><polygon class="cls-1" points="289.67 149.17 287.46 149.17 287.58 164.2 289.54 164.2 289.67 149.17"/><path class="cls-1" d="M290.96,56.52c2.96,1.57,6.28,2.36,9.96,2.36,4.05,0,7.77-.89,11.16-2.68,3.39-1.79,6.05-4.24,8-7.36,1.95-3.12,2.92-6.55,2.92-10.28s-.85-6.85-2.56-9.68c-1.71-2.83-4.07-5.03-7.08-6.6-3.01-1.57-6.39-2.36-10.12-2.36-4,0-7.67.88-11,2.64-3.33,1.76-5.96,4.17-7.88,7.24-1.92,3.07-2.88,6.47-2.88,10.2s.84,6.96,2.52,9.84c1.68,2.88,4,5.11,6.96,6.68ZM291.8,24.32c1.71-1.71,4.05-2.56,7.04-2.56,2.4,0,4.87,1.37,7.4,4.12,2.53,2.75,4.64,6.09,6.32,10.04,1.68,3.95,2.52,7.55,2.52,10.8s-.87,5.91-2.6,7.64c-1.73,1.73-4.12,2.6-7.16,2.6-2.35,0-4.79-1.37-7.32-4.12-2.53-2.75-4.63-6.11-6.28-10.08-1.65-3.97-2.48-7.56-2.48-10.76,0-3.41.85-5.97,2.56-7.68Z"/><path class="cls-1" d="M219.02,149.17v21.83h1.93v-3.06h.22c.22.51.54,1.03.95,1.55.4.53.94.97,1.61,1.33.67.36,1.49.54,2.47.54,1.35,0,2.52-.35,3.53-1.06,1.01-.71,1.79-1.7,2.35-2.97.56-1.28.84-2.76.84-4.46s-.28-3.17-.85-4.44-1.35-2.26-2.36-2.96-2.18-1.05-3.52-1.05c-1.01,0-1.84.18-2.5.53-.66.36-1.19.79-1.6,1.31s-.71,1.03-.93,1.52h-.16v-8.6h-1.99ZM221.57,159.39c.38-1,.95-1.78,1.68-2.34s1.63-.85,2.69-.85,1.98.29,2.72.88,1.3,1.38,1.68,2.38.57,2.13.57,3.38-.19,2.38-.58,3.4-.95,1.82-1.68,2.42c-.74.6-1.64.89-2.72.89s-1.94-.29-2.67-.86c-.74-.58-1.3-1.37-1.69-2.38-.39-1.01-.59-2.17-.59-3.46s.19-2.45.58-3.44Z"/><rect class="cls-1" x="330.41" y="193.14" width="1.99" height="21.83"/><path class="cls-1" d="M320.52,158.52c-.6,1.28-.9,2.74-.9,4.39s.3,3.11.92,4.38,1.47,2.26,2.59,2.98c1.12.72,2.44,1.08,3.98,1.08,1.1,0,2.08-.18,2.93-.54.85-.36,1.55-.83,2.12-1.41.56-.59.97-1.22,1.22-1.9l-1.89-.6c-.2.48-.49.92-.89,1.33-.4.41-.88.73-1.46.97-.58.24-1.25.37-2.01.37-1.12,0-2.1-.27-2.92-.8-.83-.53-1.46-1.28-1.91-2.24-.42-.9-.63-1.94-.66-3.11h12.15v-.86c0-1.39-.19-2.59-.57-3.62s-.9-1.87-1.57-2.54-1.41-1.17-2.24-1.49-1.69-.49-2.59-.49c-1.43,0-2.68.37-3.76,1.1-1.08.73-1.92,1.74-2.52,3.02ZM324.07,157.01c.78-.55,1.68-.82,2.72-.82s1.94.27,2.68.81,1.31,1.27,1.71,2.2c.32.75.51,1.59.57,2.5h-10.13c.05-.9.25-1.75.63-2.52.43-.9,1.04-1.62,1.82-2.17Z"/><path class="cls-1" d="M567.41,250.18l-2.5-.6c-1.01-.24-1.75-.59-2.22-1.03s-.71-1.01-.71-1.7c0-.82.35-1.49,1.05-2.01s1.6-.78,2.68-.78,1.91.25,2.5.74c.59.49,1.01,1.12,1.27,1.87l1.82-.47c-.24-.79-.61-1.47-1.09-2.05-.48-.58-1.1-1.02-1.84-1.34-.74-.32-1.63-.48-2.67-.48-1.1,0-2.09.2-2.95.59-.86.39-1.54.93-2.04,1.63-.49.69-.74,1.5-.74,2.42,0,1.1.35,2.02,1.05,2.75s1.75,1.26,3.16,1.6l2.67.64c.89.21,1.55.54,2,.98s.67.99.67,1.66c0,.83-.37,1.52-1.12,2.08-.75.56-1.74.83-2.98.83-1.08,0-1.98-.24-2.67-.73-.7-.48-1.17-1.22-1.4-2.2l-1.9.45c.2.92.56,1.69,1.1,2.32.54.63,1.22,1.11,2.05,1.44.83.33,1.78.49,2.86.49,1.2,0,2.26-.21,3.19-.62.92-.41,1.64-.98,2.16-1.7s.78-1.55.78-2.49c0-1.08-.34-1.99-1.03-2.71-.69-.72-1.73-1.25-3.11-1.6Z"/><path class="cls-1" d="M286.99,169.6c0,.43.15.8.46,1.11s.68.46,1.12.46.81-.15,1.11-.46c.3-.31.45-.68.45-1.11s-.15-.81-.45-1.12c-.3-.31-.67-.46-1.11-.46s-.81.15-1.12.46c-.31.31-.46.68-.46,1.12Z"/><path class="cls-1" d="M275.17,92.8v5.2h-3.01v4.47h3.01v11.48c0,1.99.58,3.52,1.74,4.59s2.83,1.6,5.02,1.6c.59,0,1.2-.04,1.85-.12s1.29-.21,1.94-.41l-.84-4.39c-.21.05-.51.11-.92.17s-.72.09-.94.09c-.72,0-1.23-.17-1.53-.5s-.46-.84-.46-1.53v-10.98h4.08v-4.47h-4.08v-5.2h-5.86Z"/><rect class="cls-1" x="553.21" y="242.56" width="1.99" height="16.38"/><path class="cls-1" d="M164.8,100.47c-.94-.92-2.02-1.6-3.26-2.06-1.24-.46-2.57-.68-4-.68-2.12,0-3.97.48-5.55,1.43-1.58.95-2.79,2.27-3.65,3.96s-1.29,3.67-1.29,5.92.43,4.3,1.3,5.98c.87,1.68,2.11,2.98,3.72,3.89,1.61.91,3.54,1.37,5.76,1.37,1.71,0,3.21-.25,4.52-.74s2.4-1.19,3.27-2.1c.87-.91,1.48-1.96,1.84-3.15l-5.31-1c-.21.56-.51,1.03-.91,1.42-.4.38-.88.67-1.44.87-.56.2-1.19.29-1.88.29-1.02,0-1.9-.21-2.67-.64s-1.35-1.07-1.78-1.93c-.38-.78-.58-1.73-.62-2.83h14.93v-1.64c0-1.88-.26-3.5-.79-4.88s-1.26-2.53-2.2-3.45ZM155.01,102.84c.71-.47,1.57-.7,2.59-.7s1.85.23,2.53.69,1.2,1.11,1.54,1.95c.24.59.39,1.25.47,1.98h-9.25c.07-.74.24-1.41.51-2.02.36-.8.9-1.44,1.61-1.9Z"/><path class="cls-1" d="M412.79,213.8c.46-.46.81-.93,1.04-1.43h.15v2.59h1.95v-11.12c0-1.08-.18-1.98-.54-2.69-.36-.71-.83-1.26-1.42-1.67-.59-.4-1.22-.69-1.9-.86s-1.35-.26-1.99-.26c-.84,0-1.67.12-2.49.37-.82.25-1.56.64-2.21,1.18s-1.16,1.25-1.52,2.14l1.9.64c.2-.46.49-.88.87-1.27.38-.39.87-.7,1.46-.94s1.26-.36,2.04-.36c.82,0,1.52.14,2.09.42.57.28,1.01.69,1.3,1.22.3.53.45,1.16.45,1.89v.38c0,.41-.17.71-.5.89-.34.19-.82.32-1.46.4-.63.08-1.41.18-2.31.3-.93.12-1.78.28-2.54.48s-1.43.49-2,.84-1,.81-1.3,1.36c-.3.55-.45,1.23-.45,2.04,0,1.05.24,1.95.73,2.7.48.74,1.13,1.3,1.95,1.68s1.72.57,2.72.57c.89,0,1.67-.14,2.34-.42.67-.28,1.23-.65,1.69-1.11ZM407.17,213.19c-.56-.24-1-.6-1.32-1.05s-.48-1.02-.48-1.67.17-1.18.5-1.6c.34-.42.83-.75,1.48-1,.65-.24,1.43-.42,2.34-.53.32-.04.7-.09,1.13-.15s.86-.13,1.28-.21c.42-.08.8-.17,1.13-.28s.57-.23.72-.37v2.33c0,.89-.2,1.7-.6,2.45s-.97,1.33-1.7,1.77-1.6.66-2.59.66c-.7,0-1.33-.12-1.89-.37Z"/><rect class="cls-1" x="262.06" y="149.17" width="1.99" height="21.83"/><path class="cls-1" d="M258.9,243.39c-1.01-.7-2.18-1.05-3.52-1.05-1.01,0-1.84.18-2.5.53-.66.36-1.19.79-1.6,1.31s-.71,1.03-.93,1.52h-.22v-3.15h-1.93v22.5h1.99v-9.18h.16c.22.51.54,1.03.95,1.55.4.53.94.97,1.61,1.33.67.36,1.49.54,2.47.54,1.35,0,2.52-.35,3.53-1.06,1.01-.71,1.79-1.7,2.35-2.97.56-1.28.84-2.76.84-4.46s-.28-3.17-.85-4.44-1.35-2.26-2.36-2.96ZM259.52,254.18c-.39,1.02-.95,1.82-1.68,2.42-.74.6-1.64.89-2.72.89s-1.94-.29-2.67-.86c-.74-.58-1.3-1.37-1.69-2.38-.39-1.01-.59-2.17-.59-3.46s.19-2.45.58-3.44c.38-1,.95-1.78,1.68-2.34s1.63-.85,2.69-.85,1.98.29,2.72.88,1.3,1.38,1.68,2.38.57,2.13.57,3.38-.19,2.38-.58,3.4Z"/><path class="cls-1" d="M199.5,162.54c0-1.39-.19-2.59-.57-3.62s-.9-1.87-1.57-2.54-1.41-1.17-2.24-1.49-1.69-.49-2.59-.49c-1.43,0-2.68.37-3.76,1.1-1.08.73-1.92,1.74-2.52,3.02-.6,1.28-.9,2.74-.9,4.39s.3,3.11.92,4.38,1.47,2.26,2.59,2.98c1.12.72,2.44,1.08,3.98,1.08,1.1,0,2.08-.18,2.93-.54.85-.36,1.55-.83,2.12-1.41.56-.59.97-1.22,1.22-1.9l-1.89-.6c-.2.48-.49.92-.89,1.33-.4.41-.88.73-1.46.97-.58.24-1.25.37-2.01.37-1.12,0-2.1-.27-2.92-.8-.83-.53-1.46-1.28-1.91-2.24-.42-.9-.63-1.94-.66-3.11h12.15v-.86ZM189.81,157.01c.78-.55,1.68-.82,2.72-.82s1.94.27,2.68.81,1.31,1.27,1.71,2.2c.32.75.51,1.59.57,2.5h-10.13c.05-.9.25-1.75.63-2.52.43-.9,1.04-1.62,1.82-2.17Z"/><path class="cls-1" d="M269.14,102.92c.5.05.87.12,1.13.21v-5.23c-.26-.07-.57-.11-.92-.15s-.68-.05-.98-.05c-1.22,0-2.31.34-3.25,1.04s-1.62,1.71-2.02,3.07h-.23v-3.81h-5.66v21.84h5.86v-12.42c0-.91.2-1.71.6-2.39s.95-1.22,1.67-1.6,1.52-.58,2.4-.58c.44,0,.91.03,1.41.08Z"/><path class="cls-1" d="M428.52,242.92c-.77-.43-1.64-.64-2.62-.64-.87,0-1.67.17-2.4.5s-1.35.8-1.86,1.41c-.38.46-.67.98-.88,1.58-.26-.96-.7-1.76-1.34-2.38-.78-.74-1.76-1.11-2.97-1.11-.7,0-1.39.15-2.06.44-.67.29-1.25.73-1.75,1.32-.36.43-.65.94-.87,1.54v-3.02h-1.95v16.38h1.99v-10.53c0-.91.19-1.68.56-2.31s.86-1.12,1.48-1.46,1.29-.51,2.02-.51c1.04,0,1.9.33,2.56.99.66.66.99,1.56.99,2.69v11.15h1.98v-10.8c0-.81.17-1.52.5-2.12.34-.61.8-1.07,1.4-1.41s1.28-.5,2.07-.5c1.03,0,1.89.31,2.59.94s1.05,1.6,1.05,2.92v10.97h1.98v-11.03c0-1.23-.22-2.26-.67-3.1-.45-.83-1.05-1.46-1.82-1.89Z"/><path class="cls-1" d="M402.83,252.77c0,.94-.2,1.75-.59,2.44-.4.69-.94,1.22-1.62,1.58-.68.37-1.46.55-2.31.55-1.26,0-2.27-.39-3.02-1.17-.75-.78-1.13-1.83-1.13-3.17v-10.44h-1.99v10.59c0,1.29.24,2.38.71,3.27.47.89,1.13,1.57,1.98,2.04.84.46,1.82.7,2.92.7,1.22,0,2.31-.31,3.28-.94.78-.51,1.39-1.3,1.83-2.34v3.06h1.93v-16.38h-1.99v10.21Z"/><path class="cls-1" d="M279.11,214.78c.85-.36,1.55-.83,2.12-1.41.56-.59.97-1.22,1.22-1.9l-1.89-.6c-.2.48-.49.92-.89,1.33-.4.41-.88.73-1.46.97-.58.24-1.25.37-2.01.37-1.12,0-2.1-.27-2.92-.8-.83-.53-1.46-1.28-1.91-2.24-.42-.9-.63-1.94-.66-3.11h12.15v-.86c0-1.39-.19-2.59-.57-3.62s-.9-1.87-1.57-2.54-1.41-1.17-2.24-1.49-1.69-.49-2.59-.49c-1.43,0-2.68.37-3.76,1.1-1.08.73-1.92,1.74-2.52,3.02-.6,1.28-.9,2.74-.9,4.39s.3,3.11.92,4.38,1.47,2.26,2.59,2.98c1.12.72,2.44,1.08,3.98,1.08,1.1,0,2.08-.18,2.93-.54ZM273.16,200.98c.78-.55,1.68-.82,2.72-.82s1.94.27,2.68.81,1.31,1.27,1.71,2.2c.32.75.51,1.59.57,2.5h-10.13c.05-.9.25-1.75.63-2.52.43-.9,1.04-1.62,1.82-2.17Z"/><rect class="cls-1" x="266.27" y="237.11" width="1.99" height="21.83"/><path class="cls-1" d="M253.29,214.78c.85-.36,1.55-.83,2.12-1.41.56-.59.97-1.22,1.22-1.9l-1.89-.6c-.2.48-.49.92-.89,1.33-.4.41-.88.73-1.46.97-.58.24-1.25.37-2.01.37-1.12,0-2.1-.27-2.92-.8-.83-.53-1.46-1.28-1.91-2.24-.42-.9-.63-1.94-.66-3.11h12.15v-.86c0-1.39-.19-2.59-.57-3.62s-.9-1.87-1.57-2.54-1.41-1.17-2.24-1.49-1.69-.49-2.59-.49c-1.43,0-2.68.37-3.76,1.1-1.08.73-1.92,1.74-2.52,3.02-.6,1.28-.9,2.74-.9,4.39s.3,3.11.92,4.38,1.47,2.26,2.59,2.98c1.12.72,2.44,1.08,3.98,1.08,1.1,0,2.08-.18,2.93-.54ZM247.33,200.98c.78-.55,1.68-.82,2.72-.82s1.94.27,2.68.81,1.31,1.27,1.71,2.2c.32.75.51,1.59.57,2.5h-10.13c.05-.9.25-1.75.63-2.52.43-.9,1.04-1.62,1.82-2.17Z"/><path class="cls-1" d="M197.93,255.41c-.23.36-.54.69-.92,1-.38.31-.82.56-1.33.75s-1.08.29-1.71.29c-1.11,0-2.06-.3-2.83-.9-.78-.6-1.37-1.4-1.78-2.41s-.62-2.11-.62-3.33.21-2.35.62-3.35,1-1.81,1.78-2.42c.78-.61,1.72-.91,2.83-.91.62,0,1.19.1,1.68.29.5.19.93.44,1.3.74.37.3.67.62.9.97s.4.66.48.97l1.89-.59c-.17-.5-.43-.99-.78-1.49-.36-.49-.8-.94-1.34-1.35s-1.15-.73-1.85-.97-1.46-.37-2.29-.37c-1.43,0-2.68.36-3.76,1.07s-1.93,1.71-2.55,2.98c-.62,1.28-.92,2.75-.92,4.43s.31,3.11.92,4.38,1.46,2.26,2.55,2.97,2.34,1.07,3.76,1.07c.83,0,1.6-.12,2.3-.37.7-.25,1.33-.58,1.88-1,.55-.41,1-.87,1.36-1.37s.62-1,.78-1.51l-1.88-.59c-.09.31-.25.65-.48,1Z"/><path class="cls-1" d="M203.3,111.55c0-1.22-.22-2.3-.65-3.24s-1.05-1.75-1.85-2.43-1.72-1.26-2.77-1.73-2.19-.84-3.42-1.11l-2.64-.64c-.81-.2-1.57-.44-2.29-.73s-1.29-.68-1.72-1.15-.64-1.07-.64-1.79c0-.65.19-1.23.56-1.74s.92-.91,1.63-1.19,1.58-.43,2.58-.43c1.48,0,2.67.32,3.56.96s1.39,1.54,1.49,2.71h5.76c-.03-1.71-.49-3.21-1.39-4.52s-2.15-2.33-3.75-3.07-3.48-1.1-5.62-1.1-3.99.36-5.63,1.09-2.94,1.75-3.89,3.07-1.42,2.85-1.42,4.61c0,2.11.7,3.81,2.09,5.09s3.32,2.22,5.78,2.82l3.2.8c1.07.25,1.97.53,2.71.86s1.31.71,1.71,1.16.6,1.01.6,1.67c0,.74-.22,1.39-.66,1.95s-1.06.99-1.85,1.3-1.72.46-2.78.46-2.02-.16-2.87-.49-1.52-.82-2.03-1.47-.8-1.47-.88-2.45h-5.8c.05,2.06.56,3.79,1.52,5.2s2.31,2.47,4.03,3.18,3.75,1.07,6.08,1.07,4.38-.36,6.05-1.07,2.96-1.73,3.85-3.04,1.33-2.84,1.33-4.6Z"/><path class="cls-1" d="M240.71,242.92c-.77-.43-1.64-.64-2.62-.64-.87,0-1.67.17-2.4.5s-1.35.8-1.86,1.41c-.38.46-.67.98-.88,1.58-.26-.96-.7-1.76-1.34-2.38-.78-.74-1.76-1.11-2.97-1.11-.7,0-1.39.15-2.06.44-.67.29-1.25.73-1.75,1.32-.36.43-.65.94-.87,1.54v-3.02h-1.95v16.38h1.99v-10.53c0-.91.19-1.68.56-2.31s.86-1.12,1.48-1.46,1.29-.51,2.02-.51c1.04,0,1.9.33,2.56.99.66.66.99,1.56.99,2.69v11.15h1.98v-10.8c0-.81.17-1.52.5-2.12.34-.61.8-1.07,1.4-1.41s1.28-.5,2.07-.5c1.03,0,1.89.31,2.59.94s1.05,1.6,1.05,2.92v10.97h1.98v-11.03c0-1.23-.22-2.26-.67-3.1-.45-.83-1.05-1.46-1.82-1.89Z"/><rect class="cls-1" x="195.15" y="193.14" width="1.99" height="21.83"/><rect class="cls-1" x="436.01" y="242.56" width="1.99" height="16.38"/><path class="cls-1" d="M227.94,214.7c.92-.41,1.64-.98,2.16-1.7s.78-1.55.78-2.49c0-1.08-.34-1.99-1.03-2.71-.69-.72-1.73-1.25-3.11-1.6l-2.5-.6c-1.01-.24-1.75-.59-2.22-1.03s-.71-1.01-.71-1.7c0-.82.35-1.49,1.05-2.01s1.6-.78,2.68-.78,1.91.25,2.5.74c.59.49,1.01,1.12,1.27,1.87l1.82-.47c-.24-.79-.61-1.47-1.09-2.05-.48-.58-1.1-1.02-1.84-1.34-.74-.32-1.63-.48-2.67-.48-1.1,0-2.09.2-2.95.59-.86.39-1.54.93-2.04,1.63-.49.69-.74,1.5-.74,2.42,0,1.1.35,2.02,1.05,2.75s1.75,1.26,3.16,1.6l2.67.64c.89.21,1.55.54,2,.98s.67.99.67,1.66c0,.83-.37,1.52-1.12,2.08-.75.56-1.74.83-2.98.83-1.08,0-1.98-.24-2.67-.73-.7-.48-1.17-1.22-1.4-2.2l-1.9.45c.2.92.56,1.69,1.1,2.32.54.63,1.22,1.11,2.05,1.44.83.33,1.78.49,2.86.49,1.2,0,2.26-.21,3.19-.62Z"/><path class="cls-1" d="M208.78,215.32c1.1,0,2.08-.18,2.93-.54.85-.36,1.55-.83,2.12-1.41.56-.59.97-1.22,1.22-1.9l-1.89-.6c-.2.48-.49.92-.89,1.33-.4.41-.88.73-1.46.97-.58.24-1.25.37-2.01.37-1.12,0-2.1-.27-2.92-.8-.83-.53-1.46-1.28-1.91-2.24-.42-.9-.63-1.94-.66-3.11h12.15v-.86c0-1.39-.19-2.59-.57-3.62s-.9-1.87-1.57-2.54-1.41-1.17-2.24-1.49-1.69-.49-2.59-.49c-1.43,0-2.68.37-3.76,1.1-1.08.73-1.92,1.74-2.52,3.02-.6,1.28-.9,2.74-.9,4.39s.3,3.11.92,4.38,1.47,2.26,2.59,2.98c1.12.72,2.44,1.08,3.98,1.08ZM205.76,200.98c.78-.55,1.68-.82,2.72-.82s1.94.27,2.68.81,1.31,1.27,1.71,2.2c.32.75.51,1.59.57,2.5h-10.13c.05-.9.25-1.75.63-2.52.43-.9,1.04-1.62,1.82-2.17Z"/><path class="cls-1" d="M215.02,252.77c0,.94-.2,1.75-.59,2.44-.4.69-.94,1.22-1.62,1.58-.68.37-1.46.55-2.31.55-1.26,0-2.27-.39-3.02-1.17-.75-.78-1.13-1.83-1.13-3.17v-10.44h-1.99v10.59c0,1.29.24,2.38.71,3.27.47.89,1.13,1.57,1.98,2.04.84.46,1.82.7,2.92.7,1.22,0,2.31-.31,3.28-.94.78-.51,1.39-1.3,1.83-2.34v3.06h1.93v-16.38h-1.99v10.21Z"/><path class="cls-1" d="M284.43,244.33c-.66-.67-1.41-1.17-2.24-1.49s-1.69-.49-2.59-.49c-1.43,0-2.68.37-3.76,1.1-1.08.73-1.92,1.74-2.52,3.02-.6,1.28-.9,2.74-.9,4.39s.3,3.11.92,4.38,1.47,2.26,2.59,2.98c1.12.72,2.44,1.08,3.98,1.08,1.1,0,2.08-.18,2.93-.54.85-.36,1.55-.83,2.12-1.41.56-.59.97-1.22,1.22-1.9l-1.89-.6c-.2.48-.49.92-.89,1.33-.4.41-.88.73-1.46.97-.58.24-1.25.37-2.01.37-1.12,0-2.1-.27-2.92-.8-.83-.53-1.46-1.28-1.91-2.24-.42-.9-.63-1.94-.66-3.11h12.15v-.86c0-1.39-.19-2.59-.57-3.62s-.9-1.87-1.57-2.54ZM276.88,244.95c.78-.55,1.68-.82,2.72-.82s1.94.27,2.68.81,1.31,1.27,1.71,2.2c.32.75.51,1.59.57,2.5h-10.13c.05-.9.25-1.75.63-2.52.43-.9,1.04-1.62,1.82-2.17Z"/><path class="cls-1" d="M380.42,199.49c-.59-.4-1.22-.69-1.9-.86s-1.35-.26-1.99-.26c-.84,0-1.67.12-2.49.37-.82.25-1.56.64-2.21,1.18s-1.16,1.25-1.52,2.14l1.9.64c.2-.46.49-.88.87-1.27.38-.39.87-.7,1.46-.94s1.26-.36,2.04-.36c.82,0,1.52.14,2.09.42.57.28,1.01.69,1.3,1.22.3.53.45,1.16.45,1.89v.38c0,.41-.17.71-.5.89-.34.19-.82.32-1.46.4-.63.08-1.41.18-2.31.3-.93.12-1.78.28-2.54.48s-1.43.49-2,.84-1,.81-1.3,1.36c-.3.55-.45,1.23-.45,2.04,0,1.05.24,1.95.73,2.7.48.74,1.13,1.3,1.95,1.68s1.72.57,2.72.57c.89,0,1.67-.14,2.34-.42.67-.28,1.23-.65,1.69-1.11.46-.46.81-.93,1.04-1.43h.15v2.59h1.95v-11.12c0-1.08-.18-1.98-.54-2.69-.36-.71-.83-1.26-1.42-1.67ZM380.41,208.68c0,.89-.2,1.7-.6,2.45s-.97,1.33-1.7,1.77-1.6.66-2.59.66c-.7,0-1.33-.12-1.89-.37s-1-.6-1.32-1.05-.48-1.02-.48-1.67.17-1.18.5-1.6c.34-.42.83-.75,1.48-1,.65-.24,1.43-.42,2.34-.53.32-.04.7-.09,1.13-.15s.86-.13,1.28-.21c.42-.08.8-.17,1.13-.28s.57-.23.72-.37v2.33Z"/><path class="cls-1" d="M356.56,214.25c1.01-.71,1.79-1.7,2.35-2.97.56-1.28.84-2.76.84-4.46s-.28-3.17-.85-4.44-1.35-2.26-2.36-2.96-2.18-1.05-3.52-1.05c-1.01,0-1.84.18-2.5.53-.66.36-1.19.79-1.6,1.31s-.71,1.03-.93,1.52h-.22v-3.15h-1.93v22.5h1.99v-9.18h.16c.22.51.54,1.03.95,1.55.4.53.94.97,1.61,1.33.67.36,1.49.54,2.47.54,1.35,0,2.52-.35,3.53-1.06ZM350.09,212.65c-.74-.58-1.3-1.37-1.69-2.38-.39-1.01-.59-2.17-.59-3.46s.19-2.45.58-3.44c.38-1,.95-1.78,1.68-2.34s1.63-.85,2.69-.85,1.98.29,2.72.88,1.3,1.38,1.68,2.38.57,2.13.57,3.38-.19,2.38-.58,3.4-.95,1.82-1.68,2.42c-.74.6-1.64.89-2.72.89s-1.94-.29-2.67-.86Z"/><path class="cls-1" d="M362.75,243.46c-.59-.4-1.22-.69-1.9-.86s-1.35-.26-1.99-.26c-.84,0-1.67.12-2.49.37-.82.25-1.56.64-2.21,1.18s-1.16,1.25-1.52,2.14l1.9.64c.2-.46.49-.88.87-1.27.38-.39.87-.7,1.46-.94s1.26-.36,2.04-.36c.82,0,1.52.14,2.09.42.57.28,1.01.69,1.3,1.22.3.53.45,1.16.45,1.89v.38c0,.41-.17.71-.5.89-.34.19-.82.32-1.46.4-.63.08-1.41.18-2.31.3-.93.12-1.78.28-2.54.48s-1.43.49-2,.84-1,.81-1.3,1.36c-.3.55-.45,1.23-.45,2.04,0,1.05.24,1.95.73,2.7.48.74,1.13,1.3,1.95,1.68s1.72.57,2.72.57c.89,0,1.67-.14,2.34-.42.67-.28,1.23-.65,1.69-1.11.46-.46.81-.93,1.04-1.43h.15v2.59h1.95v-11.12c0-1.08-.18-1.98-.54-2.69-.36-.71-.83-1.26-1.42-1.67ZM362.74,252.65c0,.89-.2,1.7-.6,2.45s-.97,1.33-1.7,1.77-1.6.66-2.59.66c-.7,0-1.33-.12-1.89-.37s-1-.6-1.32-1.05-.48-1.02-.48-1.67.17-1.18.5-1.6c.34-.42.83-.75,1.48-1,.65-.24,1.43-.42,2.34-.53.32-.04.7-.09,1.13-.15s.86-.13,1.28-.21c.42-.08.8-.17,1.13-.28s.57-.23.72-.37v2.33Z"/><path class="cls-1" d="M349,242.34c-1.03,0-1.94.25-2.75.75-.8.5-1.37,1.17-1.71,2.01h-.15v-2.55h-1.93v16.38h1.99v-10.5c0-.81.19-1.53.56-2.15s.9-1.12,1.56-1.48,1.42-.54,2.26-.54c.26,0,.51.01.73.04s.37.05.44.07v-1.99c-.14,0-.3-.02-.48-.02-.19,0-.36,0-.53,0Z"/><path class="cls-1" d="M336.24,244.33c-.66-.67-1.41-1.17-2.24-1.49s-1.69-.49-2.59-.49c-1.43,0-2.68.37-3.76,1.1-1.08.73-1.92,1.74-2.52,3.02-.6,1.28-.9,2.74-.9,4.39s.3,3.11.92,4.38,1.47,2.26,2.59,2.98c1.12.72,2.44,1.08,3.98,1.08,1.1,0,2.08-.18,2.93-.54.85-.36,1.55-.83,2.12-1.41.56-.59.97-1.22,1.22-1.9l-1.89-.6c-.2.48-.49.92-.89,1.33-.4.41-.88.73-1.46.97-.58.24-1.25.37-2.01.37-1.12,0-2.1-.27-2.92-.8-.83-.53-1.46-1.28-1.91-2.24-.42-.9-.63-1.94-.66-3.11h12.15v-.86c0-1.39-.19-2.59-.57-3.62s-.9-1.87-1.57-2.54ZM328.69,244.95c.78-.55,1.68-.82,2.72-.82s1.94.27,2.68.81,1.31,1.27,1.71,2.2c.32.75.51,1.59.57,2.5h-10.13c.05-.9.25-1.75.63-2.52.43-.9,1.04-1.62,1.82-2.17Z"/><rect class="cls-1" x="363.91" y="193.14" width="1.99" height="21.83"/><rect class="cls-1" x="378.16" y="242.56" width="1.99" height="16.38"/><path class="cls-1" d="M373.92,170.81c.85-.36,1.55-.83,2.12-1.41.56-.59.97-1.22,1.22-1.9l-1.89-.6c-.2.48-.49.92-.89,1.33-.4.41-.88.73-1.46.97-.58.24-1.25.37-2.01.37-1.12,0-2.1-.27-2.92-.8-.83-.53-1.46-1.28-1.91-2.24-.42-.9-.63-1.94-.66-3.11h12.15v-.86c0-1.39-.19-2.59-.57-3.62s-.9-1.87-1.57-2.54-1.41-1.17-2.24-1.49-1.69-.49-2.59-.49c-1.43,0-2.68.37-3.76,1.1-1.08.73-1.92,1.74-2.52,3.02-.6,1.28-.9,2.74-.9,4.39s.3,3.11.92,4.38,1.47,2.26,2.59,2.98c1.12.72,2.44,1.08,3.98,1.08,1.1,0,2.08-.18,2.93-.54ZM367.96,157.01c.78-.55,1.68-.82,2.72-.82s1.94.27,2.68.81,1.31,1.27,1.71,2.2c.32.75.51,1.59.57,2.5h-10.13c.05-.9.25-1.75.63-2.52.43-.9,1.04-1.62,1.82-2.17Z"/><path class="cls-1" d="M291.14,200.74c.68-.37,1.46-.55,2.31-.55,1.26,0,2.27.39,3.02,1.17.75.78,1.13,1.83,1.13,3.17v10.44h1.98v-10.59c0-1.3-.24-2.39-.71-3.28s-1.13-1.56-1.96-2.03c-.83-.46-1.81-.7-2.92-.7-1.24,0-2.34.32-3.3.95-.77.51-1.37,1.29-1.81,2.3v-3.04h-1.93v16.38h1.99v-10.21c0-.94.2-1.75.59-2.44.4-.69.94-1.22,1.62-1.58Z"/><path class="cls-1" d="M310.22,237.51c-.39.53-.61,1.2-.65,2.01h1.45c.03-.36.14-.67.32-.93s.44-.39.76-.39c.24,0,.5.07.75.21s.53.3.82.48c.29.18.6.34.93.48s.69.21,1.07.21c.66,0,1.2-.25,1.6-.76s.63-1.18.69-2.02h-1.42c-.08.47-.2.81-.37,1.01s-.41.31-.71.31c-.26,0-.52-.07-.78-.22s-.52-.31-.79-.49-.57-.34-.89-.48c-.32-.14-.69-.21-1.1-.21-.72,0-1.28.26-1.68.79Z"/><path class="cls-1" d="M11.54,199.42c-1.01-.7-2.18-1.05-3.52-1.05-1.01,0-1.84.18-2.5.53-.66.36-1.19.79-1.6,1.31-.4.52-.71,1.03-.93,1.52h-.16v-8.6H.85v21.83h1.93v-3.06h.22c.22.51.54,1.03.95,1.55.4.53.94.97,1.61,1.33.67.36,1.49.54,2.47.54,1.35,0,2.52-.35,3.53-1.06,1.01-.71,1.79-1.7,2.35-2.97.56-1.28.84-2.76.84-4.46s-.28-3.17-.85-4.44-1.35-2.26-2.36-2.96ZM12.16,210.21c-.38,1.02-.95,1.82-1.68,2.42-.74.6-1.64.89-2.72.89s-1.94-.29-2.67-.86c-.74-.58-1.3-1.37-1.69-2.38-.39-1.01-.59-2.17-.59-3.46s.19-2.45.58-3.44c.38-1,.95-1.78,1.68-2.34.74-.57,1.63-.85,2.69-.85s1.98.29,2.72.88,1.3,1.38,1.68,2.38.57,2.13.57,3.38-.19,2.38-.58,3.4Z"/><path class="cls-1" d="M300.45,243.46c-.59-.4-1.22-.69-1.9-.86s-1.35-.26-1.99-.26c-.84,0-1.67.12-2.49.37-.82.25-1.56.64-2.21,1.18s-1.16,1.25-1.52,2.14l1.9.64c.2-.46.49-.88.87-1.27.38-.39.87-.7,1.46-.94s1.26-.36,2.04-.36c.82,0,1.52.14,2.09.42.57.28,1.01.69,1.3,1.22.3.53.45,1.16.45,1.89v.38c0,.41-.17.71-.5.89-.34.19-.82.32-1.46.4-.63.08-1.41.18-2.31.3-.93.12-1.78.28-2.54.48s-1.43.49-2,.84-1,.81-1.3,1.36c-.3.55-.45,1.23-.45,2.04,0,1.05.24,1.95.73,2.7.48.74,1.13,1.3,1.95,1.68s1.72.57,2.72.57c.89,0,1.67-.14,2.34-.42.67-.28,1.23-.65,1.69-1.11.46-.46.81-.93,1.04-1.43h.15v2.59h1.95v-11.12c0-1.08-.18-1.98-.54-2.69-.36-.71-.83-1.26-1.42-1.67ZM300.44,252.65c0,.89-.2,1.7-.6,2.45s-.97,1.33-1.7,1.77-1.6.66-2.59.66c-.7,0-1.33-.12-1.89-.37s-1-.6-1.32-1.05-.48-1.02-.48-1.67.17-1.18.5-1.6c.34-.42.83-.75,1.48-1,.65-.24,1.43-.42,2.34-.53.32-.04.7-.09,1.13-.15s.86-.13,1.28-.21c.42-.08.8-.17,1.13-.28s.57-.23.72-.37v2.33Z"/><path class="cls-1" d="M396.08,214.9c.7-.25,1.33-.58,1.88-1,.55-.41,1-.87,1.36-1.37s.62-1,.78-1.51l-1.88-.59c-.09.31-.25.65-.48,1-.23.36-.54.69-.92,1-.38.31-.82.56-1.33.75s-1.08.29-1.71.29c-1.11,0-2.06-.3-2.83-.9-.78-.6-1.37-1.4-1.78-2.41-.41-1.01-.62-2.11-.62-3.33s.21-2.35.62-3.35c.41-1.01,1-1.81,1.78-2.42.78-.61,1.72-.91,2.83-.91.62,0,1.19.1,1.68.29.5.19.93.44,1.3.74.37.3.67.62.9.97s.4.66.48.97l1.89-.59c-.17-.5-.43-.99-.78-1.49-.36-.49-.8-.94-1.34-1.35s-1.15-.73-1.85-.97-1.46-.37-2.29-.37c-1.43,0-2.68.36-3.76,1.07-1.08.71-1.93,1.71-2.55,2.98-.62,1.28-.92,2.75-.92,4.43s.31,3.11.92,4.38,1.46,2.26,2.55,2.97c1.08.71,2.34,1.07,3.76,1.07.83,0,1.6-.12,2.3-.37Z"/><rect class="cls-1" x="385.17" y="237.11" width="1.99" height="21.83"/><path class="cls-1" d="M325.93,211.46l-1.89-.6c-.2.48-.49.92-.89,1.33-.4.41-.88.73-1.46.97-.58.24-1.25.37-2.01.37-1.12,0-2.1-.27-2.92-.8-.83-.53-1.46-1.28-1.91-2.24-.42-.9-.63-1.94-.66-3.11h12.15v-.86c0-1.39-.19-2.59-.57-3.62s-.9-1.87-1.57-2.54-1.41-1.17-2.24-1.49-1.69-.49-2.59-.49c-1.43,0-2.68.37-3.76,1.1-1.08.73-1.92,1.74-2.52,3.02-.6,1.28-.9,2.74-.9,4.39s.3,3.11.92,4.38,1.47,2.26,2.59,2.98c1.12.72,2.44,1.08,3.98,1.08,1.1,0,2.08-.18,2.93-.54.85-.36,1.55-.83,2.12-1.41.56-.59.97-1.22,1.22-1.9ZM316.63,200.98c.78-.55,1.68-.82,2.72-.82s1.94.27,2.68.81,1.31,1.27,1.71,2.2c.32.75.51,1.59.57,2.5h-10.13c.05-.9.25-1.75.63-2.52.43-.9,1.04-1.62,1.82-2.17Z"/><path class="cls-1" d="M390.09,170.81c.66-.36,1.2-.8,1.61-1.33s.72-1.04.94-1.55h.22v3.06h1.92v-21.83h-1.98v8.6h-.16c-.21-.5-.53-1.01-.93-1.52s-.94-.95-1.6-1.31c-.66-.36-1.49-.53-2.49-.53-1.33,0-2.5.35-3.51,1.05-1.01.7-1.8,1.69-2.37,2.96s-.85,2.75-.85,4.44.28,3.19.84,4.46c.56,1.27,1.35,2.27,2.36,2.97,1.01.71,2.18,1.06,3.51,1.06,1,0,1.83-.18,2.49-.54ZM383.47,166.24c-.39-1.02-.58-2.15-.58-3.4s.19-2.38.57-3.38.94-1.79,1.68-2.38,1.65-.88,2.71-.88,1.95.28,2.69.85c.74.57,1.3,1.35,1.68,2.34s.58,2.14.58,3.44-.19,2.45-.58,3.46c-.39,1.01-.95,1.8-1.68,2.38-.74.58-1.63.86-2.69.86s-1.95-.3-2.7-.89-1.31-1.4-1.69-2.42Z"/><path class="cls-1" d="M317.4,243.04c-.83-.46-1.81-.7-2.92-.7-1.24,0-2.34.32-3.3.95-.77.51-1.37,1.29-1.81,2.3v-3.04h-1.93v16.38h1.99v-10.21c0-.94.2-1.75.59-2.44.4-.69.94-1.22,1.62-1.58.68-.37,1.46-.55,2.31-.55,1.26,0,2.27.39,3.02,1.17.75.78,1.13,1.83,1.13,3.17v10.44h1.98v-10.59c0-1.3-.24-2.39-.71-3.28s-1.13-1.56-1.96-2.03Z"/><polygon class="cls-1" points="309.74 171 311.82 171 311.82 151.03 318.72 151.03 318.72 149.17 302.81 149.17 302.81 151.03 309.74 151.03 309.74 171"/><path class="cls-1" d="M437.02,236.74c-.39,0-.73.13-1.02.4-.29.27-.43.6-.43.99s.14.71.43.98c.29.27.63.41,1.02.41s.74-.14,1.03-.41.42-.6.42-.98-.14-.72-.42-.99-.62-.4-1.03-.4Z"/><path class="cls-1" d="M66.72,242.34c-1.03,0-1.94.25-2.75.75-.8.5-1.37,1.17-1.71,2.01h-.15v-2.55h-1.93v16.38h1.99v-10.5c0-.81.19-1.53.56-2.15s.9-1.12,1.56-1.48,1.42-.54,2.26-.54c.26,0,.51.01.73.04s.37.05.44.07v-1.99c-.14,0-.3-.02-.48-.02-.19,0-.36,0-.53,0Z"/><path class="cls-1" d="M60.52,170.81c.67.36,1.49.54,2.47.54,1.35,0,2.52-.35,3.53-1.06,1.01-.71,1.79-1.7,2.35-2.97.56-1.28.84-2.76.84-4.46s-.28-3.17-.85-4.44-1.35-2.26-2.36-2.96-2.18-1.05-3.52-1.05c-1.01,0-1.84.18-2.5.53-.66.36-1.19.79-1.6,1.31s-.71,1.03-.93,1.52h-.22v-3.15h-1.93v22.5h1.99v-9.18h.16c.22.51.54,1.03.95,1.55.4.53.94.97,1.61,1.33ZM58.36,166.3c-.39-1.01-.59-2.17-.59-3.46s.19-2.45.58-3.44c.38-1,.95-1.78,1.68-2.34s1.63-.85,2.69-.85,1.98.29,2.72.88,1.3,1.38,1.68,2.38.57,2.13.57,3.38-.19,2.38-.58,3.4-.95,1.82-1.68,2.42c-.74.6-1.64.89-2.72.89s-1.94-.29-2.67-.86c-.74-.58-1.3-1.37-1.69-2.38Z"/><path class="cls-1" d="M487.11,243.04c-.83-.46-1.81-.7-2.92-.7-1.24,0-2.34.32-3.3.95-.77.51-1.37,1.29-1.81,2.3v-3.04h-1.93v16.38h1.99v-10.21c0-.94.2-1.75.59-2.44.4-.69.94-1.22,1.62-1.58.68-.37,1.46-.55,2.31-.55,1.26,0,2.27.39,3.02,1.17.75.78,1.13,1.83,1.13,3.17v10.44h1.98v-10.59c0-1.3-.24-2.39-.71-3.28s-1.13-1.56-1.96-2.03Z"/><path class="cls-1" d="M52.55,243.42c-1.09-.72-2.34-1.08-3.76-1.08s-2.68.36-3.76,1.08c-1.08.72-1.93,1.71-2.55,2.99-.62,1.27-.92,2.75-.92,4.43s.31,3.11.92,4.39c.62,1.27,1.46,2.27,2.55,2.99,1.08.72,2.34,1.08,3.76,1.08s2.68-.36,3.77-1.08c1.09-.72,1.94-1.71,2.55-2.99.61-1.28.92-2.74.92-4.39s-.31-3.16-.92-4.43c-.62-1.28-1.47-2.27-2.56-2.99ZM53.43,254.16c-.41,1.01-1,1.81-1.78,2.42s-1.73.91-2.86.91-2.07-.3-2.85-.91c-.78-.61-1.37-1.41-1.77-2.42s-.61-2.11-.61-3.33.21-2.34.62-3.35c.41-1.01,1-1.82,1.78-2.43.78-.61,1.72-.92,2.83-.92s2.06.31,2.84.92,1.38,1.42,1.79,2.43c.41,1.01.62,2.13.62,3.35s-.2,2.32-.61,3.33Z"/><path class="cls-1" d="M95.05,250.18l-2.5-.6c-1.01-.24-1.75-.59-2.22-1.03s-.71-1.01-.71-1.7c0-.82.35-1.49,1.05-2.01s1.6-.78,2.68-.78,1.91.25,2.5.74c.59.49,1.01,1.12,1.27,1.87l1.82-.47c-.24-.79-.61-1.47-1.09-2.05-.48-.58-1.1-1.02-1.84-1.34-.74-.32-1.63-.48-2.67-.48-1.1,0-2.09.2-2.95.59-.86.39-1.54.93-2.04,1.63-.49.69-.74,1.5-.74,2.42,0,1.1.35,2.02,1.05,2.75s1.75,1.26,3.16,1.6l2.67.64c.89.21,1.55.54,2,.98s.67.99.67,1.66c0,.83-.37,1.52-1.12,2.08-.75.56-1.74.83-2.98.83-1.08,0-1.98-.24-2.67-.73-.7-.48-1.17-1.22-1.4-2.2l-1.9.45c.2.92.56,1.69,1.1,2.32.54.63,1.22,1.11,2.05,1.44.83.33,1.78.49,2.86.49,1.2,0,2.26-.21,3.19-.62.92-.41,1.64-.98,2.16-1.7s.78-1.55.78-2.49c0-1.08-.34-1.99-1.03-2.71-.69-.72-1.73-1.25-3.11-1.6Z"/><path class="cls-1" d="M89.52,211.25c.61-1.28.92-2.74.92-4.39s-.31-3.16-.92-4.43c-.62-1.28-1.47-2.27-2.56-2.99-1.09-.72-2.34-1.08-3.76-1.08s-2.68.36-3.76,1.08c-1.08.72-1.93,1.71-2.55,2.99-.62,1.27-.92,2.75-.92,4.43s.31,3.11.92,4.39c.62,1.27,1.46,2.27,2.55,2.99,1.08.72,2.34,1.08,3.76,1.08s2.68-.36,3.77-1.08c1.09-.72,1.94-1.71,2.55-2.99ZM86.06,212.61c-.78.61-1.73.91-2.86.91s-2.07-.3-2.85-.91c-.78-.61-1.37-1.41-1.77-2.42s-.61-2.11-.61-3.33.21-2.34.62-3.35c.41-1.01,1-1.82,1.78-2.43.78-.61,1.72-.92,2.83-.92s2.06.31,2.84.92,1.38,1.42,1.79,2.43c.41,1.01.62,2.13.62,3.35s-.2,2.32-.61,3.33-1,1.81-1.78,2.42Z"/><path class="cls-1" d="M470.17,243.46c-.59-.4-1.22-.69-1.9-.86s-1.35-.26-1.99-.26c-.84,0-1.67.12-2.49.37-.82.25-1.56.64-2.21,1.18s-1.16,1.25-1.52,2.14l1.9.64c.2-.46.49-.88.87-1.27.38-.39.87-.7,1.46-.94s1.26-.36,2.04-.36c.82,0,1.52.14,2.09.42.57.28,1.01.69,1.3,1.22.3.53.45,1.16.45,1.89v.38c0,.41-.17.71-.5.89-.34.19-.82.32-1.46.4-.63.08-1.41.18-2.31.3-.93.12-1.78.28-2.54.48s-1.43.49-2,.84-1,.81-1.3,1.36c-.3.55-.45,1.23-.45,2.04,0,1.05.24,1.95.73,2.7.48.74,1.13,1.3,1.95,1.68s1.72.57,2.72.57c.89,0,1.67-.14,2.34-.42.67-.28,1.23-.65,1.69-1.11.46-.46.81-.93,1.04-1.43h.15v2.59h1.95v-11.12c0-1.08-.18-1.98-.54-2.69-.36-.71-.83-1.26-1.42-1.67ZM470.16,252.65c0,.89-.2,1.7-.6,2.45s-.97,1.33-1.7,1.77-1.6.66-2.59.66c-.7,0-1.33-.12-1.89-.37s-1-.6-1.32-1.05-.48-1.02-.48-1.67.17-1.18.5-1.6c.34-.42.83-.75,1.48-1,.65-.24,1.43-.42,2.34-.53.32-.04.7-.09,1.13-.15s.86-.13,1.28-.21c.42-.08.8-.17,1.13-.28s.57-.23.72-.37v2.33Z"/><path class="cls-1" d="M477.66,214.97v-11.12c0-1.08-.18-1.98-.54-2.69-.36-.71-.83-1.26-1.42-1.67-.59-.4-1.22-.69-1.9-.86s-1.35-.26-1.99-.26c-.84,0-1.67.12-2.49.37-.82.25-1.56.64-2.21,1.18s-1.16,1.25-1.52,2.14l1.9.64c.2-.46.49-.88.87-1.27.38-.39.87-.7,1.46-.94s1.26-.36,2.04-.36c.82,0,1.52.14,2.09.42.57.28,1.01.69,1.3,1.22.3.53.45,1.16.45,1.89v.38c0,.41-.17.71-.5.89-.34.19-.82.32-1.46.4-.63.08-1.41.18-2.31.3-.93.12-1.78.28-2.54.48s-1.43.49-2,.84-1,.81-1.3,1.36c-.3.55-.45,1.23-.45,2.04,0,1.05.24,1.95.73,2.7.48.74,1.13,1.3,1.95,1.68s1.72.57,2.72.57c.89,0,1.67-.14,2.34-.42.67-.28,1.23-.65,1.69-1.11.46-.46.81-.93,1.04-1.43h.15v2.59h1.95ZM475.68,208.68c0,.89-.2,1.7-.6,2.45s-.97,1.33-1.7,1.77-1.6.66-2.59.66c-.7,0-1.33-.12-1.89-.37s-1-.6-1.32-1.05-.48-1.02-.48-1.67.17-1.18.5-1.6c.34-.42.83-.75,1.48-1,.65-.24,1.43-.42,2.34-.53.32-.04.7-.09,1.13-.15s.86-.13,1.28-.21c.42-.08.8-.17,1.13-.28s.57-.23.72-.37v2.33Z"/><path class="cls-1" d="M81.64,244.33c-.66-.67-1.41-1.17-2.24-1.49s-1.69-.49-2.59-.49c-1.43,0-2.68.37-3.76,1.1-1.08.73-1.92,1.74-2.52,3.02-.6,1.28-.9,2.74-.9,4.39s.3,3.11.92,4.38,1.47,2.26,2.59,2.98c1.12.72,2.44,1.08,3.98,1.08,1.1,0,2.08-.18,2.93-.54.85-.36,1.55-.83,2.12-1.41.56-.59.97-1.22,1.22-1.9l-1.89-.6c-.2.48-.49.92-.89,1.33-.4.41-.88.73-1.46.97-.58.24-1.25.37-2.01.37-1.12,0-2.1-.27-2.92-.8-.83-.53-1.46-1.28-1.91-2.24-.42-.9-.63-1.94-.66-3.11h12.15v-.86c0-1.39-.19-2.59-.57-3.62s-.9-1.87-1.57-2.54ZM74.08,244.95c.78-.55,1.68-.82,2.72-.82s1.94.27,2.68.81,1.31,1.27,1.71,2.2c.32.75.51,1.59.57,2.5h-10.13c.05-.9.25-1.75.63-2.52.43-.9,1.04-1.62,1.82-2.17Z"/><path class="cls-1" d="M35.44,214.97h1.95v-11.12c0-1.08-.18-1.98-.54-2.69-.36-.71-.83-1.26-1.42-1.67-.59-.4-1.22-.69-1.9-.86s-1.35-.26-1.99-.26c-.84,0-1.67.12-2.49.37-.82.25-1.56.64-2.21,1.18s-1.16,1.25-1.52,2.14l1.9.64c.2-.46.49-.88.87-1.27.38-.39.87-.7,1.46-.94s1.26-.36,2.04-.36c.82,0,1.52.14,2.09.42.57.28,1.01.69,1.3,1.22.3.53.45,1.16.45,1.89v.38c0,.41-.17.71-.5.89-.34.19-.82.32-1.46.4-.63.08-1.41.18-2.31.3-.93.12-1.78.28-2.54.48s-1.43.49-2,.84-1,.81-1.3,1.36c-.3.55-.45,1.23-.45,2.04,0,1.05.24,1.95.73,2.7.48.74,1.13,1.3,1.95,1.68s1.72.57,2.72.57c.89,0,1.67-.14,2.34-.42.67-.28,1.23-.65,1.69-1.11.46-.46.81-.93,1.04-1.43h.15v2.59ZM35.41,208.68c0,.89-.2,1.7-.6,2.45s-.97,1.33-1.7,1.77-1.6.66-2.59.66c-.7,0-1.33-.12-1.89-.37s-1-.6-1.32-1.05-.48-1.02-.48-1.67.17-1.18.5-1.6c.34-.42.83-.75,1.48-1,.65-.24,1.43-.42,2.34-.53.32-.04.7-.09,1.13-.15s.86-.13,1.28-.21c.42-.08.8-.17,1.13-.28s.57-.23.72-.37v2.33Z"/><path class="cls-1" d="M489.86,206.21l-2.5-.6c-1.01-.24-1.75-.59-2.22-1.03s-.71-1.01-.71-1.7c0-.82.35-1.49,1.05-2.01s1.6-.78,2.68-.78,1.91.25,2.5.74c.59.49,1.01,1.12,1.27,1.87l1.82-.47c-.24-.79-.61-1.47-1.09-2.05-.48-.58-1.1-1.02-1.84-1.34-.74-.32-1.63-.48-2.67-.48-1.1,0-2.09.2-2.95.59-.86.39-1.54.93-2.04,1.63-.49.69-.74,1.5-.74,2.42,0,1.1.35,2.02,1.05,2.75s1.75,1.26,3.16,1.6l2.67.64c.89.21,1.55.54,2,.98s.67.99.67,1.66c0,.83-.37,1.52-1.12,2.08-.75.56-1.74.83-2.98.83-1.08,0-1.98-.24-2.67-.73-.7-.48-1.17-1.22-1.4-2.2l-1.9.45c.2.92.56,1.69,1.1,2.32.54.63,1.22,1.11,2.05,1.44.83.33,1.78.49,2.86.49,1.2,0,2.26-.21,3.19-.62.92-.41,1.64-.98,2.16-1.7s.78-1.55.78-2.49c0-1.08-.34-1.99-1.03-2.71-.69-.72-1.73-1.25-3.11-1.6Z"/><polygon class="cls-1" points="498.27 196.36 499.92 196.36 502.63 192.14 500.38 192.14 498.27 196.36"/><rect class="cls-1" x="503.23" y="237.11" width="1.99" height="21.83"/><path class="cls-1" d="M27.77,243.42c-1.09-.72-2.34-1.08-3.76-1.08s-2.68.36-3.76,1.08c-1.08.72-1.93,1.71-2.55,2.99-.62,1.27-.92,2.75-.92,4.43s.31,3.11.92,4.39c.62,1.27,1.46,2.27,2.55,2.99,1.08.72,2.34,1.08,3.76,1.08s2.68-.36,3.77-1.08c1.09-.72,1.94-1.71,2.55-2.99.61-1.28.92-2.74.92-4.39s-.31-3.16-.92-4.43c-.62-1.28-1.47-2.27-2.56-2.99ZM28.65,254.16c-.41,1.01-1,1.81-1.78,2.42s-1.73.91-2.86.91-2.07-.3-2.85-.91c-.78-.61-1.37-1.41-1.77-2.42s-.61-2.11-.61-3.33.21-2.34.62-3.35c.41-1.01,1-1.82,1.78-2.43.78-.61,1.72-.92,2.83-.92s2.06.31,2.84.92,1.38,1.42,1.79,2.43c.41,1.01.62,2.13.62,3.35s-.2,2.32-.61,3.33Z"/><path class="cls-1" d="M47.99,170.81c.85-.36,1.55-.83,2.12-1.41.56-.59.97-1.22,1.22-1.9l-1.89-.6c-.2.48-.49.92-.89,1.33-.4.41-.88.73-1.46.97-.58.24-1.25.37-2.01.37-1.12,0-2.1-.27-2.92-.8-.83-.53-1.46-1.28-1.91-2.24-.42-.9-.63-1.94-.66-3.11h12.15v-.86c0-1.39-.19-2.59-.57-3.62s-.9-1.87-1.57-2.54-1.41-1.17-2.24-1.49-1.69-.49-2.59-.49c-1.43,0-2.68.37-3.76,1.1-1.08.73-1.92,1.74-2.52,3.02-.6,1.28-.9,2.74-.9,4.39s.3,3.11.92,4.38,1.47,2.26,2.59,2.98c1.12.72,2.44,1.08,3.98,1.08,1.1,0,2.08-.18,2.93-.54ZM42.03,157.01c.78-.55,1.68-.82,2.72-.82s1.94.27,2.68.81,1.31,1.27,1.71,2.2c.32.75.51,1.59.57,2.5h-10.13c.05-.9.25-1.75.63-2.52.43-.9,1.04-1.62,1.82-2.17Z"/><rect class="cls-1" x="498.15" y="198.59" width="1.99" height="16.38"/><rect class="cls-1" x="35.41" y="237.11" width="1.99" height="21.83"/><path class="cls-1" d="M71.97,212.53c.36-.5.62-1,.78-1.51l-1.88-.59c-.09.31-.25.65-.48,1-.23.36-.54.69-.92,1-.38.31-.82.56-1.33.75s-1.08.29-1.71.29c-1.11,0-2.06-.3-2.83-.9-.78-.6-1.37-1.4-1.78-2.41s-.62-2.11-.62-3.33.21-2.35.62-3.35,1-1.81,1.78-2.42c.78-.61,1.72-.91,2.83-.91.62,0,1.19.1,1.68.29.5.19.93.44,1.3.74.37.3.67.62.9.97s.4.66.48.97l1.89-.59c-.17-.5-.43-.99-.78-1.49-.36-.49-.8-.94-1.34-1.35s-1.15-.73-1.85-.97-1.46-.37-2.29-.37c-1.43,0-2.68.36-3.76,1.07s-1.93,1.71-2.55,2.98c-.62,1.28-.92,2.75-.92,4.43s.31,3.11.92,4.38,1.46,2.26,2.55,2.97,2.34,1.07,3.76,1.07c.83,0,1.6-.12,2.3-.37.7-.25,1.33-.58,1.88-1,.55-.41,1-.87,1.36-1.37Z"/><path class="cls-1" d="M452.98,243.04c-.83-.46-1.81-.7-2.92-.7-1.24,0-2.34.32-3.3.95-.77.51-1.37,1.29-1.81,2.3v-3.04h-1.93v16.38h1.99v-10.21c0-.94.2-1.75.59-2.44.4-.69.94-1.22,1.62-1.58.68-.37,1.46-.55,2.31-.55,1.26,0,2.27.39,3.02,1.17.75.78,1.13,1.83,1.13,3.17v10.44h1.98v-10.59c0-1.3-.24-2.39-.71-3.28s-1.13-1.56-1.96-2.03Z"/><path class="cls-1" d="M154.64,155.48c-1.09-.72-2.34-1.08-3.76-1.08s-2.68.36-3.76,1.08c-1.08.72-1.93,1.71-2.55,2.99-.62,1.27-.92,2.75-.92,4.43s.31,3.11.92,4.39c.62,1.27,1.46,2.27,2.55,2.99,1.08.72,2.34,1.08,3.76,1.08s2.68-.36,3.77-1.08c1.09-.72,1.94-1.71,2.55-2.99.61-1.28.92-2.74.92-4.39s-.31-3.16-.92-4.43c-.62-1.28-1.47-2.27-2.56-2.99ZM155.52,166.22c-.41,1.01-1,1.81-1.78,2.42s-1.73.91-2.86.91-2.07-.3-2.85-.91c-.78-.61-1.37-1.41-1.77-2.42s-.61-2.11-.61-3.33.21-2.34.62-3.35c.41-1.01,1-1.82,1.78-2.43.78-.61,1.72-.92,2.83-.92s2.06.31,2.84.92,1.38,1.42,1.79,2.43c.41,1.01.62,2.13.62,3.35s-.2,2.32-.61,3.33Z"/><path class="cls-1" d="M163.61,214.2c1.08.71,2.34,1.07,3.76,1.07.83,0,1.6-.12,2.3-.37.7-.25,1.33-.58,1.88-1,.55-.41,1-.87,1.36-1.37s.62-1,.78-1.51l-1.88-.59c-.09.31-.25.65-.48,1-.23.36-.54.69-.92,1-.38.31-.82.56-1.33.75s-1.08.29-1.71.29c-1.11,0-2.06-.3-2.83-.9-.78-.6-1.37-1.4-1.78-2.41s-.62-2.11-.62-3.33.21-2.35.62-3.35,1-1.81,1.78-2.42c.78-.61,1.72-.91,2.83-.91.62,0,1.19.1,1.68.29.5.19.93.44,1.3.74.37.3.67.62.9.97s.4.66.48.97l1.89-.59c-.17-.5-.43-.99-.78-1.49-.36-.49-.8-.94-1.34-1.35s-1.15-.73-1.85-.97-1.46-.37-2.29-.37c-1.43,0-2.68.36-3.76,1.07s-1.93,1.71-2.55,2.98c-.62,1.28-.92,2.75-.92,4.43s.31,3.11.92,4.38,1.46,2.26,2.55,2.97Z"/><rect class="cls-1" x="155.67" y="237.11" width="1.99" height="21.83"/><rect class="cls-1" x="145.55" y="193.14" width="1.99" height="21.83"/><path class="cls-1" d="M103.59,170.27c1.12.72,2.44,1.08,3.98,1.08,1.1,0,2.08-.18,2.93-.54.85-.36,1.55-.83,2.12-1.41.56-.59.97-1.22,1.22-1.9l-1.89-.6c-.2.48-.49.92-.89,1.33-.4.41-.88.73-1.46.97-.58.24-1.25.37-2.01.37-1.12,0-2.1-.27-2.92-.8-.83-.53-1.46-1.28-1.91-2.24-.42-.9-.63-1.94-.66-3.11h12.15v-.86c0-1.39-.19-2.59-.57-3.62s-.9-1.87-1.57-2.54-1.41-1.17-2.24-1.49-1.69-.49-2.59-.49c-1.43,0-2.68.37-3.76,1.1-1.08.73-1.92,1.74-2.52,3.02-.6,1.28-.9,2.74-.9,4.39s.3,3.11.92,4.38,1.47,2.26,2.59,2.98ZM104.54,157.01c.78-.55,1.68-.82,2.72-.82s1.94.27,2.68.81,1.31,1.27,1.71,2.2c.32.75.51,1.59.57,2.5h-10.13c.05-.9.25-1.75.63-2.52.43-.9,1.04-1.62,1.82-2.17Z"/><path class="cls-1" d="M444.26,214.97v-21.83h-1.98v8.6h-.16c-.21-.5-.53-1.01-.93-1.52s-.94-.95-1.6-1.31c-.66-.36-1.49-.53-2.49-.53-1.33,0-2.5.35-3.51,1.05-1.01.7-1.8,1.69-2.37,2.96s-.85,2.75-.85,4.44.28,3.19.84,4.46c.56,1.27,1.35,2.27,2.36,2.97,1.01.71,2.18,1.06,3.51,1.06,1,0,1.83-.18,2.49-.54.66-.36,1.2-.8,1.61-1.33s.72-1.04.94-1.55h.22v3.06h1.92ZM441.72,210.27c-.39,1.01-.95,1.8-1.68,2.38-.74.58-1.63.86-2.69.86s-1.95-.3-2.7-.89-1.31-1.4-1.69-2.42-.58-2.15-.58-3.4.19-2.38.57-3.38.94-1.79,1.68-2.38,1.65-.88,2.71-.88,1.95.28,2.69.85c.74.57,1.3,1.35,1.68,2.34s.58,2.14.58,3.44-.19,2.45-.58,3.46Z"/><path class="cls-1" d="M172.18,243.46c-.59-.4-1.22-.69-1.9-.86s-1.35-.26-1.99-.26c-.84,0-1.67.12-2.49.37-.82.25-1.56.64-2.21,1.18s-1.16,1.25-1.52,2.14l1.9.64c.2-.46.49-.88.87-1.27.38-.39.87-.7,1.46-.94s1.26-.36,2.04-.36c.82,0,1.52.14,2.09.42.57.28,1.01.69,1.3,1.22.3.53.45,1.16.45,1.89v.38c0,.41-.17.71-.5.89-.34.19-.82.32-1.46.4-.63.08-1.41.18-2.31.3-.93.12-1.78.28-2.54.48s-1.43.49-2,.84-1,.81-1.3,1.36c-.3.55-.45,1.23-.45,2.04,0,1.05.24,1.95.73,2.7.48.74,1.13,1.3,1.95,1.68s1.72.57,2.72.57c.89,0,1.67-.14,2.34-.42.67-.28,1.23-.65,1.69-1.11.46-.46.81-.93,1.04-1.43h.15v2.59h1.95v-11.12c0-1.08-.18-1.98-.54-2.69-.36-.71-.83-1.26-1.42-1.67ZM172.16,252.65c0,.89-.2,1.7-.6,2.45s-.97,1.33-1.7,1.77-1.6.66-2.59.66c-.7,0-1.33-.12-1.89-.37s-1-.6-1.32-1.05-.48-1.02-.48-1.67.17-1.18.5-1.6c.34-.42.83-.75,1.48-1,.65-.24,1.43-.42,2.34-.53.32-.04.7-.09,1.13-.15s.86-.13,1.28-.21c.42-.08.8-.17,1.13-.28s.57-.23.72-.37v2.33Z"/><path class="cls-1" d="M189.44,213.37c.56-.59.97-1.22,1.22-1.9l-1.89-.6c-.2.48-.49.92-.89,1.33-.4.41-.88.73-1.46.97-.58.24-1.25.37-2.01.37-1.12,0-2.1-.27-2.92-.8-.83-.53-1.46-1.28-1.91-2.24-.42-.9-.63-1.94-.66-3.11h12.15v-.86c0-1.39-.19-2.59-.57-3.62s-.9-1.87-1.57-2.54-1.41-1.17-2.24-1.49-1.69-.49-2.59-.49c-1.43,0-2.68.37-3.76,1.1-1.08.73-1.92,1.74-2.52,3.02-.6,1.28-.9,2.74-.9,4.39s.3,3.11.92,4.38,1.47,2.26,2.59,2.98c1.12.72,2.44,1.08,3.98,1.08,1.1,0,2.08-.18,2.93-.54.85-.36,1.55-.83,2.12-1.41ZM181.37,200.98c.78-.55,1.68-.82,2.72-.82s1.94.27,2.68.81,1.31,1.27,1.71,2.2c.32.75.51,1.59.57,2.5h-10.13c.05-.9.25-1.75.63-2.52.43-.9,1.04-1.62,1.82-2.17Z"/><path class="cls-1" d="M127.91,171h1.98v-10.8c0-.81.17-1.52.5-2.12.34-.61.8-1.07,1.4-1.41s1.28-.5,2.07-.5c1.03,0,1.89.31,2.59.94s1.05,1.6,1.05,2.92v10.97h1.98v-11.03c0-1.23-.22-2.26-.67-3.1-.45-.83-1.05-1.46-1.82-1.89-.77-.43-1.64-.64-2.62-.64-.87,0-1.67.17-2.4.5s-1.35.8-1.86,1.41c-.38.46-.67.98-.88,1.58-.26-.96-.7-1.76-1.34-2.38-.78-.74-1.76-1.11-2.97-1.11-.7,0-1.39.15-2.06.44-.67.29-1.25.73-1.75,1.32-.36.43-.65.94-.87,1.54v-3.02h-1.95v16.38h1.99v-10.53c0-.91.19-1.68.56-2.31s.86-1.12,1.48-1.46,1.29-.51,2.02-.51c1.04,0,1.9.33,2.56.99.66.66.99,1.56.99,2.69v11.15Z"/><path class="cls-1" d="M461.32,169.03c.52-.72.78-1.55.78-2.49,0-1.08-.34-1.99-1.03-2.71-.69-.72-1.73-1.25-3.11-1.6l-2.5-.6c-1.01-.24-1.75-.59-2.22-1.03s-.71-1.01-.71-1.7c0-.82.35-1.49,1.05-2.01s1.6-.78,2.68-.78,1.91.25,2.5.74c.59.49,1.01,1.12,1.27,1.87l1.82-.47c-.24-.79-.61-1.47-1.09-2.05-.48-.58-1.1-1.02-1.84-1.34-.74-.32-1.63-.48-2.67-.48-1.1,0-2.09.2-2.95.59-.86.39-1.54.93-2.04,1.63-.49.69-.74,1.5-.74,2.42,0,1.1.35,2.02,1.05,2.75s1.75,1.26,3.16,1.6l2.67.64c.89.21,1.55.54,2,.98s.67.99.67,1.66c0,.83-.37,1.52-1.12,2.08-.75.56-1.74.83-2.98.83-1.08,0-1.98-.24-2.67-.73-.7-.48-1.17-1.22-1.4-2.2l-1.9.45c.2.92.56,1.69,1.1,2.32.54.63,1.22,1.11,2.05,1.44.83.33,1.78.49,2.86.49,1.2,0,2.26-.21,3.19-.62.92-.41,1.64-.98,2.16-1.7Z"/><path class="cls-1" d="M122.84,245.71h-.16c-.21-.5-.53-1.01-.93-1.52s-.94-.95-1.6-1.31c-.66-.36-1.49-.53-2.49-.53-1.33,0-2.5.35-3.51,1.05-1.01.7-1.8,1.69-2.37,2.96s-.85,2.75-.85,4.44.28,3.19.84,4.46c.56,1.27,1.35,2.27,2.36,2.97,1.01.71,2.18,1.06,3.51,1.06,1,0,1.83-.18,2.49-.54.66-.36,1.2-.8,1.61-1.33s.72-1.04.94-1.55h.22v3.06h1.92v-21.83h-1.98v8.6ZM122.28,254.24c-.39,1.01-.95,1.8-1.68,2.38-.74.58-1.63.86-2.69.86s-1.95-.3-2.7-.89-1.31-1.4-1.69-2.42-.58-2.15-.58-3.4.19-2.38.57-3.38.94-1.79,1.68-2.38,1.65-.88,2.71-.88,1.95.28,2.69.85c.74.57,1.3,1.35,1.68,2.34s.58,2.14.58,3.44-.19,2.45-.58,3.46Z"/><path class="cls-1" d="M114.04,198.59l-3.79,10.3c-.34.93-.65,1.86-.92,2.78-.15.53-.31,1.03-.47,1.55-.15-.51-.31-1.02-.45-1.54-.26-.92-.56-1.85-.92-2.79l-3.78-10.3h-2.17l6.28,16.51-.64,1.79c-.27.78-.6,1.37-.98,1.77s-.81.64-1.29.71c-.48.07-1.01.02-1.58-.15l-.23-.07-.54,1.73c.2.09.46.17.79.23s.7.1,1.1.1c.69,0,1.32-.13,1.88-.39s1.06-.65,1.49-1.18.8-1.2,1.11-2.01l7.27-19.04h-2.15Z"/><path class="cls-1" d="M144.32,115.23c-.21.05-.51.11-.92.17-.4.06-.72.09-.94.09-.72,0-1.23-.17-1.53-.5-.31-.33-.46-.84-.46-1.53v-10.98h4.08v-4.47h-4.08v-5.2h-5.86v5.2h-3.01v4.47h3.01v11.48c0,1.99.58,3.52,1.74,4.59,1.16,1.07,2.83,1.6,5.02,1.6.59,0,1.2-.04,1.85-.12s1.29-.21,1.94-.41l-.84-4.39Z"/><path class="cls-1" d="M130.82,214.24c1.12.72,2.44,1.08,3.98,1.08,1.1,0,2.08-.18,2.93-.54.85-.36,1.55-.83,2.12-1.41.56-.59.97-1.22,1.22-1.9l-1.89-.6c-.2.48-.49.92-.89,1.33-.4.41-.88.73-1.46.97-.58.24-1.25.37-2.01.37-1.12,0-2.1-.27-2.92-.8-.83-.53-1.46-1.28-1.91-2.24-.42-.9-.63-1.94-.66-3.11h12.15v-.86c0-1.39-.19-2.59-.57-3.62s-.9-1.87-1.57-2.54-1.41-1.17-2.24-1.49-1.69-.49-2.59-.49c-1.43,0-2.68.37-3.76,1.1-1.08.73-1.92,1.74-2.52,3.02-.6,1.28-.9,2.74-.9,4.39s.3,3.11.92,4.38,1.47,2.26,2.59,2.98ZM131.77,200.98c.78-.55,1.68-.82,2.72-.82s1.94.27,2.68.81,1.31,1.27,1.71,2.2c.32.75.51,1.59.57,2.5h-10.13c.05-.9.25-1.75.63-2.52.43-.9,1.04-1.62,1.82-2.17Z"/><path class="cls-1" d="M141.01,244.33c-.66-.67-1.41-1.17-2.24-1.49s-1.69-.49-2.59-.49c-1.43,0-2.68.37-3.76,1.1-1.08.73-1.92,1.74-2.52,3.02-.6,1.28-.9,2.74-.9,4.39s.3,3.11.92,4.38,1.47,2.26,2.59,2.98c1.12.72,2.44,1.08,3.98,1.08,1.1,0,2.08-.18,2.93-.54.85-.36,1.55-.83,2.12-1.41.56-.59.97-1.22,1.22-1.9l-1.89-.6c-.2.48-.49.92-.89,1.33-.4.41-.88.73-1.46.97-.58.24-1.25.37-2.01.37-1.12,0-2.1-.27-2.92-.8-.83-.53-1.46-1.28-1.91-2.24-.42-.9-.63-1.94-.66-3.11h12.15v-.86c0-1.39-.19-2.59-.57-3.62s-.9-1.87-1.57-2.54ZM133.45,244.95c.78-.55,1.68-.82,2.72-.82s1.94.27,2.68.81,1.31,1.27,1.71,2.2c.32.75.51,1.59.57,2.5h-10.13c.05-.9.25-1.75.63-2.52.43-.9,1.04-1.62,1.82-2.17Z"/><polygon class="cls-1" points="452.46 212.2 450.21 212.2 448.86 219.93 450.4 219.93 452.46 212.2"/></g></svg>