<?xml version="1.0" encoding="UTF-8"?><svg id="Capa_2" xmlns="http://www.w3.org/2000/svg" viewBox="0 0 671.88 281.62"><defs><style>.cls-1{fill:#0d2f59;}</style></defs><g id="Texto"><path class="cls-1" d="M10.08,10.3c.58.4.88.9.88,1.5,0,.8-.42,1.48-1.28,2.05-.85.57-1.92.85-3.22.85-.97,0-1.75-.2-2.35-.6-.6-.4-.9-.9-.9-1.5,0-.8.43-1.48,1.3-2.05.87-.57,1.95-.85,3.25-.85.97,0,1.74.2,2.33.6ZM7.98,26.1c.32,2,.79,4.78,1.43,8.35.47,2.43.8,4.32,1,5.65.2,1.33.3,2.48.3,3.45,0,1.5-1.2,2.25-3.6,2.25s-3.5-.77-3.5-2.3c0-.93.1-2.06.3-3.38.2-1.32.53-3.17,1-5.57.6-3.37,1.07-6.11,1.4-8.23.33-2.12.55-4.29.65-6.52,0-.17.06-.25.17-.25s.19.08.22.25c.1,2.2.31,4.3.62,6.3Z"/><path class="cls-1" d="M16.95,35.3c-.2,0-.3-.06-.3-.18s.1-.19.3-.22c1.17-.07,2.06-.48,2.67-1.25.62-.77.92-2.07.92-3.9V5.55c0-1.83-.31-3.13-.92-3.9-.62-.77-1.51-1.18-2.67-1.25-.2-.03-.3-.11-.3-.22s.1-.18.3-.18c1.3.1,2.27.15,2.9.15h7.7c.7,0,1.75-.05,3.15-.15.23,0,.36.06.38.18.02.12-.09.19-.33.22-1.3.07-2.3.48-3,1.25-.7.77-1.05,2.07-1.05,3.9v27.1c0,.83.13,1.4.4,1.7s.7.45,1.3.45c2.87,0,5.33-.38,7.4-1.12,2.07-.75,3.68-1.79,4.85-3.12.9-1.1,1.63-2.48,2.2-4.12.57-1.65,1.03-3.69,1.4-6.12.03-.2.12-.28.25-.25.13.03.18.13.15.3-.3,2.27-.54,4.65-.73,7.15-.18,2.5-.27,4.63-.27,6.4,0,.73-.03,1.22-.1,1.47-.07.25-.25.38-.55.38l-1.1-.1c-3.77-.33-7.15-.5-10.15-.5h-11.9c-.63,0-1.6.05-2.9.15Z"/><path class="cls-1" d="M52.78,34.48c-1.85-.98-3.3-2.38-4.35-4.17-1.05-1.8-1.57-3.85-1.57-6.15s.6-4.46,1.8-6.38c1.2-1.92,2.84-3.42,4.92-4.53,2.08-1.1,4.38-1.65,6.88-1.65,2.33,0,4.44.49,6.33,1.47,1.88.98,3.36,2.36,4.42,4.12,1.07,1.77,1.6,3.78,1.6,6.05s-.61,4.48-1.82,6.43c-1.22,1.95-2.88,3.48-5,4.6-2.12,1.12-4.44,1.67-6.98,1.67-2.3,0-4.38-.49-6.22-1.47ZM66.23,33.12c1.08-1.08,1.62-2.67,1.62-4.77s-.53-4.28-1.58-6.75-2.37-4.56-3.95-6.28c-1.58-1.72-3.12-2.58-4.62-2.58-1.87,0-3.33.53-4.4,1.6-1.07,1.07-1.6,2.67-1.6,4.8,0,2,.52,4.24,1.55,6.72,1.03,2.48,2.34,4.58,3.92,6.3s3.11,2.57,4.58,2.57c1.9,0,3.39-.54,4.48-1.62Z"/><path class="cls-1" d="M131.85,26.33c.13-.02.2.09.2.33,0,1.93-.29,3.6-.88,5-.58,1.4-1.33,2.46-2.25,3.17-.92.72-1.89,1.08-2.92,1.08s-1.98-.45-2.73-1.35c-.75-.9-1.33-2.22-1.72-3.95l-3.25-13.15c-.37-1.4-.85-2.38-1.45-2.92s-1.42-.83-2.45-.83c-1.47,0-2.57.58-3.3,1.75-.73,1.17-1.15,2.63-1.25,4.4l1.65,10.6c.13.93.38,1.63.75,2.1.37.47.77.7,1.2.7.23,0,.42-.05.55-.15.1-.07.17-.07.2,0,.03.07,0,.15-.1.25-.43.8-1,1.42-1.7,1.88s-1.45.66-2.25.62c-1.1-.07-2.06-.48-2.88-1.23-.82-.75-1.31-1.76-1.47-3.02l-2.1-13.6c-.47-2.87-1.73-4.3-3.8-4.3-1.2,0-2.2.65-3,1.95s-1.32,2.83-1.55,4.6v10.5c0,1.5.22,2.55.67,3.15s1.23.93,2.33,1c.17,0,.25.06.25.17s-.08.17-.25.17c-.77-.03-2.72-.05-5.85-.05s-5.1.02-5.9.05c-.17,0-.25-.07-.25-.2s.1-.2.3-.2c.77,0,1.35-.08,1.75-.25.4-.17.7-.55.9-1.15.2-.6.3-1.52.3-2.75v-11.95c0-1.27-.16-2.19-.47-2.77-.32-.58-.91-.88-1.78-.88-.17,0-.45.03-.85.1-.13.03-.21,0-.23-.12-.02-.12.03-.19.12-.22,1.57-.37,3.17-.85,4.83-1.45s2.99-1.25,4.03-1.95c.1-.07.22-.1.35-.1.17,0,.25.1.25.3-.27,2.23-.42,4.15-.45,5.75.53-1.6,1.46-2.97,2.78-4.12,1.32-1.15,2.86-1.72,4.62-1.72,1.63,0,3.07.52,4.3,1.55,1.23,1.03,2.05,2.67,2.45,4.9.33-1.8,1.18-3.32,2.55-4.57,1.37-1.25,3.07-1.88,5.1-1.88,1.9,0,3.43.43,4.58,1.3,1.15.87,1.98,2.3,2.48,4.3l3.05,12.6c.43,1.77,1.1,2.65,2,2.65.6,0,1.14-.53,1.62-1.58.48-1.05.72-2.44.72-4.17,0-.2.07-.31.2-.33Z"/><path class="cls-1" d="M160.75,26.33c.13-.02.2.09.2.33,0,1.93-.28,3.6-.85,5-.57,1.4-1.31,2.46-2.23,3.17-.92.72-1.89,1.08-2.92,1.08-2.17,0-3.63-1.77-4.4-5.3l-.35-1.5c-.63,2.13-1.71,3.8-3.22,5-1.52,1.2-3.19,1.8-5.03,1.8s-3.38-.37-4.62-1.1c-1.25-.73-2.18-1.7-2.8-2.9-.62-1.2-.92-2.48-.92-3.85,0-1.73.85-3.12,2.55-4.18,1.7-1.05,3.87-1.57,6.5-1.57,2.43,0,4.48.17,6.15.5l-1.1-4.85c-.37-1.67-.99-2.89-1.88-3.67-.88-.78-2.16-1.17-3.83-1.17-2.07,0-3.82.58-5.27,1.75s-2.26,2.98-2.42,5.45c-.03.23-.12.35-.28.35s-.21-.12-.17-.35c.17-1.93.8-3.56,1.9-4.88,1.1-1.32,2.44-2.29,4.03-2.93,1.58-.63,3.19-.95,4.83-.95,2.83,0,4.94.54,6.33,1.62,1.38,1.08,2.36,2.86,2.92,5.32l2.45,11.2c.23.9.49,1.58.77,2.03s.66.67,1.12.67c.6,0,1.15-.53,1.65-1.58s.73-2.44.7-4.17c0-.2.07-.31.2-.33ZM149.75,26.95l-.75-3.3c-1.6-.4-3.17-.6-4.7-.6-1.93,0-3.31.3-4.12.9-.82.6-1.23,1.68-1.23,3.25s.48,3.02,1.42,4.15c.95,1.13,2.31,1.7,4.08,1.7,3.13,0,4.87-1.63,5.2-4.9.07-.23.1-.63.1-1.2ZM143.05,9.5c-.03-.1.02-.2.15-.3,1.37-1,2.35-1.97,2.95-2.9s1.08-1.95,1.45-3.05c.23-.63.42-1.07.58-1.32.15-.25.41-.39.77-.43.63-.1,1.37-.15,2.2-.15.53,0,.97.04,1.33.12.35.08.52.19.52.33,0,.53-.67,1.41-2.02,2.62-1.35,1.22-2.83,2.38-4.42,3.47-1.6,1.1-2.67,1.68-3.2,1.75-.17,0-.27-.05-.3-.15Z"/><path class="cls-1" d="M162.5,25.8c.03-.13.1-.19.2-.18.1.02.17.09.2.23.03,2.9.74,5.18,2.12,6.85,1.38,1.67,3.26,2.5,5.62,2.5,3,0,4.5-1.03,4.5-3.1-.03-1.33-.62-2.53-1.75-3.58s-2.85-2.22-5.15-3.53c-2.17-1.3-3.79-2.47-4.88-3.5-1.08-1.03-1.62-2.23-1.62-3.6,0-1.13.42-2.19,1.27-3.17.85-.98,2.03-1.76,3.53-2.33,1.5-.57,3.17-.85,5-.85,2.17,0,4.2.31,6.1.92,1.9.62,2.72,1.46,2.45,2.52l-1.55,6c-.03.1-.09.15-.17.15s-.12-.07-.12-.2c-.23-5.73-2.8-8.6-7.7-8.6-1.47,0-2.47.22-3.03.67-.55.45-.82,1.06-.82,1.83,0,.93.5,1.81,1.5,2.62,1,.82,2.75,1.94,5.25,3.38,2.2,1.23,3.95,2.48,5.25,3.75,1.3,1.27,1.95,2.75,1.95,4.45,0,1.3-.45,2.47-1.35,3.52s-2.17,1.88-3.8,2.48c-1.63.6-3.48.9-5.55.9-1.57,0-3.07-.17-4.5-.52-1.43-.35-2.55-.83-3.35-1.45-.8-.62-1.13-1.29-1-2.03l1.4-6.15Z"/><path class="cls-1" d="M204.27,33.45c.48.93,1.24,1.42,2.28,1.45.17,0,.25.06.25.17s-.08.17-.25.17c-.63-.03-2.58-.05-5.85-.05s-5.27.02-5.9.05c-.2,0-.28-.07-.25-.2s.17-.2.4-.2c1.9,0,2.85-1.63,2.85-4.9v-11.2c0-1.27-.16-2.19-.47-2.77-.32-.58-.91-.88-1.78-.88-.17,0-.45.03-.85.1-.13.03-.21,0-.23-.12-.02-.12.03-.19.12-.22,1.57-.37,3.17-.85,4.83-1.45s2.99-1.25,4.03-1.95c.1-.07.22-.1.35-.1.17,0,.25.1.25.3-.2,1.87-.33,3.32-.4,4.35-.07,1.03-.1,2.23-.1,3.6v10.35c0,1.4.24,2.57.72,3.5ZM197.32,5.9c-.62-.47-.93-1.05-.93-1.75,0-.87.42-1.61,1.25-2.22s1.88-.93,3.15-.93c1.03,0,1.85.23,2.45.7.6.47.9,1.07.9,1.8,0,.87-.42,1.6-1.25,2.2-.83.6-1.88.9-3.15.9-1,0-1.81-.23-2.42-.7Z"/><path class="cls-1" d="M254.7,26.33c.13-.02.2.09.2.33,0,1.93-.29,3.6-.88,5-.58,1.4-1.33,2.46-2.25,3.17-.92.72-1.89,1.08-2.92,1.08s-1.98-.45-2.73-1.35c-.75-.9-1.33-2.22-1.72-3.95l-3.25-13.15c-.37-1.4-.85-2.38-1.45-2.92s-1.42-.83-2.45-.83c-1.47,0-2.57.58-3.3,1.75-.73,1.17-1.15,2.63-1.25,4.4l1.65,10.6c.13.93.38,1.63.75,2.1.37.47.77.7,1.2.7.23,0,.42-.05.55-.15.1-.07.17-.07.2,0,.03.07,0,.15-.1.25-.43.8-1,1.42-1.7,1.88s-1.45.66-2.25.62c-1.1-.07-2.06-.48-2.88-1.23-.82-.75-1.31-1.76-1.47-3.02l-2.1-13.6c-.47-2.87-1.73-4.3-3.8-4.3-1.2,0-2.2.65-3,1.95s-1.32,2.83-1.55,4.6v10.5c0,1.5.22,2.55.67,3.15s1.23.93,2.33,1c.17,0,.25.06.25.17s-.08.17-.25.17c-.77-.03-2.72-.05-5.85-.05s-5.1.02-5.9.05c-.17,0-.25-.07-.25-.2s.1-.2.3-.2c.77,0,1.35-.08,1.75-.25.4-.17.7-.55.9-1.15.2-.6.3-1.52.3-2.75v-11.95c0-1.27-.16-2.19-.47-2.77-.32-.58-.91-.88-1.78-.88-.17,0-.45.03-.85.1-.13.03-.21,0-.23-.12-.02-.12.03-.19.12-.22,1.57-.37,3.17-.85,4.83-1.45s2.99-1.25,4.03-1.95c.1-.07.22-.1.35-.1.17,0,.25.1.25.3-.27,2.23-.42,4.15-.45,5.75.53-1.6,1.46-2.97,2.78-4.12,1.32-1.15,2.86-1.72,4.62-1.72,1.63,0,3.07.52,4.3,1.55,1.23,1.03,2.05,2.67,2.45,4.9.33-1.8,1.18-3.32,2.55-4.57,1.37-1.25,3.07-1.88,5.1-1.88,1.9,0,3.43.43,4.58,1.3,1.15.87,1.98,2.3,2.48,4.3l3.05,12.6c.43,1.77,1.1,2.65,2,2.65.6,0,1.14-.53,1.62-1.58.48-1.05.72-2.44.72-4.17,0-.2.07-.31.2-.33Z"/><path class="cls-1" d="M277.02,12.98c1.45.95,2.62,2.32,3.5,4.1.88,1.78,1.32,3.84,1.32,6.17,0,2.2-.51,4.28-1.52,6.23-1.02,1.95-2.4,3.51-4.15,4.67s-3.66,1.75-5.72,1.75c-1.27,0-2.32-.17-3.15-.5s-1.62-.75-2.35-1.25c-.5-.33-.83-.5-1-.5-.3,0-.45.28-.45.85v5.5c0,1.77.24,3.01.72,3.73.48.72,1.23,1.11,2.23,1.17.17,0,.25.06.25.17s-.08.17-.25.17c-1.4-.07-3.13-.1-5.2-.1-2.63,0-4.78.03-6.45.1-.17,0-.25-.07-.25-.2s.08-.2.25-.2c1,.03,1.74-.32,2.23-1.05.48-.73.72-2.02.72-3.85v-21.2c0-1.27-.16-2.19-.47-2.77-.32-.58-.91-.88-1.78-.88-.17,0-.45.03-.85.1-.13.03-.21,0-.23-.12-.02-.12.03-.19.12-.22,1.57-.37,3.17-.85,4.83-1.45s2.99-1.25,4.03-1.95c.17-.1.31-.13.42-.1.12.03.16.13.12.3-.2,1.73-.32,3.2-.35,4.4,0,.4.03.77.08,1.12.05.35.12.51.23.47.9-1.8,2.02-3.27,3.35-4.4,1.33-1.13,3-1.7,5-1.7,1.73,0,3.33.47,4.78,1.42ZM275.47,33.35c.95-1.2,1.43-2.95,1.43-5.25s-.38-4.38-1.15-6.45c-.77-2.07-1.79-3.73-3.08-5-1.28-1.27-2.67-1.9-4.17-1.9s-2.71.63-3.62,1.9c-.92,1.27-1.38,2.97-1.38,5.1v3.35c0,2.9.66,5.3,1.97,7.2,1.32,1.9,3.11,2.85,5.38,2.85,2.13,0,3.68-.6,4.62-1.8Z"/><path class="cls-1" d="M290.57,34.48c-1.85-.98-3.3-2.38-4.35-4.17-1.05-1.8-1.57-3.85-1.57-6.15s.6-4.46,1.8-6.38c1.2-1.92,2.84-3.42,4.92-4.53,2.08-1.1,4.38-1.65,6.88-1.65,2.33,0,4.44.49,6.33,1.47,1.88.98,3.36,2.36,4.42,4.12,1.07,1.77,1.6,3.78,1.6,6.05s-.61,4.48-1.82,6.43c-1.22,1.95-2.88,3.48-5,4.6-2.12,1.12-4.44,1.67-6.98,1.67-2.3,0-4.38-.49-6.22-1.47ZM304.02,33.12c1.08-1.08,1.62-2.67,1.62-4.77s-.53-4.28-1.58-6.75-2.37-4.56-3.95-6.28c-1.58-1.72-3.12-2.58-4.62-2.58-1.87,0-3.33.53-4.4,1.6-1.07,1.07-1.6,2.67-1.6,4.8,0,2,.52,4.24,1.55,6.72,1.03,2.48,2.34,4.58,3.92,6.3s3.11,2.57,4.58,2.57c1.9,0,3.39-.54,4.48-1.62Z"/><path class="cls-1" d="M332.22,12.5c1.05.63,1.58,1.42,1.58,2.35,0,.13-.03.33-.1.6l-2.45,8.95c-.03.2-.11.28-.22.22-.12-.05-.16-.16-.12-.32.17-1,.25-1.83.25-2.5,0-2-.48-3.49-1.45-4.48-.97-.98-2.15-1.47-3.55-1.47-1.63,0-2.73.84-3.3,2.52-.57,1.68-.85,3.88-.85,6.58v5.8c0,1.5.22,2.55.67,3.15s1.23.93,2.33,1c.17,0,.25.06.25.17s-.08.17-.25.17c-.77-.03-2.72-.05-5.85-.05s-5.1.02-5.9.05c-.17,0-.25-.07-.25-.2s.1-.2.3-.2c.77,0,1.35-.08,1.75-.25.4-.17.7-.55.9-1.15.2-.6.3-1.52.3-2.75v-11.95c0-1.27-.16-2.19-.47-2.77-.32-.58-.91-.88-1.78-.88-.17,0-.45.03-.85.1-.13.03-.21,0-.23-.12-.02-.12.03-.19.12-.22,1.57-.37,3.17-.85,4.83-1.45s2.99-1.25,4.03-1.95c.1-.07.22-.1.35-.1.17,0,.25.1.25.3-.2,1.87-.33,3.32-.4,4.35-.07,1.03-.1,2.23-.1,3.6v.4c.4-2.33,1.12-4.32,2.15-5.97,1.03-1.65,2.55-2.47,4.55-2.47,1.3,0,2.47.32,3.52.95Z"/><path class="cls-1" d="M339.35,34.3c-.9-1.07-1.35-2.4-1.35-4V14.15c0-.5-.06-.87-.17-1.1-.12-.23-.41-.35-.88-.35h-1.75c-.13,0-.2-.04-.2-.12s.07-.14.2-.17c1.9-.33,3.64-1.17,5.22-2.5,1.58-1.33,2.66-3.02,3.23-5.05,0-.2.07-.3.2-.3.1,0,.15.1.15.3-.03,2.57-.12,4.75-.25,6.55,0,.4.08.66.25.78s.5.17,1,.17h4.65c.07,0,.09.06.08.17-.02.12-.11.17-.28.17h-4.25c-.57,0-.95.09-1.15.28-.2.18-.3.52-.3,1.02v14.85c0,1.23.25,2.18.75,2.85.5.67,1.13,1,1.9,1,.6,0,1.25-.22,1.95-.65.7-.43,1.37-1.05,2-1.85.17-.17.28-.22.35-.15.07.07.03.18-.1.35-1.33,1.87-2.68,3.25-4.03,4.15-1.35.9-2.61,1.35-3.78,1.35-1.4,0-2.55-.53-3.45-1.6Z"/><path class="cls-1" d="M379.1,26.33c.13-.02.2.09.2.33,0,1.93-.28,3.6-.85,5-.57,1.4-1.31,2.46-2.23,3.17-.92.72-1.89,1.08-2.92,1.08-2.17,0-3.63-1.77-4.4-5.3l-.35-1.5c-.63,2.13-1.71,3.8-3.22,5-1.52,1.2-3.19,1.8-5.03,1.8s-3.38-.37-4.62-1.1c-1.25-.73-2.18-1.7-2.8-2.9-.62-1.2-.92-2.48-.92-3.85,0-1.73.85-3.12,2.55-4.18,1.7-1.05,3.87-1.57,6.5-1.57,2.43,0,4.48.17,6.15.5l-1.1-4.85c-.37-1.67-.99-2.89-1.88-3.67-.88-.78-2.16-1.17-3.83-1.17-2.07,0-3.82.58-5.27,1.75s-2.26,2.98-2.42,5.45c-.03.23-.12.35-.28.35s-.21-.12-.17-.35c.17-1.93.8-3.56,1.9-4.88,1.1-1.32,2.44-2.29,4.03-2.93,1.58-.63,3.19-.95,4.83-.95,2.83,0,4.94.54,6.33,1.62,1.38,1.08,2.36,2.86,2.92,5.32l2.45,11.2c.23.9.49,1.58.77,2.03s.66.67,1.12.67c.6,0,1.15-.53,1.65-1.58s.73-2.44.7-4.17c0-.2.07-.31.2-.33ZM368.1,26.95l-.75-3.3c-1.6-.4-3.17-.6-4.7-.6-1.93,0-3.31.3-4.12.9-.82.6-1.23,1.68-1.23,3.25s.48,3.02,1.42,4.15c.95,1.13,2.31,1.7,4.08,1.7,3.13,0,4.87-1.63,5.2-4.9.07-.23.1-.63.1-1.2Z"/><path class="cls-1" d="M411.25,26.33c.13-.02.2.09.2.33,0,1.93-.28,3.6-.85,5-.57,1.4-1.32,2.46-2.25,3.17-.93.72-1.92,1.08-2.95,1.08-2.1,0-3.58-1.77-4.45-5.3l-3.2-13.05c-.3-1.33-.72-2.29-1.25-2.88s-1.43-.88-2.7-.88c-1.47,0-2.72.65-3.75,1.95-1.03,1.3-1.67,3.05-1.9,5.25v9.75c0,1.5.22,2.55.67,3.15s1.23.93,2.33,1c.17,0,.25.06.25.17s-.08.17-.25.17c-.77-.03-2.72-.05-5.85-.05s-5.1.02-5.9.05c-.17,0-.25-.07-.25-.2s.1-.2.3-.2c.77,0,1.35-.08,1.75-.25.4-.17.7-.55.9-1.15.2-.6.3-1.52.3-2.75v-11.95c0-1.27-.16-2.19-.47-2.77-.32-.58-.91-.88-1.78-.88-.17,0-.45.03-.85.1-.13.03-.21,0-.23-.12-.02-.12.03-.19.12-.22,1.57-.37,3.17-.85,4.83-1.45s2.99-1.25,4.03-1.95c.1-.07.22-.1.35-.1.17,0,.25.1.25.3-.3,2.93-.47,5.05-.5,6.35.57-1.8,1.62-3.32,3.17-4.57s3.29-1.88,5.23-1.88c2.13,0,3.73.47,4.8,1.4,1.07.93,1.83,2.37,2.3,4.3l3.05,12.5c.43,1.77,1.1,2.65,2,2.65.6,0,1.15-.53,1.65-1.58s.73-2.44.7-4.17c0-.2.07-.31.2-.33Z"/><path class="cls-1" d="M416,34.3c-.9-1.07-1.35-2.4-1.35-4V14.15c0-.5-.06-.87-.17-1.1-.12-.23-.41-.35-.88-.35h-1.75c-.13,0-.2-.04-.2-.12s.07-.14.2-.17c1.9-.33,3.64-1.17,5.22-2.5,1.58-1.33,2.66-3.02,3.23-5.05,0-.2.07-.3.2-.3.1,0,.15.1.15.3-.03,2.57-.12,4.75-.25,6.55,0,.4.08.66.25.78s.5.17,1,.17h4.65c.07,0,.09.06.08.17-.02.12-.11.17-.28.17h-4.25c-.57,0-.95.09-1.15.28-.2.18-.3.52-.3,1.02v14.85c0,1.23.25,2.18.75,2.85.5.67,1.13,1,1.9,1,.6,0,1.25-.22,1.95-.65.7-.43,1.37-1.05,2-1.85.17-.17.28-.22.35-.15.07.07.03.18-.1.35-1.33,1.87-2.68,3.25-4.03,4.15-1.35.9-2.61,1.35-3.78,1.35-1.4,0-2.55-.53-3.45-1.6Z"/><path class="cls-1" d="M450.42,30.75c.08.07.09.15.02.25-1.3,1.6-2.87,2.82-4.7,3.65s-3.75,1.25-5.75,1.25c-2.1,0-4.05-.48-5.85-1.45-1.8-.97-3.22-2.34-4.28-4.12-1.05-1.78-1.57-3.84-1.57-6.17s.57-4.42,1.72-6.35,2.71-3.46,4.67-4.58c1.97-1.12,4.12-1.67,6.45-1.67,2.6,0,4.77.71,6.5,2.12,1.73,1.42,2.6,3.34,2.6,5.77,0,1.1-.2,2.28-.6,3.55-3.5.07-8.87.22-16.1.45.57,1.83,1.44,3.48,2.62,4.92,1.18,1.45,2.54,2.58,4.07,3.4,1.53.82,3.03,1.22,4.5,1.22,2.43,0,4.27-.77,5.5-2.3.03-.03.09-.02.18.05ZM434.42,14.23c-.98,1.15-1.48,2.88-1.48,5.17,0,1.13.17,2.37.5,3.7,1.9-.03,4.13-.12,6.7-.25.67-.03,1.36-.07,2.08-.1.72-.03,1.44-.05,2.17-.05.3-.5.45-1.12.45-1.85,0-1.1-.31-2.31-.92-3.62-.62-1.32-1.4-2.43-2.35-3.35-.95-.92-1.91-1.38-2.88-1.38-1.87,0-3.29.58-4.27,1.73Z"/><path class="cls-1" d="M222.84,90.75c.08.07.09.15.02.25-1.3,1.6-2.87,2.82-4.7,3.65s-3.75,1.25-5.75,1.25c-2.1,0-4.05-.48-5.85-1.45-1.8-.97-3.22-2.34-4.28-4.12-1.05-1.78-1.57-3.84-1.57-6.17s.57-4.42,1.72-6.35,2.71-3.46,4.67-4.58c1.97-1.12,4.12-1.67,6.45-1.67,2.6,0,4.77.71,6.5,2.12,1.73,1.42,2.6,3.34,2.6,5.77,0,1.1-.2,2.28-.6,3.55-3.5.07-8.87.22-16.1.45.57,1.83,1.44,3.48,2.62,4.92,1.18,1.45,2.54,2.58,4.07,3.4,1.53.82,3.03,1.22,4.5,1.22,2.43,0,4.27-.77,5.5-2.3.03-.03.09-.02.18.05ZM206.84,74.23c-.98,1.15-1.48,2.88-1.48,5.17,0,1.13.17,2.37.5,3.7,1.9-.03,4.13-.12,6.7-.25.67-.03,1.36-.07,2.08-.1.72-.03,1.44-.05,2.17-.05.3-.5.45-1.12.45-1.85,0-1.1-.31-2.31-.92-3.62-.62-1.32-1.4-2.43-2.35-3.35-.95-.92-1.91-1.38-2.88-1.38-1.87,0-3.29.58-4.27,1.73Z"/><path class="cls-1" d="M227.07,85.8c.03-.13.1-.19.2-.18.1.02.17.09.2.23.03,2.9.74,5.18,2.12,6.85,1.38,1.67,3.26,2.5,5.62,2.5,3,0,4.5-1.03,4.5-3.1-.03-1.33-.62-2.53-1.75-3.58s-2.85-2.22-5.15-3.53c-2.17-1.3-3.79-2.47-4.88-3.5-1.08-1.03-1.62-2.23-1.62-3.6,0-1.13.42-2.19,1.27-3.17.85-.98,2.03-1.76,3.53-2.33,1.5-.57,3.17-.85,5-.85,2.17,0,4.2.31,6.1.92,1.9.62,2.72,1.46,2.45,2.52l-1.55,6c-.03.1-.09.15-.17.15s-.12-.07-.12-.2c-.23-5.73-2.8-8.6-7.7-8.6-1.47,0-2.47.22-3.03.67-.55.45-.82,1.06-.82,1.83,0,.93.5,1.81,1.5,2.62,1,.82,2.75,1.94,5.25,3.38,2.2,1.23,3.95,2.48,5.25,3.75,1.3,1.27,1.95,2.75,1.95,4.45,0,1.3-.45,2.47-1.35,3.52s-2.17,1.88-3.8,2.48c-1.63.6-3.48.9-5.55.9-1.57,0-3.07-.17-4.5-.52-1.43-.35-2.55-.83-3.35-1.45-.8-.62-1.13-1.29-1-2.03l1.4-6.15Z"/><path class="cls-1" d="M260.61,77.95c1.07-1.97,2.5-3.52,4.3-4.67s3.72-1.72,5.75-1.72c1.23,0,2.32.17,3.25.52.93.35,1.98.86,3.15,1.53.7.4,1.26.68,1.67.85.42.17.81.25,1.17.25.57,0,1.12-.26,1.65-.77.53-.52,1.12-1.19,1.75-2.03.1-.13.2-.2.3-.2.17,0,.23.12.2.35-.43,3.2-.65,6.43-.65,9.7v18.25c0,1.77.25,3.01.75,3.73.5.72,1.25,1.11,2.25,1.17.17,0,.25.06.25.17s-.08.17-.25.17c-1.4-.07-3.13-.1-5.2-.1-2.67,0-4.83.03-6.5.1-.2,0-.28-.07-.25-.2.03-.13.17-.2.4-.2.97,0,1.67-.37,2.12-1.1s.67-2,.67-3.8v-7.55c0-1.07-.03-1.77-.1-2.1-.03-.23-.08-.35-.12-.35s-.12.1-.23.3c-.93,1.8-2.12,3.2-3.55,4.2-1.43,1-3.07,1.5-4.9,1.5-1.73,0-3.33-.47-4.78-1.42s-2.6-2.29-3.45-4.03c-.85-1.73-1.27-3.77-1.27-6.1s.53-4.48,1.6-6.45ZM265.11,85.83c.77,2.05,1.79,3.72,3.08,5,1.28,1.28,2.64,1.92,4.08,1.92,1.77,0,3.07-.6,3.9-1.8s1.25-3,1.25-5.4v-.7c0-3.9-.61-6.94-1.83-9.12-1.22-2.18-3.09-3.28-5.62-3.28-2.2,0-3.75.59-4.65,1.78-.9,1.18-1.35,2.92-1.35,5.22s.38,4.33,1.15,6.38Z"/><path class="cls-1" d="M316.61,86.35c.1,0,.15.08.15.25,0,2.53-.54,4.7-1.62,6.5-1.08,1.8-2.49,2.7-4.22,2.7-1.33,0-2.44-.47-3.33-1.4-.88-.93-1.33-2.35-1.33-4.25v-.7c-.43,1.9-1.35,3.46-2.75,4.67-1.4,1.22-3.2,1.83-5.4,1.83-2.47,0-4.44-.83-5.92-2.5-1.48-1.67-2.22-4.1-2.22-7.3v-7.4c0-1.27-.16-2.19-.48-2.77s-.91-.88-1.77-.88c-.17,0-.45.03-.85.1-.13.03-.21,0-.22-.12-.02-.12.03-.19.12-.22,1.6-.37,3.22-.85,4.88-1.45s2.97-1.25,3.97-1.95c.1-.07.22-.1.35-.1.17,0,.25.1.25.3-.2,1.87-.33,3.32-.4,4.35-.07,1.03-.1,2.23-.1,3.6v6.8c0,5.03,1.65,7.55,4.95,7.55,1.7,0,3.06-.72,4.07-2.15s1.53-3.33,1.53-5.7v-7.35c0-1.27-.15-2.19-.45-2.77s-.88-.88-1.75-.88c-.17,0-.45.03-.85.1-.13.03-.21,0-.23-.12-.02-.12,0-.19.08-.22,1.6-.37,3.23-.85,4.88-1.45,1.65-.6,2.99-1.25,4.03-1.95.17-.1.31-.13.42-.1.12.03.16.13.12.3-.17,1.6-.29,3.01-.38,4.22-.08,1.22-.12,2.46-.12,3.73v9.4c0,2.2.57,3.3,1.7,3.3s1.82-.49,2.15-1.48c.33-.98.53-2.39.6-4.22,0-.17.05-.25.15-.25Z"/><path class="cls-1" d="M339.44,90.75c.08.07.09.15.02.25-1.3,1.6-2.87,2.82-4.7,3.65s-3.75,1.25-5.75,1.25c-2.1,0-4.05-.48-5.85-1.45-1.8-.97-3.22-2.34-4.28-4.12-1.05-1.78-1.57-3.84-1.57-6.17s.57-4.42,1.72-6.35,2.71-3.46,4.67-4.58c1.97-1.12,4.12-1.67,6.45-1.67,2.6,0,4.77.71,6.5,2.12,1.73,1.42,2.6,3.34,2.6,5.77,0,1.1-.2,2.28-.6,3.55-3.5.07-8.87.22-16.1.45.57,1.83,1.44,3.48,2.62,4.92,1.18,1.45,2.54,2.58,4.07,3.4,1.53.82,3.03,1.22,4.5,1.22,2.43,0,4.27-.77,5.5-2.3.03-.03.09-.02.18.05ZM323.44,74.23c-.98,1.15-1.48,2.88-1.48,5.17,0,1.13.17,2.37.5,3.7,1.9-.03,4.13-.12,6.7-.25.67-.03,1.36-.07,2.08-.1.72-.03,1.44-.05,2.17-.05.3-.5.45-1.12.45-1.85,0-1.1-.31-2.31-.92-3.62-.62-1.32-1.4-2.43-2.35-3.35-.95-.92-1.91-1.38-2.88-1.38-1.87,0-3.29.58-4.27,1.73Z"/><path class="cls-1" d="M378.71,72.5c0,.13-.07.2-.2.2-.73,0-1.34.32-1.83.95-.48.63-1.09,1.83-1.83,3.6l-6.25,14.8c-.03.07-.05.17-.05.3s.03.27.1.4l.35.8c.03.07.05.15.05.25,0,.17-.08.28-.25.35l-4.45,1.6c-.07.03-.17.05-.3.05-.23,0-.38-.12-.45-.35l-7.7-18.2c-.73-1.77-1.34-2.97-1.83-3.6-.48-.63-1.09-.95-1.82-.95-.13,0-.2-.07-.2-.2s.07-.2.2-.2l2.2.05h6.35l3.85-.05c.23,0,.35.07.35.2s-.12.2-.35.2c-2.1,0-3.15.75-3.15,2.25,0,.7.18,1.47.55,2.3l5.9,13.95c.07.17.16.26.28.28.12.02.21-.08.28-.28l5.9-13.95c.4-.97.6-1.75.6-2.35,0-1.47-1.02-2.2-3.05-2.2-.2,0-.3-.07-.3-.2s.1-.2.3-.2l3.75.05h.6l2.2-.05c.13,0,.2.07.2.2Z"/><path class="cls-1" d="M400.44,90.75c.08.07.09.15.02.25-1.3,1.6-2.87,2.82-4.7,3.65s-3.75,1.25-5.75,1.25c-2.1,0-4.05-.48-5.85-1.45-1.8-.97-3.22-2.34-4.28-4.12-1.05-1.78-1.57-3.84-1.57-6.17s.57-4.42,1.72-6.35,2.71-3.46,4.67-4.58c1.97-1.12,4.12-1.67,6.45-1.67,2.6,0,4.77.71,6.5,2.12,1.73,1.42,2.6,3.34,2.6,5.77,0,1.1-.2,2.28-.6,3.55-3.5.07-8.87.22-16.1.45.57,1.83,1.44,3.48,2.62,4.92,1.18,1.45,2.54,2.58,4.07,3.4,1.53.82,3.03,1.22,4.5,1.22,2.43,0,4.27-.77,5.5-2.3.03-.03.09-.02.18.05ZM384.44,74.23c-.98,1.15-1.48,2.88-1.48,5.17,0,1.13.17,2.37.5,3.7,1.9-.03,4.13-.12,6.7-.25.67-.03,1.36-.07,2.08-.1.72-.03,1.44-.05,2.17-.05.3-.5.45-1.12.45-1.85,0-1.1-.31-2.31-.92-3.62-.62-1.32-1.4-2.43-2.35-3.35-.95-.92-1.91-1.38-2.88-1.38-1.87,0-3.29.58-4.27,1.73Z"/><path class="cls-1" d="M435.06,86.33c.13-.02.2.09.2.33,0,1.93-.28,3.6-.85,5-.57,1.4-1.32,2.46-2.25,3.17-.93.72-1.92,1.08-2.95,1.08-2.1,0-3.58-1.77-4.45-5.3l-3.2-13.05c-.3-1.33-.72-2.29-1.25-2.88s-1.43-.88-2.7-.88c-1.47,0-2.72.65-3.75,1.95-1.03,1.3-1.67,3.05-1.9,5.25v9.75c0,1.5.22,2.55.67,3.15s1.23.93,2.33,1c.17,0,.25.06.25.17s-.08.17-.25.17c-.77-.03-2.72-.05-5.85-.05s-5.1.02-5.9.05c-.17,0-.25-.07-.25-.2s.1-.2.3-.2c.77,0,1.35-.08,1.75-.25.4-.17.7-.55.9-1.15.2-.6.3-1.52.3-2.75v-11.95c0-1.27-.16-2.19-.47-2.77-.32-.58-.91-.88-1.78-.88-.17,0-.45.03-.85.1-.13.03-.21,0-.23-.12-.02-.12.03-.19.12-.22,1.57-.37,3.17-.85,4.83-1.45s2.99-1.25,4.03-1.95c.1-.07.22-.1.35-.1.17,0,.25.1.25.3-.3,2.93-.47,5.05-.5,6.35.57-1.8,1.62-3.32,3.17-4.57s3.29-1.88,5.23-1.88c2.13,0,3.73.47,4.8,1.4,1.07.93,1.83,2.37,2.3,4.3l3.05,12.5c.43,1.77,1.1,2.65,2,2.65.6,0,1.15-.53,1.65-1.58s.73-2.44.7-4.17c0-.2.07-.31.2-.33Z"/><path class="cls-1" d="M457.71,95.55c1.03,1.1,1.55,2.4,1.55,3.9,0,1.87-.69,3.4-2.07,4.6-1.38,1.2-3.04,1.8-4.98,1.8-2.87,0-5.15-1.13-6.85-3.4-1.57.67-3.12,1-4.65,1-1.73,0-3.08-.47-4.05-1.42s-1.45-2.16-1.45-3.62c0-1.57.48-2.93,1.45-4.1.97-1.17,2.22-2.15,3.75-2.95-1.63-.8-2.92-1.93-3.88-3.4-.95-1.47-1.42-3.18-1.42-5.15,0-2.1.52-4,1.58-5.7,1.05-1.7,2.48-3.03,4.3-4,1.82-.97,3.83-1.45,6.02-1.45,1.47,0,2.85.23,4.15.7.03-2.43.67-4.23,1.9-5.38,1.23-1.15,2.65-1.73,4.25-1.73.6,0,1.07.14,1.42.43.35.28.46.66.33,1.12l-.95,3.35c-.07.27-.18.44-.35.53s-.35.06-.55-.08c-.87-.6-1.83-.9-2.9-.9-1.83,0-2.7.95-2.6,2.85,1.87.77,3.34,1.96,4.42,3.57,1.08,1.62,1.62,3.48,1.62,5.58,0,1.97-.53,3.78-1.6,5.42-1.07,1.65-2.51,2.96-4.33,3.93-1.82.97-3.83,1.45-6.02,1.45-1.73,0-3.37-.32-4.9-.95-1.1.47-1.93.98-2.5,1.55s-.85,1.32-.85,2.25c0,.73.25,1.33.75,1.8s1.13.7,1.9.7c.97,0,1.89-.16,2.78-.48.88-.32,1.96-.77,3.22-1.38,1.57-.7,2.87-1.22,3.9-1.57,1.03-.35,2.18-.53,3.45-.53,1.73,0,3.12.55,4.15,1.65ZM440.89,74.12c-.95.98-1.42,2.46-1.42,4.43s.38,3.96,1.12,5.97c.75,2.02,1.77,3.68,3.05,5,1.28,1.32,2.66,1.97,4.12,1.97,1.83,0,3.23-.48,4.2-1.45s1.45-2.42,1.45-4.35c0-1.83-.4-3.77-1.2-5.83-.8-2.05-1.86-3.77-3.17-5.15-1.32-1.38-2.67-2.08-4.08-2.08-1.77,0-3.12.49-4.08,1.47ZM456.96,102.1c0-.77-.26-1.4-.77-1.9-.52-.5-1.21-.75-2.08-.75-1.17,0-2.23.17-3.17.5-.95.33-2.09.83-3.43,1.5-.8.4-1.4.68-1.8.85.73.83,1.67,1.52,2.8,2.05,1.13.53,2.45.8,3.95.8,3,0,4.5-1.02,4.5-3.05Z"/><path class="cls-1" d="M488.06,86.33c.13-.02.2.09.2.33,0,1.93-.28,3.6-.85,5-.57,1.4-1.31,2.46-2.23,3.17-.92.72-1.89,1.08-2.92,1.08-2.17,0-3.63-1.77-4.4-5.3l-.35-1.5c-.63,2.13-1.71,3.8-3.22,5-1.52,1.2-3.19,1.8-5.03,1.8s-3.38-.37-4.62-1.1c-1.25-.73-2.18-1.7-2.8-2.9-.62-1.2-.92-2.48-.92-3.85,0-1.73.85-3.12,2.55-4.18,1.7-1.05,3.87-1.57,6.5-1.57,2.43,0,4.48.17,6.15.5l-1.1-4.85c-.37-1.67-.99-2.89-1.88-3.67-.88-.78-2.16-1.17-3.83-1.17-2.07,0-3.82.58-5.27,1.75s-2.26,2.98-2.42,5.45c-.03.23-.12.35-.28.35s-.21-.12-.17-.35c.17-1.93.8-3.56,1.9-4.88,1.1-1.32,2.44-2.29,4.03-2.93,1.58-.63,3.19-.95,4.83-.95,2.83,0,4.94.54,6.33,1.62,1.38,1.08,2.36,2.86,2.92,5.32l2.45,11.2c.23.9.49,1.58.77,2.03s.66.67,1.12.67c.6,0,1.15-.53,1.65-1.58s.73-2.44.7-4.17c0-.2.07-.31.2-.33ZM477.06,86.95l-.75-3.3c-1.6-.4-3.17-.6-4.7-.6-1.93,0-3.31.3-4.12.9-.82.6-1.23,1.68-1.23,3.25s.48,3.02,1.42,4.15c.95,1.13,2.31,1.7,4.08,1.7,3.13,0,4.87-1.63,5.2-4.9.07-.23.1-.63.1-1.2Z"/><path class="cls-1" d="M489.81,85.8c.03-.13.1-.19.2-.18.1.02.17.09.2.23.03,2.9.74,5.18,2.12,6.85,1.38,1.67,3.26,2.5,5.62,2.5,3,0,4.5-1.03,4.5-3.1-.03-1.33-.62-2.53-1.75-3.58s-2.85-2.22-5.15-3.53c-2.17-1.3-3.79-2.47-4.88-3.5-1.08-1.03-1.62-2.23-1.62-3.6,0-1.13.42-2.19,1.27-3.17.85-.98,2.03-1.76,3.53-2.33,1.5-.57,3.17-.85,5-.85,2.17,0,4.2.31,6.1.92,1.9.62,2.72,1.46,2.45,2.52l-1.55,6c-.03.1-.09.15-.17.15s-.12-.07-.12-.2c-.23-5.73-2.8-8.6-7.7-8.6-1.47,0-2.47.22-3.03.67-.55.45-.82,1.06-.82,1.83,0,.93.5,1.81,1.5,2.62,1,.82,2.75,1.94,5.25,3.38,2.2,1.23,3.95,2.48,5.25,3.75,1.3,1.27,1.95,2.75,1.95,4.45,0,1.3-.45,2.47-1.35,3.52s-2.17,1.88-3.8,2.48c-1.63.6-3.48.9-5.55.9-1.57,0-3.07-.17-4.5-.52-1.43-.35-2.55-.83-3.35-1.45-.8-.62-1.13-1.29-1-2.03l1.4-6.15Z"/><path class="cls-1" d="M306.23,146.33c.13-.02.2.09.2.33,0,1.93-.28,3.6-.85,5-.57,1.4-1.31,2.46-2.23,3.17-.92.72-1.89,1.08-2.92,1.08-2.17,0-3.63-1.77-4.4-5.3l-.35-1.5c-.63,2.13-1.71,3.8-3.22,5-1.52,1.2-3.19,1.8-5.03,1.8s-3.38-.37-4.62-1.1c-1.25-.73-2.18-1.7-2.8-2.9-.62-1.2-.92-2.48-.92-3.85,0-1.73.85-3.12,2.55-4.18,1.7-1.05,3.87-1.57,6.5-1.57,2.43,0,4.48.17,6.15.5l-1.1-4.85c-.37-1.67-.99-2.89-1.88-3.67-.88-.78-2.16-1.17-3.83-1.17-2.07,0-3.82.58-5.27,1.75s-2.26,2.98-2.42,5.45c-.03.23-.12.35-.28.35s-.21-.12-.17-.35c.17-1.93.8-3.56,1.9-4.88,1.1-1.32,2.44-2.29,4.03-2.93,1.58-.63,3.19-.95,4.83-.95,2.83,0,4.94.54,6.33,1.62,1.38,1.08,2.36,2.86,2.92,5.32l2.45,11.2c.23.9.49,1.58.77,2.03s.66.67,1.12.67c.6,0,1.15-.53,1.65-1.58s.73-2.44.7-4.17c0-.2.07-.31.2-.33ZM295.23,146.95l-.75-3.3c-1.6-.4-3.17-.6-4.7-.6-1.93,0-3.31.3-4.12.9-.82.6-1.23,1.68-1.23,3.25s.48,3.02,1.42,4.15c.95,1.13,2.31,1.7,4.08,1.7,3.13,0,4.87-1.63,5.2-4.9.07-.23.1-.63.1-1.2Z"/><path class="cls-1" d="M339.41,132.98c1.48.95,2.66,2.31,3.53,4.08.87,1.77,1.3,3.83,1.3,6.2,0,2.23-.51,4.32-1.53,6.25-1.02,1.93-2.42,3.48-4.22,4.65s-3.83,1.75-6.1,1.75c-1.4,0-2.59-.2-3.58-.6-.98-.4-2.04-.95-3.17-1.65-.7-.43-1.24-.74-1.62-.92-.38-.18-.78-.28-1.18-.28-.3,0-.59.15-.88.45s-.62.73-1.02,1.3l-.9,1.15c-.13.17-.25.25-.35.25-.2,0-.27-.13-.2-.4.4-2.93.6-6.08.6-9.45l-.1-18.1c0-1.27-.09-2.21-.28-2.83-.18-.62-.42-.99-.72-1.12-.3-.13-.72-.17-1.25-.1h-.05c-.13,0-.23-.05-.28-.15-.05-.1-.06-.15-.02-.15,3.8-1,6.68-2.38,8.65-4.15h.1c.23,0,.33.13.3.4-.23,1.33-.39,2.73-.48,4.2-.08,1.47-.12,3.43-.12,5.9v6.35c.07,1.2.18,1.8.35,1.8.93-1.8,2.08-3.29,3.42-4.48,1.35-1.18,2.97-1.77,4.88-1.77,1.8,0,3.44.47,4.92,1.42ZM337.86,153.38c.92-1.15,1.38-2.91,1.38-5.27s-.38-4.48-1.12-6.53-1.77-3.71-3.05-4.97c-1.28-1.27-2.69-1.9-4.23-1.9s-2.67.69-3.6,2.08c-.93,1.38-1.4,3.29-1.4,5.72v2.4c0,3.1.57,5.58,1.7,7.42,1.13,1.85,3.02,2.78,5.65,2.78,2.2,0,3.76-.58,4.67-1.73Z"/><path class="cls-1" d="M373.98,146.33c.13-.02.2.09.2.33,0,1.93-.28,3.6-.85,5-.57,1.4-1.31,2.46-2.23,3.17-.92.72-1.89,1.08-2.92,1.08-2.17,0-3.63-1.77-4.4-5.3l-.35-1.5c-.63,2.13-1.71,3.8-3.22,5-1.52,1.2-3.19,1.8-5.03,1.8s-3.38-.37-4.62-1.1c-1.25-.73-2.18-1.7-2.8-2.9-.62-1.2-.92-2.48-.92-3.85,0-1.73.85-3.12,2.55-4.18,1.7-1.05,3.87-1.57,6.5-1.57,2.43,0,4.48.17,6.15.5l-1.1-4.85c-.37-1.67-.99-2.89-1.88-3.67-.88-.78-2.16-1.17-3.83-1.17-2.07,0-3.82.58-5.27,1.75s-2.26,2.98-2.42,5.45c-.03.23-.12.35-.28.35s-.21-.12-.17-.35c.17-1.93.8-3.56,1.9-4.88,1.1-1.32,2.44-2.29,4.03-2.93,1.58-.63,3.19-.95,4.83-.95,2.83,0,4.94.54,6.33,1.62,1.38,1.08,2.36,2.86,2.92,5.32l2.45,11.2c.23.9.49,1.58.77,2.03s.66.67,1.12.67c.6,0,1.15-.53,1.65-1.58s.73-2.44.7-4.17c0-.2.07-.31.2-.33ZM362.98,146.95l-.75-3.3c-1.6-.4-3.17-.6-4.7-.6-1.93,0-3.31.3-4.12.9-.82.6-1.23,1.68-1.23,3.25s.48,3.02,1.42,4.15c.95,1.13,2.31,1.7,4.08,1.7,3.13,0,4.87-1.63,5.2-4.9.07-.23.1-.63.1-1.2Z"/><path class="cls-1" d="M383.76,153.45c.48.93,1.24,1.42,2.28,1.45.17,0,.25.06.25.17s-.08.17-.25.17c-.63-.03-2.58-.05-5.85-.05s-5.27.02-5.9.05c-.2,0-.28-.07-.25-.2s.17-.2.4-.2c1.9,0,2.85-1.63,2.85-4.9v-11.2c0-1.27-.16-2.19-.47-2.77-.32-.58-.91-.88-1.78-.88-.17,0-.45.03-.85.1-.13.03-.21,0-.23-.12-.02-.12.03-.19.12-.22,1.57-.37,3.17-.85,4.83-1.45s2.99-1.25,4.03-1.95c.1-.07.22-.1.35-.1.17,0,.25.1.25.3-.2,1.87-.33,3.32-.4,4.35-.07,1.03-.1,2.23-.1,3.6v10.35c0,1.4.24,2.57.72,3.5ZM376.81,125.9c-.62-.47-.93-1.05-.93-1.75,0-.87.42-1.61,1.25-2.22s1.88-.93,3.15-.93c1.03,0,1.85.23,2.45.7.6.47.9,1.07.9,1.8,0,.87-.42,1.6-1.25,2.2-.83.6-1.88.9-3.15.9-1,0-1.81-.23-2.42-.7Z"/><path class="cls-1" d="M391.33,124.45c-.27-.57-.68-.85-1.25-.85-.27,0-.47.02-.6.05h-.05c-.17,0-.27-.05-.3-.15-.03-.1-.03-.17,0-.2,3.73-.97,6.62-2.33,8.65-4.1h.1c.23,0,.33.12.3.35-.23,1.33-.39,2.73-.47,4.2-.08,1.47-.12,3.43-.12,5.9v20.3c0,1.4.24,2.57.72,3.5.48.93,1.24,1.42,2.28,1.45.17,0,.25.06.25.17s-.08.17-.25.17c-.63-.03-2.58-.05-5.85-.05s-5.27.02-5.9.05c-.2,0-.28-.07-.25-.2.03-.13.17-.2.4-.2,1.9,0,2.85-1.63,2.85-4.9l-.1-22.25c0-1.6-.13-2.68-.4-3.25Z"/><path class="cls-1" d="M430.58,146.33c.13-.02.2.09.2.33,0,1.93-.28,3.6-.85,5-.57,1.4-1.31,2.46-2.23,3.17-.92.72-1.89,1.08-2.92,1.08-2.17,0-3.63-1.77-4.4-5.3l-.35-1.5c-.63,2.13-1.71,3.8-3.22,5-1.52,1.2-3.19,1.8-5.03,1.8s-3.38-.37-4.62-1.1c-1.25-.73-2.18-1.7-2.8-2.9-.62-1.2-.92-2.48-.92-3.85,0-1.73.85-3.12,2.55-4.18,1.7-1.05,3.87-1.57,6.5-1.57,2.43,0,4.48.17,6.15.5l-1.1-4.85c-.37-1.67-.99-2.89-1.88-3.67-.88-.78-2.16-1.17-3.83-1.17-2.07,0-3.82.58-5.27,1.75s-2.26,2.98-2.42,5.45c-.03.23-.12.35-.28.35s-.21-.12-.17-.35c.17-1.93.8-3.56,1.9-4.88,1.1-1.32,2.44-2.29,4.03-2.93,1.58-.63,3.19-.95,4.83-.95,2.83,0,4.94.54,6.33,1.62,1.38,1.08,2.36,2.86,2.92,5.32l2.45,11.2c.23.9.49,1.58.77,2.03s.66.67,1.12.67c.6,0,1.15-.53,1.65-1.58s.73-2.44.7-4.17c0-.2.07-.31.2-.33ZM419.58,146.95l-.75-3.3c-1.6-.4-3.17-.6-4.7-.6-1.93,0-3.31.3-4.12.9-.82.6-1.23,1.68-1.23,3.25s.48,3.02,1.42,4.15c.95,1.13,2.31,1.7,4.08,1.7,3.13,0,4.87-1.63,5.2-4.9.07-.23.1-.63.1-1.2Z"/><path class="cls-1" d="M449.86,132.5c1.05.63,1.58,1.42,1.58,2.35,0,.13-.03.33-.1.6l-2.45,8.95c-.03.2-.11.28-.22.22-.12-.05-.16-.16-.12-.32.17-1,.25-1.83.25-2.5,0-2-.48-3.49-1.45-4.48-.97-.98-2.15-1.47-3.55-1.47-1.63,0-2.73.84-3.3,2.52-.57,1.68-.85,3.88-.85,6.58v5.8c0,1.5.22,2.55.67,3.15s1.23.93,2.33,1c.17,0,.25.06.25.17s-.08.17-.25.17c-.77-.03-2.72-.05-5.85-.05s-5.1.02-5.9.05c-.17,0-.25-.07-.25-.2s.1-.2.3-.2c.77,0,1.35-.08,1.75-.25.4-.17.7-.55.9-1.15.2-.6.3-1.52.3-2.75v-11.95c0-1.27-.16-2.19-.47-2.77-.32-.58-.91-.88-1.78-.88-.17,0-.45.03-.85.1-.13.03-.21,0-.23-.12-.02-.12.03-.19.12-.22,1.57-.37,3.17-.85,4.83-1.45s2.99-1.25,4.03-1.95c.1-.07.22-.1.35-.1.17,0,.25.1.25.3-.2,1.87-.33,3.32-.4,4.35-.07,1.03-.1,2.23-.1,3.6v.4c.4-2.33,1.12-4.32,2.15-5.97,1.03-1.65,2.55-2.47,4.55-2.47,1.3,0,2.47.32,3.52.95Z"/><path class="cls-1" d="M482.78,144.75c-.07.17-.16.24-.27.23-.12-.02-.14-.12-.08-.33.17-.67.25-1.32.25-1.95,0-1.53-.37-3.09-1.1-4.67-.73-1.58-1.7-2.89-2.9-3.92s-2.47-1.55-3.8-1.55c-3.93,0-5.9,2.25-5.9,6.75,0,2.47.57,4.76,1.7,6.88,1.13,2.12,2.61,3.79,4.42,5.02,1.82,1.23,3.66,1.85,5.53,1.85,2.4,0,4.23-.77,5.5-2.3.13-.13.23-.16.3-.07.07.08.07.17,0,.27-2.63,3.3-6.12,4.95-10.45,4.95-2.13,0-4.1-.48-5.9-1.45-1.8-.97-3.24-2.34-4.32-4.12-1.08-1.78-1.62-3.84-1.62-6.17s.57-4.37,1.72-6.3c1.15-1.93,2.71-3.47,4.67-4.6,1.97-1.13,4.1-1.7,6.4-1.7,1.6,0,3.1.22,4.5.65,1.4.43,2.47.99,3.22,1.67.75.68,1.04,1.36.88,2.03l-2.75,8.85Z"/><path class="cls-1" d="M494.01,154.48c-1.85-.98-3.3-2.38-4.35-4.17-1.05-1.8-1.57-3.85-1.57-6.15s.6-4.46,1.8-6.38c1.2-1.92,2.84-3.42,4.92-4.53,2.08-1.1,4.38-1.65,6.88-1.65,2.33,0,4.44.49,6.33,1.47,1.88.98,3.36,2.36,4.42,4.12,1.07,1.77,1.6,3.78,1.6,6.05s-.61,4.48-1.82,6.43c-1.22,1.95-2.88,3.48-5,4.6-2.12,1.12-4.44,1.67-6.98,1.67-2.3,0-4.38-.49-6.22-1.47ZM507.46,153.12c1.08-1.08,1.62-2.67,1.62-4.77s-.53-4.28-1.58-6.75-2.37-4.56-3.95-6.28c-1.58-1.72-3.12-2.58-4.62-2.58-1.87,0-3.33.53-4.4,1.6-1.07,1.07-1.6,2.67-1.6,4.8,0,2,.52,4.24,1.55,6.72,1.03,2.48,2.34,4.58,3.92,6.3s3.11,2.57,4.58,2.57c1.9,0,3.39-.54,4.48-1.62Z"/><path class="cls-1" d="M548.53,146.33c.13-.02.2.09.2.33,0,1.93-.28,3.6-.85,5-.57,1.4-1.32,2.46-2.25,3.17-.93.72-1.92,1.08-2.95,1.08-2.1,0-3.58-1.77-4.45-5.3l-3.2-13.05c-.3-1.33-.72-2.29-1.25-2.88s-1.43-.88-2.7-.88c-1.47,0-2.72.65-3.75,1.95-1.03,1.3-1.67,3.05-1.9,5.25v9.75c0,1.5.22,2.55.67,3.15s1.23.93,2.33,1c.17,0,.25.06.25.17s-.08.17-.25.17c-.77-.03-2.72-.05-5.85-.05s-5.1.02-5.9.05c-.17,0-.25-.07-.25-.2s.1-.2.3-.2c.77,0,1.35-.08,1.75-.25.4-.17.7-.55.9-1.15.2-.6.3-1.52.3-2.75v-11.95c0-1.27-.16-2.19-.47-2.77-.32-.58-.91-.88-1.78-.88-.17,0-.45.03-.85.1-.13.03-.21,0-.23-.12-.02-.12.03-.19.12-.22,1.57-.37,3.17-.85,4.83-1.45s2.99-1.25,4.03-1.95c.1-.07.22-.1.35-.1.17,0,.25.1.25.3-.3,2.93-.47,5.05-.5,6.35.57-1.8,1.62-3.32,3.17-4.57s3.29-1.88,5.23-1.88c2.13,0,3.73.47,4.8,1.4,1.07.93,1.83,2.37,2.3,4.3l3.05,12.5c.43,1.77,1.1,2.65,2,2.65.6,0,1.15-.53,1.65-1.58s.73-2.44.7-4.17c0-.2.07-.31.2-.33Z"/><path class="cls-1" d="M594.08,146.33c.13-.02.2.09.2.33,0,1.93-.29,3.6-.88,5-.58,1.4-1.33,2.46-2.25,3.17-.92.72-1.89,1.08-2.92,1.08s-1.98-.45-2.73-1.35c-.75-.9-1.33-2.22-1.72-3.95l-3.25-13.15c-.37-1.4-.85-2.38-1.45-2.92s-1.42-.83-2.45-.83c-1.47,0-2.57.58-3.3,1.75-.73,1.17-1.15,2.63-1.25,4.4l1.65,10.6c.13.93.38,1.63.75,2.1.37.47.77.7,1.2.7.23,0,.42-.05.55-.15.1-.07.17-.07.2,0,.03.07,0,.15-.1.25-.43.8-1,1.42-1.7,1.88s-1.45.66-2.25.62c-1.1-.07-2.06-.48-2.88-1.23-.82-.75-1.31-1.76-1.47-3.02l-2.1-13.6c-.47-2.87-1.73-4.3-3.8-4.3-1.2,0-2.2.65-3,1.95s-1.32,2.83-1.55,4.6v10.5c0,1.5.22,2.55.67,3.15s1.23.93,2.33,1c.17,0,.25.06.25.17s-.08.17-.25.17c-.77-.03-2.72-.05-5.85-.05s-5.1.02-5.9.05c-.17,0-.25-.07-.25-.2s.1-.2.3-.2c.77,0,1.35-.08,1.75-.25.4-.17.7-.55.9-1.15.2-.6.3-1.52.3-2.75v-11.95c0-1.27-.16-2.19-.47-2.77-.32-.58-.91-.88-1.78-.88-.17,0-.45.03-.85.1-.13.03-.21,0-.23-.12-.02-.12.03-.19.12-.22,1.57-.37,3.17-.85,4.83-1.45s2.99-1.25,4.03-1.95c.1-.07.22-.1.35-.1.17,0,.25.1.25.3-.27,2.23-.42,4.15-.45,5.75.53-1.6,1.46-2.97,2.78-4.12,1.32-1.15,2.86-1.72,4.62-1.72,1.63,0,3.07.52,4.3,1.55,1.23,1.03,2.05,2.67,2.45,4.9.33-1.8,1.18-3.32,2.55-4.57,1.37-1.25,3.07-1.88,5.1-1.88,1.9,0,3.43.43,4.58,1.3,1.15.87,1.98,2.3,2.48,4.3l3.05,12.6c.43,1.77,1.1,2.65,2,2.65.6,0,1.14-.53,1.62-1.58.48-1.05.72-2.44.72-4.17,0-.2.07-.31.2-.33Z"/><path class="cls-1" d="M603.85,153.45c.48.93,1.24,1.42,2.28,1.45.17,0,.25.06.25.17s-.08.17-.25.17c-.63-.03-2.58-.05-5.85-.05s-5.27.02-5.9.05c-.2,0-.28-.07-.25-.2s.17-.2.4-.2c1.9,0,2.85-1.63,2.85-4.9v-11.2c0-1.27-.16-2.19-.47-2.77-.32-.58-.91-.88-1.78-.88-.17,0-.45.03-.85.1-.13.03-.21,0-.23-.12-.02-.12.03-.19.12-.22,1.57-.37,3.17-.85,4.83-1.45s2.99-1.25,4.03-1.95c.1-.07.22-.1.35-.1.17,0,.25.1.25.3-.2,1.87-.33,3.32-.4,4.35-.07,1.03-.1,2.23-.1,3.6v10.35c0,1.4.24,2.57.72,3.5ZM596.91,125.9c-.62-.47-.93-1.05-.93-1.75,0-.87.42-1.61,1.25-2.22s1.88-.93,3.15-.93c1.03,0,1.85.23,2.45.7.6.47.9,1.07.9,1.8,0,.87-.42,1.6-1.25,2.2-.83.6-1.88.9-3.15.9-1,0-1.81-.23-2.42-.7Z"/><path class="cls-1" d="M630.58,155.55c1.03,1.1,1.55,2.4,1.55,3.9,0,1.87-.69,3.4-2.07,4.6-1.38,1.2-3.04,1.8-4.98,1.8-2.87,0-5.15-1.13-6.85-3.4-1.57.67-3.12,1-4.65,1-1.73,0-3.08-.47-4.05-1.42s-1.45-2.16-1.45-3.62c0-1.57.48-2.93,1.45-4.1.97-1.17,2.22-2.15,3.75-2.95-1.63-.8-2.92-1.93-3.88-3.4-.95-1.47-1.42-3.18-1.42-5.15,0-2.1.52-4,1.58-5.7,1.05-1.7,2.48-3.03,4.3-4,1.82-.97,3.83-1.45,6.02-1.45,1.47,0,2.85.23,4.15.7.03-2.43.67-4.23,1.9-5.38,1.23-1.15,2.65-1.73,4.25-1.73.6,0,1.07.14,1.42.43.35.28.46.66.33,1.12l-.95,3.35c-.07.27-.18.44-.35.53s-.35.06-.55-.08c-.87-.6-1.83-.9-2.9-.9-1.83,0-2.7.95-2.6,2.85,1.87.77,3.34,1.96,4.42,3.57,1.08,1.62,1.62,3.48,1.62,5.58,0,1.97-.53,3.78-1.6,5.42-1.07,1.65-2.51,2.96-4.33,3.93-1.82.97-3.83,1.45-6.02,1.45-1.73,0-3.37-.32-4.9-.95-1.1.47-1.93.98-2.5,1.55s-.85,1.32-.85,2.25c0,.73.25,1.33.75,1.8s1.13.7,1.9.7c.97,0,1.89-.16,2.78-.48.88-.32,1.96-.77,3.22-1.38,1.57-.7,2.87-1.22,3.9-1.57,1.03-.35,2.18-.53,3.45-.53,1.73,0,3.12.55,4.15,1.65ZM613.75,134.12c-.95.98-1.42,2.46-1.42,4.43s.38,3.96,1.12,5.97c.75,2.02,1.77,3.68,3.05,5,1.28,1.32,2.66,1.97,4.12,1.97,1.83,0,3.23-.48,4.2-1.45s1.45-2.42,1.45-4.35c0-1.83-.4-3.77-1.2-5.83-.8-2.05-1.86-3.77-3.17-5.15-1.32-1.38-2.67-2.08-4.08-2.08-1.77,0-3.12.49-4.08,1.47ZM629.83,162.1c0-.77-.26-1.4-.77-1.9-.52-.5-1.21-.75-2.08-.75-1.17,0-2.23.17-3.17.5-.95.33-2.09.83-3.43,1.5-.8.4-1.4.68-1.8.85.73.83,1.67,1.52,2.8,2.05,1.13.53,2.45.8,3.95.8,3,0,4.5-1.02,4.5-3.05Z"/><path class="cls-1" d="M639.41,154.48c-1.85-.98-3.3-2.38-4.35-4.17-1.05-1.8-1.57-3.85-1.57-6.15s.6-4.46,1.8-6.38c1.2-1.92,2.84-3.42,4.92-4.53,2.08-1.1,4.38-1.65,6.88-1.65,2.33,0,4.44.49,6.33,1.47,1.88.98,3.36,2.36,4.42,4.12,1.07,1.77,1.6,3.78,1.6,6.05s-.61,4.48-1.82,6.43c-1.22,1.95-2.88,3.48-5,4.6-2.12,1.12-4.44,1.67-6.98,1.67-2.3,0-4.38-.49-6.22-1.47ZM652.86,153.12c1.08-1.08,1.62-2.67,1.62-4.77s-.53-4.28-1.58-6.75-2.37-4.56-3.95-6.28c-1.58-1.72-3.12-2.58-4.62-2.58-1.87,0-3.33.53-4.4,1.6-1.07,1.07-1.6,2.67-1.6,4.8,0,2,.52,4.24,1.55,6.72,1.03,2.48,2.34,4.58,3.92,6.3s3.11,2.57,4.58,2.57c1.9,0,3.39-.54,4.48-1.62Z"/><path class="cls-1" d="M665,155.1c-.58-.4-.88-.9-.88-1.5,0-.8.42-1.49,1.28-2.08.85-.58,1.92-.88,3.22-.88.97,0,1.75.2,2.35.6.6.4.9.9.9,1.5,0,.77-.43,1.45-1.3,2.05-.87.6-1.95.9-3.25.9-.97,0-1.74-.2-2.33-.6ZM667.1,139.25c-.32-2-.79-4.78-1.43-8.35-.43-2.37-.76-4.22-.97-5.58-.22-1.35-.33-2.51-.33-3.47,0-1.53,1.2-2.3,3.6-2.3s3.5.77,3.5,2.3c0,.97-.1,2.1-.3,3.4-.2,1.3-.53,3.18-1,5.65-.63,3.43-1.11,6.17-1.42,8.22-.32,2.05-.52,4.19-.62,6.43,0,.17-.06.25-.17.25s-.19-.08-.22-.25c-.1-2.2-.31-4.3-.62-6.3Z"/><path class="cls-1" d="M2.64,239.15v-21.83h7.12c1.54,0,2.84.3,3.88.89s1.83,1.4,2.37,2.42.8,2.16.8,3.44-.27,2.43-.8,3.46-1.32,1.84-2.36,2.43c-1.04.6-2.33.89-3.88.89h-5.55v-1.86h5.46c1.13,0,2.07-.21,2.82-.64.75-.42,1.31-1.01,1.68-1.75s.56-1.59.56-2.53-.19-1.78-.56-2.52-.93-1.32-1.68-1.74-1.69-.63-2.83-.63h-4.95v19.97h-2.08Z"/><path class="cls-1" d="M27.57,239.5c-1.53,0-2.86-.36-3.98-1.08-1.12-.72-1.98-1.71-2.59-2.98s-.92-2.73-.92-4.38.3-3.12.9-4.39c.6-1.28,1.44-2.29,2.52-3.02,1.08-.73,2.33-1.1,3.76-1.1.9,0,1.76.16,2.59.49s1.58.83,2.24,1.49,1.19,1.52,1.57,2.54.57,2.23.57,3.62v.86h-12.85v-1.71h11.78l-.91.64c0-1.17-.2-2.22-.6-3.15s-.97-1.66-1.71-2.2-1.64-.81-2.68-.81-1.94.27-2.72.82c-.78.55-1.38,1.27-1.82,2.17s-.65,1.88-.65,2.96v1.03c0,1.28.22,2.4.67,3.36s1.09,1.71,1.91,2.24c.83.53,1.8.8,2.92.8.76,0,1.43-.12,2.01-.37.58-.24,1.07-.57,1.46-.97.39-.41.69-.85.89-1.33l1.89.6c-.25.68-.66,1.32-1.22,1.9-.56.59-1.27,1.06-2.12,1.41-.85.36-1.83.54-2.93.54Z"/><path class="cls-1" d="M38.32,239.15v-16.38h1.93v2.55h.15c.33-.84.9-1.51,1.71-2.01.81-.5,1.72-.75,2.75-.75.17,0,.34,0,.53,0,.19,0,.35.01.48.02v1.99c-.07-.02-.21-.04-.44-.07s-.47-.04-.73-.04c-.84,0-1.59.18-2.26.54s-1.18.85-1.56,1.48-.56,1.34-.56,2.15v10.5h-1.99Z"/><path class="cls-1" d="M54.99,239.5c-1.43,0-2.68-.36-3.76-1.08-1.08-.72-1.93-1.71-2.55-2.99-.62-1.28-.92-2.74-.92-4.39s.31-3.16.92-4.43c.62-1.28,1.46-2.27,2.55-2.99,1.08-.72,2.34-1.08,3.76-1.08s2.67.36,3.76,1.08c1.09.72,1.94,1.71,2.56,2.99.62,1.27.92,2.75.92,4.43s-.31,3.11-.92,4.39c-.61,1.27-1.46,2.27-2.55,2.99-1.09.72-2.35,1.08-3.77,1.08ZM54.99,237.7c1.12,0,2.08-.3,2.86-.91s1.37-1.41,1.78-2.42.61-2.11.61-3.33-.21-2.34-.62-3.35c-.41-1.01-1.01-1.82-1.79-2.43s-1.73-.92-2.84-.92-2.06.31-2.83.92c-.78.61-1.37,1.42-1.78,2.43-.41,1.01-.62,2.13-.62,3.35s.2,2.32.61,3.33,1,1.81,1.77,2.42c.78.61,1.73.91,2.85.91Z"/><path class="cls-1" d="M80.04,239.5c-1.07,0-2.03-.16-2.86-.49-.83-.33-1.51-.81-2.05-1.44-.54-.63-.9-1.4-1.1-2.32l1.9-.45c.23.99.7,1.72,1.4,2.2.7.48,1.59.73,2.67.73,1.24,0,2.23-.28,2.98-.83.75-.56,1.12-1.25,1.12-2.08,0-.66-.22-1.22-.67-1.66s-1.11-.77-2-.98l-2.67-.64c-1.41-.34-2.46-.88-3.16-1.6s-1.05-1.64-1.05-2.75c0-.92.25-1.72.74-2.42.49-.69,1.17-1.24,2.04-1.63.87-.39,1.85-.59,2.95-.59,1.04,0,1.92.16,2.67.48.74.32,1.35.76,1.84,1.34.48.58.85,1.26,1.09,2.05l-1.82.47c-.25-.75-.68-1.37-1.27-1.87-.59-.49-1.42-.74-2.5-.74s-1.98.26-2.68.78-1.05,1.19-1.05,2.01c0,.69.24,1.26.71,1.7s1.21.78,2.22,1.03l2.5.6c1.39.34,2.42.87,3.11,1.6.69.72,1.03,1.63,1.03,2.71,0,.94-.26,1.77-.78,2.49s-1.24,1.29-2.16,1.7c-.92.41-1.99.62-3.19.62Z"/><path class="cls-1" d="M91.32,219.74c-.39,0-.73-.14-1.02-.41-.29-.27-.43-.6-.43-.98s.14-.72.43-.99c.29-.27.63-.4,1.02-.4s.74.13,1.03.4.42.6.42.99-.14.71-.42.98-.62.41-1.03.41ZM90.31,239.15v-16.38h1.99v16.38h-1.99Z"/><path class="cls-1" d="M118.78,245.27h-1.98v-9.18h-.16c-.21.51-.53,1.03-.94,1.55s-.95.97-1.61,1.33c-.66.36-1.49.54-2.49.54-1.33,0-2.5-.35-3.51-1.06-1.01-.71-1.8-1.7-2.36-2.97-.56-1.28-.84-2.76-.84-4.46s.28-3.17.85-4.44,1.35-2.26,2.37-2.96c1.01-.7,2.18-1.05,3.51-1.05,1,0,1.83.18,2.49.53.66.36,1.2.79,1.6,1.31s.72,1.03.93,1.52h.22v-3.15h1.92v22.5ZM111.87,237.7c1.05,0,1.95-.29,2.69-.86.74-.58,1.3-1.37,1.68-2.38.39-1.01.58-2.17.58-3.46s-.19-2.45-.58-3.44-.95-1.78-1.68-2.34c-.74-.57-1.63-.85-2.69-.85s-1.97.29-2.71.88-1.3,1.38-1.68,2.38-.57,2.13-.57,3.38.19,2.38.58,3.4.95,1.82,1.69,2.42,1.64.89,2.7.89Z"/><path class="cls-1" d="M129.42,239.37c-1.1,0-2.08-.23-2.92-.7-.85-.46-1.5-1.14-1.98-2.04-.47-.89-.71-1.99-.71-3.27v-10.59h1.99v10.44c0,1.34.38,2.4,1.13,3.17.75.78,1.76,1.17,3.02,1.17.86,0,1.63-.18,2.31-.55.68-.37,1.22-.89,1.62-1.58.39-.69.59-1.5.59-2.44v-10.21h1.99v16.38h-1.93v-3.82h.29c-.45,1.45-1.16,2.48-2.12,3.11s-2.06.94-3.28.94Z"/><path class="cls-1" d="M142.49,219.74c-.39,0-.73-.14-1.02-.41-.29-.27-.43-.6-.43-.98s.14-.72.43-.99c.29-.27.63-.4,1.02-.4s.74.13,1.03.4.42.6.42.99-.14.71-.42.98-.62.41-1.03.41ZM141.47,239.15v-16.38h1.99v16.38h-1.99Z"/><path class="cls-1" d="M155.11,239.5c-1.53,0-2.86-.36-3.98-1.08-1.12-.72-1.98-1.71-2.59-2.98s-.92-2.73-.92-4.38.3-3.12.9-4.39c.6-1.28,1.44-2.29,2.52-3.02,1.08-.73,2.33-1.1,3.76-1.1.9,0,1.76.16,2.59.49s1.58.83,2.24,1.49,1.19,1.52,1.57,2.54.57,2.23.57,3.62v.86h-12.85v-1.71h11.78l-.91.64c0-1.17-.2-2.22-.6-3.15s-.97-1.66-1.71-2.2-1.64-.81-2.68-.81-1.94.27-2.72.82c-.78.55-1.38,1.27-1.82,2.17s-.65,1.88-.65,2.96v1.03c0,1.28.22,2.4.67,3.36s1.09,1.71,1.91,2.24c.83.53,1.8.8,2.92.8.76,0,1.43-.12,2.01-.37.58-.24,1.07-.57,1.46-.97.39-.41.69-.85.89-1.33l1.89.6c-.25.68-.66,1.32-1.22,1.9-.56.59-1.27,1.06-2.12,1.41-.85.36-1.83.54-2.93.54Z"/><path class="cls-1" d="M165.86,239.15v-16.38h1.93v2.55h.15c.33-.84.9-1.51,1.71-2.01.81-.5,1.72-.75,2.75-.75.17,0,.34,0,.53,0,.19,0,.35.01.48.02v1.99c-.07-.02-.21-.04-.44-.07s-.47-.04-.73-.04c-.84,0-1.59.18-2.26.54s-1.18.85-1.56,1.48-.56,1.34-.56,2.15v10.5h-1.99Z"/><path class="cls-1" d="M182.78,239.5c-1.53,0-2.86-.36-3.98-1.08-1.12-.72-1.98-1.71-2.59-2.98s-.92-2.73-.92-4.38.3-3.12.9-4.39c.6-1.28,1.44-2.29,2.52-3.02,1.08-.73,2.33-1.1,3.76-1.1.9,0,1.76.16,2.59.49s1.58.83,2.24,1.49,1.19,1.52,1.57,2.54.57,2.23.57,3.62v.86h-12.85v-1.71h11.78l-.91.64c0-1.17-.2-2.22-.6-3.15s-.97-1.66-1.71-2.2-1.64-.81-2.68-.81-1.94.27-2.72.82c-.78.55-1.38,1.27-1.82,2.17s-.65,1.88-.65,2.96v1.03c0,1.28.22,2.4.67,3.36s1.09,1.71,1.91,2.24c.83.53,1.8.8,2.92.8.76,0,1.43-.12,2.01-.37.58-.24,1.07-.57,1.46-.97.39-.41.69-.85.89-1.33l1.89.6c-.25.68-.66,1.32-1.22,1.9-.56.59-1.27,1.06-2.12,1.41-.85.36-1.83.54-2.93.54Z"/><path class="cls-1" d="M198.75,239.5c-1.07,0-2.03-.16-2.86-.49-.83-.33-1.51-.81-2.05-1.44-.54-.63-.9-1.4-1.1-2.32l1.9-.45c.23.99.7,1.72,1.4,2.2.7.48,1.59.73,2.67.73,1.24,0,2.23-.28,2.98-.83.75-.56,1.12-1.25,1.12-2.08,0-.66-.22-1.22-.67-1.66s-1.11-.77-2-.98l-2.67-.64c-1.41-.34-2.46-.88-3.16-1.6s-1.05-1.64-1.05-2.75c0-.92.25-1.72.74-2.42.49-.69,1.17-1.24,2.04-1.63.87-.39,1.85-.59,2.95-.59,1.04,0,1.92.16,2.67.48.74.32,1.35.76,1.84,1.34.48.58.85,1.26,1.09,2.05l-1.82.47c-.25-.75-.68-1.37-1.27-1.87-.59-.49-1.42-.74-2.5-.74s-1.98.26-2.68.78-1.05,1.19-1.05,2.01c0,.69.24,1.26.71,1.7s1.21.78,2.22,1.03l2.5.6c1.39.34,2.42.87,3.11,1.6.69.72,1.03,1.63,1.03,2.71,0,.94-.26,1.77-.78,2.49s-1.24,1.29-2.16,1.7c-.92.41-1.99.62-3.19.62Z"/><path class="cls-1" d="M222.99,222.77v1.73h-7.79v-1.73h7.79ZM217.63,218.88h1.99v16.41c0,.81.18,1.41.54,1.79s.91.53,1.66.45c.14,0,.3-.02.5-.05.2-.03.39-.07.56-.11l.41,1.71c-.21.07-.45.12-.71.16s-.52.06-.78.07c-1.31.09-2.33-.22-3.07-.93-.74-.71-1.11-1.7-1.11-2.97v-16.54Z"/><path class="cls-1" d="M232.79,239.5c-1.53,0-2.86-.36-3.98-1.08-1.12-.72-1.98-1.71-2.59-2.98s-.92-2.73-.92-4.38.3-3.12.9-4.39c.6-1.28,1.44-2.29,2.52-3.02,1.08-.73,2.33-1.1,3.76-1.1.9,0,1.76.16,2.59.49s1.58.83,2.24,1.49,1.19,1.52,1.57,2.54.57,2.23.57,3.62v.86h-12.85v-1.71h11.78l-.91.64c0-1.17-.2-2.22-.6-3.15s-.97-1.66-1.71-2.2-1.64-.81-2.68-.81-1.94.27-2.72.82c-.78.55-1.38,1.27-1.82,2.17s-.65,1.88-.65,2.96v1.03c0,1.28.22,2.4.67,3.36s1.09,1.71,1.91,2.24c.83.53,1.8.8,2.92.8.76,0,1.43-.12,2.01-.37.58-.24,1.07-.57,1.46-.97.39-.41.69-.85.89-1.33l1.89.6c-.25.68-.66,1.32-1.22,1.9-.56.59-1.27,1.06-2.12,1.41-.85.36-1.83.54-2.93.54Z"/><path class="cls-1" d="M245.54,228.94v10.21h-1.99v-16.38h1.92v3.82s-.29,0-.29,0c.45-1.43,1.15-2.46,2.12-3.09.96-.63,2.06-.95,3.3-.95,1.11,0,2.09.23,2.92.7.84.46,1.49,1.14,1.96,2.03s.71,1.98.71,3.28v10.59h-1.98v-10.44c0-1.34-.38-2.4-1.13-3.17-.75-.78-1.76-1.17-3.02-1.17-.86,0-1.63.18-2.31.55-.68.37-1.22.89-1.62,1.58-.39.69-.59,1.5-.59,2.44Z"/><path class="cls-1" d="M267.83,239.5c-1.53,0-2.86-.36-3.98-1.08-1.12-.72-1.98-1.71-2.59-2.98s-.92-2.73-.92-4.38.3-3.12.9-4.39c.6-1.28,1.44-2.29,2.52-3.02,1.08-.73,2.33-1.1,3.76-1.1.9,0,1.76.16,2.59.49s1.58.83,2.24,1.49,1.19,1.52,1.57,2.54.57,2.23.57,3.62v.86h-12.85v-1.71h11.78l-.91.64c0-1.17-.2-2.22-.6-3.15s-.97-1.66-1.71-2.2-1.64-.81-2.68-.81-1.94.27-2.72.82c-.78.55-1.38,1.27-1.82,2.17s-.65,1.88-.65,2.96v1.03c0,1.28.22,2.4.67,3.36s1.09,1.71,1.91,2.24c.83.53,1.8.8,2.92.8.76,0,1.43-.12,2.01-.37.58-.24,1.07-.57,1.46-.97.39-.41.69-.85.89-1.33l1.89.6c-.25.68-.66,1.32-1.22,1.9-.56.59-1.27,1.06-2.12,1.41-.85.36-1.83.54-2.93.54Z"/><path class="cls-1" d="M278.58,239.15v-16.38h1.93v2.55h.15c.33-.84.9-1.51,1.71-2.01.81-.5,1.72-.75,2.75-.75.17,0,.34,0,.53,0,.19,0,.35.01.48.02v1.99c-.07-.02-.21-.04-.44-.07s-.47-.04-.73-.04c-.84,0-1.59.18-2.26.54s-1.18.85-1.56,1.48-.56,1.34-.56,2.15v10.5h-1.99Z"/><path class="cls-1" d="M303.41,239.37c-1.1,0-2.08-.23-2.92-.7-.85-.46-1.5-1.14-1.98-2.04-.47-.89-.71-1.99-.71-3.27v-10.59h1.99v10.44c0,1.34.38,2.4,1.13,3.17.75.78,1.76,1.17,3.02,1.17.86,0,1.63-.18,2.31-.55.68-.37,1.22-.89,1.62-1.58.39-.69.59-1.5.59-2.44v-10.21h1.99v16.38h-1.93v-3.82h.29c-.45,1.45-1.16,2.48-2.12,3.11s-2.06.94-3.28.94Z"/><path class="cls-1" d="M317.46,228.94v10.21h-1.99v-16.38h1.92v3.82s-.29,0-.29,0c.45-1.43,1.15-2.46,2.12-3.09.96-.63,2.06-.95,3.3-.95,1.11,0,2.09.23,2.92.7.84.46,1.49,1.14,1.96,2.03s.71,1.98.71,3.28v10.59h-1.98v-10.44c0-1.34-.38-2.4-1.13-3.17-.75-.78-1.76-1.17-3.02-1.17-.86,0-1.63.18-2.31.55-.68.37-1.22.89-1.62,1.58-.39.69-.59,1.5-.59,2.44Z"/><path class="cls-1" d="M347.42,239.5c-1.33,0-2.5-.35-3.51-1.06-1.01-.71-1.8-1.7-2.36-2.97-.56-1.28-.84-2.76-.84-4.46s.28-3.17.85-4.44,1.35-2.26,2.37-2.96c1.01-.7,2.18-1.05,3.51-1.05,1,0,1.83.18,2.49.53.66.36,1.2.79,1.6,1.31s.72,1.03.93,1.52h.16v-8.6h1.98v21.83h-1.92v-3.06h-.22c-.21.51-.53,1.03-.94,1.55s-.95.97-1.61,1.33c-.66.36-1.49.54-2.49.54ZM347.68,237.7c1.05,0,1.95-.29,2.69-.86.74-.58,1.3-1.37,1.68-2.38.39-1.01.58-2.17.58-3.46s-.19-2.45-.58-3.44-.95-1.78-1.68-2.34c-.74-.57-1.63-.85-2.69-.85s-1.97.29-2.71.88-1.3,1.38-1.68,2.38-.57,2.13-.57,3.38.19,2.38.58,3.4.95,1.82,1.69,2.42,1.64.89,2.7.89Z"/><path class="cls-1" d="M366.25,239.5c-1.53,0-2.86-.36-3.98-1.08-1.12-.72-1.98-1.71-2.59-2.98s-.92-2.73-.92-4.38.3-3.12.9-4.39c.6-1.28,1.44-2.29,2.52-3.02,1.08-.73,2.33-1.1,3.76-1.1.9,0,1.76.16,2.59.49s1.58.83,2.24,1.49,1.19,1.52,1.57,2.54.57,2.23.57,3.62v.86h-12.85v-1.71h11.78l-.91.64c0-1.17-.2-2.22-.6-3.15s-.97-1.66-1.71-2.2-1.64-.81-2.68-.81-1.94.27-2.72.82c-.78.55-1.38,1.27-1.82,2.17s-.65,1.88-.65,2.96v1.03c0,1.28.22,2.4.67,3.36s1.09,1.71,1.91,2.24c.83.53,1.8.8,2.92.8.76,0,1.43-.12,2.01-.37.58-.24,1.07-.57,1.46-.97.39-.41.69-.85.89-1.33l1.89.6c-.25.68-.66,1.32-1.22,1.9-.56.59-1.27,1.06-2.12,1.41-.85.36-1.83.54-2.93.54Z"/><path class="cls-1" d="M382.54,222.77v1.73h-7.79v-1.73h7.79ZM377.18,218.88h1.99v16.41c0,.81.18,1.41.54,1.79s.91.53,1.66.45c.14,0,.3-.02.5-.05.2-.03.39-.07.56-.11l.41,1.71c-.21.07-.45.12-.71.16s-.52.06-.78.07c-1.31.09-2.33-.22-3.07-.93-.74-.71-1.11-1.7-1.11-2.97v-16.54Z"/><path class="cls-1" d="M390.45,239.52c-1,0-1.9-.19-2.72-.57s-1.46-.94-1.95-1.68c-.48-.74-.73-1.64-.73-2.7,0-.81.15-1.49.45-2.04.3-.55.74-1,1.3-1.36s1.23-.64,2-.84,1.61-.37,2.54-.48c.91-.12,1.68-.22,2.31-.3.63-.08,1.12-.22,1.46-.4.34-.19.5-.48.5-.89v-.38c0-.73-.15-1.36-.45-1.89-.3-.53-.73-.93-1.3-1.22-.57-.28-1.27-.42-2.09-.42-.77,0-1.45.12-2.04.36s-1.07.55-1.46.94c-.39.39-.68.81-.87,1.27l-1.9-.64c.36-.89.87-1.6,1.52-2.14s1.39-.93,2.21-1.18c.82-.25,1.65-.37,2.49-.37.64,0,1.31.09,1.99.26s1.32.46,1.9.86c.59.41,1.06.96,1.42,1.67.36.71.54,1.6.54,2.69v11.12h-1.95v-2.59h-.15c-.23.5-.58.97-1.04,1.43-.46.45-1.02.82-1.69,1.11-.67.28-1.45.42-2.34.42ZM390.75,237.74c1,0,1.86-.22,2.59-.66s1.3-1.03,1.7-1.77.6-1.56.6-2.45v-2.33c-.15.14-.39.26-.72.37s-.71.2-1.13.28c-.43.08-.85.15-1.28.21s-.81.11-1.13.15c-.91.11-1.69.28-2.34.53-.65.24-1.14.58-1.48,1-.34.42-.5.95-.5,1.6s.16,1.21.48,1.67.76.81,1.32,1.05,1.19.37,1.89.37Z"/><path class="cls-1" d="M404.62,217.32v21.83h-1.99v-21.83h1.99Z"/><path class="cls-1" d="M411.62,217.32v21.83h-1.99v-21.83h1.99Z"/><path class="cls-1" d="M423.27,239.5c-1.53,0-2.86-.36-3.98-1.08-1.12-.72-1.98-1.71-2.59-2.98s-.92-2.73-.92-4.38.3-3.12.9-4.39c.6-1.28,1.44-2.29,2.52-3.02,1.08-.73,2.33-1.1,3.76-1.1.9,0,1.76.16,2.59.49s1.58.83,2.24,1.49,1.19,1.52,1.57,2.54.57,2.23.57,3.62v.86h-12.85v-1.71h11.78l-.91.64c0-1.17-.2-2.22-.6-3.15s-.97-1.66-1.71-2.2-1.64-.81-2.68-.81-1.94.27-2.72.82c-.78.55-1.38,1.27-1.82,2.17s-.65,1.88-.65,2.96v1.03c0,1.28.22,2.4.67,3.36s1.09,1.71,1.91,2.24c.83.53,1.8.8,2.92.8.76,0,1.43-.12,2.01-.37.58-.24,1.07-.57,1.46-.97.39-.41.69-.85.89-1.33l1.89.6c-.25.68-.66,1.32-1.22,1.9-.56.59-1.27,1.06-2.12,1.41-.85.36-1.83.54-2.93.54Z"/><path class="cls-1" d="M449.09,239.5c-1.53,0-2.86-.36-3.98-1.08-1.12-.72-1.98-1.71-2.59-2.98s-.92-2.73-.92-4.38.3-3.12.9-4.39c.6-1.28,1.44-2.29,2.52-3.02,1.08-.73,2.33-1.1,3.76-1.1.9,0,1.76.16,2.59.49s1.58.83,2.24,1.49,1.19,1.52,1.57,2.54.57,2.23.57,3.62v.86h-12.85v-1.71h11.78l-.91.64c0-1.17-.2-2.22-.6-3.15s-.97-1.66-1.71-2.2-1.64-.81-2.68-.81-1.94.27-2.72.82c-.78.55-1.38,1.27-1.82,2.17s-.65,1.88-.65,2.96v1.03c0,1.28.22,2.4.67,3.36s1.09,1.71,1.91,2.24c.83.53,1.8.8,2.92.8.76,0,1.43-.12,2.01-.37.58-.24,1.07-.57,1.46-.97.39-.41.69-.85.89-1.33l1.89.6c-.25.68-.66,1.32-1.22,1.9-.56.59-1.27,1.06-2.12,1.41-.85.36-1.83.54-2.93.54Z"/><path class="cls-1" d="M465.06,239.5c-1.07,0-2.03-.16-2.86-.49-.83-.33-1.51-.81-2.05-1.44-.54-.63-.9-1.4-1.1-2.32l1.9-.45c.23.99.7,1.72,1.4,2.2.7.48,1.59.73,2.67.73,1.24,0,2.23-.28,2.98-.83.75-.56,1.12-1.25,1.12-2.08,0-.66-.22-1.22-.67-1.66s-1.11-.77-2-.98l-2.67-.64c-1.41-.34-2.46-.88-3.16-1.6s-1.05-1.64-1.05-2.75c0-.92.25-1.72.74-2.42.49-.69,1.17-1.24,2.04-1.63.87-.39,1.85-.59,2.95-.59,1.04,0,1.92.16,2.67.48.74.32,1.35.76,1.84,1.34.48.58.85,1.26,1.09,2.05l-1.82.47c-.25-.75-.68-1.37-1.27-1.87-.59-.49-1.42-.74-2.5-.74s-1.98.26-2.68.78-1.05,1.19-1.05,2.01c0,.69.24,1.26.71,1.7s1.21.78,2.22,1.03l2.5.6c1.39.34,2.42.87,3.11,1.6.69.72,1.03,1.63,1.03,2.71,0,.94-.26,1.77-.78,2.49s-1.24,1.29-2.16,1.7c-.92.41-1.99.62-3.19.62Z"/><path class="cls-1" d="M475.33,245.27v-22.5h1.93v3.15h.22c.21-.5.52-1.01.93-1.52s.94-.95,1.6-1.31c.66-.36,1.49-.53,2.5-.53,1.34,0,2.51.35,3.52,1.05s1.79,1.69,2.36,2.96.85,2.75.85,4.44-.28,3.19-.84,4.46c-.56,1.27-1.35,2.27-2.35,2.97-1.01.71-2.18,1.06-3.53,1.06-.98,0-1.8-.18-2.47-.54-.67-.36-1.21-.8-1.61-1.33-.41-.53-.72-1.04-.95-1.55h-.16v9.18h-1.99ZM482.24,237.7c1.07,0,1.98-.3,2.72-.89.74-.6,1.3-1.4,1.68-2.42s.58-2.15.58-3.4-.19-2.38-.57-3.38-.94-1.79-1.68-2.38-1.65-.88-2.72-.88-1.95.28-2.69.85-1.3,1.35-1.68,2.34c-.39,1-.58,2.14-.58,3.44s.2,2.45.59,3.46c.39,1.01.95,1.8,1.69,2.38.74.58,1.63.86,2.67.86Z"/><path class="cls-1" d="M500.02,239.5c-1.53,0-2.86-.36-3.98-1.08-1.12-.72-1.98-1.71-2.59-2.98s-.92-2.73-.92-4.38.3-3.12.9-4.39c.6-1.28,1.44-2.29,2.52-3.02,1.08-.73,2.33-1.1,3.76-1.1.9,0,1.76.16,2.59.49s1.58.83,2.24,1.49,1.19,1.52,1.57,2.54.57,2.23.57,3.62v.86h-12.85v-1.71h11.78l-.91.64c0-1.17-.2-2.22-.6-3.15s-.97-1.66-1.71-2.2-1.64-.81-2.68-.81-1.94.27-2.72.82c-.78.55-1.38,1.27-1.82,2.17s-.65,1.88-.65,2.96v1.03c0,1.28.22,2.4.67,3.36s1.09,1.71,1.91,2.24c.83.53,1.8.8,2.92.8.76,0,1.43-.12,2.01-.37.58-.24,1.07-.57,1.46-.97.39-.41.69-.85.89-1.33l1.89.6c-.25.68-.66,1.32-1.22,1.9-.56.59-1.27,1.06-2.12,1.41-.85.36-1.83.54-2.93.54Z"/><path class="cls-1" d="M517.16,239.46c-1.43,0-2.68-.36-3.76-1.07s-1.93-1.7-2.55-2.97-.92-2.73-.92-4.38.31-3.16.92-4.43c.62-1.27,1.46-2.27,2.55-2.98s2.34-1.07,3.76-1.07c.83,0,1.59.12,2.29.37s1.31.57,1.85.97.98.85,1.34,1.35c.36.49.62.99.78,1.49l-1.89.59c-.09-.3-.25-.62-.48-.97s-.54-.66-.9-.97c-.37-.3-.8-.55-1.3-.74-.5-.19-1.06-.29-1.68-.29-1.11,0-2.06.3-2.83.91-.78.61-1.37,1.41-1.78,2.42s-.62,2.12-.62,3.35.21,2.32.62,3.33,1,1.81,1.78,2.41c.78.6,1.72.9,2.83.9.63,0,1.21-.1,1.71-.29s.95-.45,1.33-.75c.38-.31.68-.64.92-1,.23-.36.4-.69.48-1l1.88.59c-.16.51-.42,1.01-.78,1.51s-.82.96-1.36,1.37c-.55.42-1.17.75-1.88,1-.7.25-1.47.37-2.3.37Z"/><path class="cls-1" d="M528.56,219.74c-.39,0-.73-.14-1.02-.41-.29-.27-.43-.6-.43-.98s.14-.72.43-.99c.29-.27.63-.4,1.02-.4s.74.13,1.03.4.42.6.42.99-.14.71-.42.98-.62.41-1.03.41ZM527.55,239.15v-16.38h1.99v16.38h-1.99Z"/><path class="cls-1" d="M538.86,239.52c-1,0-1.9-.19-2.72-.57s-1.46-.94-1.95-1.68c-.48-.74-.73-1.64-.73-2.7,0-.81.15-1.49.45-2.04.3-.55.74-1,1.3-1.36s1.23-.64,2-.84,1.61-.37,2.54-.48c.91-.12,1.68-.22,2.31-.3.63-.08,1.12-.22,1.46-.4.34-.19.5-.48.5-.89v-.38c0-.73-.15-1.36-.45-1.89-.3-.53-.73-.93-1.3-1.22-.57-.28-1.27-.42-2.09-.42-.77,0-1.45.12-2.04.36s-1.07.55-1.46.94c-.39.39-.68.81-.87,1.27l-1.9-.64c.36-.89.87-1.6,1.52-2.14s1.39-.93,2.21-1.18c.82-.25,1.65-.37,2.49-.37.64,0,1.31.09,1.99.26s1.32.46,1.9.86c.59.41,1.06.96,1.42,1.67.36.71.54,1.6.54,2.69v11.12h-1.95v-2.59h-.15c-.23.5-.58.97-1.04,1.43-.46.45-1.02.82-1.69,1.11-.67.28-1.45.42-2.34.42ZM539.15,237.74c1,0,1.86-.22,2.59-.66s1.3-1.03,1.7-1.77.6-1.56.6-2.45v-2.33c-.15.14-.39.26-.72.37s-.71.2-1.13.28c-.43.08-.85.15-1.28.21s-.81.11-1.13.15c-.91.11-1.69.28-2.34.53-.65.24-1.14.58-1.48,1-.34.42-.5.95-.5,1.6s.16,1.21.48,1.67.76.81,1.32,1.05,1.19.37,1.89.37Z"/><path class="cls-1" d="M553.02,217.32v21.83h-1.99v-21.83h1.99Z"/><path class="cls-1" d="M557.61,244.12l1.35-7.73h2.26l-2.07,7.73h-1.54Z"/><path class="cls-1" d="M7.79,258.77v1.73H0v-1.73h7.79ZM2.43,254.88h1.99v16.41c0,.81.18,1.41.54,1.79s.91.53,1.66.45c.14,0,.3-.02.5-.05.2-.03.39-.07.56-.11l.41,1.71c-.21.07-.45.12-.71.16s-.52.06-.78.07c-1.31.09-2.33-.22-3.07-.93-.74-.71-1.11-1.7-1.11-2.97v-16.54Z"/><path class="cls-1" d="M17.59,275.5c-1.53,0-2.86-.36-3.98-1.08-1.12-.72-1.98-1.71-2.59-2.98s-.92-2.73-.92-4.38.3-3.12.9-4.39c.6-1.28,1.44-2.29,2.52-3.02,1.08-.73,2.33-1.1,3.76-1.1.9,0,1.76.16,2.59.49s1.58.83,2.24,1.49,1.19,1.52,1.57,2.54.57,2.23.57,3.62v.86h-12.85v-1.71h11.78l-.91.64c0-1.17-.2-2.22-.6-3.15s-.97-1.66-1.71-2.2-1.64-.81-2.68-.81-1.94.27-2.72.82c-.78.55-1.38,1.27-1.82,2.17s-.65,1.88-.65,2.96v1.03c0,1.28.22,2.4.67,3.36s1.09,1.71,1.91,2.24c.83.53,1.8.8,2.92.8.76,0,1.43-.12,2.01-.37.58-.24,1.07-.57,1.46-.97.39-.41.69-.85.89-1.33l1.89.6c-.25.68-.66,1.32-1.22,1.9-.56.59-1.27,1.06-2.12,1.41-.85.36-1.83.54-2.93.54Z"/><path class="cls-1" d="M42.64,275.5c-1.33,0-2.5-.35-3.51-1.06-1.01-.71-1.8-1.7-2.36-2.97-.56-1.28-.84-2.76-.84-4.46s.28-3.17.85-4.44,1.35-2.26,2.37-2.96c1.01-.7,2.18-1.05,3.51-1.05,1,0,1.83.18,2.49.53.66.36,1.2.79,1.6,1.31s.72,1.03.93,1.52h.16v-8.6h1.98v21.83h-1.92v-3.06h-.22c-.21.51-.53,1.03-.94,1.55s-.95.97-1.61,1.33c-.66.36-1.49.54-2.49.54ZM42.91,273.7c1.05,0,1.95-.29,2.69-.86.74-.58,1.3-1.37,1.68-2.38.39-1.01.58-2.17.58-3.46s-.19-2.45-.58-3.44-.95-1.78-1.68-2.34c-.74-.57-1.63-.85-2.69-.85s-1.97.29-2.71.88-1.3,1.38-1.68,2.38-.57,2.13-.57,3.38.19,2.38.58,3.4.95,1.82,1.69,2.42,1.64.89,2.7.89Z"/><path class="cls-1" d="M61.48,275.5c-1.53,0-2.86-.36-3.98-1.08-1.12-.72-1.98-1.71-2.59-2.98s-.92-2.73-.92-4.38.3-3.12.9-4.39c.6-1.28,1.44-2.29,2.52-3.02,1.08-.73,2.33-1.1,3.76-1.1.9,0,1.76.16,2.59.49s1.58.83,2.24,1.49,1.19,1.52,1.57,2.54.57,2.23.57,3.62v.86h-12.85v-1.71h11.78l-.91.64c0-1.17-.2-2.22-.6-3.15s-.97-1.66-1.71-2.2-1.64-.81-2.68-.81-1.94.27-2.72.82c-.78.55-1.38,1.27-1.82,2.17s-.65,1.88-.65,2.96v1.03c0,1.28.22,2.4.67,3.36s1.09,1.71,1.91,2.24c.83.53,1.8.8,2.92.8.76,0,1.43-.12,2.01-.37.58-.24,1.07-.57,1.46-.97.39-.41.69-.85.89-1.33l1.89.6c-.25.68-.66,1.32-1.22,1.9-.56.59-1.27,1.06-2.12,1.41-.85.36-1.83.54-2.93.54Z"/><path class="cls-1" d="M72.26,258.77h1.99v17.94c0,.95-.18,1.76-.53,2.45-.36.68-.87,1.21-1.53,1.57s-1.46.54-2.39.54h-.44v-1.85h.41c.77,0,1.38-.24,1.82-.71s.67-1.14.67-2v-17.94ZM73.26,255.74c-.39,0-.73-.14-1.02-.41s-.43-.6-.43-.98.14-.72.43-.99.63-.4,1.02-.4.74.13,1.03.4.42.6.42.99-.14.71-.42.98-.62.41-1.03.41Z"/><path class="cls-1" d="M85.65,275.5c-1.43,0-2.68-.36-3.76-1.08-1.08-.72-1.93-1.71-2.55-2.99-.62-1.28-.92-2.74-.92-4.39s.31-3.16.92-4.43c.62-1.28,1.46-2.27,2.55-2.99,1.08-.72,2.34-1.08,3.76-1.08s2.67.36,3.76,1.08c1.09.72,1.94,1.71,2.56,2.99.62,1.27.92,2.75.92,4.43s-.31,3.11-.92,4.39c-.61,1.27-1.46,2.27-2.55,2.99-1.09.72-2.35,1.08-3.77,1.08ZM85.65,273.7c1.12,0,2.08-.3,2.86-.91s1.37-1.41,1.78-2.42.61-2.11.61-3.33-.21-2.34-.62-3.35c-.41-1.01-1.01-1.82-1.79-2.43s-1.73-.92-2.84-.92-2.06.31-2.83.92c-.78.61-1.37,1.42-1.78,2.43-.41,1.01-.62,2.13-.62,3.35s.2,2.32.61,3.33,1,1.81,1.77,2.42c.78.61,1.73.91,2.85.91Z"/><path class="cls-1" d="M111.09,275.37c-1.1,0-2.08-.23-2.92-.7-.85-.46-1.5-1.14-1.98-2.04-.47-.89-.71-1.99-.71-3.27v-10.59h1.99v10.44c0,1.34.38,2.4,1.13,3.17.75.78,1.76,1.17,3.02,1.17.86,0,1.63-.18,2.31-.55.68-.37,1.22-.89,1.62-1.58.39-.69.59-1.5.59-2.44v-10.21h1.99v16.38h-1.93v-3.82h.29c-.45,1.45-1.16,2.48-2.12,3.11s-2.06.94-3.28.94Z"/><path class="cls-1" d="M125.14,264.94v10.21h-1.99v-16.38h1.92v3.82s-.29,0-.29,0c.45-1.43,1.15-2.46,2.12-3.09.96-.63,2.06-.95,3.3-.95,1.11,0,2.09.23,2.92.7.84.46,1.49,1.14,1.96,2.03s.71,1.98.71,3.28v10.59h-1.98v-10.44c0-1.34-.38-2.4-1.13-3.17-.75-.78-1.76-1.17-3.02-1.17-.86,0-1.63.18-2.31.55-.68.37-1.22.89-1.62,1.58-.39.69-.59,1.5-.59,2.44Z"/><path class="cls-1" d="M145.11,275.52c-1,0-1.9-.19-2.72-.57s-1.46-.94-1.95-1.68c-.48-.74-.73-1.64-.73-2.7,0-.81.15-1.49.45-2.04.3-.55.74-1,1.3-1.36s1.23-.64,2-.84,1.61-.37,2.54-.48c.91-.12,1.68-.22,2.31-.3.63-.08,1.12-.22,1.46-.4.34-.19.5-.48.5-.89v-.38c0-.73-.15-1.36-.45-1.89-.3-.53-.73-.93-1.3-1.22-.57-.28-1.27-.42-2.09-.42-.77,0-1.45.12-2.04.36s-1.07.55-1.46.94c-.39.39-.68.81-.87,1.27l-1.9-.64c.36-.89.87-1.6,1.52-2.14s1.39-.93,2.21-1.18c.82-.25,1.65-.37,2.49-.37.64,0,1.31.09,1.99.26s1.32.46,1.9.86c.59.41,1.06.96,1.42,1.67.36.71.54,1.6.54,2.69v11.12h-1.95v-2.59h-.15c-.23.5-.58.97-1.04,1.43-.46.45-1.02.82-1.69,1.11-.67.28-1.45.42-2.34.42ZM145.4,273.74c1,0,1.86-.22,2.59-.66s1.3-1.03,1.7-1.77.6-1.56.6-2.45v-2.33c-.15.14-.39.26-.72.37s-.71.2-1.13.28c-.43.08-.85.15-1.28.21s-.81.11-1.13.15c-.91.11-1.69.28-2.34.53-.65.24-1.14.58-1.48,1-.34.42-.5.95-.5,1.6s.16,1.21.48,1.67.76.81,1.32,1.05,1.19.37,1.89.37Z"/><path class="cls-1" d="M170.02,275.52c-1,0-1.9-.19-2.72-.57s-1.46-.94-1.95-1.68c-.48-.74-.73-1.64-.73-2.7,0-.81.15-1.49.45-2.04.3-.55.74-1,1.3-1.36s1.23-.64,2-.84,1.61-.37,2.54-.48c.91-.12,1.68-.22,2.31-.3.63-.08,1.12-.22,1.46-.4.34-.19.5-.48.5-.89v-.38c0-.73-.15-1.36-.45-1.89-.3-.53-.73-.93-1.3-1.22-.57-.28-1.27-.42-2.09-.42-.77,0-1.45.12-2.04.36s-1.07.55-1.46.94c-.39.39-.68.81-.87,1.27l-1.9-.64c.36-.89.87-1.6,1.52-2.14s1.39-.93,2.21-1.18c.82-.25,1.65-.37,2.49-.37.64,0,1.31.09,1.99.26s1.32.46,1.9.86c.59.41,1.06.96,1.42,1.67.36.71.54,1.6.54,2.69v11.12h-1.95v-2.59h-.15c-.23.5-.58.97-1.04,1.43-.46.45-1.02.82-1.69,1.11-.67.28-1.45.42-2.34.42ZM170.32,273.74c1,0,1.86-.22,2.59-.66s1.3-1.03,1.7-1.77.6-1.56.6-2.45v-2.33c-.15.14-.39.26-.72.37s-.71.2-1.13.28c-.43.08-.85.15-1.28.21s-.81.11-1.13.15c-.91.11-1.69.28-2.34.53-.65.24-1.14.58-1.48,1-.34.42-.5.95-.5,1.6s.16,1.21.48,1.67.76.81,1.32,1.05,1.19.37,1.89.37Z"/><path class="cls-1" d="M184.19,253.32v21.83h-1.99v-21.83h1.99Z"/><path class="cls-1" d="M195.28,258.77v1.73h-7.79v-1.73h7.79ZM189.92,254.88h1.99v16.41c0,.81.18,1.41.54,1.79s.91.53,1.66.45c.14,0,.3-.02.5-.05.2-.03.39-.07.56-.11l.41,1.71c-.21.07-.45.12-.71.16s-.52.06-.78.07c-1.31.09-2.33-.22-3.07-.93-.74-.71-1.11-1.7-1.11-2.97v-16.54Z"/><path class="cls-1" d="M205.08,275.5c-1.53,0-2.86-.36-3.98-1.08-1.12-.72-1.98-1.71-2.59-2.98s-.92-2.73-.92-4.38.3-3.12.9-4.39c.6-1.28,1.44-2.29,2.52-3.02,1.08-.73,2.33-1.1,3.76-1.1.9,0,1.76.16,2.59.49s1.58.83,2.24,1.49,1.19,1.52,1.57,2.54.57,2.23.57,3.62v.86h-12.85v-1.71h11.78l-.91.64c0-1.17-.2-2.22-.6-3.15s-.97-1.66-1.71-2.2-1.64-.81-2.68-.81-1.94.27-2.72.82c-.78.55-1.38,1.27-1.82,2.17s-.65,1.88-.65,2.96v1.03c0,1.28.22,2.4.67,3.36s1.09,1.71,1.91,2.24c.83.53,1.8.8,2.92.8.76,0,1.43-.12,2.01-.37.58-.24,1.07-.57,1.46-.97.39-.41.69-.85.89-1.33l1.89.6c-.25.68-.66,1.32-1.22,1.9-.56.59-1.27,1.06-2.12,1.41-.85.36-1.83.54-2.93.54Z"/><path class="cls-1" d="M215.83,275.15v-16.38h1.93v2.55h.15c.33-.84.9-1.51,1.71-2.01.81-.5,1.72-.75,2.75-.75.17,0,.34,0,.53,0,.19,0,.35.01.48.02v1.99c-.07-.02-.21-.04-.44-.07s-.47-.04-.73-.04c-.84,0-1.59.18-2.26.54s-1.18.85-1.56,1.48-.56,1.34-.56,2.15v10.5h-1.99Z"/><path class="cls-1" d="M228.91,264.94v10.21h-1.99v-16.38h1.92v3.82s-.29,0-.29,0c.45-1.43,1.15-2.46,2.12-3.09.96-.63,2.06-.95,3.3-.95,1.11,0,2.09.23,2.92.7.84.46,1.49,1.14,1.96,2.03s.71,1.98.71,3.28v10.59h-1.98v-10.44c0-1.34-.38-2.4-1.13-3.17-.75-.78-1.76-1.17-3.02-1.17-.86,0-1.63.18-2.31.55-.68.37-1.22.89-1.62,1.58-.39.69-.59,1.5-.59,2.44Z"/><path class="cls-1" d="M248.88,275.52c-1,0-1.9-.19-2.72-.57s-1.46-.94-1.95-1.68c-.48-.74-.73-1.64-.73-2.7,0-.81.15-1.49.45-2.04.3-.55.74-1,1.3-1.36s1.23-.64,2-.84,1.61-.37,2.54-.48c.91-.12,1.68-.22,2.31-.3.63-.08,1.12-.22,1.46-.4.34-.19.5-.48.5-.89v-.38c0-.73-.15-1.36-.45-1.89-.3-.53-.73-.93-1.3-1.22-.57-.28-1.27-.42-2.09-.42-.77,0-1.45.12-2.04.36s-1.07.55-1.46.94c-.39.39-.68.81-.87,1.27l-1.9-.64c.36-.89.87-1.6,1.52-2.14s1.39-.93,2.21-1.18c.82-.25,1.65-.37,2.49-.37.64,0,1.31.09,1.99.26s1.32.46,1.9.86c.59.41,1.06.96,1.42,1.67.36.71.54,1.6.54,2.69v11.12h-1.95v-2.59h-.15c-.23.5-.58.97-1.04,1.43-.46.45-1.02.82-1.69,1.11-.67.28-1.45.42-2.34.42ZM249.17,273.74c1,0,1.86-.22,2.59-.66s1.3-1.03,1.7-1.77.6-1.56.6-2.45v-2.33c-.15.14-.39.26-.72.37s-.71.2-1.13.28c-.43.08-.85.15-1.28.21s-.81.11-1.13.15c-.91.11-1.69.28-2.34.53-.65.24-1.14.58-1.48,1-.34.42-.5.95-.5,1.6s.16,1.21.48,1.67.76.81,1.32,1.05,1.19.37,1.89.37Z"/><path class="cls-1" d="M266.59,258.77v1.73h-7.79v-1.73h7.79ZM261.23,254.88h1.99v16.41c0,.81.18,1.41.54,1.79s.91.53,1.66.45c.14,0,.3-.02.5-.05.2-.03.39-.07.56-.11l.41,1.71c-.21.07-.45.12-.71.16s-.52.06-.78.07c-1.31.09-2.33-.22-3.07-.93-.74-.71-1.11-1.7-1.11-2.97v-16.54Z"/><path class="cls-1" d="M271.01,255.74c-.39,0-.73-.14-1.02-.41-.29-.27-.43-.6-.43-.98s.14-.72.43-.99c.29-.27.63-.4,1.02-.4s.74.13,1.03.4.42.6.42.99-.14.71-.42.98-.62.41-1.03.41ZM270,275.15v-16.38h1.99v16.38h-1.99Z"/><path class="cls-1" d="M281.76,275.15l-6.25-16.38h2.17l3.78,10.3c.34.92.64,1.84.91,2.75s.54,1.81.83,2.68h-.7c.28-.87.56-1.76.82-2.68s.57-1.84.91-2.75l3.78-10.3h2.15l-6.25,16.38h-2.14Z"/><path class="cls-1" d="M297.73,275.52c-1,0-1.9-.19-2.72-.57s-1.46-.94-1.95-1.68c-.48-.74-.73-1.64-.73-2.7,0-.81.15-1.49.45-2.04.3-.55.74-1,1.3-1.36s1.23-.64,2-.84,1.61-.37,2.54-.48c.91-.12,1.68-.22,2.31-.3.63-.08,1.12-.22,1.46-.4.34-.19.5-.48.5-.89v-.38c0-.73-.15-1.36-.45-1.89-.3-.53-.73-.93-1.3-1.22-.57-.28-1.27-.42-2.09-.42-.77,0-1.45.12-2.04.36s-1.07.55-1.46.94c-.39.39-.68.81-.87,1.27l-1.9-.64c.36-.89.87-1.6,1.52-2.14s1.39-.93,2.21-1.18c.82-.25,1.65-.37,2.49-.37.64,0,1.31.09,1.99.26s1.32.46,1.9.86c.59.41,1.06.96,1.42,1.67.36.71.54,1.6.54,2.69v11.12h-1.95v-2.59h-.15c-.23.5-.58.97-1.04,1.43-.46.45-1.02.82-1.69,1.11-.67.28-1.45.42-2.34.42ZM298.02,273.74c1,0,1.86-.22,2.59-.66s1.3-1.03,1.7-1.77.6-1.56.6-2.45v-2.33c-.15.14-.39.26-.72.37s-.71.2-1.13.28c-.43.08-.85.15-1.28.21s-.81.11-1.13.15c-.91.11-1.69.28-2.34.53-.65.24-1.14.58-1.48,1-.34.42-.5.95-.5,1.6s.16,1.21.48,1.67.76.81,1.32,1.05,1.19.37,1.89.37Z"/><path class="cls-1" d="M318.34,281.27v-22.5h1.93v3.15h.22c.21-.5.52-1.01.93-1.52s.94-.95,1.6-1.31c.66-.36,1.49-.53,2.5-.53,1.34,0,2.51.35,3.52,1.05s1.79,1.69,2.36,2.96.85,2.75.85,4.44-.28,3.19-.84,4.46c-.56,1.27-1.35,2.27-2.35,2.97-1.01.71-2.18,1.06-3.53,1.06-.98,0-1.8-.18-2.47-.54-.67-.36-1.21-.8-1.61-1.33-.41-.53-.72-1.04-.95-1.55h-.16v9.18h-1.99ZM325.25,273.7c1.07,0,1.98-.3,2.72-.89.74-.6,1.3-1.4,1.68-2.42s.58-2.15.58-3.4-.19-2.38-.57-3.38-.94-1.79-1.68-2.38-1.65-.88-2.72-.88-1.95.28-2.69.85-1.3,1.35-1.68,2.34c-.39,1-.58,2.14-.58,3.44s.2,2.45.59,3.46c.39,1.01.95,1.8,1.69,2.38.74.58,1.63.86,2.67.86Z"/><path class="cls-1" d="M341,275.52c-1,0-1.9-.19-2.72-.57s-1.46-.94-1.95-1.68c-.48-.74-.73-1.64-.73-2.7,0-.81.15-1.49.45-2.04.3-.55.74-1,1.3-1.36s1.23-.64,2-.84,1.61-.37,2.54-.48c.91-.12,1.68-.22,2.31-.3.63-.08,1.12-.22,1.46-.4.34-.19.5-.48.5-.89v-.38c0-.73-.15-1.36-.45-1.89-.3-.53-.73-.93-1.3-1.22-.57-.28-1.27-.42-2.09-.42-.77,0-1.45.12-2.04.36s-1.07.55-1.46.94c-.39.39-.68.81-.87,1.27l-1.9-.64c.36-.89.87-1.6,1.52-2.14s1.39-.93,2.21-1.18c.82-.25,1.65-.37,2.49-.37.64,0,1.31.09,1.99.26s1.32.46,1.9.86c.59.41,1.06.96,1.42,1.67.36.71.54,1.6.54,2.69v11.12h-1.95v-2.59h-.15c-.23.5-.58.97-1.04,1.43-.46.45-1.02.82-1.69,1.11-.67.28-1.45.42-2.34.42ZM341.29,273.74c1,0,1.86-.22,2.59-.66s1.3-1.03,1.7-1.77.6-1.56.6-2.45v-2.33c-.15.14-.39.26-.72.37s-.71.2-1.13.28c-.43.08-.85.15-1.28.21s-.81.11-1.13.15c-.91.11-1.69.28-2.34.53-.65.24-1.14.58-1.48,1-.34.42-.5.95-.5,1.6s.16,1.21.48,1.67.76.81,1.32,1.05,1.19.37,1.89.37Z"/><path class="cls-1" d="M353.17,275.15v-16.38h1.93v2.55h.15c.33-.84.9-1.51,1.71-2.01.81-.5,1.72-.75,2.75-.75.17,0,.34,0,.53,0,.19,0,.35.01.48.02v1.99c-.07-.02-.21-.04-.44-.07s-.47-.04-.73-.04c-.84,0-1.59.18-2.26.54s-1.18.85-1.56,1.48-.56,1.34-.56,2.15v10.5h-1.99Z"/><path class="cls-1" d="M368.26,275.52c-1,0-1.9-.19-2.72-.57s-1.46-.94-1.95-1.68c-.48-.74-.73-1.64-.73-2.7,0-.81.15-1.49.45-2.04.3-.55.74-1,1.3-1.36s1.23-.64,2-.84,1.61-.37,2.54-.48c.91-.12,1.68-.22,2.31-.3.63-.08,1.12-.22,1.46-.4.34-.19.5-.48.5-.89v-.38c0-.73-.15-1.36-.45-1.89-.3-.53-.73-.93-1.3-1.22-.57-.28-1.27-.42-2.09-.42-.77,0-1.45.12-2.04.36s-1.07.55-1.46.94c-.39.39-.68.81-.87,1.27l-1.9-.64c.36-.89.87-1.6,1.52-2.14s1.39-.93,2.21-1.18c.82-.25,1.65-.37,2.49-.37.64,0,1.31.09,1.99.26s1.32.46,1.9.86c.59.41,1.06.96,1.42,1.67.36.71.54,1.6.54,2.69v11.12h-1.95v-2.59h-.15c-.23.5-.58.97-1.04,1.43-.46.45-1.02.82-1.69,1.11-.67.28-1.45.42-2.34.42ZM368.55,273.74c1,0,1.86-.22,2.59-.66s1.3-1.03,1.7-1.77.6-1.56.6-2.45v-2.33c-.15.14-.39.26-.72.37s-.71.2-1.13.28c-.43.08-.85.15-1.28.21s-.81.11-1.13.15c-.91.11-1.69.28-2.34.53-.65.24-1.14.58-1.48,1-.34.42-.5.95-.5,1.6s.16,1.21.48,1.67.76.81,1.32,1.05,1.19.37,1.89.37Z"/><path class="cls-1" d="M388.87,275.15v-16.38h1.93v2.55h.15c.33-.84.9-1.51,1.71-2.01.81-.5,1.72-.75,2.75-.75.17,0,.34,0,.53,0,.19,0,.35.01.48.02v1.99c-.07-.02-.21-.04-.44-.07s-.47-.04-.73-.04c-.84,0-1.59.18-2.26.54s-1.18.85-1.56,1.48-.56,1.34-.56,2.15v10.5h-1.99Z"/><path class="cls-1" d="M405.79,275.5c-1.53,0-2.86-.36-3.98-1.08-1.12-.72-1.98-1.71-2.59-2.98s-.92-2.73-.92-4.38.3-3.12.9-4.39c.6-1.28,1.44-2.29,2.52-3.02,1.08-.73,2.33-1.1,3.76-1.1.9,0,1.76.16,2.59.49s1.58.83,2.24,1.49,1.19,1.52,1.57,2.54.57,2.23.57,3.62v.86h-12.85v-1.71h11.78l-.91.64c0-1.17-.2-2.22-.6-3.15s-.97-1.66-1.71-2.2-1.64-.81-2.68-.81-1.94.27-2.72.82c-.78.55-1.38,1.27-1.82,2.17s-.65,1.88-.65,2.96v1.03c0,1.28.22,2.4.67,3.36s1.09,1.71,1.91,2.24c.83.53,1.8.8,2.92.8.76,0,1.43-.12,2.01-.37.58-.24,1.07-.57,1.46-.97.39-.41.69-.85.89-1.33l1.89.6c-.25.68-.66,1.32-1.22,1.9-.56.59-1.27,1.06-2.12,1.41-.85.36-1.83.54-2.93.54Z"/><path class="cls-1" d="M422.81,281.62c-1.11,0-2.09-.14-2.94-.43-.85-.29-1.56-.68-2.13-1.18s-1.03-1.07-1.35-1.71l1.64-1c.23.42.55.83.94,1.22.4.39.91.72,1.53.97.62.25,1.39.37,2.3.37,1.45,0,2.61-.36,3.49-1.08.88-.72,1.32-1.83,1.32-3.33v-3.68h-.19c-.21.51-.53,1.01-.95,1.5s-.95.9-1.62,1.21c-.66.32-1.48.48-2.46.48-1.3,0-2.45-.32-3.46-.97-1.01-.64-1.8-1.57-2.38-2.77s-.86-2.64-.86-4.31.28-3.13.85-4.39c.57-1.25,1.36-2.23,2.37-2.94s2.19-1.05,3.53-1.05c1,0,1.83.18,2.49.53s1.2.79,1.6,1.31.72,1.03.93,1.53h.21v-3.15h1.93v16.77c0,1.39-.29,2.53-.88,3.43s-1.39,1.56-2.42,2-2.19.65-3.5.65ZM422.7,273.19c1.04,0,1.94-.25,2.67-.75s1.3-1.23,1.69-2.17.59-2.07.59-3.38-.19-2.39-.58-3.38c-.39-.98-.94-1.75-1.68-2.31-.73-.56-1.63-.84-2.7-.84s-1.98.29-2.72.87c-.74.58-1.31,1.37-1.69,2.35s-.58,2.09-.58,3.31.2,2.33.59,3.28.96,1.69,1.7,2.22c.74.53,1.65.8,2.71.8Z"/><path class="cls-1" d="M438.93,275.52c-1,0-1.9-.19-2.72-.57s-1.46-.94-1.95-1.68c-.48-.74-.73-1.64-.73-2.7,0-.81.15-1.49.45-2.04.3-.55.74-1,1.3-1.36s1.23-.64,2-.84,1.61-.37,2.54-.48c.91-.12,1.68-.22,2.31-.3.63-.08,1.12-.22,1.46-.4.34-.19.5-.48.5-.89v-.38c0-.73-.15-1.36-.45-1.89-.3-.53-.73-.93-1.3-1.22-.57-.28-1.27-.42-2.09-.42-.77,0-1.45.12-2.04.36s-1.07.55-1.46.94c-.39.39-.68.81-.87,1.27l-1.9-.64c.36-.89.87-1.6,1.52-2.14s1.39-.93,2.21-1.18c.82-.25,1.65-.37,2.49-.37.64,0,1.31.09,1.99.26s1.32.46,1.9.86c.59.41,1.06.96,1.42,1.67.36.71.54,1.6.54,2.69v11.12h-1.95v-2.59h-.15c-.23.5-.58.97-1.04,1.43-.46.45-1.02.82-1.69,1.11-.67.28-1.45.42-2.34.42ZM439.22,273.74c1,0,1.86-.22,2.59-.66s1.3-1.03,1.7-1.77.6-1.56.6-2.45v-2.33c-.15.14-.39.26-.72.37s-.71.2-1.13.28c-.43.08-.85.15-1.28.21s-.81.11-1.13.15c-.91.11-1.69.28-2.34.53-.65.24-1.14.58-1.48,1-.34.42-.5.95-.5,1.6s.16,1.21.48,1.67.76.81,1.32,1.05,1.19.37,1.89.37Z"/><path class="cls-1" d="M453.09,253.32v21.83h-1.99v-21.83h1.99Z"/><path class="cls-1" d="M462.41,275.52c-1,0-1.9-.19-2.72-.57s-1.46-.94-1.95-1.68c-.48-.74-.73-1.64-.73-2.7,0-.81.15-1.49.45-2.04.3-.55.74-1,1.3-1.36s1.23-.64,2-.84,1.61-.37,2.54-.48c.91-.12,1.68-.22,2.31-.3.63-.08,1.12-.22,1.46-.4.34-.19.5-.48.5-.89v-.38c0-.73-.15-1.36-.45-1.89-.3-.53-.73-.93-1.3-1.22-.57-.28-1.27-.42-2.09-.42-.77,0-1.45.12-2.04.36s-1.07.55-1.46.94c-.39.39-.68.81-.87,1.27l-1.9-.64c.36-.89.87-1.6,1.52-2.14s1.39-.93,2.21-1.18c.82-.25,1.65-.37,2.49-.37.64,0,1.31.09,1.99.26s1.32.46,1.9.86c.59.41,1.06.96,1.42,1.67.36.71.54,1.6.54,2.69v11.12h-1.95v-2.59h-.15c-.23.5-.58.97-1.04,1.43-.46.45-1.02.82-1.69,1.11-.67.28-1.45.42-2.34.42ZM462.7,273.74c1,0,1.86-.22,2.59-.66s1.3-1.03,1.7-1.77.6-1.56.6-2.45v-2.33c-.15.14-.39.26-.72.37s-.71.2-1.13.28c-.43.08-.85.15-1.28.21s-.81.11-1.13.15c-.91.11-1.69.28-2.34.53-.65.24-1.14.58-1.48,1-.34.42-.5.95-.5,1.6s.16,1.21.48,1.67.76.81,1.32,1.05,1.19.37,1.89.37Z"/><path class="cls-1" d="M474.58,275.15v-16.38h1.93v2.55h.15c.33-.84.9-1.51,1.71-2.01.81-.5,1.72-.75,2.75-.75.17,0,.34,0,.53,0,.19,0,.35.01.48.02v1.99c-.07-.02-.21-.04-.44-.07s-.47-.04-.73-.04c-.84,0-1.59.18-2.26.54s-1.18.85-1.56,1.48-.56,1.34-.56,2.15v10.5h-1.99Z"/><path class="cls-1" d="M485.67,275.15v-16.38h1.93v3.74s-.21,0-.21,0c.22-.92.59-1.67,1.08-2.26s1.08-1.03,1.75-1.32c.67-.29,1.35-.44,2.06-.44,1.2,0,2.19.37,2.97,1.11.78.74,1.27,1.74,1.49,2.99h-.32c.2-.85.55-1.58,1.05-2.19.51-.61,1.13-1.08,1.86-1.41s1.53-.5,2.4-.5c.98,0,1.85.21,2.62.64.77.42,1.37,1.05,1.82,1.89.44.84.67,1.87.67,3.1v11.03h-1.98v-10.97c0-1.32-.35-2.29-1.05-2.92s-1.57-.94-2.59-.94c-.78,0-1.47.17-2.07.5s-1.06.8-1.4,1.41c-.34.61-.5,1.31-.5,2.12v10.8h-1.98v-11.15c0-1.13-.33-2.03-.99-2.69-.66-.66-1.51-.99-2.56-.99-.73,0-1.41.17-2.02.51s-1.11.83-1.48,1.46-.56,1.41-.56,2.31v10.53h-1.99Z"/><path class="cls-1" d="M518.48,275.5c-1.53,0-2.86-.36-3.98-1.08-1.12-.72-1.98-1.71-2.59-2.98s-.92-2.73-.92-4.38.3-3.12.9-4.39c.6-1.28,1.44-2.29,2.52-3.02,1.08-.73,2.33-1.1,3.76-1.1.9,0,1.76.16,2.59.49s1.58.83,2.24,1.49,1.19,1.52,1.57,2.54.57,2.23.57,3.62v.86h-12.85v-1.71h11.78l-.91.64c0-1.17-.2-2.22-.6-3.15s-.97-1.66-1.71-2.2-1.64-.81-2.68-.81-1.94.27-2.72.82c-.78.55-1.38,1.27-1.82,2.17s-.65,1.88-.65,2.96v1.03c0,1.28.22,2.4.67,3.36s1.09,1.71,1.91,2.24c.83.53,1.8.8,2.92.8.76,0,1.43-.12,2.01-.37.58-.24,1.07-.57,1.46-.97.39-.41.69-.85.89-1.33l1.89.6c-.25.68-.66,1.32-1.22,1.9-.56.59-1.27,1.06-2.12,1.41-.85.36-1.83.54-2.93.54Z"/><path class="cls-1" d="M530.96,275.33c-.44,0-.81-.15-1.12-.46s-.46-.68-.46-1.12.15-.81.46-1.12.68-.46,1.12-.46.81.15,1.12.46.46.68.46,1.12-.15.81-.46,1.12-.68.46-1.12.46Z"/></g></svg>