<?xml version="1.0" encoding="UTF-8"?><svg id="Capa_2" xmlns="http://www.w3.org/2000/svg" viewBox="0 0 690.22 225.49"><defs><style>.cls-1{fill:#1b2f52;}</style></defs><g id="Texto"><path class="cls-1" d="M15.74,38.89c-2.91,0-5.45-.45-7.61-1.34s-3.84-2.22-5.04-3.98c-1.21-1.76-1.84-3.92-1.9-6.49h7.25c.1,1.22.46,2.24,1.1,3.06.63.82,1.48,1.44,2.54,1.84,1.06.41,2.25.61,3.59.61s2.49-.19,3.48-.57c.98-.38,1.75-.92,2.31-1.62.55-.7.83-1.51.83-2.44,0-.83-.25-1.53-.75-2.09-.5-.56-1.21-1.05-2.14-1.45-.93-.41-2.06-.76-3.39-1.07l-4-1c-3.08-.75-5.48-1.92-7.23-3.53-1.74-1.6-2.61-3.72-2.61-6.36,0-2.2.59-4.12,1.77-5.76,1.18-1.64,2.8-2.92,4.86-3.83,2.06-.91,4.41-1.37,7.04-1.37s5.03.46,7.03,1.38c2,.92,3.56,2.2,4.69,3.83s1.7,3.52,1.73,5.65h-7.2c-.13-1.46-.75-2.6-1.87-3.39-1.12-.8-2.6-1.2-4.46-1.2-1.25,0-2.33.18-3.22.54-.89.36-1.57.85-2.04,1.49s-.7,1.36-.7,2.17c0,.9.27,1.64.81,2.23.54.59,1.25,1.07,2.15,1.44.89.37,1.85.67,2.86.92l3.3.81c1.53.34,2.95.81,4.27,1.39s2.47,1.31,3.47,2.16c.99.85,1.76,1.87,2.31,3.04.54,1.17.82,2.52.82,4.05,0,2.2-.55,4.11-1.66,5.75-1.11,1.64-2.71,2.9-4.81,3.8s-4.62,1.34-7.57,1.34Z"/><path class="cls-1" d="M42.59,38.89c-1.73,0-3.28-.31-4.65-.92-1.38-.61-2.46-1.52-3.25-2.73-.79-1.21-1.18-2.72-1.18-4.53,0-1.51.28-2.78.84-3.81s1.33-1.85,2.29-2.47c.97-.62,2.07-1.09,3.3-1.42,1.23-.33,2.52-.55,3.87-.68,1.58-.16,2.85-.31,3.82-.45.97-.14,1.68-.36,2.12-.66.45-.3.67-.74.67-1.33v-.12c0-.78-.16-1.44-.49-1.98-.33-.54-.81-.95-1.45-1.23-.64-.28-1.42-.43-2.33-.43s-1.77.14-2.47.43c-.7.29-1.27.66-1.71,1.14-.44.47-.76,1-.98,1.59l-6.71-1.1c.47-1.59,1.25-2.95,2.34-4.05,1.09-1.11,2.45-1.95,4.06-2.54s3.45-.88,5.48-.88c1.46,0,2.89.18,4.27.52,1.38.35,2.62.89,3.72,1.62s1.97,1.69,2.61,2.87c.64,1.18.96,2.59.96,4.24v18.38h-6.93v-3.78h-.24c-.44.85-1.03,1.59-1.76,2.23-.73.64-1.62,1.15-2.65,1.53s-2.23.56-3.58.56ZM44.67,33.74c1.16,0,2.17-.23,3.04-.68.87-.46,1.55-1.07,2.04-1.86s.73-1.65.73-2.61v-2.95c-.21.16-.54.31-.98.44-.44.13-.93.24-1.46.34s-1.07.19-1.59.27c-.52.08-.99.15-1.39.2-.89.13-1.68.34-2.37.63s-1.21.68-1.59,1.16c-.37.48-.56,1.09-.56,1.84,0,.7.18,1.29.54,1.77.36.48.85.84,1.46,1.09.62.24,1.33.37,2.12.37ZM43.59,7.59l3.39-7.59h6.79l-5.05,7.59h-5.13Z"/><path class="cls-1" d="M79.29,38.82c-1.48,0-2.73-.25-3.76-.76s-1.86-1.13-2.5-1.87c-.64-.74-1.13-1.48-1.48-2.21h-.34v4.37h-7.2V1.98h7.32v13.67h.22c.34-.72.83-1.46,1.45-2.22.63-.76,1.45-1.41,2.48-1.93,1.03-.52,2.31-.78,3.86-.78,2.02,0,3.87.52,5.54,1.56,1.68,1.04,3.01,2.6,4.02,4.69,1,2.08,1.5,4.68,1.5,7.79s-.49,5.59-1.46,7.68c-.98,2.09-2.3,3.68-3.98,4.76-1.68,1.08-3.56,1.62-5.66,1.62ZM77.04,32.93c1.27,0,2.34-.35,3.21-1.05.87-.7,1.53-1.67,1.98-2.91.45-1.24.67-2.65.67-4.25s-.22-3-.67-4.22c-.45-1.22-1.1-2.18-1.97-2.88-.86-.7-1.94-1.05-3.22-1.05s-2.32.34-3.2,1.01c-.88.68-1.55,1.62-2,2.83-.46,1.21-.68,2.65-.68,4.31s.23,3.08.7,4.31c.46,1.23,1.13,2.19,2.01,2.87s1.94,1.03,3.17,1.03Z"/><path class="cls-1" d="M103.63,38.89c-1.73,0-3.28-.31-4.65-.92-1.38-.61-2.46-1.52-3.25-2.73-.79-1.21-1.18-2.72-1.18-4.53,0-1.51.28-2.78.84-3.81s1.33-1.85,2.29-2.47c.97-.62,2.07-1.09,3.3-1.42,1.23-.33,2.52-.55,3.87-.68,1.58-.16,2.85-.31,3.82-.45.97-.14,1.68-.36,2.12-.66.45-.3.67-.74.67-1.33v-.12c0-.78-.16-1.44-.49-1.98-.33-.54-.81-.95-1.45-1.23-.64-.28-1.42-.43-2.33-.43s-1.77.14-2.47.43c-.7.29-1.27.66-1.71,1.14-.44.47-.76,1-.98,1.59l-6.71-1.1c.47-1.59,1.25-2.95,2.34-4.05,1.09-1.11,2.45-1.95,4.06-2.54s3.45-.88,5.48-.88c1.46,0,2.89.18,4.27.52,1.38.35,2.62.89,3.72,1.62s1.97,1.69,2.61,2.87c.64,1.18.96,2.59.96,4.24v18.38h-6.93v-3.78h-.24c-.44.85-1.03,1.59-1.76,2.23-.73.64-1.62,1.15-2.65,1.53s-2.23.56-3.58.56ZM105.7,33.74c1.16,0,2.17-.23,3.04-.68.87-.46,1.55-1.07,2.04-1.86s.73-1.65.73-2.61v-2.95c-.21.16-.54.31-.98.44-.44.13-.93.24-1.46.34s-1.07.19-1.59.27c-.52.08-.99.15-1.39.2-.89.13-1.68.34-2.37.63s-1.21.68-1.59,1.16c-.37.48-.56,1.09-.56,1.84,0,.7.18,1.29.54,1.77.36.48.85.84,1.46,1.09.62.24,1.33.37,2.12.37Z"/><path class="cls-1" d="M135,38.82c-2.08,0-3.97-.54-5.65-1.62-1.68-1.08-3.01-2.67-3.99-4.76-.98-2.09-1.46-4.65-1.46-7.68s.5-5.7,1.51-7.79c1.01-2.08,2.35-3.65,4.03-4.69,1.68-1.04,3.52-1.56,5.54-1.56,1.54,0,2.83.26,3.86.78,1.03.52,1.86,1.16,2.49,1.93.63.77,1.11,1.51,1.42,2.22h.24V1.98h7.32v36.38h-7.2v-4.37h-.37c-.33.73-.81,1.47-1.45,2.21-.64.74-1.48,1.36-2.5,1.87s-2.29.76-3.79.76ZM137.27,32.93c1.24,0,2.29-.34,3.17-1.03s1.54-1.64,2-2.87c.46-1.23.68-2.67.68-4.31s-.22-3.1-.67-4.31c-.45-1.21-1.11-2.16-1.99-2.83-.88-.68-1.95-1.01-3.2-1.01s-2.37.35-3.24,1.05c-.87.7-1.53,1.66-1.97,2.88s-.66,2.63-.66,4.22.22,3.01.67,4.25c.45,1.24,1.11,2.21,1.98,2.91.87.7,1.94,1.05,3.21,1.05Z"/><path class="cls-1" d="M168.77,38.89c-2.73,0-5.1-.59-7.11-1.77-2-1.18-3.54-2.82-4.63-4.93-1.08-2.11-1.62-4.56-1.62-7.36s.54-5.3,1.62-7.41c1.08-2.11,2.62-3.75,4.63-4.93,2-1.18,4.37-1.77,7.11-1.77s5.12.59,7.12,1.77c1.99,1.18,3.53,2.82,4.61,4.93,1.08,2.11,1.62,4.58,1.62,7.41s-.54,5.25-1.62,7.36c-1.08,2.11-2.62,3.75-4.61,4.93-1.99,1.18-4.37,1.77-7.12,1.77ZM168.77,33.13c1.3,0,2.39-.36,3.27-1.09.88-.72,1.54-1.72,1.98-2.98.44-1.26.66-2.68.66-4.26s-.22-3.04-.66-4.3c-.44-1.25-1.1-2.24-1.98-2.95-.88-.72-1.97-1.07-3.27-1.07s-2.39.36-3.26,1.07c-.87.72-1.53,1.7-1.96,2.95-.44,1.25-.66,2.69-.66,4.3s.22,3,.66,4.26c.44,1.26,1.09,2.25,1.96,2.98.87.72,1.96,1.09,3.26,1.09Z"/><path class="cls-1" d="M214.22,1.98v36.38h-7.45V8.54h-.24l-8.32,5.91v-6.84l8.03-5.64h7.98Z"/><path class="cls-1" d="M232.83,38.84c-2.49,0-4.71-.46-6.65-1.38-1.95-.92-3.48-2.19-4.61-3.8s-1.73-3.45-1.79-5.52h7.28c.05.94.34,1.78.87,2.5.53.72,1.22,1.29,2.09,1.68.86.4,1.81.6,2.83.6,1.22,0,2.3-.27,3.23-.82.94-.54,1.67-1.31,2.21-2.28s.81-2.11.81-3.39-.27-2.43-.82-3.43-1.29-1.78-2.25-2.33c-.95-.55-2.05-.83-3.31-.83-1.09,0-2.14.22-3.14.65-1,.43-1.78,1.01-2.33,1.75l-6.69-1.17,1.73-19.09h22.02v6.15h-15.85l-.93,9.2h.2c.65-.88,1.62-1.6,2.89-2.17,1.28-.57,2.7-.85,4.26-.85,1.64,0,3.16.29,4.55.88s2.6,1.41,3.62,2.48c1.03,1.07,1.82,2.33,2.39,3.8.57,1.46.86,3.07.86,4.81,0,2.44-.57,4.61-1.7,6.49-1.13,1.89-2.71,3.37-4.74,4.46-2.03,1.08-4.38,1.62-7.04,1.62Z"/><path class="cls-1" d="M273.53,38.82c-2.08,0-3.97-.54-5.65-1.62-1.68-1.08-3.01-2.67-3.99-4.76-.98-2.09-1.46-4.65-1.46-7.68s.5-5.7,1.51-7.79c1.01-2.08,2.35-3.65,4.03-4.69,1.68-1.04,3.52-1.56,5.54-1.56,1.54,0,2.83.26,3.86.78,1.03.52,1.86,1.16,2.49,1.93.63.77,1.11,1.51,1.42,2.22h.24V1.98h7.32v36.38h-7.2v-4.37h-.37c-.33.73-.81,1.47-1.45,2.21-.64.74-1.48,1.36-2.5,1.87s-2.29.76-3.79.76ZM275.8,32.93c1.24,0,2.29-.34,3.17-1.03s1.54-1.64,2-2.87c.46-1.23.68-2.67.68-4.31s-.22-3.1-.67-4.31c-.45-1.21-1.11-2.16-1.99-2.83-.88-.68-1.95-1.01-3.2-1.01s-2.37.35-3.24,1.05c-.87.7-1.53,1.66-1.97,2.88s-.66,2.63-.66,4.22.22,3.01.67,4.25c.45,1.24,1.11,2.21,1.98,2.91.87.7,1.94,1.05,3.21,1.05Z"/><path class="cls-1" d="M307.41,38.89c-2.78,0-5.18-.57-7.2-1.71-2.02-1.14-3.57-2.76-4.65-4.86-1.08-2.1-1.62-4.59-1.62-7.47s.54-5.28,1.61-7.4c1.07-2.12,2.6-3.77,4.57-4.96,1.97-1.19,4.28-1.78,6.93-1.78,1.79,0,3.46.29,5,.85,1.55.57,2.91,1.43,4.08,2.58s2.09,2.58,2.75,4.31c.66,1.73.99,3.76.99,6.1v2.05h-22.92v-4.59h19.34l-3.42,1.22c0-1.42-.22-2.65-.65-3.7-.43-1.05-1.07-1.86-1.93-2.44-.85-.58-1.91-.87-3.16-.87s-2.35.29-3.23.88-1.56,1.38-2.01,2.38c-.46,1-.68,2.14-.68,3.43v3.25c0,1.58.26,2.91.79,3.98s1.27,1.88,2.22,2.42,2.06.81,3.33.81c.86,0,1.64-.12,2.34-.37.7-.24,1.3-.61,1.79-1.09.5-.48.87-1.07,1.14-1.77l6.64,1.25c-.44,1.5-1.21,2.81-2.29,3.94-1.09,1.13-2.45,2.01-4.09,2.62s-3.52.93-5.65.93Z"/><path class="cls-1" d="M334.78,38.35l12.43-36.38h9.77l12.74,36.38h-8.28l-5.84-17.55c-.7-2.26-1.41-4.74-2.14-7.43-.72-2.69-1.49-5.64-2.28-8.83h1.63c-.78,3.21-1.51,6.16-2.18,8.87-.68,2.71-1.35,5.17-2.01,7.39l-5.62,17.55h-8.23ZM342.54,29.91v-5.83h19.41v5.83h-19.41Z"/><path class="cls-1" d="M385.03,49.15c-2.28,0-4.27-.29-5.96-.87-1.69-.58-3.07-1.37-4.13-2.38-1.06-1.01-1.79-2.16-2.2-3.44l6.3-1.76c.23.5.58,1,1.06,1.48.48.48,1.12.87,1.92,1.18.8.31,1.78.46,2.96.46,1.87,0,3.34-.43,4.41-1.28s1.6-2.19,1.6-3.99v-5.03h-.56c-.33.73-.8,1.44-1.42,2.12-.62.68-1.43,1.24-2.43,1.67-1,.43-2.24.65-3.72.65-2.05,0-3.91-.48-5.59-1.44-1.68-.96-3.02-2.42-4.02-4.39-1-1.97-1.5-4.46-1.5-7.47s.51-5.65,1.53-7.71c1.02-2.07,2.37-3.62,4.05-4.66,1.68-1.04,3.54-1.56,5.55-1.56,1.53,0,2.81.26,3.86.77,1.04.51,1.88,1.16,2.53,1.93.64.77,1.13,1.52,1.45,2.23h.32v-4.59h7.2v27.08c0,2.46-.57,4.5-1.7,6.13-1.13,1.63-2.69,2.85-4.67,3.66-1.99.81-4.27,1.22-6.84,1.22ZM385.15,32.4c1.25,0,2.32-.31,3.19-.93.87-.62,1.53-1.51,1.99-2.67.46-1.16.68-2.56.68-4.19s-.23-3.02-.68-4.22c-.46-1.2-1.12-2.14-1.99-2.81-.87-.67-1.93-1-3.19-1s-2.36.35-3.23,1.04c-.87.69-1.53,1.64-1.98,2.84-.45,1.2-.67,2.59-.67,4.15s.22,2.97.67,4.14c.45,1.16,1.11,2.06,1.99,2.7s1.95.95,3.22.95Z"/><path class="cls-1" d="M416.69,38.89c-2.73,0-5.1-.59-7.1-1.77-2-1.18-3.54-2.82-4.63-4.93-1.08-2.11-1.62-4.56-1.62-7.36s.54-5.3,1.62-7.41c1.08-2.11,2.62-3.75,4.63-4.93,2-1.18,4.37-1.77,7.1-1.77s5.12.59,7.12,1.77c1.99,1.18,3.53,2.82,4.61,4.93,1.08,2.11,1.62,4.58,1.62,7.41s-.54,5.25-1.62,7.36c-1.08,2.11-2.62,3.75-4.61,4.93-1.99,1.18-4.37,1.77-7.12,1.77ZM416.69,33.13c1.3,0,2.39-.36,3.27-1.09.88-.72,1.54-1.72,1.98-2.98.44-1.26.66-2.68.66-4.26s-.22-3.04-.66-4.3c-.44-1.25-1.1-2.24-1.98-2.95-.88-.72-1.97-1.07-3.27-1.07s-2.39.36-3.26,1.07c-.87.72-1.53,1.7-1.97,2.95-.44,1.25-.66,2.69-.66,4.3s.22,3,.66,4.26c.44,1.26,1.09,2.25,1.97,2.98.87.72,1.96,1.09,3.26,1.09Z"/><path class="cls-1" d="M445.99,38.89c-2.2,0-4.14-.31-5.83-.94-1.69-.63-3.08-1.54-4.15-2.73s-1.77-2.64-2.08-4.33l6.81-1.17c.36,1.27.98,2.22,1.88,2.86.9.63,2.09.95,3.59.95,1.4,0,2.5-.26,3.31-.79.81-.53,1.21-1.2,1.21-2.01,0-.72-.29-1.3-.87-1.76-.58-.46-1.46-.81-2.65-1.05l-4.71-.98c-2.64-.54-4.61-1.45-5.91-2.75-1.3-1.29-1.95-2.96-1.95-4.99,0-1.76.48-3.27,1.44-4.53.96-1.26,2.29-2.23,4-2.92s3.72-1.03,6.03-1.03c2.15,0,4.01.3,5.59.89,1.58.59,2.86,1.44,3.83,2.53.98,1.09,1.63,2.38,1.95,3.86l-6.49,1.15c-.28-.93-.81-1.69-1.6-2.28-.79-.59-1.85-.89-3.19-.89-1.21,0-2.21.25-3.03.76-.81.5-1.22,1.18-1.22,2.03,0,.68.26,1.26.79,1.73.53.47,1.44.84,2.72,1.1l4.91.98c2.64.54,4.6,1.41,5.88,2.62,1.29,1.21,1.93,2.8,1.93,4.75,0,1.79-.52,3.36-1.56,4.7-1.04,1.34-2.48,2.39-4.31,3.14s-3.94,1.12-6.34,1.12Z"/><path class="cls-1" d="M476.7,11.06v5.59h-16.19v-5.59h16.19ZM464.27,4.57h7.32v25.81c0,.86.19,1.5.57,1.92.38.42,1.02.62,1.92.62.28,0,.67-.04,1.17-.11.5-.07.89-.14,1.15-.21l1.05,5.49c-.81.24-1.62.42-2.43.51s-1.57.15-2.31.15c-2.73,0-4.83-.67-6.28-2-1.45-1.33-2.17-3.25-2.17-5.74V4.57Z"/><path class="cls-1" d="M493.18,38.89c-2.73,0-5.1-.59-7.11-1.77-2-1.18-3.54-2.82-4.63-4.93-1.08-2.11-1.62-4.56-1.62-7.36s.54-5.3,1.62-7.41c1.08-2.11,2.62-3.75,4.63-4.93,2-1.18,4.37-1.77,7.11-1.77s5.12.59,7.12,1.77c1.99,1.18,3.53,2.82,4.61,4.93,1.08,2.11,1.62,4.58,1.62,7.41s-.54,5.25-1.62,7.36c-1.08,2.11-2.62,3.75-4.61,4.93-1.99,1.18-4.37,1.77-7.12,1.77ZM493.18,33.13c1.3,0,2.39-.36,3.27-1.09.88-.72,1.54-1.72,1.98-2.98.44-1.26.66-2.68.66-4.26s-.22-3.04-.66-4.3c-.44-1.25-1.1-2.24-1.98-2.95-.88-.72-1.97-1.07-3.27-1.07s-2.39.36-3.26,1.07c-.87.72-1.53,1.7-1.96,2.95-.44,1.25-.66,2.69-.66,4.3s.22,3,.66,4.26c.44,1.26,1.09,2.25,1.96,2.98.87.72,1.96,1.09,3.26,1.09Z"/><path class="cls-1" d="M2.87,111.35v-3.34l12.09-13.11c1.35-1.46,2.47-2.75,3.37-3.86.89-1.11,1.57-2.16,2.03-3.16.46-1,.68-2.06.68-3.19,0-1.27-.3-2.37-.9-3.3-.6-.93-1.42-1.64-2.44-2.14-1.03-.5-2.19-.74-3.49-.74-1.38,0-2.58.28-3.6.84-1.02.56-1.8,1.35-2.36,2.37-.55,1.02-.83,2.21-.83,3.58H2.97c0-2.15.5-4.04,1.49-5.66.99-1.63,2.34-2.89,4.05-3.8s3.64-1.35,5.81-1.35,4.08.45,5.75,1.35c1.67.9,2.98,2.12,3.93,3.65.95,1.53,1.43,3.25,1.43,5.15,0,1.32-.24,2.6-.71,3.85-.47,1.25-1.3,2.66-2.49,4.24-1.19,1.58-2.86,3.51-5.01,5.79l-7.96,8.47v.29h16.77v4.08H2.87Z"/><path class="cls-1" d="M45.55,74.98v36.38h-4.56v-32.08h-.24l-8.79,6.52v-4.98l7.91-5.83h5.69Z"/><path class="cls-1" d="M57.14,86.6c-.91,0-1.69-.32-2.33-.96-.64-.64-.96-1.42-.96-2.33s.32-1.69.96-2.33c.64-.64,1.42-.96,2.33-.96s1.69.32,2.33.96c.64.64.96,1.42.96,2.33s-.32,1.69-.96,2.33c-.64.64-1.42.96-2.33.96ZM57.14,106.35c-.91,0-1.69-.32-2.33-.96-.64-.64-.96-1.42-.96-2.33s.32-1.69.96-2.33c.64-.64,1.42-.96,2.33-.96s1.69.32,2.33.96c.64.64.96,1.42.96,2.33s-.32,1.69-.96,2.33c-.64.64-1.42.96-2.33.96Z"/><path class="cls-1" d="M79.85,111.84c-2.38,0-4.48-.41-6.32-1.22-1.84-.81-3.3-1.94-4.38-3.39-1.08-1.45-1.67-3.13-1.75-5.05h4.69c.1,1.16.49,2.15,1.18,2.99.69.84,1.6,1.48,2.73,1.93,1.13.45,2.39.67,3.77.67,1.53,0,2.88-.26,4.07-.79,1.18-.53,2.11-1.27,2.8-2.23.68-.96,1.03-2.07,1.03-3.32,0-1.32-.33-2.48-.99-3.48s-1.62-1.79-2.87-2.36c-1.25-.57-2.78-.85-4.59-.85h-2.96v-4.03h2.96c1.42,0,2.66-.26,3.75-.77,1.08-.51,1.92-1.23,2.53-2.16.6-.93.9-2.02.9-3.27s-.27-2.25-.79-3.15c-.53-.9-1.28-1.59-2.26-2.09-.98-.5-2.12-.74-3.44-.74-1.24,0-2.4.22-3.48.67-1.08.45-1.97,1.09-2.66,1.92s-1.06,1.84-1.11,3.03h-4.47c.06-1.9.63-3.58,1.71-5.03,1.07-1.45,2.49-2.58,4.26-3.39,1.77-.81,3.71-1.22,5.85-1.22,2.26,0,4.21.46,5.85,1.37,1.64.91,2.89,2.11,3.77,3.59.88,1.48,1.32,3.08,1.32,4.81,0,2.05-.54,3.79-1.62,5.22-1.08,1.43-2.55,2.43-4.41,2.98v.29c1.55.24,2.87.77,3.97,1.56,1.1.8,1.94,1.81,2.51,3.03s.87,2.6.87,4.13c0,1.99-.54,3.76-1.61,5.32s-2.55,2.8-4.42,3.7c-1.87.9-4,1.35-6.37,1.35Z"/><path class="cls-1" d="M111,111.84c-2.7,0-5.01-.73-6.91-2.2s-3.36-3.58-4.37-6.36c-1.01-2.77-1.51-6.14-1.51-10.1s.51-7.3,1.53-10.08,2.48-4.92,4.38-6.4c1.9-1.48,4.2-2.22,6.88-2.22s4.98.74,6.9,2.22c1.91,1.48,3.37,3.61,4.38,6.4,1.01,2.78,1.51,6.14,1.51,10.08s-.5,7.3-1.5,10.08-2.45,4.91-4.36,6.37-4.22,2.2-6.93,2.2ZM111,107.79c1.77,0,3.28-.58,4.52-1.73,1.24-1.16,2.18-2.82,2.83-4.99.65-2.17.98-4.8.98-7.87s-.33-5.73-.98-7.92c-.65-2.19-1.59-3.86-2.83-5.02-1.24-1.16-2.74-1.73-4.52-1.73s-3.28.58-4.52,1.75c-1.24,1.16-2.18,2.84-2.83,5.02-.65,2.18-.98,4.82-.98,7.91s.33,5.7.98,7.87c.65,2.17,1.6,3.84,2.83,4.99,1.24,1.16,2.74,1.73,4.52,1.73Z"/><path class="cls-1" d="M149.09,95v16.36h-4.39v-36.38h4.39v15.7h-.76c.83-2.52,2.01-4.31,3.55-5.37,1.54-1.06,3.34-1.59,5.41-1.59,1.84,0,3.45.38,4.85,1.14s2.47,1.9,3.25,3.42c.77,1.52,1.16,3.44,1.16,5.75v17.33h-4.42v-16.97c0-2.1-.55-3.74-1.65-4.93-1.1-1.19-2.6-1.78-4.5-1.78-1.3,0-2.47.29-3.52.85-1.04.57-1.86,1.4-2.47,2.49-.6,1.09-.9,2.42-.9,3.98Z"/><path class="cls-1" d="M183.54,111.94c-1.87,0-3.54-.27-4.99-.82s-2.66-1.35-3.6-2.43c-.94-1.07-1.58-2.39-1.9-3.96l4.18-1c.39,1.5,1.13,2.6,2.21,3.3,1.08.7,2.44,1.05,4.06,1.05,1.9,0,3.42-.41,4.55-1.22,1.13-.81,1.7-1.78,1.7-2.91,0-.94-.33-1.73-.99-2.36-.66-.63-1.66-1.09-3.02-1.4l-4.54-1.07c-2.47-.59-4.31-1.49-5.52-2.72-1.2-1.23-1.81-2.8-1.81-4.72,0-1.56.44-2.94,1.32-4.14s2.08-2.13,3.6-2.81c1.52-.68,3.25-1.01,5.19-1.01s3.46.28,4.77.84,2.38,1.33,3.2,2.32c.82.98,1.44,2.12,1.84,3.41l-3.98,1.03c-.38-.98-1-1.86-1.87-2.66-.87-.8-2.18-1.2-3.94-1.2-1.63,0-2.98.37-4.07,1.12-1.08.75-1.62,1.69-1.62,2.83,0,1.01.37,1.82,1.1,2.43s1.9,1.1,3.49,1.48l4.13.98c2.47.59,4.3,1.49,5.49,2.72,1.19,1.23,1.78,2.78,1.78,4.65,0,1.6-.45,3.02-1.36,4.26s-2.17,2.23-3.78,2.94c-1.62.72-3.5,1.07-5.63,1.07Z"/><path class="cls-1" d="M10.93,184.78c-2.33,0-4.33-.36-6.01-1.07-1.67-.72-2.91-1.78-3.71-3.18s-1.06-3.14-.77-5.2h5.8c-.09.98.07,1.79.47,2.45.4.66,1,1.15,1.79,1.47.79.33,1.72.49,2.8.49s2.01-.15,2.85-.46c.85-.31,1.54-.74,2.07-1.3.53-.56.86-1.21.98-1.95.12-.66.02-1.22-.3-1.67-.32-.45-.82-.83-1.51-1.15-.69-.32-1.55-.61-2.58-.87l-3.09-.8c-2.29-.57-4.05-1.49-5.26-2.75-1.22-1.26-1.65-2.98-1.3-5.14.27-1.76.96-3.29,2.06-4.61,1.1-1.31,2.5-2.34,4.21-3.08,1.71-.74,3.61-1.1,5.72-1.1s3.99.37,5.54,1.1c1.54.74,2.69,1.75,3.45,3.06.76,1.3,1,2.81.74,4.53h-5.74c.08-1.16-.27-2.06-1.05-2.71s-1.92-.97-3.42-.97c-1.02,0-1.9.14-2.67.43-.76.29-1.37.68-1.82,1.19s-.73,1.09-.85,1.74c-.12.7,0,1.29.35,1.77.35.48.86.86,1.52,1.16.66.3,1.39.55,2.19.74l2.5.64c1.17.29,2.25.66,3.22,1.12.98.46,1.81,1.04,2.49,1.72s1.17,1.49,1.46,2.42c.29.93.33,2.02.14,3.25-.29,1.76-.95,3.29-1.99,4.6-1.04,1.31-2.42,2.32-4.15,3.04-1.72.72-3.77,1.07-6.12,1.07Z"/><path class="cls-1" d="M33.9,184.73c-1.67,0-3.1-.44-4.31-1.31-1.2-.87-2.06-2.15-2.57-3.82-.51-1.67-.56-3.72-.16-6.14.42-2.49,1.17-4.56,2.25-6.22,1.08-1.66,2.36-2.91,3.85-3.74,1.48-.83,3.03-1.25,4.65-1.25,1.24,0,2.23.21,2.98.62.75.41,1.33.92,1.73,1.53.4.61.69,1.21.86,1.8h.2l.61-3.67h5.84l-3.61,21.84h-5.76l.57-3.5h-.27c-.38.6-.87,1.19-1.48,1.79-.61.59-1.36,1.09-2.25,1.48-.88.4-1.92.6-3.11.6ZM36.49,180.02c1,0,1.9-.28,2.69-.83.79-.55,1.45-1.32,1.98-2.3.53-.98.91-2.13,1.11-3.43.22-1.33.23-2.48.03-3.46-.2-.98-.61-1.73-1.22-2.27-.61-.53-1.42-.8-2.42-.8s-1.94.28-2.73.84c-.79.56-1.45,1.33-1.96,2.3-.51.98-.88,2.1-1.08,3.38-.21,1.28-.21,2.41-.02,3.4.2.99.6,1.76,1.2,2.32.61.56,1.42.84,2.43.84Z"/><path class="cls-1" d="M61.88,155.25l-4.82,29.1h-5.86l4.82-29.1h5.86Z"/><path class="cls-1" d="M72.08,184.78c-1.98,0-3.66-.38-5.04-1.13-1.38-.75-2.43-1.82-3.16-3.18-.73-1.37-1.09-2.97-1.09-4.8s.28-3.44.84-5.04c.56-1.6,1.37-3.03,2.43-4.3,1.06-1.26,2.36-2.26,3.89-2.99,1.53-.73,3.27-1.09,5.22-1.09s3.62.37,5.01,1.12c1.39.75,2.45,1.81,3.17,3.18.73,1.37,1.09,2.98,1.09,4.81s-.28,3.44-.83,5.05c-.55,1.61-1.36,3.04-2.43,4.3-1.07,1.26-2.37,2.25-3.9,2.98-1.53.73-3.26,1.09-5.21,1.09ZM72.28,180.17c1.09,0,2.04-.29,2.82-.88.79-.59,1.44-1.34,1.95-2.26.51-.92.9-1.89,1.14-2.93.25-1.04.37-2,.37-2.9s-.13-1.63-.4-2.29c-.27-.65-.67-1.16-1.2-1.52-.53-.36-1.2-.55-2.01-.55-1.09,0-2.04.29-2.83.87-.79.58-1.45,1.33-1.95,2.24-.51.91-.88,1.88-1.13,2.91-.25,1.03-.37,2.01-.37,2.93,0,1.3.3,2.36.9,3.16.6.81,1.5,1.21,2.71,1.21ZM73.72,159.59l3.71-5.92h5.43l-5.04,5.92h-4.1Z"/><path class="cls-1" d="M94.52,171.89l-2.07,12.46h-5.86l3.63-21.84h5.51l-.76,5.45-.41-.2c.86-1.8,1.93-3.17,3.2-4.11,1.28-.94,2.8-1.42,4.57-1.42,1.56,0,2.88.35,3.95,1.04,1.07.69,1.82,1.67,2.27,2.93.44,1.26.52,2.75.23,4.45l-2.27,13.69h-5.86l2.17-13.07c.23-1.37.06-2.4-.53-3.1-.59-.7-1.46-1.04-2.62-1.04-.87,0-1.67.2-2.39.59s-1.32.94-1.81,1.65c-.48.71-.8,1.55-.96,2.51Z"/><path class="cls-1" d="M129.21,184.73c-2.21,0-4.02-.75-5.43-2.25-1.41-1.5-2.11-3.65-2.11-6.45,0-1.68.23-3.34.7-4.97.47-1.63,1.16-3.12,2.06-4.44.91-1.33,2.02-2.39,3.33-3.18,1.32-.79,2.82-1.19,4.51-1.19,1.29,0,2.33.22,3.12.66.79.44,1.4.98,1.82,1.62.42.64.71,1.25.88,1.84h.21l1.84-11.11h5.86l-4.82,29.1h-5.76l.62-3.5h-.31c-.36.66-.84,1.29-1.42,1.88-.58.59-1.29,1.06-2.13,1.44s-1.83.56-2.98.56ZM131.16,180.02c1.04,0,1.96-.27,2.74-.8.79-.53,1.45-1.24,1.98-2.12.53-.88.93-1.83,1.2-2.86.27-1.03.4-2.04.4-3.05,0-1.31-.29-2.35-.88-3.12s-1.47-1.14-2.66-1.14c-1.04,0-1.95.27-2.73.8-.78.53-1.44,1.24-1.96,2.11-.53.87-.92,1.82-1.19,2.84-.27,1.02-.4,2.03-.4,3.02,0,1.3.29,2.35.86,3.13.57.79,1.45,1.18,2.64,1.18Z"/><path class="cls-1" d="M156.28,184.82c-1.94,0-3.61-.35-5.02-1.06s-2.49-1.73-3.24-3.06c-.75-1.33-1.13-2.92-1.13-4.79s.3-3.58.91-5.24,1.47-3.13,2.59-4.4c1.12-1.28,2.45-2.28,3.98-3.02,1.54-.74,3.23-1.1,5.08-1.1,1.54,0,2.91.26,4.13.77,1.22.51,2.18,1.24,2.88,2.19.7.94,1.05,2.08,1.05,3.41s-.4,2.47-1.19,3.35c-.79.88-1.97,1.56-3.52,2.05-1.55.49-3.46.83-5.72,1.03s-4.87.29-7.81.29l.61-3.54c2.49,0,4.53-.04,6.12-.13,1.6-.08,2.83-.24,3.71-.46.88-.22,1.49-.52,1.84-.89.35-.37.52-.84.52-1.42,0-.69-.29-1.24-.87-1.64-.58-.4-1.36-.61-2.35-.61-1.28,0-2.32.33-3.14,1s-1.46,1.5-1.91,2.5c-.46,1-.78,2.04-.97,3.12-.19,1.07-.28,2.02-.28,2.84s.13,1.58.38,2.25.69,1.19,1.3,1.57c.61.38,1.45.58,2.5.58,1.11,0,2.09-.23,2.94-.69.85-.46,1.47-1.1,1.85-1.92l5.25.7c-.72,1.9-2,3.43-3.85,4.59-1.85,1.16-4.06,1.74-6.62,1.74Z"/><path class="cls-1" d="M180.46,155.25l-4.82,29.1h-5.86l4.82-29.1h5.86Z"/><path class="cls-1" d="M203.21,184.75c-2.3,0-4.33-.47-6.07-1.4-1.74-.93-3.1-2.28-4.07-4.05-.97-1.77-1.46-3.91-1.46-6.43,0-2.37.37-4.63,1.11-6.79.74-2.15,1.81-4.08,3.19-5.76,1.39-1.69,3.06-3.02,5.02-3.99,1.96-.98,4.15-1.46,6.57-1.46,1.68,0,3.21.23,4.59.68,1.38.46,2.57,1.13,3.57,2.01,1,.89,1.76,1.97,2.28,3.24.51,1.28.75,2.75.69,4.41h-6.04c0-.79-.12-1.5-.36-2.13-.24-.62-.59-1.16-1.04-1.59-.46-.44-1-.77-1.64-1-.64-.23-1.36-.34-2.17-.34-1.59,0-2.99.37-4.21,1.11-1.22.74-2.24,1.73-3.07,2.97-.83,1.24-1.45,2.6-1.88,4.09-.42,1.49-.63,2.99-.63,4.5s.24,2.68.72,3.66c.48.98,1.17,1.72,2.06,2.22.89.5,1.94.74,3.15.74.87,0,1.7-.11,2.49-.34.79-.23,1.52-.56,2.19-1,.67-.44,1.25-.97,1.75-1.59.5-.62.88-1.33,1.15-2.13h6.04c-.39,1.35-1,2.65-1.83,3.89-.83,1.24-1.84,2.34-3.05,3.32-1.2.98-2.57,1.75-4.09,2.3s-3.18.84-4.98.84Z"/><path class="cls-1" d="M229.72,184.78c-1.98,0-3.66-.38-5.04-1.13-1.38-.75-2.43-1.82-3.16-3.18-.73-1.37-1.09-2.97-1.09-4.8s.28-3.44.84-5.04c.56-1.6,1.37-3.03,2.43-4.3,1.06-1.26,2.36-2.26,3.89-2.99,1.53-.73,3.27-1.09,5.22-1.09s3.62.37,5.01,1.12c1.39.75,2.45,1.81,3.17,3.18.73,1.37,1.09,2.98,1.09,4.81s-.28,3.44-.83,5.05c-.55,1.61-1.36,3.04-2.43,4.3-1.07,1.26-2.37,2.25-3.9,2.98-1.53.73-3.26,1.09-5.21,1.09ZM229.91,180.17c1.09,0,2.04-.29,2.82-.88.79-.59,1.44-1.34,1.95-2.26.51-.92.9-1.89,1.14-2.93.25-1.04.37-2,.37-2.9s-.13-1.63-.4-2.29c-.27-.65-.67-1.16-1.2-1.52-.53-.36-1.2-.55-2.01-.55-1.09,0-2.04.29-2.83.87-.79.58-1.45,1.33-1.95,2.24-.51.91-.88,1.88-1.13,2.91-.25,1.03-.37,2.01-.37,2.93,0,1.3.3,2.36.9,3.16.6.81,1.5,1.21,2.71,1.21Z"/><path class="cls-1" d="M254.91,155.25l-4.82,29.1h-5.86l4.82-29.1h5.86Z"/><path class="cls-1" d="M265.17,184.82c-1.94,0-3.61-.35-5.02-1.06s-2.49-1.73-3.24-3.06c-.75-1.33-1.13-2.92-1.13-4.79s.3-3.58.91-5.24,1.47-3.13,2.59-4.4c1.12-1.28,2.45-2.28,3.98-3.02,1.54-.74,3.23-1.1,5.08-1.1,1.54,0,2.91.26,4.13.77,1.22.51,2.18,1.24,2.88,2.19.7.94,1.05,2.08,1.05,3.41s-.4,2.47-1.19,3.35c-.79.88-1.97,1.56-3.52,2.05-1.55.49-3.46.83-5.72,1.03s-4.87.29-7.81.29l.61-3.54c2.49,0,4.53-.04,6.12-.13,1.6-.08,2.83-.24,3.71-.46.88-.22,1.49-.52,1.84-.89.35-.37.52-.84.52-1.42,0-.69-.29-1.24-.87-1.64-.58-.4-1.36-.61-2.35-.61-1.28,0-2.32.33-3.14,1s-1.46,1.5-1.91,2.5c-.46,1-.78,2.04-.97,3.12-.19,1.07-.28,2.02-.28,2.84s.13,1.58.38,2.25.69,1.19,1.3,1.57c.61.38,1.45.58,2.5.58,1.11,0,2.09-.23,2.94-.69.85-.46,1.47-1.1,1.85-1.92l5.25.7c-.72,1.9-2,3.43-3.85,4.59-1.85,1.16-4.06,1.74-6.62,1.74Z"/><path class="cls-1" d="M287.26,192.99c-1.88,0-3.47-.25-4.79-.74-1.31-.5-2.34-1.16-3.07-2-.73-.84-1.17-1.77-1.31-2.8l5.12-1.02c.1.39.31.76.61,1.1.3.34.73.63,1.29.86.56.23,1.3.34,2.21.34,1.58,0,2.88-.38,3.92-1.13,1.04-.76,1.68-1.85,1.94-3.28l.66-3.83-.53.04c-.38.59-.84,1.15-1.39,1.69-.55.54-1.22.98-2.01,1.32-.79.34-1.76.51-2.89.51-1.46,0-2.76-.3-3.92-.91s-2.06-1.52-2.71-2.73c-.66-1.22-.99-2.74-.99-4.56,0-1.65.23-3.29.7-4.9.47-1.61,1.16-3.08,2.07-4.38.91-1.31,2.03-2.35,3.34-3.13,1.32-.78,2.81-1.17,4.49-1.17.96,0,1.79.13,2.48.39.69.26,1.26.6,1.72,1.03.46.42.82.87,1.08,1.35.27.48.47.93.6,1.36l.27-.04.64-3.81h5.78l-3.63,21.84c-.34,1.97-1.05,3.59-2.13,4.86-1.08,1.28-2.44,2.22-4.08,2.84-1.64.62-3.47.93-5.49.93ZM288.96,179.59c1.05,0,1.98-.25,2.76-.76.79-.51,1.44-1.17,1.95-2,.51-.83.9-1.73,1.15-2.72.25-.99.38-1.97.38-2.93,0-1.31-.29-2.35-.88-3.11-.59-.75-1.47-1.13-2.66-1.13-1.02,0-1.92.26-2.71.78-.79.52-1.45,1.2-1.98,2.05-.53.85-.93,1.77-1.2,2.77-.27,1-.4,1.99-.4,2.97,0,1.29.3,2.29.89,3.01.59.72,1.49,1.07,2.69,1.07Z"/><path class="cls-1" d="M303.96,184.35l3.61-21.84h5.86l-3.61,21.84h-5.86ZM310.97,159.67c-.88,0-1.59-.29-2.12-.88s-.73-1.3-.6-2.13c.14-.83.58-1.54,1.31-2.13.73-.59,1.53-.88,2.4-.88s1.6.29,2.13.88c.53.59.73,1.3.59,2.13-.13.82-.56,1.53-1.29,2.12-.73.59-1.54.89-2.42.89Z"/><path class="cls-1" d="M324.83,184.78c-1.98,0-3.66-.38-5.04-1.13-1.38-.75-2.43-1.82-3.16-3.18-.73-1.37-1.09-2.97-1.09-4.8s.28-3.44.84-5.04c.56-1.6,1.37-3.03,2.43-4.3,1.06-1.26,2.36-2.26,3.89-2.99,1.53-.73,3.27-1.09,5.22-1.09s3.62.37,5.01,1.12c1.39.75,2.45,1.81,3.17,3.18.73,1.37,1.09,2.98,1.09,4.81s-.28,3.44-.83,5.05c-.55,1.61-1.36,3.04-2.43,4.3-1.07,1.26-2.37,2.25-3.9,2.98-1.53.73-3.26,1.09-5.21,1.09ZM325.03,180.17c1.09,0,2.04-.29,2.82-.88.79-.59,1.44-1.34,1.95-2.26.51-.92.9-1.89,1.14-2.93.25-1.04.37-2,.37-2.9s-.13-1.63-.4-2.29c-.27-.65-.67-1.16-1.2-1.52-.53-.36-1.2-.55-2.01-.55-1.09,0-2.04.29-2.83.87-.79.58-1.45,1.33-1.95,2.24-.51.91-.88,1.88-1.13,2.91-.25,1.03-.37,2.01-.37,2.93,0,1.3.3,2.36.9,3.16.6.81,1.5,1.21,2.71,1.21Z"/><path class="cls-1" d="M359.74,155.25l-4.82,29.1h-5.96l4.82-29.1h5.96ZM359.99,184.35h-8.34l.84-5.14h7.27c1.88,0,3.5-.33,4.87-1,1.37-.66,2.5-1.7,3.38-3.1.88-1.4,1.49-3.18,1.85-5.34.37-2.17.35-3.96-.06-5.34-.4-1.39-1.17-2.41-2.31-3.07-1.14-.66-2.63-.99-4.48-.99h-7.52l.86-5.14h7.38c2.93,0,5.38.58,7.35,1.75,1.97,1.17,3.38,2.84,4.22,5.01.84,2.17,1.01,4.77.5,7.79-.51,3.03-1.45,5.64-2.81,7.81-1.37,2.17-3.14,3.84-5.31,5-2.17,1.16-4.73,1.74-7.68,1.74Z"/><path class="cls-1" d="M387.78,184.82c-1.94,0-3.61-.35-5.02-1.06s-2.49-1.73-3.24-3.06c-.75-1.33-1.13-2.92-1.13-4.79s.3-3.58.91-5.24,1.47-3.13,2.59-4.4c1.12-1.28,2.45-2.28,3.98-3.02,1.54-.74,3.23-1.1,5.08-1.1,1.54,0,2.91.26,4.13.77,1.22.51,2.18,1.24,2.88,2.19.7.94,1.05,2.08,1.05,3.41s-.4,2.47-1.19,3.35c-.79.88-1.97,1.56-3.52,2.05-1.55.49-3.46.83-5.72,1.03s-4.87.29-7.81.29l.61-3.54c2.49,0,4.53-.04,6.12-.13,1.6-.08,2.83-.24,3.71-.46.88-.22,1.49-.52,1.84-.89.35-.37.52-.84.52-1.42,0-.69-.29-1.24-.87-1.64-.58-.4-1.36-.61-2.35-.61-1.28,0-2.32.33-3.14,1s-1.46,1.5-1.91,2.5c-.46,1-.78,2.04-.97,3.12-.19,1.07-.28,2.02-.28,2.84s.13,1.58.38,2.25.69,1.19,1.3,1.57c.61.38,1.45.58,2.5.58,1.11,0,2.09-.23,2.94-.69.85-.46,1.47-1.1,1.85-1.92l5.25.7c-.72,1.9-2,3.43-3.85,4.59-1.85,1.16-4.06,1.74-6.62,1.74Z"/><path class="cls-1" d="M409.21,184.35l14.77-29.1h7.81l5.37,29.1h-6.39l-2.32-14.04c-.25-1.74-.49-3.71-.72-5.9s-.46-4.56-.66-7.11h1.29c-1.02,2.49-1.97,4.82-2.87,7.01s-1.77,4.19-2.62,6l-6.84,14.04h-6.82ZM416.53,177.6l.78-4.67h15.51l-.76,4.67h-15.53Z"/><path class="cls-1" d="M453.12,184.73c-1.24,0-2.25-.21-3.04-.62-.79-.42-1.4-.93-1.84-1.54-.44-.61-.75-1.22-.95-1.82h-.31l-.61,3.61h-5.76l4.82-29.1h5.86l-1.86,10.94h.23c.37-.61.83-1.22,1.4-1.84.57-.61,1.27-1.12,2.11-1.51.84-.4,1.85-.6,3.04-.6,1.45,0,2.73.32,3.86.97,1.13.64,2.02,1.61,2.68,2.89.66,1.28.99,2.87.99,4.78,0,1.56-.22,3.15-.65,4.78-.44,1.62-1.09,3.12-1.97,4.48s-1.98,2.47-3.31,3.32c-1.33.85-2.89,1.27-4.69,1.27ZM451.46,180.02c1.08,0,2.02-.29,2.81-.86.79-.57,1.45-1.31,1.97-2.21.52-.9.91-1.86,1.15-2.87.25-1.02.37-1.97.37-2.87,0-1.3-.29-2.34-.86-3.12-.57-.77-1.46-1.16-2.66-1.16-1.04,0-1.96.26-2.74.79-.79.53-1.45,1.22-1.97,2.09-.53.87-.93,1.81-1.2,2.83-.27,1.02-.41,2.03-.41,3.04,0,1.34.3,2.4.9,3.17.6.77,1.48,1.16,2.64,1.16Z"/><path class="cls-1" d="M475.87,184.78c-1.98,0-3.66-.38-5.04-1.13-1.38-.75-2.43-1.82-3.16-3.18-.73-1.37-1.09-2.97-1.09-4.8s.28-3.44.84-5.04c.56-1.6,1.37-3.03,2.43-4.3,1.06-1.26,2.36-2.26,3.89-2.99,1.53-.73,3.27-1.09,5.22-1.09s3.62.37,5.01,1.12c1.39.75,2.45,1.81,3.17,3.18.73,1.37,1.09,2.98,1.09,4.81s-.28,3.44-.83,5.05c-.55,1.61-1.36,3.04-2.43,4.3-1.07,1.26-2.37,2.25-3.9,2.98-1.53.73-3.26,1.09-5.21,1.09ZM476.06,180.17c1.09,0,2.04-.29,2.82-.88.79-.59,1.44-1.34,1.95-2.26.51-.92.9-1.89,1.14-2.93.25-1.04.37-2,.37-2.9s-.13-1.63-.4-2.29c-.27-.65-.67-1.16-1.2-1.52-.53-.36-1.2-.55-2.01-.55-1.09,0-2.04.29-2.83.87-.79.58-1.45,1.33-1.95,2.24-.51.91-.88,1.88-1.13,2.91-.25,1.03-.37,2.01-.37,2.93,0,1.3.3,2.36.9,3.16.6.81,1.5,1.21,2.71,1.21Z"/><path class="cls-1" d="M498.97,192.99c-1.88,0-3.47-.25-4.79-.74-1.31-.5-2.34-1.16-3.07-2-.73-.84-1.17-1.77-1.31-2.8l5.12-1.02c.1.39.31.76.61,1.1.3.34.73.63,1.29.86.56.23,1.3.34,2.21.34,1.58,0,2.88-.38,3.92-1.13,1.04-.76,1.68-1.85,1.94-3.28l.66-3.83-.53.04c-.38.59-.84,1.15-1.39,1.69-.55.54-1.22.98-2.01,1.32-.79.34-1.76.51-2.89.51-1.46,0-2.76-.3-3.92-.91s-2.06-1.52-2.71-2.73c-.66-1.22-.99-2.74-.99-4.56,0-1.65.23-3.29.7-4.9.47-1.61,1.16-3.08,2.07-4.38.91-1.31,2.03-2.35,3.34-3.13,1.32-.78,2.81-1.17,4.49-1.17.96,0,1.79.13,2.48.39.69.26,1.26.6,1.72,1.03.46.42.82.87,1.08,1.35.27.48.47.93.6,1.36l.27-.04.64-3.81h5.78l-3.63,21.84c-.34,1.97-1.05,3.59-2.13,4.86-1.08,1.28-2.44,2.22-4.08,2.84-1.64.62-3.47.93-5.49.93ZM500.67,179.59c1.05,0,1.98-.25,2.76-.76.79-.51,1.44-1.17,1.95-2,.51-.83.9-1.73,1.15-2.72.25-.99.38-1.97.38-2.93,0-1.31-.29-2.35-.88-3.11-.59-.75-1.47-1.13-2.66-1.13-1.02,0-1.92.26-2.71.78-.79.52-1.45,1.2-1.98,2.05-.53.85-.93,1.77-1.2,2.77-.27,1-.4,1.99-.4,2.97,0,1.29.3,2.29.89,3.01.59.72,1.49,1.07,2.69,1.07Z"/><path class="cls-1" d="M523.58,184.73c-1.67,0-3.1-.44-4.31-1.31-1.2-.87-2.06-2.15-2.57-3.82-.51-1.67-.56-3.72-.16-6.14.42-2.49,1.17-4.56,2.25-6.22,1.08-1.66,2.36-2.91,3.85-3.74,1.48-.83,3.03-1.25,4.65-1.25,1.24,0,2.23.21,2.98.62.75.41,1.33.92,1.73,1.53.4.61.69,1.21.86,1.8h.2l.61-3.67h5.84l-3.61,21.84h-5.76l.57-3.5h-.27c-.38.6-.87,1.19-1.48,1.79-.61.59-1.36,1.09-2.25,1.48-.88.4-1.92.6-3.11.6ZM526.18,180.02c1,0,1.9-.28,2.69-.83.79-.55,1.45-1.32,1.98-2.3.53-.98.91-2.13,1.11-3.43.22-1.33.23-2.48.03-3.46-.2-.98-.61-1.73-1.22-2.27-.61-.53-1.42-.8-2.42-.8s-1.94.28-2.73.84c-.79.56-1.45,1.33-1.96,2.3-.51.98-.88,2.1-1.08,3.38-.21,1.28-.21,2.41-.02,3.4.2.99.6,1.76,1.2,2.32.61.56,1.42.84,2.43.84Z"/><path class="cls-1" d="M549.13,184.73c-2.21,0-4.02-.75-5.43-2.25-1.41-1.5-2.11-3.65-2.11-6.45,0-1.68.23-3.34.7-4.97.47-1.63,1.16-3.12,2.06-4.44.91-1.33,2.02-2.39,3.33-3.18,1.32-.79,2.82-1.19,4.51-1.19,1.29,0,2.33.22,3.12.66.79.44,1.4.98,1.82,1.62.42.64.71,1.25.88,1.84h.21l1.84-11.11h5.86l-4.82,29.1h-5.76l.62-3.5h-.31c-.36.66-.84,1.29-1.42,1.88-.58.59-1.29,1.06-2.13,1.44s-1.83.56-2.98.56ZM551.08,180.02c1.04,0,1.96-.27,2.74-.8.79-.53,1.45-1.24,1.98-2.12.53-.88.93-1.83,1.2-2.86.27-1.03.4-2.04.4-3.05,0-1.31-.29-2.35-.88-3.12s-1.47-1.14-2.66-1.14c-1.04,0-1.95.27-2.73.8-.78.53-1.44,1.24-1.96,2.11-.53.87-.92,1.82-1.19,2.84-.27,1.02-.4,2.03-.4,3.02,0,1.3.29,2.35.86,3.13.57.79,1.45,1.18,2.64,1.18Z"/><path class="cls-1" d="M576.14,184.78c-1.98,0-3.66-.38-5.04-1.13-1.38-.75-2.43-1.82-3.16-3.18-.73-1.37-1.09-2.97-1.09-4.8s.28-3.44.84-5.04c.56-1.6,1.37-3.03,2.43-4.3,1.06-1.26,2.36-2.26,3.89-2.99,1.53-.73,3.27-1.09,5.22-1.09s3.62.37,5.01,1.12c1.39.75,2.45,1.81,3.17,3.18.73,1.37,1.09,2.98,1.09,4.81s-.28,3.44-.83,5.05c-.55,1.61-1.36,3.04-2.43,4.3-1.07,1.26-2.37,2.25-3.9,2.98-1.53.73-3.26,1.09-5.21,1.09ZM576.34,180.17c1.09,0,2.04-.29,2.82-.88.79-.59,1.44-1.34,1.95-2.26.51-.92.9-1.89,1.14-2.93.25-1.04.37-2,.37-2.9s-.13-1.63-.4-2.29c-.27-.65-.67-1.16-1.2-1.52-.53-.36-1.2-.55-2.01-.55-1.09,0-2.04.29-2.83.87-.79.58-1.45,1.33-1.95,2.24-.51.91-.88,1.88-1.13,2.91-.25,1.03-.37,2.01-.37,2.93,0,1.3.3,2.36.9,3.16.6.81,1.5,1.21,2.71,1.21Z"/><path class="cls-1" d="M599.54,184.78c-1.76,0-3.29-.26-4.59-.77-1.3-.51-2.31-1.24-3.04-2.18s-1.12-2.05-1.2-3.34c0-.06,0-.12,0-.17,0-.05,0-.09,0-.13l5.49-.57c.1,1.02.44,1.75,1.01,2.19.57.44,1.44.66,2.63.66.72,0,1.39-.1,2.03-.29.64-.2,1.17-.48,1.59-.85.42-.37.66-.82.71-1.36.04-.49-.12-.91-.48-1.25-.36-.34-.97-.6-1.85-.78l-3.63-.78c-1.9-.4-3.31-1.12-4.22-2.14-.91-1.02-1.31-2.28-1.19-3.78.09-1.51.6-2.79,1.52-3.83.92-1.04,2.13-1.83,3.6-2.37,1.48-.54,3.09-.81,4.83-.81,2.57,0,4.55.51,5.95,1.54,1.4,1.03,2.19,2.38,2.37,4.04.03.08.05.15.06.21.01.07.02.14.02.21l-5.21.53c-.1-.74-.4-1.32-.88-1.73-.48-.41-1.24-.62-2.29-.62-.64,0-1.26.1-1.88.29-.61.2-1.13.48-1.54.84-.42.36-.65.82-.7,1.37-.05.5.09.91.43,1.23.34.33.96.59,1.88.8l3.79.78c1.91.39,3.33,1.06,4.25,2.01.92.95,1.32,2.16,1.2,3.63-.08,1.16-.41,2.19-1.01,3.11-.59.91-1.38,1.69-2.37,2.32-.99.64-2.11,1.12-3.35,1.46-1.24.33-2.55.5-3.92.5Z"/><path class="cls-1" d="M0,219.35l9.25-25.46h3.76l9.37,25.46h-3.42l-5.4-15.11c-.33-.93-.71-2.1-1.15-3.5-.44-1.4-.97-3.18-1.6-5.34h.62c-.62,2.19-1.15,3.99-1.6,5.41-.45,1.42-.82,2.56-1.12,3.43l-5.25,15.11H0ZM4.65,212.25v-2.84h13.07v2.84H4.65Z"/><path class="cls-1" d="M29.1,219.35l-7.3-19.11h3.37l4.07,11.33c.43,1.17.8,2.34,1.1,3.51.3,1.17.62,2.3.95,3.39h-1.13c.33-1.09.65-2.22.95-3.39.3-1.17.66-2.34,1.08-3.51l4.07-11.33h3.37l-7.3,19.11h-3.23Z"/><path class="cls-1" d="M44.06,219.58c-.64,0-1.18-.22-1.63-.68-.45-.45-.67-.99-.67-1.63s.22-1.18.67-1.63.99-.68,1.63-.68,1.18.23,1.63.68.67.99.67,1.63-.22,1.18-.67,1.63c-.45.45-1,.68-1.63.68Z"/><path class="cls-1" d="M72.32,219.7c-2.18,0-4.12-.53-5.82-1.58-1.7-1.05-3.04-2.56-4.02-4.51-.97-1.95-1.46-4.27-1.46-6.96s.49-5.03,1.46-6.98c.97-1.95,2.31-3.46,4.02-4.52s3.64-1.59,5.82-1.59c1.29,0,2.5.19,3.65.56,1.14.38,2.17.93,3.08,1.65.91.72,1.67,1.6,2.28,2.63.61,1.03,1.03,2.2,1.26,3.51h-3.25c-.18-.88-.49-1.65-.93-2.31-.44-.66-.97-1.22-1.61-1.67-.63-.46-1.33-.8-2.09-1.03-.76-.23-1.56-.34-2.39-.34-1.53,0-2.9.39-4.13,1.16-1.23.77-2.21,1.91-2.92,3.41-.72,1.5-1.08,3.34-1.08,5.51s.36,4,1.09,5.49c.72,1.5,1.7,2.63,2.93,3.4,1.23.77,2.6,1.15,4.12,1.15.83,0,1.63-.12,2.39-.35.76-.23,1.46-.57,2.09-1.03.63-.45,1.17-1.01,1.61-1.67.44-.67.75-1.43.93-2.3h3.25c-.22,1.3-.63,2.46-1.24,3.49s-1.37,1.9-2.28,2.63c-.91.73-1.94,1.28-3.08,1.67-1.14.38-2.37.57-3.67.57Z"/><path class="cls-1" d="M88.77,197.12c-.58,0-1.08-.2-1.5-.6-.42-.4-.63-.88-.63-1.44s.21-1.05.63-1.44c.42-.39.92-.59,1.5-.59s1.1.2,1.52.59c.42.39.63.88.63,1.44s-.21,1.04-.63,1.44c-.42.4-.93.6-1.52.6ZM87.21,219.35v-19.11h3.08v19.11h-3.08Z"/><path class="cls-1" d="M95.69,219.35v-19.11h2.97v2.94h.21c.35-.97.98-1.75,1.89-2.33.91-.59,1.93-.88,3.07-.88.23,0,.5,0,.81.02.31.01.56.02.74.03v3.09c-.09-.02-.32-.06-.68-.1-.37-.05-.75-.07-1.16-.07-.91,0-1.73.19-2.45.57-.72.38-1.29.91-1.7,1.57-.41.67-.62,1.43-.62,2.3v11.96h-3.08Z"/><path class="cls-1" d="M116.06,219.76c-1.73,0-3.25-.41-4.55-1.23-1.31-.82-2.32-1.97-3.05-3.45-.73-1.48-1.09-3.2-1.09-5.16s.36-3.73,1.09-5.22c.73-1.49,1.75-2.64,3.05-3.46,1.3-.82,2.82-1.23,4.55-1.23.92,0,1.79.12,2.61.36s1.57.58,2.25,1.03c.68.45,1.26,1,1.75,1.66.49.66.87,1.4,1.13,2.23l-2.96.84c-.14-.49-.35-.94-.63-1.35-.29-.41-.63-.77-1.04-1.07s-.87-.54-1.39-.7c-.52-.16-1.1-.25-1.73-.25-1.28,0-2.32.33-3.14,1-.82.67-1.43,1.54-1.83,2.62-.4,1.08-.6,2.26-.6,3.54s.2,2.42.6,3.5c.4,1.08,1.01,1.95,1.83,2.61.82.66,1.87.99,3.14.99.64,0,1.22-.09,1.76-.26.54-.17,1.01-.41,1.43-.73.42-.31.77-.69,1.05-1.12.28-.43.5-.91.63-1.42l2.94.84c-.25.85-.62,1.62-1.12,2.28-.5.67-1.08,1.24-1.77,1.71-.68.47-1.44.83-2.27,1.08-.83.24-1.71.37-2.65.37Z"/><path class="cls-1" d="M134.75,219.59c-1.29,0-2.42-.26-3.39-.79-.97-.53-1.73-1.33-2.27-2.4-.54-1.07-.81-2.41-.81-4.02v-12.13h3.08v11.88c0,1.47.39,2.62,1.16,3.45.77.83,1.83,1.25,3.16,1.25.91,0,1.73-.2,2.45-.6.72-.4,1.3-.98,1.72-1.75.42-.77.63-1.69.63-2.78v-11.45h3.09v19.11h-2.97v-4.63h.41c-.59,1.79-1.43,3.05-2.52,3.78-1.09.73-2.33,1.09-3.73,1.09Z"/><path class="cls-1" d="M152.05,207.9v11.45h-3.08v-19.11h2.96l.02,4.63h-.43c.58-1.77,1.41-3.02,2.49-3.76,1.08-.74,2.34-1.11,3.79-1.11,1.29,0,2.42.26,3.38.79.97.53,1.72,1.33,2.26,2.39s.81,2.41.81,4.02v12.13h-3.08v-11.88c0-1.47-.38-2.62-1.15-3.45-.77-.83-1.82-1.25-3.15-1.25-.91,0-1.73.2-2.46.6-.73.4-1.3.98-1.73,1.74-.42.76-.63,1.69-.63,2.79Z"/><path class="cls-1" d="M174.66,219.35l-7.3-19.11h3.37l4.07,11.33c.43,1.17.8,2.34,1.1,3.51s.62,2.3.95,3.39h-1.13c.33-1.09.65-2.22.95-3.39s.66-2.34,1.08-3.51l4.07-11.33h3.37l-7.3,19.11h-3.23Z"/><path class="cls-1" d="M193.99,219.8c-1.21,0-2.3-.23-3.29-.68s-1.77-1.12-2.35-2c-.58-.88-.87-1.94-.87-3.2,0-1.09.22-1.98.65-2.67.43-.68,1.01-1.22,1.73-1.62.72-.39,1.52-.69,2.4-.88.88-.19,1.76-.35,2.65-.46,1.14-.15,2.07-.26,2.79-.34.72-.08,1.25-.22,1.6-.41.35-.19.52-.52.52-.99v-.1c0-.8-.15-1.47-.44-2.02-.3-.55-.74-.98-1.33-1.27s-1.33-.44-2.22-.44-1.69.14-2.34.43c-.65.29-1.18.64-1.58,1.07-.41.43-.71.86-.92,1.31l-2.96-.97c.49-1.16,1.15-2.07,1.98-2.73.83-.65,1.75-1.12,2.75-1.39s1.99-.41,2.97-.41c.64,0,1.36.08,2.18.23.81.15,1.6.46,2.36.91.76.46,1.38,1.13,1.88,2.02.49.9.74,2.09.74,3.58v12.6h-3.02v-2.6h-.21c-.22.44-.56.9-1.04,1.38s-1.1.87-1.86,1.19-1.69.48-2.77.48ZM194.52,217.08c1.14,0,2.1-.22,2.89-.67s1.38-1.02,1.79-1.73.62-1.46.62-2.23v-2.65c-.12.15-.4.28-.82.4-.42.12-.9.23-1.44.32-.54.09-1.07.17-1.57.23-.51.06-.91.11-1.21.15-.74.09-1.43.25-2.08.47-.64.22-1.16.55-1.55.97-.39.43-.58,1.01-.58,1.73,0,.66.17,1.21.51,1.66s.81.78,1.4,1.01c.59.23,1.27.34,2.03.34Z"/><path class="cls-1" d="M211.37,193.89v25.46h-3.08v-25.46h3.08Z"/><path class="cls-1" d="M222.12,219.8c-1.21,0-2.3-.23-3.29-.68-.99-.46-1.77-1.12-2.35-2-.58-.88-.87-1.94-.87-3.2,0-1.09.22-1.98.65-2.67.43-.68,1.01-1.22,1.73-1.62.72-.39,1.52-.69,2.4-.88.88-.19,1.76-.35,2.65-.46,1.14-.15,2.07-.26,2.79-.34.72-.08,1.25-.22,1.6-.41.35-.19.52-.52.52-.99v-.1c0-.8-.15-1.47-.45-2.02-.3-.55-.74-.98-1.33-1.27-.59-.3-1.33-.44-2.22-.44s-1.69.14-2.34.43c-.65.29-1.18.64-1.58,1.07-.4.43-.71.86-.91,1.31l-2.96-.97c.49-1.16,1.15-2.07,1.98-2.73.83-.65,1.75-1.12,2.75-1.39,1-.27,1.99-.41,2.97-.41.64,0,1.36.08,2.18.23.81.15,1.6.46,2.36.91.76.46,1.38,1.13,1.88,2.02.5.9.74,2.09.74,3.58v12.6h-3.03v-2.6h-.21c-.22.44-.56.9-1.04,1.38s-1.1.87-1.86,1.19c-.76.32-1.69.48-2.77.48ZM222.65,217.08c1.14,0,2.1-.22,2.89-.67s1.38-1.02,1.79-1.73.62-1.46.62-2.23v-2.65c-.13.15-.4.28-.82.4-.42.12-.9.23-1.45.32-.54.09-1.06.17-1.57.23-.51.06-.91.11-1.2.15-.74.09-1.43.25-2.08.47-.64.22-1.16.55-1.55.97-.39.43-.58,1.01-.58,1.73,0,.66.17,1.21.51,1.66s.81.78,1.4,1.01c.59.23,1.27.34,2.03.34Z"/><path class="cls-1" d="M244.2,219.76c-1.73,0-3.25-.41-4.55-1.23s-2.32-1.97-3.05-3.45c-.73-1.48-1.09-3.2-1.09-5.16s.37-3.73,1.09-5.22c.73-1.49,1.75-2.64,3.05-3.46s2.82-1.23,4.55-1.23c.92,0,1.79.12,2.62.36s1.57.58,2.25,1.03c.68.45,1.26,1,1.75,1.66s.87,1.4,1.13,2.23l-2.96.84c-.14-.49-.35-.94-.63-1.35s-.63-.77-1.03-1.07-.87-.54-1.39-.7c-.53-.16-1.1-.25-1.73-.25-1.28,0-2.32.33-3.14,1-.82.67-1.43,1.54-1.83,2.62-.4,1.08-.6,2.26-.6,3.54s.2,2.42.6,3.5c.4,1.08,1.01,1.95,1.83,2.61.82.66,1.87.99,3.14.99.64,0,1.22-.09,1.76-.26s1.01-.41,1.43-.73c.42-.31.77-.69,1.05-1.12.29-.43.5-.91.63-1.42l2.94.84c-.25.85-.62,1.62-1.12,2.28-.5.67-1.09,1.24-1.77,1.71-.68.47-1.44.83-2.27,1.08-.83.24-1.71.37-2.65.37Z"/><path class="cls-1" d="M257.97,197.12c-.58,0-1.08-.2-1.5-.6-.42-.4-.63-.88-.63-1.44s.21-1.05.63-1.44c.42-.39.92-.59,1.5-.59s1.1.2,1.52.59c.42.39.63.88.63,1.44s-.21,1.04-.63,1.44c-.42.4-.93.6-1.52.6ZM256.42,219.35v-19.11h3.08v19.11h-3.08Z"/><path class="cls-1" d="M272.67,219.76c-1.73,0-3.25-.41-4.55-1.23-1.31-.82-2.32-1.97-3.05-3.45-.73-1.48-1.09-3.2-1.09-5.16s.36-3.73,1.09-5.22c.73-1.49,1.75-2.64,3.05-3.46,1.3-.82,2.82-1.23,4.55-1.23s3.27.41,4.58,1.23c1.31.82,2.33,1.97,3.06,3.46.73,1.49,1.09,3.23,1.09,5.22s-.37,3.68-1.09,5.16c-.73,1.48-1.75,2.63-3.06,3.45-1.31.82-2.84,1.23-4.58,1.23ZM272.67,217.01c1.29,0,2.35-.33,3.18-.99.83-.66,1.45-1.53,1.85-2.61.4-1.08.6-2.24.6-3.5s-.2-2.44-.6-3.53c-.4-1.09-1.01-1.96-1.85-2.63-.83-.67-1.89-1-3.18-1s-2.32.33-3.14,1c-.82.67-1.43,1.54-1.83,2.62-.4,1.08-.6,2.26-.6,3.54s.2,2.42.6,3.5c.4,1.08,1.01,1.95,1.83,2.61.82.66,1.87.99,3.14.99ZM271.32,197.75l2.39-5.02h3.44l-3.32,5.02h-2.51Z"/><path class="cls-1" d="M288.96,207.9v11.45h-3.08v-19.11h2.96l.02,4.63h-.43c.58-1.77,1.41-3.02,2.49-3.76,1.08-.74,2.34-1.11,3.79-1.11,1.29,0,2.42.26,3.38.79.97.53,1.72,1.33,2.26,2.39s.81,2.41.81,4.02v12.13h-3.08v-11.88c0-1.47-.38-2.62-1.15-3.45-.77-.83-1.82-1.25-3.15-1.25-.91,0-1.73.2-2.46.6-.73.4-1.3.98-1.73,1.74-.42.76-.63,1.69-.63,2.79Z"/><path class="cls-1" d="M327.1,219.7c-2.18,0-4.12-.53-5.82-1.58-1.7-1.05-3.04-2.56-4.03-4.51-.98-1.95-1.47-4.27-1.47-6.96s.49-5.03,1.47-6.98c.98-1.95,2.32-3.46,4.03-4.52s3.64-1.59,5.82-1.59,4.11.53,5.81,1.59,3.03,2.57,4.01,4.52c.97,1.95,1.46,4.28,1.46,6.98s-.49,5.01-1.46,6.96c-.97,1.95-2.31,3.46-4.01,4.51-1.7,1.05-3.63,1.58-5.81,1.58ZM327.1,216.69c1.52,0,2.89-.38,4.11-1.15,1.22-.77,2.2-1.9,2.92-3.4.72-1.5,1.08-3.33,1.08-5.49s-.36-4.03-1.08-5.53c-.72-1.5-1.7-2.63-2.92-3.4-1.23-.77-2.6-1.15-4.11-1.15s-2.9.39-4.13,1.16c-1.23.77-2.21,1.91-2.93,3.41-.72,1.5-1.08,3.34-1.08,5.51s.36,3.99,1.08,5.49c.72,1.49,1.7,2.63,2.93,3.4,1.23.77,2.61,1.16,4.13,1.16Z"/><path class="cls-1" d="M351.2,219.76c-1.85,0-3.44-.41-4.78-1.23s-2.37-1.97-3.09-3.44c-.72-1.47-1.08-3.18-1.08-5.14s.35-3.69,1.06-5.18c.71-1.49,1.71-2.66,3-3.5,1.29-.84,2.8-1.26,4.54-1.26,1.01,0,2.01.17,3,.5.98.34,1.88.88,2.68,1.62.8.75,1.45,1.73,1.92,2.95.48,1.22.72,2.71.72,4.48v1.28h-14.83v-2.6h13.18l-1.44.96c0-1.25-.2-2.37-.59-3.34-.39-.97-.98-1.74-1.75-2.29-.78-.55-1.74-.83-2.89-.83s-2.14.28-2.96.85c-.82.56-1.45,1.3-1.88,2.21-.43.91-.65,1.88-.65,2.91v1.73c0,1.41.25,2.61.74,3.6.49.99,1.18,1.73,2.06,2.24.88.51,1.91.76,3.07.76.75,0,1.44-.11,2.05-.32.62-.22,1.15-.54,1.59-.98.45-.44.79-.98,1.03-1.63l2.97.82c-.3.96-.8,1.8-1.5,2.53-.71.73-1.58,1.3-2.62,1.71-1.04.41-2.22.62-3.53.62Z"/><path class="cls-1" d="M370.06,219.76c-1.31,0-2.48-.19-3.5-.57-1.02-.38-1.86-.95-2.52-1.7-.66-.75-1.11-1.67-1.33-2.77l2.92-.7c.27,1.05.79,1.82,1.55,2.31.76.49,1.71.73,2.85.73,1.33,0,2.4-.28,3.19-.85.79-.57,1.19-1.25,1.19-2.03,0-.66-.23-1.21-.69-1.65s-1.17-.77-2.11-.98l-3.18-.75c-1.73-.41-3.02-1.04-3.86-1.91-.84-.86-1.26-1.96-1.26-3.31,0-1.09.31-2.06.92-2.9.62-.84,1.46-1.49,2.52-1.97,1.06-.47,2.28-.71,3.63-.71s2.42.2,3.34.59c.92.39,1.66.93,2.24,1.62.58.69,1.01,1.48,1.29,2.38l-2.79.72c-.26-.68-.7-1.3-1.31-1.86-.61-.56-1.53-.84-2.76-.84-1.14,0-2.09.26-2.85.79-.76.52-1.14,1.19-1.14,1.98,0,.71.26,1.27.77,1.7.51.43,1.33.77,2.44,1.03l2.89.68c1.73.41,3.01,1.05,3.85,1.91.83.86,1.25,1.95,1.25,3.26,0,1.12-.32,2.11-.95,2.98-.63.87-1.52,1.56-2.65,2.06-1.13.5-2.45.75-3.94.75Z"/><path class="cls-1" d="M389.56,200.25v2.63h-9.88v-2.63h9.88ZM382.56,195.7h3.08v18.7c0,.85.17,1.48.52,1.87.35.39.93.59,1.73.59.19,0,.44-.02.74-.07.3-.05.58-.09.83-.14l.63,2.6c-.32.11-.68.2-1.09.26-.4.06-.81.09-1.21.09-1.65,0-2.94-.44-3.86-1.31-.92-.87-1.38-2.09-1.38-3.65v-18.94Z"/><path class="cls-1" d="M401.18,219.76c-1.85,0-3.44-.41-4.78-1.23-1.34-.82-2.37-1.97-3.09-3.44s-1.08-3.18-1.08-5.14.35-3.69,1.06-5.18c.71-1.49,1.71-2.66,3-3.5,1.29-.84,2.81-1.26,4.54-1.26,1.01,0,2.01.17,3,.5.99.34,1.88.88,2.68,1.62.8.75,1.44,1.73,1.92,2.95.48,1.22.72,2.71.72,4.48v1.28h-14.83v-2.6h13.18l-1.44.96c0-1.25-.2-2.37-.59-3.34-.39-.97-.98-1.74-1.75-2.29s-1.74-.83-2.89-.83-2.14.28-2.96.85c-.82.56-1.45,1.3-1.88,2.21-.43.91-.65,1.88-.65,2.91v1.73c0,1.41.24,2.61.73,3.6s1.18,1.73,2.06,2.24c.88.51,1.91.76,3.07.76.75,0,1.44-.11,2.05-.32.62-.22,1.15-.54,1.59-.98.44-.44.79-.98,1.03-1.63l2.97.82c-.3.96-.8,1.8-1.5,2.53-.71.73-1.58,1.3-2.62,1.71-1.04.41-2.22.62-3.53.62Z"/><path class="cls-1" d="M423.4,219.35v-25.46h3.08v25.46h-3.08ZM426.29,212.48v-3.81h.56l8.17-8.43h3.81l-8.84,9.07h-.34l-3.37,3.16ZM435.48,219.35l-7.31-9.35,2.19-2.17,9.07,11.52h-3.95Z"/><path class="cls-1" d="M442.61,219.35v-19.11h2.99l.02,4.27h-.24c.26-1.04.67-1.89,1.24-2.57.56-.68,1.22-1.19,1.98-1.53.76-.34,1.55-.51,2.37-.51,1.39,0,2.52.43,3.38,1.28s1.42,1.98,1.67,3.37h-.41c.23-.96.64-1.78,1.25-2.48.6-.69,1.34-1.23,2.2-1.61s1.8-.56,2.81-.56c1.11,0,2.11.24,3.03.72.91.48,1.64,1.2,2.18,2.17.54.97.81,2.19.81,3.67v12.89h-3.08v-12.8c0-1.38-.39-2.36-1.16-2.96-.78-.59-1.67-.89-2.7-.89-.85,0-1.59.18-2.21.54-.62.36-1.1.85-1.44,1.48-.34.63-.5,1.34-.5,2.15v12.48h-3.08v-13.11c0-1.06-.35-1.91-1.06-2.56-.71-.65-1.6-.97-2.68-.97-.74,0-1.44.17-2.09.52s-1.18.86-1.58,1.55c-.4.68-.6,1.53-.6,2.55v12.03h-3.08Z"/><path class="cls-1" d="M481.42,219.7c-1.66,0-3.14-.29-4.43-.85-1.29-.57-2.31-1.36-3.07-2.38-.76-1.01-1.17-2.19-1.22-3.54h3.28c.07.81.34,1.51.83,2.09s1.12,1.04,1.91,1.35c.79.31,1.67.47,2.64.47,1.07,0,2.02-.19,2.85-.56.83-.37,1.48-.89,1.96-1.56.48-.67.72-1.45.72-2.32,0-.92-.23-1.73-.69-2.44-.46-.7-1.13-1.25-2.01-1.65-.88-.4-1.95-.6-3.21-.6h-2.07v-2.82h2.07c.99,0,1.87-.18,2.62-.54.76-.36,1.35-.86,1.77-1.51s.63-1.41.63-2.29-.19-1.58-.56-2.2c-.37-.63-.9-1.11-1.58-1.46-.68-.35-1.49-.52-2.41-.52-.87,0-1.68.16-2.43.47-.76.31-1.38.76-1.86,1.34s-.74,1.29-.78,2.12h-3.13c.05-1.33.45-2.51,1.2-3.52.75-1.01,1.75-1.81,2.98-2.38,1.24-.57,2.6-.85,4.09-.85,1.58,0,2.95.32,4.09.96,1.14.64,2.03,1.48,2.64,2.51.62,1.04.92,2.16.92,3.37,0,1.44-.38,2.65-1.14,3.66-.76,1-1.79,1.7-3.08,2.08v.21c1.08.17,2.01.54,2.78,1.09.77.56,1.36,1.26,1.76,2.12s.61,1.82.61,2.89c0,1.39-.38,2.63-1.13,3.73s-1.78,1.96-3.09,2.59c-1.31.63-2.8.95-4.46.95Z"/><path class="cls-1" d="M493.59,225.49l1.5-9.69h3.52l-2.67,9.69h-2.36Z"/><path class="cls-1" d="M513.38,214.18v-2.65l11.14-17.64h1.97v4.07h-1.32l-8.32,13.16v.21h15.07v2.85h-18.54ZM525.36,219.35v-5.96l.02-1.25v-18.25h3.09v25.46h-3.11Z"/><path class="cls-1" d="M535.99,214.18v-2.65l11.14-17.64h1.97v4.07h-1.32l-8.32,13.16v.21h15.07v2.85h-18.54ZM547.97,219.35v-5.96l.02-1.25v-18.25h3.09v25.46h-3.11Z"/><path class="cls-1" d="M567.59,219.7c-1.89,0-3.5-.51-4.84-1.54s-2.35-2.51-3.06-4.45c-.71-1.94-1.06-4.3-1.06-7.07s.36-5.11,1.07-7.06,1.73-3.44,3.07-4.48c1.33-1.04,2.94-1.56,4.82-1.56s3.49.52,4.83,1.56c1.34,1.04,2.36,2.53,3.07,4.48.71,1.95,1.06,4.3,1.06,7.06s-.35,5.11-1.05,7.06-1.72,3.44-3.05,4.46c-1.33,1.03-2.95,1.54-4.85,1.54ZM567.59,216.86c1.24,0,2.3-.4,3.16-1.21.87-.81,1.53-1.97,1.98-3.49.46-1.52.68-3.36.68-5.51s-.23-4.01-.68-5.55c-.46-1.53-1.12-2.7-1.98-3.51-.87-.81-1.92-1.21-3.16-1.21s-2.29.41-3.16,1.22-1.53,1.99-1.98,3.51c-.46,1.53-.68,3.37-.68,5.54s.23,3.99.68,5.51c.46,1.52,1.12,2.69,1.98,3.49.87.81,1.92,1.21,3.16,1.21Z"/><path class="cls-1" d="M589.67,219.7c-1.89,0-3.5-.51-4.84-1.54s-2.35-2.51-3.06-4.45c-.71-1.94-1.06-4.3-1.06-7.07s.36-5.11,1.07-7.06,1.73-3.44,3.07-4.48c1.33-1.04,2.94-1.56,4.82-1.56s3.49.52,4.83,1.56c1.34,1.04,2.36,2.53,3.07,4.48.71,1.95,1.06,4.3,1.06,7.06s-.35,5.11-1.05,7.06-1.72,3.44-3.05,4.46c-1.33,1.03-2.95,1.54-4.85,1.54ZM589.67,216.86c1.24,0,2.3-.4,3.16-1.21.87-.81,1.53-1.97,1.98-3.49.46-1.52.68-3.36.68-5.51s-.23-4.01-.68-5.55c-.46-1.53-1.12-2.7-1.98-3.51-.87-.81-1.92-1.21-3.16-1.21s-2.29.41-3.16,1.22-1.53,1.99-1.98,3.51c-.46,1.53-.68,3.37-.68,5.54s.23,3.99.68,5.51c.46,1.52,1.12,2.69,1.98,3.49.87.81,1.92,1.21,3.16,1.21Z"/><path class="cls-1" d="M621.78,219.8c-1.83,0-3.43-.3-4.78-.89s-2.41-1.42-3.17-2.49c-.76-1.07-1.2-2.31-1.3-3.73h3.33c.09.96.42,1.75.97,2.37.56.62,1.27,1.08,2.14,1.38.87.3,1.8.45,2.79.45,1.15,0,2.18-.19,3.1-.56.92-.38,1.64-.91,2.18-1.59s.8-1.48.8-2.38c0-.82-.23-1.49-.69-2s-1.07-.93-1.84-1.26c-.76-.33-1.6-.62-2.51-.87l-3.08-.87c-2.05-.58-3.65-1.41-4.79-2.5-1.14-1.08-1.71-2.47-1.71-4.15,0-1.44.39-2.69,1.16-3.77.78-1.08,1.82-1.91,3.14-2.5,1.32-.59,2.8-.89,4.44-.89s3.16.3,4.44.89c1.29.59,2.3,1.4,3.05,2.42.75,1.02,1.14,2.17,1.19,3.46h-3.18c-.15-1.24-.74-2.2-1.78-2.88-1.04-.68-2.31-1.02-3.83-1.02-1.09,0-2.05.18-2.88.54-.83.36-1.47.85-1.92,1.47-.46.62-.68,1.33-.68,2.13,0,.89.28,1.6.83,2.14.55.54,1.21.96,1.97,1.26.76.3,1.44.54,2.06.71l2.55.7c.68.18,1.44.43,2.26.75.83.32,1.62.74,2.37,1.27.75.53,1.37,1.2,1.85,2.02s.73,1.81.73,3c0,1.39-.36,2.64-1.08,3.76-.72,1.12-1.78,2-3.15,2.65s-3.05.97-5.01.97Z"/><path class="cls-1" d="M641.06,219.8c-1.21,0-2.3-.23-3.29-.68s-1.77-1.12-2.35-2c-.58-.88-.87-1.94-.87-3.2,0-1.09.22-1.98.65-2.67.43-.68,1.01-1.22,1.73-1.62.72-.39,1.52-.69,2.4-.88.88-.19,1.76-.35,2.65-.46,1.14-.15,2.07-.26,2.79-.34.72-.08,1.25-.22,1.6-.41.35-.19.52-.52.52-.99v-.1c0-.8-.15-1.47-.44-2.02-.3-.55-.74-.98-1.33-1.27s-1.33-.44-2.22-.44-1.69.14-2.34.43c-.65.29-1.18.64-1.58,1.07-.41.43-.71.86-.92,1.31l-2.96-.97c.49-1.16,1.15-2.07,1.98-2.73.83-.65,1.75-1.12,2.75-1.39s1.99-.41,2.97-.41c.64,0,1.36.08,2.18.23.81.15,1.6.46,2.36.91.76.46,1.38,1.13,1.88,2.02.49.9.74,2.09.74,3.58v12.6h-3.02v-2.6h-.21c-.22.44-.56.9-1.04,1.38s-1.1.87-1.86,1.19-1.69.48-2.77.48ZM641.59,217.08c1.14,0,2.1-.22,2.89-.67s1.38-1.02,1.79-1.73.62-1.46.62-2.23v-2.65c-.12.15-.4.28-.82.4-.42.12-.9.23-1.44.32-.54.09-1.07.17-1.57.23-.51.06-.91.11-1.21.15-.74.09-1.43.25-2.08.47-.64.22-1.16.55-1.55.97-.39.43-.58,1.01-.58,1.73,0,.66.17,1.21.51,1.66s.81.78,1.4,1.01c.59.23,1.27.34,2.03.34Z"/><path class="cls-1" d="M658.44,193.89v25.46h-3.08v-25.46h3.08Z"/><path class="cls-1" d="M671.87,200.25v2.63h-9.88v-2.63h9.88ZM664.86,195.7h3.08v18.7c0,.85.17,1.48.52,1.87.35.39.93.59,1.73.59.19,0,.44-.02.74-.07.3-.05.58-.09.83-.14l.63,2.6c-.32.11-.68.2-1.09.26-.4.06-.81.09-1.2.09-1.65,0-2.94-.44-3.86-1.31-.92-.87-1.38-2.09-1.38-3.65v-18.94Z"/><path class="cls-1" d="M681.32,219.8c-1.21,0-2.3-.23-3.29-.68s-1.77-1.12-2.35-2c-.58-.88-.87-1.94-.87-3.2,0-1.09.22-1.98.65-2.67.43-.68,1.01-1.22,1.73-1.62.72-.39,1.52-.69,2.4-.88.88-.19,1.76-.35,2.65-.46,1.14-.15,2.07-.26,2.79-.34.72-.08,1.25-.22,1.6-.41.35-.19.52-.52.52-.99v-.1c0-.8-.15-1.47-.44-2.02-.3-.55-.74-.98-1.33-1.27s-1.33-.44-2.22-.44-1.69.14-2.34.43c-.65.29-1.18.64-1.58,1.07-.41.43-.71.86-.92,1.31l-2.96-.97c.49-1.16,1.15-2.07,1.98-2.73.83-.65,1.75-1.12,2.75-1.39s1.99-.41,2.97-.41c.64,0,1.36.08,2.18.23.81.15,1.6.46,2.36.91.76.46,1.38,1.13,1.88,2.02.49.9.74,2.09.74,3.58v12.6h-3.02v-2.6h-.21c-.22.44-.56.9-1.04,1.38s-1.1.87-1.86,1.19-1.69.48-2.77.48ZM681.85,217.08c1.14,0,2.1-.22,2.89-.67s1.38-1.02,1.79-1.73.62-1.46.62-2.23v-2.65c-.12.15-.4.28-.82.4-.42.12-.9.23-1.44.32-.54.09-1.07.17-1.57.23-.51.06-.91.11-1.21.15-.74.09-1.43.25-2.08.47-.64.22-1.16.55-1.55.97-.39.43-.58,1.01-.58,1.73,0,.66.17,1.21.51,1.66s.81.78,1.4,1.01c.59.23,1.27.34,2.03.34Z"/></g></svg>