<?xml version="1.0" encoding="UTF-8"?><svg id="Capa_2" xmlns="http://www.w3.org/2000/svg" viewBox="0 0 742.94 88.62"><defs><style>.cls-1{fill:#1b2f52;}</style></defs><g id="Texto"><path class="cls-1" d="M5.74,24.93h7.84c2.83,0,5.16-.52,6.98-1.56,1.82-1.04,3.18-2.44,4.07-4.2.89-1.76,1.33-3.72,1.33-5.88s-.44-4.12-1.33-5.86c-.89-1.74-2.25-3.13-4.08-4.16s-4.16-1.55-7-1.55H1.1v36.38h4.64v-13.16ZM13.31,5.79c1.94,0,3.5.33,4.68.98,1.18.65,2.03,1.54,2.56,2.67.53,1.13.79,2.41.79,3.84s-.26,2.72-.79,3.87c-.53,1.15-1.38,2.05-2.55,2.71s-2.72.99-4.64.99h-7.62V5.79h7.57Z"/><path class="cls-1" d="M43.33,38.67c2.49,0,4.67-.59,6.54-1.76s3.33-2.82,4.37-4.93c1.04-2.12,1.56-4.57,1.56-7.37s-.52-5.33-1.56-7.46-2.5-3.77-4.37-4.94-4.05-1.76-6.54-1.76-4.64.59-6.51,1.76c-1.86,1.17-3.32,2.82-4.36,4.94s-1.56,4.61-1.56,7.46.52,5.26,1.56,7.37c1.04,2.12,2.49,3.76,4.36,4.93,1.86,1.17,4.03,1.76,6.51,1.76ZM35.38,24.61c0-1.82.29-3.51.85-5.05.57-1.55,1.44-2.79,2.61-3.75s2.67-1.43,4.49-1.43,3.35.48,4.54,1.43,2.07,2.21,2.64,3.76.85,3.23.85,5.04-.29,3.46-.85,4.99-1.45,2.78-2.64,3.72c-1.19.94-2.7,1.42-4.54,1.42s-3.32-.47-4.49-1.42c-1.17-.94-2.04-2.18-2.61-3.72s-.85-3.2-.85-4.99Z"/><path class="cls-1" d="M66.6,21c0-1.24.29-2.33.88-3.28s1.4-1.7,2.43-2.25,2.2-.82,3.5-.82c.59,0,1.14.03,1.66.1.52.07.85.11.98.15v-4.42c-.26-.02-.62-.03-1.06-.05-.45-.02-.83-.02-1.16-.02-1.63,0-3.09.42-4.38,1.26-1.29.84-2.19,1.95-2.7,3.33h-.29v-4.2h-4.25v27.29h4.39v-17.09Z"/><path class="cls-1" d="M104.86,0c-1.32,0-2.57.27-3.76.81-1.19.54-2.15,1.33-2.89,2.39-.74,1.06-1.11,2.38-1.11,3.96v3.64h-5.37v3.76h5.37v23.54h4.39V14.55h6.3v-3.76h-6.3v-2.66c0-1.32.31-2.32.93-3.01.62-.69,1.6-1.04,2.95-1.04.62,0,1.11.05,1.48.15.37.1.66.19.89.27l1.22-3.76c-.33-.15-.83-.3-1.51-.48s-1.55-.26-2.59-.26Z"/><path class="cls-1" d="M128.04,21.22c-.5.28-1.26.47-2.28.59-1.03.11-2.35.28-3.98.49-1.27.16-2.53.38-3.78.66-1.25.28-2.4.7-3.43,1.26-1.03.56-1.86,1.33-2.48,2.31-.62.98-.93,2.25-.93,3.81,0,1.79.42,3.31,1.25,4.57.83,1.25,1.95,2.21,3.36,2.86,1.41.65,2.97.98,4.7.98,1.55,0,2.86-.23,3.96-.68,1.09-.46,1.98-1.02,2.66-1.7s1.18-1.33,1.49-1.97h.29v3.71h4.32v-17.99c0-2.13-.35-3.84-1.06-5.11-.71-1.28-1.6-2.24-2.69-2.89-1.08-.65-2.21-1.09-3.37-1.31-1.16-.22-2.2-.33-3.11-.33-1.4,0-2.82.2-4.25.59-1.43.39-2.74,1.05-3.93,1.99-1.19.94-2.13,2.23-2.83,3.89l4.22,1.39c.29-.63.73-1.26,1.31-1.87.58-.61,1.33-1.12,2.26-1.53.93-.41,2.04-.61,3.34-.61s2.33.21,3.17.63c.85.42,1.48,1.03,1.9,1.82.42.79.63,1.75.63,2.89v.15c0,.67-.25,1.14-.74,1.42ZM128.78,28.22c0,1.11-.29,2.17-.88,3.19s-1.44,1.84-2.56,2.48-2.5.95-4.13.95c-1.09,0-2.06-.16-2.91-.49-.85-.33-1.51-.81-2-1.44s-.73-1.42-.73-2.37c0-1.04.28-1.87.83-2.48.55-.61,1.29-1.07,2.21-1.39.92-.32,1.91-.54,2.97-.67.42-.05,1-.12,1.72-.21.72-.09,1.47-.2,2.25-.33.77-.13,1.46-.28,2.06-.45.6-.17.99-.36,1.17-.57v3.78Z"/><path class="cls-1" d="M163.09,10.79h-4.81l-5.81,16.19c-.6,1.68-1.12,3.35-1.55,5.02-.18.69-.36,1.37-.55,2.04-.19-.67-.37-1.35-.55-2.04-.43-1.67-.96-3.34-1.58-5.02l-5.81-16.19h-4.81l10.42,27.29h4.61l10.42-27.29Z"/><path class="cls-1" d="M184.94,12.21c-1.87-1.17-4.05-1.76-6.54-1.76s-4.64.59-6.51,1.76c-1.86,1.17-3.32,2.82-4.36,4.94-1.04,2.12-1.56,4.61-1.56,7.46s.52,5.26,1.56,7.37c1.04,2.12,2.49,3.76,4.36,4.93,1.86,1.17,4.03,1.76,6.51,1.76s4.67-.59,6.54-1.76c1.87-1.17,3.33-2.82,4.37-4.93,1.04-2.12,1.56-4.57,1.56-7.37s-.52-5.33-1.56-7.46c-1.04-2.12-2.5-3.77-4.37-4.94ZM185.57,29.6c-.57,1.54-1.45,2.78-2.64,3.72-1.19.94-2.7,1.42-4.54,1.42s-3.32-.47-4.49-1.42c-1.17-.94-2.04-2.18-2.61-3.72-.57-1.54-.85-3.2-.85-4.99s.28-3.51.85-5.05c.57-1.55,1.44-2.79,2.61-3.75s2.67-1.43,4.49-1.43,3.35.48,4.54,1.43c1.19.95,2.07,2.21,2.64,3.76.57,1.55.85,3.23.85,5.04s-.29,3.46-.85,4.99Z"/><path class="cls-1" d="M210.13,14.75c.52.07.85.11.98.15v-4.42c-.26-.02-.61-.03-1.06-.05-.45-.02-.83-.02-1.16-.02-1.63,0-3.09.42-4.38,1.26-1.29.84-2.19,1.95-2.7,3.33h-.29v-4.2h-4.25v27.29h4.39v-17.09c0-1.24.29-2.33.88-3.28s1.4-1.7,2.43-2.25c1.03-.54,2.2-.82,3.5-.82.59,0,1.14.03,1.66.1Z"/><path class="cls-1" d="M234.75,36.91c1.86,1.17,4.03,1.76,6.51,1.76,1.33,0,2.6-.17,3.78-.52,1.19-.35,2.27-.86,3.25-1.54s1.82-1.49,2.53-2.44c.71-.95,1.24-2.04,1.6-3.26l-4.2-1.2c-.2.73-.5,1.41-.9,2.03-.41.62-.91,1.15-1.5,1.6-.59.45-1.27.79-2.04,1.04-.77.24-1.6.37-2.51.37-1.82,0-3.32-.47-4.49-1.42-1.17-.94-2.04-2.18-2.61-3.72-.57-1.54-.85-3.2-.85-4.99s.28-3.51.85-5.05c.57-1.55,1.44-2.79,2.61-3.75s2.67-1.43,4.49-1.43c.89,0,1.72.12,2.47.35.75.24,1.41.57,1.99,1,.58.43,1.07.94,1.48,1.53.41.59.71,1.23.9,1.93l4.22-1.2c-.38-1.19-.91-2.25-1.61-3.19-.7-.94-1.53-1.73-2.5-2.37-.97-.64-2.04-1.14-3.21-1.48s-2.42-.51-3.74-.51c-2.47,0-4.64.59-6.51,1.76-1.86,1.17-3.32,2.82-4.36,4.94-1.04,2.12-1.56,4.61-1.56,7.46s.52,5.26,1.56,7.37c1.04,2.12,2.49,3.76,4.36,4.93Z"/><path class="cls-1" d="M280.74,31.98c1.04-2.12,1.56-4.57,1.56-7.37s-.52-5.33-1.56-7.46c-1.04-2.12-2.5-3.77-4.37-4.94-1.87-1.17-4.05-1.76-6.54-1.76s-4.64.59-6.51,1.76c-1.86,1.17-3.32,2.82-4.36,4.94-1.04,2.12-1.56,4.61-1.56,7.46s.52,5.26,1.56,7.37c1.04,2.12,2.49,3.76,4.36,4.93,1.86,1.17,4.03,1.76,6.51,1.76s4.67-.59,6.54-1.76c1.87-1.17,3.33-2.82,4.37-4.93ZM274.37,33.33c-1.19.94-2.7,1.42-4.54,1.42s-3.32-.47-4.49-1.42c-1.17-.94-2.04-2.18-2.61-3.72-.57-1.54-.85-3.2-.85-4.99s.28-3.51.85-5.05c.57-1.55,1.44-2.79,2.61-3.75s2.67-1.43,4.49-1.43,3.35.48,4.54,1.43c1.19.95,2.07,2.21,2.64,3.76.57,1.55.85,3.23.85,5.04s-.29,3.46-.85,4.99c-.57,1.54-1.45,2.78-2.64,3.72Z"/><path class="cls-1" d="M306.13,21.12v16.97h4.39v-17.33c0-2.31-.39-4.23-1.16-5.75-.77-1.52-1.85-2.66-3.23-3.42-1.38-.76-3-1.14-4.83-1.14-2.07,0-3.87.53-5.41,1.59-1.2.82-2.18,2.1-2.95,3.81l-.02-5.06h-4.22v27.29h4.39v-16.36c0-1.56.3-2.89.9-3.98.6-1.09,1.42-1.92,2.47-2.49,1.04-.57,2.21-.85,3.52-.85,1.9,0,3.41.59,4.5,1.78,1.1,1.19,1.65,2.83,1.65,4.93Z"/><path class="cls-1" d="M325.56,5.12c.62-.69,1.6-1.04,2.95-1.04.62,0,1.11.05,1.48.15.37.1.66.19.89.27l1.22-3.76c-.33-.15-.83-.3-1.51-.48s-1.55-.26-2.59-.26c-1.32,0-2.57.27-3.76.81-1.19.54-2.15,1.33-2.89,2.39-.74,1.06-1.11,2.38-1.11,3.96v3.64h-5.37v3.76h5.37v23.54h4.39V14.55h6.3v-3.76h-6.3v-2.66c0-1.32.31-2.32.93-3.01Z"/><rect class="cls-1" x="336.74" y="10.79" width="4.39" height="27.29"/><path class="cls-1" d="M338.96.51c-.83,0-1.55.28-2.15.84-.6.56-.9,1.25-.9,2.06s.3,1.48.9,2.05c.6.57,1.32.85,2.15.85s1.57-.28,2.17-.85c.6-.57.9-1.25.9-2.05s-.3-1.5-.9-2.06c-.6-.56-1.33-.84-2.17-.84Z"/><path class="cls-1" d="M353.25,21c0-1.24.29-2.33.88-3.28s1.4-1.7,2.43-2.25c1.03-.54,2.2-.82,3.5-.82.59,0,1.14.03,1.66.1.52.07.85.11.98.15v-4.42c-.26-.02-.61-.03-1.06-.05-.45-.02-.83-.02-1.16-.02-1.63,0-3.09.42-4.38,1.26-1.29.84-2.19,1.95-2.7,3.33h-.29v-4.2h-4.25v27.29h4.39v-17.09Z"/><path class="cls-1" d="M400.27,11.33c-1.3-.68-2.74-1.03-4.32-1.03-1.45,0-2.79.27-4.02.81-1.23.54-2.28,1.3-3.14,2.29-.63.73-1.11,1.55-1.46,2.48-.42-1.5-1.12-2.76-2.12-3.75-1.23-1.22-2.84-1.83-4.82-1.83-1.17,0-2.3.24-3.38.73-1.08.49-2.03,1.22-2.83,2.19-.6.72-1.07,1.58-1.43,2.57l-.02-5h-4.27v27.29h4.39v-17.19c0-1.45.28-2.66.85-3.64.57-.98,1.32-1.71,2.26-2.21.94-.5,1.93-.75,2.99-.75,1.55,0,2.82.46,3.83,1.39,1.01.93,1.51,2.15,1.51,3.66v18.73h4.39v-17.82c0-1.16.24-2.18.72-3.08.48-.89,1.16-1.6,2.05-2.11.89-.51,1.94-.77,3.16-.77,1.46,0,2.75.42,3.86,1.27,1.11.85,1.66,2.25,1.66,4.22v18.29h4.39v-18.41c0-2.12-.39-3.87-1.16-5.25-.77-1.38-1.81-2.42-3.11-3.1Z"/><path class="cls-1" d="M428.87,12.08c-1.08-.65-2.21-1.09-3.37-1.31-1.16-.22-2.2-.33-3.11-.33-1.4,0-2.82.2-4.25.59-1.43.39-2.74,1.05-3.93,1.99-1.19.94-2.13,2.23-2.83,3.89l4.22,1.39c.29-.63.73-1.26,1.31-1.87.58-.61,1.33-1.12,2.26-1.53.93-.41,2.04-.61,3.34-.61s2.33.21,3.17.63c.85.42,1.48,1.03,1.9,1.82.42.79.63,1.75.63,2.89v.15c0,.67-.25,1.14-.74,1.42-.5.28-1.26.47-2.28.59-1.03.11-2.35.28-3.98.49-1.27.16-2.53.38-3.78.66-1.25.28-2.4.7-3.43,1.26-1.03.56-1.86,1.33-2.48,2.31-.62.98-.93,2.25-.93,3.81,0,1.79.42,3.31,1.25,4.57.83,1.25,1.95,2.21,3.36,2.86,1.41.65,2.97.98,4.7.98,1.55,0,2.86-.23,3.96-.68,1.09-.46,1.98-1.02,2.66-1.7s1.18-1.33,1.49-1.97h.29v3.71h4.32v-17.99c0-2.13-.35-3.84-1.06-5.11-.71-1.28-1.6-2.24-2.69-2.89ZM428.22,28.22c0,1.11-.29,2.17-.88,3.19s-1.44,1.84-2.56,2.48-2.5.95-4.13.95c-1.09,0-2.06-.16-2.91-.49-.85-.33-1.51-.81-2-1.44s-.73-1.42-.73-2.37c0-1.04.28-1.87.83-2.48.55-.61,1.29-1.07,2.21-1.39.92-.32,1.91-.54,2.97-.67.42-.05,1-.12,1.72-.21.72-.09,1.47-.2,2.25-.33.77-.13,1.46-.28,2.06-.45.6-.17.99-.36,1.17-.57v3.78Z"/><path class="cls-1" d="M463.81,34.42c-.43.07-.79.1-1.06.1-1.16,0-1.98-.28-2.48-.84-.5-.56-.74-1.45-.74-2.67V14.55h5.62v-3.76h-5.62v-6.49h-4.39v6.49h-4.1v3.76h4.1v16.8c0,2.23.66,3.97,1.98,5.21s3.16,1.87,5.52,1.87c.57,0,1.14-.04,1.72-.12.58-.08,1.09-.2,1.55-.37l-.9-3.71c-.36.07-.75.13-1.18.2Z"/><path class="cls-1" d="M488.18,27.15c0,1.55-.3,2.87-.9,3.97-.6,1.1-1.42,1.93-2.45,2.5-1.03.57-2.2.85-3.5.85-1.9,0-3.41-.59-4.52-1.78-1.11-1.19-1.66-2.83-1.66-4.93V10.79h-4.39v17.33c0,2.29.39,4.21,1.16,5.74.77,1.53,1.86,2.67,3.25,3.43,1.39.76,3.01,1.13,4.85,1.13,2,0,3.78-.52,5.33-1.56,1.23-.82,2.23-2.12,3.01-3.89v5.11h4.25V10.79h-4.42v16.36Z"/><path class="cls-1" d="M530.99,12.08c-1.08-.65-2.21-1.09-3.37-1.31-1.16-.22-2.2-.33-3.11-.33-1.4,0-2.82.2-4.25.59-1.43.39-2.74,1.05-3.93,1.99-1.19.94-2.13,2.23-2.83,3.89l4.22,1.39c.29-.63.73-1.26,1.31-1.87.58-.61,1.33-1.12,2.26-1.53.93-.41,2.04-.61,3.34-.61s2.33.21,3.17.63c.85.42,1.48,1.03,1.9,1.82.42.79.63,1.75.63,2.89v.15c0,.67-.25,1.14-.74,1.42-.5.28-1.26.47-2.28.59-1.03.11-2.35.28-3.98.49-1.27.16-2.53.38-3.78.66-1.25.28-2.4.7-3.43,1.26-1.03.56-1.86,1.33-2.48,2.31-.62.98-.93,2.25-.93,3.81,0,1.79.42,3.31,1.25,4.57.83,1.25,1.95,2.21,3.36,2.86,1.41.65,2.97.98,4.7.98,1.55,0,2.86-.23,3.96-.68,1.09-.46,1.98-1.02,2.66-1.7s1.18-1.33,1.49-1.97h.29v3.71h4.32v-17.99c0-2.13-.35-3.84-1.06-5.11-.71-1.28-1.6-2.24-2.69-2.89ZM530.35,28.22c0,1.11-.29,2.17-.88,3.19s-1.44,1.84-2.56,2.48-2.5.95-4.13.95c-1.09,0-2.06-.16-2.91-.49-.85-.33-1.51-.81-2-1.44s-.73-1.42-.73-2.37c0-1.04.28-1.87.83-2.48.55-.61,1.29-1.07,2.21-1.39.92-.32,1.91-.54,2.97-.67.42-.05,1-.12,1.72-.21.72-.09,1.47-.2,2.25-.33.77-.13,1.46-.28,2.06-.45.6-.17.99-.36,1.17-.57v3.78Z"/><path class="cls-1" d="M555.22,23.02l-4.13-.98c-1.6-.37-2.76-.87-3.49-1.48s-1.1-1.42-1.1-2.43c0-1.14.54-2.08,1.62-2.83,1.08-.75,2.44-1.12,4.07-1.12,1.76,0,3.07.4,3.94,1.2.87.8,1.49,1.68,1.87,2.66l3.98-1.03c-.41-1.29-1.02-2.42-1.84-3.41-.82-.98-1.89-1.76-3.2-2.32-1.31-.56-2.9-.84-4.77-.84s-3.67.34-5.19,1.01c-1.52.68-2.72,1.61-3.6,2.81s-1.32,2.58-1.32,4.14c0,1.92.6,3.5,1.81,4.72,1.2,1.23,3.04,2.14,5.52,2.72l4.54,1.07c1.35.31,2.36.78,3.02,1.4.66.63.99,1.41.99,2.36,0,1.12-.57,2.09-1.7,2.91-1.13.81-2.65,1.22-4.55,1.22-1.63,0-2.98-.35-4.06-1.05-1.08-.7-1.82-1.8-2.21-3.3l-4.17,1c.33,1.56.96,2.88,1.9,3.96.94,1.07,2.14,1.88,3.6,2.43,1.46.54,3.12.82,4.99.82,2.13,0,4.01-.36,5.63-1.07,1.62-.72,2.88-1.7,3.79-2.94.9-1.25,1.35-2.67,1.35-4.26,0-1.87-.59-3.42-1.78-4.65-1.19-1.23-3.02-2.14-5.49-2.72Z"/><path class="cls-1" d="M571.07.51c-.83,0-1.55.28-2.15.84-.6.56-.9,1.25-.9,2.06s.3,1.48.9,2.05c.6.57,1.32.85,2.15.85s1.57-.28,2.17-.85c.6-.57.9-1.25.9-2.05s-.3-1.5-.9-2.06c-.6-.56-1.33-.84-2.17-.84Z"/><rect class="cls-1" x="568.85" y="10.79" width="4.39" height="27.29"/><path class="cls-1" d="M593.73,23.02l-4.13-.98c-1.6-.37-2.76-.87-3.49-1.48s-1.1-1.42-1.1-2.43c0-1.14.54-2.08,1.62-2.83,1.08-.75,2.44-1.12,4.07-1.12,1.76,0,3.07.4,3.94,1.2.87.8,1.49,1.68,1.87,2.66l3.98-1.03c-.41-1.29-1.02-2.42-1.84-3.41-.82-.98-1.89-1.76-3.2-2.32-1.31-.56-2.9-.84-4.77-.84s-3.67.34-5.19,1.01c-1.52.68-2.72,1.61-3.6,2.81s-1.32,2.58-1.32,4.14c0,1.92.6,3.5,1.81,4.72,1.2,1.23,3.04,2.14,5.52,2.72l4.54,1.07c1.35.31,2.36.78,3.02,1.4.66.63.99,1.41.99,2.36,0,1.12-.57,2.09-1.7,2.91-1.13.81-2.65,1.22-4.55,1.22-1.63,0-2.98-.35-4.06-1.05-1.08-.7-1.82-1.8-2.21-3.3l-4.17,1c.33,1.56.96,2.88,1.9,3.96.94,1.07,2.14,1.88,3.6,2.43,1.46.54,3.12.82,4.99.82,2.13,0,4.01-.36,5.63-1.07,1.62-.72,2.88-1.7,3.79-2.94.9-1.25,1.35-2.67,1.35-4.26,0-1.87-.59-3.42-1.78-4.65-1.19-1.23-3.02-2.14-5.49-2.72Z"/><path class="cls-1" d="M616.76,34.42c-.43.07-.79.1-1.06.1-1.16,0-1.98-.28-2.48-.84-.5-.56-.74-1.45-.74-2.67V14.55h5.62v-3.76h-5.62v-6.49h-4.39v6.49h-4.1v3.76h4.1v16.8c0,2.23.66,3.97,1.98,5.21s3.16,1.87,5.52,1.87c.57,0,1.14-.04,1.72-.12.58-.08,1.09-.2,1.55-.37l-.9-3.71c-.36.07-.75.13-1.18.2Z"/><path class="cls-1" d="M642.3,13.49c-1.15-1.07-2.43-1.84-3.83-2.32-1.41-.48-2.84-.72-4.28-.72-2.47,0-4.63.6-6.48,1.81-1.85,1.21-3.28,2.87-4.29,5-1.01,2.13-1.51,4.6-1.51,7.4s.52,5.25,1.55,7.35c1.03,2.1,2.51,3.74,4.42,4.91,1.91,1.17,4.19,1.76,6.82,1.76,1.87,0,3.55-.29,5.04-.88,1.49-.59,2.74-1.4,3.75-2.44,1.01-1.04,1.72-2.25,2.15-3.61l-4.25-1.17c-.34.93-.83,1.71-1.46,2.33s-1.39,1.09-2.27,1.4c-.88.31-1.86.46-2.93.46-1.66,0-3.12-.36-4.38-1.09-1.26-.72-2.24-1.79-2.94-3.2-.63-1.27-.96-2.79-1.02-4.55h19.7v-1.83c0-2.52-.34-4.65-1.03-6.4-.68-1.74-1.6-3.14-2.75-4.21ZM627.27,18.71c.62-1.29,1.51-2.34,2.69-3.15s2.58-1.21,4.22-1.21,3.02.4,4.13,1.18c1.11.79,1.94,1.88,2.5,3.27.41,1.03.67,2.16.78,3.41h-15.21c.08-1.23.37-2.4.89-3.5Z"/><path class="cls-1" d="M669.8,11.58c-1.38-.76-3-1.14-4.83-1.14-2.07,0-3.87.53-5.41,1.59-1.2.82-2.18,2.1-2.95,3.81l-.02-5.06h-4.22v27.29h4.39v-16.36c0-1.56.3-2.89.9-3.98.6-1.09,1.42-1.92,2.47-2.49,1.04-.57,2.21-.85,3.52-.85,1.9,0,3.41.59,4.5,1.78,1.1,1.19,1.65,2.83,1.65,4.93v16.97h4.39v-17.33c0-2.31-.39-4.23-1.16-5.75-.77-1.52-1.85-2.66-3.23-3.42Z"/><path class="cls-1" d="M699.07,31.74c-.41.62-.91,1.15-1.5,1.6-.59.45-1.27.79-2.04,1.04-.77.24-1.6.37-2.51.37-1.82,0-3.32-.47-4.49-1.42-1.17-.94-2.04-2.18-2.61-3.72-.57-1.54-.85-3.2-.85-4.99s.28-3.51.85-5.05c.57-1.55,1.44-2.79,2.61-3.75s2.67-1.43,4.49-1.43c.89,0,1.72.12,2.47.35.75.24,1.41.57,1.99,1,.58.43,1.07.94,1.48,1.53.41.59.71,1.23.9,1.93l4.22-1.2c-.38-1.19-.91-2.25-1.61-3.19-.7-.94-1.53-1.73-2.5-2.37-.97-.64-2.04-1.14-3.21-1.48s-2.42-.51-3.74-.51c-2.47,0-4.64.59-6.51,1.76-1.86,1.17-3.32,2.82-4.36,4.94-1.04,2.12-1.56,4.61-1.56,7.46s.52,5.26,1.56,7.37c1.04,2.12,2.49,3.76,4.36,4.93,1.86,1.17,4.03,1.76,6.51,1.76,1.33,0,2.6-.17,3.78-.52,1.19-.35,2.27-.86,3.25-1.54s1.82-1.49,2.53-2.44c.71-.95,1.24-2.04,1.6-3.26l-4.2-1.2c-.2.73-.5,1.41-.9,2.03Z"/><path class="cls-1" d="M712.7.51c-.83,0-1.55.28-2.15.84-.6.56-.9,1.25-.9,2.06s.3,1.48.9,2.05c.6.57,1.32.85,2.15.85s1.57-.28,2.17-.85c.6-.57.9-1.25.9-2.05s-.3-1.5-.9-2.06c-.6-.56-1.33-.84-2.17-.84Z"/><rect class="cls-1" x="710.47" y="10.79" width="4.39" height="27.29"/><path class="cls-1" d="M741.88,14.98c-.71-1.28-1.6-2.24-2.69-2.89-1.08-.65-2.21-1.09-3.37-1.31-1.16-.22-2.2-.33-3.11-.33-1.4,0-2.82.2-4.25.59-1.43.39-2.74,1.05-3.93,1.99-1.19.94-2.13,2.23-2.83,3.89l4.22,1.39c.29-.63.73-1.26,1.31-1.87.58-.61,1.33-1.12,2.26-1.53.93-.41,2.04-.61,3.34-.61s2.33.21,3.17.63c.85.42,1.48,1.03,1.9,1.82.42.79.63,1.75.63,2.89v.15c0,.67-.25,1.14-.74,1.42-.5.28-1.26.47-2.28.59-1.03.11-2.35.28-3.98.49-1.27.16-2.53.38-3.78.66-1.25.28-2.4.7-3.43,1.26-1.03.56-1.86,1.33-2.48,2.31-.62.98-.93,2.25-.93,3.81,0,1.79.42,3.31,1.25,4.57.83,1.25,1.95,2.21,3.36,2.86,1.41.65,2.97.98,4.7.98,1.55,0,2.86-.23,3.96-.68,1.09-.46,1.98-1.02,2.66-1.7s1.18-1.33,1.49-1.97h.29v3.71h4.32v-17.99c0-2.13-.35-3.84-1.06-5.11ZM738.55,28.22c0,1.11-.29,2.17-.88,3.19s-1.44,1.84-2.56,2.48-2.5.95-4.13.95c-1.09,0-2.06-.16-2.91-.49-.85-.33-1.51-.81-2-1.44s-.73-1.42-.73-2.37c0-1.04.28-1.87.83-2.48.55-.61,1.29-1.07,2.21-1.39.92-.32,1.91-.54,2.97-.67.42-.05,1-.12,1.72-.21.72-.09,1.47-.2,2.25-.33.77-.13,1.46-.28,2.06-.45.6-.17.99-.36,1.17-.57v3.78Z"/><polygon class="cls-1" points="23.29 66.41 7.45 66.41 7.45 51.71 0 51.71 0 88.09 7.45 88.09 7.45 72.58 23.29 72.58 23.29 88.09 30.76 88.09 30.76 51.71 23.29 51.71 23.29 66.41"/><path class="cls-1" d="M56.38,62.6c-1.1-.73-2.34-1.27-3.72-1.62s-2.81-.53-4.27-.53c-2.03,0-3.86.29-5.48.88-1.62.59-2.97,1.43-4.07,2.54-1.09,1.11-1.87,2.46-2.34,4.05l6.71,1.1c.21-.59.54-1.11.98-1.59.44-.47,1.01-.85,1.71-1.13s1.52-.43,2.47-.43,1.69.14,2.33.43c.64.29,1.13.7,1.45,1.23s.49,1.2.49,1.98v.12c0,.59-.22,1.03-.67,1.33-.45.3-1.16.52-2.12.66-.97.14-2.24.29-3.82.45-1.35.13-2.64.36-3.87.68-1.23.33-2.33.8-3.3,1.42-.97.62-1.73,1.44-2.29,2.47s-.84,2.29-.84,3.81c0,1.81.39,3.32,1.18,4.53.79,1.21,1.87,2.12,3.25,2.73,1.38.61,2.92.92,4.65.92,1.35,0,2.54-.19,3.58-.56,1.03-.37,1.92-.88,2.65-1.53s1.32-1.39,1.76-2.23h.24v3.78h6.93v-18.38c0-1.64-.32-3.06-.96-4.24-.64-1.18-1.51-2.14-2.61-2.87ZM52.69,78.32c0,.96-.24,1.83-.73,2.61s-1.17,1.4-2.04,1.86c-.87.46-1.88.68-3.04.68-.8,0-1.51-.12-2.12-.37s-1.11-.61-1.46-1.09-.54-1.07-.54-1.77c0-.75.19-1.36.56-1.84s.9-.87,1.59-1.16,1.47-.5,2.37-.63c.41-.05.87-.11,1.39-.2.52-.08,1.05-.17,1.59-.27s1.03-.21,1.46-.34c.44-.13.76-.28.98-.44v2.95Z"/><path class="cls-1" d="M81.45,72.29l-4.91-.98c-1.29-.26-2.19-.63-2.72-1.1-.53-.47-.79-1.05-.79-1.73,0-.85.41-1.52,1.22-2.03.81-.5,1.82-.76,3.03-.76,1.33,0,2.4.3,3.19.89s1.32,1.35,1.6,2.28l6.49-1.15c-.33-1.48-.98-2.77-1.95-3.86-.98-1.09-2.26-1.93-3.83-2.53s-3.44-.89-5.59-.89c-2.31,0-4.32.34-6.03,1.03s-3.04,1.66-4,2.92c-.96,1.26-1.44,2.77-1.44,4.53,0,2.04.65,3.7,1.95,4.99,1.3,1.29,3.27,2.21,5.91,2.75l4.71.98c1.19.24,2.07.59,2.65,1.05.58.46.87,1.04.87,1.76,0,.81-.4,1.49-1.21,2.01-.8.53-1.91.79-3.31.79-1.5,0-2.7-.32-3.59-.95s-1.52-1.59-1.88-2.86l-6.81,1.17c.31,1.69,1,3.14,2.08,4.33,1.08,1.2,2.46,2.11,4.15,2.73,1.69.63,3.64.94,5.83.94,2.39,0,4.5-.37,6.34-1.12,1.83-.75,3.27-1.79,4.31-3.14s1.56-2.91,1.56-4.7c0-1.95-.64-3.54-1.93-4.75-1.29-1.21-3.25-2.09-5.88-2.62Z"/><path class="cls-1" d="M106.32,82.53c-.5.07-.9.11-1.17.11-.9,0-1.53-.21-1.92-.62-.38-.42-.57-1.05-.57-1.92v-13.72h5.1v-5.59h-5.1v-6.49h-7.32v6.49h-3.76v5.59h3.76v14.36c0,2.49.72,4.4,2.17,5.74,1.45,1.33,3.54,2,6.27,2,.73,0,1.5-.05,2.31-.15.81-.1,1.62-.27,2.43-.51l-1.05-5.49c-.26.07-.64.13-1.15.21Z"/><path class="cls-1" d="M131.97,62.6c-1.1-.73-2.34-1.27-3.72-1.62-1.38-.35-2.81-.53-4.27-.53-2.04,0-3.86.29-5.48.88-1.62.59-2.97,1.43-4.06,2.54-1.09,1.11-1.87,2.46-2.34,4.05l6.71,1.1c.21-.59.54-1.11.98-1.59.44-.47,1.01-.85,1.71-1.13.7-.29,1.52-.43,2.47-.43s1.69.14,2.33.43c.64.29,1.13.7,1.45,1.23.33.54.49,1.2.49,1.98v.12c0,.59-.22,1.03-.67,1.33-.45.3-1.16.52-2.12.66-.97.14-2.24.29-3.82.45-1.35.13-2.64.36-3.87.68-1.23.33-2.33.8-3.3,1.42-.97.62-1.73,1.44-2.29,2.47-.56,1.03-.84,2.29-.84,3.81,0,1.81.39,3.32,1.18,4.53.79,1.21,1.87,2.12,3.25,2.73,1.38.61,2.92.92,4.65.92,1.35,0,2.54-.19,3.58-.56,1.03-.37,1.92-.88,2.65-1.53s1.32-1.39,1.76-2.23h.24v3.78h6.93v-18.38c0-1.64-.32-3.06-.96-4.24-.64-1.18-1.51-2.14-2.61-2.87ZM128.27,78.32c0,.96-.24,1.83-.73,2.61s-1.17,1.4-2.04,1.86c-.87.46-1.88.68-3.04.68-.8,0-1.51-.12-2.12-.37-.62-.24-1.11-.61-1.46-1.09-.36-.48-.54-1.07-.54-1.77,0-.75.19-1.36.56-1.84.37-.48.9-.87,1.59-1.16s1.47-.5,2.37-.63c.41-.05.87-.11,1.39-.2.52-.08,1.05-.17,1.59-.27s1.03-.21,1.46-.34c.44-.13.76-.28.98-.44v2.95Z"/><path class="cls-1" d="M174.68,63.88c-1.17-1.15-2.53-2.01-4.08-2.58-1.55-.57-3.21-.85-5-.85-2.65,0-4.96.59-6.93,1.78-1.97,1.19-3.49,2.84-4.57,4.96-1.07,2.12-1.61,4.58-1.61,7.4s.54,5.37,1.62,7.47c1.08,2.1,2.63,3.72,4.65,4.86,2.02,1.14,4.42,1.71,7.2,1.71,2.13,0,4.02-.31,5.65-.93,1.64-.62,3-1.49,4.09-2.62,1.09-1.13,1.86-2.45,2.29-3.94l-6.64-1.25c-.26.7-.64,1.29-1.13,1.77-.5.48-1.1.84-1.79,1.09-.7.24-1.48.37-2.34.37-1.27,0-2.38-.27-3.33-.81-.95-.54-1.69-1.34-2.22-2.42-.48-.97-.73-2.16-.77-3.54h18.66v-2.05c0-2.34-.33-4.38-.99-6.1-.66-1.72-1.57-3.16-2.75-4.31ZM162.44,66.85c.89-.59,1.97-.88,3.24-.88s2.31.29,3.16.87c.86.58,1.5,1.39,1.93,2.44.3.73.49,1.56.58,2.48h-11.56c.08-.92.3-1.77.64-2.53.46-1,1.13-1.79,2.01-2.38Z"/><rect class="cls-1" x="183.42" y="51.71" width="7.32" height="36.38"/><polygon class="cls-1" points="207.96 57.35 207.96 64.18 216.29 58.28 216.53 58.28 216.53 88.09 223.98 88.09 223.98 51.71 215.99 51.71 207.96 57.35"/><path class="cls-1" d="M252.81,67.4c-1.03-1.07-2.23-1.89-3.63-2.48-1.39-.59-2.91-.88-4.55-.88s-2.98.29-4.26.85c-1.28.57-2.24,1.29-2.89,2.17h-.2l.93-9.2h15.84v-6.15h-22.02l-1.73,19.09,6.69,1.17c.55-.73,1.33-1.31,2.33-1.75,1-.43,2.05-.65,3.14-.65,1.25,0,2.36.28,3.31.83.95.55,1.7,1.33,2.25,2.33.55,1,.82,2.14.82,3.43s-.27,2.42-.81,3.39-1.27,1.74-2.21,2.28c-.94.54-2.01.82-3.23.82-1.03,0-1.97-.2-2.83-.6-.86-.4-1.56-.96-2.09-1.68-.53-.72-.82-1.56-.87-2.5h-7.28c.06,2.07.66,3.91,1.79,5.52,1.13,1.61,2.67,2.88,4.62,3.8,1.94.92,4.16,1.38,6.65,1.38,2.67,0,5.02-.54,7.04-1.62,2.03-1.08,3.61-2.57,4.74-4.46,1.13-1.89,1.7-4.05,1.7-6.49,0-1.74-.29-3.34-.85-4.81-.57-1.46-1.37-2.73-2.39-3.8Z"/><path class="cls-1" d="M291.26,65.38h-.24c-.31-.72-.78-1.46-1.42-2.22-.63-.76-1.46-1.41-2.49-1.93-1.03-.52-2.31-.78-3.86-.78-2.02,0-3.87.52-5.54,1.56-1.68,1.04-3.02,2.6-4.03,4.69-1.01,2.08-1.51,4.68-1.51,7.79s.49,5.59,1.46,7.68,2.31,3.68,3.99,4.76c1.69,1.08,3.57,1.62,5.65,1.62,1.5,0,2.76-.25,3.78-.76,1.03-.5,1.86-1.13,2.5-1.87.64-.74,1.13-1.48,1.45-2.21h.37v4.37h7.2v-36.38h-7.32v13.67ZM290.72,78.77c-.46,1.23-1.12,2.18-2,2.87s-1.94,1.03-3.17,1.03-2.34-.35-3.21-1.05c-.87-.7-1.53-1.67-1.98-2.91-.45-1.24-.67-2.65-.67-4.25s.22-3,.66-4.22,1.09-2.18,1.96-2.88c.87-.7,1.95-1.05,3.24-1.05s2.32.34,3.2,1.01,1.54,1.62,1.99,2.83c.45,1.21.67,2.65.67,4.31s-.23,3.08-.68,4.31Z"/><path class="cls-1" d="M325.88,63.88c-1.17-1.15-2.53-2.01-4.08-2.58-1.55-.57-3.21-.85-5-.85-2.65,0-4.96.59-6.93,1.78-1.97,1.19-3.49,2.84-4.57,4.96-1.07,2.12-1.61,4.58-1.61,7.4s.54,5.37,1.62,7.47c1.08,2.1,2.63,3.72,4.65,4.86,2.02,1.14,4.42,1.71,7.2,1.71,2.13,0,4.02-.31,5.65-.93,1.64-.62,3-1.49,4.09-2.62,1.09-1.13,1.86-2.45,2.29-3.94l-6.64-1.25c-.26.7-.64,1.29-1.13,1.77-.5.48-1.1.84-1.79,1.09-.7.24-1.48.37-2.34.37-1.27,0-2.38-.27-3.33-.81-.95-.54-1.69-1.34-2.22-2.42-.48-.97-.73-2.16-.77-3.54h18.66v-2.05c0-2.34-.33-4.38-.99-6.1-.66-1.72-1.57-3.16-2.75-4.31ZM313.64,66.85c.89-.59,1.97-.88,3.24-.88s2.31.29,3.16.87c.86.58,1.5,1.39,1.93,2.44.3.73.49,1.56.58,2.48h-11.56c.08-.92.3-1.77.64-2.53.46-1,1.13-1.79,2.01-2.38Z"/><path class="cls-1" d="M361.89,77.25c0,1.76-.42,3.08-1.27,3.98-.85.9-1.99,1.34-3.44,1.34s-2.6-.45-3.45-1.34c-.86-.89-1.28-2.21-1.28-3.96v-2.25h-7.45v2.12c0,3.66,1.09,6.48,3.26,8.46,2.17,1.98,5.15,2.97,8.92,2.97s6.71-.99,8.86-2.97,3.22-4.81,3.22-8.48v-25.42h-7.37v25.54Z"/><path class="cls-1" d="M393.24,76.59c0,1.21-.22,2.23-.67,3.09-.45.85-1.07,1.51-1.87,1.95-.8.45-1.72.67-2.76.67-1.53,0-2.73-.48-3.61-1.44-.88-.96-1.32-2.29-1.32-3.98v-16.09h-7.32v17.36c0,2.13.39,3.97,1.16,5.51.77,1.54,1.87,2.72,3.28,3.54s3.07,1.23,4.96,1.23c2.26,0,4.13-.62,5.6-1.86,1.23-1.03,2.18-2.46,2.88-4.23l.08,5.75h6.93v-27.29h-7.35v15.8Z"/><rect class="cls-1" x="406.81" y="51.71" width="7.32" height="36.38"/><path class="cls-1" d="M424.02,49.71c-1.11,0-2.05.37-2.83,1.1s-1.17,1.62-1.17,2.66.39,1.93,1.17,2.66,1.72,1.1,2.83,1.1,2.05-.37,2.84-1.1c.79-.73,1.18-1.62,1.18-2.66s-.39-1.93-1.18-2.66c-.79-.73-1.74-1.1-2.84-1.1Z"/><rect class="cls-1" x="420.36" y="60.79" width="7.32" height="27.29"/><path class="cls-1" d="M453.24,62.22c-1.99-1.18-4.37-1.77-7.12-1.77s-5.1.59-7.1,1.77-3.54,2.82-4.63,4.93c-1.08,2.11-1.62,4.58-1.62,7.41s.54,5.25,1.62,7.36c1.08,2.11,2.62,3.75,4.63,4.93s4.37,1.77,7.1,1.77,5.12-.59,7.12-1.77c1.99-1.18,3.53-2.82,4.61-4.93,1.08-2.11,1.62-4.56,1.62-7.36s-.54-5.3-1.62-7.41c-1.08-2.11-2.62-3.75-4.61-4.93ZM451.37,78.8c-.44,1.26-1.1,2.25-1.98,2.98s-1.97,1.09-3.27,1.09-2.39-.36-3.26-1.09c-.87-.72-1.53-1.72-1.96-2.98s-.66-2.68-.66-4.26.22-3.04.66-4.3c.44-1.25,1.09-2.24,1.96-2.95.87-.72,1.96-1.07,3.26-1.07s2.39.36,3.27,1.07c.88.72,1.54,1.7,1.98,2.95.44,1.25.66,2.69.66,4.3s-.22,3-.66,4.26Z"/></g></svg>