<?xml version="1.0" encoding="UTF-8"?><svg id="Capa_2" xmlns="http://www.w3.org/2000/svg" viewBox="0 0 559.83 180.2"><defs><style>.cls-1{fill:#0d2f59;}</style></defs><g id="Texto"><path class="cls-1" d="M5.44,8.24c.27.19.4.43.4.72,0,.37-.21.71-.62,1-.41.29-.97.44-1.66.44-.43,0-.77-.09-1.04-.28s-.4-.43-.4-.72c0-.4.21-.74.64-1.02.43-.28.95-.42,1.56-.42.48,0,.85.09,1.12.28ZM4.92,27.8c.29,3.68.44,6,.44,6.96,0,.61-.11,1.05-.32,1.32-.21.27-.56.4-1.04.4-.45,0-.79-.13-1-.4-.21-.27-.32-.71-.32-1.32,0-.93.15-3.25.44-6.96.45-5.63.71-10.05.76-13.28,0-.08.05-.12.14-.12s.14.04.14.12c.05,3.15.31,7.57.76,13.28Z"/><path class="cls-1" d="M11.64,28.2c-.13.03-.21,0-.22-.08-.01-.08.06-.12.22-.12,1.01-.05,1.75-.28,2.2-.68.45-.4.68-1.13.68-2.2V3.12c0-1.07-.23-1.8-.68-2.2-.45-.4-1.19-.63-2.2-.68-.16,0-.23-.04-.22-.12.01-.08.09-.11.22-.08l2,.08h4.16c.59,0,1.36-.04,2.32-.12.16,0,.25.04.26.12.01.08-.07.12-.26.12-1.2.05-2.06.28-2.58.68-.52.4-.78,1.13-.78,2.2v23.24c0,.61.1,1.02.3,1.22.2.2.5.3.9.3,3.36,0,5.98-.14,7.86-.42,1.88-.28,3.17-.74,3.86-1.38.53-.48.97-1.33,1.3-2.56.33-1.23.69-3.04,1.06-5.44.03-.13.08-.19.16-.18s.11.09.08.22c-.61,4.08-.92,7.17-.92,9.28,0,.4-.03.68-.1.84s-.19.24-.38.24c-.13,0-.81-.06-2.04-.18s-3.47-.18-6.72-.18h-8.48l-2,.08Z"/><path class="cls-1" d="M39,27.5c-1.33-.76-2.39-1.83-3.18-3.2-.79-1.37-1.18-2.95-1.18-4.74s.43-3.34,1.3-4.82c.87-1.48,2.06-2.67,3.58-3.56,1.52-.89,3.2-1.34,5.04-1.34,1.6,0,3.08.38,4.44,1.14,1.36.76,2.43,1.83,3.22,3.2.79,1.37,1.18,2.93,1.18,4.66s-.44,3.35-1.32,4.86c-.88,1.51-2.09,2.71-3.62,3.6-1.53.89-3.22,1.34-5.06,1.34-1.6,0-3.07-.38-4.4-1.14ZM49.64,25.96c1.25-1.23,1.88-3.05,1.88-5.48,0-1.6-.35-3.15-1.06-4.66-.71-1.51-1.69-2.74-2.94-3.7-1.25-.96-2.63-1.44-4.12-1.44-2.16,0-3.85.6-5.06,1.8-1.21,1.2-1.82,3.01-1.82,5.44,0,1.6.35,3.16,1.04,4.68.69,1.52,1.65,2.77,2.86,3.74,1.21.97,2.54,1.46,3.98,1.46,2.24,0,3.99-.61,5.24-1.84Z"/><path class="cls-1" d="M96.78,22.62c.09-.01.14.06.14.22,0,1.89-.31,3.33-.94,4.3-.63.97-1.35,1.46-2.18,1.46-.69,0-1.25-.29-1.66-.88-.41-.59-.77-1.48-1.06-2.68l-2.56-10.32c-.37-1.44-.88-2.43-1.52-2.98-.64-.55-1.51-.82-2.6-.82-1.49,0-2.63.49-3.4,1.48s-1.24,2.31-1.4,3.96l1.48,9.24c.13.77.35,1.33.66,1.68s.63.49.98.44c.11,0,.17.03.18.08.01.05-.03.09-.14.12-.24.24-.51.41-.8.52-.29.11-.59.13-.88.08-.53-.11-.99-.36-1.36-.76-.37-.4-.61-.93-.72-1.6l-1.68-10.56c-.29-1.71-.8-2.91-1.52-3.62-.72-.71-1.64-1.06-2.76-1.06-1.33,0-2.43.6-3.3,1.8-.87,1.2-1.37,2.76-1.5,4.68v8.28c0,.77.21,1.33.64,1.68s1.01.55,1.76.6c.11,0,.16.04.16.12s-.05.12-.16.12c-.51-.03-1.64-.04-3.4-.04s-2.92.01-3.48.04c-.11,0-.16-.05-.16-.14s.05-.14.16-.14c.83,0,1.43-.15,1.8-.46.37-.31.56-.91.56-1.82v-12c0-.64-.11-1.11-.34-1.4-.23-.29-.61-.44-1.14-.44-.24,0-.55.04-.92.12-.08.03-.13,0-.16-.06-.03-.07-.01-.11.04-.14,2.21-.53,3.75-1.09,4.6-1.68.11-.08.2-.1.28-.06s.12.09.12.14c-.11.72-.19,1.39-.26,2.02-.07.63-.1,1.35-.1,2.18v.92c.37-1.52,1.13-2.81,2.26-3.86,1.13-1.05,2.37-1.58,3.7-1.58,1.23,0,2.31.43,3.26,1.28s1.59,2.23,1.94,4.12c.29-1.52.98-2.8,2.06-3.84s2.38-1.56,3.9-1.56c1.41,0,2.55.34,3.4,1.02.85.68,1.49,1.89,1.92,3.62l2.52,10.2c.4,1.68.96,2.52,1.68,2.52.21,0,.45-.12.72-.36.27-.24.51-.68.72-1.32.21-.64.32-1.52.32-2.64,0-.13.05-.21.14-.22Z"/><path class="cls-1" d="M117.74,22.62c.09-.01.14.06.14.22,0,1.89-.31,3.33-.94,4.3-.63.97-1.35,1.46-2.18,1.46-.69,0-1.23-.29-1.62-.88-.39-.59-.71-1.49-.98-2.72l-.4-2c-.56,1.65-1.5,3-2.82,4.04-1.32,1.04-2.75,1.56-4.3,1.56-2.03,0-3.57-.57-4.64-1.7-1.07-1.13-1.6-2.49-1.6-4.06,0-.91.35-1.71,1.04-2.4s1.6-1.23,2.72-1.62,2.32-.58,3.6-.58c1.68,0,3.37.13,5.08.4l-.8-3.8c-.32-1.39-.85-2.41-1.6-3.08-.75-.67-1.89-1-3.44-1-1.09,0-2.13.23-3.12.7-.99.47-1.81,1.17-2.46,2.12-.65.95-.99,2.11-1.02,3.5,0,.16-.05.24-.14.24s-.14-.08-.14-.24c.05-1.44.47-2.71,1.26-3.82.79-1.11,1.78-1.96,2.98-2.56,1.2-.6,2.4-.9,3.6-.9,1.92,0,3.35.41,4.3,1.22.95.81,1.61,2.09,1.98,3.82l2.04,9.76c.19.83.4,1.46.64,1.9.24.44.55.66.92.66.21,0,.45-.12.72-.36.27-.24.51-.68.72-1.32.21-.64.32-1.52.32-2.64,0-.13.05-.21.14-.22ZM111.28,20.84l-.28-1.44c-1.76-.32-3.4-.48-4.92-.48-2.03,0-3.47.26-4.34.78-.87.52-1.3,1.49-1.3,2.9s.43,2.48,1.28,3.36,2.13,1.32,3.84,1.32c3.63,0,5.53-1.91,5.72-5.72.03-.21.03-.45,0-.72ZM105.16,7.8c-.03-.08.01-.16.12-.24,1.07-.93,1.87-1.76,2.4-2.48s1-1.47,1.4-2.24c.21-.43.39-.72.52-.88s.32-.25.56-.28l.52-.04c.27,0,.5.03.7.1s.3.15.3.26c0,.27-.47.87-1.4,1.8-.93.93-1.93,1.85-2.98,2.74-1.05.89-1.69,1.35-1.9,1.38-.13,0-.21-.04-.24-.12Z"/><path class="cls-1" d="M118.6,21.4c.03-.11.07-.15.14-.14.07.01.1.07.1.18-.05.64-.08,1.07-.08,1.28,0,1.87.48,3.21,1.44,4.02s2.4,1.22,4.32,1.22c1.6,0,2.85-.25,3.74-.74.89-.49,1.34-1.37,1.34-2.62-.03-1.12-.47-2.04-1.32-2.76-.85-.72-2.32-1.57-4.4-2.56-1.84-.91-3.19-1.69-4.06-2.36-.87-.67-1.3-1.48-1.3-2.44,0-.75.29-1.49.86-2.22.57-.73,1.37-1.33,2.4-1.78s2.17-.68,3.42-.68c1.57,0,2.96.21,4.16.64s1.8,1.07,1.8,1.92c0,.16-.01.28-.04.36l-.88,3.88c-.03.11-.07.15-.14.14s-.09-.07-.06-.18c.05-.64.08-1.09.08-1.36,0-1.63-.4-2.81-1.2-3.54-.8-.73-2.19-1.1-4.16-1.1-1.68,0-2.83.24-3.46.72-.63.48-.94,1.13-.94,1.96s.4,1.57,1.2,2.16,2.13,1.35,4,2.28c1.87.85,3.35,1.73,4.44,2.62,1.09.89,1.64,1.94,1.64,3.14,0,.88-.31,1.72-.94,2.52s-1.51,1.45-2.66,1.94c-1.15.49-2.45.74-3.92.74-1.97,0-3.55-.3-4.74-.9-1.19-.6-1.7-1.37-1.54-2.3l.76-4.04Z"/><path class="cls-1" d="M147.1,27.22c.44.44,1.02.69,1.74.74.11,0,.16.04.16.12s-.05.12-.16.12c-.48-.03-1.63-.04-3.44-.04s-2.93.01-3.44.04c-.11,0-.16-.05-.16-.14s.05-.14.16-.14c1.57.05,2.36-.77,2.36-2.48v-11.8c0-.64-.11-1.11-.34-1.4-.23-.29-.61-.44-1.14-.44-.24,0-.55.04-.92.12-.08.03-.13,0-.16-.06-.03-.07-.01-.11.04-.14,2.21-.53,3.75-1.09,4.6-1.68.11-.08.2-.1.28-.06s.12.09.12.14c-.11.72-.19,1.39-.26,2.02-.07.63-.1,1.35-.1,2.18v11.12c0,.75.22,1.34.66,1.78ZM143.82,3.74c-.31-.23-.46-.5-.46-.82,0-.4.19-.74.58-1.02.39-.28.89-.42,1.5-.42.48,0,.87.11,1.18.34s.46.51.46.86c0,.37-.19.7-.58.98s-.89.42-1.5.42c-.48,0-.87-.11-1.18-.34Z"/><path class="cls-1" d="M184.94,22.62c.09-.01.14.06.14.22,0,1.89-.31,3.33-.94,4.3-.63.97-1.35,1.46-2.18,1.46-.69,0-1.25-.29-1.66-.88-.41-.59-.77-1.48-1.06-2.68l-2.56-10.32c-.37-1.44-.88-2.43-1.52-2.98-.64-.55-1.51-.82-2.6-.82-1.49,0-2.63.49-3.4,1.48s-1.24,2.31-1.4,3.96l1.48,9.24c.13.77.35,1.33.66,1.68s.63.49.98.44c.11,0,.17.03.18.08.01.05-.03.09-.14.12-.24.24-.51.41-.8.52-.29.11-.59.13-.88.08-.53-.11-.99-.36-1.36-.76-.37-.4-.61-.93-.72-1.6l-1.68-10.56c-.29-1.71-.8-2.91-1.52-3.62-.72-.71-1.64-1.06-2.76-1.06-1.33,0-2.43.6-3.3,1.8-.87,1.2-1.37,2.76-1.5,4.68v8.28c0,.77.21,1.33.64,1.68s1.01.55,1.76.6c.11,0,.16.04.16.12s-.05.12-.16.12c-.51-.03-1.64-.04-3.4-.04s-2.92.01-3.48.04c-.11,0-.16-.05-.16-.14s.05-.14.16-.14c.83,0,1.43-.15,1.8-.46.37-.31.56-.91.56-1.82v-12c0-.64-.11-1.11-.34-1.4-.23-.29-.61-.44-1.14-.44-.24,0-.55.04-.92.12-.08.03-.13,0-.16-.06-.03-.07-.01-.11.04-.14,2.21-.53,3.75-1.09,4.6-1.68.11-.08.2-.1.28-.06s.12.09.12.14c-.11.72-.19,1.39-.26,2.02-.07.63-.1,1.35-.1,2.18v.92c.37-1.52,1.13-2.81,2.26-3.86,1.13-1.05,2.37-1.58,3.7-1.58,1.23,0,2.31.43,3.26,1.28s1.59,2.23,1.94,4.12c.29-1.52.98-2.8,2.06-3.84s2.38-1.56,3.9-1.56c1.41,0,2.55.34,3.4,1.02.85.68,1.49,1.89,1.92,3.62l2.52,10.2c.4,1.68.96,2.52,1.68,2.52.21,0,.45-.12.72-.36.27-.24.51-.68.72-1.32.21-.64.32-1.52.32-2.64,0-.13.05-.21.14-.22Z"/><path class="cls-1" d="M201.06,10.94c1.13.76,2.03,1.83,2.7,3.2.67,1.37,1,2.94,1,4.7s-.38,3.31-1.14,4.82c-.76,1.51-1.81,2.71-3.14,3.62s-2.83,1.36-4.48,1.36c-1.28,0-2.3-.19-3.06-.58-.76-.39-1.47-.89-2.14-1.5-.35-.35-.59-.52-.72-.52-.21,0-.32.27-.32.8v6.64c0,1.57.72,2.4,2.16,2.48.08,0,.13.04.14.12s-.03.12-.14.12c-1.07-.05-2.03-.08-2.88-.08-1.04,0-2.2.03-3.48.08-.13,0-.2-.05-.2-.14s.07-.14.2-.14c.72.03,1.25-.15,1.58-.54.33-.39.5-1.03.5-1.94V13.64c0-.64-.11-1.11-.34-1.4-.23-.29-.61-.44-1.14-.44-.24,0-.55.04-.92.12-.08.03-.13,0-.16-.06-.03-.07-.01-.11.04-.14,2.21-.53,3.73-1.09,4.56-1.68.13-.08.24-.1.32-.06s.12.09.12.14c-.19,1.07-.29,2.08-.32,3.04,0,.37.03.79.08,1.24.05.45.12.72.2.8,1.71-3.6,4.11-5.4,7.2-5.4,1.39,0,2.65.38,3.78,1.14ZM201.26,26.02c1.05-1.24,1.58-3.1,1.58-5.58,0-1.68-.28-3.22-.84-4.62-.56-1.4-1.37-2.51-2.42-3.34-1.05-.83-2.3-1.24-3.74-1.24-1.17,0-2.22.31-3.14.94-.92.63-1.64,1.51-2.16,2.64-.52,1.13-.78,2.41-.78,3.82v1.84c0,2.11.55,3.87,1.64,5.28,1.09,1.41,2.69,2.12,4.8,2.12,2.32,0,4.01-.62,5.06-1.86Z"/><path class="cls-1" d="M211.67,27.5c-1.33-.76-2.39-1.83-3.18-3.2-.79-1.37-1.18-2.95-1.18-4.74s.43-3.34,1.3-4.82c.87-1.48,2.06-2.67,3.58-3.56,1.52-.89,3.2-1.34,5.04-1.34,1.6,0,3.08.38,4.44,1.14,1.36.76,2.43,1.83,3.22,3.2.79,1.37,1.18,2.93,1.18,4.66s-.44,3.35-1.32,4.86c-.88,1.51-2.09,2.71-3.62,3.6-1.53.89-3.22,1.34-5.06,1.34-1.6,0-3.07-.38-4.4-1.14ZM222.32,25.96c1.25-1.23,1.88-3.05,1.88-5.48,0-1.6-.35-3.15-1.06-4.66-.71-1.51-1.69-2.74-2.94-3.7-1.25-.96-2.63-1.44-4.12-1.44-2.16,0-3.85.6-5.06,1.8-1.21,1.2-1.82,3.01-1.82,5.44,0,1.6.35,3.16,1.04,4.68.69,1.52,1.65,2.77,2.86,3.74,1.21.97,2.54,1.46,3.98,1.46,2.24,0,3.99-.61,5.24-1.84Z"/><path class="cls-1" d="M240.87,10.24c.69.29,1.23.68,1.6,1.16.37.48.51.97.4,1.48l-1.2,4.84c-.03.19-.08.26-.16.22s-.09-.13-.04-.26c.16-.8.24-1.51.24-2.12,0-1.41-.35-2.43-1.06-3.06-.71-.63-1.7-.94-2.98-.94-1.65,0-2.79.71-3.4,2.12-.61,1.41-.92,3.12-.92,5.12v6.88c0,.77.21,1.33.64,1.68s1.01.55,1.76.6c.11,0,.16.04.16.12s-.05.12-.16.12c-.51-.03-1.64-.04-3.4-.04s-2.92.01-3.48.04c-.11,0-.16-.05-.16-.14s.05-.14.16-.14c.83,0,1.43-.15,1.8-.46.37-.31.56-.91.56-1.82v-12c0-.64-.11-1.11-.34-1.4-.23-.29-.61-.44-1.14-.44-.24,0-.55.04-.92.12-.08.03-.13,0-.16-.06-.03-.07-.01-.11.04-.14,2.21-.53,3.75-1.09,4.6-1.68.11-.08.2-.1.28-.06s.12.09.12.14c-.11.72-.19,1.39-.26,2.02-.07.63-.1,1.35-.1,2.18v1.24c.96-3.84,2.73-5.76,5.32-5.76.77,0,1.51.15,2.2.44Z"/><path class="cls-1" d="M247.01,27.6c-.55-.67-.82-1.57-.82-2.72v-13.24c0-.37-.05-.64-.14-.8s-.33-.24-.7-.24h-1.36c-.11,0-.16-.03-.16-.1s.04-.11.12-.14c1.28-.24,2.28-.74,3-1.5s1.16-1.82,1.32-3.18c0-.13.04-.2.12-.2s.12.07.12.2c0,1.15-.05,2.45-.16,3.92v.16c0,.24.07.4.2.48s.39.12.76.12h4.04c.05,0,.07.04.04.12-.03.08-.08.12-.16.12h-3.72c-.48,0-.8.07-.96.22-.16.15-.24.43-.24.86v12.8c0,.85.2,1.54.6,2.06.4.52.91.78,1.52.78.51,0,1.03-.17,1.56-.52.53-.35,1.04-.87,1.52-1.56.08-.13.15-.19.2-.16.05.03.04.11-.04.24-.69,1.09-1.43,1.91-2.22,2.46-.79.55-1.55.82-2.3.82-.88,0-1.59-.33-2.14-1Z"/><path class="cls-1" d="M274.93,22.62c.09-.01.14.06.14.22,0,1.89-.31,3.33-.94,4.3-.63.97-1.35,1.46-2.18,1.46-.69,0-1.23-.29-1.62-.88-.39-.59-.71-1.49-.98-2.72l-.4-2c-.56,1.65-1.5,3-2.82,4.04-1.32,1.04-2.75,1.56-4.3,1.56-2.03,0-3.57-.57-4.64-1.7-1.07-1.13-1.6-2.49-1.6-4.06,0-.91.35-1.71,1.04-2.4s1.6-1.23,2.72-1.62,2.32-.58,3.6-.58c1.68,0,3.37.13,5.08.4l-.8-3.8c-.32-1.39-.85-2.41-1.6-3.08-.75-.67-1.89-1-3.44-1-1.09,0-2.13.23-3.12.7-.99.47-1.81,1.17-2.46,2.12-.65.95-.99,2.11-1.02,3.5,0,.16-.05.24-.14.24s-.14-.08-.14-.24c.05-1.44.47-2.71,1.26-3.82.79-1.11,1.78-1.96,2.98-2.56,1.2-.6,2.4-.9,3.6-.9,1.92,0,3.35.41,4.3,1.22.95.81,1.61,2.09,1.98,3.82l2.04,9.76c.19.83.4,1.46.64,1.9.24.44.55.66.92.66.21,0,.45-.12.72-.36.27-.24.51-.68.72-1.32.21-.64.32-1.52.32-2.64,0-.13.05-.21.14-.22ZM268.47,20.84l-.28-1.44c-1.76-.32-3.4-.48-4.92-.48-2.03,0-3.47.26-4.34.78-.87.52-1.3,1.49-1.3,2.9s.43,2.48,1.28,3.36,2.13,1.32,3.84,1.32c3.63,0,5.53-1.91,5.72-5.72.03-.21.03-.45,0-.72Z"/><path class="cls-1" d="M298.29,22.62c.09-.01.14.06.14.22,0,1.89-.31,3.33-.94,4.3-.63.97-1.35,1.46-2.18,1.46-.69,0-1.25-.29-1.66-.86-.41-.57-.77-1.47-1.06-2.7l-2.48-10.28c-.21-.91-.46-1.63-.74-2.16s-.7-.94-1.26-1.22c-.56-.28-1.33-.42-2.32-.42-1.07,0-2.05.29-2.96.86-.91.57-1.63,1.43-2.18,2.56-.55,1.13-.82,2.51-.82,4.14v7.16c0,.77.21,1.33.64,1.68s1.01.55,1.76.6c.11,0,.16.04.16.12s-.05.12-.16.12c-.51-.03-1.64-.04-3.4-.04s-2.92.01-3.48.04c-.11,0-.16-.05-.16-.14s.05-.14.16-.14c.83,0,1.43-.15,1.8-.46.37-.31.56-.91.56-1.82v-12c0-.64-.11-1.11-.34-1.4-.23-.29-.61-.44-1.14-.44-.24,0-.55.04-.92.12-.08.03-.13,0-.16-.06-.03-.07-.01-.11.04-.14,2.21-.53,3.75-1.09,4.6-1.68.11-.08.2-.1.28-.06s.12.09.12.14c-.11.72-.19,1.39-.26,2.02-.07.63-.1,1.35-.1,2.18v1.08c.29-1.01.8-1.95,1.52-2.8.72-.85,1.56-1.53,2.52-2.04s1.92-.76,2.88-.76c1.71,0,2.95.38,3.74,1.14.79.76,1.37,1.94,1.74,3.54l2.48,10.16c.19.83.41,1.45.68,1.88s.6.64,1,.64c.19,0,.42-.12.7-.36.28-.24.53-.68.74-1.32.21-.64.32-1.52.32-2.64,0-.13.05-.21.14-.22Z"/><path class="cls-1" d="M302.17,27.6c-.55-.67-.82-1.57-.82-2.72v-13.24c0-.37-.05-.64-.14-.8s-.33-.24-.7-.24h-1.36c-.11,0-.16-.03-.16-.1s.04-.11.12-.14c1.28-.24,2.28-.74,3-1.5s1.16-1.82,1.32-3.18c0-.13.04-.2.12-.2s.12.07.12.2c0,1.15-.05,2.45-.16,3.92v.16c0,.24.07.4.2.48s.39.12.76.12h4.04c.05,0,.07.04.04.12-.03.08-.08.12-.16.12h-3.72c-.48,0-.8.07-.96.22-.16.15-.24.43-.24.86v12.8c0,.85.2,1.54.6,2.06.4.52.91.78,1.52.78.51,0,1.03-.17,1.56-.52.53-.35,1.04-.87,1.52-1.56.08-.13.15-.19.2-.16.05.03.04.11-.04.24-.69,1.09-1.43,1.91-2.22,2.46-.79.55-1.55.82-2.3.82-.88,0-1.59-.33-2.14-1Z"/><path class="cls-1" d="M326.67,24.78c.05.04.07.1.04.18-1.04,1.25-2.19,2.17-3.44,2.76-1.25.59-2.68.88-4.28.88s-2.98-.38-4.3-1.14-2.37-1.83-3.14-3.2c-.77-1.37-1.16-2.95-1.16-4.74,0-1.89.43-3.58,1.28-5.06.85-1.48,2-2.63,3.44-3.44s3-1.22,4.68-1.22c1.87,0,3.41.55,4.64,1.66,1.23,1.11,1.84,2.55,1.84,4.34,0,.77-.15,1.64-.44,2.6l-4.04.08c-4.19.05-7.37.12-9.56.2.11,1.87.61,3.45,1.52,4.74.91,1.29,2,2.26,3.28,2.9,1.28.64,2.53.96,3.76.96.99,0,2.01-.17,3.08-.52,1.07-.35,1.96-1,2.68-1.96.03-.05.07-.06.12-.02ZM312.23,18v.44c1.44-.03,3.39-.09,5.84-.2,2.77-.11,4.72-.17,5.84-.2.19-.53.28-1.12.28-1.76,0-.99-.23-1.93-.7-2.84s-1.11-1.63-1.94-2.18c-.83-.55-1.72-.82-2.68-.82-4.43,0-6.64,2.52-6.64,7.56Z"/><path class="cls-1" d="M352.67,24.78c.05.04.07.1.04.18-1.04,1.25-2.19,2.17-3.44,2.76-1.25.59-2.68.88-4.28.88s-2.98-.38-4.3-1.14-2.37-1.83-3.14-3.2c-.77-1.37-1.16-2.95-1.16-4.74,0-1.89.43-3.58,1.28-5.06.85-1.48,2-2.63,3.44-3.44s3-1.22,4.68-1.22c1.87,0,3.41.55,4.64,1.66,1.23,1.11,1.84,2.55,1.84,4.34,0,.77-.15,1.64-.44,2.6l-4.04.08c-4.19.05-7.37.12-9.56.2.11,1.87.61,3.45,1.52,4.74.91,1.29,2,2.26,3.28,2.9,1.28.64,2.53.96,3.76.96.99,0,2.01-.17,3.08-.52,1.07-.35,1.96-1,2.68-1.96.03-.05.07-.06.12-.02ZM338.23,18v.44c1.44-.03,3.39-.09,5.84-.2,2.77-.11,4.72-.17,5.84-.2.19-.53.28-1.12.28-1.76,0-.99-.23-1.93-.7-2.84s-1.11-1.63-1.94-2.18c-.83-.55-1.72-.82-2.68-.82-4.43,0-6.64,2.52-6.64,7.56Z"/><path class="cls-1" d="M355.59,21.4c.03-.11.07-.15.14-.14.07.01.1.07.1.18-.05.64-.08,1.07-.08,1.28,0,1.87.48,3.21,1.44,4.02s2.4,1.22,4.32,1.22c1.6,0,2.85-.25,3.74-.74.89-.49,1.34-1.37,1.34-2.62-.03-1.12-.47-2.04-1.32-2.76-.85-.72-2.32-1.57-4.4-2.56-1.84-.91-3.19-1.69-4.06-2.36-.87-.67-1.3-1.48-1.3-2.44,0-.75.29-1.49.86-2.22.57-.73,1.37-1.33,2.4-1.78s2.17-.68,3.42-.68c1.57,0,2.96.21,4.16.64s1.8,1.07,1.8,1.92c0,.16-.01.28-.04.36l-.88,3.88c-.03.11-.07.15-.14.14s-.09-.07-.06-.18c.05-.64.08-1.09.08-1.36,0-1.63-.4-2.81-1.2-3.54-.8-.73-2.19-1.1-4.16-1.1-1.68,0-2.83.24-3.46.72-.63.48-.94,1.13-.94,1.96s.4,1.57,1.2,2.16,2.13,1.35,4,2.28c1.87.85,3.35,1.73,4.44,2.62,1.09.89,1.64,1.94,1.64,3.14,0,.88-.31,1.72-.94,2.52s-1.51,1.45-2.66,1.94c-1.15.49-2.45.74-3.92.74-1.97,0-3.55-.3-4.74-.9-1.19-.6-1.7-1.37-1.54-2.3l.76-4.04Z"/><path class="cls-1" d="M379.77,14.84c.76-1.52,1.8-2.74,3.12-3.66,1.32-.92,2.78-1.38,4.38-1.38,1.2,0,2.22.2,3.06.6.84.4,1.65.92,2.42,1.56.11.08.27.2.48.36.21.16.39.27.52.34.13.07.27.1.4.1.43,0,.93-.85,1.52-2.56.05-.16.13-.24.24-.24.05,0,.1.03.14.1s.05.14.02.22c-.21,1.49-.32,3.03-.32,4.6v18.6c0,1.57.71,2.4,2.12,2.48.11,0,.16.04.16.12s-.05.12-.16.12c-1.07-.05-2.01-.08-2.84-.08-1.04,0-2.2.03-3.48.08-.13,0-.2-.05-.2-.14s.07-.14.2-.14c.72.03,1.25-.15,1.58-.54.33-.39.5-1.03.5-1.94v-8c0-.85-.03-1.43-.08-1.72-.03-.24-.09-.24-.2,0-.72,1.52-1.71,2.72-2.98,3.6-1.27.88-2.75,1.32-4.46,1.32-1.39,0-2.63-.37-3.74-1.12-1.11-.75-1.97-1.8-2.6-3.16-.63-1.36-.94-2.92-.94-4.68s.38-3.32,1.14-4.84ZM381.35,22.66c.56,1.4,1.37,2.51,2.42,3.34,1.05.83,2.27,1.24,3.66,1.24,2.11,0,3.67-.66,4.68-1.98,1.01-1.32,1.52-3.15,1.52-5.5v-.44c0-2.59-.51-4.68-1.54-6.28-1.03-1.6-2.62-2.4-4.78-2.4-2.48,0-4.23.61-5.26,1.84-1.03,1.23-1.54,3.09-1.54,5.6,0,1.65.28,3.18.84,4.58Z"/><path class="cls-1" d="M419.51,22.68c.08,0,.12.07.12.2,0,1.65-.23,3-.68,4.04-.45,1.04-1.21,1.56-2.28,1.56-.77,0-1.38-.29-1.82-.88-.44-.59-.66-1.45-.66-2.6v-2.36c-.29,1.79-1.03,3.23-2.22,4.34s-2.61,1.66-4.26,1.66c-1.92,0-3.46-.65-4.62-1.96-1.16-1.31-1.74-3.24-1.74-5.8v-7.24c0-.64-.11-1.11-.34-1.4-.23-.29-.61-.44-1.14-.44-.27,0-.57.04-.92.12-.08.03-.13,0-.16-.06-.03-.07-.01-.11.04-.14,2.21-.53,3.73-1.09,4.56-1.68.13-.08.24-.1.32-.06s.12.09.12.14c-.11.72-.19,1.39-.26,2.02-.07.63-.1,1.35-.1,2.18v6.44c0,4.56,1.75,6.84,5.24,6.84,1.65,0,2.98-.63,3.98-1.9s1.5-3.14,1.5-5.62v-6.44c0-.64-.11-1.11-.34-1.4-.23-.29-.61-.44-1.14-.44-.27,0-.57.04-.92.12-.08.03-.14,0-.18-.06-.04-.07-.03-.11.02-.14.88-.21,1.75-.47,2.62-.76.87-.29,1.53-.6,1.98-.92.13-.08.23-.1.3-.06.07.04.1.09.1.14-.13.83-.22,1.51-.26,2.06-.04.55-.06,1.26-.06,2.14v10.28c0,.83.1,1.44.3,1.84.2.4.53.6.98.6.77,0,1.27-.35,1.48-1.06.21-.71.32-1.74.32-3.1,0-.13.04-.2.12-.2Z"/><path class="cls-1" d="M436.83,24.78c.05.04.07.1.04.18-1.04,1.25-2.19,2.17-3.44,2.76-1.25.59-2.68.88-4.28.88s-2.98-.38-4.3-1.14-2.37-1.83-3.14-3.2c-.77-1.37-1.16-2.95-1.16-4.74,0-1.89.43-3.58,1.28-5.06.85-1.48,2-2.63,3.44-3.44s3-1.22,4.68-1.22c1.87,0,3.41.55,4.64,1.66,1.23,1.11,1.84,2.55,1.84,4.34,0,.77-.15,1.64-.44,2.6l-4.04.08c-4.19.05-7.37.12-9.56.2.11,1.87.61,3.45,1.52,4.74.91,1.29,2,2.26,3.28,2.9,1.28.64,2.53.96,3.76.96.99,0,2.01-.17,3.08-.52,1.07-.35,1.96-1,2.68-1.96.03-.05.07-.06.12-.02ZM422.39,18v.44c1.44-.03,3.39-.09,5.84-.2,2.77-.11,4.72-.17,5.84-.2.19-.53.28-1.12.28-1.76,0-.99-.23-1.93-.7-2.84s-1.11-1.63-1.94-2.18c-.83-.55-1.72-.82-2.68-.82-4.43,0-6.64,2.52-6.64,7.56Z"/><path class="cls-1" d="M464.91,10.44c0,.08-.04.12-.12.12-.51,0-.91.17-1.22.52s-.66.97-1.06,1.88l-6.04,13.88c-.05.19-.05.33,0,.44l.12.32c.11.13.08.25-.08.36l-1.56.52c-.13.08-.25.03-.36-.16l-6.64-15.36c-.4-.91-.75-1.53-1.06-1.88s-.71-.52-1.22-.52c-.11,0-.16-.04-.16-.12s.05-.12.16-.12c.29.03.84.04,1.64.04h2.48c1.36,0,2.31-.01,2.84-.04.13,0,.2.04.2.12s-.07.12-.2.12c-1.73,0-2.6.49-2.6,1.48,0,.32.07.63.2.92l5.84,13.44c.11.27.21.27.32,0l5.84-13.44c.16-.37.24-.68.24-.92,0-.51-.23-.88-.7-1.12-.47-.24-1.09-.36-1.86-.36-.16,0-.24-.04-.24-.12s.08-.12.24-.12c.51.03,1.43.04,2.76.04h.48c.8,0,1.35-.01,1.64-.04.08,0,.12.04.12.12Z"/><path class="cls-1" d="M481.39,24.78c.05.04.07.1.04.18-1.04,1.25-2.19,2.17-3.44,2.76-1.25.59-2.68.88-4.28.88s-2.98-.38-4.3-1.14-2.37-1.83-3.14-3.2c-.77-1.37-1.16-2.95-1.16-4.74,0-1.89.43-3.58,1.28-5.06.85-1.48,2-2.63,3.44-3.44s3-1.22,4.68-1.22c1.87,0,3.41.55,4.64,1.66,1.23,1.11,1.84,2.55,1.84,4.34,0,.77-.15,1.64-.44,2.6l-4.04.08c-4.19.05-7.37.12-9.56.2.11,1.87.61,3.45,1.52,4.74.91,1.29,2,2.26,3.28,2.9,1.28.64,2.53.96,3.76.96.99,0,2.01-.17,3.08-.52,1.07-.35,1.96-1,2.68-1.96.03-.05.07-.06.12-.02ZM466.95,18v.44c1.44-.03,3.39-.09,5.84-.2,2.77-.11,4.72-.17,5.84-.2.19-.53.28-1.12.28-1.76,0-.99-.23-1.93-.7-2.84s-1.11-1.63-1.94-2.18c-.83-.55-1.72-.82-2.68-.82-4.43,0-6.64,2.52-6.64,7.56Z"/><path class="cls-1" d="M506.81,22.62c.09-.01.14.06.14.22,0,1.89-.31,3.33-.94,4.3-.63.97-1.35,1.46-2.18,1.46-.69,0-1.25-.29-1.66-.86-.41-.57-.77-1.47-1.06-2.7l-2.48-10.28c-.21-.91-.46-1.63-.74-2.16s-.7-.94-1.26-1.22c-.56-.28-1.33-.42-2.32-.42-1.07,0-2.05.29-2.96.86-.91.57-1.63,1.43-2.18,2.56-.55,1.13-.82,2.51-.82,4.14v7.16c0,.77.21,1.33.64,1.68s1.01.55,1.76.6c.11,0,.16.04.16.12s-.05.12-.16.12c-.51-.03-1.64-.04-3.4-.04s-2.92.01-3.48.04c-.11,0-.16-.05-.16-.14s.05-.14.16-.14c.83,0,1.43-.15,1.8-.46.37-.31.56-.91.56-1.82v-12c0-.64-.11-1.11-.34-1.4-.23-.29-.61-.44-1.14-.44-.24,0-.55.04-.92.12-.08.03-.13,0-.16-.06-.03-.07-.01-.11.04-.14,2.21-.53,3.75-1.09,4.6-1.68.11-.08.2-.1.28-.06s.12.09.12.14c-.11.72-.19,1.39-.26,2.02-.07.63-.1,1.35-.1,2.18v1.08c.29-1.01.8-1.95,1.52-2.8.72-.85,1.56-1.53,2.52-2.04s1.92-.76,2.88-.76c1.71,0,2.95.38,3.74,1.14.79.76,1.37,1.94,1.74,3.54l2.48,10.16c.19.83.41,1.45.68,1.88s.6.64,1,.64c.19,0,.42-.12.7-.36.28-.24.53-.68.74-1.32.21-.64.32-1.52.32-2.64,0-.13.05-.21.14-.22Z"/><path class="cls-1" d="M523.63,29.38c.75.76,1.12,1.65,1.12,2.66,0,.93-.28,1.74-.84,2.42-.56.68-1.26,1.2-2.1,1.56-.84.36-1.63.54-2.38.54-2.4,0-4.41-1.12-6.04-3.36-.93.37-1.83.56-2.68.56-1.12,0-2.03-.33-2.74-.98-.71-.65-1.06-1.47-1.06-2.46,0-1.97,1.35-3.59,4.04-4.84-1.23-.67-2.19-1.6-2.9-2.8-.71-1.2-1.06-2.59-1.06-4.16s.39-2.98,1.16-4.3c.77-1.32,1.83-2.38,3.18-3.18,1.35-.8,2.83-1.2,4.46-1.2,1.25,0,2.44.27,3.56.8.03-1.41.5-2.47,1.42-3.18.92-.71,1.99-1.06,3.22-1.06.27,0,.47.06.6.18.13.12.16.3.08.54l-.52,1.52c-.11.24-.27.29-.48.16-.51-.35-1.09-.52-1.76-.52-.77,0-1.34.2-1.7.6-.36.4-.49,1.07-.38,2,1.17.69,2.11,1.64,2.82,2.84.71,1.2,1.06,2.56,1.06,4.08s-.39,2.95-1.18,4.28c-.79,1.33-1.86,2.39-3.22,3.18-1.36.79-2.85,1.18-4.48,1.18-1.31,0-2.52-.28-3.64-.84-1.01.48-1.79.98-2.32,1.5-.53.52-.8,1.21-.8,2.06,0,.72.24,1.32.72,1.8.48.48,1.08.72,1.8.72s1.39-.13,2.02-.38c.63-.25,1.37-.63,2.22-1.14,1.09-.64,2.06-1.12,2.9-1.44.84-.32,1.82-.48,2.94-.48,1.23,0,2.21.38,2.96,1.14ZM509.57,21.32c.57,1.31,1.39,2.36,2.44,3.16,1.05.8,2.26,1.2,3.62,1.2,2.03,0,3.59-.54,4.7-1.62,1.11-1.08,1.66-2.73,1.66-4.94,0-1.44-.3-2.81-.9-4.12-.6-1.31-1.44-2.36-2.52-3.16-1.08-.8-2.31-1.2-3.7-1.2-1.97,0-3.49.54-4.56,1.62s-1.6,2.7-1.6,4.86c0,1.49.29,2.89.86,4.2ZM522.67,35.22c.64-.44.96-1.19.96-2.26,0-.77-.25-1.41-.76-1.9-.51-.49-1.2-.74-2.08-.74-1.04,0-1.95.15-2.72.46-.77.31-1.65.75-2.64,1.34-.69.45-1.29.79-1.8,1,.59.75,1.41,1.39,2.48,1.94,1.07.55,2.28.82,3.64.82s2.28-.22,2.92-.66Z"/><path class="cls-1" d="M545.93,22.62c.09-.01.14.06.14.22,0,1.89-.31,3.33-.94,4.3-.63.97-1.35,1.46-2.18,1.46-.69,0-1.23-.29-1.62-.88-.39-.59-.71-1.49-.98-2.72l-.4-2c-.56,1.65-1.5,3-2.82,4.04-1.32,1.04-2.75,1.56-4.3,1.56-2.03,0-3.57-.57-4.64-1.7-1.07-1.13-1.6-2.49-1.6-4.06,0-.91.35-1.71,1.04-2.4s1.6-1.23,2.72-1.62,2.32-.58,3.6-.58c1.68,0,3.37.13,5.08.4l-.8-3.8c-.32-1.39-.85-2.41-1.6-3.08-.75-.67-1.89-1-3.44-1-1.09,0-2.13.23-3.12.7-.99.47-1.81,1.17-2.46,2.12-.65.95-.99,2.11-1.02,3.5,0,.16-.05.24-.14.24s-.14-.08-.14-.24c.05-1.44.47-2.71,1.26-3.82.79-1.11,1.78-1.96,2.98-2.56,1.2-.6,2.4-.9,3.6-.9,1.92,0,3.35.41,4.3,1.22.95.81,1.61,2.09,1.98,3.82l2.04,9.76c.19.83.4,1.46.64,1.9.24.44.55.66.92.66.21,0,.45-.12.72-.36.27-.24.51-.68.72-1.32.21-.64.32-1.52.32-2.64,0-.13.05-.21.14-.22ZM539.47,20.84l-.28-1.44c-1.76-.32-3.4-.48-4.92-.48-2.03,0-3.47.26-4.34.78-.87.52-1.3,1.49-1.3,2.9s.43,2.48,1.28,3.36,2.13,1.32,3.84,1.32c3.63,0,5.53-1.91,5.72-5.72.03-.21.03-.45,0-.72Z"/><path class="cls-1" d="M546.79,21.4c.03-.11.07-.15.14-.14.07.01.1.07.1.18-.05.64-.08,1.07-.08,1.28,0,1.87.48,3.21,1.44,4.02s2.4,1.22,4.32,1.22c1.6,0,2.85-.25,3.74-.74.89-.49,1.34-1.37,1.34-2.62-.03-1.12-.47-2.04-1.32-2.76-.85-.72-2.32-1.57-4.4-2.56-1.84-.91-3.19-1.69-4.06-2.36-.87-.67-1.3-1.48-1.3-2.44,0-.75.29-1.49.86-2.22.57-.73,1.37-1.33,2.4-1.78s2.17-.68,3.42-.68c1.57,0,2.96.21,4.16.64s1.8,1.07,1.8,1.92c0,.16-.01.28-.04.36l-.88,3.88c-.03.11-.07.15-.14.14s-.09-.07-.06-.18c.05-.64.08-1.09.08-1.36,0-1.63-.4-2.81-1.2-3.54-.8-.73-2.19-1.1-4.16-1.1-1.68,0-2.83.24-3.46.72-.63.48-.94,1.13-.94,1.96s.4,1.57,1.2,2.16,2.13,1.35,4,2.28c1.87.85,3.35,1.73,4.44,2.62,1.09.89,1.64,1.94,1.64,3.14,0,.88-.31,1.72-.94,2.52s-1.51,1.45-2.66,1.94c-1.15.49-2.45.74-3.92.74-1.97,0-3.55-.3-4.74-.9-1.19-.6-1.7-1.37-1.54-2.3l.76-4.04Z"/><path class="cls-1" d="M19.7,70.62c.09-.01.14.06.14.22,0,1.89-.31,3.33-.94,4.3-.63.97-1.35,1.46-2.18,1.46-.69,0-1.23-.29-1.62-.88-.39-.59-.71-1.49-.98-2.72l-.4-2c-.56,1.65-1.5,3-2.82,4.04-1.32,1.04-2.75,1.56-4.3,1.56-2.03,0-3.57-.57-4.64-1.7-1.07-1.13-1.6-2.49-1.6-4.06,0-.91.35-1.71,1.04-2.4s1.6-1.23,2.72-1.62,2.32-.58,3.6-.58c1.68,0,3.37.13,5.08.4l-.8-3.8c-.32-1.39-.85-2.41-1.6-3.08-.75-.67-1.89-1-3.44-1-1.09,0-2.13.23-3.12.7-.99.47-1.81,1.17-2.46,2.12-.65.95-.99,2.11-1.02,3.5,0,.16-.05.24-.14.24s-.14-.08-.14-.24c.05-1.44.47-2.71,1.26-3.82.79-1.11,1.78-1.96,2.98-2.56,1.2-.6,2.4-.9,3.6-.9,1.92,0,3.35.41,4.3,1.22.95.81,1.61,2.09,1.98,3.82l2.04,9.76c.19.83.4,1.46.64,1.9.24.44.55.66.92.66.21,0,.45-.12.72-.36.27-.24.51-.68.72-1.32.21-.64.32-1.52.32-2.64,0-.13.05-.21.14-.22ZM13.24,68.84l-.28-1.44c-1.76-.32-3.4-.48-4.92-.48-2.03,0-3.47.26-4.34.78-.87.52-1.3,1.49-1.3,2.9s.43,2.48,1.28,3.36,2.13,1.32,3.84,1.32c3.63,0,5.53-1.91,5.72-5.72.03-.21.03-.45,0-.72Z"/><path class="cls-1" d="M43.08,58.94c1.15.76,2.04,1.82,2.68,3.18.64,1.36.96,2.93.96,4.72s-.37,3.35-1.1,4.84c-.73,1.49-1.78,2.69-3.14,3.6-1.36.91-2.93,1.36-4.72,1.36-1.2,0-2.19-.2-2.98-.6-.79-.4-1.57-.93-2.34-1.6-.05-.05-.19-.16-.4-.32-.21-.16-.39-.28-.54-.36s-.29-.12-.42-.12c-.19,0-.36.16-.52.48-.16.32-.32.69-.48,1.12s-.28.75-.36.96c-.03.16-.11.24-.24.24-.05,0-.1-.03-.14-.1s-.05-.14-.02-.22c.19-1.63.28-3.15.28-4.56l-.04-20.04c0-.72-.11-1.23-.34-1.52-.23-.29-.54-.44-.94-.44-.11,0-.29.03-.56.08-.16.03-.24-.04-.24-.2.99-.24,1.83-.51,2.54-.8.71-.29,1.33-.69,1.86-1.2.19-.03.25.04.2.2-.16.59-.26,1.35-.3,2.3s-.06,2.51-.06,4.7v6.36c0,.43.03.89.08,1.4s.12.81.2.92c.75-1.6,1.72-2.92,2.92-3.96s2.6-1.56,4.2-1.56c1.49,0,2.81.38,3.96,1.14ZM43.26,74.06c1.03-1.21,1.54-3.09,1.54-5.62,0-2.69-.62-4.91-1.86-6.64-1.24-1.73-2.99-2.6-5.26-2.6-1.07,0-2.06.33-2.98.98-.92.65-1.65,1.56-2.18,2.72-.53,1.16-.8,2.47-.8,3.94v1.84c0,2.11.43,3.83,1.28,5.18s2.51,2.02,4.96,2.02,4.27-.61,5.3-1.82Z"/><path class="cls-1" d="M68.9,70.62c.09-.01.14.06.14.22,0,1.89-.31,3.33-.94,4.3-.63.97-1.35,1.46-2.18,1.46-.69,0-1.23-.29-1.62-.88-.39-.59-.71-1.49-.98-2.72l-.4-2c-.56,1.65-1.5,3-2.82,4.04-1.32,1.04-2.75,1.56-4.3,1.56-2.03,0-3.57-.57-4.64-1.7-1.07-1.13-1.6-2.49-1.6-4.06,0-.91.35-1.71,1.04-2.4s1.6-1.23,2.72-1.62,2.32-.58,3.6-.58c1.68,0,3.37.13,5.08.4l-.8-3.8c-.32-1.39-.85-2.41-1.6-3.08-.75-.67-1.89-1-3.44-1-1.09,0-2.13.23-3.12.7-.99.47-1.81,1.17-2.46,2.12-.65.95-.99,2.11-1.02,3.5,0,.16-.05.24-.14.24s-.14-.08-.14-.24c.05-1.44.47-2.71,1.26-3.82.79-1.11,1.78-1.96,2.98-2.56,1.2-.6,2.4-.9,3.6-.9,1.92,0,3.35.41,4.3,1.22.95.81,1.61,2.09,1.98,3.82l2.04,9.76c.19.83.4,1.46.64,1.9.24.44.55.66.92.66.21,0,.45-.12.72-.36.27-.24.51-.68.72-1.32.21-.64.32-1.52.32-2.64,0-.13.05-.21.14-.22ZM62.44,68.84l-.28-1.44c-1.76-.32-3.4-.48-4.92-.48-2.03,0-3.47.26-4.34.78-.87.52-1.3,1.49-1.3,2.9s.43,2.48,1.28,3.36,2.13,1.32,3.84,1.32c3.63,0,5.53-1.91,5.72-5.72.03-.21.03-.45,0-.72Z"/><path class="cls-1" d="M74.46,75.22c.44.44,1.02.69,1.74.74.11,0,.16.04.16.12s-.05.12-.16.12c-.48-.03-1.63-.04-3.44-.04s-2.93.01-3.44.04c-.11,0-.16-.05-.16-.14s.05-.14.16-.14c1.57.05,2.36-.77,2.36-2.48v-11.8c0-.64-.11-1.11-.34-1.4-.23-.29-.61-.44-1.14-.44-.24,0-.55.04-.92.12-.08.03-.13,0-.16-.06-.03-.07-.01-.11.04-.14,2.21-.53,3.75-1.09,4.6-1.68.11-.08.2-.1.28-.06s.12.09.12.14c-.11.72-.19,1.39-.26,2.02-.07.63-.1,1.35-.1,2.18v11.12c0,.75.22,1.34.66,1.78ZM71.18,51.74c-.31-.23-.46-.5-.46-.82,0-.4.19-.74.58-1.02.39-.28.89-.42,1.5-.42.48,0,.87.11,1.18.34s.46.51.46.86c0,.37-.19.7-.58.98s-.89.42-1.5.42c-.48,0-.87-.11-1.18-.34Z"/><path class="cls-1" d="M81.26,50c-.23-.29-.54-.44-.94-.44-.11,0-.29.03-.56.08-.16.03-.24-.04-.24-.2,2-.43,3.47-1.08,4.4-1.96.19-.05.25,0,.2.16-.16.59-.26,1.35-.3,2.3s-.06,2.51-.06,4.7v18.8c0,.75.22,1.34.66,1.78.44.44,1.02.69,1.74.74.08,0,.13.04.14.12.01.08-.03.12-.14.12-.48-.03-1.63-.04-3.44-.04s-2.93.01-3.44.04c-.13,0-.2-.05-.2-.14s.07-.14.2-.14c1.57.05,2.36-.77,2.36-2.48l-.04-21.92c0-.72-.11-1.23-.34-1.52Z"/><path class="cls-1" d="M108.58,70.62c.09-.01.14.06.14.22,0,1.89-.31,3.33-.94,4.3-.63.97-1.35,1.46-2.18,1.46-.69,0-1.23-.29-1.62-.88-.39-.59-.71-1.49-.98-2.72l-.4-2c-.56,1.65-1.5,3-2.82,4.04-1.32,1.04-2.75,1.56-4.3,1.56-2.03,0-3.57-.57-4.64-1.7-1.07-1.13-1.6-2.49-1.6-4.06,0-.91.35-1.71,1.04-2.4s1.6-1.23,2.72-1.62,2.32-.58,3.6-.58c1.68,0,3.37.13,5.08.4l-.8-3.8c-.32-1.39-.85-2.41-1.6-3.08-.75-.67-1.89-1-3.44-1-1.09,0-2.13.23-3.12.7-.99.47-1.81,1.17-2.46,2.12-.65.95-.99,2.11-1.02,3.5,0,.16-.05.24-.14.24s-.14-.08-.14-.24c.05-1.44.47-2.71,1.26-3.82.79-1.11,1.78-1.96,2.98-2.56,1.2-.6,2.4-.9,3.6-.9,1.92,0,3.35.41,4.3,1.22.95.81,1.61,2.09,1.98,3.82l2.04,9.76c.19.83.4,1.46.64,1.9.24.44.55.66.92.66.21,0,.45-.12.72-.36.27-.24.51-.68.72-1.32.21-.64.32-1.52.32-2.64,0-.13.05-.21.14-.22ZM102.12,68.84l-.28-1.44c-1.76-.32-3.4-.48-4.92-.48-2.03,0-3.47.26-4.34.78-.87.52-1.3,1.49-1.3,2.9s.43,2.48,1.28,3.36,2.13,1.32,3.84,1.32c3.63,0,5.53-1.91,5.72-5.72.03-.21.03-.45,0-.72Z"/><path class="cls-1" d="M121,58.24c.69.29,1.23.68,1.6,1.16.37.48.51.97.4,1.48l-1.2,4.84c-.03.19-.08.26-.16.22s-.09-.13-.04-.26c.16-.8.24-1.51.24-2.12,0-1.41-.35-2.43-1.06-3.06-.71-.63-1.7-.94-2.98-.94-1.65,0-2.79.71-3.4,2.12-.61,1.41-.92,3.12-.92,5.12v6.88c0,.77.21,1.33.64,1.68s1.01.55,1.76.6c.11,0,.16.04.16.12s-.05.12-.16.12c-.51-.03-1.64-.04-3.4-.04s-2.92.01-3.48.04c-.11,0-.16-.05-.16-.14s.05-.14.16-.14c.83,0,1.43-.15,1.8-.46.37-.31.56-.91.56-1.82v-12c0-.64-.11-1.11-.34-1.4-.23-.29-.61-.44-1.14-.44-.24,0-.55.04-.92.12-.08.03-.13,0-.16-.06-.03-.07-.01-.11.04-.14,2.21-.53,3.75-1.09,4.6-1.68.11-.08.2-.1.28-.06s.12.09.12.14c-.11.72-.19,1.39-.26,2.02-.07.63-.1,1.35-.1,2.18v1.24c.96-3.84,2.73-5.76,5.32-5.76.77,0,1.51.15,2.2.44Z"/><path class="cls-1" d="M146.32,66.4c-.03.11-.08.15-.16.12-.08-.03-.11-.09-.08-.2.16-.69.24-1.36.24-2,0-1.71-.52-3.09-1.56-4.14-1.04-1.05-2.44-1.58-4.2-1.58-2.13,0-3.8.57-5,1.72s-1.8,3.03-1.8,5.64c0,2.03.44,3.74,1.32,5.14.88,1.4,1.98,2.45,3.3,3.14,1.32.69,2.62,1.04,3.9,1.04.99,0,2.01-.17,3.08-.52,1.07-.35,1.96-1,2.68-1.96.08-.05.15-.06.2-.02s.05.1,0,.18c-1.07,1.28-2.21,2.21-3.42,2.78s-2.65.86-4.3.86-3.02-.38-4.34-1.14-2.37-1.83-3.14-3.2c-.77-1.37-1.16-2.95-1.16-4.74s.43-3.5,1.3-4.98c.87-1.48,2.04-2.64,3.52-3.48,1.48-.84,3.1-1.26,4.86-1.26,1.2,0,2.29.19,3.26.58.97.39,1.71.88,2.22,1.48.51.6.69,1.19.56,1.78l-1.28,4.76Z"/><path class="cls-1" d="M154.64,75.5c-1.33-.76-2.39-1.83-3.18-3.2-.79-1.37-1.18-2.95-1.18-4.74s.43-3.34,1.3-4.82c.87-1.48,2.06-2.67,3.58-3.56,1.52-.89,3.2-1.34,5.04-1.34,1.6,0,3.08.38,4.44,1.14,1.36.76,2.43,1.83,3.22,3.2.79,1.37,1.18,2.93,1.18,4.66s-.44,3.35-1.32,4.86c-.88,1.51-2.09,2.71-3.62,3.6-1.53.89-3.22,1.34-5.06,1.34-1.6,0-3.07-.38-4.4-1.14ZM165.28,73.96c1.25-1.23,1.88-3.05,1.88-5.48,0-1.6-.35-3.15-1.06-4.66-.71-1.51-1.69-2.74-2.94-3.7-1.25-.96-2.63-1.44-4.12-1.44-2.16,0-3.85.6-5.06,1.8-1.21,1.2-1.82,3.01-1.82,5.44,0,1.6.35,3.16,1.04,4.68.69,1.52,1.65,2.77,2.86,3.74,1.21.97,2.54,1.46,3.98,1.46,2.24,0,3.99-.61,5.24-1.84Z"/><path class="cls-1" d="M194.78,70.62c.09-.01.14.06.14.22,0,1.89-.31,3.33-.94,4.3-.63.97-1.35,1.46-2.18,1.46-.69,0-1.25-.29-1.66-.86-.41-.57-.77-1.47-1.06-2.7l-2.48-10.28c-.21-.91-.46-1.63-.74-2.16s-.7-.94-1.26-1.22c-.56-.28-1.33-.42-2.32-.42-1.07,0-2.05.29-2.96.86-.91.57-1.63,1.43-2.18,2.56-.55,1.13-.82,2.51-.82,4.14v7.16c0,.77.21,1.33.64,1.68s1.01.55,1.76.6c.11,0,.16.04.16.12s-.05.12-.16.12c-.51-.03-1.64-.04-3.4-.04s-2.92.01-3.48.04c-.11,0-.16-.05-.16-.14s.05-.14.16-.14c.83,0,1.43-.15,1.8-.46.37-.31.56-.91.56-1.82v-12c0-.64-.11-1.11-.34-1.4-.23-.29-.61-.44-1.14-.44-.24,0-.55.04-.92.12-.08.03-.13,0-.16-.06-.03-.07-.01-.11.04-.14,2.21-.53,3.75-1.09,4.6-1.68.11-.08.2-.1.28-.06s.12.09.12.14c-.11.72-.19,1.39-.26,2.02-.07.63-.1,1.35-.1,2.18v1.08c.29-1.01.8-1.95,1.52-2.8.72-.85,1.56-1.53,2.52-2.04s1.92-.76,2.88-.76c1.71,0,2.95.38,3.74,1.14.79.76,1.37,1.94,1.74,3.54l2.48,10.16c.19.83.41,1.45.68,1.88s.6.64,1,.64c.19,0,.42-.12.7-.36.28-.24.53-.68.74-1.32.21-.64.32-1.52.32-2.64,0-.13.05-.21.14-.22Z"/><path class="cls-1" d="M228.18,70.62c.09-.01.14.06.14.22,0,1.89-.31,3.33-.94,4.3-.63.97-1.35,1.46-2.18,1.46-.69,0-1.25-.29-1.66-.88-.41-.59-.77-1.48-1.06-2.68l-2.56-10.32c-.37-1.44-.88-2.43-1.52-2.98-.64-.55-1.51-.82-2.6-.82-1.49,0-2.63.49-3.4,1.48s-1.24,2.31-1.4,3.96l1.48,9.24c.13.77.35,1.33.66,1.68s.63.49.98.44c.11,0,.17.03.18.08.01.05-.03.09-.14.12-.24.24-.51.41-.8.52-.29.11-.59.13-.88.08-.53-.11-.99-.36-1.36-.76-.37-.4-.61-.93-.72-1.6l-1.68-10.56c-.29-1.71-.8-2.91-1.52-3.62-.72-.71-1.64-1.06-2.76-1.06-1.33,0-2.43.6-3.3,1.8-.87,1.2-1.37,2.76-1.5,4.68v8.28c0,.77.21,1.33.64,1.68s1.01.55,1.76.6c.11,0,.16.04.16.12s-.05.12-.16.12c-.51-.03-1.64-.04-3.4-.04s-2.92.01-3.48.04c-.11,0-.16-.05-.16-.14s.05-.14.16-.14c.83,0,1.43-.15,1.8-.46.37-.31.56-.91.56-1.82v-12c0-.64-.11-1.11-.34-1.4-.23-.29-.61-.44-1.14-.44-.24,0-.55.04-.92.12-.08.03-.13,0-.16-.06-.03-.07-.01-.11.04-.14,2.21-.53,3.75-1.09,4.6-1.68.11-.08.2-.1.28-.06s.12.09.12.14c-.11.72-.19,1.39-.26,2.02-.07.63-.1,1.35-.1,2.18v.92c.37-1.52,1.13-2.81,2.26-3.86,1.13-1.05,2.37-1.58,3.7-1.58,1.23,0,2.31.43,3.26,1.28s1.59,2.23,1.94,4.12c.29-1.52.98-2.8,2.06-3.84s2.38-1.56,3.9-1.56c1.41,0,2.55.34,3.4,1.02.85.68,1.49,1.89,1.92,3.62l2.52,10.2c.4,1.68.96,2.52,1.68,2.52.21,0,.45-.12.72-.36.27-.24.51-.68.72-1.32.21-.64.32-1.52.32-2.64,0-.13.05-.21.14-.22Z"/><path class="cls-1" d="M233.7,75.22c.44.44,1.02.69,1.74.74.11,0,.16.04.16.12s-.05.12-.16.12c-.48-.03-1.63-.04-3.44-.04s-2.93.01-3.44.04c-.11,0-.16-.05-.16-.14s.05-.14.16-.14c1.57.05,2.36-.77,2.36-2.48v-11.8c0-.64-.11-1.11-.34-1.4-.23-.29-.61-.44-1.14-.44-.24,0-.55.04-.92.12-.08.03-.13,0-.16-.06-.03-.07-.01-.11.04-.14,2.21-.53,3.75-1.09,4.6-1.68.11-.08.2-.1.28-.06s.12.09.12.14c-.11.72-.19,1.39-.26,2.02-.07.63-.1,1.35-.1,2.18v11.12c0,.75.22,1.34.66,1.78ZM230.42,51.74c-.31-.23-.46-.5-.46-.82,0-.4.19-.74.58-1.02.39-.28.89-.42,1.5-.42.48,0,.87.11,1.18.34s.46.51.46.86c0,.37-.19.7-.58.98s-.89.42-1.5.42c-.48,0-.87-.11-1.18-.34Z"/><path class="cls-1" d="M253.96,77.38c.75.76,1.12,1.65,1.12,2.66,0,.93-.28,1.74-.84,2.42-.56.68-1.26,1.2-2.1,1.56-.84.36-1.63.54-2.38.54-2.4,0-4.41-1.12-6.04-3.36-.93.37-1.83.56-2.68.56-1.12,0-2.03-.33-2.74-.98-.71-.65-1.06-1.47-1.06-2.46,0-1.97,1.35-3.59,4.04-4.84-1.23-.67-2.19-1.6-2.9-2.8-.71-1.2-1.06-2.59-1.06-4.16s.39-2.98,1.16-4.3c.77-1.32,1.83-2.38,3.18-3.18,1.35-.8,2.83-1.2,4.46-1.2,1.25,0,2.44.27,3.56.8.03-1.41.5-2.47,1.42-3.18.92-.71,1.99-1.06,3.22-1.06.27,0,.47.06.6.18.13.12.16.3.08.54l-.52,1.52c-.11.24-.27.29-.48.16-.51-.35-1.09-.52-1.76-.52-.77,0-1.34.2-1.7.6-.36.4-.49,1.07-.38,2,1.17.69,2.11,1.64,2.82,2.84.71,1.2,1.06,2.56,1.06,4.08s-.39,2.95-1.18,4.28c-.79,1.33-1.86,2.39-3.22,3.18-1.36.79-2.85,1.18-4.48,1.18-1.31,0-2.52-.28-3.64-.84-1.01.48-1.79.98-2.32,1.5-.53.52-.8,1.21-.8,2.06,0,.72.24,1.32.72,1.8.48.48,1.08.72,1.8.72s1.39-.13,2.02-.38c.63-.25,1.37-.63,2.22-1.14,1.09-.64,2.06-1.12,2.9-1.44.84-.32,1.82-.48,2.94-.48,1.23,0,2.21.38,2.96,1.14ZM239.9,69.32c.57,1.31,1.39,2.36,2.44,3.16,1.05.8,2.26,1.2,3.62,1.2,2.03,0,3.59-.54,4.7-1.62,1.11-1.08,1.66-2.73,1.66-4.94,0-1.44-.3-2.81-.9-4.12-.6-1.31-1.44-2.36-2.52-3.16-1.08-.8-2.31-1.2-3.7-1.2-1.97,0-3.49.54-4.56,1.62s-1.6,2.7-1.6,4.86c0,1.49.29,2.89.86,4.2ZM253,83.22c.64-.44.96-1.19.96-2.26,0-.77-.25-1.41-.76-1.9-.51-.49-1.2-.74-2.08-.74-1.04,0-1.95.15-2.72.46-.77.31-1.65.75-2.64,1.34-.69.45-1.29.79-1.8,1,.59.75,1.41,1.39,2.48,1.94,1.07.55,2.28.82,3.64.82s2.28-.22,2.92-.66Z"/><path class="cls-1" d="M260.92,75.5c-1.33-.76-2.39-1.83-3.18-3.2-.79-1.37-1.18-2.95-1.18-4.74s.43-3.34,1.3-4.82c.87-1.48,2.06-2.67,3.58-3.56,1.52-.89,3.2-1.34,5.04-1.34,1.6,0,3.08.38,4.44,1.14,1.36.76,2.43,1.83,3.22,3.2.79,1.37,1.18,2.93,1.18,4.66s-.44,3.35-1.32,4.86c-.88,1.51-2.09,2.71-3.62,3.6-1.53.89-3.22,1.34-5.06,1.34-1.6,0-3.07-.38-4.4-1.14ZM271.56,73.96c1.25-1.23,1.88-3.05,1.88-5.48,0-1.6-.35-3.15-1.06-4.66-.71-1.51-1.69-2.74-2.94-3.7-1.25-.96-2.63-1.44-4.12-1.44-2.16,0-3.85.6-5.06,1.8-1.21,1.2-1.82,3.01-1.82,5.44,0,1.6.35,3.16,1.04,4.68.69,1.52,1.65,2.77,2.86,3.74,1.21.97,2.54,1.46,3.98,1.46,2.24,0,3.99-.61,5.24-1.84Z"/><path class="cls-1" d="M280.36,76.1c-.27-.2-.4-.45-.4-.74,0-.37.21-.7.64-.98.43-.28.97-.42,1.64-.42.43,0,.77.09,1.04.28s.4.43.4.72c0,.4-.22.74-.66,1.02-.44.28-.98.42-1.62.42-.43,0-.77-.1-1.04-.3ZM280.88,56.6c-.05-.64-.13-1.78-.24-3.42-.11-1.64-.16-2.83-.16-3.58,0-.61.11-1.05.32-1.32.21-.27.56-.4,1.04-.4.43,0,.75.13.96.4.21.27.32.71.32,1.32,0,.99-.15,3.39-.44,7.2-.45,5.6-.71,9.95-.76,13.04,0,.11-.04.16-.12.16s-.13-.05-.16-.16c-.05-3.2-.31-7.61-.76-13.24Z"/><path class="cls-1" d="M7.6,112.16c-.08,0-.12-.04-.12-.12s.04-.12.12-.12l3.08.08c2.77.08,4.87-.54,6.28-1.86,1.41-1.32,2.12-3.1,2.12-5.34,0-1.57-.34-2.98-1.02-4.22-.68-1.24-1.64-2.23-2.88-2.96s-2.69-1.13-4.34-1.18l-3.96-.16c-.51-.03-.85.09-1.02.36-.17.27-.26.72-.26,1.36v23.12c0,1.07.29,1.8.88,2.2.59.4,1.55.63,2.88.68.19,0,.28.04.28.12s-.09.12-.28.12c-1.12-.08-1.97-.12-2.56-.12H2.48l-2,.08c-.13.03-.21,0-.22-.08-.01-.08.06-.12.22-.12,1.01-.05,1.75-.28,2.2-.68.45-.4.68-1.13.68-2.2v-22c0-1.07-.23-1.79-.68-2.18-.45-.39-1.19-.61-2.2-.66-.16-.03-.23-.07-.22-.14.01-.07.09-.1.22-.1l1.96.08,5.72-.04c.8-.03,1.91-.04,3.32-.04,3.09,0,5.53.75,7.32,2.26,1.79,1.51,2.68,3.55,2.68,6.14,0,1.65-.43,3.09-1.28,4.32-.85,1.23-2.11,2.15-3.76,2.76s-3.63.87-5.92.76l-2.92-.12Z"/><path class="cls-1" d="M38.16,120.78c.05.04.07.1.04.18-1.04,1.25-2.19,2.17-3.44,2.76-1.25.59-2.68.88-4.28.88s-2.98-.38-4.3-1.14-2.37-1.83-3.14-3.2c-.77-1.37-1.16-2.95-1.16-4.74,0-1.89.43-3.58,1.28-5.06.85-1.48,2-2.63,3.44-3.44s3-1.22,4.68-1.22c1.87,0,3.41.55,4.64,1.66,1.23,1.11,1.84,2.55,1.84,4.34,0,.77-.15,1.64-.44,2.6l-4.04.08c-4.19.05-7.37.12-9.56.2.11,1.87.61,3.45,1.52,4.74.91,1.29,2,2.26,3.28,2.9,1.28.64,2.53.96,3.76.96.99,0,2.01-.17,3.08-.52,1.07-.35,1.96-1,2.68-1.96.03-.05.07-.06.12-.02ZM23.72,114v.44c1.44-.03,3.39-.09,5.84-.2,2.77-.11,4.72-.17,5.84-.2.19-.53.28-1.12.28-1.76,0-.99-.23-1.93-.7-2.84s-1.11-1.63-1.94-2.18c-.83-.55-1.72-.82-2.68-.82-4.43,0-6.64,2.52-6.64,7.56Z"/><path class="cls-1" d="M52.64,106.24c.69.29,1.23.68,1.6,1.16.37.48.51.97.4,1.48l-1.2,4.84c-.03.19-.08.26-.16.22s-.09-.13-.04-.26c.16-.8.24-1.51.24-2.12,0-1.41-.35-2.43-1.06-3.06-.71-.63-1.7-.94-2.98-.94-1.65,0-2.79.71-3.4,2.12-.61,1.41-.92,3.12-.92,5.12v6.88c0,.77.21,1.33.64,1.68s1.01.55,1.76.6c.11,0,.16.04.16.12s-.05.12-.16.12c-.51-.03-1.64-.04-3.4-.04s-2.92.01-3.48.04c-.11,0-.16-.05-.16-.14s.05-.14.16-.14c.83,0,1.43-.15,1.8-.46.37-.31.56-.91.56-1.82v-12c0-.64-.11-1.11-.34-1.4-.23-.29-.61-.44-1.14-.44-.24,0-.55.04-.92.12-.08.03-.13,0-.16-.06-.03-.07-.01-.11.04-.14,2.21-.53,3.75-1.09,4.6-1.68.11-.08.2-.1.28-.06s.12.09.12.14c-.11.72-.19,1.39-.26,2.02-.07.63-.1,1.35-.1,2.18v1.24c.96-3.84,2.73-5.76,5.32-5.76.77,0,1.51.15,2.2.44Z"/><path class="cls-1" d="M60.32,123.5c-1.33-.76-2.39-1.83-3.18-3.2-.79-1.37-1.18-2.95-1.18-4.74s.43-3.34,1.3-4.82c.87-1.48,2.06-2.67,3.58-3.56,1.52-.89,3.2-1.34,5.04-1.34,1.6,0,3.08.38,4.44,1.14,1.36.76,2.43,1.83,3.22,3.2.79,1.37,1.18,2.93,1.18,4.66s-.44,3.35-1.32,4.86c-.88,1.51-2.09,2.71-3.62,3.6-1.53.89-3.22,1.34-5.06,1.34-1.6,0-3.07-.38-4.4-1.14ZM70.96,121.96c1.25-1.23,1.88-3.05,1.88-5.48,0-1.6-.35-3.15-1.06-4.66-.71-1.51-1.69-2.74-2.94-3.7-1.25-.96-2.63-1.44-4.12-1.44-2.16,0-3.85.6-5.06,1.8-1.21,1.2-1.82,3.01-1.82,5.44,0,1.6.35,3.16,1.04,4.68.69,1.52,1.65,2.77,2.86,3.74,1.21.97,2.54,1.46,3.98,1.46,2.24,0,3.99-.61,5.24-1.84Z"/><path class="cls-1" d="M85.52,117.4c.03-.11.07-.15.14-.14.07.01.1.07.1.18-.05.64-.08,1.07-.08,1.28,0,1.87.48,3.21,1.44,4.02s2.4,1.22,4.32,1.22c1.6,0,2.85-.25,3.74-.74.89-.49,1.34-1.37,1.34-2.62-.03-1.12-.47-2.04-1.32-2.76-.85-.72-2.32-1.57-4.4-2.56-1.84-.91-3.19-1.69-4.06-2.36-.87-.67-1.3-1.48-1.3-2.44,0-.75.29-1.49.86-2.22.57-.73,1.37-1.33,2.4-1.78s2.17-.68,3.42-.68c1.57,0,2.96.21,4.16.64s1.8,1.07,1.8,1.92c0,.16-.01.28-.04.36l-.88,3.88c-.03.11-.07.15-.14.14s-.09-.07-.06-.18c.05-.64.08-1.09.08-1.36,0-1.63-.4-2.81-1.2-3.54-.8-.73-2.19-1.1-4.16-1.1-1.68,0-2.83.24-3.46.72-.63.48-.94,1.13-.94,1.96s.4,1.57,1.2,2.16,2.13,1.35,4,2.28c1.87.85,3.35,1.73,4.44,2.62,1.09.89,1.64,1.94,1.64,3.14,0,.88-.31,1.72-.94,2.52s-1.51,1.45-2.66,1.94c-1.15.49-2.45.74-3.92.74-1.97,0-3.55-.3-4.74-.9-1.19-.6-1.7-1.37-1.54-2.3l.76-4.04Z"/><path class="cls-1" d="M106.46,123.22c.44.44,1.02.69,1.74.74.11,0,.16.04.16.12s-.05.12-.16.12c-.48-.03-1.63-.04-3.44-.04s-2.93.01-3.44.04c-.11,0-.16-.05-.16-.14s.05-.14.16-.14c1.57.05,2.36-.77,2.36-2.48v-11.8c0-.64-.11-1.11-.34-1.4-.23-.29-.61-.44-1.14-.44-.24,0-.55.04-.92.12-.08.03-.13,0-.16-.06-.03-.07-.01-.11.04-.14,2.21-.53,3.75-1.09,4.6-1.68.11-.08.2-.1.28-.06s.12.09.12.14c-.11.72-.19,1.39-.26,2.02-.07.63-.1,1.35-.1,2.18v11.12c0,.75.22,1.34.66,1.78ZM103.18,99.74c-.31-.23-.46-.5-.46-.82,0-.4.19-.74.58-1.02.39-.28.89-.42,1.5-.42.48,0,.87.11,1.18.34s.46.51.46.86c0,.37-.19.7-.58.98s-.89.42-1.5.42c-.48,0-.87-.11-1.18-.34Z"/><path class="cls-1" d="M119.66,110.84c.76-1.52,1.8-2.74,3.12-3.66,1.32-.92,2.78-1.38,4.38-1.38,1.2,0,2.22.2,3.06.6.84.4,1.65.92,2.42,1.56.11.08.27.2.48.36.21.16.39.27.52.34.13.07.27.1.4.1.43,0,.93-.85,1.52-2.56.05-.16.13-.24.24-.24.05,0,.1.03.14.1s.05.14.02.22c-.21,1.49-.32,3.03-.32,4.6v18.6c0,1.57.71,2.4,2.12,2.48.11,0,.16.04.16.12s-.05.12-.16.12c-1.07-.05-2.01-.08-2.84-.08-1.04,0-2.2.03-3.48.08-.13,0-.2-.05-.2-.14s.07-.14.2-.14c.72.03,1.25-.15,1.58-.54.33-.39.5-1.03.5-1.94v-8c0-.85-.03-1.43-.08-1.72-.03-.24-.09-.24-.2,0-.72,1.52-1.71,2.72-2.98,3.6-1.27.88-2.75,1.32-4.46,1.32-1.39,0-2.63-.37-3.74-1.12-1.11-.75-1.97-1.8-2.6-3.16-.63-1.36-.94-2.92-.94-4.68s.38-3.32,1.14-4.84ZM121.24,118.66c.56,1.4,1.37,2.51,2.42,3.34,1.05.83,2.27,1.24,3.66,1.24,2.11,0,3.67-.66,4.68-1.98,1.01-1.32,1.52-3.15,1.52-5.5v-.44c0-2.59-.51-4.68-1.54-6.28-1.03-1.6-2.62-2.4-4.78-2.4-2.48,0-4.23.61-5.26,1.84-1.03,1.23-1.54,3.09-1.54,5.6,0,1.65.28,3.18.84,4.58Z"/><path class="cls-1" d="M159.4,118.68c.08,0,.12.07.12.2,0,1.65-.23,3-.68,4.04-.45,1.04-1.21,1.56-2.28,1.56-.77,0-1.38-.29-1.82-.88-.44-.59-.66-1.45-.66-2.6v-2.36c-.29,1.79-1.03,3.23-2.22,4.34s-2.61,1.66-4.26,1.66c-1.92,0-3.46-.65-4.62-1.96-1.16-1.31-1.74-3.24-1.74-5.8v-7.24c0-.64-.11-1.11-.34-1.4-.23-.29-.61-.44-1.14-.44-.27,0-.57.04-.92.12-.08.03-.13,0-.16-.06-.03-.07-.01-.11.04-.14,2.21-.53,3.73-1.09,4.56-1.68.13-.08.24-.1.32-.06s.12.09.12.14c-.11.72-.19,1.39-.26,2.02-.07.63-.1,1.35-.1,2.18v6.44c0,4.56,1.75,6.84,5.24,6.84,1.65,0,2.98-.63,3.98-1.9s1.5-3.14,1.5-5.62v-6.44c0-.64-.11-1.11-.34-1.4-.23-.29-.61-.44-1.14-.44-.27,0-.57.04-.92.12-.08.03-.14,0-.18-.06-.04-.07-.03-.11.02-.14.88-.21,1.75-.47,2.62-.76.87-.29,1.53-.6,1.98-.92.13-.08.23-.1.3-.06.07.04.1.09.1.14-.13.83-.22,1.51-.26,2.06-.04.55-.06,1.26-.06,2.14v10.28c0,.83.1,1.44.3,1.84.2.4.53.6.98.6.77,0,1.27-.35,1.48-1.06.21-.71.32-1.74.32-3.1,0-.13.04-.2.12-.2Z"/><path class="cls-1" d="M165.9,123.22c.44.44,1.02.69,1.74.74.11,0,.16.04.16.12s-.05.12-.16.12c-.48-.03-1.63-.04-3.44-.04s-2.93.01-3.44.04c-.11,0-.16-.05-.16-.14s.05-.14.16-.14c1.57.05,2.36-.77,2.36-2.48v-11.8c0-.64-.11-1.11-.34-1.4-.23-.29-.61-.44-1.14-.44-.24,0-.55.04-.92.12-.08.03-.13,0-.16-.06-.03-.07-.01-.11.04-.14,2.21-.53,3.75-1.09,4.6-1.68.11-.08.2-.1.28-.06s.12.09.12.14c-.11.72-.19,1.39-.26,2.02-.07.63-.1,1.35-.1,2.18v11.12c0,.75.22,1.34.66,1.78ZM162.62,99.74c-.31-.23-.46-.5-.46-.82,0-.4.19-.74.58-1.02.39-.28.89-.42,1.5-.42.48,0,.87.11,1.18.34s.46.51.46.86c0,.37-.19.7-.58.98s-.89.42-1.5.42c-.48,0-.87-.11-1.18-.34Z"/><path class="cls-1" d="M186.68,120.78c.05.04.07.1.04.18-1.04,1.25-2.19,2.17-3.44,2.76-1.25.59-2.68.88-4.28.88s-2.98-.38-4.3-1.14-2.37-1.83-3.14-3.2c-.77-1.37-1.16-2.95-1.16-4.74,0-1.89.43-3.58,1.28-5.06.85-1.48,2-2.63,3.44-3.44s3-1.22,4.68-1.22c1.87,0,3.41.55,4.64,1.66,1.23,1.11,1.84,2.55,1.84,4.34,0,.77-.15,1.64-.44,2.6l-4.04.08c-4.19.05-7.37.12-9.56.2.11,1.87.61,3.45,1.52,4.74.91,1.29,2,2.26,3.28,2.9,1.28.64,2.53.96,3.76.96.99,0,2.01-.17,3.08-.52,1.07-.35,1.96-1,2.68-1.96.03-.05.07-.06.12-.02ZM172.24,114v.44c1.44-.03,3.39-.09,5.84-.2,2.77-.11,4.72-.17,5.84-.2.19-.53.28-1.12.28-1.76,0-.99-.23-1.93-.7-2.84s-1.11-1.63-1.94-2.18c-.83-.55-1.72-.82-2.68-.82-4.43,0-6.64,2.52-6.64,7.56Z"/><path class="cls-1" d="M201.16,106.24c.69.29,1.23.68,1.6,1.16.37.48.51.97.4,1.48l-1.2,4.84c-.03.19-.08.26-.16.22s-.09-.13-.04-.26c.16-.8.24-1.51.24-2.12,0-1.41-.35-2.43-1.06-3.06-.71-.63-1.7-.94-2.98-.94-1.65,0-2.79.71-3.4,2.12-.61,1.41-.92,3.12-.92,5.12v6.88c0,.77.21,1.33.64,1.68s1.01.55,1.76.6c.11,0,.16.04.16.12s-.05.12-.16.12c-.51-.03-1.64-.04-3.4-.04s-2.92.01-3.48.04c-.11,0-.16-.05-.16-.14s.05-.14.16-.14c.83,0,1.43-.15,1.8-.46.37-.31.56-.91.56-1.82v-12c0-.64-.11-1.11-.34-1.4-.23-.29-.61-.44-1.14-.44-.24,0-.55.04-.92.12-.08.03-.13,0-.16-.06-.03-.07-.01-.11.04-.14,2.21-.53,3.75-1.09,4.6-1.68.11-.08.2-.1.28-.06s.12.09.12.14c-.11.72-.19,1.39-.26,2.02-.07.63-.1,1.35-.1,2.18v1.24c.96-3.84,2.73-5.76,5.32-5.76.77,0,1.51.15,2.2.44Z"/><path class="cls-1" d="M220.75,120.78c.05.04.07.1.04.18-1.04,1.25-2.19,2.17-3.44,2.76-1.25.59-2.68.88-4.28.88s-2.98-.38-4.3-1.14-2.37-1.83-3.14-3.2c-.77-1.37-1.16-2.95-1.16-4.74,0-1.89.43-3.58,1.28-5.06.85-1.48,2-2.63,3.44-3.44s3-1.22,4.68-1.22c1.87,0,3.41.55,4.64,1.66,1.23,1.11,1.84,2.55,1.84,4.34,0,.77-.15,1.64-.44,2.6l-4.04.08c-4.19.05-7.37.12-9.56.2.11,1.87.61,3.45,1.52,4.74.91,1.29,2,2.26,3.28,2.9,1.28.64,2.53.96,3.76.96.99,0,2.01-.17,3.08-.52,1.07-.35,1.96-1,2.68-1.96.03-.05.07-.06.12-.02ZM206.32,114v.44c1.44-.03,3.39-.09,5.84-.2,2.77-.11,4.72-.17,5.84-.2.19-.53.28-1.12.28-1.76,0-.99-.23-1.93-.7-2.84s-1.11-1.63-1.94-2.18c-.83-.55-1.72-.82-2.68-.82-4.43,0-6.64,2.52-6.64,7.56Z"/><path class="cls-1" d="M223.68,117.4c.03-.11.07-.15.14-.14.07.01.1.07.1.18-.05.64-.08,1.07-.08,1.28,0,1.87.48,3.21,1.44,4.02s2.4,1.22,4.32,1.22c1.6,0,2.85-.25,3.74-.74.89-.49,1.34-1.37,1.34-2.62-.03-1.12-.47-2.04-1.32-2.76-.85-.72-2.32-1.57-4.4-2.56-1.84-.91-3.19-1.69-4.06-2.36-.87-.67-1.3-1.48-1.3-2.44,0-.75.29-1.49.86-2.22.57-.73,1.37-1.33,2.4-1.78s2.17-.68,3.42-.68c1.57,0,2.96.21,4.16.64s1.8,1.07,1.8,1.92c0,.16-.01.28-.04.36l-.88,3.88c-.03.11-.07.15-.14.14s-.09-.07-.06-.18c.05-.64.08-1.09.08-1.36,0-1.63-.4-2.81-1.2-3.54-.8-.73-2.19-1.1-4.16-1.1-1.68,0-2.83.24-3.46.72-.63.48-.94,1.13-.94,1.96s.4,1.57,1.2,2.16,2.13,1.35,4,2.28c1.87.85,3.35,1.73,4.44,2.62,1.09.89,1.64,1.94,1.64,3.14,0,.88-.31,1.72-.94,2.52s-1.51,1.45-2.66,1.94c-1.15.49-2.45.74-3.92.74-1.97,0-3.55-.3-4.74-.9-1.19-.6-1.7-1.37-1.54-2.3l.76-4.04Z"/><path class="cls-1" d="M249.53,123.6c-.55-.67-.82-1.57-.82-2.72v-13.24c0-.37-.05-.64-.14-.8s-.33-.24-.7-.24h-1.36c-.11,0-.16-.03-.16-.1s.04-.11.12-.14c1.28-.24,2.28-.74,3-1.5s1.16-1.82,1.32-3.18c0-.13.04-.2.12-.2s.12.07.12.2c0,1.15-.05,2.45-.16,3.92v.16c0,.24.07.4.2.48s.39.12.76.12h4.04c.05,0,.07.04.04.12-.03.08-.08.12-.16.12h-3.72c-.48,0-.8.07-.96.22-.16.15-.24.43-.24.86v12.8c0,.85.2,1.54.6,2.06.4.52.91.78,1.52.78.51,0,1.03-.17,1.56-.52.53-.35,1.04-.87,1.52-1.56.08-.13.15-.19.2-.16.05.03.04.11-.04.24-.69,1.09-1.43,1.91-2.22,2.46-.79.55-1.55.82-2.3.82-.88,0-1.59-.33-2.14-1Z"/><path class="cls-1" d="M274.03,120.78c.05.04.07.1.04.18-1.04,1.25-2.19,2.17-3.44,2.76-1.25.59-2.68.88-4.28.88s-2.98-.38-4.3-1.14-2.37-1.83-3.14-3.2c-.77-1.37-1.16-2.95-1.16-4.74,0-1.89.43-3.58,1.28-5.06.85-1.48,2-2.63,3.44-3.44s3-1.22,4.68-1.22c1.87,0,3.41.55,4.64,1.66,1.23,1.11,1.84,2.55,1.84,4.34,0,.77-.15,1.64-.44,2.6l-4.04.08c-4.19.05-7.37.12-9.56.2.11,1.87.61,3.45,1.52,4.74.91,1.29,2,2.26,3.28,2.9,1.28.64,2.53.96,3.76.96.99,0,2.01-.17,3.08-.52,1.07-.35,1.96-1,2.68-1.96.03-.05.07-.06.12-.02ZM259.59,114v.44c1.44-.03,3.39-.09,5.84-.2,2.77-.11,4.72-.17,5.84-.2.19-.53.28-1.12.28-1.76,0-.99-.23-1.93-.7-2.84s-1.11-1.63-1.94-2.18c-.83-.55-1.72-.82-2.68-.82-4.43,0-6.64,2.52-6.64,7.56Z"/><path class="cls-1" d="M299.45,118.62c.09-.01.14.06.14.22,0,1.89-.31,3.33-.94,4.3-.63.97-1.35,1.46-2.18,1.46-.69,0-1.25-.29-1.66-.86-.41-.57-.77-1.47-1.06-2.7l-2.48-10.28c-.21-.91-.46-1.63-.74-2.16s-.7-.94-1.26-1.22c-.56-.28-1.33-.42-2.32-.42-1.07,0-2.05.29-2.96.86-.91.57-1.63,1.43-2.18,2.56-.55,1.13-.82,2.51-.82,4.14v7.16c0,.77.21,1.33.64,1.68s1.01.55,1.76.6c.11,0,.16.04.16.12s-.05.12-.16.12c-.51-.03-1.64-.04-3.4-.04s-2.92.01-3.48.04c-.11,0-.16-.05-.16-.14s.05-.14.16-.14c.83,0,1.43-.15,1.8-.46.37-.31.56-.91.56-1.82v-12c0-.64-.11-1.11-.34-1.4-.23-.29-.61-.44-1.14-.44-.24,0-.55.04-.92.12-.08.03-.13,0-.16-.06-.03-.07-.01-.11.04-.14,2.21-.53,3.75-1.09,4.6-1.68.11-.08.2-.1.28-.06s.12.09.12.14c-.11.72-.19,1.39-.26,2.02-.07.63-.1,1.35-.1,2.18v1.08c.29-1.01.8-1.95,1.52-2.8.72-.85,1.56-1.53,2.52-2.04s1.92-.76,2.88-.76c1.71,0,2.95.38,3.74,1.14.79.76,1.37,1.94,1.74,3.54l2.48,10.16c.19.83.41,1.45.68,1.88s.6.64,1,.64c.19,0,.42-.12.7-.36.28-.24.53-.68.74-1.32.21-.64.32-1.52.32-2.64,0-.13.05-.21.14-.22Z"/><path class="cls-1" d="M316.79,120.78c.05.04.07.1.04.18-1.04,1.25-2.19,2.17-3.44,2.76-1.25.59-2.68.88-4.28.88s-2.98-.38-4.3-1.14-2.37-1.83-3.14-3.2c-.77-1.37-1.16-2.95-1.16-4.74,0-1.89.43-3.58,1.28-5.06.85-1.48,2-2.63,3.44-3.44s3-1.22,4.68-1.22c1.87,0,3.41.55,4.64,1.66,1.23,1.11,1.84,2.55,1.84,4.34,0,.77-.15,1.64-.44,2.6l-4.04.08c-4.19.05-7.37.12-9.56.2.11,1.87.61,3.45,1.52,4.74.91,1.29,2,2.26,3.28,2.9,1.28.64,2.53.96,3.76.96.99,0,2.01-.17,3.08-.52,1.07-.35,1.96-1,2.68-1.96.03-.05.07-.06.12-.02ZM302.35,114v.44c1.44-.03,3.39-.09,5.84-.2,2.77-.11,4.72-.17,5.84-.2.19-.53.28-1.12.28-1.76,0-.99-.23-1.93-.7-2.84s-1.11-1.63-1.94-2.18c-.83-.55-1.72-.82-2.68-.82-4.43,0-6.64,2.52-6.64,7.56Z"/><path class="cls-1" d="M331.27,106.24c.69.29,1.23.68,1.6,1.16.37.48.51.97.4,1.48l-1.2,4.84c-.03.19-.08.26-.16.22s-.09-.13-.04-.26c.16-.8.24-1.51.24-2.12,0-1.41-.35-2.43-1.06-3.06-.71-.63-1.7-.94-2.98-.94-1.65,0-2.79.71-3.4,2.12-.61,1.41-.92,3.12-.92,5.12v6.88c0,.77.21,1.33.64,1.68s1.01.55,1.76.6c.11,0,.16.04.16.12s-.05.12-.16.12c-.51-.03-1.64-.04-3.4-.04s-2.92.01-3.48.04c-.11,0-.16-.05-.16-.14s.05-.14.16-.14c.83,0,1.43-.15,1.8-.46.37-.31.56-.91.56-1.82v-12c0-.64-.11-1.11-.34-1.4-.23-.29-.61-.44-1.14-.44-.24,0-.55.04-.92.12-.08.03-.13,0-.16-.06-.03-.07-.01-.11.04-.14,2.21-.53,3.75-1.09,4.6-1.68.11-.08.2-.1.28-.06s.12.09.12.14c-.11.72-.19,1.39-.26,2.02-.07.63-.1,1.35-.1,2.18v1.24c.96-3.84,2.73-5.76,5.32-5.76.77,0,1.51.15,2.2.44Z"/><path class="cls-1" d="M361.79,118.68c.08,0,.12.07.12.2,0,1.65-.23,3-.68,4.04-.45,1.04-1.21,1.56-2.28,1.56-.77,0-1.38-.29-1.82-.88-.44-.59-.66-1.45-.66-2.6v-2.36c-.29,1.79-1.03,3.23-2.22,4.34s-2.61,1.66-4.26,1.66c-1.92,0-3.46-.65-4.62-1.96-1.16-1.31-1.74-3.24-1.74-5.8v-7.24c0-.64-.11-1.11-.34-1.4-.23-.29-.61-.44-1.14-.44-.27,0-.57.04-.92.12-.08.03-.13,0-.16-.06-.03-.07-.01-.11.04-.14,2.21-.53,3.73-1.09,4.56-1.68.13-.08.24-.1.32-.06s.12.09.12.14c-.11.72-.19,1.39-.26,2.02-.07.63-.1,1.35-.1,2.18v6.44c0,4.56,1.75,6.84,5.24,6.84,1.65,0,2.98-.63,3.98-1.9s1.5-3.14,1.5-5.62v-6.44c0-.64-.11-1.11-.34-1.4-.23-.29-.61-.44-1.14-.44-.27,0-.57.04-.92.12-.08.03-.14,0-.18-.06-.04-.07-.03-.11.02-.14.88-.21,1.75-.47,2.62-.76.87-.29,1.53-.6,1.98-.92.13-.08.23-.1.3-.06.07.04.1.09.1.14-.13.83-.22,1.51-.26,2.06-.04.55-.06,1.26-.06,2.14v10.28c0,.83.1,1.44.3,1.84.2.4.53.6.98.6.77,0,1.27-.35,1.48-1.06.21-.71.32-1.74.32-3.1,0-.13.04-.2.12-.2Z"/><path class="cls-1" d="M386.09,118.62c.09-.01.14.06.14.22,0,1.89-.31,3.33-.94,4.3-.63.97-1.35,1.46-2.18,1.46-.69,0-1.25-.29-1.66-.86-.41-.57-.77-1.47-1.06-2.7l-2.48-10.28c-.21-.91-.46-1.63-.74-2.16s-.7-.94-1.26-1.22c-.56-.28-1.33-.42-2.32-.42-1.07,0-2.05.29-2.96.86-.91.57-1.63,1.43-2.18,2.56-.55,1.13-.82,2.51-.82,4.14v7.16c0,.77.21,1.33.64,1.68s1.01.55,1.76.6c.11,0,.16.04.16.12s-.05.12-.16.12c-.51-.03-1.64-.04-3.4-.04s-2.92.01-3.48.04c-.11,0-.16-.05-.16-.14s.05-.14.16-.14c.83,0,1.43-.15,1.8-.46.37-.31.56-.91.56-1.82v-12c0-.64-.11-1.11-.34-1.4-.23-.29-.61-.44-1.14-.44-.24,0-.55.04-.92.12-.08.03-.13,0-.16-.06-.03-.07-.01-.11.04-.14,2.21-.53,3.75-1.09,4.6-1.68.11-.08.2-.1.28-.06s.12.09.12.14c-.11.72-.19,1.39-.26,2.02-.07.63-.1,1.35-.1,2.18v1.08c.29-1.01.8-1.95,1.52-2.8.72-.85,1.56-1.53,2.52-2.04s1.92-.76,2.88-.76c1.71,0,2.95.38,3.74,1.14.79.76,1.37,1.94,1.74,3.54l2.48,10.16c.19.83.41,1.45.68,1.88s.6.64,1,.64c.19,0,.42-.12.7-.36.28-.24.53-.68.74-1.32.21-.64.32-1.52.32-2.64,0-.13.05-.21.14-.22Z"/><path class="cls-1" d="M415.03,118.68c.08,0,.12.07.12.2,0,1.65-.23,3-.68,4.04-.45,1.04-1.21,1.56-2.28,1.56-.77,0-1.39-.29-1.84-.88-.45-.59-.68-1.45-.68-2.6v-.76l-.12-.56c0-.08-.03-.12-.08-.12s-.09.05-.12.16c-.75,1.57-1.69,2.79-2.82,3.64-1.13.85-2.54,1.28-4.22,1.28-1.36,0-2.62-.38-3.78-1.14-1.16-.76-2.09-1.82-2.78-3.18-.69-1.36-1.04-2.91-1.04-4.64s.4-3.32,1.2-4.84c.8-1.52,1.88-2.74,3.24-3.66,1.36-.92,2.81-1.38,4.36-1.38,1.23,0,2.37.28,3.44.84,1.07.56,1.97,1.35,2.72,2.36v-9.48c0-.72-.11-1.23-.34-1.52-.23-.29-.54-.44-.94-.44-.11,0-.29.03-.56.08-.19.03-.27-.04-.24-.2.99-.24,1.83-.51,2.54-.8.71-.29,1.33-.69,1.86-1.2.19-.03.25.04.2.2-.16.61-.27,1.41-.32,2.4-.05.99-.08,2.52-.08,4.6v17.96c0,1.63.43,2.44,1.28,2.44.8,0,1.31-.36,1.52-1.08.21-.72.32-1.75.32-3.08,0-.13.04-.2.12-.2ZM408.23,121.2c.96-1.36,1.44-3.24,1.44-5.64v-1.4c-.05-1.12-.29-2.25-.7-3.4-.41-1.15-1.07-2.12-1.96-2.92s-2.01-1.2-3.34-1.2c-2.45,0-4.25.63-5.38,1.88-1.13,1.25-1.7,3.11-1.7,5.56,0,1.63.31,3.15.92,4.56.61,1.41,1.47,2.53,2.58,3.36,1.11.83,2.37,1.24,3.78,1.24,1.95,0,3.4-.68,4.36-2.04Z"/><path class="cls-1" d="M432.35,120.78c.05.04.07.1.04.18-1.04,1.25-2.19,2.17-3.44,2.76-1.25.59-2.68.88-4.28.88s-2.98-.38-4.3-1.14-2.37-1.83-3.14-3.2c-.77-1.37-1.16-2.95-1.16-4.74,0-1.89.43-3.58,1.28-5.06.85-1.48,2-2.63,3.44-3.44s3-1.22,4.68-1.22c1.87,0,3.41.55,4.64,1.66,1.23,1.11,1.84,2.55,1.84,4.34,0,.77-.15,1.64-.44,2.6l-4.04.08c-4.19.05-7.37.12-9.56.2.11,1.87.61,3.45,1.52,4.74.91,1.29,2,2.26,3.28,2.9,1.28.64,2.53.96,3.76.96.99,0,2.01-.17,3.08-.52,1.07-.35,1.96-1,2.68-1.96.03-.05.07-.06.12-.02ZM417.91,114v.44c1.44-.03,3.39-.09,5.84-.2,2.77-.11,4.72-.17,5.84-.2.19-.53.28-1.12.28-1.76,0-.99-.23-1.93-.7-2.84s-1.11-1.63-1.94-2.18c-.83-.55-1.72-.82-2.68-.82-4.43,0-6.64,2.52-6.64,7.56Z"/><path class="cls-1" d="M437.33,123.6c-.55-.67-.82-1.57-.82-2.72v-13.24c0-.37-.05-.64-.14-.8s-.33-.24-.7-.24h-1.36c-.11,0-.16-.03-.16-.1s.04-.11.12-.14c1.28-.24,2.28-.74,3-1.5s1.16-1.82,1.32-3.18c0-.13.04-.2.12-.2s.12.07.12.2c0,1.15-.05,2.45-.16,3.92v.16c0,.24.07.4.2.48s.39.12.76.12h4.04c.05,0,.07.04.04.12-.03.08-.08.12-.16.12h-3.72c-.48,0-.8.07-.96.22-.16.15-.24.43-.24.86v12.8c0,.85.2,1.54.6,2.06.4.52.91.78,1.52.78.51,0,1.03-.17,1.56-.52.53-.35,1.04-.87,1.52-1.56.08-.13.15-.19.2-.16.05.03.04.11-.04.24-.69,1.09-1.43,1.91-2.22,2.46-.79.55-1.55.82-2.3.82-.88,0-1.59-.33-2.14-1Z"/><path class="cls-1" d="M465.25,118.62c.09-.01.14.06.14.22,0,1.89-.31,3.33-.94,4.3-.63.97-1.35,1.46-2.18,1.46-.69,0-1.23-.29-1.62-.88-.39-.59-.71-1.49-.98-2.72l-.4-2c-.56,1.65-1.5,3-2.82,4.04-1.32,1.04-2.75,1.56-4.3,1.56-2.03,0-3.57-.57-4.64-1.7-1.07-1.13-1.6-2.49-1.6-4.06,0-.91.35-1.71,1.04-2.4s1.6-1.23,2.72-1.62,2.32-.58,3.6-.58c1.68,0,3.37.13,5.08.4l-.8-3.8c-.32-1.39-.85-2.41-1.6-3.08-.75-.67-1.89-1-3.44-1-1.09,0-2.13.23-3.12.7-.99.47-1.81,1.17-2.46,2.12-.65.95-.99,2.11-1.02,3.5,0,.16-.05.24-.14.24s-.14-.08-.14-.24c.05-1.44.47-2.71,1.26-3.82.79-1.11,1.78-1.96,2.98-2.56,1.2-.6,2.4-.9,3.6-.9,1.92,0,3.35.41,4.3,1.22.95.81,1.61,2.09,1.98,3.82l2.04,9.76c.19.83.4,1.46.64,1.9.24.44.55.66.92.66.21,0,.45-.12.72-.36.27-.24.51-.68.72-1.32.21-.64.32-1.52.32-2.64,0-.13.05-.21.14-.22ZM458.79,116.84l-.28-1.44c-1.76-.32-3.4-.48-4.92-.48-2.03,0-3.47.26-4.34.78-.87.52-1.3,1.49-1.3,2.9s.43,2.48,1.28,3.36,2.13,1.32,3.84,1.32c3.63,0,5.53-1.91,5.72-5.72.03-.21.03-.45,0-.72Z"/><path class="cls-1" d="M468.65,98c-.23-.29-.54-.44-.94-.44-.11,0-.29.03-.56.08-.16.03-.24-.04-.24-.2,2-.43,3.47-1.08,4.4-1.96.19-.05.25,0,.2.16-.16.59-.26,1.35-.3,2.3s-.06,2.51-.06,4.7v18.8c0,.75.22,1.34.66,1.78.44.44,1.02.69,1.74.74.08,0,.13.04.14.12.01.08-.03.12-.14.12-.48-.03-1.63-.04-3.44-.04s-2.93.01-3.44.04c-.13,0-.2-.05-.2-.14s.07-.14.2-.14c1.57.05,2.36-.77,2.36-2.48l-.04-21.92c0-.72-.11-1.23-.34-1.52Z"/><path class="cls-1" d="M478.57,98c-.23-.29-.54-.44-.94-.44-.11,0-.29.03-.56.08-.16.03-.24-.04-.24-.2,2-.43,3.47-1.08,4.4-1.96.19-.05.25,0,.2.16-.16.59-.26,1.35-.3,2.3s-.06,2.51-.06,4.7v18.8c0,.75.22,1.34.66,1.78.44.44,1.02.69,1.74.74.08,0,.13.04.14.12.01.08-.03.12-.14.12-.48-.03-1.63-.04-3.44-.04s-2.93.01-3.44.04c-.13,0-.2-.05-.2-.14s.07-.14.2-.14c1.57.05,2.36-.77,2.36-2.48l-.04-21.92c0-.72-.11-1.23-.34-1.52Z"/><path class="cls-1" d="M502.47,120.78c.05.04.07.1.04.18-1.04,1.25-2.19,2.17-3.44,2.76-1.25.59-2.68.88-4.28.88s-2.98-.38-4.3-1.14-2.37-1.83-3.14-3.2c-.77-1.37-1.16-2.95-1.16-4.74,0-1.89.43-3.58,1.28-5.06.85-1.48,2-2.63,3.44-3.44s3-1.22,4.68-1.22c1.87,0,3.41.55,4.64,1.66,1.23,1.11,1.84,2.55,1.84,4.34,0,.77-.15,1.64-.44,2.6l-4.04.08c-4.19.05-7.37.12-9.56.2.11,1.87.61,3.45,1.52,4.74.91,1.29,2,2.26,3.28,2.9,1.28.64,2.53.96,3.76.96.99,0,2.01-.17,3.08-.52,1.07-.35,1.96-1,2.68-1.96.03-.05.07-.06.12-.02ZM488.03,114v.44c1.44-.03,3.39-.09,5.84-.2,2.77-.11,4.72-.17,5.84-.2.19-.53.28-1.12.28-1.76,0-.99-.23-1.93-.7-2.84s-1.11-1.63-1.94-2.18c-.83-.55-1.72-.82-2.68-.82-4.43,0-6.64,2.52-6.64,7.56Z"/><path class="cls-1" d="M16.28,168.78c.05.04.07.1.04.18-1.04,1.25-2.19,2.17-3.44,2.76-1.25.59-2.68.88-4.28.88s-2.98-.38-4.3-1.14-2.37-1.83-3.14-3.2c-.77-1.37-1.16-2.95-1.16-4.74,0-1.89.43-3.58,1.28-5.06.85-1.48,2-2.63,3.44-3.44s3-1.22,4.68-1.22c1.87,0,3.41.55,4.64,1.66,1.23,1.11,1.84,2.55,1.84,4.34,0,.77-.15,1.64-.44,2.6l-4.04.08c-4.19.05-7.37.12-9.56.2.11,1.87.61,3.45,1.52,4.74.91,1.29,2,2.26,3.28,2.9,1.28.64,2.53.96,3.76.96.99,0,2.01-.17,3.08-.52,1.07-.35,1.96-1,2.68-1.96.03-.05.07-.06.12-.02ZM1.84,162v.44c1.44-.03,3.39-.09,5.84-.2,2.77-.11,4.72-.17,5.84-.2.19-.53.28-1.12.28-1.76,0-.99-.23-1.93-.7-2.84s-1.11-1.63-1.94-2.18c-.83-.55-1.72-.82-2.68-.82-4.43,0-6.64,2.52-6.64,7.56Z"/><path class="cls-1" d="M19.2,165.4c.03-.11.07-.15.14-.14.07.01.1.07.1.18-.05.64-.08,1.07-.08,1.28,0,1.87.48,3.21,1.44,4.02s2.4,1.22,4.32,1.22c1.6,0,2.85-.25,3.74-.74.89-.49,1.34-1.37,1.34-2.62-.03-1.12-.47-2.04-1.32-2.76-.85-.72-2.32-1.57-4.4-2.56-1.84-.91-3.19-1.69-4.06-2.36-.87-.67-1.3-1.48-1.3-2.44,0-.75.29-1.49.86-2.22.57-.73,1.37-1.33,2.4-1.78s2.17-.68,3.42-.68c1.57,0,2.96.21,4.16.64s1.8,1.07,1.8,1.92c0,.16-.01.28-.04.36l-.88,3.88c-.03.11-.07.15-.14.14s-.09-.07-.06-.18c.05-.64.08-1.09.08-1.36,0-1.63-.4-2.81-1.2-3.54-.8-.73-2.19-1.1-4.16-1.1-1.68,0-2.83.24-3.46.72-.63.48-.94,1.13-.94,1.96s.4,1.57,1.2,2.16,2.13,1.35,4,2.28c1.87.85,3.35,1.73,4.44,2.62,1.09.89,1.64,1.94,1.64,3.14,0,.88-.31,1.72-.94,2.52s-1.51,1.45-2.66,1.94c-1.15.49-2.45.74-3.92.74-1.97,0-3.55-.3-4.74-.9-1.19-.6-1.7-1.37-1.54-2.3l.76-4.04Z"/><path class="cls-1" d="M50.74,154.94c1.13.76,2.03,1.83,2.7,3.2.67,1.37,1,2.94,1,4.7s-.38,3.31-1.14,4.82c-.76,1.51-1.81,2.71-3.14,3.62s-2.83,1.36-4.48,1.36c-1.28,0-2.3-.19-3.06-.58-.76-.39-1.47-.89-2.14-1.5-.35-.35-.59-.52-.72-.52-.21,0-.32.27-.32.8v6.64c0,1.57.72,2.4,2.16,2.48.08,0,.13.04.14.12s-.03.12-.14.12c-1.07-.05-2.03-.08-2.88-.08-1.04,0-2.2.03-3.48.08-.13,0-.2-.05-.2-.14s.07-.14.2-.14c.72.03,1.25-.15,1.58-.54.33-.39.5-1.03.5-1.94v-19.8c0-.64-.11-1.11-.34-1.4-.23-.29-.61-.44-1.14-.44-.24,0-.55.04-.92.12-.08.03-.13,0-.16-.06-.03-.07-.01-.11.04-.14,2.21-.53,3.73-1.09,4.56-1.68.13-.08.24-.1.32-.06s.12.09.12.14c-.19,1.07-.29,2.08-.32,3.04,0,.37.03.79.08,1.24.05.45.12.72.2.8,1.71-3.6,4.11-5.4,7.2-5.4,1.39,0,2.65.38,3.78,1.14ZM50.94,170.02c1.05-1.24,1.58-3.1,1.58-5.58,0-1.68-.28-3.22-.84-4.62-.56-1.4-1.37-2.51-2.42-3.34-1.05-.83-2.3-1.24-3.74-1.24-1.17,0-2.22.31-3.14.94-.92.63-1.64,1.51-2.16,2.64-.52,1.13-.78,2.41-.78,3.82v1.84c0,2.11.55,3.87,1.64,5.28,1.09,1.41,2.69,2.12,4.8,2.12,2.32,0,4.01-.62,5.06-1.86Z"/><path class="cls-1" d="M73.28,168.78c.05.04.07.1.04.18-1.04,1.25-2.19,2.17-3.44,2.76-1.25.59-2.68.88-4.28.88s-2.98-.38-4.3-1.14-2.37-1.83-3.14-3.2c-.77-1.37-1.16-2.95-1.16-4.74,0-1.89.43-3.58,1.28-5.06.85-1.48,2-2.63,3.44-3.44s3-1.22,4.68-1.22c1.87,0,3.41.55,4.64,1.66,1.23,1.11,1.84,2.55,1.84,4.34,0,.77-.15,1.64-.44,2.6l-4.04.08c-4.19.05-7.37.12-9.56.2.11,1.87.61,3.45,1.52,4.74.91,1.29,2,2.26,3.28,2.9,1.28.64,2.53.96,3.76.96.99,0,2.01-.17,3.08-.52,1.07-.35,1.96-1,2.68-1.96.03-.05.07-.06.12-.02ZM58.84,162v.44c1.44-.03,3.39-.09,5.84-.2,2.77-.11,4.72-.17,5.84-.2.19-.53.28-1.12.28-1.76,0-.99-.23-1.93-.7-2.84s-1.11-1.63-1.94-2.18c-.83-.55-1.72-.82-2.68-.82-4.43,0-6.64,2.52-6.64,7.56Z"/><path class="cls-1" d="M90,162.4c-.03.11-.08.15-.16.12-.08-.03-.11-.09-.08-.2.16-.69.24-1.36.24-2,0-1.71-.52-3.09-1.56-4.14-1.04-1.05-2.44-1.58-4.2-1.58-2.13,0-3.8.57-5,1.72s-1.8,3.03-1.8,5.64c0,2.03.44,3.74,1.32,5.14.88,1.4,1.98,2.45,3.3,3.14,1.32.69,2.62,1.04,3.9,1.04.99,0,2.01-.17,3.08-.52,1.07-.35,1.96-1,2.68-1.96.08-.05.15-.06.2-.02s.05.1,0,.18c-1.07,1.28-2.21,2.21-3.42,2.78s-2.65.86-4.3.86-3.02-.38-4.34-1.14-2.37-1.83-3.14-3.2c-.77-1.37-1.16-2.95-1.16-4.74s.43-3.5,1.3-4.98c.87-1.48,2.04-2.64,3.52-3.48,1.48-.84,3.1-1.26,4.86-1.26,1.2,0,2.29.19,3.26.58.97.39,1.71.88,2.22,1.48.51.6.69,1.19.56,1.78l-1.28,4.76Z"/><path class="cls-1" d="M99.42,171.22c.44.44,1.02.69,1.74.74.11,0,.16.04.16.12s-.05.12-.16.12c-.48-.03-1.63-.04-3.44-.04s-2.93.01-3.44.04c-.11,0-.16-.05-.16-.14s.05-.14.16-.14c1.57.05,2.36-.77,2.36-2.48v-11.8c0-.64-.11-1.11-.34-1.4-.23-.29-.61-.44-1.14-.44-.24,0-.55.04-.92.12-.08.03-.13,0-.16-.06-.03-.07-.01-.11.04-.14,2.21-.53,3.75-1.09,4.6-1.68.11-.08.2-.1.28-.06s.12.09.12.14c-.11.72-.19,1.39-.26,2.02-.07.63-.1,1.35-.1,2.18v11.12c0,.75.22,1.34.66,1.78ZM96.14,147.74c-.31-.23-.46-.5-.46-.82,0-.4.19-.74.58-1.02.39-.28.89-.42,1.5-.42.48,0,.87.11,1.18.34s.46.51.46.86c0,.37-.19.7-.58.98s-.89.42-1.5.42c-.48,0-.87-.11-1.18-.34Z"/><path class="cls-1" d="M123.62,166.62c.09-.01.14.06.14.22,0,1.89-.31,3.33-.94,4.3-.63.97-1.35,1.46-2.18,1.46-.69,0-1.23-.29-1.62-.88-.39-.59-.71-1.49-.98-2.72l-.4-2c-.56,1.65-1.5,3-2.82,4.04-1.32,1.04-2.75,1.56-4.3,1.56-2.03,0-3.57-.57-4.64-1.7-1.07-1.13-1.6-2.49-1.6-4.06,0-.91.35-1.71,1.04-2.4s1.6-1.23,2.72-1.62,2.32-.58,3.6-.58c1.68,0,3.37.13,5.08.4l-.8-3.8c-.32-1.39-.85-2.41-1.6-3.08-.75-.67-1.89-1-3.44-1-1.09,0-2.13.23-3.12.7-.99.47-1.81,1.17-2.46,2.12-.65.95-.99,2.11-1.02,3.5,0,.16-.05.24-.14.24s-.14-.08-.14-.24c.05-1.44.47-2.71,1.26-3.82.79-1.11,1.78-1.96,2.98-2.56,1.2-.6,2.4-.9,3.6-.9,1.92,0,3.35.41,4.3,1.22.95.81,1.61,2.09,1.98,3.82l2.04,9.76c.19.83.4,1.46.64,1.9.24.44.55.66.92.66.21,0,.45-.12.72-.36.27-.24.51-.68.72-1.32.21-.64.32-1.52.32-2.64,0-.13.05-.21.14-.22ZM117.16,164.84l-.28-1.44c-1.76-.32-3.4-.48-4.92-.48-2.03,0-3.47.26-4.34.78-.87.52-1.3,1.49-1.3,2.9s.43,2.48,1.28,3.36,2.13,1.32,3.84,1.32c3.63,0,5.53-1.91,5.72-5.72.03-.21.03-.45,0-.72Z"/><path class="cls-1" d="M127.02,146c-.23-.29-.54-.44-.94-.44-.11,0-.29.03-.56.08-.16.03-.24-.04-.24-.2,2-.43,3.47-1.08,4.4-1.96.19-.05.25,0,.2.16-.16.59-.26,1.35-.3,2.3s-.06,2.51-.06,4.7v18.8c0,.75.22,1.34.66,1.78.44.44,1.02.69,1.74.74.08,0,.13.04.14.12.01.08-.03.12-.14.12-.48-.03-1.63-.04-3.44-.04s-2.93.01-3.44.04c-.13,0-.2-.05-.2-.14s.07-.14.2-.14c1.57.05,2.36-.77,2.36-2.48l-.04-21.92c0-.72-.11-1.23-.34-1.52Z"/><path class="cls-1" d="M136.38,176.6c-.04-.05,0-.12.1-.2,1.36-1.04,2.04-2.19,2.04-3.44,0-.24-.1-.39-.3-.46-.2-.07-.51-.11-.94-.14-.53-.05-.93-.13-1.2-.24s-.4-.36-.4-.76c0-.35.21-.67.64-.96.43-.29.93-.44,1.52-.44.67,0,1.14.17,1.42.5.28.33.42.73.42,1.18,0,.88-.31,1.79-.94,2.74-.63.95-1.34,1.69-2.14,2.22-.11.05-.18.05-.22,0Z"/><path class="cls-1" d="M153.29,171.6c-.55-.67-.82-1.57-.82-2.72v-13.24c0-.37-.05-.64-.14-.8s-.33-.24-.7-.24h-1.36c-.11,0-.16-.03-.16-.1s.04-.11.12-.14c1.28-.24,2.28-.74,3-1.5s1.16-1.82,1.32-3.18c0-.13.04-.2.12-.2s.12.07.12.2c0,1.15-.05,2.45-.16,3.92v.16c0,.24.07.4.2.48s.39.12.76.12h4.04c.05,0,.07.04.04.12-.03.08-.08.12-.16.12h-3.72c-.48,0-.8.07-.96.22-.16.15-.24.43-.24.86v12.8c0,.85.2,1.54.6,2.06.4.52.91.78,1.52.78.51,0,1.03-.17,1.56-.52.53-.35,1.04-.87,1.52-1.56.08-.13.15-.19.2-.16.05.03.04.11-.04.24-.69,1.09-1.43,1.91-2.22,2.46-.79.55-1.55.82-2.3.82-.88,0-1.59-.33-2.14-1Z"/><path class="cls-1" d="M177.79,168.78c.05.04.07.1.04.18-1.04,1.25-2.19,2.17-3.44,2.76-1.25.59-2.68.88-4.28.88s-2.98-.38-4.3-1.14-2.37-1.83-3.14-3.2c-.77-1.37-1.16-2.95-1.16-4.74,0-1.89.43-3.58,1.28-5.06.85-1.48,2-2.63,3.44-3.44s3-1.22,4.68-1.22c1.87,0,3.41.55,4.64,1.66,1.23,1.11,1.84,2.55,1.84,4.34,0,.77-.15,1.64-.44,2.6l-4.04.08c-4.19.05-7.37.12-9.56.2.11,1.87.61,3.45,1.52,4.74.91,1.29,2,2.26,3.28,2.9,1.28.64,2.53.96,3.76.96.99,0,2.01-.17,3.08-.52,1.07-.35,1.96-1,2.68-1.96.03-.05.07-.06.12-.02ZM163.35,162v.44c1.44-.03,3.39-.09,5.84-.2,2.77-.11,4.72-.17,5.84-.2.19-.53.28-1.12.28-1.76,0-.99-.23-1.93-.7-2.84s-1.11-1.63-1.94-2.18c-.83-.55-1.72-.82-2.68-.82-4.43,0-6.64,2.52-6.64,7.56Z"/><path class="cls-1" d="M207.83,166.68c.08,0,.12.07.12.2,0,1.65-.23,3-.68,4.04-.45,1.04-1.21,1.56-2.28,1.56-.77,0-1.39-.29-1.84-.88-.45-.59-.68-1.45-.68-2.6v-.76l-.12-.56c0-.08-.03-.12-.08-.12s-.09.05-.12.16c-.75,1.57-1.69,2.79-2.82,3.64-1.13.85-2.54,1.28-4.22,1.28-1.36,0-2.62-.38-3.78-1.14-1.16-.76-2.09-1.82-2.78-3.18-.69-1.36-1.04-2.91-1.04-4.64s.4-3.32,1.2-4.84c.8-1.52,1.88-2.74,3.24-3.66,1.36-.92,2.81-1.38,4.36-1.38,1.23,0,2.37.28,3.44.84,1.07.56,1.97,1.35,2.72,2.36v-9.48c0-.72-.11-1.23-.34-1.52-.23-.29-.54-.44-.94-.44-.11,0-.29.03-.56.08-.19.03-.27-.04-.24-.2.99-.24,1.83-.51,2.54-.8.71-.29,1.33-.69,1.86-1.2.19-.03.25.04.2.2-.16.61-.27,1.41-.32,2.4-.05.99-.08,2.52-.08,4.6v17.96c0,1.63.43,2.44,1.28,2.44.8,0,1.31-.36,1.52-1.08.21-.72.32-1.75.32-3.08,0-.13.04-.2.12-.2ZM201.03,169.2c.96-1.36,1.44-3.24,1.44-5.64v-1.4c-.05-1.12-.29-2.25-.7-3.4-.41-1.15-1.07-2.12-1.96-2.92s-2.01-1.2-3.34-1.2c-2.45,0-4.25.63-5.38,1.88-1.13,1.25-1.7,3.11-1.7,5.56,0,1.63.31,3.15.92,4.56.61,1.41,1.47,2.53,2.58,3.36,1.11.83,2.37,1.24,3.78,1.24,1.95,0,3.4-.68,4.36-2.04Z"/><path class="cls-1" d="M225.15,168.78c.05.04.07.1.04.18-1.04,1.25-2.19,2.17-3.44,2.76-1.25.59-2.68.88-4.28.88s-2.98-.38-4.3-1.14-2.37-1.83-3.14-3.2c-.77-1.37-1.16-2.95-1.16-4.74,0-1.89.43-3.58,1.28-5.06.85-1.48,2-2.63,3.44-3.44s3-1.22,4.68-1.22c1.87,0,3.41.55,4.64,1.66,1.23,1.11,1.84,2.55,1.84,4.34,0,.77-.15,1.64-.44,2.6l-4.04.08c-4.19.05-7.37.12-9.56.2.11,1.87.61,3.45,1.52,4.74.91,1.29,2,2.26,3.28,2.9,1.28.64,2.53.96,3.76.96.99,0,2.01-.17,3.08-.52,1.07-.35,1.96-1,2.68-1.96.03-.05.07-.06.12-.02ZM210.71,162v.44c1.44-.03,3.39-.09,5.84-.2,2.77-.11,4.72-.17,5.84-.2.19-.53.28-1.12.28-1.76,0-.99-.23-1.93-.7-2.84s-1.11-1.63-1.94-2.18c-.83-.55-1.72-.82-2.68-.82-4.43,0-6.64,2.52-6.64,7.56Z"/><path class="cls-1" d="M229.87,157.64c0-.64-.11-1.11-.34-1.4-.23-.29-.61-.44-1.14-.44-.27,0-.57.04-.92.12-.08.03-.13,0-.16-.06-.03-.07-.01-.11.04-.14,2.16-.53,3.68-1.09,4.56-1.68.13-.08.24-.1.32-.06s.12.09.12.14c-.11.72-.19,1.39-.26,2.02-.07.63-.1,1.35-.1,2.18v9.44c0,2.05-.45,3.73-1.36,5.04-.91,1.31-1.95,2.25-3.12,2.84-1.17.59-2.2.91-3.08.96-.19.03-.27,0-.26-.08.01-.08.1-.13.26-.16,1.36-.16,2.61-.79,3.74-1.9s1.7-3.17,1.7-6.18v-10.64ZM228.89,147.74c-.31-.23-.46-.5-.46-.82,0-.4.19-.74.58-1.02.39-.28.89-.42,1.5-.42.48,0,.87.11,1.18.34.31.23.46.51.46.86,0,.37-.19.7-.58.98s-.89.42-1.5.42c-.48,0-.87-.11-1.18-.34Z"/><path class="cls-1" d="M240.55,171.5c-1.33-.76-2.39-1.83-3.18-3.2-.79-1.37-1.18-2.95-1.18-4.74s.43-3.34,1.3-4.82c.87-1.48,2.06-2.67,3.58-3.56,1.52-.89,3.2-1.34,5.04-1.34,1.6,0,3.08.38,4.44,1.14,1.36.76,2.43,1.83,3.22,3.2.79,1.37,1.18,2.93,1.18,4.66s-.44,3.35-1.32,4.86c-.88,1.51-2.09,2.71-3.62,3.6-1.53.89-3.22,1.34-5.06,1.34-1.6,0-3.07-.38-4.4-1.14ZM251.19,169.96c1.25-1.23,1.88-3.05,1.88-5.48,0-1.6-.35-3.15-1.06-4.66-.71-1.51-1.69-2.74-2.94-3.7-1.25-.96-2.63-1.44-4.12-1.44-2.16,0-3.85.6-5.06,1.8-1.21,1.2-1.82,3.01-1.82,5.44,0,1.6.35,3.16,1.04,4.68.69,1.52,1.65,2.77,2.86,3.74,1.21.97,2.54,1.46,3.98,1.46,2.24,0,3.99-.61,5.24-1.84Z"/><path class="cls-1" d="M298.33,166.62c.09-.01.14.06.14.22,0,1.89-.31,3.33-.94,4.3-.63.97-1.35,1.46-2.18,1.46-.69,0-1.25-.29-1.66-.88-.41-.59-.77-1.48-1.06-2.68l-2.56-10.32c-.37-1.44-.88-2.43-1.52-2.98-.64-.55-1.51-.82-2.6-.82-1.49,0-2.63.49-3.4,1.48s-1.24,2.31-1.4,3.96l1.48,9.24c.13.77.35,1.33.66,1.68s.63.49.98.44c.11,0,.17.03.18.08.01.05-.03.09-.14.12-.24.24-.51.41-.8.52-.29.11-.59.13-.88.08-.53-.11-.99-.36-1.36-.76-.37-.4-.61-.93-.72-1.6l-1.68-10.56c-.29-1.71-.8-2.91-1.52-3.62-.72-.71-1.64-1.06-2.76-1.06-1.33,0-2.43.6-3.3,1.8-.87,1.2-1.37,2.76-1.5,4.68v8.28c0,.77.21,1.33.64,1.68s1.01.55,1.76.6c.11,0,.16.04.16.12s-.05.12-.16.12c-.51-.03-1.64-.04-3.4-.04s-2.92.01-3.48.04c-.11,0-.16-.05-.16-.14s.05-.14.16-.14c.83,0,1.43-.15,1.8-.46.37-.31.56-.91.56-1.82v-12c0-.64-.11-1.11-.34-1.4-.23-.29-.61-.44-1.14-.44-.24,0-.55.04-.92.12-.08.03-.13,0-.16-.06-.03-.07-.01-.11.04-.14,2.21-.53,3.75-1.09,4.6-1.68.11-.08.2-.1.28-.06s.12.09.12.14c-.11.72-.19,1.39-.26,2.02-.07.63-.1,1.35-.1,2.18v.92c.37-1.52,1.13-2.81,2.26-3.86,1.13-1.05,2.37-1.58,3.7-1.58,1.23,0,2.31.43,3.26,1.28s1.59,2.23,1.94,4.12c.29-1.52.98-2.8,2.06-3.84s2.38-1.56,3.9-1.56c1.41,0,2.55.34,3.4,1.02.85.68,1.49,1.89,1.92,3.62l2.52,10.2c.4,1.68.96,2.52,1.68,2.52.21,0,.45-.12.72-.36.27-.24.51-.68.72-1.32.21-.64.32-1.52.32-2.64,0-.13.05-.21.14-.22Z"/><path class="cls-1" d="M303.85,171.22c.44.44,1.02.69,1.74.74.11,0,.16.04.16.12s-.05.12-.16.12c-.48-.03-1.63-.04-3.44-.04s-2.93.01-3.44.04c-.11,0-.16-.05-.16-.14s.05-.14.16-.14c1.57.05,2.36-.77,2.36-2.48v-11.8c0-.64-.11-1.11-.34-1.4-.23-.29-.61-.44-1.14-.44-.24,0-.55.04-.92.12-.08.03-.13,0-.16-.06-.03-.07-.01-.11.04-.14,2.21-.53,3.75-1.09,4.6-1.68.11-.08.2-.1.28-.06s.12.09.12.14c-.11.72-.19,1.39-.26,2.02-.07.63-.1,1.35-.1,2.18v11.12c0,.75.22,1.34.66,1.78ZM300.57,147.74c-.31-.23-.46-.5-.46-.82,0-.4.19-.74.58-1.02.39-.28.89-.42,1.5-.42.48,0,.87.11,1.18.34s.46.51.46.86c0,.37-.19.7-.58.98s-.89.42-1.5.42c-.48,0-.87-.11-1.18-.34Z"/><path class="cls-1" d="M335.61,166.62c.09-.01.14.06.14.22,0,1.89-.31,3.33-.94,4.3-.63.97-1.35,1.46-2.18,1.46-.69,0-1.23-.29-1.62-.88-.39-.59-.71-1.49-.98-2.72l-.4-2c-.56,1.65-1.5,3-2.82,4.04-1.32,1.04-2.75,1.56-4.3,1.56-2.03,0-3.57-.57-4.64-1.7-1.07-1.13-1.6-2.49-1.6-4.06,0-.91.35-1.71,1.04-2.4s1.6-1.23,2.72-1.62,2.32-.58,3.6-.58c1.68,0,3.37.13,5.08.4l-.8-3.8c-.32-1.39-.85-2.41-1.6-3.08-.75-.67-1.89-1-3.44-1-1.09,0-2.13.23-3.12.7-.99.47-1.81,1.17-2.46,2.12-.65.95-.99,2.11-1.02,3.5,0,.16-.05.24-.14.24s-.14-.08-.14-.24c.05-1.44.47-2.71,1.26-3.82.79-1.11,1.78-1.96,2.98-2.56,1.2-.6,2.4-.9,3.6-.9,1.92,0,3.35.41,4.3,1.22.95.81,1.61,2.09,1.98,3.82l2.04,9.76c.19.83.4,1.46.64,1.9.24.44.55.66.92.66.21,0,.45-.12.72-.36.27-.24.51-.68.72-1.32.21-.64.32-1.52.32-2.64,0-.13.05-.21.14-.22ZM329.15,164.84l-.28-1.44c-1.76-.32-3.4-.48-4.92-.48-2.03,0-3.47.26-4.34.78-.87.52-1.3,1.49-1.3,2.9s.43,2.48,1.28,3.36,2.13,1.32,3.84,1.32c3.63,0,5.53-1.91,5.72-5.72.03-.21.03-.45,0-.72Z"/><path class="cls-1" d="M339.01,146c-.23-.29-.54-.44-.94-.44-.11,0-.29.03-.56.08-.16.03-.24-.04-.24-.2,2-.43,3.47-1.08,4.4-1.96.19-.05.25,0,.2.16-.16.59-.26,1.35-.3,2.3s-.06,2.51-.06,4.7v18.8c0,.75.22,1.34.66,1.78.44.44,1.02.69,1.74.74.08,0,.13.04.14.12.01.08-.03.12-.14.12-.48-.03-1.63-.04-3.44-.04s-2.93.01-3.44.04c-.13,0-.2-.05-.2-.14s.07-.14.2-.14c1.57.05,2.36-.77,2.36-2.48l-.04-21.92c0-.72-.11-1.23-.34-1.52Z"/><path class="cls-1" d="M352.09,171.22c.44.44,1.02.69,1.74.74.11,0,.16.04.16.12s-.05.12-.16.12c-.48-.03-1.63-.04-3.44-.04s-2.93.01-3.44.04c-.11,0-.16-.05-.16-.14s.05-.14.16-.14c1.57.05,2.36-.77,2.36-2.48v-11.8c0-.64-.11-1.11-.34-1.4-.23-.29-.61-.44-1.14-.44-.24,0-.55.04-.92.12-.08.03-.13,0-.16-.06-.03-.07-.01-.11.04-.14,2.21-.53,3.75-1.09,4.6-1.68.11-.08.2-.1.28-.06s.12.09.12.14c-.11.72-.19,1.39-.26,2.02-.07.63-.1,1.35-.1,2.18v11.12c0,.75.22,1.34.66,1.78ZM348.81,147.74c-.31-.23-.46-.5-.46-.82,0-.4.19-.74.58-1.02.39-.28.89-.42,1.5-.42.48,0,.87.11,1.18.34s.46.51.46.86c0,.37-.19.7-.58.98s-.89.42-1.5.42c-.48,0-.87-.11-1.18-.34Z"/><path class="cls-1" d="M376.29,166.62c.09-.01.14.06.14.22,0,1.89-.31,3.33-.94,4.3-.63.97-1.35,1.46-2.18,1.46-.69,0-1.23-.29-1.62-.88-.39-.59-.71-1.49-.98-2.72l-.4-2c-.56,1.65-1.5,3-2.82,4.04-1.32,1.04-2.75,1.56-4.3,1.56-2.03,0-3.57-.57-4.64-1.7-1.07-1.13-1.6-2.49-1.6-4.06,0-.91.35-1.71,1.04-2.4s1.6-1.23,2.72-1.62,2.32-.58,3.6-.58c1.68,0,3.37.13,5.08.4l-.8-3.8c-.32-1.39-.85-2.41-1.6-3.08-.75-.67-1.89-1-3.44-1-1.09,0-2.13.23-3.12.7-.99.47-1.81,1.17-2.46,2.12-.65.95-.99,2.11-1.02,3.5,0,.16-.05.24-.14.24s-.14-.08-.14-.24c.05-1.44.47-2.71,1.26-3.82.79-1.11,1.78-1.96,2.98-2.56,1.2-.6,2.4-.9,3.6-.9,1.92,0,3.35.41,4.3,1.22.95.81,1.61,2.09,1.98,3.82l2.04,9.76c.19.83.4,1.46.64,1.9.24.44.55.66.92.66.21,0,.45-.12.72-.36.27-.24.51-.68.72-1.32.21-.64.32-1.52.32-2.64,0-.13.05-.21.14-.22ZM369.83,164.84l-.28-1.44c-1.76-.32-3.4-.48-4.92-.48-2.03,0-3.47.26-4.34.78-.87.52-1.3,1.49-1.3,2.9s.43,2.48,1.28,3.36,2.13,1.32,3.84,1.32c3.63,0,5.53-1.91,5.72-5.72.03-.21.03-.45,0-.72Z"/><path class="cls-1" d="M377.15,165.4c.03-.11.07-.15.14-.14.07.01.1.07.1.18-.05.64-.08,1.07-.08,1.28,0,1.87.48,3.21,1.44,4.02s2.4,1.22,4.32,1.22c1.6,0,2.85-.25,3.74-.74.89-.49,1.34-1.37,1.34-2.62-.03-1.12-.47-2.04-1.32-2.76-.85-.72-2.32-1.57-4.4-2.56-1.84-.91-3.19-1.69-4.06-2.36-.87-.67-1.3-1.48-1.3-2.44,0-.75.29-1.49.86-2.22.57-.73,1.37-1.33,2.4-1.78s2.17-.68,3.42-.68c1.57,0,2.96.21,4.16.64s1.8,1.07,1.8,1.92c0,.16-.01.28-.04.36l-.88,3.88c-.03.11-.07.15-.14.14s-.09-.07-.06-.18c.05-.64.08-1.09.08-1.36,0-1.63-.4-2.81-1.2-3.54-.8-.73-2.19-1.1-4.16-1.1-1.68,0-2.83.24-3.46.72-.63.48-.94,1.13-.94,1.96s.4,1.57,1.2,2.16,2.13,1.35,4,2.28c1.87.85,3.35,1.73,4.44,2.62,1.09.89,1.64,1.94,1.64,3.14,0,.88-.31,1.72-.94,2.52s-1.51,1.45-2.66,1.94c-1.15.49-2.45.74-3.92.74-1.97,0-3.55-.3-4.74-.9-1.19-.6-1.7-1.37-1.54-2.3l.76-4.04Z"/><path class="cls-1" d="M394.07,172.1c-.27-.2-.4-.45-.4-.74,0-.37.21-.7.64-.98.43-.28.97-.42,1.64-.42.43,0,.77.09,1.04.28s.4.43.4.72c0,.4-.22.74-.66,1.02-.44.28-.98.42-1.62.42-.43,0-.77-.1-1.04-.3Z"/></g></svg>