<?xml version="1.0" encoding="UTF-8"?><svg id="Capa_2" xmlns="http://www.w3.org/2000/svg" viewBox="0 0 742.94 88.62"><defs><style>.cls-1{fill:#1b2f52;}</style></defs><g id="Texto"><path class="cls-1" d="M1.1,38.09V1.71h12.45c2.83,0,5.16.52,7,1.55,1.83,1.03,3.19,2.42,4.08,4.16.89,1.74,1.33,3.69,1.33,5.86s-.44,4.13-1.33,5.88-2.24,3.16-4.06,4.2c-1.82,1.04-4.15,1.56-6.98,1.56H4.76v-4.08h8.59c1.92,0,3.47-.33,4.64-.99s2.02-1.56,2.55-2.71c.53-1.15.79-2.44.79-3.87s-.27-2.71-.79-3.85c-.53-1.13-1.38-2.02-2.56-2.67-1.18-.65-2.74-.98-4.68-.98h-7.57v32.3H1.1Z"/><path class="cls-1" d="M43.33,38.67c-2.47,0-4.64-.59-6.51-1.76s-3.32-2.82-4.36-4.93c-1.04-2.12-1.56-4.57-1.56-7.37s.52-5.33,1.56-7.46c1.04-2.12,2.49-3.77,4.36-4.94s4.03-1.76,6.51-1.76,4.67.59,6.54,1.76c1.87,1.17,3.33,2.82,4.37,4.94,1.04,2.12,1.56,4.61,1.56,7.46s-.52,5.26-1.56,7.37c-1.04,2.12-2.5,3.76-4.37,4.93-1.87,1.17-4.05,1.76-6.54,1.76ZM43.33,34.74c1.84,0,3.35-.47,4.54-1.42,1.19-.94,2.07-2.19,2.64-3.72.57-1.54.86-3.2.86-4.99s-.29-3.49-.86-5.04c-.57-1.55-1.45-2.81-2.64-3.76-1.19-.95-2.7-1.43-4.54-1.43s-3.32.48-4.49,1.43-2.04,2.2-2.61,3.75c-.57,1.55-.86,3.23-.86,5.05s.29,3.45.86,4.99c.57,1.54,1.44,2.78,2.61,3.72,1.17.94,2.67,1.42,4.49,1.42Z"/><path class="cls-1" d="M62.21,38.09V10.79h4.25v4.2h.29c.5-1.38,1.4-2.49,2.7-3.33,1.29-.84,2.75-1.26,4.38-1.26.32,0,.71,0,1.16.02.45.02.8.03,1.06.05v4.42c-.13-.03-.46-.08-.98-.15-.52-.06-1.07-.1-1.66-.1-1.3,0-2.47.27-3.5.82-1.04.55-1.84,1.29-2.43,2.25s-.88,2.05-.88,3.28v17.09h-4.39Z"/><path class="cls-1" d="M107.79,10.79v3.76h-16.06v-3.76h16.06ZM97.09,38.09V7.15c0-1.58.37-2.9,1.11-3.96.74-1.06,1.71-1.86,2.89-2.39s2.44-.81,3.76-.81c1.04,0,1.9.09,2.59.26s1.19.33,1.51.48l-1.22,3.76c-.23-.08-.53-.17-.89-.27-.37-.1-.86-.15-1.48-.15-1.35,0-2.34.35-2.96,1.04-.62.69-.93,1.7-.93,3.02v29.96h-4.39Z"/><path class="cls-1" d="M120.46,38.72c-1.73,0-3.29-.33-4.7-.98-1.41-.65-2.53-1.6-3.36-2.86-.83-1.25-1.25-2.77-1.25-4.57,0-1.56.31-2.83.93-3.81s1.45-1.75,2.48-2.31,2.18-.98,3.43-1.26c1.25-.28,2.52-.5,3.79-.66,1.63-.21,2.95-.37,3.98-.49,1.03-.11,1.79-.31,2.28-.59.5-.28.74-.75.74-1.42v-.15c0-1.14-.21-2.1-.63-2.89-.42-.79-1.06-1.4-1.9-1.82-.85-.42-1.9-.63-3.17-.63s-2.42.2-3.34.61c-.93.41-1.68.92-2.26,1.53-.58.61-1.01,1.23-1.3,1.87l-4.22-1.39c.7-1.66,1.64-2.96,2.83-3.89,1.19-.94,2.5-1.6,3.93-1.99,1.43-.39,2.85-.59,4.25-.59.91,0,1.95.11,3.11.33,1.16.22,2.29.66,3.37,1.31,1.08.65,1.98,1.62,2.69,2.89.71,1.28,1.06,2.98,1.06,5.11v17.99h-4.32v-3.71h-.29c-.31.63-.81,1.29-1.49,1.97-.68.68-1.57,1.24-2.66,1.7-1.09.46-2.41.68-3.96.68ZM121.21,34.84c1.63,0,3-.32,4.13-.95s1.98-1.46,2.56-2.48c.59-1.02.88-2.08.88-3.19v-3.78c-.18.21-.57.4-1.17.57s-1.29.32-2.06.45c-.77.13-1.52.24-2.25.33-.72.09-1.3.16-1.72.21-1.06.13-2.05.35-2.97.67s-1.66.78-2.21,1.39c-.55.61-.83,1.44-.83,2.48,0,.94.24,1.73.73,2.37s1.15,1.12,2,1.44c.85.33,1.81.49,2.9.49Z"/><path class="cls-1" d="M148.05,38.09l-10.43-27.29h4.81l5.81,16.19c.62,1.68,1.14,3.35,1.57,5.02.43,1.67.88,3.28,1.36,4.85h-1.61c.47-1.56.92-3.18,1.35-4.85.43-1.67.95-3.34,1.55-5.02l5.81-16.19h4.81l-10.43,27.29h-4.61Z"/><path class="cls-1" d="M178.39,38.67c-2.47,0-4.64-.59-6.51-1.76s-3.32-2.82-4.36-4.93c-1.04-2.12-1.56-4.57-1.56-7.37s.52-5.33,1.56-7.46c1.04-2.12,2.49-3.77,4.36-4.94s4.03-1.76,6.51-1.76,4.67.59,6.54,1.76,3.33,2.82,4.37,4.94c1.04,2.12,1.56,4.61,1.56,7.46s-.52,5.26-1.56,7.37c-1.04,2.12-2.5,3.76-4.37,4.93s-4.05,1.76-6.54,1.76ZM178.39,34.74c1.84,0,3.35-.47,4.54-1.42,1.19-.94,2.07-2.19,2.64-3.72s.86-3.2.86-4.99-.29-3.49-.86-5.04c-.57-1.55-1.45-2.81-2.64-3.76s-2.7-1.43-4.54-1.43-3.32.48-4.49,1.43-2.04,2.2-2.61,3.75c-.57,1.55-.86,3.23-.86,5.05s.29,3.45.86,4.99c.57,1.54,1.44,2.78,2.61,3.72,1.17.94,2.67,1.42,4.49,1.42Z"/><path class="cls-1" d="M197.27,38.09V10.79h4.25v4.2h.29c.5-1.38,1.4-2.49,2.7-3.33,1.29-.84,2.75-1.26,4.38-1.26.32,0,.71,0,1.16.02.45.02.8.03,1.06.05v4.42c-.13-.03-.46-.08-.98-.15-.52-.06-1.07-.1-1.66-.1-1.3,0-2.47.27-3.5.82-1.04.55-1.84,1.29-2.43,2.25s-.88,2.05-.88,3.28v17.09h-4.39Z"/><path class="cls-1" d="M241.26,38.67c-2.47,0-4.64-.59-6.51-1.76-1.86-1.17-3.32-2.82-4.36-4.93-1.04-2.12-1.56-4.57-1.56-7.37s.52-5.33,1.56-7.46,2.49-3.77,4.36-4.94c1.87-1.17,4.03-1.76,6.51-1.76,1.32,0,2.56.17,3.73.51s2.24.83,3.21,1.48c.97.64,1.8,1.43,2.5,2.37.7.94,1.24,2,1.61,3.19l-4.22,1.2c-.2-.7-.5-1.34-.9-1.93s-.9-1.09-1.48-1.53c-.58-.43-1.24-.76-1.99-1-.75-.24-1.57-.35-2.46-.35-1.82,0-3.32.48-4.49,1.43s-2.04,2.2-2.61,3.75c-.57,1.55-.85,3.23-.85,5.05s.28,3.45.85,4.99,1.44,2.78,2.61,3.72c1.17.94,2.67,1.42,4.49,1.42.91,0,1.75-.12,2.51-.37s1.45-.59,2.04-1.04c.59-.45,1.09-.98,1.5-1.6.41-.62.71-1.29.9-2.03l4.2,1.2c-.36,1.22-.89,2.31-1.6,3.26-.71.95-1.55,1.77-2.53,2.44-.98.68-2.06,1.19-3.25,1.54s-2.45.52-3.78.52Z"/><path class="cls-1" d="M269.82,38.67c-2.47,0-4.64-.59-6.51-1.76-1.86-1.17-3.32-2.82-4.36-4.93-1.04-2.12-1.56-4.57-1.56-7.37s.52-5.33,1.56-7.46,2.49-3.77,4.36-4.94c1.87-1.17,4.03-1.76,6.51-1.76s4.67.59,6.54,1.76c1.87,1.17,3.33,2.82,4.37,4.94s1.56,4.61,1.56,7.46-.52,5.26-1.56,7.37c-1.04,2.12-2.5,3.76-4.37,4.93-1.87,1.17-4.05,1.76-6.54,1.76ZM269.82,34.74c1.84,0,3.35-.47,4.54-1.42,1.19-.94,2.07-2.19,2.64-3.72.57-1.54.85-3.2.85-4.99s-.29-3.49-.85-5.04c-.57-1.55-1.45-2.81-2.64-3.76-1.19-.95-2.7-1.43-4.54-1.43s-3.32.48-4.49,1.43-2.04,2.2-2.61,3.75c-.57,1.55-.85,3.23-.85,5.05s.28,3.45.85,4.99,1.44,2.78,2.61,3.72c1.17.94,2.67,1.42,4.49,1.42Z"/><path class="cls-1" d="M293.09,21.73v16.36h-4.39V10.79h4.22l.02,6.62h-.61c.83-2.52,2.01-4.31,3.55-5.37,1.54-1.06,3.34-1.59,5.41-1.59,1.84,0,3.45.38,4.83,1.14s2.46,1.9,3.23,3.42c.77,1.52,1.16,3.44,1.16,5.75v17.33h-4.39v-16.97c0-2.1-.55-3.74-1.65-4.93-1.1-1.19-2.6-1.78-4.5-1.78-1.3,0-2.47.29-3.52.85-1.04.57-1.86,1.4-2.46,2.49-.6,1.09-.9,2.42-.9,3.98Z"/><path class="cls-1" d="M330.93,10.79v3.76h-16.06v-3.76h16.06ZM320.24,38.09V7.15c0-1.58.37-2.9,1.11-3.96.74-1.06,1.71-1.86,2.89-2.39s2.44-.81,3.76-.81c1.04,0,1.9.09,2.59.26s1.19.33,1.51.48l-1.22,3.76c-.23-.08-.53-.17-.89-.27-.37-.1-.86-.15-1.48-.15-1.35,0-2.34.35-2.96,1.04-.62.69-.93,1.7-.93,3.02v29.96h-4.39Z"/><path class="cls-1" d="M338.96,6.32c-.83,0-1.55-.28-2.15-.85-.6-.57-.9-1.25-.9-2.05s.3-1.5.9-2.06c.6-.56,1.32-.84,2.15-.84s1.57.28,2.17.84.9,1.25.9,2.06-.3,1.48-.9,2.05c-.6.57-1.33.85-2.17.85ZM336.74,38.09V10.79h4.39v27.29h-4.39Z"/><path class="cls-1" d="M348.85,38.09V10.79h4.25v4.2h.29c.5-1.38,1.4-2.49,2.7-3.33,1.29-.84,2.76-1.26,4.38-1.26.33,0,.71,0,1.16.02.45.02.8.03,1.06.05v4.42c-.13-.03-.46-.08-.98-.15-.52-.06-1.07-.1-1.66-.1-1.3,0-2.47.27-3.5.82-1.03.55-1.84,1.29-2.43,2.25s-.88,2.05-.88,3.28v17.09h-4.39Z"/><path class="cls-1" d="M368.46,38.09V10.79h4.27l.03,6.1h-.34c.37-1.48.96-2.71,1.77-3.67.81-.97,1.75-1.7,2.83-2.19s2.21-.73,3.38-.73c1.99,0,3.59.61,4.82,1.83s2.02,2.82,2.38,4.81h-.59c.32-1.37.92-2.55,1.78-3.54.86-.99,1.91-1.76,3.14-2.29,1.23-.54,2.57-.81,4.02-.81,1.58,0,3.02.34,4.32,1.03s2.34,1.72,3.11,3.1c.77,1.38,1.16,3.13,1.16,5.25v18.41h-4.39v-18.29c0-1.97-.55-3.38-1.66-4.22-1.11-.85-2.39-1.27-3.86-1.27-1.22,0-2.28.26-3.16.77s-1.57,1.22-2.05,2.11c-.48.9-.72,1.92-.72,3.08v17.82h-4.39v-18.73c0-1.51-.5-2.73-1.51-3.66s-2.29-1.39-3.83-1.39c-1.06,0-2.05.25-2.99.74-.94.5-1.69,1.23-2.26,2.21s-.85,2.19-.85,3.64v17.19h-4.39Z"/><path class="cls-1" d="M419.9,38.72c-1.72,0-3.29-.33-4.7-.98s-2.53-1.6-3.36-2.86c-.83-1.25-1.24-2.77-1.24-4.57,0-1.56.31-2.83.93-3.81.62-.98,1.44-1.75,2.48-2.31,1.03-.56,2.18-.98,3.43-1.26,1.25-.28,2.51-.5,3.78-.66,1.63-.21,2.96-.37,3.98-.49,1.03-.11,1.79-.31,2.28-.59.5-.28.74-.75.74-1.42v-.15c0-1.14-.21-2.1-.63-2.89-.42-.79-1.06-1.4-1.9-1.82-.85-.42-1.9-.63-3.17-.63s-2.42.2-3.35.61c-.93.41-1.68.92-2.26,1.53s-1.01,1.23-1.31,1.87l-4.22-1.39c.7-1.66,1.64-2.96,2.83-3.89,1.19-.94,2.5-1.6,3.93-1.99s2.85-.59,4.25-.59c.91,0,1.95.11,3.11.33s2.29.66,3.37,1.31c1.08.65,1.98,1.62,2.69,2.89.71,1.28,1.06,2.98,1.06,5.11v17.99h-4.32v-3.71h-.29c-.31.63-.8,1.29-1.49,1.97-.68.68-1.57,1.24-2.66,1.7s-2.41.68-3.96.68ZM420.65,34.84c1.63,0,3-.32,4.12-.95s1.98-1.46,2.56-2.48c.59-1.02.88-2.08.88-3.19v-3.78c-.18.21-.57.4-1.17.57-.6.17-1.29.32-2.06.45-.77.13-1.52.24-2.25.33-.72.09-1.3.16-1.72.21-1.06.13-2.05.35-2.96.67-.92.32-1.66.78-2.21,1.39s-.83,1.44-.83,2.48c0,.94.24,1.73.73,2.37s1.16,1.12,2,1.44c.85.33,1.81.49,2.91.49Z"/><path class="cls-1" d="M465.14,10.79v3.76h-14.11v-3.76h14.11ZM455.13,4.3h4.39v26.71c0,1.22.25,2.11.74,2.67s1.32.84,2.48.84c.28,0,.63-.03,1.06-.1.43-.06.82-.13,1.18-.2l.9,3.71c-.46.16-.97.28-1.55.37-.58.08-1.15.12-1.72.12-2.36,0-4.2-.62-5.52-1.87s-1.98-2.98-1.98-5.21V4.3Z"/><path class="cls-1" d="M480,38.43c-1.84,0-3.45-.38-4.85-1.14-1.39-.76-2.47-1.9-3.25-3.43-.77-1.53-1.16-3.44-1.16-5.74V10.79h4.39v16.97c0,2.1.55,3.74,1.66,4.93,1.11,1.19,2.61,1.78,4.52,1.78,1.3,0,2.47-.28,3.5-.85,1.03-.57,1.85-1.4,2.45-2.5s.9-2.42.9-3.97V10.79h4.42v27.29h-4.25v-6.62h.59c-.85,2.56-2.05,4.35-3.6,5.4-1.55,1.04-3.33,1.56-5.34,1.56Z"/><path class="cls-1" d="M522.02,38.72c-1.73,0-3.29-.33-4.7-.98-1.41-.65-2.53-1.6-3.36-2.86-.83-1.25-1.25-2.77-1.25-4.57,0-1.56.31-2.83.93-3.81s1.45-1.75,2.48-2.31,2.18-.98,3.43-1.26c1.25-.28,2.52-.5,3.79-.66,1.63-.21,2.95-.37,3.98-.49,1.03-.11,1.79-.31,2.28-.59.5-.28.74-.75.74-1.42v-.15c0-1.14-.21-2.1-.63-2.89-.42-.79-1.06-1.4-1.9-1.82-.85-.42-1.9-.63-3.17-.63s-2.42.2-3.34.61c-.93.41-1.68.92-2.26,1.53-.58.61-1.01,1.23-1.3,1.87l-4.22-1.39c.7-1.66,1.64-2.96,2.83-3.89,1.19-.94,2.5-1.6,3.93-1.99,1.43-.39,2.85-.59,4.25-.59.91,0,1.95.11,3.11.33,1.16.22,2.29.66,3.37,1.31,1.08.65,1.98,1.62,2.69,2.89.71,1.28,1.06,2.98,1.06,5.11v17.99h-4.32v-3.71h-.29c-.31.63-.81,1.29-1.49,1.97-.68.68-1.57,1.24-2.66,1.7-1.09.46-2.41.68-3.96.68ZM522.78,34.84c1.63,0,3-.32,4.13-.95s1.98-1.46,2.56-2.48c.59-1.02.88-2.08.88-3.19v-3.78c-.18.21-.57.4-1.17.57s-1.29.32-2.06.45c-.77.13-1.52.24-2.25.33-.72.09-1.3.16-1.72.21-1.06.13-2.05.35-2.97.67s-1.66.78-2.21,1.39c-.55.61-.83,1.44-.83,2.48,0,.94.24,1.73.73,2.37s1.15,1.12,2,1.44c.85.33,1.81.49,2.9.49Z"/><path class="cls-1" d="M551.73,38.67c-1.87,0-3.54-.27-4.99-.82s-2.66-1.35-3.6-2.43-1.58-2.39-1.9-3.96l4.18-1c.39,1.5,1.13,2.6,2.21,3.3,1.08.7,2.44,1.05,4.06,1.05,1.9,0,3.42-.41,4.55-1.22,1.13-.81,1.7-1.78,1.7-2.91,0-.94-.33-1.73-.99-2.36-.66-.63-1.66-1.09-3.02-1.4l-4.54-1.07c-2.47-.59-4.31-1.49-5.52-2.72-1.21-1.23-1.81-2.8-1.81-4.72,0-1.56.44-2.94,1.32-4.14s2.08-2.13,3.6-2.81c1.52-.68,3.25-1.01,5.19-1.01s3.46.28,4.77.84,2.38,1.33,3.2,2.32c.82.98,1.44,2.12,1.84,3.41l-3.98,1.03c-.38-.98-1-1.86-1.87-2.66-.87-.8-2.18-1.2-3.94-1.2-1.63,0-2.98.37-4.07,1.12-1.08.75-1.62,1.69-1.62,2.83,0,1.01.37,1.82,1.1,2.43s1.89,1.1,3.49,1.48l4.13.98c2.47.59,4.3,1.49,5.49,2.72,1.19,1.23,1.78,2.78,1.78,4.65,0,1.6-.45,3.02-1.36,4.26-.9,1.25-2.16,2.23-3.79,2.94-1.62.72-3.49,1.07-5.63,1.07Z"/><path class="cls-1" d="M571.07,6.32c-.83,0-1.55-.28-2.15-.85-.6-.57-.9-1.25-.9-2.05s.3-1.5.9-2.06,1.32-.84,2.15-.84,1.57.28,2.17.84c.6.56.9,1.25.9,2.06s-.3,1.48-.9,2.05c-.6.57-1.33.85-2.17.85ZM568.85,38.09V10.79h4.39v27.29h-4.39Z"/><path class="cls-1" d="M590.23,38.67c-1.87,0-3.54-.27-4.99-.82-1.46-.54-2.66-1.35-3.6-2.43-.95-1.07-1.58-2.39-1.9-3.96l4.17-1c.39,1.5,1.13,2.6,2.21,3.3,1.08.7,2.44,1.05,4.06,1.05,1.9,0,3.42-.41,4.55-1.22,1.13-.81,1.7-1.78,1.7-2.91,0-.94-.33-1.73-.99-2.36-.66-.63-1.67-1.09-3.02-1.4l-4.54-1.07c-2.47-.59-4.31-1.49-5.52-2.72-1.21-1.23-1.81-2.8-1.81-4.72,0-1.56.44-2.94,1.32-4.14s2.08-2.13,3.6-2.81c1.52-.68,3.25-1.01,5.19-1.01s3.46.28,4.77.84c1.31.56,2.38,1.33,3.2,2.32.82.98,1.44,2.12,1.84,3.41l-3.98,1.03c-.38-.98-1-1.86-1.87-2.66-.87-.8-2.19-1.2-3.94-1.2-1.63,0-2.98.37-4.06,1.12-1.08.75-1.62,1.69-1.62,2.83,0,1.01.37,1.82,1.1,2.43s1.9,1.1,3.49,1.48l4.12.98c2.47.59,4.3,1.49,5.49,2.72,1.19,1.23,1.78,2.78,1.78,4.65,0,1.6-.45,3.02-1.35,4.26-.9,1.25-2.17,2.23-3.79,2.94s-3.5,1.07-5.63,1.07Z"/><path class="cls-1" d="M618.09,10.79v3.76h-14.11v-3.76h14.11ZM608.08,4.3h4.39v26.71c0,1.22.25,2.11.74,2.67.5.56,1.32.84,2.48.84.28,0,.63-.03,1.06-.1.43-.06.83-.13,1.18-.2l.9,3.71c-.46.16-.97.28-1.55.37-.58.08-1.15.12-1.72.12-2.36,0-4.2-.62-5.52-1.87s-1.98-2.98-1.98-5.21V4.3Z"/><path class="cls-1" d="M634.69,38.67c-2.64,0-4.91-.59-6.82-1.76-1.91-1.17-3.38-2.81-4.42-4.91s-1.55-4.55-1.55-7.35.5-5.27,1.51-7.4c1.01-2.13,2.44-3.8,4.29-5,1.85-1.2,4.01-1.81,6.48-1.81,1.45,0,2.88.24,4.28.72,1.41.48,2.69,1.25,3.83,2.32,1.15,1.07,2.06,2.47,2.75,4.21.68,1.74,1.03,3.87,1.03,6.4v1.83h-21.19v-3.71h18.82l-2.05,1.37c0-1.79-.28-3.38-.84-4.77-.56-1.39-1.39-2.48-2.5-3.27-1.11-.79-2.48-1.18-4.12-1.18s-3.05.4-4.22,1.21-2.07,1.86-2.69,3.15-.93,2.68-.93,4.16v2.47c0,2.02.35,3.73,1.05,5.14.7,1.41,1.68,2.47,2.94,3.2,1.26.72,2.72,1.09,4.38,1.09,1.07,0,2.05-.15,2.93-.46.88-.31,1.63-.78,2.27-1.4.63-.63,1.12-1.4,1.46-2.33l4.25,1.17c-.42,1.37-1.14,2.57-2.15,3.61-1.01,1.04-2.26,1.86-3.75,2.44-1.49.59-3.17.88-5.04.88Z"/><path class="cls-1" d="M656.76,21.73v16.36h-4.39V10.79h4.22l.02,6.62h-.61c.83-2.52,2.01-4.31,3.55-5.37,1.54-1.06,3.34-1.59,5.41-1.59,1.84,0,3.45.38,4.83,1.14s2.46,1.9,3.23,3.42c.77,1.52,1.16,3.44,1.16,5.75v17.33h-4.39v-16.97c0-2.1-.55-3.74-1.65-4.93-1.1-1.19-2.6-1.78-4.5-1.78-1.3,0-2.47.29-3.52.85-1.04.57-1.86,1.4-2.46,2.49-.6,1.09-.9,2.42-.9,3.98Z"/><path class="cls-1" d="M693.02,38.67c-2.47,0-4.64-.59-6.51-1.76-1.86-1.17-3.32-2.82-4.36-4.93-1.04-2.12-1.56-4.57-1.56-7.37s.52-5.33,1.56-7.46,2.49-3.77,4.36-4.94c1.87-1.17,4.03-1.76,6.51-1.76,1.32,0,2.56.17,3.73.51s2.24.83,3.21,1.48c.97.64,1.8,1.43,2.5,2.37.7.94,1.24,2,1.61,3.19l-4.22,1.2c-.2-.7-.5-1.34-.9-1.93s-.9-1.09-1.48-1.53c-.58-.43-1.24-.76-1.99-1-.75-.24-1.57-.35-2.46-.35-1.82,0-3.32.48-4.49,1.43s-2.04,2.2-2.61,3.75c-.57,1.55-.85,3.23-.85,5.05s.28,3.45.85,4.99,1.44,2.78,2.61,3.72c1.17.94,2.67,1.42,4.49,1.42.91,0,1.75-.12,2.51-.37s1.45-.59,2.04-1.04c.59-.45,1.09-.98,1.5-1.6.41-.62.71-1.29.9-2.03l4.2,1.2c-.36,1.22-.89,2.31-1.6,3.26-.71.95-1.55,1.77-2.53,2.44-.98.68-2.06,1.19-3.25,1.54s-2.45.52-3.78.52Z"/><path class="cls-1" d="M712.7,6.32c-.83,0-1.55-.28-2.15-.85-.6-.57-.9-1.25-.9-2.05s.3-1.5.9-2.06c.6-.56,1.32-.84,2.15-.84s1.57.28,2.17.84.9,1.25.9,2.06-.3,1.48-.9,2.05c-.6.57-1.33.85-2.17.85ZM710.47,38.09V10.79h4.39v27.29h-4.39Z"/><path class="cls-1" d="M730.22,38.72c-1.73,0-3.29-.33-4.7-.98-1.41-.65-2.53-1.6-3.36-2.86-.83-1.25-1.25-2.77-1.25-4.57,0-1.56.31-2.83.93-3.81s1.45-1.75,2.48-2.31,2.18-.98,3.43-1.26c1.25-.28,2.52-.5,3.79-.66,1.63-.21,2.95-.37,3.98-.49,1.03-.11,1.79-.31,2.28-.59.5-.28.74-.75.74-1.42v-.15c0-1.14-.21-2.1-.63-2.89-.42-.79-1.06-1.4-1.9-1.82-.85-.42-1.9-.63-3.17-.63s-2.42.2-3.34.61c-.93.41-1.68.92-2.26,1.53-.58.61-1.01,1.23-1.3,1.87l-4.22-1.39c.7-1.66,1.64-2.96,2.83-3.89,1.19-.94,2.5-1.6,3.93-1.99,1.43-.39,2.85-.59,4.25-.59.91,0,1.95.11,3.11.33,1.16.22,2.29.66,3.37,1.31,1.08.65,1.98,1.62,2.69,2.89.71,1.28,1.06,2.98,1.06,5.11v17.99h-4.32v-3.71h-.29c-.31.63-.81,1.29-1.49,1.97-.68.68-1.57,1.24-2.66,1.7-1.09.46-2.41.68-3.96.68ZM730.98,34.84c1.63,0,3-.32,4.13-.95s1.98-1.46,2.56-2.48c.59-1.02.88-2.08.88-3.19v-3.78c-.18.21-.57.4-1.17.57s-1.29.32-2.06.45c-.77.13-1.52.24-2.25.33-.72.09-1.3.16-1.72.21-1.06.13-2.05.35-2.97.67s-1.66.78-2.21,1.39c-.55.61-.83,1.44-.83,2.48,0,.94.24,1.73.73,2.37s1.15,1.12,2,1.44c.85.33,1.81.49,2.9.49Z"/><path class="cls-1" d="M0,88.09v-36.38h7.45v14.7h15.85v-14.7h7.47v36.38h-7.47v-15.5H7.45v15.5H0Z"/><path class="cls-1" d="M44.8,88.62c-1.72,0-3.28-.31-4.65-.92s-2.46-1.52-3.25-2.73c-.79-1.21-1.18-2.72-1.18-4.53,0-1.51.28-2.78.84-3.81s1.33-1.85,2.29-2.47c.97-.62,2.07-1.09,3.3-1.42,1.23-.33,2.52-.55,3.87-.68,1.58-.16,2.85-.31,3.82-.45.97-.14,1.68-.36,2.12-.66.45-.3.67-.74.67-1.33v-.12c0-.78-.16-1.44-.49-1.98-.33-.54-.81-.95-1.45-1.23-.64-.28-1.42-.43-2.33-.43s-1.77.14-2.46.43c-.7.29-1.27.66-1.71,1.14-.44.47-.77,1-.98,1.59l-6.71-1.1c.47-1.59,1.25-2.95,2.34-4.05,1.09-1.11,2.45-1.95,4.07-2.54,1.62-.59,3.45-.88,5.48-.88,1.46,0,2.89.18,4.27.52,1.38.35,2.62.89,3.72,1.62s1.97,1.69,2.61,2.87c.64,1.18.96,2.59.96,4.24v18.38h-6.93v-3.78h-.24c-.44.85-1.03,1.59-1.76,2.23-.73.64-1.62,1.15-2.65,1.53-1.03.37-2.23.56-3.58.56ZM46.88,83.47c1.15,0,2.17-.23,3.04-.68.87-.46,1.55-1.07,2.04-1.86s.73-1.65.73-2.61v-2.95c-.21.16-.54.31-.98.44-.44.13-.93.24-1.46.34s-1.07.19-1.59.27c-.52.08-.98.15-1.39.2-.9.13-1.69.34-2.37.63s-1.21.68-1.59,1.16c-.38.48-.56,1.09-.56,1.84,0,.7.18,1.29.54,1.77.36.48.85.84,1.46,1.09.62.24,1.33.37,2.12.37Z"/><path class="cls-1" d="M77.05,88.62c-2.2,0-4.14-.31-5.84-.94s-3.08-1.54-4.15-2.73-1.77-2.64-2.07-4.33l6.81-1.17c.36,1.27.98,2.22,1.88,2.86.89.63,2.09.95,3.59.95,1.4,0,2.5-.26,3.31-.79.81-.53,1.21-1.2,1.21-2.01,0-.72-.29-1.3-.87-1.76-.58-.46-1.46-.81-2.65-1.05l-4.71-.98c-2.64-.54-4.61-1.45-5.91-2.75-1.3-1.29-1.95-2.96-1.95-4.99,0-1.76.48-3.27,1.44-4.53.96-1.26,2.29-2.23,4-2.92s3.72-1.03,6.03-1.03c2.15,0,4.01.3,5.59.89,1.58.59,2.86,1.44,3.83,2.53.98,1.09,1.63,2.38,1.95,3.86l-6.49,1.15c-.28-.93-.81-1.69-1.6-2.28-.79-.59-1.85-.89-3.19-.89-1.21,0-2.21.25-3.03.76-.81.5-1.22,1.18-1.22,2.03,0,.68.27,1.26.79,1.73.53.47,1.44.84,2.72,1.1l4.91.98c2.64.54,4.6,1.41,5.88,2.62,1.29,1.21,1.93,2.8,1.93,4.75,0,1.79-.52,3.36-1.56,4.7-1.04,1.34-2.48,2.39-4.31,3.14-1.83.75-3.94,1.12-6.34,1.12Z"/><path class="cls-1" d="M107.76,60.79v5.59h-16.19v-5.59h16.19ZM95.34,54.3h7.32v25.81c0,.86.19,1.5.57,1.92s1.02.62,1.92.62c.28,0,.67-.04,1.17-.11s.89-.14,1.15-.21l1.05,5.49c-.81.24-1.62.42-2.43.51-.8.1-1.57.15-2.31.15-2.73,0-4.83-.67-6.27-2-1.45-1.33-2.17-3.25-2.17-5.74v-26.44Z"/><path class="cls-1" d="M120.38,88.62c-1.72,0-3.28-.31-4.65-.92s-2.46-1.52-3.25-2.73c-.79-1.21-1.18-2.72-1.18-4.53,0-1.51.28-2.78.84-3.81.56-1.03,1.33-1.85,2.29-2.47.97-.62,2.07-1.09,3.3-1.42,1.23-.33,2.52-.55,3.87-.68,1.58-.16,2.85-.31,3.82-.45.97-.14,1.68-.36,2.12-.66.45-.3.67-.74.67-1.33v-.12c0-.78-.16-1.44-.49-1.98-.33-.54-.81-.95-1.45-1.23-.64-.28-1.42-.43-2.33-.43s-1.77.14-2.46.43c-.7.29-1.27.66-1.71,1.14-.44.47-.77,1-.98,1.59l-6.71-1.1c.47-1.59,1.25-2.95,2.34-4.05,1.09-1.11,2.45-1.95,4.06-2.54,1.62-.59,3.45-.88,5.48-.88,1.46,0,2.89.18,4.27.52,1.38.35,2.62.89,3.72,1.62,1.1.73,1.97,1.69,2.61,2.87.64,1.18.96,2.59.96,4.24v18.38h-6.93v-3.78h-.24c-.44.85-1.03,1.59-1.76,2.23-.73.64-1.62,1.15-2.65,1.53-1.03.37-2.22.56-3.58.56ZM122.46,83.47c1.15,0,2.17-.23,3.04-.68.87-.46,1.55-1.07,2.04-1.86s.73-1.65.73-2.61v-2.95c-.21.16-.54.31-.98.44-.44.13-.93.24-1.46.34s-1.07.19-1.59.27c-.52.08-.98.15-1.39.2-.9.13-1.69.34-2.37.63s-1.21.68-1.59,1.16c-.38.48-.56,1.09-.56,1.84,0,.7.18,1.29.54,1.77.36.48.85.84,1.46,1.09s1.33.37,2.12.37Z"/><path class="cls-1" d="M165.97,88.62c-2.78,0-5.19-.57-7.2-1.71-2.02-1.14-3.57-2.76-4.65-4.86s-1.62-4.59-1.62-7.47.54-5.28,1.61-7.4c1.07-2.12,2.6-3.77,4.56-4.96,1.97-1.19,4.28-1.78,6.93-1.78,1.79,0,3.46.29,5.01.85,1.54.57,2.9,1.43,4.08,2.58s2.09,2.58,2.75,4.31c.66,1.73.99,3.76.99,6.1v2.05h-22.93v-4.59h19.34l-3.42,1.22c0-1.42-.21-2.65-.65-3.7s-1.07-1.86-1.93-2.44c-.85-.58-1.91-.87-3.16-.87s-2.35.29-3.24.88c-.89.59-1.56,1.38-2.01,2.38s-.68,2.14-.68,3.43v3.25c0,1.58.27,2.91.79,3.98.53,1.07,1.27,1.88,2.22,2.42.95.54,2.06.81,3.33.81.86,0,1.64-.12,2.34-.37s1.3-.61,1.79-1.09c.5-.48.88-1.07,1.13-1.77l6.64,1.25c-.44,1.5-1.21,2.81-2.29,3.94-1.09,1.13-2.45,2.01-4.09,2.62-1.63.62-3.52.93-5.65.93Z"/><path class="cls-1" d="M190.75,51.71v36.38h-7.32v-36.38h7.32Z"/><path class="cls-1" d="M223.97,51.71v36.38h-7.45v-29.81h-.24l-8.32,5.91v-6.84l8.03-5.64h7.98Z"/><path class="cls-1" d="M242.58,88.57c-2.49,0-4.71-.46-6.65-1.38-1.95-.92-3.48-2.19-4.62-3.8s-1.73-3.45-1.79-5.52h7.28c.05.94.34,1.78.87,2.5.53.72,1.22,1.29,2.09,1.68.86.4,1.81.6,2.83.6,1.22,0,2.3-.27,3.23-.82.94-.54,1.67-1.31,2.21-2.28s.81-2.11.81-3.39-.27-2.43-.82-3.43-1.29-1.78-2.25-2.33c-.95-.55-2.05-.83-3.31-.83-1.09,0-2.13.22-3.14.65-1,.43-1.78,1.01-2.33,1.75l-6.69-1.17,1.73-19.09h22.02v6.15h-15.85l-.93,9.2h.2c.65-.88,1.62-1.6,2.89-2.17,1.28-.57,2.7-.85,4.26-.85,1.64,0,3.16.29,4.55.88,1.39.59,2.6,1.41,3.62,2.48,1.03,1.07,1.82,2.33,2.39,3.8s.86,3.07.86,4.81c0,2.44-.57,4.61-1.7,6.49-1.13,1.89-2.71,3.37-4.74,4.46-2.03,1.08-4.38,1.62-7.04,1.62Z"/><path class="cls-1" d="M283.28,88.55c-2.08,0-3.97-.54-5.65-1.62-1.68-1.08-3.01-2.67-3.99-4.76-.98-2.09-1.46-4.65-1.46-7.68s.5-5.7,1.51-7.79c1.01-2.08,2.35-3.65,4.03-4.69,1.68-1.04,3.52-1.56,5.54-1.56,1.54,0,2.83.26,3.86.78,1.03.52,1.86,1.16,2.49,1.93.63.77,1.11,1.51,1.42,2.22h.24v-13.67h7.32v36.38h-7.2v-4.37h-.37c-.33.73-.81,1.47-1.45,2.21-.64.74-1.48,1.36-2.5,1.87s-2.29.76-3.79.76ZM285.55,82.67c1.24,0,2.29-.34,3.17-1.03s1.54-1.64,2-2.87c.46-1.23.68-2.67.68-4.31s-.22-3.1-.67-4.31c-.45-1.21-1.11-2.16-1.99-2.83-.88-.68-1.95-1.01-3.2-1.01s-2.37.35-3.24,1.05c-.87.7-1.53,1.66-1.96,2.88s-.66,2.63-.66,4.22.22,3.01.67,4.25c.45,1.24,1.11,2.21,1.98,2.91.87.7,1.94,1.05,3.21,1.05Z"/><path class="cls-1" d="M317.16,88.62c-2.78,0-5.18-.57-7.2-1.71-2.02-1.14-3.57-2.76-4.65-4.86-1.08-2.1-1.62-4.59-1.62-7.47s.54-5.28,1.61-7.4c1.07-2.12,2.6-3.77,4.57-4.96,1.97-1.19,4.28-1.78,6.93-1.78,1.79,0,3.46.29,5,.85,1.55.57,2.91,1.43,4.08,2.58s2.09,2.58,2.75,4.31c.66,1.73.99,3.76.99,6.1v2.05h-22.92v-4.59h19.34l-3.42,1.22c0-1.42-.22-2.65-.65-3.7-.43-1.05-1.07-1.86-1.93-2.44-.85-.58-1.91-.87-3.16-.87s-2.35.29-3.23.88-1.56,1.38-2.01,2.38c-.46,1-.68,2.14-.68,3.43v3.25c0,1.58.26,2.91.79,3.98s1.27,1.88,2.22,2.42c.95.54,2.06.81,3.33.81.86,0,1.64-.12,2.34-.37.7-.24,1.3-.61,1.79-1.09.5-.48.87-1.07,1.13-1.77l6.64,1.25c-.44,1.5-1.21,2.81-2.29,3.94-1.09,1.13-2.45,2.01-4.09,2.62-1.63.62-3.52.93-5.65.93Z"/><path class="cls-1" d="M357.18,88.57c-3.78,0-6.75-.99-8.92-2.97-2.17-1.98-3.26-4.8-3.26-8.46v-2.12h7.45v2.25c0,1.74.43,3.06,1.28,3.96.85.9,2.01,1.34,3.46,1.34s2.6-.45,3.44-1.34c.85-.9,1.27-2.22,1.27-3.98v-25.54h7.37v25.42c0,3.68-1.07,6.51-3.22,8.48s-5.1,2.97-8.86,2.97Z"/><path class="cls-1" d="M385.08,88.43c-1.89,0-3.54-.41-4.96-1.23-1.42-.82-2.51-2-3.28-3.54-.77-1.54-1.16-3.37-1.16-5.51v-17.36h7.32v16.09c0,1.69.44,3.02,1.32,3.98.88.96,2.08,1.44,3.61,1.44,1.04,0,1.96-.22,2.76-.67.8-.45,1.42-1.1,1.87-1.95.45-.85.67-1.88.67-3.09v-15.8h7.35v27.29h-6.93l-.1-6.81h.41c-.72,2.29-1.81,4.06-3.28,5.3-1.47,1.24-3.34,1.86-5.6,1.86Z"/><path class="cls-1" d="M414.13,51.71v36.38h-7.32v-36.38h7.32Z"/><path class="cls-1" d="M424.02,57.23c-1.11,0-2.05-.37-2.83-1.1s-1.17-1.62-1.17-2.66.39-1.93,1.17-2.66,1.72-1.1,2.83-1.1,2.05.37,2.84,1.1,1.18,1.62,1.18,2.66-.39,1.93-1.18,2.66-1.74,1.1-2.84,1.1ZM420.36,88.09v-27.29h7.32v27.29h-7.32Z"/><path class="cls-1" d="M446.12,88.62c-2.73,0-5.1-.59-7.1-1.77-2-1.18-3.54-2.82-4.63-4.93-1.08-2.11-1.62-4.56-1.62-7.36s.54-5.3,1.62-7.41c1.08-2.11,2.62-3.75,4.63-4.93,2-1.18,4.37-1.77,7.1-1.77s5.12.59,7.12,1.77c1.99,1.18,3.53,2.82,4.61,4.93,1.08,2.11,1.62,4.58,1.62,7.41s-.54,5.25-1.62,7.36c-1.08,2.11-2.62,3.75-4.61,4.93-1.99,1.18-4.37,1.77-7.12,1.77ZM446.12,82.86c1.3,0,2.39-.36,3.27-1.09.88-.72,1.54-1.72,1.98-2.98.44-1.26.66-2.68.66-4.26s-.22-3.04-.66-4.3c-.44-1.25-1.1-2.24-1.98-2.95-.88-.72-1.97-1.07-3.27-1.07s-2.39.36-3.26,1.07c-.87.72-1.53,1.7-1.96,2.95-.44,1.25-.66,2.69-.66,4.3s.22,3,.66,4.26c.44,1.26,1.1,2.25,1.96,2.98.87.72,1.96,1.09,3.26,1.09Z"/></g></svg>